<svg xmlns="http://www.w3.org/2000/svg" xmlns:xlink="http://www.w3.org/1999/xlink" width="435" height="434.31" viewBox="0 0 435 434.31">
  <defs>
    <style>
      .cls-1, .cls-10, .cls-12, .cls-13, .cls-14, .cls-6, .cls-8 {
        fill: none;
      }

      .cls-2 {
        fill: #d3487b;
      }

      .cls-3 {
        fill: #b9416d;
      }

      .cls-4 {
        fill: #eaba3c;
      }

      .cls-5 {
        fill: #ff9100;
      }

      .cls-6 {
        stroke: #ab520e;
      }

      .cls-10, .cls-14, .cls-6, .cls-8 {
        stroke-linecap: round;
      }

      .cls-10, .cls-12, .cls-13, .cls-14, .cls-6, .cls-8 {
        stroke-miterlimit: 10;
      }

      .cls-10, .cls-13, .cls-6, .cls-8 {
        stroke-width: 2.289px;
      }

      .cls-7 {
        fill: #48a7bb;
      }

      .cls-8 {
        stroke: #29567d;
      }

      .cls-9 {
        fill: #813d8e;
      }

      .cls-10 {
        stroke: #ffd63f;
      }

      .cls-11 {
        fill: #ffd63f;
      }

      .cls-12 {
        stroke: #8d2e51;
        stroke-width: 1.144px;
        stroke-dasharray: 9.156;
      }

      .cls-13, .cls-14 {
        stroke: #fff;
      }

      .cls-14 {
        stroke-width: 4.578px;
      }

      .cls-15 {
        fill: #fff;
      }

      .cls-16 {
        fill: url(#linear-gradient);
      }

      .cls-17 {
        fill: url(#linear-gradient-2);
      }

      .cls-18 {
        fill: url(#linear-gradient-3);
      }

      .cls-19 {
        fill: url(#linear-gradient-4);
      }

      .cls-20 {
        fill: #ecbb3c;
      }

      .cls-21 {
        fill: url(#linear-gradient-5);
      }

      .cls-22 {
        fill: #1d262d;
      }

      .cls-23 {
        fill: #1d184c;
      }

      .cls-24 {
        fill: #84614b;
      }

      .cls-25 {
        fill: #744b90;
      }

      .cls-26 {
        fill: #5884d4;
      }

      .cls-27 {
        fill: #f4d54f;
      }

      .cls-28 {
        fill: #633631;
      }

      .cls-29 {
        clip-path: url(#clip-path);
      }

      .cls-30 {
        fill: url(#linear-gradient-6);
      }

      .cls-31 {
        fill: url(#linear-gradient-7);
      }

      .cls-32 {
        fill: #1b8775;
      }

      .cls-33 {
        fill: #43ba45;
      }

      .cls-34 {
        clip-path: url(#clip-path-2);
      }

      .cls-35 {
        fill: #19114c;
      }

      .cls-36 {
        fill: #f89a5b;
      }

      .cls-37 {
        fill: #685b9e;
      }

      .cls-38 {
        fill: #112129;
      }

      .cls-39 {
        fill: #dc7044;
      }

      .cls-40 {
        clip-path: url(#clip-path-3);
      }

      .cls-41 {
        clip-path: url(#clip-path-4);
      }
    </style>
    <linearGradient id="linear-gradient" x1="-2.06" y1="-3.671" x2="-1.289" y2="3.445" gradientUnits="objectBoundingBox">
      <stop offset="0" stop-color="#228ab0"/>
      <stop offset="1" stop-color="#173678"/>
    </linearGradient>
    <linearGradient id="linear-gradient-2" x1="-2.03" y1="-3.665" x2="-1.26" y2="3.441" xlink:href="#linear-gradient"/>
    <linearGradient id="linear-gradient-3" x1="-2.001" y1="-3.668" x2="-1.23" y2="3.444" xlink:href="#linear-gradient"/>
    <linearGradient id="linear-gradient-4" y1="0.5" x2="1" y2="0.5" gradientUnits="objectBoundingBox">
      <stop offset="0" stop-color="#c0fc58"/>
      <stop offset="1" stop-color="#43ba45"/>
    </linearGradient>
    <linearGradient id="linear-gradient-5" x1="0.631" y1="0.58" x2="1.507" y2="1.109" gradientUnits="objectBoundingBox">
      <stop offset="0" stop-color="#fff"/>
      <stop offset="1" stop-color="#e0e0d3"/>
    </linearGradient>
    <clipPath id="clip-path">
      <path id="Path_3727" data-name="Path 3727" class="cls-1" d="M272.235,259.823c-.112.793-1.764,1.423-3.093,1.376-1.652-.059-3.44-1.176-3.3-2.046.153-1.012,3-1.952,5.062-.841C271.106,258.423,272.341,259.094,272.235,259.823Z" transform="translate(-265.831 -257.81)"/>
    </clipPath>
    <linearGradient id="linear-gradient-6" x1="0.051" y1="2.935" x2="-0.436" y2="2.67" gradientUnits="objectBoundingBox">
      <stop offset="0" stop-color="#f0faff"/>
      <stop offset="1" stop-color="#a7c3d1"/>
    </linearGradient>
    <linearGradient id="linear-gradient-7" x1="-0.168" y1="2.439" x2="-0.406" y2="3.274" gradientUnits="objectBoundingBox">
      <stop offset="0" stop-color="#f0faff"/>
      <stop offset="1" stop-color="#d3dce0"/>
    </linearGradient>
    <clipPath id="clip-path-2">
      <path id="Path_3733" data-name="Path 3733" class="cls-1" d="M308.121,260.952a1.885,1.885,0,0,1-2.211,1.517,1.827,1.827,0,0,1-1.576-1.976c.229-.917,1.629-1.117,2.264-1.088a1.547,1.547,0,0,1,.629.135A1.6,1.6,0,0,1,308.121,260.952Z" transform="translate(-304.305 -259.403)"/>
    </clipPath>
    <clipPath id="clip-path-3">
      <path id="Path_3755" data-name="Path 3755" class="cls-1" d="M768.55,259.167c.108.763,1.7,1.368,2.975,1.323,1.589-.057,3.308-1.131,3.178-1.968-.147-.973-2.884-1.878-4.869-.809C769.636,257.821,768.448,258.466,768.55,259.167Z" transform="translate(-768.544 -257.231)"/>
    </clipPath>
    <clipPath id="clip-path-4">
      <path id="Path_3757" data-name="Path 3757" class="cls-1" d="M739.836,260.313a1.813,1.813,0,0,0,2.126,1.459,1.758,1.758,0,0,0,1.516-1.9c-.221-.882-1.566-1.075-2.177-1.046a1.487,1.487,0,0,0-.605.13A1.537,1.537,0,0,0,739.836,260.313Z" transform="translate(-739.836 -258.824)"/>
    </clipPath>
  </defs>
  <g id="asesoria" transform="translate(-140 -921.69)">
    <ellipse id="Ellipse_65" data-name="Ellipse 65" class="cls-2" cx="215.935" cy="217.155" rx="215.935" ry="217.155" transform="translate(142.129 921.69)"/>
    <g id="Group_1385" data-name="Group 1385" transform="translate(112.189 900.484)">
      <path id="Path_3762" data-name="Path 3762" class="cls-3" d="M41.522,268.51C18.59,268.51,0,270.878,0,273.8s18.59,5.29,41.522,5.29,41.522-2.368,41.522-5.29S64.454,268.51,41.522,268.51Z" transform="translate(193.767 127.642)"/>
      <path id="Path_3763" data-name="Path 3763" class="cls-3" d="M62.688,268.51C28.066,268.51,0,270.878,0,273.8s28.066,5.29,62.688,5.29,62.688-2.368,62.688-5.29S97.309,268.51,62.688,268.51Z" transform="translate(306.811 99.642)"/>
      <g id="Group_1352" data-name="Group 1352" transform="translate(225.11 275.799)">
        <path id="Path_3660" data-name="Path 3660" class="cls-4" d="M518.721,716.023a40.355,40.355,0,0,1,11.318-5.325c3.2-1.21,6.642-2.514,10.131-6.88,3.264-4.459,3.095-7.347,2.924-10.062a20.3,20.3,0,0,1,.894-10.107,22.149,22.149,0,0,1,5.235-9.148,14.161,14.161,0,0,0,3.95-9.759c.151-5.129-1.576-7.777-3.266-10.336a22.654,22.654,0,0,1-4.239-10.047,17.893,17.893,0,0,1,.881-10.176,14.412,14.412,0,0,0,.036-10.368c-1.68-5.065-4.164-7.388-6.591-9.646a28.4,28.4,0,0,1-7.269-9.22,28.42,28.42,0,0,1-9.385,7.061,20.827,20.827,0,0,0-8.831,7.642,14.482,14.482,0,0,0-2.615,10.037,17.864,17.864,0,0,1-1.742,10.065,22.669,22.669,0,0,1-6.661,8.632c-2.287,2.043-4.633,4.162-5.789,9.164a14.184,14.184,0,0,0,1.325,10.443,22.183,22.183,0,0,1,2.724,10.176,20.164,20.164,0,0,1-1.714,10c-.847,2.581-1.751,5.33.261,10.477,2.258,5.107,5.257,7.247,8.04,9.237a40.314,40.314,0,0,1,9.592,8.036Z" transform="translate(-497.25 -604.949)"/>
        <path id="Path_3661" data-name="Path 3661" class="cls-5" d="M520.32,743.968a22.157,22.157,0,0,1-.348-10.535,14.16,14.16,0,0,0-1.762-10.379c-2.567-4.444-5.425-5.789-8.206-7.082a23.066,23.066,0,0,1-7.709-5.058,14.764,14.764,0,0,0-4.594,8.065,14.183,14.183,0,0,0,1.325,10.443A22.183,22.183,0,0,1,501.75,739.6a20.165,20.165,0,0,1-1.714,10c-.847,2.581-1.751,5.33.261,10.477,2.258,5.107,5.257,7.247,8.04,9.237a40.314,40.314,0,0,1,9.592,8.036l.791.1c.969-.65,1.864-1.191,2.719-1.682.4-.488.8-.973,1.212-1.458,2.089-2.711,4.333-5.627,5.009-11.174.435-5.509-1.225-7.878-2.8-10.1A20.321,20.321,0,0,1,520.32,743.968Z" transform="translate(-497.25 -666.378)"/>
        <line id="Line_34" data-name="Line 34" class="cls-6" x1="14.811" y2="114.214" transform="translate(19.866 6.138)"/>
        <path id="Path_3662" data-name="Path 3662" class="cls-6" d="M521.647,808.5l12.607,11.708,15.174-8.108" transform="translate(-511.393 -722.951)"/>
        <path id="Path_3663" data-name="Path 3663" class="cls-6" d="M507.48,745.588l20.982,19.49,25.254-13.492" transform="translate(-503.18 -686.479)"/>
        <path id="Path_3664" data-name="Path 3664" class="cls-6" d="M527.209,704.642l15.572,14.464,18.746-10.013" transform="translate(-514.617 -662.742)"/>
        <path id="Path_3665" data-name="Path 3665" class="cls-6" d="M541.447,659.843l12.412,11.527,14.941-7.982" transform="translate(-522.872 -636.772)"/>
        <path id="Path_3666" data-name="Path 3666" class="cls-6" d="M560.742,631.267l6.563,6.1,7.9-4.222" transform="translate(-534.057 -620.206)"/>
      </g>
      <g id="Group_1353" data-name="Group 1353" transform="translate(32.294 236.815)">
        <path id="Path_3667" data-name="Path 3667" class="cls-4" d="M88.089,580.283a28.671,28.671,0,0,1-1.1-10.567,19.314,19.314,0,0,0-2.212-10.611,19.62,19.62,0,0,0-7.054-8.222,26.789,26.789,0,0,1-7.531-7.557,25.9,25.9,0,0,1-4.352-9.75,20.7,20.7,0,0,0-4.985-9.588,20.787,20.787,0,0,0-8.827-6.232,26.725,26.725,0,0,1-9.056-5.564,26.672,26.672,0,0,1-2.536,10.319,22.888,22.888,0,0,0,1.281,20.963,25.883,25.883,0,0,1,3.752,10,26.777,26.777,0,0,1-.053,10.671,19.678,19.678,0,0,0-.148,7.284L75.376,616.6c.624.19,1.233.353,1.828.507a30.924,30.924,0,0,1,9.951,3.529l.547-.224a31,31,0,0,1,4.6-9.5,18.359,18.359,0,0,0,3.1-10.46,18.633,18.633,0,0,0-3-10.475A29.394,29.394,0,0,1,88.089,580.283Z" transform="translate(-38.478 -512.193)"/>
        <path id="Path_3668" data-name="Path 3668" class="cls-5" d="M138.158,643.983a28.671,28.671,0,0,1-1.1-10.567,19.314,19.314,0,0,0-2.212-10.611c-.13-.263-.261-.485-.391-.731a27.319,27.319,0,0,1-.973,4.068,24.118,24.118,0,0,1-4.468,8.523,17.727,17.727,0,0,0-3.875,8.97,17.475,17.475,0,0,0,.932,9.729,25.917,25.917,0,0,1,1.879,9.4,26.425,26.425,0,0,1-1.124,9.505,16.614,16.614,0,0,0-.156,8.376c.2.055.406.117.6.167a30.922,30.922,0,0,1,9.951,3.529l.547-.224a31,31,0,0,1,4.6-9.5,18.358,18.358,0,0,0,3.1-10.46,18.633,18.633,0,0,0-3-10.475A29.4,29.4,0,0,1,138.158,643.983Z" transform="translate(-88.547 -575.893)"/>
        <line id="Line_35" data-name="Line 35" class="cls-6" x2="45.731" y2="111.45" transform="translate(6.953 5.988)"/>
        <path id="Path_3669" data-name="Path 3669" class="cls-6" d="M109.4,713.491l13.631,5.7,5.7-13.633" transform="translate(-79.592 -624.289)"/>
        <path id="Path_3670" data-name="Path 3670" class="cls-6" d="M70.057,653.883l22.7,9.489,9.487-22.694" transform="translate(-56.785 -586.677)"/>
        <path id="Path_3671" data-name="Path 3671" class="cls-6" d="M62.8,612.78l16.843,7.044,7.044-16.843" transform="translate(-52.576 -564.824)"/>
        <path id="Path_3672" data-name="Path 3672" class="cls-6" d="M50.19,568.389,63.617,574l5.61-13.421" transform="translate(-45.268 -540.243)"/>
        <path id="Path_3673" data-name="Path 3673" class="cls-6" d="M48.621,539.259l7.1,2.972,2.971-7.1" transform="translate(-44.358 -525.488)"/>
      </g>
      <g id="Group_1354" data-name="Group 1354" transform="translate(72.061 251.251)">
        <path id="Path_3674" data-name="Path 3674" class="cls-7" d="M155.019,651.99a27.989,27.989,0,0,1,6.734-6.736,16.549,16.549,0,0,0,5.736-7.991,16.817,16.817,0,0,0,.541-9.812,26.5,26.5,0,0,1-.8-9.537,25.843,25.843,0,0,1,2.191-9.329,17.432,17.432,0,0,0,1.259-9.7,17.7,17.7,0,0,0-3.576-9.09,24.153,24.153,0,0,1-4.177-8.669,23.276,23.276,0,0,1-.823-9.6,20.648,20.648,0,0,0-7.084-17.57,23.959,23.959,0,0,1-6.065-7.421,24.087,24.087,0,0,1-5.222,8.043,20.659,20.659,0,0,0-5.114,18.239,23.383,23.383,0,0,1,.237,9.629,24.132,24.132,0,0,1-3.206,9.074,17.727,17.727,0,0,0-2.554,9.432,17.464,17.464,0,0,0,2.313,9.5,25.932,25.932,0,0,1,3.2,9.03,26.438,26.438,0,0,1,.246,9.568,16.856,16.856,0,0,0,1.618,9.7,16.56,16.56,0,0,0,6.574,7.316,27.806,27.806,0,0,1,7.435,5.956Z" transform="translate(-133.095 -546.541)"/>
        <line id="Line_36" data-name="Line 36" class="cls-8" x2="5.964" y2="108.493" transform="translate(16.18 5.832)"/>
        <path id="Path_3675" data-name="Path 3675" class="cls-8" d="M159.3,743.778l9.924,8.893,8.895-9.926" transform="translate(-148.286 -660.283)"/>
        <path id="Path_3676" data-name="Path 3676" class="cls-8" d="M141.274,686.59,157.8,701.4l14.8-16.529" transform="translate(-137.836 -626.732)"/>
        <path id="Path_3677" data-name="Path 3677" class="cls-8" d="M148.645,646.029l12.266,10.986L171.9,644.75" transform="translate(-142.11 -603.474)"/>
        <path id="Path_3678" data-name="Path 3678" class="cls-8" d="M151.869,602.5l9.774,8.758,8.759-9.778" transform="translate(-143.978 -578.387)"/>
        <path id="Path_3679" data-name="Path 3679" class="cls-8" d="M160.649,573.555l5.176,4.635,4.63-5.174" transform="translate(-149.068 -561.889)"/>
      </g>
      <g id="Group_1355" data-name="Group 1355" transform="translate(187.137 284.766)">
        <path id="Path_3680" data-name="Path 3680" class="cls-9" d="M443.847,736.706a40.373,40.373,0,0,1,9.316-8.346c2.721-2.078,5.642-4.314,7.732-9.5,1.849-5.207.859-7.925-.084-10.477a20.3,20.3,0,0,1-2.041-9.939,22.143,22.143,0,0,1,2.39-10.265,14.159,14.159,0,0,0,.986-10.482c-1.328-4.956-3.741-7-6.093-8.964a22.671,22.671,0,0,1-6.942-8.408,17.918,17.918,0,0,1-2.075-10,14.4,14.4,0,0,0-2.939-9.941c-3.061-4.372-6.106-5.883-9.081-7.352a28.368,28.368,0,0,1-9.607-6.747,28.475,28.475,0,0,1-6.967,9.457,20.8,20.8,0,0,0-6.268,9.853,14.471,14.471,0,0,0,.372,10.364,17.858,17.858,0,0,1,1.218,10.142,22.674,22.674,0,0,1-3.9,10.18c-1.6,2.612-3.247,5.316-2.918,10.44a14.184,14.184,0,0,0,4.263,9.624,22.185,22.185,0,0,1,5.528,8.968,20.154,20.154,0,0,1,1.229,10.075c-.071,2.715-.15,5.609,3.254,9.962,3.628,4.244,7.114,5.434,10.351,6.543a40.328,40.328,0,0,1,11.493,4.947Z" transform="translate(-406.899 -626.282)"/>
        <line id="Line_37" data-name="Line 37" class="cls-10" x2="18.566" y2="113.665" transform="translate(19.506 6.108)"/>
        <path id="Path_3681" data-name="Path 3681" class="cls-10" d="M451.826,832.263l15.435,7.6,12.211-12.119" transform="translate(-432.944 -743.072)"/>
        <path id="Path_3682" data-name="Path 3682" class="cls-10" d="M420.21,771.923l25.69,12.654,20.324-20.168" transform="translate(-414.616 -706.356)"/>
        <path id="Path_3683" data-name="Path 3683" class="cls-10" d="M427.367,729.708l19.067,9.391,15.086-14.969" transform="translate(-418.765 -683.005)"/>
        <path id="Path_3684" data-name="Path 3684" class="cls-10" d="M428.159,684.267l15.2,7.482,12.025-11.931" transform="translate(-419.223 -657.317)"/>
        <path id="Path_3685" data-name="Path 3685" class="cls-8" d="M438.45,654.251l8.038,3.961,6.358-6.309" transform="translate(-425.19 -641.135)"/>
      </g>
      <g id="Group_1356" data-name="Group 1356" transform="translate(386.916 222.968)">
        <path id="Path_3686" data-name="Path 3686" class="cls-11" d="M893.237,588.185a29.543,29.543,0,0,1,8.882-4.8,17.565,17.565,0,0,0,8.246-6.381,17.819,17.819,0,0,0,3.525-9.8,28.155,28.155,0,0,1,2.074-9.928,27.47,27.47,0,0,1,5.052-8.808A18.461,18.461,0,0,0,925.236,539a18.744,18.744,0,0,0-.878-10.319,25.663,25.663,0,0,1-1.618-10.071,24.776,24.776,0,0,1,2.075-10,21.869,21.869,0,0,0-1.87-19.992,25.528,25.528,0,0,1-3.912-9.376,25.509,25.509,0,0,1-7.737,6.588,21.88,21.88,0,0,0-10.723,16.974,24.78,24.78,0,0,1-2.676,9.853,25.63,25.63,0,0,1-6.007,8.244,18.749,18.749,0,0,0-5.453,8.8,18.5,18.5,0,0,0-.529,10.347,27.482,27.482,0,0,1,.513,10.14,28.014,28.014,0,0,1-2.645,9.793,17.852,17.852,0,0,0-1.3,10.338,17.565,17.565,0,0,0,4.463,9.425,29.521,29.521,0,0,1,5.746,8.3Z" transform="translate(-882.238 -479.245)"/>
        <line id="Line_38" data-name="Line 38" class="cls-6" x1="26.822" y2="112.002" transform="translate(8.532 6.02)"/>
        <path id="Path_3687" data-name="Path 3687" class="cls-6" d="M897.863,677.524l7.39,12.042,12.04-7.39" transform="translate(-891.296 -594.19)"/>
        <path id="Path_3688" data-name="Path 3688" class="cls-6" d="M896.607,614.945l12.3,20.044,20.042-12.3" transform="translate(-890.568 -557.912)"/>
        <path id="Path_3689" data-name="Path 3689" class="cls-6" d="M916.573,575.362,925.7,590.24l14.877-9.128" transform="translate(-902.142 -534.966)"/>
        <path id="Path_3690" data-name="Path 3690" class="cls-6" d="M933.145,531.761l7.275,11.856,11.856-7.275" transform="translate(-911.75 -509.689)"/>
        <path id="Path_3691" data-name="Path 3691" class="cls-6" d="M951.041,504.356l3.85,6.274,6.272-3.85" transform="translate(-922.124 -493.802)"/>
      </g>
      <g id="Group_1357" data-name="Group 1357" transform="translate(404.78 264.531)">
        <path id="Path_3692" data-name="Path 3692" class="cls-9" d="M931.82,651.165a23.873,23.873,0,0,1,8.1-.81,14.137,14.137,0,0,0,8.119-2.182,14.367,14.367,0,0,0,5.671-6.2,22.681,22.681,0,0,1,4.632-6.741,22.092,22.092,0,0,1,6.5-4.983,14.907,14.907,0,0,0,6.082-5.731,15.112,15.112,0,0,0,2.553-7.95,20.672,20.672,0,0,1,1.93-7.995,19.956,19.956,0,0,1,4.65-6.792,17.645,17.645,0,0,0,4.825-15.454,20.517,20.517,0,0,1,.005-8.192,20.549,20.549,0,0,1-7.807,2.5,17.655,17.655,0,0,0-13.254,9.3,20.006,20.006,0,0,1-5.054,6.5,20.7,20.7,0,0,1-7.033,4.267,15.113,15.113,0,0,0-6.794,4.855,14.933,14.933,0,0,0-3.612,7.533,22.161,22.161,0,0,1-2.77,7.7,22.6,22.6,0,0,1-5.014,6.464,14.392,14.392,0,0,0-4.179,7.286,14.156,14.156,0,0,0,.389,8.4,23.822,23.822,0,0,1,1.695,7.963Z" transform="translate(-927.162 -578.138)"/>
        <line id="Line_39" data-name="Line 39" class="cls-10" x1="54.778" y2="74.984" transform="translate(0 4.032)"/>
        <path id="Path_3693" data-name="Path 3693" class="cls-10" d="M946.928,703.292l1.753,11.255,11.255-1.753" transform="translate(-937.604 -650.692)"/>
        <path id="Path_3694" data-name="Path 3694" class="cls-10" d="M965.449,656.342l2.916,18.737,18.737-2.92" transform="translate(-948.342 -623.474)"/>
        <path id="Path_3695" data-name="Path 3695" class="cls-10" d="M992.608,633.1l2.167,13.9,13.906-2.164" transform="translate(-964.086 -610.003)"/>
        <path id="Path_3696" data-name="Path 3696" class="cls-10" d="M1018.5,605.816l1.725,11.082,11.084-1.725" transform="translate(-979.094 -594.183)"/>
        <path id="Path_3697" data-name="Path 3697" class="cls-10" d="M1040.327,590.991l.915,5.866,5.862-.917" transform="translate(-991.749 -585.589)"/>
      </g>
      <g id="Group_1358" data-name="Group 1358" transform="translate(102.509 75.489)">
        <line id="Line_40" data-name="Line 40" class="cls-12" y1="186.629"/>
        <line id="Line_41" data-name="Line 41" class="cls-12" y1="186.629" transform="translate(38.172)"/>
        <line id="Line_42" data-name="Line 42" class="cls-12" y1="186.629" transform="translate(76.344)"/>
        <line id="Line_43" data-name="Line 43" class="cls-12" y1="186.629" transform="translate(114.517)"/>
        <line id="Line_44" data-name="Line 44" class="cls-12" y1="186.629" transform="translate(152.689)"/>
        <line id="Line_45" data-name="Line 45" class="cls-12" y1="186.629" transform="translate(190.861)"/>
        <line id="Line_46" data-name="Line 46" class="cls-12" y1="186.629" transform="translate(229.033)"/>
      </g>
      <path id="Path_3698" data-name="Path 3698" class="cls-13" d="M381.924,314.975H114.718V128.346" transform="translate(-50.381 -52.856)"/>
      <path id="Path_3699" data-name="Path 3699" class="cls-14" d="M325.775,223.323c-83.48,0-111.918,138.01-187.855,138.01" transform="translate(-63.832 -107.916)"/>
      <g id="Group_1360" data-name="Group 1360" transform="translate(373.959 60.648)">
        <path id="Path_3700" data-name="Path 3700" class="cls-15" d="M901.533,123.147a6.416,6.416,0,0,1-6.195,5.533H856.316a4.8,4.8,0,0,1-4.864-5.533l2.967-24.582a6.411,6.411,0,0,1,6.2-5.532h39.019a4.8,4.8,0,0,1,4.865,5.532Z" transform="translate(-851.411 -93.033)"/>
        <path id="Path_3701" data-name="Path 3701" class="cls-15" d="M889.606,165.867a5.828,5.828,0,0,0-5.556,4.746l-1.015,6.424c-.413,2.612.954,3.416,3.036,1.79l12.81-10.005c2.084-1.625,1.623-2.955-1.018-2.955Z" transform="translate(-869.702 -135.256)"/>
        <g id="Group_1359" data-name="Group 1359" transform="translate(8.92 8.337)">
          <path id="Path_3702" data-name="Path 3702" class="cls-16" d="M910.627,114.192a1.54,1.54,0,0,1-1.486,1.325H878.486a1.153,1.153,0,0,1-1.165-1.325h0a1.539,1.539,0,0,1,1.488-1.323h30.651a1.15,1.15,0,0,1,1.166,1.323Z" transform="translate(-875.346 -112.869)"/>
          <path id="Path_3703" data-name="Path 3703" class="cls-17" d="M908.283,133.614a1.536,1.536,0,0,1-1.482,1.326H876.146a1.153,1.153,0,0,1-1.167-1.326h0a1.541,1.541,0,0,1,1.486-1.325H907.12a1.148,1.148,0,0,1,1.163,1.325Z" transform="translate(-873.988 -124.127)"/>
          <path id="Path_3704" data-name="Path 3704" class="cls-18" d="M905.946,153.04a1.537,1.537,0,0,1-1.485,1.323H873.805a1.147,1.147,0,0,1-1.161-1.323h0a1.533,1.533,0,0,1,1.481-1.326h30.654a1.153,1.153,0,0,1,1.167,1.326Z" transform="translate(-872.634 -135.388)"/>
        </g>
      </g>
      <path id="Path_229" data-name="Path 229" class="cls-3" d="M71.522,268.51C32.021,268.51,0,272.927,0,278.375s32.021,9.869,71.522,9.869,71.522-4.417,71.522-9.869S111.023,268.51,71.522,268.51Z" transform="translate(40.767 102.713)"/>
      <path id="Path_3705" data-name="Path 3705" class="cls-15" d="M92.485,71.939c0,15.048-14.477,27.246-32.336,27.246s-32.338-12.2-32.338-27.246S42.29,44.693,60.149,44.693,92.485,56.893,92.485,71.939Z" transform="translate(0 -4.362)"/>
      <path id="Path_3706" data-name="Path 3706" class="cls-15" d="M99.572,153.063s3.867,10.281,19.481,12.746c0,0-6.493-3.916-5.531-18.312Z" transform="translate(-41.601 -63.959)"/>
      <g id="Group_1361" data-name="Group 1361" transform="translate(43.412 56.396)">
        <path id="Path_3707" data-name="Path 3707" class="cls-19" d="M77.465,107.957a4.088,4.088,0,0,1-2.9-1.2l-8.427-8.427a4.105,4.105,0,0,1,5.806-5.806l5.524,5.526L91.391,84.119A4.105,4.105,0,0,1,97.2,89.925l-16.831,16.83A4.088,4.088,0,0,1,77.465,107.957Z" transform="translate(-64.932 -82.917)"/>
      </g>
      <g id="Group_1362" data-name="Group 1362" transform="translate(200.555 148.338)">
        <path id="Path_3708" data-name="Path 3708" class="cls-20" d="M501.634,307.151l-31.242-5.409c-2.262-.393-3.461,1.048-2.672,3.205l2.488,6.764a89.325,89.325,0,0,0-30.856,29.39c-1.215,1.977-.2,3.42,1.8,2.176h0C457.6,332.9,470.23,329.606,476.4,328.562l2.262,6.148c.789,2.153,2.638,2.473,4.107.71l20.31-24.354C504.546,309.3,503.9,307.542,501.634,307.151Z" transform="translate(-438.825 -301.677)"/>
      </g>
      <g id="Group_1364" data-name="Group 1364" transform="translate(78.147 400.606)">
        <g id="Group_1363" data-name="Group 1363">
          <path id="Path_3709" data-name="Path 3709" class="cls-9" d="M154.337,946.789a6.764,6.764,0,0,1-5.182-11.108l16.253-19.4a6.759,6.759,0,0,1,7.168-2.12l19.9,6.111,13.355-15.95a6.771,6.771,0,0,1,7.174-2.123l24.182,7.431a6.763,6.763,0,0,1-3.972,12.929l-19.894-6.114L199.968,932.4a6.769,6.769,0,0,1-7.172,2.123l-19.9-6.112-13.372,15.958A6.751,6.751,0,0,1,154.337,946.789Z" transform="translate(-147.577 -901.904)"/>
        </g>
      </g>
      <g id="Group_1366" data-name="Group 1366" transform="translate(252.791 37.169)">
        <g id="Group_1365" data-name="Group 1365">
          <path id="Path_3710" data-name="Path 3710" class="cls-21" d="M575.336,61.619A12.225,12.225,0,1,1,587.562,49.4,12.239,12.239,0,0,1,575.336,61.619Zm0-19.558A7.333,7.333,0,1,0,582.67,49.4,7.342,7.342,0,0,0,575.336,42.062Z" transform="translate(-563.112 -37.169)"/>
        </g>
      </g>
      <path id="Path_3711" data-name="Path 3711" class="cls-4" d="M908.4,960.972a5.122,5.122,0,0,1-1.146,7.151h0a5.123,5.123,0,0,1-7.151-1.146l-17.4-24.048a5.121,5.121,0,0,1,1.146-7.149h0A5.123,5.123,0,0,1,891,936.926Z" transform="translate(-495.026 -520.373)"/>
      <g id="Group_1376" data-name="Group 1376" transform="translate(58.327 92.695)">
        <path id="Path_3712" data-name="Path 3712" class="cls-22" d="M224.279,171.078c3.416,1.1,8.1,2.61,11.9,6.468,7.844,8,5.069,19.52,5.433,41.2.241,14.7,1.129,26.511,1.764,33.632l-4.486-.265-1.605-14.17-.035,14.17c-2.423-.106-5.715-.229-9.614-.3-15.94-.282-23.883.776-43.251.706H181.5c1.229-13.941,1.864-25.242,2.211-32.75,1.017-21.937-.829-34.837,8.038-43.416a23.983,23.983,0,0,1,7.2-4.7A40.159,40.159,0,0,1,224.279,171.078Z" transform="translate(-147.425 -169.283)"/>
        <path id="Path_3713" data-name="Path 3713" class="cls-23" d="M257.926,339.728a43.8,43.8,0,0,1,2.552,4.009c5.022,8.921,5.954,17.826,6.468,24.5.224,2.917.3,5.325.334,6.923-.3,1.176-.429,1.952-.647,2.887,0,0-.664,2.822-1.117,5.933a31.744,31.744,0,0,0,0,8.231c.459,4.7.841,14.153,1.176,29.4a44.944,44.944,0,0,1-8.82,0c-8.355-.829-12.206-3.616-21.167-4.116a46.885,46.885,0,0,0-5.291,0,159.017,159.017,0,0,0,7.643-19.991c2.093-6.856,2.352-9.319,2.352-11.171.077-4.451-.958-6.115-4.116-16.463-3.8-12.43-4.463-15.54-3.528-19.4a16.771,16.771,0,0,1,4.116-7.643c.649-.675,5.311-5.4,10.557-4.742,1.089.137,1.329.4,4.008.9A53.068,53.068,0,0,0,257.926,339.728Z" transform="translate(-176.359 -267.099)"/>
        <g id="Group_1367" data-name="Group 1367" transform="translate(48.726 25.492)">
          <path id="Path_3714" data-name="Path 3714" class="cls-24" d="M370.785,258.249s10.5-5.625,16.64-11.68,4.65-10.336,4.635-12.546-1.025-3.782-.181-4.049,2.835.975,2.987,2.565a4.332,4.332,0,0,0,.806,2.531c.279.359,2.647-1.242,4.181.547s3.177,5.7,2.631,8.536-3.712,4.3-5.367,4.6c-4.36,5.132-15.182,16.165-22.333,18.69Z" transform="translate(-305.879 -229.937)"/>
          <path id="Path_3715" data-name="Path 3715" class="cls-24" d="M431.455,238.259a4.525,4.525,0,0,0-3.909,2.931c-.651,2.243-.13,4.108.58,6.416s3.187,5.35,4.632,4.744c1.892-.794,3.479-2.287,3.559-4.275s-1.572-6.881-2.254-8.383A2.486,2.486,0,0,0,431.455,238.259Z" transform="translate(-338.612 -234.757)"/>
          <path id="Path_3716" data-name="Path 3716" class="cls-23" d="M248.7,301.553a129.7,129.7,0,0,0,21.826-11.064,195.567,195.567,0,0,0,24.1-17.427,9.549,9.549,0,0,1,2.166,1.089,11.419,11.419,0,0,1,4.448,7.025,191.123,191.123,0,0,1-16.411,17.516c-7.21,6.788-14.724,13.777-26.041,20.246A111.143,111.143,0,0,1,234.4,329.212l-18.048-18.889a6.693,6.693,0,0,1,1.089-2.166c3.5-4.626,11.058-.172,21.883-3.522C241.83,303.86,244.165,303.271,248.7,301.553Z" transform="translate(-216.353 -254.938)"/>
        </g>
        <path id="Path_3717" data-name="Path 3717" class="cls-25" d="M126.94,838.193s-16.01,6.227-24.607,6.521c0,0-10.078-.888,16.01-12.747,0,0,4.151,3.857,8.89,2.075Z" transform="translate(-100.419 -553.449)"/>
        <path id="Path_3718" data-name="Path 3718" class="cls-25" d="M243.647,838.193s16,6.227,24.6,6.521c0,0,10.084-.888-16-12.747,0,0-4.151,3.857-8.9,2.075Z" transform="translate(-183.276 -553.449)"/>
        <path id="Path_3719" data-name="Path 3719" class="cls-24" d="M247.881,216.851A26.686,26.686,0,0,1,243.1,234.29a39,39,0,0,1-11.23,8.82c-7.5,4.039-21.343,1.729-29.986-8.649,0,0-12.688-3.751-8.073-13.271a4.387,4.387,0,0,1,1.811-1.84,5.116,5.116,0,0,1,3.9-.3c-.159-1.676-1-12.7,7.132-20.691a24.26,24.26,0,0,1,11.4-6.215,25.717,25.717,0,0,1,19.309,4.016C247.658,203.439,247.881,215.657,247.881,216.851Z" transform="translate(-153.971 -182.276)"/>
        <path id="Path_3720" data-name="Path 3720" class="cls-24" d="M256.618,321.629s-2.311-4.51,0-15.522a40.522,40.522,0,0,1-10.848-.588s.464,11.489-2.423,14.376c0,0,4.039,17.592,13.271,16.152C260.945,333.977,256.618,321.629,256.618,321.629Z" transform="translate(-183.276 -248.261)"/>
        <path id="Path_3721" data-name="Path 3721" class="cls-26" d="M262.316,482.167A67.19,67.19,0,0,1,271,500.982c3.222,11.419,2.575,21.167,0,37.6-5.133,32.532-9.29,36.9-13.412,65.694,0,0-.453,3.163-3.716,27.476h0a16.8,16.8,0,0,1-10.484,0s3.751-42.3,0-79.964c0,0,13.423-35.914,8.943-67.317A43.285,43.285,0,0,0,262.316,482.167Z" transform="translate(-183.301 -350.666)"/>
        <path id="Path_3722" data-name="Path 3722" class="cls-26" d="M177.348,481.258a55.064,55.064,0,0,0-8.3,11.342c-6.867,12.518-6.891,24.495-7.02,30.3-.406,17.528-3.64,33.585-10.107,65.694a320.49,320.49,0,0,1-11.318,41.423,19.1,19.1,0,0,0,2.352,1,20.323,20.323,0,0,0,8.273,1.064s21.337-55.075,32.585-80.84c0,0,15.1-39.659,8.943-67.317C192.73,483.927,183.5,485.1,177.348,481.258Z" transform="translate(-123.716 -350.139)"/>
        <path id="Path_3723" data-name="Path 3723" class="cls-27" d="M219.337,339.644a23.869,23.869,0,0,1,4.7,3.528c2.41,2.352,3.645,4.563,6.467,5.291,1.176.3,1.6.094,1.764,0,1.264-.711,1.376-3.463.353-7.085a8.5,8.5,0,0,1,3.067.97,8.769,8.769,0,0,1,1.847,1.365,15.256,15.256,0,0,1,3.4,5.465,122.2,122.2,0,0,1,4.266,14.573c.506,2.491,1.148,5.9,1.764,10-.194,3.957-1.317,6.256-2.352,7.644a42.1,42.1,0,0,0-3.487,5.2,11.338,11.338,0,0,0-.629,1.264,12.641,12.641,0,0,0-.588,5.291,36.079,36.079,0,0,0,.588,5.88,50,50,0,0,0,2.352,8.232c.688,1.964,1.311,3.575,1.764,4.7l-40.57-.588c3.369-7.268,5.38-12.348,6.609-15.693.153-.406.253-.694.347-1.005,0,0,.053-.177.1-.353,1.664-6.3-2.94-18.815-2.94-18.815-4.192-11.4-5-15.1-5.291-16.463-1.476-7.02-1.176-10.36.588-12.936A12.858,12.858,0,0,1,208.754,342,22.47,22.47,0,0,1,219.337,339.644Z" transform="translate(-159.267 -268.04)"/>
        <path id="Path_3724" data-name="Path 3724" class="cls-28" d="M285.753,291.276a6.118,6.118,0,0,1-2.575,2.187c-2.611,1.123-6.009.153-8.573-2.452Z" transform="translate(-201.397 -239.851)"/>
        <path id="Path_3725" data-name="Path 3725" class="cls-28" d="M292.487,280.928c.588,0,1.176,0,1.717-.053a3.081,3.081,0,0,1-2.046.588,3.027,3.027,0,0,1-1.646-.664A17.74,17.74,0,0,0,292.487,280.928Z" transform="translate(-210.618 -233.93)"/>
        <path id="Path_3726" data-name="Path 3726" class="cls-15" d="M272.229,259.8c-.106.793-1.764,1.434-3.081,1.393-1.652-.041-3.445-1.176-3.322-2.017.147-1.012,2.981-1.976,5.056-.876C271.088,258.408,272.329,259.1,272.229,259.8Z" transform="translate(-196.304 -220.606)"/>
        <g id="Group_1370" data-name="Group 1370" transform="translate(69.52 37.207)">
          <g id="Group_1369" data-name="Group 1369" class="cls-29">
            <g id="Group_1368" data-name="Group 1368" transform="translate(3.341 0.196)">
              <ellipse id="Ellipse_171" data-name="Ellipse 171" class="cls-22" cx="1.176" cy="1.399" rx="1.176" ry="1.399"/>
            </g>
          </g>
        </g>
        <path id="Path_3728" data-name="Path 3728" class="cls-15" d="M307.914,260.994a1.8,1.8,0,0,1-1.317,1.57,2.043,2.043,0,0,1-2.252-2.034c.206-.905,2.017-1.211,2.758-1a1.107,1.107,0,0,1,.311.147A1.609,1.609,0,0,1,307.914,260.994Z" transform="translate(-218.625 -221.563)"/>
        <path id="Path_3729" data-name="Path 3729" class="cls-30" d="M354.938,365.035s-2.206,25.243,5.838,40.595c0,0-19.458,1-26.693-5.36l-1.49-30.877Z" transform="translate(-235.013 -282.763)"/>
        <g id="Group_1371" data-name="Group 1371" transform="translate(79.894 82.272)">
          <path id="Path_3730" data-name="Path 3730" class="cls-31" d="M307.578,367.7l22.965-2.668-16.7,41.452-23.331-1.5Z" transform="translate(-290.512 -365.035)"/>
          <path id="Path_3731" data-name="Path 3731" class="cls-32" d="M323.167,375l22.868-1.427,3.439-8.539L326.508,367.7Z" transform="translate(-309.442 -365.035)"/>
        </g>
        <g id="Group_1372" data-name="Group 1372" transform="translate(92.144 99.318)">
          <path id="Path_3732" data-name="Path 3732" class="cls-33" d="M322.138,415.154a1.182,1.182,0,0,1-.368-.082,1.214,1.214,0,0,1-.717-.787l-1.345-4.628a1.211,1.211,0,0,1,2.326-.675l.91,3.13,10.76-6.351a1.211,1.211,0,0,1,1.231,2.086l-12.1,7.141A1.209,1.209,0,0,1,322.138,415.154Z" transform="translate(-319.659 -405.593)"/>
        </g>
        <g id="Group_1375" data-name="Group 1375" transform="translate(85.691 37.876)">
          <g id="Group_1374" data-name="Group 1374" class="cls-34">
            <g id="Group_1373" data-name="Group 1373" transform="translate(1.47 -0.109)">
              <ellipse id="Ellipse_172" data-name="Ellipse 172" class="cls-22" cx="0.923" cy="1.352" rx="0.923" ry="1.352"/>
            </g>
          </g>
        </g>
        <path id="Path_3734" data-name="Path 3734" class="cls-23" d="M214.92,339.654a29.614,29.614,0,0,1,7.644,5.879,36.332,36.332,0,0,1,8.231,26.459c-.188,2.005-.588,4.116-.588,4.116-.3,1.176-.429,1.952-.647,2.887,0,0-.664,2.822-1.117,5.933a31.744,31.744,0,0,0,0,8.231c.459,4.7.841,14.153,1.176,29.4a44.936,44.936,0,0,1-8.819,0c-8.355-.829-12.206-3.616-21.167-4.116a46.885,46.885,0,0,0-5.291,0,159.012,159.012,0,0,0,7.643-19.991c2.093-6.856,2.352-9.319,2.352-11.171.077-4.451-.958-6.115-4.116-16.463-3.8-12.43-4.463-15.54-3.527-19.4a14.555,14.555,0,0,1,4.115-7.643c4.157-3.81,10.284-4.039,12.348-4.116Z" transform="translate(-154.867 -268.049)"/>
        <path id="Path_3735" data-name="Path 3735" class="cls-24" d="M295.553,431.87s13.83-5.533,14.708-5.975,1.181-1.448,1.483-2.528,2.153-4.837,2.216-6.057,2.295-.7,2.1,1.885,0,3.106.743,2.976,4.988-1.344,5.827-1.176a2.011,2.011,0,0,1,1.774,1.614c.227,1.042-1.84,8.156-3.132,9.156s-7.772,1.315-8.6,1.449-16.994,8.939-16.994,8.939Z" transform="translate(-213.541 -312.703)"/>
        <path id="Path_3736" data-name="Path 3736" class="cls-23" d="M209.741,339.748a5.539,5.539,0,0,1,2.628.2c3.854,1.546,4.077,9.971,4.2,14.763.037,1.379.013,2.45-.026,3.006-.166,2.4-.67,4.147-1.083,7.746-.752,6.552-2.328,20.471,3.24,23.772,1.166.687,2.5.837,15.609-2.956,4.673-1.353,8.517-2.531,11.148-3.352.351.589.682,1.215,1,1.871a27.165,27.165,0,0,1,2.595,10.073,105.388,105.388,0,0,1-9.873,4.705c-12.289,5.089-19.166,7.933-25.682,5.552-9.309-3.409-12.579-15.542-13.392-18.549a25.127,25.127,0,0,1-.612-3.3,44.589,44.589,0,0,1-.453-6.433c-.039-4.843-.227-3.032-.4-12.145a70.727,70.727,0,0,1,.48-12.156,19.243,19.243,0,0,1,.337-1.921c.326-1.3,1.637-5.977,5.4-8.811A9.255,9.255,0,0,1,209.741,339.748Z" transform="translate(-157.337 -268.067)"/>
        <path id="Path_3737" data-name="Path 3737" class="cls-22" d="M234.751,204.668c-.194-1.958-.394-3.922-.588-5.88-.194,1.958-.394,3.922-.588,5.88H215.936c-.194-.982-.394-1.958-.588-2.94-.194.982-.394,1.958-.588,2.94h-5.88q-.009,8.525,0,17.051.02,18.641.126,37.277l-7.338.5q-.5-12.4-.791-12.39t-.373,12.321c-3.218.051-6.693-.022-10.39-.279-3.046-.212-5.922-.528-8.611-.909.841-14.807,2.329-33.631,5.033-52.982.569-4.069,1.526-9.71,5.644-15.023,7.561-9.754,20.5-10.536,25.73-10.848,6.832-.411,13.159-.794,18.092,3.216,6.618,5.379,6.518,15.227,6.391,28.534a111.922,111.922,0,0,1-2.855,24.082c-.013-.531-.035-1.488-.049-2.68-.1-8.636.44-12.872.553-21.4.041-3.122,0-5.627,0-7.056Z" transform="translate(-147.425 -174.998)"/>
      </g>
      <g id="Group_1384" data-name="Group 1384" transform="translate(261.677 74.854)">
        <path id="Path_3738" data-name="Path 3738" class="cls-35" d="M868.626,851.095c1.144.936,5.987,5.074,5.21,9.485-.234,1.326-.68,1-7.729,8.045a24.921,24.921,0,0,1-6.9,4.832c-.335.141-.558.224-.656.253-.975.289-2.269.272-6.215.123-5.328-.2-6.414-.286-7.349-1.273-.844-.891-1.554-2.508-.984-3.414.9-1.427,4.085.325,7.939-1.3a10.956,10.956,0,0,0,3.171-2.174,21.873,21.873,0,0,0,6.173-9.864A8.351,8.351,0,0,0,868.626,851.095Z" transform="translate(-719.405 -572.792)"/>
        <path id="Path_3739" data-name="Path 3739" class="cls-35" d="M715.472,875.674s-16.5,6.416-25.36,6.722c0,0-10.388-.917,16.5-13.138a8.209,8.209,0,0,0,8.092.944Z" transform="translate(-497.948 -670.782) rotate(8)"/>
        <path id="Path_3740" data-name="Path 3740" class="cls-7" d="M730.848,510.2c-2.517,14.758-4.628,30.468-6.12,47.061a601.07,601.07,0,0,0-.412,102.6l11.428.959c-.045-13.009.461-26.976,1.764-41.762a458.474,458.474,0,0,1,12.666-73.843q2.271-17.505,4.541-35.011Z" transform="translate(-647.038 -369.701)"/>
        <path id="Path_3741" data-name="Path 3741" class="cls-7" d="M765.614,525.717a301.616,301.616,0,0,0,49.978,141.964l9.254-8.766a218.005,218.005,0,0,1-27.613-134.862Z" transform="translate(-672.827 -377.957)"/>
        <path id="Path_3742" data-name="Path 3742" class="cls-36" d="M554.81,240.332s.983-3.123-.521-4.742-3.527-2.95-4.684-2.545-2.451,3.224-4.117,3.607-3.922.036-3.979-.773,5.436-5.783,6.477-7,3.643-2.949,6.3-1.562,12.275,9.662,13.482,11.134S558.222,242.356,554.81,240.332Z" transform="translate(-539.317 -200.872)"/>
        <path id="Path_3743" data-name="Path 3743" class="cls-7" d="M540.119,230.425l-4.032-.065,1.785-3.616,33.864-20.662,2.25,3.683Z" transform="translate(-536.087 -188.525)"/>
        <path id="Path_3744" data-name="Path 3744" class="cls-36" d="M571.085,261.693a30.43,30.43,0,0,1-8.443.752c-3.528-.4-5.552-2.6-7.229-3.065s-3.528,0-3.99-.636,1.445-3.586,4.511-3.354,3.759.669,5.957-.013,10.778-2.879,12.1-.392S571.085,261.693,571.085,261.693Z" transform="translate(-545.182 -216.971)"/>
        <path id="Path_3745" data-name="Path 3745" class="cls-11" d="M660.838,298.623s-37.785-7.759-60.755-44.653l-4.927,9.371s25.444,45.824,58.91,58.536Z" transform="translate(-571.277 -217.055)"/>
        <path id="Path_3746" data-name="Path 3746" class="cls-36" d="M791.47,330.319c.819-2.1-.187-3.588-1.135-8.248a49.122,49.122,0,0,1-.958-8.043,41.747,41.747,0,0,1-11.2-.013q-.215,2.671-.481,5.4c-.194,1.992-.393,3.839-.588,5.524-.216,1.877-.432,3.6-.634,5.135a8.7,8.7,0,0,0,7.795,4.688C787.31,334.7,790.452,332.928,791.47,330.319Z" transform="translate(-679.3 -252.827)"/>
        <path id="Path_3747" data-name="Path 3747" class="cls-36" d="M748.016,353.749c-1.481.222-2.821.425-3.99.6l-1.787.272c-2.039.316-6.4.993-8.966,2.7-3.624,2.413-4.381,7.362-4.571,9.409.235.093.569.234.958.43a12.97,12.97,0,0,1,1.883,1.176c6.848,5.246,5.133,16.086,5.01,16.8a72.985,72.985,0,0,1,1.167,33.849,48.721,48.721,0,0,0,35.8,1.194,86.754,86.754,0,0,1,3.3-35.543c-1.521-6.831.192-13.306,4.567-16.471a11.261,11.261,0,0,1,5.159-2,11.112,11.112,0,0,0-.5-2.967,12.81,12.81,0,0,0-3.105-4.908c-2.032-1.906-6.257-2.5-14.625-3.606l-5.309-.7" transform="translate(-650.837 -276.498)"/>
        <path id="Path_3748" data-name="Path 3748" class="cls-37" d="M784.116,365.97a11.114,11.114,0,0,0-.5-2.967,12.81,12.81,0,0,0-3.105-4.908c-2.032-1.906-6.257-2.5-14.625-3.606l-5.309-.7A7.339,7.339,0,0,1,757.1,360.5a7.624,7.624,0,0,1-7.012.133,8.274,8.274,0,0,1-4.49-7.223c-.817.1-2.078.243-3.626.429-.617.074-1.582.19-2.763.337-4.691.581-7.036.872-7.367.962-4.833,1.31-7.367,11.857-7.22,20.43.091,5.314,1.131,5.091,2.729,16.675.219,1.588.953,6.984,1.415,13.947.326,4.912.582,11.369.4,19a102.387,102.387,0,0,0,43.823.754,231.157,231.157,0,0,1-.164-26.559c.308-5.889.321-1.642,1.556-14.945.844-9.092,1.082-13.713,4.567-16.471A10.065,10.065,0,0,1,784.116,365.97Z" transform="translate(-648.405 -276.296)"/>
        <path id="Path_3749" data-name="Path 3749" class="cls-36" d="M772.07,214.412c-.238-7.156-.357-10.735-.523-11.524-1.776-8.457-10.784-17.876-20.422-17.63-13.04.334-20.19,18.181-21.3,28.348a40.084,40.084,0,0,0,.935,13.022c.984,3.9,2.086,8.256,5.6,11.82,5.092,5.168,11.836,5.194,14.919,5.209,3.153.015,11.17.088,16.253-6.01,2.924-3.509,3.708-7.654,4.293-10.752C772.2,224.881,772.355,222.969,772.07,214.412Z" transform="translate(-651.393 -176.117)"/>
        <g id="Group_1377" data-name="Group 1377" transform="translate(77.944 44.467)">
          <path id="Path_3750" data-name="Path 3750" class="cls-38" d="M731.823,281.775a11.05,11.05,0,0,1,1.069.31c.284.1.7.26,1.307.467.144.049.25.159.34.094.8-.57.408-2.17,1.125-3.025a2.066,2.066,0,0,1,1.468-.612c1.75-.106,3.033.109,5.028.139,1.279.019,3.289-.21,4.911-.208.775,0,2.229-.059,2.939.75a6.036,6.036,0,0,1,1.132,2.031,2.782,2.782,0,0,0,.555,1.154,1.257,1.257,0,0,0,.924.2,11.355,11.355,0,0,0,2.233-.122c2.489-.66,4.229-1.387,5.622-3.823.905-1.584.51-3.693.68-5.549.014-.148-.048-.466.184-.627a1.662,1.662,0,0,1,1.684-.131c.346,2.03.108,5.625.211,7.389.145,2.462.675,6.167.265,7.818a11.117,11.117,0,0,1-2.462,4.848c-3.553,3.965-9.09,4.3-15.477,4.6a52.845,52.845,0,0,1-8.046-.637c-2.07-.244-3.826-.513-5.221-1.857a6.819,6.819,0,0,1-1.381-1.95,10.689,10.689,0,0,1-.708-3.571c-.085-.848-.081-1.141-.135-1.887-.089-1.232-.214-1.982-.573-4.211-.556-3.456-.848-5.379-.337-7.647.011-.047.214-.933.424-.922C730.145,274.821,730.1,281.224,731.823,281.775Z" transform="translate(-728.896 -272.651)"/>
        </g>
        <path id="Path_3751" data-name="Path 3751" class="cls-39" d="M749.614,295.816a4.889,4.889,0,0,0,1.87,2.251c2.319,1.439,6.057.608,9.1-2.27Z" transform="translate(-663.295 -241.973)"/>
        <path id="Path_3752" data-name="Path 3752" class="cls-39" d="M753.573,283.215c-.636.011-1.228-.01-1.77-.052a3.183,3.183,0,0,0,2.109.593,3.139,3.139,0,0,0,1.694-.69A18.724,18.724,0,0,1,753.573,283.215Z" transform="translate(-664.599 -234.389)"/>
        <path id="Path_3753" data-name="Path 3753" class="cls-38" d="M745.472,190.592c-3.082-2.252-5.942,2.84-14.424,2.4-7.74-.4-11.151-3.576-15.058-1.513a7.165,7.165,0,0,1-4.75,1.112,5.718,5.718,0,0,1-2.527-1.213,21.158,21.158,0,0,1-1.64-8.469,27.151,27.151,0,0,1,2.1-9.216,23.009,23.009,0,0,1,2.337-5.347c3.669-5.225,11.527-5.575,13.691-5.672,6.438-.287,7.893,1.914,12.6,3.54a29.106,29.106,0,0,0,6.531,1.368c5.685.706,8.256.139,11.663.855a22.082,22.082,0,0,1,7,2.829,41.187,41.187,0,0,1-2.506,27.624,42.385,42.385,0,0,0-.832,4.446c-.458,3.473-.281,5.511-1.088,9.265-.145.675-.282,1.222-.373,1.569q-.627-.017-1.278-.053c-1.119-.063-2.186-.166-3.2-.3q-.3-3.009-.593-6.018a11.9,11.9,0,0,0,1.011-7.782c-.188-.762-.531-2.086-1.364-2.274-.96-.217-2.009,1.207-2.274,1.566-2.12,2.877-.921,7.266-.364,8.967l-1.971-.568a40.794,40.794,0,0,0,.162-4.863C748.187,197.462,748.056,192.48,745.472,190.592Z" transform="translate(-637.95 -162.653)"/>
        <path id="Path_3754" data-name="Path 3754" class="cls-15" d="M768.551,259.147c.1.763,1.7,1.38,2.964,1.34,1.589-.04,3.314-1.131,3.2-1.94-.142-.973-2.867-1.9-4.864-.843C769.648,257.807,768.455,258.468,768.551,259.147Z" transform="translate(-674.574 -219.001)"/>
        <g id="Group_1380" data-name="Group 1380" transform="translate(93.971 38.233)">
          <g id="Group_1379" data-name="Group 1379" class="cls-40">
            <g id="Group_1378" data-name="Group 1378" transform="translate(0.691 0.188)">
              <ellipse id="Ellipse_173" data-name="Ellipse 173" class="cls-22" cx="1.131" cy="1.346" rx="1.131" ry="1.346"/>
            </g>
          </g>
        </g>
        <path id="Path_3756" data-name="Path 3756" class="cls-15" d="M740.344,260.357a1.737,1.737,0,0,0,1.267,1.51,1.965,1.965,0,0,0,2.166-1.957c-.2-.871-1.94-1.165-2.652-.961a1.054,1.054,0,0,0-.3.142A1.55,1.55,0,0,0,740.344,260.357Z" transform="translate(-657.769 -219.984)"/>
        <g id="Group_1383" data-name="Group 1383" transform="translate(82.366 38.877)">
          <g id="Group_1382" data-name="Group 1382" class="cls-41">
            <g id="Group_1381" data-name="Group 1381" transform="translate(0.48 -0.105)">
              <ellipse id="Ellipse_174" data-name="Ellipse 174" class="cls-22" cx="0.888" cy="1.301" rx="0.888" ry="1.301"/>
            </g>
          </g>
        </g>
        <path id="Path_3758" data-name="Path 3758" class="cls-36" d="M816.85,250.882a7.052,7.052,0,0,0-1.029-3.386c-.465-.725-1.2-1.872-2.056-1.853-1.515.035-3.05,3.723-3.039,7.034.011,3.264,1.526,6.551,2.664,6.542a1.809,1.809,0,0,0,.825-.342,2.913,2.913,0,0,0,1.056-1.481C816.434,254.272,817.015,252.71,816.85,250.882Z" transform="translate(-699.703 -212.094)"/>
        <path id="Path_3759" data-name="Path 3759" class="cls-36" d="M965.879,392.942c2.326-1.909,4.284-3.5,5.9-4.851a6.711,6.711,0,0,1,2.167-1.275,5.3,5.3,0,0,1,3.386-.174c1.629.562,2.371,2.106,2.9,3.2,1.014,2.109,1.945,6.014-.053,8.583a9.446,9.446,0,0,1-2.724,2.162,13.2,13.2,0,0,1-2.852,1.252c-2.1.668-5.218,1.8-9.583,3.456l-3.024-5.289Z" transform="translate(-789.821 -295.967)"/>
        <path id="Path_3760" data-name="Path 3760" class="cls-36" d="M958.04,394.464a7.274,7.274,0,0,0,2.01-3.793,14.442,14.442,0,0,1,1.206-4.939,34.278,34.278,0,0,0,1.754-4.7c.2-.883,2.26-.308,1.965,2.056s-.615,3.616-.34,4.372,3.639,8.169-4.8,11.049Z" transform="translate(-787.465 -292.52)"/>
        <path id="Path_3761" data-name="Path 3761" class="cls-11" d="M853.442,366.888c.332.563.828,1.394,1.445,2.39,7.113,11.493,11.092,17.921,16.637,20.141,7.488,3,16.374-2.263,20.312-4.974l4.981,10.054c-.728.894-10.488,12.464-26.191,10.908-15.756-1.561-23.054-14.906-23.58-15.911a20.382,20.382,0,0,1,6.4-22.609Z" transform="translate(-720.654 -284.326)"/>
      </g>
    </g>
  </g>
</svg>
