<svg xmlns="http://www.w3.org/2000/svg" xmlns:xlink="http://www.w3.org/1999/xlink" width="676.15" height="504.014" viewBox="0 0 676.15 504.014">
  <defs>
    <clipPath id="clip-path">
      <path id="Path_3777" data-name="Path 3777" d="M407.063,451.772c-.379.549.029,1.621.651,2.133.774.638,2.186.66,2.592.062.476-.7-.3-2.46-1.828-2.6C408.33,451.352,407.413,451.267,407.063,451.772Z" transform="translate(-406.917 -451.352)" fill="none"/>
    </clipPath>
    <clipPath id="clip-path-2">
      <path id="Path_3785" data-name="Path 3785" d="M219.446,444.294c-.325.652-1.93.72-3.063.3-1.408-.526-2.629-2-2.262-2.715.423-.829,3.147-.821,4.608.73C218.875,442.762,219.747,443.7,219.446,444.294Z" transform="translate(-214.056 -441.327)" fill="none"/>
    </clipPath>
    <clipPath id="clip-path-3">
      <path id="Path_3787" data-name="Path 3787" d="M234.842,449.757a1.713,1.713,0,0,1-2.343.672,1.66,1.66,0,0,1-.791-2.156c.461-.726,1.725-.5,2.265-.288a1.407,1.407,0,0,1,.5.3A1.453,1.453,0,0,1,234.842,449.757Z" transform="translate(-231.547 -447.778)" fill="none"/>
    </clipPath>
    <linearGradient id="linear-gradient" x1="0.5" y1="1" x2="0.5" gradientUnits="objectBoundingBox">
      <stop offset="0.005" stop-color="#ffd819"/>
      <stop offset="1" stop-color="#ffd819"/>
    </linearGradient>
    <linearGradient id="linear-gradient-2" x1="0.5" y1="0.602" x2="0.5" y2="-0.171" gradientUnits="objectBoundingBox">
      <stop offset="0"/>
      <stop offset="0.099" stop-color="#050505"/>
      <stop offset="0.223" stop-color="#141414"/>
      <stop offset="0.36" stop-color="#2e2e2e"/>
      <stop offset="0.507" stop-color="#525252"/>
      <stop offset="0.662" stop-color="gray"/>
      <stop offset="0.824" stop-color="#b8b8b8"/>
      <stop offset="0.988" stop-color="#fafafa"/>
      <stop offset="1" stop-color="#fff"/>
    </linearGradient>
    <linearGradient id="linear-gradient-3" x1="0.5" y1="1" x2="0.5" y2="-0.001" gradientUnits="objectBoundingBox">
      <stop offset="0" stop-color="#ffd819"/>
      <stop offset="1" stop-color="#ffd819" stop-opacity="0.992"/>
      <stop offset="1" stop-color="#ffd819" stop-opacity="0.988"/>
    </linearGradient>
    <linearGradient id="linear-gradient-4" x1="0.586" y1="0.513" x2="1.203" y2="1.164" gradientUnits="objectBoundingBox">
      <stop offset="0" stop-color="#fff"/>
      <stop offset="0.039" stop-color="#f3f3f3"/>
      <stop offset="0.399" stop-color="#8c8c8c"/>
      <stop offset="0.689" stop-color="#404040"/>
      <stop offset="0.894" stop-color="#121212"/>
      <stop offset="0.996"/>
      <stop offset="1"/>
    </linearGradient>
    <linearGradient id="linear-gradient-5" x1="0.551" y1="0.455" x2="1.57" y2="1.473" xlink:href="#linear-gradient-4"/>
    <linearGradient id="linear-gradient-6" x1="-0.259" y1="0.01" x2="0.729" y2="0.789" xlink:href="#linear-gradient-4"/>
    <linearGradient id="linear-gradient-7" x1="-0.319" y1="-0.101" x2="1.006" y2="1.107" xlink:href="#linear-gradient-4"/>
    <clipPath id="clip-path-4">
      <path id="Path_3928" data-name="Path 3928" d="M798.447,422.278c.012.742,1.455,1.505,2.671,1.615,1.516.138,3.281-.684,3.26-1.487-.024-.943-2.518-2.133-4.536-1.354C799.644,421.128,798.436,421.595,798.447,422.278Z" transform="translate(-798.447 -420.799)" fill="none"/>
    </clipPath>
    <clipPath id="clip-path-5">
      <path id="Path_3930" data-name="Path 3930" d="M821.8,422.65c.1.734,1.632,1.31,2.852,1.267,1.522-.054,3.169-1.091,3.048-1.885-.143-.932-2.765-1.8-4.67-.773C822.839,421.359,821.7,421.973,821.8,422.65Z" transform="translate(-821.79 -420.795)" fill="none"/>
    </clipPath>
    <linearGradient id="linear-gradient-8" x1="0.5" y1="1" x2="0.5" gradientUnits="objectBoundingBox">
      <stop offset="0" stop-color="#dee5e8"/>
      <stop offset="0.008" stop-color="#dee5e8"/>
      <stop offset="0.315" stop-color="#f0f3f5"/>
      <stop offset="0.637" stop-color="#fbfcfc"/>
      <stop offset="1" stop-color="#fff"/>
    </linearGradient>
    <linearGradient id="linear-gradient-9" x1="0.5" y1="1" x2="0.5" gradientUnits="objectBoundingBox">
      <stop offset="0" stop-color="#fff"/>
      <stop offset="0.362" stop-color="#fbfcfc"/>
      <stop offset="0.683" stop-color="#f0f3f5"/>
      <stop offset="0.988" stop-color="#dee5e8"/>
      <stop offset="0.996" stop-color="#dee5e8"/>
    </linearGradient>
  </defs>
  <g id="bienvenido" transform="translate(-84.53 -154.688)">
    <path id="Path_3873" data-name="Path 3873" d="M415.172,669.519c-182.609,0-330.642,9.294-330.642,20.757s148.033,20.76,330.642,20.76,330.641-9.295,330.641-20.76S597.78,669.519,415.172,669.519Z" transform="translate(0 -110.131)" fill="#a53a61"/>
    <g id="Group_1391" data-name="Group 1391" transform="translate(243.315 350.41)">
      <g id="Group_1386" data-name="Group 1386" transform="translate(36.297 57.13)">
        <path id="Path_3764" data-name="Path 3764" d="M382.7,527.073c-.344-.24-.923.038-1.4.268-1.167.56-1.3,1.115-2.481,2.063A13.3,13.3,0,0,1,376,530.933a2.538,2.538,0,0,1-1.665.291c-.2-.046-.651-.151-.8-.487-.237-.534.43-1.34.917-1.772.777-.689,1.62-.662,1.668-1.079.039-.345-.5-.729-.952-.9-.632-.24-1.367-.173-2.96.548-1.986.9-2.278,1.443-3.626,1.944a8.086,8.086,0,0,1-2.91.491,26.107,26.107,0,0,1-4.642-.971c-.649-.2-13.709-4.411-15.594-14.036-.218-1.113-1.127-4.018,1.583-9.449,6.489-13.006,8.928-17.556,15.219-20.426,0,0-4.178-3.622-2.519-6.961a12.728,12.728,0,0,0-8.536-1.593c-5.33.962-8.426,5.308-10.472,8.329-5.436,8.024-12.384,25.687-3.886,37.3,5.269,7.2,15.326,10.5,20.491,12.193.976.32,8.387,2.7,8.432,2.57v0a17.877,17.877,0,0,0,2.735.37,19.264,19.264,0,0,0,8.12-1.427c1.861-.747,3.037-1.218,4.154-2.468a8.63,8.63,0,0,0,1.846-3.652C382.838,528.934,383.26,527.459,382.7,527.073Z" transform="translate(-332.732 -476.348)" fill="#fdb585"/>
        <path id="Path_3765" data-name="Path 3765" d="M361.472,485.441a47.479,47.479,0,0,0-14.48,20.071c-1.458,3.992-2.264,6.444-1.545,9.463,2.543,10.67,20.7,13.859,20.7,13.859-1.781,3.258-.3,8.609-.3,8.609-45.638-3.085-33.536-38.863-25.163-52.582s19.008-6.736,19.008-6.736a5,5,0,0,0-.923,3.805A5.1,5.1,0,0,0,361.472,485.441Z" transform="translate(-332.7 -476.348)" fill="#ffd63f"/>
      </g>
      <path id="Path_3766" data-name="Path 3766" d="M297.949,644.455s25.2-15.532,28.158-28.62c2.158-9.54,2.158-26.057,2.158-26.057l-2.45-40.153s20.3,6.7,24.975,0c0,0,.983,52.969-12.686,75.181s-38.292,26.912-38.292,26.912S296.241,650.008,297.949,644.455Z" transform="translate(-288.87 -434.893)" fill="#48a7bb"/>
      <path id="Path_3767" data-name="Path 3767" d="M333.075,549.619a23.742,23.742,0,0,0,2.9,22.639c8.116,11.107,65.386,72.192,73.487,87.57,0,0,5.966-2.136,6.82-7.689,0,0-59.916-86.534-58.237-102.519C358,549.17,356.117,556.385,333.075,549.619Z" transform="translate(-296.13 -434.888)" fill="#48a7bb"/>
      <path id="Path_3768" data-name="Path 3768" d="M295.6,670.261s-7.689.432-8.828,2.921,1.994,8.755,1.424,12.457.57,8.543,7.4,8.543,5.432-5.126,1.862-5.7,0-10.964,0-10.964A7.177,7.177,0,0,1,295.6,670.261Z" transform="translate(-286.525 -460.699)" fill="#19114c"/>
      <path id="Path_3769" data-name="Path 3769" d="M364.637,477.368a56.363,56.363,0,0,1,3.669,7.622,48.52,48.52,0,0,1,3,10.687c.645,5.308-.914,8.636-5.079,19.486-1.535,4-3.866,10.171-6.65,17.979a10.463,10.463,0,0,1-4.3,1.417c-3.448-.053-9.49-1.628-19.865-7.717a35.268,35.268,0,0,0,4.665-10.75c1.69-6.939-.157-9,.232-18.258.031-.719.768-15.364,6.993-22.77a13.5,13.5,0,0,1,6.418-4.559,12.092,12.092,0,0,1,4.106-.5,4.691,4.691,0,0,0-.113,2.156C358.195,474.694,360.958,476.725,364.637,477.368Z" transform="translate(-296.982 -417.858)" fill="#f89a5b"/>
      <path id="Path_3770" data-name="Path 3770" d="M363.88,477.368a35.086,35.086,0,0,1,1.982,3.065,38.843,38.843,0,0,1,4.688,15.244,20.023,20.023,0,0,1,.03,2.535c-.344,5.923-2.1,9.463-5.109,16.951-.238.593-1.814,4.522-3.068,8.1a112.6,112.6,0,0,0-4.171,15.219,20.611,20.611,0,0,1-2.679.494c-5.182.607-8.65-1.053-15.447-3.034-1.953-.569-4.763-1.335-8.233-2.092a83.657,83.657,0,0,0,5.481-16.283c.208-1.05.606-3.266.983-5.8.242-1.622.626-4.226.891-7.355.275-3.243.237-5.5.322-6.585.3-3.854,1.494-16.227,6.993-22.77a13.5,13.5,0,0,1,6.418-4.559,12.092,12.092,0,0,1,4.106-.5,10.806,10.806,0,0,0,6.811,7.366Z" transform="translate(-296.226 -417.858)" fill="#685b9e"/>
      <path id="Path_3771" data-name="Path 3771" d="M373.246,466.772a33.539,33.539,0,0,0-2.827,8.062,19.382,19.382,0,0,1-9.468-7.888c1.1-1.459,2.21-3.022,3.321-4.693,1.392-2.092,2.631-4.125,3.733-6.071Z" transform="translate(-302.446 -414.905)" fill="#fdb585"/>
      <path id="Path_3772" data-name="Path 3772" d="M430.7,686.434s2.975,4.841,5.253,6.55,16.8-9.968,19.365-14.666-2.278-5.554-7.12-2.706-8.259,6.661-10.679,3.133A11.313,11.313,0,0,1,430.7,686.434Z" transform="translate(-317.367 -461.494)" fill="#19114c"/>
      <g id="Group_1390" data-name="Group 1390" transform="translate(57.806)">
        <path id="Path_3773" data-name="Path 3773" d="M398.459,408.723c-9.917-5.563-20.58-6.906-27.085-2.137-2.487,1.824-3.957,4.241-6.7,8.755-2.7,4.434-5.624,9.4-4.265,14.646a12.372,12.372,0,0,0,1.134,2.752,134.2,134.2,0,0,1,6.652,15.708l38.987-15.4a8.925,8.925,0,0,0,6.413,1.469c.68-.138,1.745-.463,4.366-2.459,3.367-2.564,5.051-3.846,5.933-5.553,2.691-5.2-2.392-12.408-2.828-13.01-3.658-5.02-6.928-6.073-8.9-6.282-1.187-.126-1.988.047-5.426.511C403.183,408.21,400.3,408.53,398.459,408.723Z" transform="translate(-360.062 -403.672)" fill="#112129"/>
        <path id="Path_3774" data-name="Path 3774" d="M369.828,453.869c-2.507-4.661-2.854-9.612-.654-12.687a8.68,8.68,0,0,1,3.736-2.9c6.609-2.215,5.993,3.8,5.993,3.8s13.3,2.371,21.907-13.08c0,0,4.276,7.771,8,9.463a32.626,32.626,0,0,1-.42,3.911,32.986,32.986,0,0,1-2.605,8.382,24.324,24.324,0,0,0-1.139,4.657,1.764,1.764,0,0,1-.6,1.343,1.293,1.293,0,0,1-.883.158,18.02,18.02,0,0,1-5.465,7.89c-6.3,5.113-16.184,5.265-25.169.557Z" transform="translate(-361.699 -409.092)" fill="#fdb585"/>
        <path id="Path_3775" data-name="Path 3775" d="M385.59,441.44a87.77,87.77,0,0,1-5.381,7.824,4.352,4.352,0,0,0-.424,5.518,15.406,15.406,0,0,0,3.4,4.036c2.725,2.449,4.681,4.157,7.245,4.028a4.681,4.681,0,0,0,1.174-.185c2.528-.75,2.578-3.187,4.488-3.677.679-.175,1.672.2,3.657.935a26.893,26.893,0,0,1,3.213,1.442,1.7,1.7,0,0,1,.517.936,2.613,2.613,0,0,1-.95,1.99c-3.445,3.529-6.917,13.6-13.043,13.354a8.944,8.944,0,0,1-1.462-.259c-1.909-.419-4.6-1.319-10.295-5.734-5.569-4.318-6.3-6.015-6.559-7.35a8.425,8.425,0,0,1-.078-2.441c.292-3.954,2.346-6.756,3.714-8.751a95.07,95.07,0,0,0,6.371-10.839,6.606,6.606,0,0,1,4.412-.826Z" transform="translate(-362.41 -411.732)" fill="#112129"/>
        <g id="Group_1389" data-name="Group 1389" transform="translate(36.832 37.473)">
          <path id="Path_3776" data-name="Path 3776" d="M407.079,451.754c-.382.547.017,1.625.632,2.144.768.647,2.177.681,2.586.085.48-.7-.276-2.468-1.8-2.624C408.346,451.344,407.431,451.25,407.079,451.754Z" transform="translate(-406.92 -451.342)" fill="#fff"/>
          <g id="Group_1388" data-name="Group 1388" transform="translate(0 0.008)">
            <g id="Group_1387" data-name="Group 1387" clip-path="url(#clip-path)">
              <ellipse id="Ellipse_175" data-name="Ellipse 175" cx="1.122" cy="0.767" rx="1.122" ry="0.767" transform="translate(1.297 2.238) rotate(-51.385)" fill="#112129"/>
            </g>
          </g>
        </g>
        <path id="Path_3778" data-name="Path 3778" d="M407.291,469.609c-.4.7-.789.829-.978.862-.941.165-2.219-1.183-2.97-3.51Z" transform="translate(-369.32 -417.21)" fill="#dc7044"/>
      </g>
    </g>
    <g id="Group_1400" data-name="Group 1400" transform="translate(139.394 348.545)">
      <path id="Path_3779" data-name="Path 3779" d="M207.936,402.11c-.135-.03-.3-.065-.526-.112-2.642-.538-15.127-2.724-25.046,4.96a26.972,26.972,0,0,0-8.6,11.8c-2.4,6.8.557,8.546-2.188,14.945-2.728,6.362-7.257,8.376-6.28,12.408.479,1.972,2.03,3.419,1.713,6.341a10.344,10.344,0,0,1-1.051,3.312,21.7,21.7,0,0,1-3.693,5.563c-4.422,5.069-5.709,13.3-5.07,19.067a25.3,25.3,0,0,0,1.025,4.71c5.28,15.19,47.057,23.4,54.664,12.133,3.085-4.566-1.064-9.942,3.986-19.569,1.739-3.315,2.981-4.109,4.522-8.049,2.489-6.362.551-7.622,2.458-13.576,2.519-7.866,6.872-8.7,7.088-15.028.118-3.437-1.156-3.433-1.565-8.086-.708-8.061,3-9.425,2.1-14.419C229.857,409.521,216.037,403.894,207.936,402.11Z" transform="translate(-154.905 -401.299)" fill="#fa5c17"/>
      <path id="Path_3780" data-name="Path 3780" d="M208.643,473.164a37.606,37.606,0,0,1,2.207-13.646,34.839,34.839,0,0,1-9.062-2.26q-1.96,6.378-3.921,12.757Z" transform="translate(-163.639 -413.27)" fill="#fdb585"/>
      <path id="Path_3781" data-name="Path 3781" d="M229.727,438.383a24.259,24.259,0,0,1-9.141,13.664,22.209,22.209,0,0,1-12.221,4.378c-9.189.148-17.233-6.141-20.364-13.461a20.09,20.09,0,0,1-1.505-5.88,3.251,3.251,0,0,1-1.468-.777,3.676,3.676,0,0,1-.979-1.958,14.138,14.138,0,0,1-.634-5.3c.185-1.883.318-3.255,1.347-3.842a3.177,3.177,0,0,1,2.677.12,4.431,4.431,0,0,1,2.311,2.57,50.243,50.243,0,0,1,3.175-8.013c2.267-4.542,3.651-7.322,6.558-9.306,4.309-2.942,9.281-2.386,11.619-2.082a23.377,23.377,0,0,1,15.5,9.015C233.39,426.752,230.07,437.353,229.727,438.383Z" transform="translate(-160.535 -402.785)" fill="#fdb585"/>
      <path id="Path_3782" data-name="Path 3782" d="M223.1,460.643a5.567,5.567,0,0,1-2.85,1.146c-2.574.218-5.227-1.6-6.689-4.58Z" transform="translate(-166.997 -413.259)" fill="#dc7044"/>
      <path id="Path_3783" data-name="Path 3783" d="M224.136,455.625c.507.169,1.014.338,1.5.448a2.8,2.8,0,0,1-1.934-.082,2.749,2.749,0,0,1-1.229-1.046A16.129,16.129,0,0,0,224.136,455.625Z" transform="translate(-168.902 -412.775)" fill="#dc7044"/>
      <path id="Path_3784" data-name="Path 3784" d="M219.452,444.276c-.32.655-1.934.73-3.058.316-1.413-.51-2.633-2-2.285-2.694.417-.83,3.139-.847,4.613.7C218.868,442.746,219.741,443.7,219.452,444.276Z" transform="translate(-167.1 -409.864)" fill="#fff"/>
      <g id="Group_1394" data-name="Group 1394" transform="translate(46.954 31.465)">
        <g id="Group_1393" data-name="Group 1393" clip-path="url(#clip-path-2)">
          <g id="Group_1392" data-name="Group 1392" transform="translate(2.466 0.519)">
            <ellipse id="Ellipse_176" data-name="Ellipse 176" cx="1.272" cy="1.069" rx="1.272" ry="1.069" transform="translate(0 2.414) rotate(-71.563)" fill="#1d262d"/>
          </g>
        </g>
      </g>
      <path id="Path_3786" data-name="Path 3786" d="M234.661,449.709a1.64,1.64,0,0,1-1.587.975,1.857,1.857,0,0,1-1.357-2.4c.438-.722,2.087-.465,2.666-.069a.985.985,0,0,1,.226.216A1.464,1.464,0,0,1,234.661,449.709Z" transform="translate(-170.851 -411.252)" fill="#fff"/>
      <g id="Group_1397" data-name="Group 1397" transform="translate(60.704 36.536)">
        <g id="Group_1396" data-name="Group 1396" clip-path="url(#clip-path-3)">
          <g id="Group_1395" data-name="Group 1395" transform="translate(0.971 -0.126)">
            <ellipse id="Ellipse_177" data-name="Ellipse 177" cx="1.229" cy="0.839" rx="1.229" ry="0.839" transform="translate(0 2.333) rotate(-71.563)" fill="#1d262d"/>
          </g>
        </g>
      </g>
      <g id="Group_1398" data-name="Group 1398" transform="translate(44.132 35.009)">
        <circle id="Ellipse_178" data-name="Ellipse 178" cx="0.539" cy="0.539" r="0.539" transform="translate(6.684 2.516)" fill="#dc7044"/>
        <circle id="Ellipse_179" data-name="Ellipse 179" cx="0.539" cy="0.539" r="0.539" transform="translate(4.534 3.6)" fill="#dc7044"/>
        <circle id="Ellipse_180" data-name="Ellipse 180" cx="0.393" cy="0.393" r="0.393" transform="translate(3.759 2.003)" fill="#dc7044"/>
        <circle id="Ellipse_181" data-name="Ellipse 181" cx="0.539" cy="0.539" r="0.539" transform="translate(1.616 2.198)" fill="#dc7044"/>
        <circle id="Ellipse_182" data-name="Ellipse 182" cx="0.539" cy="0.539" r="0.539" transform="translate(2.164)" fill="#dc7044"/>
        <circle id="Ellipse_183" data-name="Ellipse 183" cx="0.539" cy="0.539" r="0.539" transform="translate(0 0.177)" fill="#dc7044"/>
      </g>
      <g id="Group_1399" data-name="Group 1399" transform="translate(59.336 40.464)">
        <circle id="Ellipse_184" data-name="Ellipse 184" cx="0.539" cy="0.539" r="0.539" transform="translate(1.616 2.198)" fill="#dc7044"/>
        <circle id="Ellipse_185" data-name="Ellipse 185" cx="0.539" cy="0.539" r="0.539" transform="translate(2.164)" fill="#dc7044"/>
        <circle id="Ellipse_186" data-name="Ellipse 186" cx="0.539" cy="0.539" r="0.539" transform="translate(0 0.177)" fill="#dc7044"/>
      </g>
      <path id="Path_3788" data-name="Path 3788" d="M227.228,442.4a12.046,12.046,0,0,0-3.754.357c-.205-.428-.467-.542-1.284-.81s-1.1-.333-1.5-.106a12.671,12.671,0,0,0-2.87-2.535c-1.531-.883-5.168-2.015-7.2-1.748l-5.447-.916-.578.657,5.585,1.687a4.1,4.1,0,0,1,.161,1.285,7.3,7.3,0,0,0,.47,3.937,5.738,5.738,0,0,0,4.525,3.21c2.438.291,4.3-1.476,5.113-3.526a.755.755,0,0,1-.227-.818c.189-.469.789-.186,1.605.082s1.464.4,1.356.891a.722.722,0,0,1-.643.533,5.288,5.288,0,0,0,2.2,5.93,5.574,5.574,0,0,0,5.49.083,6.936,6.936,0,0,0,2.565-2.94c.483-.84.832-.959.832-.959l.44-1.428C232.555,443.834,228.972,442.592,227.228,442.4Zm-8.478,2.57c-.564,1.174-2.267,2.251-4.6,1.422a4.657,4.657,0,0,1-3.089-4.267,3.34,3.34,0,0,1,2-3.275,6.086,6.086,0,0,1,5.286,1.8A3.564,3.564,0,0,1,218.75,444.97Zm12.431,3.768a4.442,4.442,0,0,1-4.908,1.637,3.716,3.716,0,0,1-2.953-3.9,3.447,3.447,0,0,1,2.742-3.285,6.09,6.09,0,0,1,5.323,1.686A3.428,3.428,0,0,1,231.181,448.738Z" transform="translate(-165.077 -408.86)" fill="#323232"/>
      <path id="Path_3789" data-name="Path 3789" d="M217.633,427.341c1.255,1.7,1.953,1.958,4.657,5.018,2.86,3.236,4.29,4.854,4.919,6.42,2.486,6.18-4.389,14.105-4.441,14.076-.013-.007.418-.474,1.124-1.309,8.873-10.5,12.742-19.955,9.878-29.2-2.311-7.454-8.88-11.979-10.769-13.281a22.719,22.719,0,0,0-5.378-2.872c-1.275-.464-9.216-3.425-16.2.215-3.282,1.711-4.966,4.158-7.105,7.349-9.688,14.453-8.2,30.469-7.927,32.991a51.126,51.126,0,0,0,1.751,8.845,2.568,2.568,0,0,1,.285.112c1.783.83,1.887,3.508,2.445,7.834.63,4.888.941,4.92,1.371,9.491.157,1.664.248,3.061.3,4.06a42.216,42.216,0,0,0,.843-4.9c.377-3.4.047-4.27.483-7.9a32.622,32.622,0,0,0,.542-4.2c0-2.643-.672-2.84-.84-5.5-.153-2.42.373-2.655.606-6.635a34.215,34.215,0,0,1,.451-3.588c.272-1.554.581-2.2,6.843-13.125,2.67-4.659,4.046-7.027,6.03-8.858a22.711,22.711,0,0,1,6.685-4.251A19.055,19.055,0,0,0,217.633,427.341Z" transform="translate(-161.132 -402.01)" fill="#fa5c17"/>
      <path id="Path_3790" data-name="Path 3790" d="M154.324,691.579q3.253,2.16,6.858,4.331,2.756,1.652,5.415,3.118l8.127.906c1.535-1.156,1.763-1.863,1.656-2.3-.249-1.03-2.407-.913-4.951-2.255a11.928,11.928,0,0,1-3.52-2.858l-5.325-4.407a8.8,8.8,0,0,1-2.52.889,6.77,6.77,0,0,1-5.188-.889Z" transform="translate(-154.324 -462.653)" fill="#814a95"/>
      <path id="Path_3791" data-name="Path 3791" d="M228.5,509.506c-6.087-5.226-8.979-8.825-10.48-11.246,0,0-3.226-5.2-6.39-9.418a15.587,15.587,0,0,1-1.891-3.447,6.208,6.208,0,0,1-.613-2.77c0-.123.145-2.8,1.721-3.647,1.822-.98,4.543,1.033,6.679,2.612a27.513,27.513,0,0,1,5.168,5.177c.829,1.02,1.472,1.845,2.074,2.662,1.281,1.739,2.21,3.155,2.635,3.817.115.178.2.308.215.337.764,1.2,2.945,4.1,8.272,10.662a4.716,4.716,0,0,1-.651,5.764A4.775,4.775,0,0,1,228.5,509.506Z" transform="translate(-166.047 -417.861)" fill="#fdb585"/>
      <path id="Path_3792" data-name="Path 3792" d="M239.143,508.2a3.857,3.857,0,0,0,.993.978,4.013,4.013,0,0,0,2.4.657q9.218-.08,19,.281,3.685.141,7.281.345h.027c.055,0,.186-.009.351-.012a11.829,11.829,0,0,1,1.292.046,13.19,13.19,0,0,1,5.756,1.99,25.13,25.13,0,0,1,2.2,4.812c.527,1.585.638,2.47.246,3.251a4.3,4.3,0,0,1-1.179,1.325c-.59.463-.983.864-1.494.794a1.3,1.3,0,0,1-.738-.434c-.487-.493-.479-.987-.769-1.993-.311-1.078-.466-1.616-.935-1.986-.536-.423-1.435-.606-1.758-.262-.492.526.769,1.839.16,2.945a1.406,1.406,0,0,1-.851.683c-1.006.171-1.479-1.672-3.078-3.081-2.437-2.151-6.143-2.107-8.615-2.078-.641.008-1.108.045-1.27.057-3.318.262-10.1.735-20.7,1.446-2.02-.443-3.752-1.647-4.175-3.236C232.653,512.34,234.9,508.872,239.143,508.2Z" transform="translate(-171.193 -424.166)" fill="#fdb585"/>
      <path id="Path_3793" data-name="Path 3793" d="M221.034,504.647a8.881,8.881,0,0,0,3.684-.592,9.621,9.621,0,0,0,1.81-.963,14.836,14.836,0,0,0,2.869-2.769,13.229,13.229,0,0,1,3.7-2.706,11.556,11.556,0,0,1-1.635-1.407,14.16,14.16,0,0,1-2-2.75c-.619-1.005-1.284-1.914-2.617-3.733a44.629,44.629,0,0,0-4.462-5.168,37.614,37.614,0,0,0-4.329-3.889,33.523,33.523,0,0,0-5.694-3.475c-1.45,1.641-3.412,4.426-3.247,7.793.141,2.882,1.766,4.709,4.3,8.136A130.953,130.953,0,0,1,221.034,504.647Z" transform="translate(-166.043 -417.534)" fill="#512945"/>
      <path id="Path_3794" data-name="Path 3794" d="M193.878,697.488s13.488,5.315,20.744,5.6c0,0,8.511-.712-13.463-10.82,0,0-3.518,3.237-7.515,1.718Z" transform="translate(-162.735 -463.542)" fill="#814a95"/>
      <path id="Path_3795" data-name="Path 3795" d="M197.081,533.339a44.45,44.45,0,0,1,5.4,8.44c5.5,11.23,4.753,21.97,4.132,29.551-2.249,27.442-3.373,41.163-3.471,41.986a458.194,458.194,0,0,0-3.1,46.46,14.5,14.5,0,0,1-2.692.827,13.233,13.233,0,0,1-6.126-.12s.3-35.845-5.393-67.3a149.381,149.381,0,0,1-2.6-49.469q.454-3.863,1.088-7.534a29.227,29.227,0,0,0,12.756-2.839Z" transform="translate(-160.298 -429.545)" fill="#454195"/>
      <path id="Path_3796" data-name="Path 3796" d="M175.776,606.358c1.6-7.584,2.836-13.954,3.706-18.618,5.051-27.1,5.474-37.2,4.754-46.458q-.284-3.66-.758-7.149a31.044,31.044,0,0,1-6.933-1.1,30.59,30.59,0,0,1-5.683-2.209,41.567,41.567,0,0,0-5.763,7.68c-5.452,9.385-5.529,18.34-5.415,27.625.181,14.813.816,28.1,1.636,39.713a7.971,7.971,0,0,0,3.644,5.132,7.788,7.788,0,0,0,6.84.762A6.941,6.941,0,0,0,175.776,606.358Z" transform="translate(-155.465 -429.007)" fill="#454195"/>
      <path id="Path_3797" data-name="Path 3797" d="M160.511,622.812q-1,12.475-2.422,25.557-1.487,13.59-3.3,26.449a14.468,14.468,0,0,0,2.515,1.267,13.23,13.23,0,0,0,6.058.911l11.088-49.9" transform="translate(-154.424 -448.685)" fill="#454195"/>
      <path id="Path_3798" data-name="Path 3798" d="M191.463,472.95c-1.24-.285-1.476-.357-1.9-.428-1.478-.25-6.848-1.159-11.289,1.974a12.024,12.024,0,0,0-2.916,2.948,7.491,7.491,0,0,0-.425,3.669,8.3,8.3,0,0,0,1.637,3.6c1.062,1.712,1.806,5.054.2,12.25a73.4,73.4,0,0,1-.263,16.027c-.134.908-1.012,6.657-1.012,6.657v0a26.722,26.722,0,0,0,21.035,4.138q.954-3.234,2.055-6.575c1.863-5.641,3.873-10.936,5.954-15.879a47.356,47.356,0,0,0,3.892-14.173c.7-6.429-.523-8.265-1.45-9.089a18.267,18.267,0,0,0-3.677-2.141l-.051-.023a5.821,5.821,0,0,0-2.1-.539Q196.416,474.091,191.463,472.95Z" transform="translate(-158.717 -416.467)" fill="#fdb585"/>
      <path id="Path_3799" data-name="Path 3799" d="M175.36,501.254c-.061,2.228-.392,4.456-.25,6.68.166,2.6.584,4.136-.429,5.6-.745,1.078-1.62,1.182-1.772,2.217-.167,1.134.695,2.3,1.264,3.076a8.152,8.152,0,0,0,1.1,1.218,18.741,18.741,0,0,0,6.344,3.25,32.339,32.339,0,0,0,7.976,1.313,25.108,25.108,0,0,0,6.24-.491,9.638,9.638,0,0,0,1.461-.484,4.406,4.406,0,0,0,1.768-1.056,2.558,2.558,0,0,0,.749-1.692c-.018-.763-.521-1-.827-1.75a4.464,4.464,0,0,1,.342-3.235c.623-1.757,1.185-1.853,2.237-3.95a28.29,28.29,0,0,0,1.283-3.3c1.2-3.412.91-3.522,1.517-4.407,1.279-1.865,2.634-1.479,3.887-3.159.78-1.046.991-2.182,1.081-4.815.022-.635.065-1.345.08-2.32.03-1.926-.057-3.42-.106-4.274a56,56,0,0,0-.564-6.72c-.476-2.077-1.086-4.573-3.249-6.341a7.909,7.909,0,0,0-2.24-1.277c.025.5.057,1.171.085,1.969.108,2.978.025,3.271-.164,3.5-.778.962-3.111.634-4.683-.163-1.8-.914-2.783-2.531-4.422-5.241-.555-.917-.965-1.7-1.226-2.214a29.353,29.353,0,0,0-4.687-1.061,16.9,16.9,0,0,0-3.835-.236,8.421,8.421,0,0,0-4.829,1.35,7.589,7.589,0,0,0-2.423,3.472,12.7,12.7,0,0,0-.852,4.389c-.252,3.75-.378,5.624-.393,7.206C175.782,492.857,175.644,490.982,175.36,501.254Z" transform="translate(-158.295 -416.394)" fill="#512945"/>
    </g>
    <g id="Group_1452" data-name="Group 1452" transform="translate(369.899 154.688)">
      <path id="Path_3800" data-name="Path 3800" d="M807.531,155.059,455.944,242.038c-4.954,1.225-8.388,5.3-8.388,9.947V406.694c0,4.647,3.434,8.721,8.388,9.946L807.531,503.62c7.248,1.794,14.4-3.146,14.4-9.947V165C821.927,158.2,814.779,153.265,807.531,155.059Z" transform="translate(-447.556 -154.688)" fill="#d5f1ff" opacity="0.55"/>
      <g id="Group_1451" data-name="Group 1451" transform="translate(14.879 26.567)" opacity="0.8">
        <g id="Group_1403" data-name="Group 1403" transform="translate(90.705 48.394)">
          <g id="Group_1402" data-name="Group 1402">
            <g id="Group_1401" data-name="Group 1401">
              <path id="Path_3801" data-name="Path 3801" d="M581.872,389.995l9.912.471V348.173l-9.912.527Z" transform="translate(-581.872 -271.039)" fill="#2c7eeb"/>
              <path id="Path_3802" data-name="Path 3802" d="M603.9,385.447l10.779.515v-62.9L603.9,324.1Z" transform="translate(-586.584 -265.667)" fill="#184866"/>
              <path id="Path_3803" data-name="Path 3803" d="M627.873,388.162l11.768.562v-57.17l-11.768.91Z" transform="translate(-591.712 -267.484)" fill="#fff"/>
              <path id="Path_3804" data-name="Path 3804" d="M654.067,381.86l12.9.616V297.5l-12.9,1.673Z" transform="translate(-597.316 -260.199)" fill="#3dc7c9"/>
              <path id="Path_3805" data-name="Path 3805" d="M682.8,372.786l14.193.676V250.048L682.8,252.857Z" transform="translate(-603.462 -250.048)" fill="#fdbf14"/>
            </g>
          </g>
          <path id="Path_3806" data-name="Path 3806" d="M581.872,417.771l93.53,7.644v-5.955l-93.53-6.535Z" transform="translate(-581.872 -284.89)" fill="#184866"/>
        </g>
        <g id="Group_1409" data-name="Group 1409" transform="translate(0 76.091)">
          <g id="Group_1404" data-name="Group 1404" transform="translate(0 6.774)">
            <path id="Path_3807" data-name="Path 3807" d="M470.811,307.7c-3.107,7.3-4.592,16.429-4.289,26.24.538,17.516,7.151,30.787,15.107,29.536l-1.064-33.163Z" transform="translate(-466.484 -296.851)" fill="#fff"/>
            <path id="Path_3808" data-name="Path 3808" d="M485.462,369.625c3.084-.491,5.756-2.794,8.266-7.168l-9.33-25.995Z" transform="translate(-470.316 -303.005)" fill="#184866"/>
            <path id="Path_3809" data-name="Path 3809" d="M489.467,295.485,484.4,327.7l9.33,25.995a45.408,45.408,0,0,0,5.095-15.578C501.853,319.763,497.527,300.448,489.467,295.485Z" transform="translate(-470.316 -294.239)" fill="#2c7eeb"/>
            <path id="Path_3810" data-name="Path 3810" d="M471.989,304.745l9.755,22.612,5.069-32.211C481.331,291.77,475.989,295.346,471.989,304.745Z" transform="translate(-467.662 -293.9)" fill="#fdbf14"/>
          </g>
          <g id="Group_1405" data-name="Group 1405" transform="translate(51.373)">
            <path id="Path_3811" data-name="Path 3811" d="M531.838,294.293l12.9-2.2v-5.262l-12.9,2.377Z" transform="translate(-531.838 -285.615)" fill="#184866"/>
            <path id="Path_3812" data-name="Path 3812" d="M550.8,291.42l4.612-.786v-5.351l-4.612.848Z" transform="translate(-535.894 -285.283)" fill="#184866"/>
          </g>
          <path id="Path_3813" data-name="Path 3813" d="M531.838,346.545l11.728-.708v-5.243l-11.728.87Z" transform="translate(-480.464 -297.115)" fill="#184866"/>
          <g id="Group_1406" data-name="Group 1406" transform="translate(51.373 64.36)">
            <path id="Path_3814" data-name="Path 3814" d="M542.825,372.56l10.882-.055v-5.347l-10.882.205Z" transform="translate(-534.188 -367.157)" fill="#184866"/>
            <path id="Path_3815" data-name="Path 3815" d="M531.838,372.67l7-.037v-5.174l-7,.133Z" transform="translate(-531.838 -367.222)" fill="#184866"/>
          </g>
          <g id="Group_1407" data-name="Group 1407" transform="translate(51.373 22.508)">
            <path id="Path_3816" data-name="Path 3816" d="M531.838,320.627l6.784-.782v-5.172l-6.784.875Z" transform="translate(-531.838 -314.078)" fill="#184866"/>
            <path id="Path_3817" data-name="Path 3817" d="M539.361,319.784l5.47-.633v-5.235l-5.47.705Z" transform="translate(-533.447 -313.917)" fill="#184866"/>
          </g>
          <g id="Group_1408" data-name="Group 1408" transform="translate(41.868 0.972)">
            <path id="Path_3818" data-name="Path 3818" d="M522.76,286.547c-1.67.326-3.014,3.382-3.014,6.821s1.344,6.024,3.014,5.757c1.689-.271,3.067-3.327,3.067-6.835S524.449,286.219,522.76,286.547Z" transform="translate(-519.746 -286.519)" fill="#184866"/>
            <path id="Path_3819" data-name="Path 3819" d="M522.76,312.02c-1.67.234-3.014,3.214-3.014,6.657s1.344,6.095,3.014,5.918c1.689-.177,3.067-3.155,3.067-6.66S524.449,311.785,522.76,312.02Z" transform="translate(-519.746 -291.971)" fill="#fff"/>
            <path id="Path_3820" data-name="Path 3820" d="M522.76,337.491c-1.67.142-3.014,3.045-3.014,6.488s1.344,6.168,3.014,6.084c1.689-.084,3.067-2.987,3.067-6.493S524.449,337.347,522.76,337.491Z" transform="translate(-519.746 -297.422)" fill="#fdbf14"/>
            <path id="Path_3821" data-name="Path 3821" d="M522.76,362.964c-1.67.049-3.014,2.875-3.014,6.322s1.344,6.241,3.014,6.249c1.689.008,3.067-2.822,3.067-6.322S524.449,362.915,522.76,362.964Z" transform="translate(-519.746 -302.872)" fill="#2c7eeb"/>
          </g>
        </g>
        <g id="Group_1410" data-name="Group 1410" transform="translate(0.683 182.028)">
          <path id="Path_3822" data-name="Path 3822" d="M467.353,451.6l13.466,2.773v-32.88l-13.466-1.442Z" transform="translate(-467.353 -420.049)" fill="#fdbf14"/>
          <path id="Path_3823" data-name="Path 3823" d="M486.975,426.043l20.839,2.475v-4.134l-20.839-2.233Z" transform="translate(-471.551 -420.499)" fill="#fff"/>
          <path id="Path_3824" data-name="Path 3824" d="M526.748,430.668l26.488,3.146v-4.565l-26.488-2.839Z" transform="translate(-480.058 -421.41)" fill="#fff"/>
          <path id="Path_3825" data-name="Path 3825" d="M486.975,437.926l27.517,4.036v-4.208l-27.517-3.717Z" transform="translate(-471.551 -423.041)" fill="#fff"/>
          <path id="Path_3826" data-name="Path 3826" d="M507.064,453.257l5.092.888v-4.133l-5.092-.829Z" transform="translate(-475.848 -426.281)" fill="#fff"/>
          <path id="Path_3827" data-name="Path 3827" d="M516.2,454.829l8.152,1.424V452l-8.152-1.328Z" transform="translate(-477.803 -426.6)" fill="#fff"/>
          <path id="Path_3828" data-name="Path 3828" d="M529.391,444.042l24.41,3.581v-4.562l-24.41-3.3Z" transform="translate(-480.624 -424.267)" fill="#fff"/>
          <path id="Path_3829" data-name="Path 3829" d="M486.975,449.8l12.313,2.149v-4.033l-12.313-2.007Z" transform="translate(-471.551 -425.581)" fill="#fff"/>
          <path id="Path_3830" data-name="Path 3830" d="M486.975,463.166l46.262,9.53v-4.43l-46.262-8.992Z" transform="translate(-471.551 -428.44)" fill="#fff"/>
          <path id="Path_3831" data-name="Path 3831" d="M495.336,476.981l51.18,11.97v-4.563l-51.18-11.374Z" transform="translate(-473.339 -431.379)" fill="#fff"/>
          <path id="Path_3832" data-name="Path 3832" d="M467.353,470.5l19.52,4.568v-3.939l-19.52-4.339Z" transform="translate(-467.353 -430.048)" fill="#fff"/>
        </g>
        <g id="Group_1433" data-name="Group 1433" transform="translate(91.236 205.548)">
          <g id="Group_1412" data-name="Group 1412">
            <g id="Group_1411" data-name="Group 1411">
              <path id="Path_3833" data-name="Path 3833" d="M582.548,454.5l16.138,2.45v-4.71l-16.138-2.273Z" transform="translate(-582.548 -449.969)" fill="#fff" fill-rule="evenodd"/>
            </g>
          </g>
          <g id="Group_1414" data-name="Group 1414" transform="translate(0 11.204)">
            <g id="Group_1413" data-name="Group 1413">
              <path id="Path_3834" data-name="Path 3834" d="M582.548,468.755l25.443,4.561V468.5l-25.443-4.279Z" transform="translate(-582.548 -464.222)" fill="#fff" fill-rule="evenodd"/>
            </g>
          </g>
          <g id="Group_1416" data-name="Group 1416" transform="translate(24.272 3.419)">
            <g id="Group_1415" data-name="Group 1415">
              <path id="Path_3835" data-name="Path 3835" d="M613.425,459.119l27.092,4.116v-5.1l-27.092-3.816Z" transform="translate(-613.425 -454.318)" fill="#fff" fill-rule="evenodd"/>
            </g>
          </g>
          <g id="Group_1418" data-name="Group 1418" transform="translate(57.182 8.055)">
            <g id="Group_1417" data-name="Group 1417">
              <path id="Path_3836" data-name="Path 3836" d="M655.291,465.379l16.047,2.438v-5.342l-16.047-2.26Z" transform="translate(-655.291 -460.215)" fill="#fff" fill-rule="evenodd"/>
            </g>
          </g>
          <g id="Group_1420" data-name="Group 1420" transform="translate(53.43 20.191)">
            <g id="Group_1419" data-name="Group 1419">
              <path id="Path_3837" data-name="Path 3837" d="M650.518,480.778l36.708,6.581V481.83l-36.708-6.175Z" transform="translate(-650.518 -475.655)" fill="#fff" fill-rule="evenodd"/>
            </g>
          </g>
          <g id="Group_1422" data-name="Group 1422" transform="translate(0 22.382)">
            <g id="Group_1421" data-name="Group 1421">
              <path id="Path_3838" data-name="Path 3838" d="M582.548,482.973l16.138,3.333V481.6l-16.138-3.153Z" transform="translate(-582.548 -478.442)" fill="#fff" fill-rule="evenodd"/>
            </g>
          </g>
          <g id="Group_1424" data-name="Group 1424" transform="translate(0 33.585)">
            <g id="Group_1423" data-name="Group 1423">
              <path id="Path_3839" data-name="Path 3839" d="M582.548,497.226,637.9,510.172v-5.145l-55.351-12.334Z" transform="translate(-582.548 -492.693)" fill="#fff" fill-rule="evenodd"/>
            </g>
          </g>
          <g id="Group_1426" data-name="Group 1426" transform="translate(24.272 27.127)">
            <g id="Group_1425" data-name="Group 1425">
              <path id="Path_3840" data-name="Path 3840" d="M613.425,489.277l35.9,7.415v-5.2l-35.9-7.017Z" transform="translate(-613.425 -484.478)" fill="#fff" fill-rule="evenodd"/>
            </g>
          </g>
          <g id="Group_1428" data-name="Group 1428" transform="translate(68.078 35.69)">
            <g id="Group_1427" data-name="Group 1427">
              <path id="Path_3841" data-name="Path 3841" d="M669.153,500.656l22.059,4.555v-5.527l-22.059-4.312Z" transform="translate(-669.153 -495.371)" fill="#fff" fill-rule="evenodd"/>
            </g>
          </g>
          <g id="Group_1430" data-name="Group 1430" transform="translate(63.095 47.643)">
            <g id="Group_1429" data-name="Group 1429">
              <path id="Path_3842" data-name="Path 3842" d="M662.813,515.808l39.457,9.227v-5.665l-39.457-8.793Z" transform="translate(-662.813 -510.577)" fill="#fff" fill-rule="evenodd"/>
            </g>
          </g>
          <g id="Group_1432" data-name="Group 1432" transform="translate(31.539 16.51)">
            <g id="Group_1431" data-name="Group 1431">
              <path id="Path_3843" data-name="Path 3843" d="M622.67,475.853l13.533,2.426v-5.033l-13.533-2.275Z" transform="translate(-622.67 -470.971)" fill="#fff" fill-rule="evenodd"/>
            </g>
          </g>
        </g>
        <g id="Group_1437" data-name="Group 1437" transform="translate(223.426 72.788)">
          <g id="Group_1434" data-name="Group 1434" transform="translate(5.487 19.899)">
            <path id="Path_3844" data-name="Path 3844" d="M757.69,355.832l7.535-.034v-49.4l-7.535.727Z" transform="translate(-757.69 -306.395)" fill="#fdbf14"/>
          </g>
          <g id="Group_1436" data-name="Group 1436">
            <g id="Group_1435" data-name="Group 1435">
              <path id="Path_3845" data-name="Path 3845" d="M750.71,306.285l18.79-1.668-9.562-23.536Z" transform="translate(-750.71 -281.081)" fill="#fdbf14"/>
            </g>
          </g>
        </g>
        <g id="Group_1441" data-name="Group 1441" transform="translate(247.603 51.678)">
          <g id="Group_1438" data-name="Group 1438" transform="translate(6.123 20.871)">
            <path id="Path_3846" data-name="Path 3846" d="M789.256,351.945l8.422-.035V280.777l-8.422,1.094Z" transform="translate(-789.256 -280.777)" fill="#184866"/>
          </g>
          <g id="Group_1440" data-name="Group 1440">
            <g id="Group_1439" data-name="Group 1439">
              <path id="Path_3847" data-name="Path 3847" d="M781.467,281.263l21-2.563-10.7-24.474Z" transform="translate(-781.467 -254.227)" fill="#184866"/>
            </g>
          </g>
        </g>
        <g id="Group_1445" data-name="Group 1445" transform="translate(275.04 28.478)">
          <g id="Group_1442" data-name="Group 1442" transform="translate(6.833 21.889)">
            <path id="Path_3848" data-name="Path 3848" d="M825.063,345.774l9.409-.04V252.559l-9.409,1.5Z" transform="translate(-825.063 -252.559)" fill="#3dc7c9"/>
          </g>
          <g id="Group_1444" data-name="Group 1444">
            <g id="Group_1443" data-name="Group 1443">
              <path id="Path_3849" data-name="Path 3849" d="M816.37,253.71l23.464-3.565-11.963-25.431Z" transform="translate(-816.37 -224.713)" fill="#3dc7c9"/>
            </g>
          </g>
        </g>
        <g id="Group_1449" data-name="Group 1449" transform="translate(307.079)">
          <g id="Group_1446" data-name="Group 1446" transform="translate(7.868 23.267)">
            <path id="Path_3850" data-name="Path 3850" d="M867.137,339.936l10.856-.045V218.084l-10.856,2.1Z" transform="translate(-867.137 -218.084)" fill="#2c7eeb"/>
          </g>
          <g id="Group_1448" data-name="Group 1448">
            <g id="Group_1447" data-name="Group 1447">
              <path id="Path_3851" data-name="Path 3851" d="M857.128,220.216,884.2,215.19l-13.826-26.7Z" transform="translate(-857.128 -188.485)" fill="#2c7eeb"/>
            </g>
          </g>
        </g>
        <g id="Group_1450" data-name="Group 1450" transform="translate(205.61 169.941)">
          <path id="Path_3852" data-name="Path 3852" d="M731.786,411.448l28.539,1.563V405.87l-28.539-1.2Z" transform="translate(-728.846 -404.672)" fill="#fff" fill-rule="evenodd"/>
          <path id="Path_3853" data-name="Path 3853" d="M803.992,415.207l39.232,2.149v-8.009L803.992,407.7Z" transform="translate(-744.293 -405.32)" fill="#fff" fill-rule="evenodd"/>
          <path id="Path_3854" data-name="Path 3854" d="M731.786,426.5l18.566,1.435v-7.015l-18.566-1.195Z" transform="translate(-728.846 -407.892)" fill="#fff" fill-rule="evenodd"/>
          <path id="Path_3855" data-name="Path 3855" d="M731.786,441.595l60.125,6v-7.548l-60.125-5.224Z" transform="translate(-728.846 -411.121)" fill="#fff" fill-rule="evenodd"/>
          <path id="Path_3856" data-name="Path 3856" d="M764.953,428.973l39.081,3.02V424.38l-39.081-2.516Z" transform="translate(-735.941 -408.349)" fill="#fff" fill-rule="evenodd"/>
          <path id="Path_3857" data-name="Path 3857" d="M823.286,433.32l24.065,1.859V427.17l-24.065-1.551Z" transform="translate(-748.42 -409.153)" fill="#fff" fill-rule="evenodd"/>
          <path id="Path_3858" data-name="Path 3858" d="M864.925,436.423l33.156,2.561v-8.546L864.925,428.3Z" transform="translate(-757.327 -409.727)" fill="#fff" fill-rule="evenodd"/>
          <path id="Path_3859" data-name="Path 3859" d="M816.745,449.837l41.784,4.169v-8.172L816.745,442.2Z" transform="translate(-747.021 -412.7)" fill="#fff" fill-rule="evenodd"/>
          <path id="Path_3860" data-name="Path 3860" d="M774.761,413.684l15.566.853v-7.41l-15.566-.653Z" transform="translate(-738.039 -405.057)" fill="#fff" fill-rule="evenodd"/>
          <path id="Path_3861" data-name="Path 3861" d="M753.784,474.865l17.331,2.509v-7.222l-17.331-2.287Z" transform="translate(-733.552 -418.19)" fill="#fff" fill-rule="evenodd"/>
          <path id="Path_3862" data-name="Path 3862" d="M788.137,479.743l62.114,8.99v-8.146L788.137,472.4Z" transform="translate(-740.901 -419.159)" fill="#fff" fill-rule="evenodd"/>
          <path id="Path_3863" data-name="Path 3863" d="M728.047,486.181l32.007,5.351v-7.148l-32.007-4.94Z" transform="translate(-728.047 -420.667)" fill="#fff" fill-rule="evenodd"/>
          <path id="Path_3864" data-name="Path 3864" d="M731.786,501.89l36.294,6.885v-7.244l-36.294-6.419Z" transform="translate(-728.846 -424.018)" fill="#fff" fill-rule="evenodd"/>
          <path id="Path_3865" data-name="Path 3865" d="M731.786,516.974l24.63,5.226v-7.124l-24.63-4.908Z" transform="translate(-728.846 -427.239)" fill="#fff" fill-rule="evenodd"/>
          <path id="Path_3866" data-name="Path 3866" d="M788.137,512.424l31.645,6v-7.753l-31.645-5.6Z" transform="translate(-740.901 -426.15)" fill="#fff" fill-rule="evenodd"/>
          <path id="Path_3867" data-name="Path 3867" d="M770.591,525.1l53.914,11.442v-7.9L770.591,517.9Z" transform="translate(-737.148 -428.893)" fill="#fff" fill-rule="evenodd"/>
          <path id="Path_3868" data-name="Path 3868" d="M846.671,541.035l16.883,3.584v-8.191l-16.883-3.365Z" transform="translate(-753.422 -432.137)" fill="#fff" fill-rule="evenodd"/>
          <path id="Path_3869" data-name="Path 3869" d="M756.085,537.672l24.635,5.78v-7.338l-24.635-5.464Z" transform="translate(-734.044 -431.621)" fill="#fff" fill-rule="evenodd"/>
          <path id="Path_3870" data-name="Path 3870" d="M792.718,546.168l51.772,12.148V550.26l-51.772-11.484Z" transform="translate(-741.881 -433.359)" fill="#fff" fill-rule="evenodd"/>
          <path id="Path_3871" data-name="Path 3871" d="M867.074,563.411l18.891,4.432v-8.384l-18.891-4.19Z" transform="translate(-757.787 -436.887)" fill="#fff" fill-rule="evenodd"/>
        </g>
      </g>
    </g>
    <path id="Path_3872" data-name="Path 3872" d="M673.234,756.9c-97.081,0-175.779,6.855-175.779,15.314s78.7,15.312,175.779,15.312,175.777-6.855,175.777-15.312S770.314,756.9,673.234,756.9Z" transform="translate(-88.331 -128.823)" fill="#a53a61"/>
    <g id="Group_1476" data-name="Group 1476" transform="translate(260.264 252.903)">
      <g id="Group_1455" data-name="Group 1455" transform="translate(19.591)">
        <g id="Group_1453" data-name="Group 1453" transform="translate(3.829 6.029)">
          <rect id="Rectangle_296" data-name="Rectangle 296" width="12.098" height="7.242" fill="#b2bede"/>
        </g>
        <g id="Group_1454" data-name="Group 1454">
          <path id="Path_3874" data-name="Path 3874" d="M349.143,279.63H336.628a3.62,3.62,0,0,0-3.62,3.621h0a3.62,3.62,0,0,0,3.62,3.62h12.515a3.62,3.62,0,0,0,0-7.241Z" transform="translate(-333.008 -279.63)" fill="#4f93f0"/>
        </g>
      </g>
      <g id="Group_1458" data-name="Group 1458" transform="translate(46.691 11.354)">
        <g id="Group_1456" data-name="Group 1456" transform="translate(0 3.3)">
          <rect id="Rectangle_297" data-name="Rectangle 297" width="4.347" height="7.261" transform="translate(0 3.127) rotate(-46.01)" fill="#b2bede"/>
        </g>
        <g id="Group_1457" data-name="Group 1457" transform="translate(1.761)">
          <path id="Path_3875" data-name="Path 3875" d="M373.4,294.685a2.173,2.173,0,0,0-3.019,3.126l5.4,5.218a2.173,2.173,0,1,0,3.019-3.126Z" transform="translate(-369.722 -294.074)" fill="#4f93f0"/>
        </g>
      </g>
      <g id="Group_1461" data-name="Group 1461" transform="translate(0.218 11.354)">
        <g id="Group_1459" data-name="Group 1459" transform="translate(3.268 3.3)">
          <rect id="Rectangle_298" data-name="Rectangle 298" width="7.261" height="4.346" transform="translate(0 5.044) rotate(-43.996)" fill="#b2bede"/>
        </g>
        <g id="Group_1460" data-name="Group 1460">
          <path id="Path_3876" data-name="Path 3876" d="M317.5,294.739a2.169,2.169,0,0,0-3.072-.054l-5.405,5.218a2.173,2.173,0,0,0,3.02,3.126l5.4-5.218a2.172,2.172,0,0,0,.053-3.072Z" transform="translate(-308.364 -294.074)" fill="#4f93f0"/>
        </g>
      </g>
      <g id="Group_1462" data-name="Group 1462" transform="translate(0 11.349)">
        <path id="Path_3877" data-name="Path 3877" d="M337.554,294.068a29.468,29.468,0,1,0,29.469,29.47A29.467,29.467,0,0,0,337.554,294.068Z" transform="translate(-308.086 -294.068)" fill="#b2bede"/>
      </g>
      <g id="Group_1463" data-name="Group 1463" transform="translate(3.639 15.067)">
        <path id="Path_3878" data-name="Path 3878" d="M321.225,305.441a25.792,25.792,0,1,0,36.426,1.869A25.7,25.7,0,0,0,321.225,305.441Z" transform="translate(-312.715 -298.798)" fill="#e4eef3"/>
      </g>
      <g id="Group_1464" data-name="Group 1464" transform="translate(27.476 39.104)">
        <path id="Path_3879" data-name="Path 3879" d="M346.543,332.017a1.808,1.808,0,0,0,.139-.7V331.2a1.821,1.821,0,0,0-3.643,0v.123a1.821,1.821,0,0,0,1.821,1.822,1.762,1.762,0,0,0,.344-.034l8.553,14.176a.855.855,0,0,0,1.468-.877Z" transform="translate(-343.039 -329.375)" fill="#194866"/>
      </g>
      <g id="Group_1465" data-name="Group 1465" transform="translate(26.711 26.361)">
        <path id="Path_3880" data-name="Path 3880" d="M345.838,325.125c0-.013,0-.027,0-.042v-10.92a1,1,0,0,0-2,0v10.92a.325.325,0,0,0,.005.042,2.778,2.778,0,1,0,1.986,0Zm-.994,4.018a1.425,1.425,0,1,1,1.425-1.424A1.425,1.425,0,0,1,344.845,329.144Z" transform="translate(-342.066 -313.165)" fill="#4f93f0"/>
      </g>
      <g id="Group_1466" data-name="Group 1466" transform="translate(28.049 15.085)">
        <rect id="Rectangle_299" data-name="Rectangle 299" width="2.838" height="5.511" fill="#194866"/>
      </g>
      <g id="Group_1467" data-name="Group 1467" transform="translate(41.077 19.91)">
        <rect id="Rectangle_300" data-name="Rectangle 300" width="5.511" height="2.837" transform="matrix(0.628, -0.778, 0.778, 0.628, 0, 4.287)" fill="#194866"/>
      </g>
      <g id="Group_1468" data-name="Group 1468" transform="translate(48.512 32.333)">
        <rect id="Rectangle_301" data-name="Rectangle 301" width="5.511" height="2.838" transform="translate(0 1.524) rotate(-16.053)" fill="#194866"/>
      </g>
      <g id="Group_1469" data-name="Group 1469" transform="translate(48.14 46.037)">
        <rect id="Rectangle_302" data-name="Rectangle 302" width="2.838" height="5.511" transform="translate(0 2.684) rotate(-71.061)" fill="#194866"/>
      </g>
      <g id="Group_1470" data-name="Group 1470" transform="translate(40.231 56.33)">
        <rect id="Rectangle_303" data-name="Rectangle 303" width="2.837" height="5.51" transform="translate(0 1.67) rotate(-36.068)" fill="#194866"/>
      </g>
      <g id="Group_1471" data-name="Group 1471" transform="translate(28.43 61.01)">
        <rect id="Rectangle_304" data-name="Rectangle 304" width="2.837" height="5.511" transform="matrix(1, -0.018, 0.018, 1, 0, 0.052)" fill="#194866"/>
      </g>
      <g id="Group_1472" data-name="Group 1472" transform="translate(13.93 56.803)">
        <rect id="Rectangle_305" data-name="Rectangle 305" width="5.511" height="2.838" transform="matrix(0.558, -0.83, 0.83, 0.558, 0, 4.573)" fill="#194866"/>
      </g>
      <g id="Group_1473" data-name="Group 1473" transform="translate(4.949 46.762)">
        <rect id="Rectangle_306" data-name="Rectangle 306" width="5.511" height="2.837" transform="translate(0 1.981) rotate(-21.07)" fill="#194866"/>
      </g>
      <g id="Group_1474" data-name="Group 1474" transform="translate(4.155 33.243)">
        <rect id="Rectangle_307" data-name="Rectangle 307" width="2.839" height="5.51" transform="translate(0 2.755) rotate(-76.059)" fill="#194866"/>
      </g>
      <g id="Group_1475" data-name="Group 1475" transform="translate(11.499 20.484)">
        <rect id="Rectangle_308" data-name="Rectangle 308" width="2.838" height="5.51" transform="translate(0 1.864) rotate(-41.069)" fill="#194866"/>
      </g>
    </g>
    <g id="Group_1480" data-name="Group 1480" transform="translate(402.647 178.106)">
      <path id="Path_3881" data-name="Path 3881" d="M696.8,423.52c-15.455-15.456-24.21-41.64-23.7-60.881H548.535c.507,19.242-8.248,45.425-23.7,60.881a121.664,121.664,0,1,0,171.968,0Z" transform="translate(-489.216 -222.59)" fill="url(#linear-gradient)"/>
      <path id="Path_3882" data-name="Path 3882" d="M642.172,252.426H607.158a52.693,52.693,0,0,0-52.693,52.693v24.957a9.658,9.658,0,0,0,9.658,9.659H685.206a9.658,9.658,0,0,0,9.658-9.659V305.119A52.692,52.692,0,0,0,642.172,252.426Z" transform="translate(-503.174 -199.014)" fill="#e4eef3"/>
      <path id="Path_3883" data-name="Path 3883" d="M654.989,239.079,646.506,237c-3.714-.91-7.509-13.161-11.3-13.161s-7.6,12.251-11.309,13.161l-8.482,2.078a14.237,14.237,0,0,0-7.415,4.56l-4.256,4.969h62.917l-4.255-4.969A14.237,14.237,0,0,0,654.989,239.079Z" transform="translate(-513.715 -192.898)" fill="#194866"/>
      <path id="Rectangle_309" data-name="Rectangle 309" d="M3.508,0H8.245a3.508,3.508,0,0,1,3.508,3.508V29.162a3.511,3.511,0,0,1-3.511,3.511H3.511A3.511,3.511,0,0,1,0,29.162V3.508A3.508,3.508,0,0,1,3.508,0Z" transform="translate(115.609)" fill="#194866"/>
      <g id="Group_1478" data-name="Group 1478" transform="translate(73.976 250.396)">
        <g id="Group_1477" data-name="Group 1477" transform="translate(0.556 0.142)">
          <path id="Path_3884" data-name="Path 3884" d="M608.308,503.2c-13.408,0-24.278,10.468-24.278,23.384s10.87,23.385,24.278,23.385,24.28-10.471,24.28-23.385S621.718,503.2,608.308,503.2Z" transform="translate(-584.03 -503.196)" fill="#194866"/>
          <path id="Path_3885" data-name="Path 3885" d="M621.587,551.54l-12.027-4.256-12.026,4.256-7.6,50.662a4.745,4.745,0,0,0,4.691,5.448h29.87a4.745,4.745,0,0,0,4.691-5.448Z" transform="translate(-585.282 -512.627)" fill="#194866"/>
        </g>
        <path id="Path_3886" data-name="Path 3886" d="M611.885,503.284a25.992,25.992,0,0,0-3.728-.269c-13.715,0-24.834,10.708-24.834,23.92a23.721,23.721,0,0,0,11.733,20.32l-6.81,45.4a4.813,4.813,0,0,0,4.759,5.527h1.869l7.637-50.926a23.724,23.724,0,0,1-11.732-20.32C590.779,514.945,599.939,505.016,611.885,503.284Z" transform="translate(-583.323 -503.015)" fill="#d3daea"/>
        <path id="Path_3887" data-name="Path 3887" d="M589.571,604.692a4.813,4.813,0,0,0,4.759,5.527H596.2l7.637-50.926h-7.455Z" transform="translate(-584.648 -515.054)" fill="url(#linear-gradient-2)"/>
      </g>
      <path id="Path_3888" data-name="Path 3888" d="M702.544,423.622c-15.358-15.359-24.089-41.3-23.7-60.506h-59.38c-8.913,23.548,4.4,55.008,26.081,66.29,48.584,25.28,69.668,85.921,31.864,147.571A64.19,64.19,0,0,1,656.4,598.058c-54.665,33.664-110.652,17.676-140.334-20A121.6,121.6,0,1,0,702.544,423.622Z" transform="translate(-494.959 -222.692)" opacity="0.35" fill="url(#linear-gradient-3)"/>
      <g id="Group_1479" data-name="Group 1479" transform="translate(16.319 196.985)" opacity="0.1">
        <path id="Path_3889" data-name="Path 3889" d="M538.208,460.607q6.907,6.045,13.818,12.09a76.834,76.834,0,0,1,25.916-19.766q-3.127-8.932-6.251-17.862A99.248,99.248,0,0,0,538.208,460.607Z" transform="translate(-516.015 -435.069)" fill="url(#linear-gradient-4)"/>
        <path id="Path_3890" data-name="Path 3890" d="M559.285,480.927,573.1,493.019a49.938,49.938,0,0,1,16.839-12.845q-3.125-8.932-6.251-17.862A72.4,72.4,0,0,0,559.285,480.927Z" transform="translate(-520.523 -440.897)" fill="url(#linear-gradient-5)"/>
        <path id="Path_3891" data-name="Path 3891" d="M509.975,514.825l18.835,1.825a76.855,76.855,0,0,1,13.037-29.872l-15.028-10.546A99.269,99.269,0,0,0,509.975,514.825Z" transform="translate(-509.975 -443.874)" fill="url(#linear-gradient-6)"/>
        <path id="Path_3892" data-name="Path 3892" d="M538.7,520.452q9.416.914,18.837,1.824a49.945,49.945,0,0,1,8.47-19.411l-15.027-10.548A72.363,72.363,0,0,0,538.7,520.452Z" transform="translate(-516.12 -447.315)" fill="url(#linear-gradient-7)"/>
      </g>
    </g>
    <g id="Group_1493" data-name="Group 1493" transform="translate(561.487 328.002)">
      <g id="Group_1485" data-name="Group 1485" transform="translate(0 104.617)">
        <path id="Path_3893" data-name="Path 3893" d="M746.213,509.139a1.208,1.208,0,0,0-1.166-.887H692.492a1.208,1.208,0,0,0-1.166,1.531l11.564,41.739a5.967,5.967,0,0,0,5.752,4.375h48.937a1.208,1.208,0,0,0,1.166-1.531Z" transform="translate(-691.281 -508.252)" fill="#194866"/>
        <path id="Path_3894" data-name="Path 3894" d="M693.733,510.484l10.637,38.392h51.424l-10.639-38.392Z" transform="translate(-691.806 -508.73)" fill="#fff"/>
        <path id="Path_3895" data-name="Path 3895" d="M743.052,536.343a.559.559,0,0,0-.264.068L732.3,541.988l-7.918-8.255-.042-.051a1.021,1.021,0,0,0-.458-.356l-10.515-3.5-7.878-7.176,4.787-.3-10.826-4.174,4.269,10.2.506-4.783c3.236,2.953,8.351,7.6,8.586,7.675,0,0,9.814,3.274,10.37,3.445l8.433,8.789a.744.744,0,0,0,.543.219.71.71,0,0,0,.322-.079l10.445-5.553c.643.737,4.691,4.529,8.057,7.776l1.086-1.106-8.384-8.009A.774.774,0,0,0,743.052,536.343Z" transform="translate(-693.028 -510.373)" fill="#d3daea"/>
        <path id="Path_3896" data-name="Path 3896" d="M753.412,522.844l.956,3.453h6.11l-.956-3.453Z" transform="translate(-704.572 -511.373)" fill="#3ec7c8" opacity="0.55"/>
        <path id="Path_3897" data-name="Path 3897" d="M755.2,529.137l.958,3.453h6.11l-.957-3.453Z" transform="translate(-704.954 -512.72)" fill="#3ec7c8" opacity="0.55"/>
        <path id="Path_3898" data-name="Path 3898" d="M756.985,535.43l.957,3.453h6.11l-.957-3.453Z" transform="translate(-705.336 -514.066)" fill="#3ec7c8" opacity="0.55"/>
        <path id="Path_3899" data-name="Path 3899" d="M758.772,541.723l.956,3.453h6.111l-.957-3.453Z" transform="translate(-705.719 -515.412)" fill="#3ec7c8" opacity="0.55"/>
        <g id="Group_1481" data-name="Group 1481" transform="translate(57.624 34.706)">
          <path id="Path_3900" data-name="Path 3900" d="M817.469,552.417,766.513,558.4a2.18,2.18,0,1,0,.508,4.331l50.956-5.977a2.181,2.181,0,0,0-.508-4.333Z" transform="translate(-764.586 -552.402)" fill="#e6eff3"/>
        </g>
        <path id="Path_3901" data-name="Path 3901" d="M699.827,508.252l29.959,43.267H749.94l-29.959-43.267Z" transform="translate(-693.109 -508.252)" fill="#394339" opacity="0.55"/>
        <g id="Group_1484" data-name="Group 1484" transform="translate(13.331 40.263)">
          <g id="Group_1482" data-name="Group 1482">
            <path id="Path_3902" data-name="Path 3902" d="M757.119,559.487l-46.906,5.5a2.234,2.234,0,1,0,.522,4.437l46.906-5.5a2.235,2.235,0,1,0-.521-4.439Z" transform="translate(-708.239 -559.472)" fill="#adbddc"/>
          </g>
          <g id="Group_1483" data-name="Group 1483" transform="translate(12.688 4.717)">
            <rect id="Rectangle_310" data-name="Rectangle 310" width="4.24" height="1.273" transform="translate(0 0.999) rotate(-6.679)" fill="#194866"/>
            <rect id="Rectangle_311" data-name="Rectangle 311" width="3.075" height="1.272" transform="translate(5.475 0.358) rotate(-6.68)" fill="#194866"/>
          </g>
        </g>
        <path id="Path_3903" data-name="Path 3903" d="M754.867,512.3a2.25,2.25,0,0,0-2.23,2.376,2.446,2.446,0,0,0,2.4,2.376,2.25,2.25,0,0,0,2.229-2.376A2.447,2.447,0,0,0,754.867,512.3Z" transform="translate(-704.406 -509.118)" fill="#3ec7c8" opacity="0.55"/>
      </g>
      <path id="Path_3904" data-name="Path 3904" d="M747.41,645.7a3.173,3.173,0,0,1,0,2.988c1.76,1.779,6.345,1.718,6.412,1.568a17.239,17.239,0,0,0,.118-5.415C753.619,644.871,749.69,643.6,747.41,645.7Z" transform="translate(-703.288 -432.778)" fill="#fcd2c5"/>
      <path id="Path_3905" data-name="Path 3905" d="M745.214,649.065c-1.589,1.529-8.778,4.726-9.026,7.105-.126,1.2,2.288,2.544,4.341,2.84s3.87.369,5.041-.167c1.458-.668,4.373-3.848,4.947-4.5,1.418-1.607,1.721-3.909,1.11-4.9C749.9,646.652,746.04,648.272,745.214,649.065Z" transform="translate(-700.886 -433.503)" fill="#d2dbeb"/>
      <path id="Path_3906" data-name="Path 3906" d="M746.484,651.579c-2.068,1.443-8.737,3.786-8.945,5.788-.106,1.011,1.928,2.142,3.656,2.391a8.3,8.3,0,0,0,4.246-.14,18.819,18.819,0,0,0,4.164-3.786C751.944,652.594,748.491,650.179,746.484,651.579Z" transform="translate(-701.176 -434.208)" fill="#d2dbeb"/>
      <path id="Path_3907" data-name="Path 3907" d="M794.648,643.055s-5.307,2.073-5.627,2.046a36.952,36.952,0,0,0,1.921,6.374c.069.149,9.84-.646,7.894-2.218C796.788,647.608,794.648,643.055,794.648,643.055Z" transform="translate(-712.189 -432.472)" fill="#fcd2c5"/>
      <path id="Path_3908" data-name="Path 3908" d="M797.256,649c-1.285-.939-2.857-1.612-4.323-.99-3.577,1.52-1.489,5.571-.934,6.315.517.695,3.489,3.829,4.948,4.5,1.169.535,2.988.463,5.04.167s4.466-1.639,4.342-2.84C806.082,653.768,799.589,650.7,797.256,649Z" transform="translate(-712.589 -433.48)" fill="#d2dbeb"/>
      <path id="Path_3909" data-name="Path 3909" d="M796.7,651.577c-2.008-1.4-5.8.912-3.122,4.254.457.568,2.938,3.224,4.166,3.786a8.3,8.3,0,0,0,4.246.14c1.728-.249,3.761-1.38,3.654-2.391C805.435,655.363,798.768,653.02,796.7,651.577Z" transform="translate(-712.966 -434.206)" fill="#d2dbeb"/>
      <g id="Group_1492" data-name="Group 1492" transform="translate(14.181 0)">
        <path id="Path_3910" data-name="Path 3910" d="M831.833,523.395c-5.859,2.966-12.11,5.881-18.755,8.67q-4.02,1.686-7.935,3.192l-.031.01c-.06.019-.193.063-.358.123a12.769,12.769,0,0,0-1.3.549,14.407,14.407,0,0,0-5.1,4.266,27.478,27.478,0,0,0-.376,5.765c.077,1.823.307,2.769,1.01,3.415a4.716,4.716,0,0,0,1.718.895c.782.243,1.339.5,1.832.231a1.416,1.416,0,0,0,.585-.729c.307-.693.106-1.193.013-2.332-.1-1.222-.152-1.832.184-2.391.383-.64,1.23-1.176,1.693-.95.707.346-.072,2.176.98,3.069a1.535,1.535,0,0,0,1.134.366c.8-.158.9-1.409,1.946-4.34a9.477,9.477,0,0,1,1.1-2.492,6.351,6.351,0,0,1,2.849-2.059,124.266,124.266,0,0,1,16.415-5.639l5.319-1.814a4.315,4.315,0,0,0,2.552-1.925,4.671,4.671,0,0,0-2.368-6.241A4.159,4.159,0,0,0,831.833,523.395Z" transform="translate(-728.28 -406.762)" fill="#f89a5b"/>
        <path id="Path_3911" data-name="Path 3911" d="M836.207,515.938a12.294,12.294,0,0,0,3.822,1.762,12.589,12.589,0,0,0,6.808-.145l.66-7.21s.858-5.474,1.167-10.661c.116-1.953.006-1.936.137-3.126a23.7,23.7,0,0,0,.15-3.11c0-.027-.022-.259-.039-.573-.015-.28-.029-.544-.024-.843.006-.34.035-.59.045-.692.086-.827.088-2.221.09-3.577,0-.854,0-1.658-.018-2.209a15.508,15.508,0,0,0-1.211-5.843c-.546-1.225-1.959-4.4-5.036-5.339a6.149,6.149,0,0,0-1.838-.263,22.329,22.329,0,0,0-1.578,3.1c-.891,2.154-1.369,4.5-1.9,9.155-.475,4.191-.713,6.287-.777,7.263-.024.357-.053.793-.085,1.346-.395,6.9.348,11.487-.227,19.2C836.33,514.542,836.282,515.162,836.207,515.938Z" transform="translate(-736.464 -396.332)" fill="#f7531b"/>
        <path id="Path_3912" data-name="Path 3912" d="M759.553,650.309l-5.117,1.7-15.84-.736Q735.964,650,736.066,649q.229-2.24,14.344-3.061c1.443.024,2.982.1,4.6.251,1.224.113,2.393.257,3.5.424Z" transform="translate(-715.042 -433.089)" fill="#19114c"/>
        <path id="Path_3913" data-name="Path 3913" d="M715.27,570.964c9.979-2.324,19.911-4.85,29.88-7.221,2.771-.659,6.557-1.408,14.067-3.2,12.165-2.9,21.815-5.714,28.041-7.631a13.187,13.187,0,0,1,9.426,3.927c3.592,3.883,4.266,10.027,1.579,15.332a26.561,26.561,0,0,1-6.289,4.52,28.071,28.071,0,0,1-7.664,2.555c-10,1.806-23.189,1.769-23.189,1.769-7.241-.021-17.339-.034-27.687.766-6.93.536-12.567,1.328-16.233,1.91a7.338,7.338,0,0,1-4.783-1.8c-2.358-2.149-2.949-5.878-1.621-8.16C711.962,571.732,714.417,571.162,715.27,570.964Z" transform="translate(-709.488 -413.189)" fill="#00a494"/>
        <path id="Path_3914" data-name="Path 3914" d="M710.554,585.984c5.335,7.988,10.525,15.2,10.848,15.571,4.735,5.426,7.563,9.951,13.218,19,3.228,5.165,5.658,9.581,7.271,12.643a23.01,23.01,0,0,0,10.961-1.284,110.721,110.721,0,0,1-13.974-24c-1.673-4-3.446-7.958-5.044-11.988-3.445-8.694-4.518-12.555-8.582-16.18-1.618-1.444-4.251-3.726-7.935-3.691-3.063.029-6.991,1.626-7.8,4.573A6.817,6.817,0,0,0,710.554,585.984Z" transform="translate(-709.321 -418.139)" fill="#00a494"/>
        <path id="Path_3915" data-name="Path 3915" d="M814.1,657.22l-5.316.9-15.542-3.142q-2.409-1.66-2.157-2.627.569-2.179,14.644-.839c1.423.244,2.931.555,4.51.95,1.193.3,2.326.619,3.4.952Z" transform="translate(-726.808 -434.172)" fill="#19114c"/>
        <path id="Path_3916" data-name="Path 3916" d="M734.785,570.964c9.979-2.324,19.912-4.85,29.88-7.221,2.772-.659,6.557-1.408,14.067-3.2,12.165-2.9,21.815-5.714,28.041-7.631a13.19,13.19,0,0,1,9.427,3.927c3.591,3.883,4.266,10.027,1.578,15.332a26.544,26.544,0,0,1-6.289,4.52,28.07,28.07,0,0,1-7.664,2.555c-10,1.806-23.189,1.769-23.189,1.769-7.241-.021-17.339-.034-27.687.766-6.93.536-12.567,1.328-16.232,1.91a7.34,7.34,0,0,1-4.783-1.8c-2.358-2.149-2.948-5.878-1.621-8.16C731.477,571.732,733.933,571.162,734.785,570.964Z" transform="translate(-713.663 -413.189)" fill="#00a494"/>
        <path id="Path_3917" data-name="Path 3917" d="M793.163,581.489c1.855,9.424,3.875,18.078,4.03,18.544,2.286,6.83,3.158,12.094,4.9,22.621,1,6.009,1.542,11.019,1.854,14.466q2.785,0,5.646-.043,2.257-.037,4.466-.1a111.908,111.908,0,0,1-3.175-24.356c-.131-8.031-.049-13.006-.049-13.006.161-9.35.654-13.327-1.7-18.236-.939-1.955-2.493-5.073-5.907-6.457-2.839-1.15-7.079-1.186-8.957,1.225A6.82,6.82,0,0,0,793.163,581.489Z" transform="translate(-727.227 -417.734)" fill="#00a494"/>
        <path id="Path_3918" data-name="Path 3918" d="M836.451,477.256A9.95,9.95,0,0,0,836,474.6a11.46,11.46,0,0,0-2.777-4.39c-1.818-1.705-5.6-2.236-13.081-3.225l-4.749-.627q-.533-3.625-1.016-7.377-.468-3.649-.857-7.194a37.353,37.353,0,0,1-10.014-.011q-.383,4.778-.956,9.773-.268,2.324-.568,4.593c-2.061.309-3.817.576-5.166.783-7.409,1.133-9.339,1.472-10.931,3.166a10.575,10.575,0,0,0-1.9,3.07,11.228,11.228,0,0,0-.847,4.092,11.019,11.019,0,0,1,4.112,1.938c6.124,4.693,4.591,14.389,4.481,15.03a65.3,65.3,0,0,1,1.044,30.275,43.577,43.577,0,0,0,32.021,1.068,77.615,77.615,0,0,1,2.952-31.792c-1.36-6.109.172-11.9,4.085-14.732A10.071,10.071,0,0,1,836.451,477.256Z" transform="translate(-725.113 -391.555)" fill="#f89a5b"/>
        <path id="Path_3919" data-name="Path 3919" d="M836.451,481.056A9.95,9.95,0,0,0,836,478.4a11.456,11.456,0,0,0-2.778-4.39c-1.817-1.705-5.6-2.235-13.08-3.225l-4.749-.627a44.771,44.771,0,0,0-13.41-.215c-2.061.309-3.817.576-5.166.783-7.409,1.133-9.339,1.472-10.93,3.166a10.565,10.565,0,0,0-1.9,3.07,11.211,11.211,0,0,0-.847,4.092c.118,2.531.354,6.308.875,10.888.6,5.229.9,5.686,1.376,10.121a132.406,132.406,0,0,1,.688,14.837c0,3.573-.143,6.05-.393,11.005-.248,4.9-.531,8.985-.753,11.89a91.9,91.9,0,0,0,34.456.393c2.53-.463,4.942-1.02,7.235-1.642-.333-7.12-.415-14.789-.119-22.936.23-6.338.667-12.36,1.245-18.035-1.36-6.109.172-11.9,4.085-14.732A10.071,10.071,0,0,1,836.451,481.056Z" transform="translate(-725.113 -395.354)" fill="#f7531b"/>
        <path id="Path_3920" data-name="Path 3920" d="M759.522,521.689c-5.288,3.893-10.972,7.8-17.065,11.648q-3.686,2.326-7.3,4.459l-.029.015c-.056.029-.179.094-.333.18a12.832,12.832,0,0,0-1.2.756,14.4,14.4,0,0,0-4.33,5.051,27.417,27.417,0,0,0,.58,5.749c.377,1.785.76,2.68,1.56,3.2a4.694,4.694,0,0,0,1.842.6c.812.111,1.4.273,1.846-.074a1.417,1.417,0,0,0,.456-.817c.189-.733-.092-1.194-.373-2.3-.3-1.188-.451-1.781-.213-2.389.272-.694,1.02-1.362,1.513-1.216.755.225.289,2.159,1.473,2.865a1.534,1.534,0,0,0,1.18.174c.762-.288.658-1.54,1.2-4.6a9.456,9.456,0,0,1,.671-2.639,6.342,6.342,0,0,1,2.471-2.5,124.312,124.312,0,0,1,15.258-8.272l4.946-2.667a4.319,4.319,0,0,0,2.2-2.32,4.672,4.672,0,0,0-3.367-5.764A4.164,4.164,0,0,0,759.522,521.689Z" transform="translate(-713.589 -406.316)" fill="#f89a5b"/>
        <path id="Path_3921" data-name="Path 3921" d="M763.8,513.062a12.265,12.265,0,0,0,3.063,2.885,12.593,12.593,0,0,0,6.5,2.028l2.918-6.626s2.555-4.918,4.5-9.736c.731-1.815.622-1.833,1.124-2.921a23.665,23.665,0,0,0,1.13-2.9c.007-.027.062-.252.146-.556.075-.27.145-.525.245-.807.114-.321.22-.548.263-.641.344-.756.789-2.078,1.222-3.362.273-.81.529-1.572.685-2.1a15.5,15.5,0,0,0,.71-5.925c-.127-1.336-.458-4.8-3.076-6.664a6.179,6.179,0,0,0-1.659-.833,22.309,22.309,0,0,0-2.482,2.438c-1.53,1.758-2.729,3.831-4.709,8.075-1.784,3.823-2.675,5.734-3.047,6.64-.136.33-.3.735-.509,1.249-2.57,6.421-3.323,11-6.322,18.135C764.357,511.777,764.114,512.349,763.8,513.062Z" transform="translate(-720.974 -396.502)" fill="#f7531b"/>
        <path id="Path_3922" data-name="Path 3922" d="M827.3,418.678c-.228-6.4-.342-9.6-.5-10.308-1.685-7.5-10.241-15.308-19.559-15.769-13.7-.678-22.256,14.893-24.429,24.2-.823,3.527-.186,7.322.718,14.833.651,5.414,1.466,8.543,3.987,10.287a8.237,8.237,0,0,0,3.828,1.277c8.359,1.2,12.538,1.8,16.039,1.635,8.52-.41,12.785-.61,15.563-3.379s3.356-6.545,4.115-11.614C827.5,426.967,827.5,424.163,827.3,418.678Z" transform="translate(-724.961 -378.891)" fill="#f89a5b"/>
        <path id="Path_3923" data-name="Path 3923" d="M805.991,441.486a9.234,9.234,0,0,0,6.19,2.815,9.334,9.334,0,0,0,6.915-2.838Z" transform="translate(-730.001 -389.348)" fill="#dc7044"/>
        <path id="Path_3924" data-name="Path 3924" d="M843.908,420.038a6.311,6.311,0,0,0-.92-3.028c-.416-.649-1.074-1.674-1.839-1.657-1.355.031-2.728,3.33-2.718,6.291.01,2.92,1.365,5.86,2.383,5.852a1.609,1.609,0,0,0,.738-.307,2.605,2.605,0,0,0,.945-1.325C843.536,423.07,844.055,421.673,843.908,420.038Z" transform="translate(-736.94 -383.763)" fill="#f89a5b"/>
        <path id="Path_3925" data-name="Path 3925" d="M783.161,420.925a6.309,6.309,0,0,1,.92-3.028c.416-.649,1.074-1.675,1.839-1.657,1.355.031,2.729,3.33,2.718,6.291-.009,2.919-1.365,5.859-2.382,5.851a1.617,1.617,0,0,1-.739-.306,2.6,2.6,0,0,1-.944-1.325C783.534,423.957,783.014,422.559,783.161,420.925Z" transform="translate(-725.112 -383.952)" fill="#f89a5b"/>
        <path id="Path_3926" data-name="Path 3926" d="M813.354,434.566c-.569.01-1.1-.009-1.583-.046a2.845,2.845,0,0,0,1.886.531,2.816,2.816,0,0,0,1.515-.617A16.854,16.854,0,0,1,813.354,434.566Z" transform="translate(-731.237 -387.844)" fill="#dc7044"/>
        <g id="Group_1488" data-name="Group 1488" transform="translate(70.06 35.872)">
          <path id="Path_3927" data-name="Path 3927" d="M798.447,422.278c.012.742,1.455,1.505,2.671,1.615,1.516.138,3.281-.684,3.26-1.487-.024-.943-2.518-2.133-4.536-1.354C799.644,421.128,798.436,421.595,798.447,422.278Z" transform="translate(-798.447 -420.799)" fill="#fff"/>
          <g id="Group_1487" data-name="Group 1487">
            <g id="Group_1486" data-name="Group 1486" clip-path="url(#clip-path-4)">
              <circle id="Ellipse_187" data-name="Ellipse 187" cx="1.412" cy="1.412" r="1.412" transform="translate(1.554 -0.212)" fill="#112129"/>
            </g>
          </g>
        </g>
        <g id="Group_1491" data-name="Group 1491" transform="translate(88.409 35.868)">
          <path id="Path_3929" data-name="Path 3929" d="M821.794,422.627c.1.735,1.622,1.323,2.843,1.29,1.522-.042,3.178-1.066,3.063-1.861-.136-.934-2.752-1.823-4.665-.811C822.847,421.344,821.7,421.95,821.794,422.627Z" transform="translate(-821.788 -420.795)" fill="#fff"/>
          <g id="Group_1490" data-name="Group 1490" transform="translate(0.001)">
            <g id="Group_1489" data-name="Group 1489" clip-path="url(#clip-path-5)">
              <circle id="Ellipse_188" data-name="Ellipse 188" cx="1.412" cy="1.412" r="1.412" transform="translate(1.5 -0.206)" fill="#112129"/>
            </g>
          </g>
        </g>
        <path id="Path_3931" data-name="Path 3931" d="M845.3,405.275c1.687-2.983-.377-7.285-2.9-8.271a2.234,2.234,0,0,0-.566-.682,2.572,2.572,0,0,0-.777-1.979,4.643,4.643,0,0,0-2.639-4.974,5.854,5.854,0,0,0-2.676-1.2c0-.149-.016-.294-.031-.438.017-.766-.467-2-1.5-2.028-.035-.009-.078-.012-.115-.02,1.464-1.891-.292-3.273-1.99-3.849a2.569,2.569,0,0,0-1.207-1.717,1.8,1.8,0,0,0-1.808-.664,4.278,4.278,0,0,0-1.9.153,4.5,4.5,0,0,0-3.767-.983c-.483-1.28-3.187-1.871-4.154-1.083a3.373,3.373,0,0,0-5.215-1.377c-.484-.886-2.223-1.673-2.7-.1-3.379-1.967-5.6-.294-6.374,1.478-.965-.788-4.056-.985-4.539.295-.483-.983-3.574-.1-3.382,1.771a3.9,3.9,0,0,0-.57-.134,1.461,1.461,0,0,0-.665-.057c-1.968-.019-3.93,1.257-3.691,3.016a3.692,3.692,0,0,0-.679.551c-1.163.346-2.53,1.358-1.83,2.626-2.53-.383-3.059,2.381-2.912,4.074-.042.04-.081.083-.123.125-3.127-.838-5.735,2.725-4.4,5.247-1.139.083-1.863,2.534-1.429,4.013a7.32,7.32,0,0,0-.68,1.321c-1.166,1.187-1.084,3.629-.652,5.483a2.345,2.345,0,0,0-.42,2.648,2.5,2.5,0,0,0,.572,4.15c-1.4,2.483-.206,5.88,1.686,7.52.1,1.293.709,2.634,1.545,2.7-1.168,2.21.693,5.222,3.276,5.368a5.957,5.957,0,0,0,1.236.891c.09,1.617.807,3.507,2.927,3.187a1.307,1.307,0,0,0,0,1.351c.036,1.158,1.291,2,2.525,2.424a2.567,2.567,0,0,0,1.209,1.717,1.8,1.8,0,0,0,1.807.664,4.3,4.3,0,0,0,1.9-.153c-.193,1.869,2.9,2.754,3.382,1.77.483,1.28,3.573,1.083,4.538.295.773,1.772,3,3.445,6.375,1.478.482,1.573,2.221.786,2.7-.1A3.373,3.373,0,0,0,819.9,440.4c.966.788,3.671.2,4.154-1.082a4.5,4.5,0,0,0,3.766-.983,3.975,3.975,0,0,0,.572.134,1.454,1.454,0,0,0,.663.057c1.968.019,3.929-1.257,3.69-3.016a3.646,3.646,0,0,0,.751-.622,1.74,1.74,0,0,0,.794-2.556c1.738-.085,2.126-1.468,2.081-2.914a6.192,6.192,0,0,0,1.086-.593c3.906.094,5.026-4.383,3.787-6.727a2.3,2.3,0,0,0,2.1-2.243,7.174,7.174,0,0,0,1.795-3.411,5.68,5.68,0,0,0,.39-4.446,2.349,2.349,0,0,0,.347-2.578A2.5,2.5,0,0,0,845.3,405.275Z" transform="translate(-724.044 -375.166)" fill="#3b2315"/>
        <path id="Path_3932" data-name="Path 3932" d="M876.421,538.248" transform="translate(-745.067 -410.052)" fill="#f7531b"/>
      </g>
    </g>
    <g id="Group_1494" data-name="Group 1494" transform="translate(171.899 400.89)">
      <path id="Path_3933" data-name="Path 3933" d="M542.78,597.456h8.612v-10.5h5.7v10.5h11.395V566.363h7.488v26.616h9.115v-8.3h3.419v12.778h5.046V548.171H542.765Z" transform="translate(-269.923 -485.062)" fill="#dee5e8"/>
      <path id="Path_3934" data-name="Path 3934" d="M238.889,467.889c-28.993.088-35.849,23.664-35.761,52.657s7.087,52.427,36.081,52.337,69-23.664,68.914-52.657S267.883,467.8,238.889,467.889Zm-6.125,78.26h-.08c-5.946,0-6.947-1.765-7.827-3.323-1.644-2.9-3.611-9.135-3.651-22.361-.041-13.269,1.9-19.54,3.533-22.465.88-1.573,1.878-3.357,7.866-3.375,17.263,0,17.546,14.642,17.58,25.681C250.221,531.364,249.979,546.1,232.764,546.149Z" transform="translate(-197.269 -467.889)" fill="#dee5e8"/>
      <path id="Path_3935" data-name="Path 3935" d="M553.811,520.952c-.022,0-.043,0-.065,0v0H323.705l.066,21.571h230.04c4.761,0,8.619-4.829,8.619-10.785S558.572,520.952,553.811,520.952Z" transform="translate(-223.063 -479.24)" fill="url(#linear-gradient-8)"/>
      <path id="Path_3936" data-name="Path 3936" d="M538.632,597.456h8.612v-10.5h5.7v10.5h11.393V566.363h7.489v26.616h9.115v-8.3h3.419v12.778H589.4V548.171H538.617Z" transform="translate(-269.036 -485.062)" fill="url(#linear-gradient-9)"/>
      <path id="Path_3937" data-name="Path 3937" d="M231.438,467.889c-28.993.088-35.849,23.664-35.762,52.657s7.088,52.427,36.082,52.337,69-23.664,68.914-52.657S260.431,467.8,231.438,467.889Zm-6.125,78.26h-.081c-5.945,0-6.944-1.765-7.826-3.323-1.644-2.9-3.611-9.135-3.651-22.361-.041-13.269,1.9-19.54,3.533-22.465.88-1.573,1.878-3.357,7.866-3.375,17.262,0,17.546,14.642,17.58,25.681C242.769,531.364,242.528,546.1,225.313,546.149Z" transform="translate(-195.675 -467.889)" fill="#fff"/>
    </g>
    <g id="Group_1497" data-name="Group 1497" transform="translate(582.096 496.234)">
      <g id="Group_1495" data-name="Group 1495" transform="translate(77.979 13.976)">
        <path id="Path_3938" data-name="Path 3938" d="M879.455,606.957,906.17,740.935H910L883.283,606.957Z" transform="translate(-830.122 -606.957)" fill="#bdd0e1"/>
        <path id="Path_3939" data-name="Path 3939" d="M816.7,606.957l26.715,133.978h3.828L820.526,606.957Z" transform="translate(-816.698 -606.957)" fill="#bdd0e1"/>
        <rect id="Rectangle_312" data-name="Rectangle 312" width="47.172" height="3.14" transform="translate(25.916 112.698)" fill="#bdd0e1"/>
        <rect id="Rectangle_313" data-name="Rectangle 313" width="47.17" height="3.14" transform="translate(19.983 82.652)" fill="#bdd0e1"/>
        <rect id="Rectangle_314" data-name="Rectangle 314" width="47.17" height="3.14" transform="translate(14.05 52.605)" fill="#bdd0e1"/>
        <rect id="Rectangle_315" data-name="Rectangle 315" width="47.17" height="3.14" transform="translate(8.117 22.559)" fill="#bdd0e1"/>
      </g>
      <rect id="Rectangle_316" data-name="Rectangle 316" width="42.139" height="13.821" transform="translate(99.85 0)" fill="#bdd0e1"/>
      <rect id="Rectangle_317" data-name="Rectangle 317" width="79.958" height="13.821" transform="translate(19.892 0)" fill="#fff"/>
      <g id="Group_1496" data-name="Group 1496" transform="translate(0 13.976)">
        <path id="Path_3940" data-name="Path 3940" d="M717.5,740.935h3.828l26.715-133.978h-3.828Z" transform="translate(-717.498 -606.957)" fill="#fff"/>
        <path id="Path_3941" data-name="Path 3941" d="M780.256,740.935h3.828L810.8,606.957H806.97Z" transform="translate(-730.923 -606.957)" fill="#fff"/>
        <rect id="Rectangle_318" data-name="Rectangle 318" width="47.172" height="3.14" transform="translate(6.788 112.698)" fill="#fff"/>
        <rect id="Rectangle_319" data-name="Rectangle 319" width="47.172" height="3.14" transform="translate(12.721 82.652)" fill="#fff"/>
        <rect id="Rectangle_320" data-name="Rectangle 320" width="47.172" height="3.14" transform="translate(18.653 52.605)" fill="#fff"/>
        <rect id="Rectangle_321" data-name="Rectangle 321" width="47.17" height="3.14" transform="translate(24.588 22.559)" fill="#fff"/>
      </g>
    </g>
    <g id="Group_1503" data-name="Group 1503" transform="translate(362.345 465.808)">
      <g id="Group_1499" data-name="Group 1499" transform="translate(13.417)">
        <g id="Group_1498" data-name="Group 1498">
          <path id="Path_3942" data-name="Path 3942" d="M480.544,553.149c-2.7-2.6-7.059-3.643-10.144-1.594-5.943,3.948-1.869,9.721-.754,12.9,4.728,13.461-10.633,12.617-14.4,22.963-2,5.488,9.53,20.7,9.1,21.981-.655,1.981-2.374,3.011-4.289,3.658a7.754,7.754,0,0,0-4.8,7.01c0,9.867,9.027,15.081,15.224,16.609,5.609,1.385,17.764.663,22.351-4.533s5.382-11.7,3.835-18.522c-.751-3.3-4.1-8.935-3.638-12.593.779-6.2,5.243-11.452,6.419-15.436s.715-9.2-2.645-12.187C488.376,565.91,482.792,555.313,480.544,553.149Z" transform="translate(-455.015 -550.473)" fill="#3dc7c9"/>
        </g>
        <path id="Path_3943" data-name="Path 3943" d="M483.308,603.428c-.079-4.485-.177-8.972-.382-13.455-.205,4.484-.3,8.97-.382,13.455s-.074,8.972-.116,13.456c0,0-1.583,26.913.5,26.913s.5-26.913.5-26.913C483.382,612.4,483.39,607.915,483.308,603.428Z" transform="translate(-460.756 -558.923)" fill="#194866"/>
        <path id="Path_3944" data-name="Path 3944" d="M491,610.186c-1,1.183-1.962,2.4-2.909,3.626a77.321,77.321,0,0,0-5.249,7.688,76.8,76.8,0,0,0,6.041-7.082c.934-1.237,1.858-2.481,2.734-3.759a42.723,42.723,0,0,1,2.714-3.758A17.263,17.263,0,0,0,491,610.186Z" transform="translate(-460.967 -562.544)" fill="#194866"/>
        <path id="Path_3945" data-name="Path 3945" d="M479.328,643.019a32.259,32.259,0,0,0-2.115-2.62,26.983,26.983,0,0,0-5.047-4.451c1.353,1.816,2.835,3.456,4.307,5.119.748.818,1.488,1.642,2.257,2.446l1.154,1.2a2.87,2.87,0,0,1,.853,1.363,2.643,2.643,0,0,0-.462-1.656C479.971,643.932,479.66,643.475,479.328,643.019Z" transform="translate(-458.684 -568.758)" fill="#194866"/>
        <path id="Path_3946" data-name="Path 3946" d="M473.068,594.465c1.115,2.218,2.229,4.38,3.449,6.519a33.632,33.632,0,0,0,4.231,6.072c-1.036-2.258-2.148-4.427-3.367-6.569A29.6,29.6,0,0,0,473.068,594.465Z" transform="translate(-458.877 -559.884)" fill="#194866"/>
      </g>
      <g id="Group_1501" data-name="Group 1501" transform="translate(2.111 36.903)">
        <g id="Group_1500" data-name="Group 1500">
          <path id="Path_3947" data-name="Path 3947" d="M462.44,629.559a3.492,3.492,0,0,1-.382-2.362c.239-1.472.794-1.967,1.314-3.328a4.75,4.75,0,0,0,.05-4.265c-1.6-3.107-6.372-3.716-7.667-7.229-.611-1.657.237-2.9.937-4.553s1.751-3.774,1.422-5.822-1.262-4.143-3.719-4.528-4.713,1.388-6.429,3.28a22.8,22.8,0,0,0-3.357,3.991c-2.645,4.591-5.083,8.315-3.446,13.986,1.323,4.577,7.274,6.024,5.07,17.016-2.009,10.014,9.86,12.351,13.725,12.351,3.434,0,7.52-.624,9.007-4.235s.255-7.272-2.361-10.1C465.337,632.384,463.3,631.2,462.44,629.559Z" transform="translate(-440.633 -597.419)" fill="#194866"/>
        </g>
        <path id="Path_3948" data-name="Path 3948" d="M461.235,636.591c-1.071-2.494-2.142-4.984-3.284-7.446s-2.28-4.925-3.529-7.343c.869,2.578,1.839,5.114,2.825,7.641s2.021,5.034,3.069,7.536c1.071,2.492,2.141,4.984,3.283,7.446s2.28,4.925,3.53,7.341c-.868-2.578-1.839-5.112-2.824-7.641S462.284,639.091,461.235,636.591Z" transform="translate(-443.583 -602.635)" fill="#0e2529"/>
        <path id="Path_3949" data-name="Path 3949" d="M462.447,627.029a12.244,12.244,0,0,0-.81,2.8,37.7,37.7,0,0,0-.391,5.7A23.582,23.582,0,0,0,462.619,630c.153-.919.333-1.825.564-2.713a10.7,10.7,0,0,1,1.011-2.6A5.658,5.658,0,0,0,462.447,627.029Z" transform="translate(-445.042 -603.253)" fill="#0e2529"/>
        <path id="Path_3950" data-name="Path 3950" d="M463.447,650.307a6.333,6.333,0,0,0-2.2-.322c-.715-.01-1.39.071-2.12.017a5.391,5.391,0,0,0,2.041.755,12.984,12.984,0,0,1,1.943.487,8.4,8.4,0,0,1,3.179,2.372,4.91,4.91,0,0,0-.965-1.986A4.38,4.38,0,0,0,463.447,650.307Z" transform="translate(-444.588 -608.663)" fill="#0e2529"/>
        <path id="Path_3951" data-name="Path 3951" d="M452.709,625.136a17.791,17.791,0,0,0-4.338-1.881,22.389,22.389,0,0,0,3.815,2.731q.981.593,1.928,1.22a10.211,10.211,0,0,1,1.785,1.444,4.525,4.525,0,0,0-1.289-2.045A10.9,10.9,0,0,0,452.709,625.136Z" transform="translate(-442.288 -602.945)" fill="#0e2529"/>
      </g>
      <g id="Group_1502" data-name="Group 1502" transform="translate(2.111 36.944)">
        <path id="Path_3952" data-name="Path 3952" d="M453.244,597.471c-2.005.208-3.835,1.7-5.279,3.291a22.8,22.8,0,0,0-3.357,3.991c-2.645,4.591-5.083,8.315-3.446,13.986,1.3,4.485,7.021,5.99,5.171,16.4,1.757-2.149,1.812-4.739,5.6-8.412,6.491-6.288-3.07-12.725-3.081-18.659C448.849,603.2,449.758,599.064,453.244,597.471Z" transform="translate(-440.633 -597.471)" fill="#2c7eeb"/>
      </g>
      <path id="Rectangle_322" data-name="Rectangle 322" d="M4.2,0H55.811a4.2,4.2,0,0,1,4.2,4.2V7.063a4.2,4.2,0,0,1-4.2,4.2H4.2A4.2,4.2,0,0,1,0,7.065V4.2A4.2,4.2,0,0,1,4.2,0Z" transform="translate(0 79.131)" fill="#fff"/>
      <path id="Path_3953" data-name="Path 3953" d="M448.653,690.263a3.817,3.817,0,0,0,3.732,3.015h33.427a3.817,3.817,0,0,0,3.733-3.015l5.343-24.795H443.311Z" transform="translate(-439.094 -575.072)" fill="#becae0"/>
    </g>
    <g id="Group_1504" data-name="Group 1504" transform="translate(153.987 404.196)">
      <path id="Path_3954" data-name="Path 3954" d="M185.315,508.343c-3.635-7.152-4.937-11.581-5.4-14.392,0,0-1-6.039-2.318-11.143a15.6,15.6,0,0,1-.434-3.907,6.226,6.226,0,0,1,.488-2.8c.052-.112,1.2-2.532,2.982-2.715,2.058-.211,3.806,2.686,5.178,4.96a27.5,27.5,0,0,1,2.806,6.756c.377,1.259.657,2.266.9,3.252.522,2.1.84,3.759.982,4.533.038.208.064.36.07.394.248,1.4,1.159,4.915,3.585,13.01a4.717,4.717,0,0,1-2.8,5.081A4.777,4.777,0,0,1,185.315,508.343Z" transform="translate(-173.802 -472.369)" fill="#fdb585"/>
      <path id="Path_3955" data-name="Path 3955" d="M195.64,511.989a18.6,18.6,0,0,0,.921,1.847,5.291,5.291,0,0,0,1.368,2.077q6.979,6.021,14.094,12.75,2.675,2.537,5.244,5.064l.02.016c.043.035.146.116.272.223a11.881,11.881,0,0,1,.941.887,13.187,13.187,0,0,1,3.012,5.294,25.188,25.188,0,0,1-1.523,5.066c-.65,1.539-1.15,2.276-1.961,2.605a4.305,4.305,0,0,1-1.76.217c-.749-.042-1.309,0-1.646-.388a1.3,1.3,0,0,1-.268-.814c-.041-.693.291-1.057.737-2,.478-1.015.716-1.523.608-2.11-.123-.671-.678-1.4-1.148-1.357-.717.07-.635,1.889-1.823,2.318a1.4,1.4,0,0,1-1.09-.049c-.869-.535-.009-2.232-.279-4.346-.413-3.225-3.226-5.637-5.1-7.245-.487-.417-.862-.7-.992-.795-2.666-1.993-8.076-6.114-16.509-12.574a5.09,5.09,0,0,1-1-5.187C188.823,511.246,192.441,510.1,195.64,511.989Z" transform="translate(-175.993 -480.424)" fill="#fdb585"/>
      <path id="Path_3956" data-name="Path 3956" d="M179.689,502.337c1.32-.252,2.406-.378,3.17-.448a17.06,17.06,0,0,0,2.04-.2,14.832,14.832,0,0,0,3.708-1.467,13.243,13.243,0,0,1,4.452-1.091,11.579,11.579,0,0,1-.976-1.924,14.206,14.206,0,0,1-.8-3.3c-.189-1.165-.458-2.259-1-4.448a44.478,44.478,0,0,0-2.155-6.479c-.377-.923-.666-1.531-2.519-5.245-1.134-2.273-2.1-4.194-2.825-5.635a10.1,10.1,0,0,0-5.719,1.821,10.394,10.394,0,0,0-3.928,6.03c-.557,2.208-.366,4.337,2.273,11.674C176.414,494.394,177.817,498.064,179.689,502.337Z" transform="translate(-172.888 -472.094)" fill="#512945"/>
    </g>
    <g id="Group_1505" data-name="Group 1505" transform="translate(273.976 402.648)">
      <path id="Path_3957" data-name="Path 3957" d="M373.2,527.148c-.312-.281-.92-.079-1.426.09-1.227.409-1.425.944-2.72,1.735a13.291,13.291,0,0,1-2.986,1.163,2.537,2.537,0,0,1-1.688.079c-.192-.071-.627-.231-.734-.583-.168-.56.594-1.275,1.133-1.643.857-.586,1.69-.453,1.79-.862.082-.337-.4-.785-.832-1.014-.6-.317-1.334-.343-3,.172-2.082.642-2.442,1.146-3.842,1.474a8.083,8.083,0,0,1-2.949.122,29.713,29.713,0,0,1-4.484-1.546c-1.786-.781-13.571-6.139-14.518-15.482a13.854,13.854,0,0,1,0-2.555c.22-3.007,1.233-6.223,4.225-10.612,5.41-7.935,14.575-15.725,16.066-16.981a13.94,13.94,0,0,1-.687-5,12.725,12.725,0,0,0-8.269-2.651c-5.408.285-9.026,4.209-11.434,6.947-6.4,7.278-15.51,23.93-8.537,36.514,4.324,7.8,13.888,12.338,18.8,14.668.928.439,7.981,3.735,8.042,3.608v0a17.751,17.751,0,0,0,2.667.711,19.26,19.26,0,0,0,8.234-.4,9.711,9.711,0,0,0,4.431-1.927,8.631,8.631,0,0,0,2.29-3.392C373.1,529.011,373.7,527.6,373.2,527.148Z" transform="translate(-325.586 -470.748)" fill="#fdb585"/>
      <path id="Path_3958" data-name="Path 3958" d="M360.206,476.763c-.794,1.268-2.094,3.256-3.868,5.562-7.155,9.3-12.057,10.839-15.889,18.331-1.9,3.722-3.06,6.058-2.72,9.194,1.183,10.9,18.8,16.349,18.8,16.349-2.177,3.008-1.384,8.5-1.384,8.5-1.056-.074-20.213-1.714-27.588-16.7,0,0-8.623-17.523,9.685-38.917a28.765,28.765,0,0,1,8.974-7.01,23.748,23.748,0,0,1,7.281-1.948,23.088,23.088,0,0,0,6.708,6.638Z" transform="translate(-325.53 -470.125)" fill="#ffd63f"/>
    </g>
  </g>
</svg>
