<svg xmlns="http://www.w3.org/2000/svg" xmlns:xlink="http://www.w3.org/1999/xlink" width="686.714" height="434.44" viewBox="0 0 686.714 434.44">
  <defs>
    <clipPath id="clip-path">
      <path id="Path_4356" data-name="Path 4356" d="M938.218,564.128c.146.576-.527,1.344-1.2,1.579-.844.293-2.029-.127-2.182-.752-.181-.733,1.009-1.961,2.331-1.6C937.292,563.385,938.084,563.6,938.218,564.128Z" transform="translate(-934.814 -563.286)" fill="none"/>
    </clipPath>
    <clipPath id="clip-path-2">
      <path id="Path_4460" data-name="Path 4460" d="M181.786,572.372c-.421.54-1.914.3-2.879-.3-1.2-.747-2.048-2.337-1.577-2.924.544-.684,3.054-.169,4.11,1.533C181.546,570.853,182.175,571.876,181.786,572.372Z" transform="translate(-177.198 -568.856)" fill="none"/>
    </clipPath>
    <clipPath id="clip-path-3">
      <path id="Path_4462" data-name="Path 4462" d="M196.77,581.407a1.611,1.611,0,0,1-2.285.183,1.562,1.562,0,0,1-.326-2.136c.56-.582,1.683-.134,2.141.158a1.336,1.336,0,0,1,.409.368A1.366,1.366,0,0,1,196.77,581.407Z" transform="translate(-193.867 -579.171)" fill="none"/>
    </clipPath>
    <clipPath id="clip-path-4">
      <path id="Path_4488" data-name="Path 4488" d="M465.25,411.8c-.069.57-.624,1.253-1.215,1.145s-.794-.822-.7-1.362a1.262,1.262,0,0,1,1.192-.938.415.415,0,0,1,.341.1A1.168,1.168,0,0,1,465.25,411.8Z" transform="translate(-463.312 -410.644)" fill="none"/>
    </clipPath>
  </defs>
  <g id="blog" transform="translate(-70.477 -243.16)">
    <path id="Path_4338" data-name="Path 4338" d="M595.1,400.91,551.345,553.485H807.376l45.319-177.021c5.552-19.361-5.643-35.055-25-35.055h0c-20,0-41.414,15.875-47.277,35.871-2.644,9.016-55.315,8.415-51.68,14.761Z" transform="translate(-136.635 -29.499)" fill="#b8d0d7"/>
    <g id="Group_1681" data-name="Group 1681" transform="translate(329.498 353.931)">
      <path id="Path_4339" data-name="Path 4339" d="M740.22,603.544H429.569l62.188-196.286a8.3,8.3,0,0,1,7.916-5.8H782.784a8.306,8.306,0,0,1,8.031,10.425Z" transform="translate(-429.569 -401.461)" fill="#8fa8bb"/>
      <path id="Path_4340" data-name="Path 4340" d="M729.323,596.486H463.431a4.832,4.832,0,0,1-4.606-6.291l53.129-167.7a4.831,4.831,0,0,1,4.606-3.372H773.593a4.83,4.83,0,0,1,4.672,6.063L734,592.888A4.832,4.832,0,0,1,729.323,596.486Z" transform="translate(-438.284 -406.765)" fill="#e8f3f5"/>
    </g>
    <rect id="Rectangle_374" data-name="Rectangle 374" width="316.94" height="6.79" transform="translate(207.834 552.237)" fill="#136ca0"/>
    <path id="Path_4337" data-name="Path 4337" d="M343.358,268.51C153.726,268.51,0,275.681,0,284.525s153.726,16.021,343.358,16.021,343.356-7.171,343.356-16.021S532.988,268.51,343.358,268.51Z" transform="translate(70.477 377.054)" fill="#8b3360"/>
    <path id="Path_4494" data-name="Path 4494" d="M246.358,268.51C110.3,268.51,0,275.681,0,284.525s110.3,16.021,246.358,16.021,246.356-7.171,246.356-16.021S382.417,268.51,246.358,268.51Z" transform="translate(161.477 291.054)" fill="#8b3360"/>
    <g id="Group_1682" data-name="Group 1682" transform="translate(377.646 311.91)">
      <path id="Path_4341" data-name="Path 4341" d="M810.893,341.409H596.252c-19.6,0-40.058,15.651-46.156,35.154h-.009L498.379,556.892H713.037L757.766,400.9l6.35-22.141.63-2.2h-.02C770.826,357.06,791.269,341.409,810.893,341.409Z" transform="translate(-498.378 -341.409)" fill="#fff"/>
      <path id="Path_4342" data-name="Path 4342" d="M550.1,376.563h-.01L498.377,556.892h214.66L757.766,400.9l6.349-22.141.631-2.2h-.021c6.1-19.5,26.544-35.154,46.166-35.154H596.251C576.648,341.409,556.193,357.058,550.1,376.563Zm231.663-26.31c-9.136,6.97-15.884,16.294-19,26.258a2.122,2.122,0,0,0-.075.327l-.551,1.926L755.783,400.9,711.623,554.91h-210.7l51.083-178.15c.019-.048.036-.1.051-.146a48.368,48.368,0,0,1,17.025-23.523c8.2-6.255,17.646-9.7,26.6-9.7H793.369A56.328,56.328,0,0,0,781.759,350.253Z" transform="translate(-498.377 -341.409)" fill="#b8d0d7"/>
    </g>
    <g id="Group_1689" data-name="Group 1689" transform="translate(631.423 448.421)">
      <path id="Path_4343" data-name="Path 4343" d="M905.059,810.729s-1.711,4.76-3.385,6.664-16.455-5.625-19.545-9.252.973-5.254,5.711-3.654,8.409,4.3,9.876.784A10.07,10.07,0,0,0,905.059,810.729Z" transform="translate(-881.051 -602.774)" fill="#19114c"/>
      <g id="Group_1683" data-name="Group 1683" transform="translate(21.099 60.533)">
        <path id="Path_4344" data-name="Path 4344" d="M913,619.659c.3.024.494.439.655.785a8.663,8.663,0,0,1,.437,2.266,9.5,9.5,0,0,0,.865,2.123,1.812,1.812,0,0,0,.789.916.8.8,0,0,0,.664.094c.374-.187.37-.936.3-1.4-.118-.733-.6-1.1-.433-1.353.135-.208.605-.178.936-.067.458.154.835.524,1.389,1.646.691,1.4.607,1.831,1.125,2.721a5.778,5.778,0,0,0,1.388,1.591,18.7,18.7,0,0,0,3.009,1.568c.45.183,9.587,3.777,15-.695.625-.516,2.446-1.712,3.409-5.946,2.308-10.141,3.023-13.765.842-18.207,0,0,3.955-.109,4.552-2.709a9.1,9.1,0,0,1,5.445,2.991c2.514,2.949,2.255,6.76,2.018,9.359-.631,6.906-4.8,19.832-14.766,22.4-6.18,1.593-13.243-1.142-16.869-2.546-.685-.265-5.867-2.307-5.832-2.4h0a12.741,12.741,0,0,1-1.682-1.036,13.769,13.769,0,0,1-3.847-4.472,6.943,6.943,0,0,1-1.179-3.25,6.172,6.172,0,0,1,.635-2.859C912.083,620.627,912.517,619.62,913,619.659Z" transform="translate(-911.204 -602.994)" fill="#fdb585"/>
        <path id="Path_4345" data-name="Path 4345" d="M946.363,606.235a33.968,33.968,0,0,1-1.09,17.675c-1,2.87-1.67,4.592-3.437,5.937-6.247,4.751-17.744-1.721-17.744-1.721-.492,2.611-3.736,4.9-3.736,4.9,26.655,18.992,36.185-6.3,37.774-17.685s-7.464-12.349-7.464-12.349a3.577,3.577,0,0,1-1.215,2.525A3.652,3.652,0,0,1,946.363,606.235Z" transform="translate(-913.952 -602.994)" fill="#ffd63f"/>
      </g>
      <path id="Path_4346" data-name="Path 4346" d="M989.439,757.774s-22.43-13.826-25.065-25.477c-1.921-8.492-1.921-23.2-1.921-23.2l2.182-35.743s-18.074,5.968-22.232,0c0,0-.875,47.151,11.293,66.924s34.086,23.956,34.086,23.956S990.96,762.717,989.439,757.774Z" transform="translate(-899.468 -563.587)" fill="#48a7bb"/>
      <g id="Group_1684" data-name="Group 1684" transform="translate(15.636 108.82)">
        <path id="Path_4347" data-name="Path 4347" d="M953.676,672c.078,1.516.121,3.182.1,4.98,0,0-.023,2.458-.192,4.9a103.754,103.754,0,0,1-2.014,13.224c-1.506,6.543-15.963,37-40,76.432a16.215,16.215,0,0,1-2.8-.875,16.552,16.552,0,0,1-5.378-3.634c5.45-14.348,10.785-29.957,15.722-46.769,4.684-15.952,8.479-31.18,11.563-45.508a31.339,31.339,0,0,0,8.768,1.036A31.913,31.913,0,0,0,953.676,672Z" transform="translate(-903.397 -672)" fill="#48a7bb"/>
      </g>
      <path id="Path_4348" data-name="Path 4348" d="M1007.781,793.995s6.845.385,7.859,2.6-1.775,7.793-1.268,11.089-.507,7.6-6.591,7.6-4.835-4.563-1.657-5.07,0-9.759,0-9.759A6.387,6.387,0,0,0,1007.781,793.995Z" transform="translate(-917.809 -599.809)" fill="#19114c"/>
      <path id="Path_4349" data-name="Path 4349" d="M956.833,600.544a50.066,50.066,0,0,0-5.424,5.223,43.193,43.193,0,0,0-5.817,7.987c-2.183,4.231-1.914,7.49-1.8,17.835.041,3.813.073,9.685-.023,17.064a9.306,9.306,0,0,0,3.15,2.516c2.894,1.024,8.424,1.583,18.969-.281a31.4,31.4,0,0,1-.561-10.416c.74-6.315,2.921-7.464,5.466-15.308.2-.609,4.122-13.059,1.223-21.169a12.03,12.03,0,0,0-3.944-5.794,10.767,10.767,0,0,0-3.27-1.693,4.184,4.184,0,0,1-.574,1.834C963.037,600.31,960.1,601.147,956.833,600.544Z" transform="translate(-899.867 -540.513)" fill="#f89a5b"/>
      <path id="Path_4350" data-name="Path 4350" d="M956.355,600.544a30.977,30.977,0,0,0-2.6,1.943,34.579,34.579,0,0,0-8.637,11.267,17.9,17.9,0,0,0-.811,2.106c-1.548,5.049-1.18,8.548-.991,15.729.015.568.111,4.336.048,7.713a100.315,100.315,0,0,1-1.236,13.993,18.444,18.444,0,0,0,2.082,1.243c4.136,2.112,7.545,1.8,13.83,2.256,1.806.131,4.388.363,7.518.807a74.5,74.5,0,0,1,.473-15.287c.152-.94.507-2.913.978-5.142.3-1.429.788-3.72,1.536-6.412.775-2.791,1.507-4.666,1.772-5.6.944-3.309,3.784-14,1.223-21.169a12.03,12.03,0,0,0-3.944-5.794,10.767,10.767,0,0,0-3.27-1.693,9.622,9.622,0,0,1-7.967,4.036Z" transform="translate(-899.388 -540.513)" fill="#685b9e"/>
      <path id="Path_4351" data-name="Path 4351" d="M962.035,588.674a29.929,29.929,0,0,1-.14,7.6,17.237,17.237,0,0,0,10.345-3.647c-.463-1.557-.908-3.207-1.317-4.944-.513-2.178-.916-4.259-1.233-6.224Z" transform="translate(-905.325 -535.996)" fill="#fdb585"/>
      <g id="Group_1688" data-name="Group 1688" transform="translate(23.246 0)">
        <path id="Path_4352" data-name="Path 4352" d="M941.049,522.225c10-1.568,19.313.617,23.263,6.613,1.511,2.293,1.988,4.765,2.879,9.384.876,4.536,1.779,9.587-.98,13.544a10.981,10.981,0,0,1-1.8,1.945,119.419,119.419,0,0,0-10.419,11.046l-27.761-24.933a7.948,7.948,0,0,1-5.807-.761c-.524-.327-1.313-.927-2.881-3.405-2.015-3.184-3.022-4.775-3.23-6.473-.632-5.177,5.843-9.613,6.392-9.98,4.609-3.055,7.664-2.921,9.37-2.485,1.029.263,1.645.655,4.369,2.108C937.266,520.332,939.569,521.492,941.049,522.225Z" transform="translate(-914.271 -516.487)" fill="#112129"/>
        <path id="Path_4353" data-name="Path 4353" d="M958.316,572.446c3.537-3.113,5.361-7.137,4.478-10.384a7.724,7.724,0,0,0-2.221-3.574c-4.828-3.9-6.179,1.315-6.179,1.315s-11.838-2.145-14.227-17.706c0,0-5.976,5.16-9.613,5.416a29.02,29.02,0,0,0-.862,3.393,29.385,29.385,0,0,0-.424,7.8,21.688,21.688,0,0,1-.493,4.239,1.571,1.571,0,0,0,.082,1.306,1.152,1.152,0,0,0,.688.405,16.039,16.039,0,0,0,2.115,8.278c3.672,6.219,11.873,9.41,20.83,8.266Z" transform="translate(-918.594 -524.176)" fill="#fdb585"/>
        <path id="Path_4354" data-name="Path 4354" d="M950.515,560.83a78.025,78.025,0,0,0,2.065,8.2,3.875,3.875,0,0,1-1.357,4.735,13.714,13.714,0,0,1-4.088,2.315c-3.033,1.2-5.195,2.017-7.294,1.115a4.206,4.206,0,0,1-.923-.518c-1.877-1.409-1.164-3.459-2.6-4.459-.513-.356-1.456-.355-3.342-.353a24.046,24.046,0,0,0-3.127.207,1.521,1.521,0,0,0-.723.621,2.326,2.326,0,0,0,.176,1.954c1.781,4.012,1.558,13.49,6.745,15.187a8,8,0,0,0,1.3.237c1.724.242,4.247.325,10.368-1.594,5.986-1.877,7.119-3.068,7.752-4.1a7.491,7.491,0,0,0,.821-2.012c.982-3.39.137-6.364-.386-8.454a84.423,84.423,0,0,1-1.957-11.02,5.881,5.881,0,0,0-3.426-2.057Z" transform="translate(-918.681 -529.801)" fill="#112129"/>
        <g id="Group_1687" data-name="Group 1687" transform="translate(14.375 32.744)">
          <path id="Path_4355" data-name="Path 4355" d="M938.214,564.109c.149.575-.518,1.351-1.192,1.593-.841.3-2.026-.106-2.184-.731-.185-.732,1-1.974,2.318-1.631C937.285,563.373,938.076,563.579,938.214,564.109Z" transform="translate(-934.815 -563.281)" fill="#fff"/>
          <g id="Group_1686" data-name="Group 1686" transform="translate(0 0.004)">
            <g id="Group_1685" data-name="Group 1685" clip-path="url(#clip-path)">
              <ellipse id="Ellipse_225" data-name="Ellipse 225" cx="0.683" cy="0.998" rx="0.683" ry="0.998" transform="translate(-0.041 0.532) rotate(-18.238)" fill="#112129"/>
            </g>
          </g>
        </g>
        <path id="Path_4357" data-name="Path 4357" d="M932.075,580.915a1.308,1.308,0,0,0,.549,1.022c.734.429,2.218-.3,3.566-2.008Z" transform="translate(-919.617 -535.535)" fill="#dc7044"/>
      </g>
    </g>
    <g id="Group_1691" data-name="Group 1691" transform="translate(490.022 367.234)">
      <g id="Group_1690" data-name="Group 1690" transform="translate(0 0)">
        <path id="Path_4358" data-name="Path 4358" d="M676.425,425.025h103.7a3.6,3.6,0,0,0,3.375-2.277h0c.36-1.257-.566-2.276-2.068-2.276H677.73a3.591,3.591,0,0,0-3.372,2.276h0C674,424.006,674.922,425.025,676.425,425.025Z" transform="translate(-663.568 -420.472)" fill="#b8d0d7"/>
        <path id="Path_4359" data-name="Path 4359" d="M711.477,438.364H787.97a3.592,3.592,0,0,0,3.372-2.276h0c.361-1.258-.563-2.277-2.067-2.277H712.781a3.594,3.594,0,0,0-3.374,2.277h0C709.048,437.345,709.972,438.364,711.477,438.364Z" transform="translate(-674.092 -424.477)" fill="#b8d0d7"/>
        <path id="Path_4360" data-name="Path 4360" d="M672.6,438.364h16.322a3.6,3.6,0,0,0,3.373-2.276h0c.36-1.258-.566-2.277-2.067-2.277H673.906a3.6,3.6,0,0,0-3.375,2.277h0C670.171,437.345,671.1,438.364,672.6,438.364Z" transform="translate(-662.419 -424.477)" fill="#b8d0d7"/>
        <path id="Path_4361" data-name="Path 4361" d="M699.994,478.41h76.494a3.593,3.593,0,0,0,3.371-2.277h0c.362-1.258-.564-2.277-2.067-2.277H701.3a3.592,3.592,0,0,0-3.373,2.277h0C697.565,477.39,698.49,478.41,699.994,478.41Z" transform="translate(-670.644 -436.5)" fill="#b8d0d7"/>
        <path id="Path_4362" data-name="Path 4362" d="M661.116,478.41H677.44a3.6,3.6,0,0,0,3.373-2.277h0c.36-1.258-.566-2.277-2.067-2.277H662.423a3.594,3.594,0,0,0-3.374,2.277h0C658.69,477.39,659.615,478.41,661.116,478.41Z" transform="translate(-658.971 -436.5)" fill="#b8d0d7"/>
        <path id="Path_4363" data-name="Path 4363" d="M668.775,451.7h103.7a3.6,3.6,0,0,0,3.373-2.278h0c.362-1.258-.566-2.277-2.067-2.277H670.08a3.593,3.593,0,0,0-3.373,2.277h0C666.347,450.684,667.272,451.7,668.775,451.7Z" transform="translate(-661.271 -428.482)" fill="#b8d0d7"/>
        <path id="Path_4364" data-name="Path 4364" d="M664.95,465.044h37.722a3.6,3.6,0,0,0,3.373-2.277h0c.36-1.257-.565-2.277-2.069-2.277H666.255a3.594,3.594,0,0,0-3.373,2.277h0C662.522,464.024,663.446,465.044,664.95,465.044Z" transform="translate(-660.122 -432.487)" fill="#b8d0d7"/>
        <path id="Path_4365" data-name="Path 4365" d="M734.928,465.044h54.549a3.593,3.593,0,0,0,3.372-2.277h0c.361-1.257-.563-2.277-2.068-2.277H736.232a3.593,3.593,0,0,0-3.373,2.277h0C732.5,464.024,733.424,465.044,734.928,465.044Z" transform="translate(-681.133 -432.487)" fill="#b8d0d7"/>
      </g>
    </g>
    <g id="Group_1693" data-name="Group 1693" transform="translate(417.106 422.234)">
      <g id="Group_1692" data-name="Group 1692" transform="translate(0 0)">
        <path id="Path_4366" data-name="Path 4366" d="M572.221,503.624h103.7a3.593,3.593,0,0,0,3.372-2.277h0c.361-1.257-.565-2.276-2.068-2.276h-103.7a3.594,3.594,0,0,0-3.374,2.276h0C569.793,502.6,570.72,503.624,572.221,503.624Z" transform="translate(-559.365 -499.071)" fill="#b8d0d7"/>
        <path id="Path_4367" data-name="Path 4367" d="M607.273,516.963h76.495a3.594,3.594,0,0,0,3.373-2.277h0c.36-1.257-.566-2.276-2.067-2.276H608.58a3.6,3.6,0,0,0-3.375,2.276h0C604.845,515.944,605.771,516.963,607.273,516.963Z" transform="translate(-569.889 -503.076)" fill="#b8d0d7"/>
        <path id="Path_4368" data-name="Path 4368" d="M568.4,516.963h16.322a3.594,3.594,0,0,0,3.373-2.277h0c.36-1.257-.565-2.276-2.068-2.276H569.7a3.593,3.593,0,0,0-3.372,2.276h0C565.968,515.944,566.894,516.963,568.4,516.963Z" transform="translate(-558.217 -503.076)" fill="#b8d0d7"/>
        <path id="Path_4369" data-name="Path 4369" d="M595.79,557.009h76.5a3.6,3.6,0,0,0,3.373-2.277h0c.36-1.258-.565-2.277-2.067-2.277H597.1a3.593,3.593,0,0,0-3.373,2.277h0C593.361,555.989,594.289,557.009,595.79,557.009Z" transform="translate(-566.441 -515.099)" fill="#b8d0d7"/>
        <path id="Path_4370" data-name="Path 4370" d="M556.914,557.009h16.322a3.593,3.593,0,0,0,3.371-2.277h0c.362-1.258-.565-2.277-2.067-2.277H558.219a3.591,3.591,0,0,0-3.371,2.277h0C554.486,555.989,555.411,557.009,556.914,557.009Z" transform="translate(-554.769 -515.099)" fill="#b8d0d7"/>
        <path id="Path_4371" data-name="Path 4371" d="M564.572,530.3h103.7a3.594,3.594,0,0,0,3.373-2.276h0c.36-1.257-.565-2.277-2.067-2.277h-103.7a3.592,3.592,0,0,0-3.373,2.277h0C562.144,529.283,563.069,530.3,564.572,530.3Z" transform="translate(-557.068 -507.081)" fill="#b8d0d7"/>
        <path id="Path_4372" data-name="Path 4372" d="M560.746,543.643h37.722a3.6,3.6,0,0,0,3.375-2.277h0c.361-1.257-.566-2.277-2.068-2.277H562.051a3.6,3.6,0,0,0-3.373,2.277h0C558.317,542.623,559.245,543.643,560.746,543.643Z" transform="translate(-555.919 -511.086)" fill="#b8d0d7"/>
        <path id="Path_4373" data-name="Path 4373" d="M630.724,543.643h54.549a3.6,3.6,0,0,0,3.374-2.277h0c.36-1.257-.565-2.277-2.067-2.277h-54.55a3.6,3.6,0,0,0-3.373,2.277h0C628.3,542.623,629.222,543.643,630.724,543.643Z" transform="translate(-576.93 -511.086)" fill="#b8d0d7"/>
      </g>
    </g>
    <g id="Group_1695" data-name="Group 1695" transform="translate(534.288 422.234)">
      <g id="Group_1694" data-name="Group 1694" transform="translate(0 0)">
        <path id="Path_4374" data-name="Path 4374" d="M739.686,503.624h60.029a3.593,3.593,0,0,0,3.371-2.277h0c.362-1.257-.566-2.276-2.067-2.276H740.991a3.592,3.592,0,0,0-3.372,2.276h0C737.257,502.6,738.182,503.624,739.686,503.624Z" transform="translate(-726.828 -499.071)" fill="#b8d0d7"/>
        <path id="Path_4375" data-name="Path 4375" d="M774.737,516.963H807.56a3.6,3.6,0,0,0,3.374-2.277h0c.36-1.257-.565-2.276-2.067-2.276H776.041a3.594,3.594,0,0,0-3.373,2.276h0C772.308,515.944,773.233,516.963,774.737,516.963Z" transform="translate(-737.352 -503.076)" fill="#b8d0d7"/>
        <path id="Path_4376" data-name="Path 4376" d="M735.86,516.963h16.322a3.593,3.593,0,0,0,3.373-2.277h0c.36-1.257-.566-2.276-2.067-2.276H737.166a3.594,3.594,0,0,0-3.374,2.276h0C733.431,515.944,734.358,516.963,735.86,516.963Z" transform="translate(-725.679 -503.076)" fill="#b8d0d7"/>
        <path id="Path_4377" data-name="Path 4377" d="M763.254,557.009h32.823a3.6,3.6,0,0,0,3.375-2.277h0c.36-1.258-.566-2.277-2.068-2.277H764.559a3.6,3.6,0,0,0-3.373,2.277h0C760.826,555.989,761.75,557.009,763.254,557.009Z" transform="translate(-733.904 -515.099)" fill="#b8d0d7"/>
        <path id="Path_4378" data-name="Path 4378" d="M724.377,557.009H740.7a3.6,3.6,0,0,0,3.373-2.277h0c.36-1.258-.566-2.277-2.068-2.277H725.684a3.6,3.6,0,0,0-3.375,2.277h0C721.949,555.989,722.875,557.009,724.377,557.009Z" transform="translate(-722.231 -515.099)" fill="#b8d0d7"/>
        <path id="Path_4379" data-name="Path 4379" d="M732.035,530.3h60.028a3.592,3.592,0,0,0,3.372-2.276h0c.361-1.257-.565-2.277-2.067-2.277H733.341a3.594,3.594,0,0,0-3.374,2.277h0C729.606,529.283,730.532,530.3,732.035,530.3Z" transform="translate(-724.531 -507.081)" fill="#b8d0d7"/>
        <path id="Path_4380" data-name="Path 4380" d="M728.211,543.643h37.722a3.6,3.6,0,0,0,3.373-2.277h0c.36-1.257-.565-2.277-2.068-2.277H729.515a3.6,3.6,0,0,0-3.373,2.277h0C725.782,542.623,726.706,543.643,728.211,543.643Z" transform="translate(-723.382 -511.086)" fill="#b8d0d7"/>
        <path id="Path_4381" data-name="Path 4381" d="M798.188,543.643h10.878a3.6,3.6,0,0,0,3.374-2.277h0c.36-1.257-.566-2.277-2.068-2.277h-10.88a3.593,3.593,0,0,0-3.373,2.277h0C795.759,542.623,796.684,543.643,798.188,543.643Z" transform="translate(-744.393 -511.086)" fill="#b8d0d7"/>
      </g>
    </g>
    <g id="Group_1697" data-name="Group 1697" transform="translate(519.363 474.286)">
      <g id="Group_1696" data-name="Group 1696" transform="translate(0)">
        <path id="Path_4382" data-name="Path 4382" d="M778.382,578.011H718.354c-1.5,0-2.427-1.019-2.067-2.276h0a3.594,3.594,0,0,1,3.374-2.278h60.027c1.5,0,2.427,1.02,2.068,2.278h0A3.594,3.594,0,0,1,778.382,578.011Z" transform="translate(-705.498 -573.458)" fill="#b8d0d7"/>
        <path id="Path_4383" data-name="Path 4383" d="M747.352,591.352H714.53c-1.5,0-2.428-1.02-2.067-2.277h0a3.592,3.592,0,0,1,3.372-2.277H748.66c1.5,0,2.428,1.019,2.067,2.277h0A3.6,3.6,0,0,1,747.352,591.352Z" transform="translate(-704.35 -577.463)" fill="#b8d0d7"/>
        <path id="Path_4384" data-name="Path 4384" d="M793.31,591.352H776.988c-1.5,0-2.427-1.02-2.068-2.277h0a3.594,3.594,0,0,1,3.374-2.277h16.322c1.5,0,2.428,1.019,2.067,2.277h0A3.594,3.594,0,0,1,793.31,591.352Z" transform="translate(-723.102 -577.463)" fill="#b8d0d7"/>
        <path id="Path_4385" data-name="Path 4385" d="M735.87,631.4H703.047c-1.5,0-2.429-1.019-2.067-2.277h0a3.593,3.593,0,0,1,3.371-2.276h32.824c1.5,0,2.429,1.02,2.068,2.276h0A3.593,3.593,0,0,1,735.87,631.4Z" transform="translate(-700.902 -589.487)" fill="#b8d0d7"/>
        <path id="Path_4386" data-name="Path 4386" d="M781.827,631.4H765.5c-1.5,0-2.427-1.019-2.067-2.277h0a3.593,3.593,0,0,1,3.373-2.276h16.322c1.5,0,2.429,1.02,2.067,2.276h0A3.593,3.593,0,0,1,781.827,631.4Z" transform="translate(-719.655 -589.487)" fill="#b8d0d7"/>
        <path id="Path_4387" data-name="Path 4387" d="M770.731,604.691H710.7c-1.5,0-2.426-1.019-2.067-2.277h0a3.6,3.6,0,0,1,3.374-2.277h60.027c1.5,0,2.429,1.02,2.068,2.277h0A3.593,3.593,0,0,1,770.731,604.691Z" transform="translate(-703.201 -581.468)" fill="#b8d0d7"/>
        <path id="Path_4388" data-name="Path 4388" d="M776.477,618.031H738.755c-1.5,0-2.428-1.019-2.068-2.277h0a3.594,3.594,0,0,1,3.374-2.276h37.722c1.5,0,2.428,1.02,2.068,2.276h0A3.594,3.594,0,0,1,776.477,618.031Z" transform="translate(-711.623 -585.474)" fill="#b8d0d7"/>
        <path id="Path_4389" data-name="Path 4389" d="M718.018,618.031h-10.88c-1.5,0-2.428-1.019-2.068-2.277h0a3.6,3.6,0,0,1,3.375-2.276h10.878c1.5,0,2.429,1.02,2.067,2.276h0A3.59,3.59,0,0,1,718.018,618.031Z" transform="translate(-702.13 -585.474)" fill="#b8d0d7"/>
      </g>
    </g>
    <g id="Group_1699" data-name="Group 1699" transform="translate(402.177 474.296)">
      <g id="Group_1698" data-name="Group 1698" transform="translate(0 0)">
        <path id="Path_4390" data-name="Path 4390" d="M654.586,578.025h-103.7c-1.5,0-2.429-1.019-2.068-2.277h0a3.594,3.594,0,0,1,3.373-2.276h103.7c1.5,0,2.429,1.019,2.068,2.276h0A3.593,3.593,0,0,1,654.586,578.025Z" transform="translate(-538.03 -573.472)" fill="#b8d0d7"/>
        <path id="Path_4391" data-name="Path 4391" d="M623.556,591.364h-76.5c-1.5,0-2.427-1.019-2.067-2.276h0a3.6,3.6,0,0,1,3.374-2.277h76.494c1.5,0,2.429,1.019,2.068,2.277h0A3.6,3.6,0,0,1,623.556,591.364Z" transform="translate(-536.881 -577.477)" fill="#b8d0d7"/>
        <path id="Path_4392" data-name="Path 4392" d="M688.252,591.364H671.93c-1.5,0-2.428-1.019-2.067-2.276h0a3.592,3.592,0,0,1,3.372-2.277h16.322c1.5,0,2.429,1.019,2.069,2.277h0A3.594,3.594,0,0,1,688.252,591.364Z" transform="translate(-574.373 -577.477)" fill="#b8d0d7"/>
        <path id="Path_4393" data-name="Path 4393" d="M612.074,631.411h-76.5c-1.5,0-2.427-1.019-2.067-2.277h0a3.594,3.594,0,0,1,3.373-2.276h76.5c1.5,0,2.428,1.019,2.067,2.276h0A3.593,3.593,0,0,1,612.074,631.411Z" transform="translate(-533.434 -589.501)" fill="#b8d0d7"/>
        <path id="Path_4394" data-name="Path 4394" d="M676.77,631.411H660.447c-1.5,0-2.429-1.019-2.067-2.277h0a3.592,3.592,0,0,1,3.371-2.276h16.322c1.5,0,2.429,1.019,2.067,2.276h0A3.591,3.591,0,0,1,676.77,631.411Z" transform="translate(-570.925 -589.501)" fill="#b8d0d7"/>
        <path id="Path_4395" data-name="Path 4395" d="M646.936,604.7h-103.7c-1.5,0-2.429-1.02-2.068-2.277h0a3.592,3.592,0,0,1,3.373-2.277h103.7c1.5,0,2.428,1.019,2.067,2.277h0A3.6,3.6,0,0,1,646.936,604.7Z" transform="translate(-535.733 -581.482)" fill="#b8d0d7"/>
        <path id="Path_4396" data-name="Path 4396" d="M671.419,618.045H633.7c-1.5,0-2.429-1.019-2.067-2.277h0A3.592,3.592,0,0,1,635,613.492h37.724c1.5,0,2.429,1.019,2.068,2.276h0A3.6,3.6,0,0,1,671.419,618.045Z" transform="translate(-562.893 -585.488)" fill="#b8d0d7"/>
        <path id="Path_4397" data-name="Path 4397" d="M594.221,618.045H539.671c-1.5,0-2.429-1.019-2.067-2.277h0a3.592,3.592,0,0,1,3.371-2.276h54.551c1.5,0,2.427,1.019,2.067,2.276h0A3.592,3.592,0,0,1,594.221,618.045Z" transform="translate(-534.663 -585.488)" fill="#b8d0d7"/>
      </g>
    </g>
    <g id="Group_1700" data-name="Group 1700" transform="translate(448.987 360.051)">
      <path id="Path_4398" data-name="Path 4398" d="M603.2,459.3l11.7-40.787H600.329l2.381-8.3h39.013l-2.381,8.3H624.807L613.112,459.3Z" transform="translate(-600.329 -410.206)" fill="#44cc7c"/>
    </g>
    <path id="Path_4399" data-name="Path 4399" d="M788.586,392.506H685.014a3.985,3.985,0,0,0-3.581,2.784l-1.682,5.864a2.026,2.026,0,0,0,1.985,2.784H785.307a3.99,3.99,0,0,0,3.582-2.784l1.681-5.864A2.026,2.026,0,0,0,788.586,392.506Z" transform="translate(-175.154 -44.841)" fill="#44cc7c"/>
    <g id="Group_1701" data-name="Group 1701" transform="translate(207.834 552.237)">
      <rect id="Rectangle_375" data-name="Rectangle 375" width="116.643" height="6.79" transform="translate(316.722 0)" fill="#6f808c"/>
      <path id="Path_4400" data-name="Path 4400" d="M625.57,694.559H421.407s5.79,14.117,45.985,15.984h224.97c40.194-1.868,45.984-15.984,45.984-15.984Z" transform="translate(-305.455 -687.769)" fill="#7a8fa2"/>
      <path id="Path_4401" data-name="Path 4401" d="M572.424,694.559H255.7s5.79,14.117,45.984,15.984h224.97c37.268-1.731,44.955-13.987,45.877-15.763C572.46,694.642,572.424,694.559,572.424,694.559Z" transform="translate(-255.702 -687.769)" fill="#8fa8bb"/>
      <path id="Rectangle_376" data-name="Rectangle 376" d="M0,0H61.915a0,0,0,0,1,0,0V.462a7.125,7.125,0,0,1-7.125,7.125H7.127A7.127,7.127,0,0,1,0,.46V0A0,0,0,0,1,0,0Z" transform="translate(108.484 6.79)" fill="#b8d0d7"/>
      <rect id="Rectangle_377" data-name="Rectangle 377" width="316.94" height="6.79" transform="translate(0 0)" fill="#7a8fa2"/>
    </g>
    <g id="Group_1703" data-name="Group 1703" transform="translate(286.429 592.009)">
      <path id="Path_4402" data-name="Path 4402" d="M420.214,799.084l-40.049.08a12.056,12.056,0,0,1-12.08-12.032l-.065-33.279a12.054,12.054,0,0,1,12.031-12.08l40.048-.08a12.056,12.056,0,0,1,12.081,12.032L432.246,787A12.056,12.056,0,0,1,420.214,799.084Z" transform="translate(-368.02 -741.693)" fill="#e8f3f5"/>
      <path id="Path_4403" data-name="Path 4403" d="M423.015,768.479a15.971,15.971,0,1,0-15.94,16A15.971,15.971,0,0,0,423.015,768.479Z" transform="translate(-374.941 -744.95)" fill="#f33f54"/>
      <path id="Path_4404" data-name="Path 4404" d="M420.094,770.65,409.2,764.392a1.547,1.547,0,0,0-2.318,1.345l.025,12.563a1.547,1.547,0,0,0,2.324,1.335l10.867-6.3A1.548,1.548,0,0,0,420.094,770.65Z" transform="translate(-379.689 -748.446)" fill="#fff"/>
      <g id="Group_1702" data-name="Group 1702" transform="translate(5.026 45.48)">
        <path id="Path_4405" data-name="Path 4405" d="M429.452,809.008a2.318,2.318,0,0,1-2.32,2.329l-49.6.1a2.324,2.324,0,1,1-.009-4.647l49.6-.1A2.327,2.327,0,0,1,429.452,809.008Z" transform="translate(-375.202 -806.688)" fill="#cae2e9"/>
        <path id="Path_4406" data-name="Path 4406" d="M400.224,806.764l.011,4.648-22.7.046a2.324,2.324,0,1,1-.009-4.647Z" transform="translate(-375.202 -806.711)" fill="#f33f54"/>
      </g>
    </g>
    <g id="Group_1707" data-name="Group 1707" transform="translate(519.904 390.385)">
      <path id="Path_4407" data-name="Path 4407" d="M739.26,470.365A41.143,41.143,0,1,1,758.5,525.278,41.143,41.143,0,0,1,739.26,470.365Z" transform="translate(-725.735 -437.603)" fill="#fff" opacity="0.53"/>
      <rect id="Rectangle_378" data-name="Rectangle 378" width="10.267" height="21.267" transform="matrix(0.743, -0.669, 0.669, 0.743, 75.232, 85.655)" fill="#2a85cd"/>
      <path id="Path_4408" data-name="Path 4408" d="M918.787,645.838h0c-4.25,3.823-11.445,2.637-15.792-2.6l-59.37-71.394,10.125-9.108,64.11,67.127C922.615,634.734,923.038,642.015,918.787,645.838Z" transform="translate(-758.295 -472.336)" fill="#48a7bb"/>
      <path id="Path_4409" data-name="Path 4409" d="M723.1,496.1a50.607,50.607,0,1,0,15.334-49.575A50.261,50.261,0,0,0,723.1,496.1Zm15.177,1.756a36.66,36.66,0,0,1,59.661-39.9c.548.534,1.092,1.084,1.6,1.661a36.675,36.675,0,1,1-54.528,49.059A36.128,36.128,0,0,1,738.28,497.86Z" transform="translate(-721.681 -433.549)" fill="#48a7bb"/>
      <g id="Group_1706" data-name="Group 1706" transform="translate(18.823 29.359)">
        <g id="Group_1704" data-name="Group 1704">
          <path id="Path_4410" data-name="Path 4410" d="M751.035,496.213s13.46,18.252,30.063,18.252,30.062-18.252,30.062-18.252S797.7,477.96,781.1,477.96,751.035,496.213,751.035,496.213Z" transform="translate(-749.318 -476.242)" fill="#fff"/>
          <path id="Path_4411" data-name="Path 4411" d="M758,505.918a60.724,60.724,0,0,1-9.084-9.423,1.718,1.718,0,0,1,0-2.038A60.69,60.69,0,0,1,758,485.034c7.432-6.233,15.164-9.529,22.362-9.529s14.93,3.3,22.361,9.529a60.658,60.658,0,0,1,9.084,9.422,1.715,1.715,0,0,1,0,2.039,60.644,60.644,0,0,1-9.084,9.423c-7.431,6.234-15.164,9.529-22.361,9.529S765.432,512.152,758,505.918Zm22.362-26.977c-13.317,0-24.8,12.787-27.872,16.536,3.072,3.749,14.532,16.532,27.872,16.532,13.317,0,24.8-12.787,27.872-16.535C805.16,491.724,793.7,478.941,780.361,478.941Z" transform="translate(-748.581 -475.505)" fill="#7a8fa2"/>
        </g>
        <g id="Group_1705" data-name="Group 1705" transform="translate(19.607 7.796)">
          <path id="Path_4412" data-name="Path 4412" d="M776.6,498.821a12.175,12.175,0,1,1,12.174,12.173A12.174,12.174,0,0,1,776.6,498.821Z" transform="translate(-776.6 -486.646)" fill="#7a8fa2"/>
          <path id="Path_4413" data-name="Path 4413" d="M796.375,492.969a5.707,5.707,0,1,1,5.707,5.706A5.707,5.707,0,0,1,796.375,492.969Z" transform="translate(-782.537 -486.831)" fill="#fff"/>
        </g>
      </g>
    </g>
    <g id="Group_1709" data-name="Group 1709" transform="translate(196.908 556.625)">
      <path id="Path_4414" data-name="Path 4414" d="M333.48,707.635H286.305a4.2,4.2,0,0,1-3.773-2.349l-5.846-11.877a4.084,4.084,0,0,0-3.667-2.283H247.455a4.06,4.06,0,0,0-3,1.326l-2.653,2.742,1.563,1.177v15.052h.029c-.006.1-.029.2-.029.3v51.212a4.087,4.087,0,0,0,4.087,4.088H333.48a4.088,4.088,0,0,0,4.087-4.087V711.721A4.087,4.087,0,0,0,333.48,707.635Z" transform="translate(-240.604 -691.126)" fill="#eda800"/>
      <path id="Path_4415" data-name="Path 4415" d="M330.2,711.732H283.025a4.2,4.2,0,0,1-3.773-2.349l-5.846-11.877a4.086,4.086,0,0,0-3.667-2.283H244.175a4.086,4.086,0,0,0-4.087,4.087v16.211h.031c-.008.1-.031.2-.031.3V767.03a4.086,4.086,0,0,0,4.088,4.087H330.2a4.086,4.086,0,0,0,4.087-4.087V715.818A4.086,4.086,0,0,0,330.2,711.732Z" transform="translate(-240.088 -692.356)" fill="#f9b502"/>
      <rect id="Rectangle_379" data-name="Rectangle 379" width="83.756" height="46.894" rx="4.207" transform="translate(5.323 23.267)" fill="#fff"/>
      <path id="Path_4416" data-name="Path 4416" d="M337.5,725.941a4.087,4.087,0,0,0-4.087-4.087H307.848a4.072,4.072,0,0,0-2.843,1.166l-.013-.015-2.508,2.661.8.284-4.953,10.063a4.2,4.2,0,0,1-3.772,2.349H247.39a4.061,4.061,0,0,0-3.057,1.4l-2.744,2.8,1.715.141v50.959a4.086,4.086,0,0,0,4.087,4.087H333.1l.923,1.127,2.47-2.548a4.055,4.055,0,0,0,1.012-2.665V742.449c0-.1-.024-.2-.03-.3h.03Z" transform="translate(-240.538 -700.352)" fill="#eda800"/>
      <path id="Path_4417" data-name="Path 4417" d="M334.286,730.039a4.086,4.086,0,0,0-4.087-4.087H304.634a4.087,4.087,0,0,0-3.667,2.281l-5.846,11.879a4.206,4.206,0,0,1-3.773,2.348H244.175a4.086,4.086,0,0,0-4.087,4.087v51.212a4.086,4.086,0,0,0,4.088,4.087H330.2a4.086,4.086,0,0,0,4.087-4.087V746.546c0-.1-.022-.2-.03-.3h.03Z" transform="translate(-240.088 -701.582)" fill="#f9ce52"/>
      <g id="Group_1708" data-name="Group 1708" transform="translate(10.079 26.466)">
        <path id="Path_4418" data-name="Path 4418" d="M270.209,731.508H255.773a1.281,1.281,0,0,1-1.281-1.279h0a1.282,1.282,0,0,1,1.281-1.281h14.436a1.281,1.281,0,0,1,1.281,1.281h0A1.28,1.28,0,0,1,270.209,731.508Z" transform="translate(-254.492 -728.948)" fill="#b8d0d7"/>
        <path id="Path_4419" data-name="Path 4419" d="M290.2,737.488h-6.387a1.281,1.281,0,0,1-1.281-1.28h0a1.281,1.281,0,0,1,1.281-1.281H290.2a1.281,1.281,0,0,1,1.281,1.281h0A1.281,1.281,0,0,1,290.2,737.488Z" transform="translate(-262.911 -730.743)" fill="#b8d0d7"/>
        <path id="Path_4420" data-name="Path 4420" d="M291.679,731.508h-8.9a1.28,1.28,0,0,1-1.281-1.279h0a1.281,1.281,0,0,1,1.281-1.281h8.9a1.28,1.28,0,0,1,1.28,1.281h0A1.279,1.279,0,0,1,291.679,731.508Z" transform="translate(-262.601 -728.948)" fill="#b8d0d7"/>
        <path id="Path_4421" data-name="Path 4421" d="M264.674,737.507h-8.9a1.281,1.281,0,0,1-1.281-1.28h0a1.281,1.281,0,0,1,1.281-1.281h8.9a1.279,1.279,0,0,1,1.279,1.281h0A1.279,1.279,0,0,1,264.674,737.507Z" transform="translate(-254.492 -730.749)" fill="#b8d0d7"/>
        <path id="Path_4422" data-name="Path 4422" d="M304.2,731.508h-2.245a1.28,1.28,0,0,1-1.281-1.279h0a1.281,1.281,0,0,1,1.281-1.281H304.2a1.281,1.281,0,0,1,1.28,1.281h0A1.279,1.279,0,0,1,304.2,731.508Z" transform="translate(-268.357 -728.948)" fill="#b8d0d7"/>
        <path id="Path_4423" data-name="Path 4423" d="M276.815,737.507H274.57a1.28,1.28,0,0,1-1.28-1.28h0a1.28,1.28,0,0,1,1.28-1.281h2.245a1.28,1.28,0,0,1,1.281,1.281h0A1.281,1.281,0,0,1,276.815,737.507Z" transform="translate(-260.136 -730.749)" fill="#b8d0d7"/>
      </g>
    </g>
    <g id="Group_1711" data-name="Group 1711" transform="translate(212.153 294.172)">
      <path id="Path_4424" data-name="Path 4424" d="M329.718,316.06H270.9a9.03,9.03,0,0,0-9.029,9.028v30.587A9.03,9.03,0,0,0,270.9,364.7h37.063l11.1,12.929a1.244,1.244,0,0,0,2.143-.9l-.344-12.032h8.852a9.029,9.029,0,0,0,9.029-9.029V325.088A9.029,9.029,0,0,0,329.718,316.06Z" transform="translate(-261.874 -316.06)" fill="#e8f3f5"/>
      <g id="Group_1710" data-name="Group 1710" transform="translate(10.58 18.051)">
        <path id="Path_4425" data-name="Path 4425" d="M289.54,348.128a6.273,6.273,0,1,0-6.272,6.272A6.272,6.272,0,0,0,289.54,348.128Z" transform="translate(-276.994 -341.856)" fill="#8fa8bb"/>
        <path id="Path_4426" data-name="Path 4426" d="M320.385,348.128a6.272,6.272,0,1,0-6.272,6.272A6.272,6.272,0,0,0,320.385,348.128Z" transform="translate(-286.256 -341.856)" fill="#8fa8bb"/>
        <path id="Path_4427" data-name="Path 4427" d="M351.228,348.128a6.273,6.273,0,1,0-6.272,6.272A6.272,6.272,0,0,0,351.228,348.128Z" transform="translate(-295.516 -341.856)" fill="#8fa8bb"/>
      </g>
    </g>
    <g id="Group_1712" data-name="Group 1712" transform="translate(310.538 243.16)">
      <path id="Path_4428" data-name="Path 4428" d="M462.713,243.16H410.491a8.016,8.016,0,0,0-8.016,8.016v27.158a8.017,8.017,0,0,0,8.016,8.016h29.8L450.8,299.114a1.246,1.246,0,0,0,2.145-.9l-.34-11.866h10.11a8.017,8.017,0,0,0,8.016-8.016V251.176A8.016,8.016,0,0,0,462.713,243.16Z" transform="translate(-402.475 -243.16)" fill="#e8f3f5"/>
      <path id="Path_4429" data-name="Path 4429" d="M444.4,250.054l4.929,9.987,11.022,1.6-7.975,7.773,1.882,10.976L444.4,275.21l-9.858,5.183,1.883-10.976-7.975-7.773,11.022-1.6Z" transform="translate(-410.274 -245.23)" fill="#f33f54"/>
    </g>
    <g id="Group_1717" data-name="Group 1717" transform="translate(552.308 535.72)">
      <g id="Group_1716" data-name="Group 1716" transform="translate(0 0)">
        <path id="Path_4430" data-name="Path 4430" d="M815.477,759.219s-3.028-7.84,1.325-9.629c5.009-2.059,4.841-5.051,4.977-7.839a6.863,6.863,0,0,1,7.373-6.4c2.734.229,2.1-4.747,3.242-6.908,1.8-3.409,8.261-4.172,7.9,2.32-.2,3.691-6.3,3.9-5.516,8.053s-1.825,8.727-4.48,9.08c-5.9.786-1.622,7.457-4.5,10.509S818.819,761.206,815.477,759.219Z" transform="translate(-767.94 -680.652)" fill="#41c077"/>
        <g id="Group_1714" data-name="Group 1714">
          <path id="Path_4431" data-name="Path 4431" d="M778.192,742.8s-20.846-5.687-19.364-15.881,3.595-13.878-3.682-17.01-9.21-12.805-4.874-18.8c3.466-4.791.866-11.885-.476-16.909-1.436-5.37,3.568-19.368,17.834-9.538,8.111,5.59.022,15.56,11.433,20.188s9.473,17.665,5.906,23.079c-2.936,4.459,10.613,7.8,11.214,16.847S790.345,740.163,778.192,742.8Z" transform="translate(-747.983 -661.252)" fill="#41c077"/>
          <g id="Group_1713" data-name="Group 1713" transform="translate(9.867 15.458)">
            <path id="Path_4432" data-name="Path 4432" d="M786.848,745.976a.675.675,0,0,1-.706-.549c-3.117-17.034-19.569-60.735-19.734-61.174a.672.672,0,1,1,1.257-.475c.166.441,16.66,44.254,19.8,61.406a.672.672,0,0,1-.54.782C786.9,745.971,786.873,745.973,786.848,745.976Z" transform="translate(-763.37 -683.343)" fill="#fff"/>
            <path id="Path_4433" data-name="Path 4433" d="M775.026,719.34a.671.671,0,0,1-.55-.227c-3.526-4.023-11.685-4.638-11.766-4.644a.671.671,0,1,1,.093-1.339c.358.024,8.8.661,12.684,5.1a.673.673,0,0,1-.062.947A.666.666,0,0,1,775.026,719.34Z" transform="translate(-762.085 -692.286)" fill="#fff"/>
            <path id="Path_4434" data-name="Path 4434" d="M784.928,727.527h-.017a.672.672,0,0,1-.7-.643c-.258-6.317,4.214-17.923,4.4-18.413a.671.671,0,1,1,1.252.485c-.046.118-4.56,11.836-4.315,17.872A.671.671,0,0,1,784.928,727.527Z" transform="translate(-768.725 -690.759)" fill="#fff"/>
            <path id="Path_4435" data-name="Path 4435" d="M784.8,751.322a.671.671,0,0,1-.6-.3c-2.707-4.045-13.1-5.354-13.206-5.366a.672.672,0,0,1,.162-1.334c.451.056,11.114,1.4,14.161,5.951a.672.672,0,0,1-.185.931A.652.652,0,0,1,784.8,751.322Z" transform="translate(-764.583 -701.652)" fill="#fff"/>
          </g>
        </g>
        <g id="Group_1715" data-name="Group 1715" transform="translate(33.105 16.108)">
          <path id="Path_4436" data-name="Path 4436" d="M802.453,750.152s-9.782-8.879-6.228-16.227,3.645-11.554,1.425-16.072c-3.348-6.813-3.328-13.485,1.335-17.538,3.8-3.3,1.849-4.626,1.854-8.885.008-6.721,13.908-11.557,19-1.01,2.895,6-2.548,9.109-.015,13.939,3.614,6.887.318,13.25-2.59,16.979-3.519,4.512,3.828,13,1.712,19.947S809.76,750.851,802.453,750.152Z" transform="translate(-795.293 -684.272)" fill="#44cc7c"/>
          <path id="Path_4437" data-name="Path 4437" d="M810.736,755.039l-.061.009a.54.54,0,0,1-.582-.49c-2.105-25.164,3.529-42.9,3.586-43.073a.537.537,0,1,1,1.022.331c-.056.174-5.623,17.717-3.535,42.652A.538.538,0,0,1,810.736,755.039Z" transform="translate(-799.595 -692.33)" fill="#fff"/>
          <path id="Path_4438" data-name="Path 4438" d="M809.7,725.946a.077.077,0,0,0-.019,0,.538.538,0,0,1-.619-.441c-.609-3.635-5.805-8.023-5.857-8.065a.538.538,0,0,1,.689-.826c.227.189,5.555,4.69,6.228,8.714A.538.538,0,0,1,809.7,725.946Z" transform="translate(-797.612 -693.946)" fill="#fff"/>
          <path id="Path_4439" data-name="Path 4439" d="M810.934,736.4a.525.525,0,0,1-.292-.022.537.537,0,0,1-.319-.689c1.27-3.436,9.062-10.992,9.393-11.313a.537.537,0,1,1,.747.773c-.077.077-7.944,7.706-9.131,10.911A.534.534,0,0,1,810.934,736.4Z" transform="translate(-799.796 -696.267)" fill="#fff"/>
          <path id="Path_4440" data-name="Path 4440" d="M807.83,764.017a.538.538,0,0,1-.624-.386c-.554-2.043-4.351-3.69-5.769-4.153a.537.537,0,0,1,.335-1.021c.229.074,5.654,1.878,6.472,4.891a.538.538,0,0,1-.38.661Z" transform="translate(-797.027 -706.538)" fill="#fff"/>
          <path id="Path_4441" data-name="Path 4441" d="M810.659,758.121a.537.537,0,0,1-.58-.779c.945-1.773,6.224-4.956,6.823-5.312a.537.537,0,0,1,.55.922c-1.556.929-5.742,3.618-6.425,4.9A.536.536,0,0,1,810.659,758.121Z" transform="translate(-799.713 -704.593)" fill="#fff"/>
        </g>
      </g>
      <path id="Path_4442" data-name="Path 4442" d="M777.592,816.535h32.772a25.02,25.02,0,0,0,6.47-26.649l-4.623-12.979H775.747l-4.625,12.979A25.021,25.021,0,0,0,777.592,816.535Z" transform="translate(-754.494 -695.977)" fill="#b8d0d7"/>
      <path id="Path_4443" data-name="Path 4443" d="M814.539,777.876H776.506a1.7,1.7,0,0,1-1.7-1.7h0a1.7,1.7,0,0,1,1.7-1.7h38.033a1.7,1.7,0,0,1,1.7,1.7h0A1.7,1.7,0,0,1,814.539,777.876Z" transform="translate(-756.038 -695.249)" fill="#7893a5"/>
    </g>
    <g id="Group_1727" data-name="Group 1727" transform="translate(96.274 440.887)">
      <path id="Path_4444" data-name="Path 4444" d="M167.257,528.562c-.12-.052-.262-.115-.464-.2-2.335-.99-13.433-5.335-24.011-.106a25.357,25.357,0,0,0-10.129,9.268c-3.485,5.817-1.083,7.98-4.808,13.366-3.7,5.354-8.254,6.365-8.105,10.263.072,1.907,1.232,3.53.395,6.164a9.752,9.752,0,0,1-1.587,2.856,20.4,20.4,0,0,1-4.443,4.438c-5.022,3.847-7.744,11.188-8.233,16.627a23.779,23.779,0,0,0,.065,4.533c2.029,14.986,39,30.352,48.118,21.391,3.7-3.633.875-9.362,7.328-17.292,2.222-2.73,3.516-3.23,5.671-6.573,3.482-5.4,1.931-6.922,4.8-12.053,3.791-6.78,7.958-6.732,9.34-12.528.75-3.145-.425-3.38.067-7.744.852-7.562,4.523-8.128,4.627-12.9C186.078,539.485,174.39,531.719,167.257,528.562Z" transform="translate(-99.131 -525.727)" fill="#fa5c17"/>
      <path id="Path_4445" data-name="Path 4445" d="M96.274,829.024q3.116,2.069,6.57,4.148,2.64,1.583,5.187,2.988l7.785.868c1.47-1.107,1.689-1.784,1.586-2.206-.239-.987-2.306-.875-4.742-2.16a11.424,11.424,0,0,1-3.372-2.739l-5.1-4.221a8.418,8.418,0,0,1-2.414.852,6.487,6.487,0,0,1-4.97-.852Z" transform="translate(-96.274 -615.794)" fill="#814a95"/>
      <g id="Group_1718" data-name="Group 1718" transform="translate(42.34 54.938)">
        <path id="Path_4446" data-name="Path 4446" d="M185.044,643.167a3.678,3.678,0,0,0,.642,1.17,4.055,4.055,0,0,0,2.02,1.262c6.11,1.886,11.723,5.116,17.623,7.583,1.64.686,5.138,2.753,12.136,6.887,0,0,3.849,2.273,3.562,4.133-.058.38-.119.687-.119.688a1.729,1.729,0,0,1-1.145.828l-.835-.542c-1.368-.891-1.479-.982-2.248-1.472-.9-.575-.952-.584-1.672-1.057-.29-.19-.668-.442-1.173-.757-.893-.556-1.342-.833-1.5-.759-.533.252.209,1.891-.663,2.747a1.346,1.346,0,0,1-.969.392c-.97-.12-.9-1.94-1.977-3.673-1.646-2.644-5.059-3.622-7.335-4.274-.59-.169-1.028-.264-1.181-.3-3.117-.672-9.473-2.1-19.394-4.362-1.732-.961-2.991-2.543-2.942-4.117C177.949,645.186,180.966,642.622,185.044,643.167Z" transform="translate(-163.114 -615.904)" fill="#fdb585"/>
        <path id="Path_4447" data-name="Path 4447" d="M173.578,637.134c-4.187-6.444-5.877-10.531-6.6-13.161,0,0-1.565-5.651-3.337-10.379a14.92,14.92,0,0,1-.81-3.678,5.965,5.965,0,0,1,.182-2.712c.038-.112.887-2.534,2.565-2.889,1.939-.41,3.9,2.173,5.436,4.2a26.335,26.335,0,0,1,3.356,6.151c.487,1.161.856,2.092,1.19,3.006.71,1.943,1.181,3.5,1.394,4.219.057.195.1.337.108.368.378,1.311,1.6,4.565,4.732,12.029a4.52,4.52,0,0,1-2.151,5.124A4.577,4.577,0,0,1,173.578,637.134Z" transform="translate(-158.577 -604.248)" fill="#fdb585"/>
        <path id="Path_4448" data-name="Path 4448" d="M166.142,630.946a8.514,8.514,0,0,0,3.546.449,9.267,9.267,0,0,0,1.923-.4,14.224,14.224,0,0,0,3.383-1.773,12.681,12.681,0,0,1,4.13-1.49A11.13,11.13,0,0,1,178,626a13.555,13.555,0,0,1-1.1-3.067c-.3-1.09-.665-2.106-1.4-4.136a42.7,42.7,0,0,0-2.709-5.953,27.523,27.523,0,0,0-2.931-4.741c-1.564-1.939-2.585-3.2-4.358-3.68a6.823,6.823,0,0,0-4.956.817l-3.769,3.836a50.862,50.862,0,0,1,9.361,21.872Z" transform="translate(-156.781 -604.238)" fill="#512945"/>
      </g>
      <path id="Path_4449" data-name="Path 4449" d="M117.456,727.617c1.537-7.265,2.717-13.367,3.55-17.835,4.839-25.959,5.244-35.634,4.554-44.5q-.273-3.507-.726-6.848a11.084,11.084,0,0,1-11.544-5.93,43.855,43.855,0,0,0-6.823,9.971c-4.38,8.836-4.527,16.867-4.427,26.609.117,11.285.559,24.033,1.567,38.041a7.636,7.636,0,0,0,3.49,4.917,7.462,7.462,0,0,0,6.552.728A6.647,6.647,0,0,0,117.456,727.617Z" transform="translate(-98 -563.79)" fill="#454195"/>
      <path id="Path_4450" data-name="Path 4450" d="M102.257,755.434q-.958,11.95-2.32,24.481-1.424,13.018-3.16,25.337a13.885,13.885,0,0,0,2.409,1.213,12.678,12.678,0,0,0,5.8.873l10.622-47.8" transform="translate(-96.425 -594.696)" fill="#454195"/>
      <path id="Path_4451" data-name="Path 4451" d="M155.737,828.383q3.46,1.422,7.252,2.789,2.9,1.039,5.669,1.921l7.805-.664c1.227-1.372,1.309-2.079,1.127-2.473-.427-.922-2.432-.41-5.072-1.2a11.427,11.427,0,0,1-3.84-2.029l-5.825-3.147a8.425,8.425,0,0,1-2.2,1.306,6.489,6.489,0,0,1-5.041.131Z" transform="translate(-114.089 -615.158)" fill="#814a95"/>
      <path id="Path_4452" data-name="Path 4452" d="M156.314,726.694c-.672-7.4-1.343-13.574-1.863-18.089-3.026-26.232-5.49-35.6-8.762-43.869q-1.294-3.271-2.712-6.331a29.693,29.693,0,0,1-6.657.951,29.25,29.25,0,0,1-5.825-.417,39.776,39.776,0,0,0-3.108,8.657c-2.341,10.13.116,18.349,2.84,26.816,4.347,13.508,8.679,25.492,12.708,35.89a7.632,7.632,0,0,0,4.784,3.67,7.462,7.462,0,0,0,6.476-1.234A6.646,6.646,0,0,0,156.314,726.694Z" transform="translate(-105.334 -565.563)" fill="#454195"/>
      <path id="Path_4453" data-name="Path 4453" d="M148.843,752.752q.1,2.157.258,4.367a176.154,176.154,0,0,0,2.59,20.035l1.833,25.466a13.8,13.8,0,0,0,2.6.721,12.677,12.677,0,0,0,5.863-.273q.556-24.476,1.113-48.951a8.3,8.3,0,0,0-2.63-5.412c-3.071-2.649-8.525-2.632-10.661.192A5.716,5.716,0,0,0,148.843,752.752Z" transform="translate(-112.051 -592.089)" fill="#454195"/>
      <path id="Path_4454" data-name="Path 4454" d="M142.38,596.747c-.481-.211-.978-.465-1.709-.742-2.288-.866-5.425-2.055-7.925-.743a5.625,5.625,0,0,0-2.341,2.465,16.462,16.462,0,0,0-2.449,3.8,16.746,16.746,0,0,0-1.232,3.863c-.6,2.929-1.441,6.7-2.468,11.328a70.329,70.329,0,0,1-3.114,15.035c-.288.831-2.143,6.084-2.143,6.084v0a25.6,25.6,0,0,0,19.056,7.656q1.476-2.873,3.11-5.82c2.762-4.975,5.6-9.6,8.443-13.878a45.338,45.338,0,0,0,6.2-12.641c1.809-5.925.986-7.872.261-8.813a17.462,17.462,0,0,0-3.078-2.672l-.043-.031a5.587,5.587,0,0,0-1.878-.882Q146.839,598.707,142.38,596.747Z" transform="translate(-103.098 -546.429)" fill="#fdb585"/>
      <path id="Path_4455" data-name="Path 4455" d="M163.921,598.4a35.416,35.416,0,0,1,3.822-12.425,32.745,32.745,0,0,1-8.148-3.278l-5.3,11.376Z" transform="translate(-113.694 -542.831)" fill="#fdb585"/>
      <path id="Path_4456" data-name="Path 4456" d="M187.871,566.084a22.818,22.818,0,0,1-10.977,10.887,20.892,20.892,0,0,1-12.082,1.752c-8.5-1.579-14.735-8.878-16.255-16.21a18.884,18.884,0,0,1-.29-5.7,3.052,3.052,0,0,1-1.208-.991,3.463,3.463,0,0,1-.537-1.988,13.3,13.3,0,0,1,.406-5c.522-1.7.9-2.941,1.959-3.289a2.985,2.985,0,0,1,2.445.61,4.167,4.167,0,0,1,1.65,2.8,47.266,47.266,0,0,1,4.422-6.791c2.938-3.764,4.732-6.067,7.782-7.354,4.521-1.907,9-.465,11.1.251a21.989,21.989,0,0,1,12.6,11.2C193.42,556.048,188.38,565.2,187.871,566.084Z" transform="translate(-111.346 -528.169)" fill="#fdb585"/>
      <path id="Path_4457" data-name="Path 4457" d="M181.211,586.987a5.232,5.232,0,0,1-2.73.941c-2.428.083-4.833-1.746-6.065-4.618Z" transform="translate(-119.135 -543.016)" fill="#dc7044"/>
      <path id="Path_4458" data-name="Path 4458" d="M184.71,585.337c.436.25.872.5,1.3.692a2.634,2.634,0,0,1-1.767-.436,2.588,2.588,0,0,1-.938-1.194A15.292,15.292,0,0,0,184.71,585.337Z" transform="translate(-122.404 -543.343)" fill="#dc7044"/>
      <path id="Path_4459" data-name="Path 4459" d="M181.794,572.358c-.416.543-1.919.311-2.877-.28-1.207-.735-2.052-2.34-1.6-2.91.54-.687,3.052-.195,4.122,1.505C181.542,570.839,182.169,571.877,181.794,572.358Z" transform="translate(-120.569 -538.68)" fill="#fff"/>
      <g id="Group_1721" data-name="Group 1721" transform="translate(56.627 30.18)">
        <g id="Group_1720" data-name="Group 1720" clip-path="url(#clip-path-2)">
          <g id="Group_1719" data-name="Group 1719" transform="translate(1.899 0.863)">
            <ellipse id="Ellipse_226" data-name="Ellipse 226" cx="1.196" cy="1.005" rx="1.196" ry="1.005" transform="matrix(0.498, -0.867, 0.867, 0.498, 0, 2.074)" fill="#1d262d"/>
          </g>
        </g>
      </g>
      <path id="Path_4461" data-name="Path 4461" d="M196.624,581.332a1.543,1.543,0,0,1-1.645.6,1.747,1.747,0,0,1-.8-2.467c.538-.584,2.01-.039,2.469.434a.95.95,0,0,1,.169.242A1.376,1.376,0,0,1,196.624,581.332Z" transform="translate(-125.594 -541.786)" fill="#fff"/>
      <g id="Group_1724" data-name="Group 1724" transform="translate(68.291 37.397)">
        <g id="Group_1723" data-name="Group 1723" clip-path="url(#clip-path-3)">
          <g id="Group_1722" data-name="Group 1722" transform="translate(0.718 0.008)">
            <ellipse id="Ellipse_227" data-name="Ellipse 227" cx="1.156" cy="0.789" rx="1.156" ry="0.789" transform="matrix(0.498, -0.867, 0.867, 0.498, 0, 2.005)" fill="#1d262d"/>
          </g>
        </g>
      </g>
      <g id="Group_1725" data-name="Group 1725" transform="translate(53.394 32.946)">
        <circle id="Ellipse_228" data-name="Ellipse 228" cx="0.507" cy="0.507" r="0.507" transform="translate(5.724 3.404)" fill="#dc7044"/>
        <circle id="Ellipse_229" data-name="Ellipse 229" cx="0.507" cy="0.507" r="0.507" transform="translate(3.54 4.002)" fill="#dc7044"/>
        <circle id="Ellipse_230" data-name="Ellipse 230" cx="0.369" cy="0.369" r="0.369" transform="translate(3.153 2.361)" fill="#dc7044"/>
        <circle id="Ellipse_231" data-name="Ellipse 231" cx="0.507" cy="0.507" r="0.507" transform="translate(1.112 2.165)" fill="#dc7044"/>
        <circle id="Ellipse_232" data-name="Ellipse 232" cx="0.507" cy="0.507" r="0.507" transform="translate(2.028 0.242)" fill="#dc7044"/>
        <circle id="Ellipse_233" data-name="Ellipse 233" cx="0.507" cy="0.507" r="0.507" fill="#dc7044"/>
      </g>
      <g id="Group_1726" data-name="Group 1726" transform="translate(66.388 40.813)">
        <circle id="Ellipse_234" data-name="Ellipse 234" cx="0.507" cy="0.507" r="0.507" transform="translate(1.112 2.165)" fill="#dc7044"/>
        <circle id="Ellipse_235" data-name="Ellipse 235" cx="0.507" cy="0.507" r="0.507" transform="translate(2.028 0.242)" fill="#dc7044"/>
        <circle id="Ellipse_236" data-name="Ellipse 236" cx="0.507" cy="0.507" r="0.507" fill="#dc7044"/>
      </g>
      <path id="Path_4463" data-name="Path 4463" d="M188.366,571.277a11.347,11.347,0,0,0-3.526-.372c-.109-.433-.33-.586-1.031-.985s-.948-.512-1.366-.379a11.908,11.908,0,0,0-2.171-2.872c-1.246-1.1-4.387-2.823-6.311-2.956l-4.849-1.861-.656.5,4.832,2.6a3.862,3.862,0,0,1-.091,1.215,6.86,6.86,0,0,0-.3,3.717,5.4,5.4,0,0,0,3.572,3.8,4.745,4.745,0,0,0,5.371-2.3.711.711,0,0,1-.057-.8c.262-.4.762-.025,1.465.374s1.275.638,1.083,1.076a.677.677,0,0,1-.692.37,4.974,4.974,0,0,0,.92,5.877,5.241,5.241,0,0,0,5.045,1.1,6.52,6.52,0,0,0,2.913-2.23c.6-.684.945-.729.945-.729l.672-1.234A14.174,14.174,0,0,0,188.366,571.277Zm-8.294.786c-.74.978-2.509,1.652-4.5.453a4.38,4.38,0,0,1-2.05-4.51,3.139,3.139,0,0,1,2.453-2.645,5.723,5.723,0,0,1,4.536,2.647A3.35,3.35,0,0,1,180.072,572.062Zm10.754,5.795a4.176,4.176,0,0,1-4.83.593A3.5,3.5,0,0,1,184,574.3a3.242,3.242,0,0,1,3.141-2.516,5.726,5.726,0,0,1,4.59,2.547A3.223,3.223,0,0,1,190.826,577.857Z" transform="translate(-117.946 -536.573)" fill="#323232"/>
      <path id="Path_4464" data-name="Path 4464" d="M121.922,620.55c-.456,2.085-1.166,4.124-1.431,6.242-.308,2.473-.19,4-1.405,5.194-.894.881-1.736.822-2.064,1.769-.36,1.038.242,2.292.639,3.121a7.842,7.842,0,0,0,.816,1.343,17.951,17.951,0,0,0,5.388,4.193,30.954,30.954,0,0,0,7.272,2.662,24.054,24.054,0,0,0,5.96.655,9.306,9.306,0,0,0,1.461-.195,4.22,4.22,0,0,0,1.852-.678,2.452,2.452,0,0,0,1.008-1.459c.119-.722-.312-1.035-.466-1.795a4.279,4.279,0,0,1,.9-2.983c.9-1.542,1.447-1.532,2.812-3.318a26.92,26.92,0,0,0,1.8-2.875c1.74-3,1.487-3.152,2.216-3.876,1.537-1.526,2.743-.92,4.223-2.278.921-.845,1.323-1.876,1.879-4.338.134-.593.3-1.254.49-2.169.373-1.807.558-3.229.665-4.042.278-2.132.536-3.968.672-6.424.127-2.3.041-3.064-.257-3.884a8.307,8.307,0,0,0-1.667-2.664,9.32,9.32,0,0,0-1.879-1.6c-.066.473-.157,1.112-.272,1.868-.431,2.823-.561,3.083-.781,3.269-.9.766-3.04.04-4.378-.992-1.534-1.183-2.166-2.88-3.224-5.723-.358-.962-.605-1.77-.758-2.3a28.189,28.189,0,0,0-4.22-1.837,16.222,16.222,0,0,0-3.566-.908,8.069,8.069,0,0,0-4.786.407,7.276,7.276,0,0,0-2.9,2.833,12.187,12.187,0,0,0-1.586,3.978c-.908,3.483-1.362,5.225-1.658,6.711C123.82,612.725,124.027,610.935,121.922,620.55Z" transform="translate(-102.471 -546.332)" fill="#512945"/>
      <path id="Path_4465" data-name="Path 4465" d="M177.658,553.187c.838,1.8,1.434,2.169,3.355,5.494,2.032,3.517,3.047,5.275,3.336,6.836,1.137,6.161-6.68,12.182-6.723,12.144-.01-.009.474-.359,1.281-1,10.139-8.022,15.471-16.013,14.556-25.064-.738-7.3-5.947-12.7-7.446-14.252a21.394,21.394,0,0,0-4.42-3.652c-1.089-.665-7.855-4.877-14.969-2.826-3.345.965-5.354,2.905-7.921,5.448-11.628,11.512-13.246,26.552-13.467,28.927a48,48,0,0,0-.038,8.48,2.378,2.378,0,0,1,.242.156c1.488,1.1,1.084,3.586.791,7.678-.332,4.623-.052,4.711-.509,9-.167,1.563-.344,2.867-.48,3.8A39.555,39.555,0,0,0,146.938,590c.982-3.061.841-3.927,1.922-7.194a30.825,30.825,0,0,0,1.284-3.774c.491-2.436-.09-2.743.253-5.231.311-2.258.84-2.376,1.8-6a32.076,32.076,0,0,1,1.086-3.223c.541-1.382.946-1.919,8.758-10.82,3.331-3.8,5.042-5.72,7.212-7.038a21.35,21.35,0,0,1,6.955-2.67A17.934,17.934,0,0,0,177.658,553.187Z" transform="translate(-110.914 -527.103)" fill="#fa5c17"/>
    </g>
    <g id="Group_1728" data-name="Group 1728" transform="translate(148.691 523.42)">
      <path id="Path_4466" data-name="Path 4466" d="M222.867,646.171l13.256,30a4.189,4.189,0,0,1-2.138,5.525l-43.664,19.294a4.187,4.187,0,0,1-5.524-2.139l-13.257-30a4.189,4.189,0,0,1,2.138-5.525l43.664-19.3A4.19,4.19,0,0,1,222.867,646.171Z" transform="translate(-171.182 -643.674)" fill="#b8d0d7"/>
      <path id="Path_4467" data-name="Path 4467" d="M236.141,668.654l6.825,15.441a1.536,1.536,0,0,1-.783,2.021l-48.524,21.442a1.532,1.532,0,0,1-2.019-.783l-1.251-2.83,5.718-17.5a1.534,1.534,0,0,1,2.034-.943l12.285,5a1.531,1.531,0,0,0,2.027-.927l8.988-26.563a1.532,1.532,0,0,1,2.157-.869Z" transform="translate(-176.949 -649.166)" fill="#e8f3f5"/>
      <path id="Path_4468" data-name="Path 4468" d="M194.495,675.715a5.617,5.617,0,1,0-2.868,7.41A5.617,5.617,0,0,0,194.495,675.715Z" transform="translate(-174.952 -652.289)" fill="#e8f3f5"/>
    </g>
    <g id="Group_1730" data-name="Group 1730" transform="translate(119.795 491.725)">
      <path id="Path_4469" data-name="Path 4469" d="M146.93,632.451c-4.788-6.012-6.862-9.918-7.838-12.465,0,0-2.1-5.474-4.319-10.011a14.891,14.891,0,0,1-1.16-3.583,5.958,5.958,0,0,1-.079-2.717c.027-.115.64-2.607,2.275-3.122,1.891-.594,4.089,1.789,5.814,3.659a26.341,26.341,0,0,1,3.931,5.8c.6,1.109,1.053,2,1.473,2.878.893,1.866,1.512,3.366,1.793,4.066.076.188.129.325.142.356.5,1.269,2.032,4.389,5.866,11.519a4.52,4.52,0,0,1-1.649,5.307A4.576,4.576,0,0,1,146.93,632.451Z" transform="translate(-130.946 -599.004)" fill="#fdb585"/>
      <g id="Group_1729" data-name="Group 1729" transform="translate(15.187 28.004)">
        <path id="Path_4470" data-name="Path 4470" d="M155.024,646.528c1.141.786,2.488,1.6,3.262,2.04,5.986,3.413,11.683,6.8,17.508,10.012,2.4,1.321,4.385,2.253,6.7,3.569.006,0-.057-.034.032.02s.071.057.316.2a10.949,10.949,0,0,0,1.1.584,14.216,14.216,0,0,0,5.794,1.145c.621-.006,1.586-.094,2.156-.151a5.552,5.552,0,0,0,1.059-.179c1.4-.589,1.681-2.255,1.986-3.315a2.116,2.116,0,0,0-.027-1.433,1.375,1.375,0,0,0-1-.741c-.82-.22-1.1.1-1.906.089a11.377,11.377,0,0,1-1.72-.324c-1.013-.25-1.516-.4-1.57-.616-.117-.478,1.053-1.128,1.171-1.192q.4-.366.809-.733t.829-.743c-4.14-.3-5.717.036-6.239.512a2.064,2.064,0,0,1-.535.365,2.854,2.854,0,0,1-2.063.008c-8.141-2.534-20.7-13.56-20.7-13.56a9.994,9.994,0,0,1-1.833-2.089,9.743,9.743,0,0,1-.728-1.33c-2.57-.442-4.553-.527-6.785,1.426-.248.216-1.38,2.007-.969,2.908a8.765,8.765,0,0,0,.852,1.342A21.247,21.247,0,0,0,155.024,646.528Z" transform="translate(-151.592 -638.399)" fill="#fdb585"/>
      </g>
      <path id="Path_4471" data-name="Path 4471" d="M140.348,627.355c1.19-.49,2.185-.818,2.889-1.031a16.307,16.307,0,0,0,1.876-.581,14.2,14.2,0,0,0,3.2-2.09,12.694,12.694,0,0,1,3.968-1.88,11.146,11.146,0,0,1-1.286-1.618,13.639,13.639,0,0,1-1.385-2.948c-.4-1.057-.864-2.031-1.791-3.982a42.667,42.667,0,0,0-3.269-5.666c-.532-.793-.92-1.309-3.373-4.436-1.5-1.915-2.777-3.532-3.735-4.744a9.671,9.671,0,0,0-5.016,2.809A9.949,9.949,0,0,0,129.9,607.6c-.1,2.179.491,4.14,4.378,10.517C135.747,620.531,137.769,623.706,140.348,627.355Z" transform="translate(-129.888 -598.379)" fill="#512945"/>
    </g>
    <g id="Group_1731" data-name="Group 1731" transform="translate(663.821 505.181)">
      <path id="Path_4472" data-name="Path 4472" d="M927.831,639.731c.347-.138.792.22,1.162.517.9.721.9,1.23,1.732,2.292a11.873,11.873,0,0,0,2.131,1.9,2.258,2.258,0,0,0,1.384.589.989.989,0,0,0,.793-.26c.314-.414-.1-1.248-.435-1.721-.534-.754-1.271-.9-1.227-1.274.036-.307.579-.531,1.008-.589.6-.08,1.22.127,2.454,1.075,1.539,1.181,1.682,1.713,2.749,2.42A7.179,7.179,0,0,0,942,645.692a26.457,26.457,0,0,0,4.22.1c1.733-.1,13.227-.917,16.914-8.419a12.289,12.289,0,0,0,.792-2.132c.749-2.577.9-5.575-.237-10.165-2.054-8.3-7.288-17.639-8.143-19.15a12.408,12.408,0,0,0,2.124-3.962,11.33,11.33,0,0,1,7.722.351c4.425,1.914,6.227,6.31,7.388,9.342,3.085,8.057,5.525,24.776-4.194,33.116-6.027,5.171-15.413,5.991-20.233,6.413-.911.08-7.818.643-7.83.518h0a15.847,15.847,0,0,1-2.446-.234,17.141,17.141,0,0,1-6.749-2.882,8.638,8.638,0,0,1-3.1-2.982,7.673,7.673,0,0,1-.859-3.54C927.338,641.317,927.27,639.954,927.831,639.731Z" transform="translate(-927.351 -598.756)" fill="#fdb585"/>
      <path id="Path_4473" data-name="Path 4473" d="M959.611,601.062c.269,1.3.738,3.366,1.5,5.839,3.087,9.98,6.7,12.782,7.578,20.221.435,3.7.675,6-.58,8.515-4.368,8.734-20.757,7.816-20.757,7.816.883,3.185-1.481,7.524-1.481,7.524.9.266,17.4,4.835,28.2-5.385,0,0,12.628-11.949,3.982-35.477a25.618,25.618,0,0,0-5.316-8.631,21.141,21.141,0,0,0-5.471-3.882,20.561,20.561,0,0,1-7.655,3.461Z" transform="translate(-932.912 -597.601)" fill="#ffd63f"/>
    </g>
    <g id="Group_1738" data-name="Group 1738" transform="translate(307.987 332.055)">
      <path id="Path_4474" data-name="Path 4474" d="M436.7,371.568c2.607.839,6.183,1.992,9.081,4.935,5.985,6.106,3.867,14.895,4.146,31.441.183,11.216.861,20.23,1.346,25.663l-3.423-.2-1.225-10.813-.027,10.813c-1.848-.081-4.361-.175-7.335-.229-12.162-.216-18.224.592-33,.538h-2.2c.938-10.638,1.422-19.26,1.687-24.99.776-16.739-.633-26.582,6.133-33.128a18.292,18.292,0,0,1,5.492-3.589A30.639,30.639,0,0,1,436.7,371.568Z" transform="translate(-400.399 -370.199)" fill="#1d262d"/>
      <path id="Path_4475" data-name="Path 4475" d="M445.662,448.835a33.591,33.591,0,0,1,1.947,3.059c3.832,6.807,4.543,13.6,4.935,18.694.171,2.225.232,4.063.255,5.282-.229.9-.327,1.489-.494,2.2,0,0-.507,2.153-.852,4.527a24.258,24.258,0,0,0,0,6.281c.35,3.589.642,10.8.9,22.432a34.225,34.225,0,0,1-6.73,0c-6.375-.633-9.314-2.759-16.151-3.141a35.986,35.986,0,0,0-4.038,0,121.315,121.315,0,0,0,5.832-15.254c1.6-5.231,1.795-7.111,1.795-8.524.058-3.4-.731-4.666-3.141-12.563-2.9-9.484-3.4-11.857-2.692-14.8a12.8,12.8,0,0,1,3.14-5.832c.5-.516,4.052-4.121,8.056-3.618.83.1,1.014.3,3.058.689A40.4,40.4,0,0,0,445.662,448.835Z" transform="translate(-406.817 -393.417)" fill="#1d184c"/>
      <g id="Group_1732" data-name="Group 1732" transform="translate(18.401 48.873)">
        <path id="Path_4476" data-name="Path 4476" d="M500.444,450.048s9.072.523,15.482-.969,7.144-4.873,8.015-6.317.84-2.87,1.5-2.707a2.357,2.357,0,0,1,.922,2.86,3.3,3.3,0,0,0-.484,1.968c.039.344,2.218.246,2.5,2.022s-.205,4.977-1.691,6.6-4.128,1.318-5.325.855c-4.881,1.6-16.321,4.469-21.98,3.263Z" transform="translate(-447.421 -440.042)" fill="#84614b"/>
        <path id="Path_4477" data-name="Path 4477" d="M538.4,447.015a3.452,3.452,0,0,0-3.711.349c-1.318,1.2-1.721,2.621-2.179,4.406s-.058,4.751,1.123,4.933a3.956,3.956,0,0,0,4.019-1.363c.843-1.262,1.719-5.1,1.873-6.353A1.9,1.9,0,0,0,538.4,447.015Z" transform="translate(-457.311 -442.019)" fill="#84614b"/>
        <path id="Path_4478" data-name="Path 4478" d="M449.669,449.2a99,99,0,0,0,18.611,1.5,149.231,149.231,0,0,0,22.625-1.737,7.269,7.269,0,0,1,.975,1.572,8.709,8.709,0,0,1,.1,6.344,145.851,145.851,0,0,1-17.659,4.858c-7.4,1.544-15.071,3.1-25.013,2.8a84.823,84.823,0,0,1-19.962-3.032q-2.109-9.742-4.217-19.484a5.1,5.1,0,0,1,1.572-.975c4.122-1.614,7.263,4.294,15.643,6.429C444.279,447.965,446.033,448.513,449.669,449.2Z" transform="translate(-425.125 -440.26)" fill="#1d184c"/>
      </g>
      <path id="Path_4479" data-name="Path 4479" d="M431.279,682.069q4.425.038,8.9.043,6.067.007,12.041-.043.868-.444.9-.948.16-2.2-15.506-5.545s-2.209,3.716-6.066,3.433Z" transform="translate(-408.572 -461.888)" fill="#744b90"/>
      <path id="Path_4480" data-name="Path 4480" d="M398.829,681.117q4.425.038,8.9.043,6.067.007,12.041-.043.867-.444.9-.948.158-2.2-15.506-5.545a2.924,2.924,0,0,0-.507-.986c-1.381-1.741-4.343-1.14-4.532-1.1Q399.48,676.829,398.829,681.117Z" transform="translate(-398.829 -460.936)" fill="#744b90"/>
      <path id="Path_4481" data-name="Path 4481" d="M457.1,398.956a22.117,22.117,0,0,0-8.038-15,18.545,18.545,0,0,0-8.391-3.233,1.1,1.1,0,0,1-.115.465c-1.577,3.226-4.62,5.721-6.472,8.841-1.61,2.713-2.438,4.944-3.36,9.916-.656,3.534-.329,4.734-1.045,10.453-.356,2.842-.763,5.149-1.05,6.648.908.631,8.171,5.514,16.242,2.735a18.262,18.262,0,0,0,8.569-6.729,18.7,18.7,0,0,0,2.342-4.564c.565.2,1.33.39,1.654.044.225-.24.122-.6-.156-1.953a14.739,14.739,0,0,1-.442-2.719,15.623,15.623,0,0,1,.31-2.033A14.046,14.046,0,0,0,457.1,398.956Z" transform="translate(-407.775 -373.357)" fill="#84614b"/>
      <path id="Path_4482" data-name="Path 4482" d="M442.526,444.929s-1.763-3.441,0-11.844a30.944,30.944,0,0,1-8.277-.449s.355,8.767-1.848,10.969c0,0,3.082,13.423,10.125,12.324C445.829,454.35,442.526,444.929,442.526,444.929Z" transform="translate(-408.909 -388.945)" fill="#84614b"/>
      <path id="Path_4483" data-name="Path 4483" d="M446.637,513.593a51.254,51.254,0,0,1,6.627,14.357c2.459,8.713,1.965,16.151,0,28.69-3.917,24.824-7.089,28.152-10.233,50.127,0,0-.346,2.413-2.836,20.965a11.836,11.836,0,0,1-8.522,2.641c.748-7.068,1.306-14.536,1.6-22.371a328.307,328.307,0,0,0-1.073-41.285s10.242-27.4,6.824-51.365A33.026,33.026,0,0,0,446.637,513.593Z" transform="translate(-408.69 -413.253)" fill="#5884d4"/>
      <path id="Path_4484" data-name="Path 4484" d="M414.861,515.663a42.025,42.025,0,0,0-5.354,9.291c-4.173,10.064-3.2,19.151-2.815,23.568,1.283,14.812.028,26.77-2.227,50.668a261.8,261.8,0,0,1-4.032,27.189,7.3,7.3,0,0,0,3.02,2.006,7.517,7.517,0,0,0,5.164-.166q2.7-10.1,5.534-20.317,5.594-20.157,11.411-39.687c1.189-5.8,2.276-11.878,3.214-18.225,1.721-11.635,2.716-22.614,3.208-32.8Z" transform="translate(-399.311 -413.874)" fill="#5884d4"/>
      <path id="Path_4485" data-name="Path 4485" d="M426.7,448.278a18.251,18.251,0,0,1,3.589,2.691c1.839,1.795,2.782,3.482,4.935,4.038.9.229,1.22.071,1.346,0,.964-.543,1.05-2.643.269-5.406a6.484,6.484,0,0,1,2.341.74,6.67,6.67,0,0,1,1.409,1.041,11.645,11.645,0,0,1,2.6,4.17,93.228,93.228,0,0,1,3.255,11.12c.386,1.9.876,4.5,1.346,7.627a10.232,10.232,0,0,1-1.795,5.832,32.1,32.1,0,0,0-2.66,3.97,8.674,8.674,0,0,0-.48.965,9.641,9.641,0,0,0-.449,4.038,27.5,27.5,0,0,0,.449,4.486,38.123,38.123,0,0,0,1.794,6.282c.526,1.5,1,2.728,1.346,3.589l-30.956-.449c2.571-5.546,4.1-9.422,5.042-11.975.117-.309.193-.529.265-.767,0,0,.04-.134.076-.269,1.27-4.8-2.243-14.356-2.243-14.356-3.2-8.7-3.818-11.526-4.038-12.563-1.126-5.357-.9-7.905.449-9.87a9.816,9.816,0,0,1,4.038-3.14A17.145,17.145,0,0,1,426.7,448.278Z" transform="translate(-403.21 -393.64)" fill="#f4d54f"/>
      <g id="Group_1736" data-name="Group 1736" transform="translate(45.122 28.302)">
        <path id="Path_4486" data-name="Path 4486" d="M465.1,411.826c-.113.388-.32,1.028-.757,1.151-.7.2-1.108-.8-1-1.384a1.25,1.25,0,0,1,1.45-.88c.088.024.122.037.164.111A1.2,1.2,0,0,1,465.1,411.826Z" transform="translate(-463.316 -410.655)" fill="#fff"/>
        <g id="Group_1735" data-name="Group 1735">
          <g id="Group_1734" data-name="Group 1734" clip-path="url(#clip-path-4)">
            <g id="Group_1733" data-name="Group 1733" transform="translate(0.761 -0.068)">
              <path id="Path_4487" data-name="Path 4487" d="M464.927,410.547c-.428.008-.488.741-.514,1.025s-.059.971.316.963.506-.71.563-1S465.355,410.54,464.927,410.547Z" transform="translate(-464.399 -410.547)" fill="#1d262d"/>
            </g>
          </g>
        </g>
      </g>
      <path id="Path_4489" data-name="Path 4489" d="M430.634,448.28a21.907,21.907,0,0,1,9.438,2.953c7.37,4.641,7.647,17.247,7.7,19.535A85.362,85.362,0,0,1,446.311,485c-.388,2.469-.7,4.008-.875,4.956-.827,4.518-1.386,11.412-.022,21.586a59.355,59.355,0,0,1-8.868,0c-8.4-.633-12.274-2.759-21.284-3.141q-2.658-.113-5.321,0a105.4,105.4,0,0,0,7.686-15.254c2.1-5.231,2.364-7.111,2.364-8.524.077-3.4-.964-4.666-4.138-12.563-3.819-9.484-4.488-11.857-3.547-14.8a10.523,10.523,0,0,1,4.138-5.832c4.18-2.907,10.34-3.082,12.416-3.14Z" transform="translate(-402.165 -393.643)" fill="#1d184c"/>
      <g id="Group_1737" data-name="Group 1737" transform="translate(10.463 54.687)">
        <path id="Path_4490" data-name="Path 4490" d="M503.2,472.449c-.522-.5-3.751,1.512-4.358,2.275s-3.2,3.372-4.061,2.952,1.307-1.609,1.422-1.7c.335-.253,1.891-2.149.629-1.768a8.373,8.373,0,0,0-4.089,2.592c-.842,1.243-.521,2.775-.607,4.176-2.119.807-4.32,1.4-6.454,2.176a57.961,57.961,0,0,1,3,5.317c2.068-1.581,4.167-3.042,6.35-4.518,2.127.492,4.5-1.076,5.7-2.377s.381-1.062.523-2.31a1.655,1.655,0,0,0-.773-1.574c-.027-.8-.589-1.009-1.3-1.156a14.772,14.772,0,0,1,1.6-1.506C501.354,474.552,504.339,473.537,503.2,472.449Z" transform="translate(-435.368 -455.563)" fill="#84614b"/>
        <path id="Path_4491" data-name="Path 4491" d="M420.962,448.372a6.518,6.518,0,0,1,1.953.133c2.665.676,3.927,5.457,5.042,8.3.582,1.484,3.819,5.379,10.294,13.167,4.937,5.939,6.422,7.413,8.984,8.015,1,.236,2.518.418,6.76-.58a57.047,57.047,0,0,0,13.376-5.022,8.388,8.388,0,0,1,1.11,1.26,28.561,28.561,0,0,1,3.392,6.822,41.249,41.249,0,0,1-5.734,3.68c-3.464,1.838-11.883,6.3-20.453,4.194-1.79-.441-4.138-1.9-8.834-4.811-6.105-3.788-11.286-7.05-16.478-12.649,0,0-5.345-4.984-6.282-10.949a9.582,9.582,0,0,1-.3-2.046,10.542,10.542,0,0,1,3.6-7.91A6.431,6.431,0,0,1,420.962,448.372Z" transform="translate(-413.782 -448.35)" fill="#1d184c"/>
      </g>
      <path id="Path_4492" data-name="Path 4492" d="M455.991,393.5a21.324,21.324,0,0,0,.175-6.137,14.807,14.807,0,0,0-2.338-7.288,13.021,13.021,0,0,0-6.94-4.822c-4.409.87-9.706,2.836-13.36,7.55a22.833,22.833,0,0,0-4.307,11.463c-2.064,14.766-3.2,29.129-3.84,40.427,2.052.291,4.245.532,6.57.693,2.821.2,5.472.253,7.927.213q.064-9.4.285-9.4t.6,9.454l5.6-.381q-.081-14.22-.1-28.444-.006-6.507,0-13.011h4.487c.148-.749.3-1.494.449-2.243.148.749.3,1.494.449,2.243Z" transform="translate(-406.801 -371.717)" fill="#1d262d"/>
      <path id="Path_4493" data-name="Path 4493" d="M460.707,422.958a2.232,2.232,0,0,0,.831,1.866,2.114,2.114,0,0,0,1.537.362l.762-1.581Z" transform="translate(-417.407 -386.04)" fill="#633631"/>
    </g>
  </g>
</svg>
