<svg xmlns="http://www.w3.org/2000/svg" xmlns:xlink="http://www.w3.org/1999/xlink" width="446.73" height="434.31" viewBox="0 0 446.73 434.31">
  <defs>
    <style>
      .cls-1 {
        fill: none;
      }

      .cls-2 {
        fill: #d3487b;
      }

      .cls-3 {
        fill: #b9416d;
      }

      .cls-4 {
        fill: #ecbb3c;
      }

      .cls-5 {
        fill: #e6e6e6;
      }

      .cls-29, .cls-6 {
        fill: #fdac19;
      }

      .cls-27, .cls-30, .cls-7 {
        fill: #0086ca;
      }

      .cls-21, .cls-8 {
        fill: #fff;
      }

      .cls-9 {
        fill: #fe6a3c;
      }

      .cls-10, .cls-28, .cls-45 {
        fill: #015288;
      }

      .cls-11 {
        fill: #1d262d;
      }

      .cls-12 {
        fill: #84614b;
      }

      .cls-13 {
        fill: #1d184c;
      }

      .cls-14 {
        fill: #744b90;
      }

      .cls-15 {
        fill: #5884d4;
      }

      .cls-16 {
        fill: #f4d54f;
      }

      .cls-17 {
        fill: #633631;
      }

      .cls-18 {
        clip-path: url(#clip-path);
      }

      .cls-19 {
        clip-path: url(#clip-path-2);
      }

      .cls-20, .cls-25 {
        fill: #b3b3b3;
      }

      .cls-20, .cls-21, .cls-28, .cls-29, .cls-30 {
        fill-rule: evenodd;
      }

      .cls-22 {
        fill: #096666;
      }

      .cls-23 {
        fill: #eaba3c;
      }

      .cls-24 {
        fill: #48a7bb;
      }

      .cls-26 {
        fill: #02797d;
      }

      .cls-27, .cls-45 {
        opacity: 0.5;
      }

      .cls-31 {
        fill: #19114c;
      }

      .cls-32 {
        fill: #f89a5b;
      }

      .cls-33 {
        fill: #ffd63f;
      }

      .cls-34 {
        fill: #685b9e;
      }

      .cls-35 {
        fill: #112129;
      }

      .cls-36 {
        fill: #dc7044;
      }

      .cls-37 {
        clip-path: url(#clip-path-3);
      }

      .cls-38 {
        clip-path: url(#clip-path-4);
      }

      .cls-39 {
        fill: #00a494;
      }

      .cls-40 {
        fill: #f7531b;
      }

      .cls-41 {
        fill: #e2995f;
      }

      .cls-42 {
        clip-path: url(#clip-path-5);
      }

      .cls-43 {
        fill: #c46f48;
      }

      .cls-44 {
        fill: #3b2315;
      }
    </style>
    <clipPath id="clip-path">
      <path id="Path_4247" data-name="Path 4247" class="cls-1" d="M409.924,589.247c-.065.423-.977.782-1.727.75-.912-.033-1.89-.652-1.825-1.141.1-.554,1.662-1.075,2.8-.456C409.273,588.5,409.957,588.856,409.924,589.247Z" transform="translate(-406.37 -588.12)"/>
    </clipPath>
    <clipPath id="clip-path-2">
      <path id="Path_4249" data-name="Path 4249" class="cls-1" d="M429.793,589.94a1.046,1.046,0,0,1-1.238.847,1.017,1.017,0,0,1-.879-1.108c.13-.521.912-.619,1.238-.587a1.386,1.386,0,0,1,.358.065A.847.847,0,0,1,429.793,589.94Z" transform="translate(-427.66 -589.087)"/>
    </clipPath>
    <clipPath id="clip-path-3">
      <path id="Path_4309" data-name="Path 4309" class="cls-1" d="M830.861,485.592c.075.536,1.191.961,2.089.929,1.116-.04,2.323-.794,2.232-1.382-.1-.683-2.025-1.318-3.419-.568C831.624,484.646,830.789,485.1,830.861,485.592Z" transform="translate(-830.857 -484.232)"/>
    </clipPath>
    <clipPath id="clip-path-4">
      <path id="Path_4311" data-name="Path 4311" class="cls-1" d="M811.4,486.358a1.273,1.273,0,0,0,1.493,1.024,1.235,1.235,0,0,0,1.065-1.334c-.155-.619-1.1-.755-1.529-.735a1.047,1.047,0,0,0-.425.091A1.079,1.079,0,0,0,811.4,486.358Z" transform="translate(-811.397 -485.311)"/>
    </clipPath>
    <clipPath id="clip-path-5">
      <path id="Path_4327" data-name="Path 4327" class="cls-1" d="M265.278,583.308c-.042.5.67,1.047,1.3,1.089.754.084,1.675-.461,1.675-1.005a1.554,1.554,0,0,0-2.22-.921C265.906,582.512,265.278,582.847,265.278,583.308Z" transform="translate(-265.276 -582.294)"/>
    </clipPath>
  </defs>
  <g id="charlas" transform="translate(-777.665 -3137.69)">
    <ellipse id="Ellipse_143" data-name="Ellipse 143" class="cls-2" cx="215.935" cy="217.155" rx="215.935" ry="217.155" transform="translate(791 3137.69)"/>
    <g id="Group_1680" data-name="Group 1680" transform="translate(735.636 2921.734)">
      <path id="Path_4337" data-name="Path 4337" class="cls-3" d="M216.992,268.51C97.15,268.51,0,273.273,0,279.146s97.15,10.64,216.992,10.64,216.991-4.763,216.991-10.64S336.832,268.51,216.992,268.51Z" transform="translate(54.777 261.919)"/>
      <path id="Path_4222" data-name="Path 4222" class="cls-4" d="M32.644,478.053c-.764-7.592,6.888-10.563,8.881-5.943-.639-7.249,2.965-16.757,9.146-17.576,11.666-1.773,8.284,12.314,13.892,12.518,5.122-.157,1.3-12.19,12.956-6.161,2.789,1.346,4.2,6.414,6.175,12.675,3.991-7.138,6.439-2.489,7.173,4.486A128.193,128.193,0,0,1,32.644,478.053Z" transform="translate(33.764 -121.195)"/>
      <g id="Group_1618" data-name="Group 1618" transform="translate(205.889 298.49)">
        <rect id="Rectangle_358" data-name="Rectangle 358" class="cls-5" width="189.862" height="141.768" transform="translate(0 0.081)"/>
        <rect id="Rectangle_359" data-name="Rectangle 359" class="cls-6" width="189.862" height="16.991"/>
        <rect id="Rectangle_360" data-name="Rectangle 360" class="cls-7" width="164.002" height="84.845" transform="translate(12.93 29.413)"/>
        <g id="Group_1609" data-name="Group 1609" transform="translate(66.701 40.761)">
          <path id="Path_4223" data-name="Path 4223" class="cls-8" d="M663.9,468.785a28.231,28.231,0,1,1-28.226-28.239A28.233,28.233,0,0,1,663.9,468.785Z" transform="translate(-607.435 -440.546)"/>
          <path id="Path_4224" data-name="Path 4224" class="cls-9" d="M680.783,488l-24.911-14.4v28.787L680.783,488l-24.911-14.4v28.787Z" transform="translate(-635.587 -459.758)"/>
        </g>
        <g id="Group_1615" data-name="Group 1615" transform="translate(12.481 6.277)">
          <g id="Group_1614" data-name="Group 1614">
            <g id="Group_1613" data-name="Group 1613">
              <g id="Group_1610" data-name="Group 1610" transform="translate(8.658)">
                <path id="Path_4225" data-name="Path 4225" class="cls-8" d="M498.639,360.42a2.22,2.22,0,1,0,2.22-2.218A2.226,2.226,0,0,0,498.639,360.42Z" transform="translate(-498.639 -358.202)"/>
              </g>
              <g id="Group_1611" data-name="Group 1611">
                <path id="Path_4226" data-name="Path 4226" class="cls-7" d="M477.966,360.42a2.22,2.22,0,1,0,2.22-2.218A2.226,2.226,0,0,0,477.966,360.42Z" transform="translate(-477.966 -358.202)"/>
              </g>
              <g id="Group_1612" data-name="Group 1612" transform="translate(17.314)">
                <path id="Path_4227" data-name="Path 4227" class="cls-9" d="M519.31,360.42a2.22,2.22,0,1,0,2.221-2.218A2.226,2.226,0,0,0,519.31,360.42Z" transform="translate(-519.31 -358.202)"/>
              </g>
            </g>
          </g>
          <rect id="Rectangle_361" data-name="Rectangle 361" class="cls-8" width="135.114" height="0.739" transform="translate(29.787 1.85)"/>
        </g>
        <g id="Group_1617" data-name="Group 1617" transform="translate(13.622 120.66)">
          <path id="Path_4228" data-name="Path 4228" class="cls-9" d="M491.213,637.414l-10.524-6.081v12.162l10.524-6.081-10.524-6.081v12.162Z" transform="translate(-480.689 -631.333)"/>
          <rect id="Rectangle_362" data-name="Rectangle 362" class="cls-8" width="119.609" height="0.739" transform="translate(43.01 5.711)"/>
          <g id="Group_1616" data-name="Group 1616" transform="translate(20.483 1.282)">
            <rect id="Rectangle_363" data-name="Rectangle 363" class="cls-8" width="2.231" height="9.598"/>
            <rect id="Rectangle_364" data-name="Rectangle 364" class="cls-8" width="2.231" height="9.598" transform="translate(4.43)"/>
          </g>
          <path id="Path_4229" data-name="Path 4229" class="cls-6" d="M636.613,640.728a3.691,3.691,0,1,1-3.69-3.692A3.691,3.691,0,0,1,636.613,640.728Z" transform="translate(-567.024 -634.648)"/>
        </g>
      </g>
      <g id="Group_1634" data-name="Group 1634" transform="translate(144.089 380.468)">
        <path id="Path_4230" data-name="Path 4230" class="cls-7" d="M353.376,633.772c-9.494-.879-13.876,2.319-13.876,2.319l1.474,15.745,12.4.158Z" transform="translate(-323.207 -593.979)"/>
        <g id="Group_1620" data-name="Group 1620" transform="translate(0 49.478)">
          <path id="Path_4231" data-name="Path 4231" class="cls-10" d="M328.242,721.912c-17.311-.6-24.283-1.861-26.64-4.826-1.493-1.878-1.039-4.208-.464-7.156.818-4.193,3.316-9.889,6.21-16.484,5.083-11.586,11.409-26.005,9.579-36.137l1.09-.2c1.89,10.465-4.511,25.057-9.655,36.78-2.868,6.536-5.343,12.18-6.137,16.254-.541,2.772-.931,4.776.244,6.254,2.069,2.6,9.306,3.839,25.811,4.407Z" transform="translate(-300.594 -657.11)"/>
          <g id="Group_1619" data-name="Group 1619" transform="translate(2.945 60.425)">
            <rect id="Rectangle_365" data-name="Rectangle 365" class="cls-10" width="1.155" height="50.66" transform="translate(24.462)"/>
            <rect id="Rectangle_366" data-name="Rectangle 366" class="cls-10" width="50.678" height="1.155" transform="matrix(0.472, -0.881, 0.881, 0.472, 0, 50.395)"/>
            <rect id="Rectangle_367" data-name="Rectangle 367" class="cls-10" width="1.155" height="50.677" transform="translate(25.114 6.278) rotate(-28.214)"/>
          </g>
          <path id="Path_4232" data-name="Path 4232" class="cls-7" d="M375.022,786.45l-49.426-.312-1.648-8.851s25.127-.351,39.458,1.153,11.367,4.173,11.367,4.173Z" transform="translate(-314.168 -726.938)"/>
          <path id="Path_4233" data-name="Path 4233" class="cls-10" d="M367.989,792.145l-56.573-.783,1.86,4.776,55.046-.1Z" transform="translate(-306.884 -735.139)"/>
        </g>
        <g id="Group_1633" data-name="Group 1633" transform="translate(24.621)">
          <path id="Path_4234" data-name="Path 4234" class="cls-11" d="M383.1,539.954a15.072,15.072,0,0,1,6.582,3.584c4.334,4.432,2.8,10.818,3,22.841.131,8.146.619,14.695.977,18.637l-2.476-.13-.879-7.853-.033,7.853c-1.336-.065-3.161-.13-5.311-.163-8.83-.163-13.229.424-23.981.391h-1.6c.684-7.722,1.043-13.978,1.238-18.149.554-12.154-.456-19.322,4.464-24.046a13.334,13.334,0,0,1,3.975-2.607A22.015,22.015,0,0,1,383.1,539.954Z" transform="translate(-359.384 -538.964)"/>
          <path id="Path_4235" data-name="Path 4235" class="cls-12" d="M429.51,700.494c9.518,12.667,16.375,21.683,18.129,23.638a4.486,4.486,0,0,1,1.321,2.669,6.526,6.526,0,0,1-.815,3.1,4.377,4.377,0,0,1-1.339,2,2.575,2.575,0,0,1-1.738.6c-.23-.011-.889-.035-1.052-.4-.184-.433.655-.839,1.28-2.047a3.234,3.234,0,0,0,.424-2.606c-.27-.681-.9-1.4-1.42-1.262-.1.014-.286.112-.461.51l-2.1.6a5.235,5.235,0,0,1-.221-.937,4.975,4.975,0,0,1,.061-1.381c.115-.608.285-.808.1-1.407a8.094,8.094,0,0,0-2.191-2.8l-.168-.164a125.607,125.607,0,0,1-16.172-17.3C423.171,703.345,426.1,703.3,429.51,700.494Z" transform="translate(-396.443 -632.847)"/>
          <path id="Path_4236" data-name="Path 4236" class="cls-13" d="M420.073,659.489a6.709,6.709,0,0,0,.486,1.973,7.8,7.8,0,0,0,1.23,1.923,240.617,240.617,0,0,0,14.516,20.106,5.877,5.877,0,0,1-.561,1.22,6.215,6.215,0,0,1-3.8,2.6,74.642,74.642,0,0,1-9.181-9.354c-3.64-4.419-10.323-13.152-12.051-25.809a45.179,45.179,0,0,1-.055-11.716,5.784,5.784,0,0,1,4.4,1.082,4.319,4.319,0,0,1,.873,1.047c1.6,2.605,2.023,6.438,2.9,11.063C419.671,658.134,419.9,657.866,420.073,659.489Z" transform="translate(-388.976 -597.908)"/>
          <g id="Group_1621" data-name="Group 1621" transform="translate(39.72 151.891)">
            <path id="Path_4237" data-name="Path 4237" class="cls-14" d="M454.229,903.894c4.136,5.607,6.614,11.1,14.394,8.53,2.311-1.95-4.42-1.188-6.942-8.975-2.322.071-4.623-.113-6.336-1.791Q454.787,902.776,454.229,903.894Z" transform="translate(-454.229 -901.658)"/>
          </g>
          <path id="Path_4238" data-name="Path 4238" class="cls-12" d="M396.245,565.342a15.062,15.062,0,0,1-2.639,9.677,21.521,21.521,0,0,1-6.223,4.888c-4.171,2.248-11.828.945-16.617-4.79,0,0-7.038-2.086-4.464-7.364a2.513,2.513,0,0,1,1.01-1.01,2.9,2.9,0,0,1,2.15-.163c-.1-.912-.554-7.038,3.943-11.469a13.571,13.571,0,0,1,6.321-3.454,14.367,14.367,0,0,1,10.687,2.216C396.147,557.912,396.245,564.69,396.245,565.342Z" transform="translate(-363.075 -546.202)"/>
          <path id="Path_4239" data-name="Path 4239" class="cls-12" d="M401.448,629.617s-1.271-2.509,0-8.6a22.008,22.008,0,0,1-6.028-.326s.261,6.353-1.336,7.95c0,0,2.248,9.742,7.364,8.96C403.859,636.459,401.448,629.617,401.448,629.617Z" transform="translate(-379.552 -586.464)"/>
          <g id="Group_1622" data-name="Group 1622" transform="translate(10.907 79.802)">
            <path id="Path_4240" data-name="Path 4240" class="cls-15" d="M388.743,730.926a13.456,13.456,0,0,1,7.956-1.249,12.817,12.817,0,0,1,3.905,1.3c2.312.742,25.3,8.169,28.547,11.517a7.28,7.28,0,0,1,1.114,1.528c1.269,2.455.6,5.193.073,6.708q-.666,4-1.326,7.992-3.774,22.834-7.381,45.7a6.988,6.988,0,0,1-2.774-.262,7.187,7.187,0,0,1-3.552-2.493q1.333-13.346,2.4-27.241.848-11.1,1.466-21.882a161.962,161.962,0,0,1-22.405-2.722c-6.809-1.321-10.178-2.446-11.1-5.1-1-2.894,1.392-6.228,2.644-7.75Q388.527,733.951,388.743,730.926Z" transform="translate(-385.427 -729.518)"/>
          </g>
          <g id="Group_1623" data-name="Group 1623" transform="translate(6.577 147.099)">
            <path id="Path_4241" data-name="Path 4241" class="cls-14" d="M375.09,891.729c1.238,6.856,1.039,12.879,9.154,14.005,2.934-.73-3.442-3.016-2.271-11.118-2.115-.96-4.1-2.141-4.9-4.4Z" transform="translate(-375.09 -890.215)"/>
          </g>
          <g id="Group_1624" data-name="Group 1624" transform="translate(2.414 75.711)">
            <path id="Path_4242" data-name="Path 4242" class="cls-15" d="M370.635,719.75a26.381,26.381,0,0,0,15.39,8.795c13.857,8.3,23.517,14.934,23.734,15.629a8.046,8.046,0,0,1,.325,1.862h0c.056,2.763-1.754,4.924-2.894,6.052q-2.361,3.294-4.716,6.587-13.461,18.826-26.786,37.756a6.981,6.981,0,0,1-2.374-1.459,7.186,7.186,0,0,1-2.088-3.8q6.87-11.574,14.172-23.388,6.862-11.094,13.714-21.751c-6.764-.966-12.3-1.364-16.239-1.547-6.934-.322-10.863-.064-14.148-3.022a11.142,11.142,0,0,1-3.43-6.005c-.58-3.175.611-5.867,2.642-10.46A50.132,50.132,0,0,1,370.635,719.75Z" transform="translate(-365.149 -719.75)"/>
          </g>
          <path id="Path_4243" data-name="Path 4243" class="cls-16" d="M380.776,639.664a13.934,13.934,0,0,1,2.607,1.955c1.336,1.3,2.02,2.542,3.584,2.932.652.163.88.065.977,0,.717-.391.749-1.922.2-3.942a2.834,2.834,0,0,1,1.734.353,2.659,2.659,0,0,1,.841.831,14.163,14.163,0,0,1,1.885,3.821c1.543,5.771,1.918,6.918,2.094,7.433a30.551,30.551,0,0,0,1.57,3.769,9.177,9.177,0,0,1-.642,4.389,10.942,10.942,0,0,1-.835,1.592,21.314,21.314,0,0,0-1.923,2.9,6.863,6.863,0,0,0-.358.684,6.753,6.753,0,0,0-.326,2.932,14.526,14.526,0,0,0,.326,3.258c.4,1.58.893,1.923,1.716,3.874a21.452,21.452,0,0,1,1.106,3.4l-23.024-.432c1.857-4.04,3-6.843,3.649-8.7.1-.228.13-.391.2-.554l.065-.2c.912-3.486-1.629-10.426-1.629-10.426a70.016,70.016,0,0,1-2.933-9.123c-.815-3.878-.652-5.735.326-7.168a7.354,7.354,0,0,1,2.933-2.281A12.172,12.172,0,0,1,380.776,639.664Z" transform="translate(-366.212 -597.489)"/>
          <path id="Path_4244" data-name="Path 4244" class="cls-17" d="M417.392,606.769a3.441,3.441,0,0,1-1.434,1.206,4.426,4.426,0,0,1-4.757-1.369Z" transform="translate(-389.501 -578.278)"/>
          <path id="Path_4245" data-name="Path 4245" class="cls-17" d="M421.179,601.069a8.841,8.841,0,0,0,.945-.033,1.74,1.74,0,0,1-1.14.326,1.858,1.858,0,0,1-.912-.358C420.429,601.037,420.788,601.069,421.179,601.069Z" transform="translate(-394.656 -575.022)"/>
          <path id="Path_4246" data-name="Path 4246" class="cls-8" d="M409.925,589.3c-.065.423-.977.782-1.694.782-.912-.032-1.922-.652-1.857-1.108.1-.554,1.662-1.108,2.8-.489C409.273,588.521,409.957,588.912,409.925,589.3Z" transform="translate(-386.693 -567.59)"/>
          <g id="Group_1628" data-name="Group 1628" transform="translate(19.677 20.586)">
            <g id="Group_1627" data-name="Group 1627">
              <g id="Group_1626" data-name="Group 1626" class="cls-18">
                <g id="Group_1625" data-name="Group 1625" transform="translate(1.828 0.117)">
                  <ellipse id="Ellipse_220" data-name="Ellipse 220" class="cls-11" cx="0.652" cy="0.782" rx="0.652" ry="0.782"/>
                </g>
              </g>
            </g>
          </g>
          <path id="Path_4248" data-name="Path 4248" class="cls-8" d="M429.784,589.933a1.013,1.013,0,0,1-.717.88c-.652.13-1.369-.619-1.238-1.14s1.108-.684,1.532-.554c.065.033.13.033.163.1A.933.933,0,0,1,429.784,589.933Z" transform="translate(-399.156 -568.09)"/>
          <g id="Group_1632" data-name="Group 1632" transform="translate(28.593 20.991)">
            <g id="Group_1631" data-name="Group 1631">
              <g id="Group_1630" data-name="Group 1630" class="cls-19">
                <g id="Group_1629" data-name="Group 1629" transform="translate(0.829 -0.059)">
                  <ellipse id="Ellipse_221" data-name="Ellipse 221" class="cls-11" cx="0.521" cy="0.749" rx="0.521" ry="0.749"/>
                </g>
              </g>
            </g>
          </g>
          <path id="Path_4250" data-name="Path 4250" class="cls-11" d="M391.378,558.579c-.1-1.075-.228-2.183-.326-3.259-.1,1.075-.228,2.183-.326,3.259h-9.775c-.1-.554-.228-1.075-.326-1.629-.1.554-.228,1.075-.326,1.629h-3.259c.1,2.932.131,6.093,0,9.449-.13,3.225-.358,6.289-.652,9.123-1.01-.1-8.862-1.01-11.73-6.843-1.694-3.421-.977-7.1,0-11.4.88-3.878,1.369-6.061,3.128-8.309,4.2-5.409,11.372-5.865,14.271-6.028,3.78-.228,7.3-.423,10.036,1.792,3.356,2.737,3.454,7.462,3.519,15.8a85.722,85.722,0,0,1-1.467,16.324c-.1-1.923-.13-3.486-.163-4.464-.032-4.464.228-6.614.294-11.86.032-1.727,0-3.128,0-3.91Z" transform="translate(-361.858 -542.145)"/>
          <path id="Path_4251" data-name="Path 4251" class="cls-13" d="M378.257,639.673a16.518,16.518,0,0,1,4.236,3.258,20.119,20.119,0,0,1,4.561,14.663c-.1,1.108-.326,2.281-.326,2.281-.163.652-.228,1.076-.358,1.6,0,0-.358,1.564-.619,3.291a17.807,17.807,0,0,0,0,4.562c.261,2.606.457,7.853.652,16.292a24.489,24.489,0,0,1-4.887,0c-4.627-.456-6.777-1.987-11.73-2.281a21.948,21.948,0,0,0-2.932,0,89.194,89.194,0,0,0,4.236-11.079c1.173-3.812,1.3-5.18,1.3-6.19.033-2.476-.521-3.389-2.281-9.123-2.118-6.875-2.476-8.6-1.955-10.753a8.131,8.131,0,0,1,2.281-4.236c2.313-2.118,5.7-2.248,6.842-2.281Z" transform="translate(-363.725 -597.497)"/>
          <path id="Path_4252" data-name="Path 4252" class="cls-12" d="M435.507,663.335c2.555-4.307,5.744-6.108,9.282-13.857,1.594-3.484,2.11-3.262,2.11-3.262a1.4,1.4,0,0,1,.17.375c.226.8-.352,1.523-.715,3.054-.047.2-.056.264-.018.3.285.246,2.566-1.788,4.11-3.324,1.825-1.815,2.888-3.2,3.708-2.893a.49.49,0,0,1,.282.2c.553.986-3.881,4.432-3.524,4.914a.477.477,0,0,0,.083.071,1.387,1.387,0,0,0,.7.234c.445.091.309.613,1.013,1.232a4.315,4.315,0,0,1,.734.659,2.532,2.532,0,0,1,.278.414c.753,2.347-9.183,7.385-11.524,10.2-.447.515-6.431,5.494-6.828,5.976C434.171,666.373,436.695,664.57,435.507,663.335Z" transform="translate(-403.354 -599.827)"/>
          <path id="Path_4253" data-name="Path 4253" class="cls-13" d="M374.081,643.758c.359.033.75.065,1.108.13,3.682.782,5.8,4.268,6.745,5.832,1.238,2.085,1.271,3,2.281,5.539,1.369,3.389,4.236,10.59,7.82,10.753.749.033,1.434-.261,6.843-5.539,1.922-1.89,3.486-3.454,4.561-4.561.326.2.652.423.977.652a14.7,14.7,0,0,1,3.91,4.236,58.794,58.794,0,0,1-3.584,4.888c-4.659,5.7-7.266,8.9-11.078,9.449-5.441.782-10.231-4.269-11.4-5.539-2.444-2.574-1.173-2.8-6.191-11.176a26.59,26.59,0,0,1-3.388-7.3c-.326-1.271-1.369-5.115.489-6.842A4.139,4.139,0,0,1,374.081,643.758Z" transform="translate(-366.771 -599.872)"/>
        </g>
      </g>
      <g id="Group_1637" data-name="Group 1637" transform="translate(159.164 414.723)">
        <g id="Group_1636" data-name="Group 1636" transform="translate(31.386 0.201)">
          <g id="Group_1635" data-name="Group 1635">
            <path id="Path_4254" data-name="Path 4254" class="cls-20" d="M426.356,621.246c-.137-.081-1.153.75-1.3.715l-13.52,24.76,2.309-.033a10.071,10.071,0,0,0,.647-1.049l12.212-22.712A1.1,1.1,0,0,0,426.356,621.246Z" transform="translate(-411.538 -621.241)"/>
          </g>
        </g>
        <path id="Path_4255" data-name="Path 4255" class="cls-21" d="M384.147,621.659c-.139-.075-1.1-.6-1.214-.9l-13.879,25.647c.022.109-.027.1-.047.039l-32.375.422c-.036.144-.043,1.232-.039,1.394a1.1,1.1,0,0,0,1.262,1.149l30-.385a1.151,1.151,0,0,0,1.122-.626c.007.056.017.091.035.1a1.142,1.142,0,0,0,1.668-.58l13.825-24.535A1.141,1.141,0,0,0,384.147,621.659Z" transform="translate(-336.592 -620.761)"/>
      </g>
      <path id="Path_4256" data-name="Path 4256" class="cls-10" d="M109.748,474.591a64.514,64.514,0,0,1-8.571-2.383l.247-.694a63.451,63.451,0,0,0,8.472,2.352Zm-16.715-5.966a59.279,59.279,0,0,1-7.519-4.763l.441-.592a58.419,58.419,0,0,0,7.425,4.7ZM78.788,458.03a64.852,64.852,0,0,1-5.825-6.723l.59-.444a64.163,64.163,0,0,0,5.758,6.647ZM68.074,443.869a77.718,77.718,0,0,1-3.958-7.972l.678-.29a77.041,77.041,0,0,0,3.921,7.9Zm-7.019-16.33c-.861-2.792-1.6-5.693-2.2-8.621l.723-.148c.6,2.9,1.33,5.781,2.185,8.551Zm-3.583-17.406c-.324-2.929-.52-5.915-.583-8.872l.739-.016c.062,2.937.257,5.9.579,8.806Zm.361-17.708-.737-.05c.2-2.968.541-5.939,1.008-8.828l.729.118C58.369,386.531,58.033,389.479,57.833,392.424Zm2.829-17.391-.714-.188a80.859,80.859,0,0,1,2.741-8.465l.688.266A80.124,80.124,0,0,0,60.662,375.033Zm6.4-16.387-.649-.352a58.831,58.831,0,0,1,4.812-7.5l.588.446A58.009,58.009,0,0,0,67.062,358.646ZM139.3,347.557a88.236,88.236,0,0,1-5.987-6.574l.57-.468a87.647,87.647,0,0,0,5.938,6.518Zm-4.649-2.653a88.086,88.086,0,0,0-7.74-4.225l.32-.666a88.9,88.9,0,0,1,7.805,4.261Zm-56.926-.149-.5-.547a41.153,41.153,0,0,1,7.2-5.261l.367.642A40.326,40.326,0,0,0,77.721,344.755Zm41.029-7.39a53.971,53.971,0,0,0-8.535-2.095l.114-.73a54.835,54.835,0,0,1,8.652,2.124Zm-25.914-1.188-.2-.71a38.332,38.332,0,0,1,8.8-1.438l.034.737A37.593,37.593,0,0,0,92.836,336.178Zm35.269-2.414a54.8,54.8,0,0,1-4.109-7.9l.681-.284a54.079,54.079,0,0,0,4.054,7.8Zm-6.711-16.433a37.983,37.983,0,0,1-.7-7.191q0-.859.041-1.709l.737.035q-.04.832-.039,1.674a37.279,37.279,0,0,0,.686,7.052Zm1.58-17.471-.706-.217a37.884,37.884,0,0,1,3.623-8.152l.635.376A37.15,37.15,0,0,0,122.974,299.86ZM217.5,287a54.593,54.593,0,0,0-6-6.42l.5-.547a55.388,55.388,0,0,1,6.082,6.508Zm-85.735-2.156-.545-.5a50.036,50.036,0,0,1,6.6-5.995l.447.588A49.207,49.207,0,0,0,131.765,284.839Zm72.757-9.6a51.967,51.967,0,0,0-7.782-4.079l.287-.681a52.7,52.7,0,0,1,7.892,4.137Zm-58.855-1.049-.349-.65a61.418,61.418,0,0,1,8.137-3.623l.251.695A60.839,60.839,0,0,0,145.666,274.187Zm42.719-5.758a57.172,57.172,0,0,0-8.686-1.371l.059-.736a58.021,58.021,0,0,1,8.8,1.389Zm-26.208-.227-.152-.722a63.463,63.463,0,0,1,8.825-1.214l.049.737A62.77,62.77,0,0,0,162.177,268.2Z" transform="translate(-14.86 0)"/>
      <path id="Path_4257" data-name="Path 4257" class="cls-4" d="M940.574,454.036c-1.114-6.8,10.029-9.465,12.93-5.324-.929-6.5,4.318-15.015,13.316-15.749,16.989-1.589,12.066,11.034,20.23,11.217,7.459-.141,1.9-10.922,18.866-5.521,4.061,1.207,6.119,5.747,8.99,11.357,5.813-6.4,9.375-2.231,10.443,4.02A300.8,300.8,0,0,1,940.574,454.036Z" transform="translate(-539.206 -118.37)"/>
      <path id="Path_4258" data-name="Path 4258" class="cls-10" d="M781.627,534.52h-.307l.005-.738h.3a46.619,46.619,0,0,0,8.436-.77l.135.727A47.513,47.513,0,0,1,781.627,534.52Zm-9.177-.878a53.45,53.45,0,0,1-8.579-2.417l.259-.692a52.525,52.525,0,0,0,8.458,2.383Zm26.327-2.328-.264-.689a49.553,49.553,0,0,0,7.88-3.878l.385.632A50.567,50.567,0,0,1,798.776,531.314Zm15.2-9.189-.482-.557a53.774,53.774,0,0,0,6.148-6.284l.57.472A54.514,54.514,0,0,1,813.976,522.125Zm11.349-13.67-.638-.372a50.9,50.9,0,0,0,3.764-7.941l.693.256A51.714,51.714,0,0,1,825.326,508.455Zm6.133-16.669-.727-.122a42.18,42.18,0,0,0,.592-6.976c0-.59-.013-1.182-.039-1.771l.738-.033c.025.6.04,1.2.04,1.8A42.79,42.79,0,0,1,831.459,491.787ZM829.9,474.279a36.444,36.444,0,0,0-3.381-8.065l.642-.365a37.23,37.23,0,0,1,3.45,8.229Zm-8.559-15.122a44.9,44.9,0,0,0-6.561-5.815l.435-.6a45.827,45.827,0,0,1,6.671,5.913Zm-14.067-10.385a69.155,69.155,0,0,0-8.1-3.455l.247-.7a70.2,70.2,0,0,1,8.184,3.491Zm-16.547-5.961q-.7-.172-1.408-.333l-.446-.1.194-.414c1.052-2.261,2.072-4.531,3.028-6.747l.678.293c-.9,2.087-1.857,4.223-2.845,6.353q.491.115.974.233Zm5.411-15.512-.687-.267c1.081-2.79,2.1-5.585,3.026-8.31l.7.238C798.244,421.7,797.223,424.5,796.136,427.3Zm5.7-16.805-.709-.2c.829-2.875,1.578-5.753,2.226-8.553l.72.166C803.424,404.716,802.672,407.606,801.838,410.494Zm3.981-17.3-.727-.122c.5-2.954.891-5.9,1.169-8.755l.735.072C806.716,387.263,806.32,390.225,805.819,393.2Zm1.7-17.676-.739-.013q.017-.9.017-1.8c0-2.369-.086-4.729-.256-7.016l.737-.054c.169,2.3.257,4.683.257,7.07Q807.531,374.608,807.516,375.52Zm-2.076-17.57a74.579,74.579,0,0,0-2.062-8.56l.707-.216a75.512,75.512,0,0,1,2.083,8.644Zm-5.171-16.79a62.684,62.684,0,0,0-4.194-7.728l.622-.4a63.626,63.626,0,0,1,4.245,7.82Zm-9.456-14.779a60.919,60.919,0,0,0-6.222-6.21l.483-.559a62.01,62.01,0,0,1,6.3,6.286ZM673.586,316.113l-.311-.668q1.082-.506,2.168-.992l.3.674Q674.665,315.611,673.586,316.113ZM777.55,314.9a68.977,68.977,0,0,0-7.685-4.294l.319-.666a69.959,69.959,0,0,1,7.766,4.339Zm-93.644-3.156-.263-.69c2.769-1.058,5.59-2.042,8.381-2.925l.222.7C689.469,309.708,686.663,310.688,683.905,311.74Zm77.8-4.462a83.725,83.725,0,0,0-8.482-2.4l.164-.719a84.5,84.5,0,0,1,8.557,2.42Zm-60.963-.855-.179-.716c2.883-.722,5.8-1.353,8.676-1.877l.134.726C706.516,305.078,703.612,305.706,700.744,306.423Zm43.8-3.08c-2.861-.369-5.82-.617-8.793-.74l.031-.737c2.994.123,5.975.374,8.858.745Zm-26.427-.078-.082-.734c2.966-.334,5.947-.56,8.859-.672l.029.737C724.023,302.709,721.061,302.934,718.112,303.265Z" transform="translate(-373.112 -20.688)"/>
      <g id="Group_1653" data-name="Group 1653" transform="translate(418.041 369.66)">
        <g id="Group_1650" data-name="Group 1650" transform="translate(4.957)">
          <path id="Path_4259" data-name="Path 4259" class="cls-22" d="M1028.17,739.2c-1.572-3.243-.956-8.1-.1-14.824.542-4.277,1.16-9.128,1.449-14.965l1.6.079c-.292,5.9-.939,10.995-1.458,15.087-.819,6.45-1.411,11.11-.045,13.927Z" transform="translate(-1001.817 -627.219)"/>
          <g id="Group_1639" data-name="Group 1639" transform="translate(20.652 20.311)">
            <g id="Group_1638" data-name="Group 1638">
              <path id="Path_4260" data-name="Path 4260" class="cls-23" d="M1051.8,580.853c.934,4.7,5.356,11.659,2.285,15.592-2.76,3.539-11.186,3.47-13.117,7.727-2.808,6.191,5.721,5.981,1.008,11.664-1.94,2.34-11.876,10.964-14.571,12.336-1.539.783-4.975,5.422-9.122,3.456-9.123-4.32,9.437-64.834,31-69.767C1059.172,559.6,1050.98,576.746,1051.8,580.853Z" transform="translate(-1015.902 -561.656)"/>
            </g>
          </g>
          <g id="Group_1640" data-name="Group 1640" transform="translate(21.966 26.347)">
            <path id="Path_4261" data-name="Path 4261" class="cls-22" d="M1019.845,639.862l-.8-.176c7.567-34.315,16.982-47,26.948-60.422.784-1.06,1.572-2.122,2.361-3.195l.663.486c-.792,1.075-1.579,2.138-2.365,3.2C1036.735,593.106,1027.372,605.72,1019.845,639.862Z" transform="translate(-1019.041 -576.069)"/>
          </g>
          <g id="Group_1641" data-name="Group 1641" transform="translate(35.43 43.545)">
            <path id="Path_4262" data-name="Path 4262" class="cls-22" d="M1064.66,617.963c-5.306-.133-7.836,2.056-11.339,5.086-.513.441-1.043.9-1.605,1.372l-.526-.631c.557-.467,1.084-.923,1.594-1.364,3.507-3.033,6.276-5.428,11.894-5.286Z" transform="translate(-1051.19 -617.135)"/>
          </g>
          <g id="Group_1642" data-name="Group 1642" transform="translate(28.95 59.987)">
            <path id="Path_4263" data-name="Path 4263" class="cls-22" d="M1036.254,662.47l-.536-.621c.621-.531,1.165-1.028,1.645-1.466,2.2-2.015,3.536-3.227,7.629-3.986l.151.807c-3.865.715-5.058,1.806-7.227,3.785C1037.432,661.43,1036.883,661.931,1036.254,662.47Z" transform="translate(-1035.718 -656.396)"/>
          </g>
          <g id="Group_1643" data-name="Group 1643" transform="translate(40.869 29.84)">
            <path id="Path_4264" data-name="Path 4264" class="cls-22" d="M1064.968,595.475l-.79.374c.989-2.014,1.352-5.02,1.654-7.214a35.453,35.453,0,0,1,.759-4.227l.793.213a34.907,34.907,0,0,0-.738,4.126A21.607,21.607,0,0,1,1064.968,595.475Z" transform="translate(-1064.178 -584.409)"/>
          </g>
          <path id="Path_4265" data-name="Path 4265" class="cls-22" d="M1025.1,757.605a111.623,111.623,0,0,1-.291-17.256c.226-5.393.39-9.29-1.167-11.538l1.315-.91c1.861,2.69,1.688,6.81,1.449,12.516a110.18,110.18,0,0,0,.286,17.021Z" transform="translate(-999.746 -637.968)"/>
          <g id="Group_1645" data-name="Group 1645">
            <g id="Group_1644" data-name="Group 1644">
              <path id="Path_4266" data-name="Path 4266" class="cls-24" d="M1001.172,535.433c3.286,4.363,5.928,9.382,4.722,14.939-1.084,5-8.795,17.116-8.669,22.44.181,7.748,8.942,6,6.918,14.167a25.053,25.053,0,0,1-4.592,9.111c-1.191,1.563-2.423,8.026-7.653,8.062-11.505.082-11.456-7.975-14.792-11.58-6.857-7.411-12.745-17.317-9.69-25.33,1.255-3.278,6.75-2.757,7.84-6.085,1-3.047-3.846-11.1-4.01-14.82-.336-7.725,7.141-5.163,6.888-9.191-.549-8.62,9.506-24.3,15.19-23.986C1004.863,513.8,998.3,531.619,1001.172,535.433Z" transform="translate(-966.589 -513.156)"/>
            </g>
          </g>
          <g id="Group_1646" data-name="Group 1646" transform="translate(18.118 11.386)">
            <path id="Path_4267" data-name="Path 4267" class="cls-22" d="M1016.648,619.95l-.918-.234c-9.214-38.965-5.714-56.217-2.129-74.93.282-1.472.565-2.95.842-4.442l.808.15c-.28,1.493-.562,2.971-.843,4.448C1010.842,563.565,1007.474,581.155,1016.648,619.95Z" transform="translate(-1009.853 -540.344)"/>
          </g>
          <g id="Group_1647" data-name="Group 1647" transform="translate(18.248 30.257)">
            <path id="Path_4268" data-name="Path 4268" class="cls-22" d="M1010.91,599.218l-.748-.338c.339-.754.656-1.483.96-2.189,2.093-4.837,3.747-8.657,9.567-11.285l.34.749c-5.533,2.5-7.052,6.005-9.151,10.862C1011.569,597.724,1011.253,598.458,1010.91,599.218Z" transform="translate(-1010.162 -585.406)"/>
          </g>
          <g id="Group_1648" data-name="Group 1648" transform="translate(19.139 52.416)">
            <path id="Path_4269" data-name="Path 4269" class="cls-22" d="M1013.044,648.815l-.753-.33c.374-.851.688-1.632.962-2.32,1.263-3.15,2.027-5.051,5.841-7.847l.486.663c-3.628,2.656-4.313,4.375-5.566,7.49C1013.737,647.163,1013.423,647.95,1013.044,648.815Z" transform="translate(-1012.291 -638.318)"/>
          </g>
          <g id="Group_1649" data-name="Group 1649" transform="translate(16.234 18.755)">
            <path id="Path_4270" data-name="Path 4270" class="cls-22" d="M1009.051,570.266l-.609.952a30.548,30.548,0,0,0-1.777-8.421,39.624,39.624,0,0,1-1.312-4.7l.809-.155a38.59,38.59,0,0,0,1.283,4.609A24.562,24.562,0,0,1,1009.051,570.266Z" transform="translate(-1005.354 -557.939)"/>
          </g>
        </g>
        <g id="Group_1652" data-name="Group 1652" transform="translate(0 96.275)">
          <g id="Group_1651" data-name="Group 1651" transform="translate(3.334 6.633)">
            <path id="Path_4271" data-name="Path 4271" class="cls-6" d="M1007.016,828.49c1.712-36.719,10.364-61.587,10.982-69.6H962.815c-.035,0-.065-.008-.1-.008.617,8.012,5.214,24.724,10.978,69.6Z" transform="translate(-962.712 -758.887)"/>
          </g>
          <path id="Path_4272" data-name="Path 4272" class="cls-9" d="M1015.191,750.314h-59.8s-1.43-5.6,0-5.751a291.927,291.927,0,0,1,59.8,0Z" transform="translate(-954.752 -743.047)"/>
        </g>
      </g>
      <g id="Group_1654" data-name="Group 1654" transform="translate(92.15 444.859)">
        <path id="Path_4273" data-name="Path 4273" class="cls-25" d="M182.457,791.979l24.128-97.037-9.253-2.221-20.761,99.259Z" transform="translate(-176.571 -692.721)"/>
        <path id="Path_4274" data-name="Path 4274" class="cls-25" d="M217.923,746l12.7-51.057-9.253-2.221Z" transform="translate(-200.606 -692.721)"/>
      </g>
      <g id="Group_1655" data-name="Group 1655" transform="translate(158.826 444.859)">
        <path id="Path_4275" data-name="Path 4275" class="cls-25" d="M365.8,791.979l-20.764-99.259-9.251,2.221,24.126,97.037Z" transform="translate(-335.783 -692.721)"/>
        <path id="Path_4276" data-name="Path 4276" class="cls-25" d="M348.477,746l-12.694-51.057,9.251-2.221Z" transform="translate(-335.783 -692.721)"/>
      </g>
      <g id="Group_1658" data-name="Group 1658" transform="translate(218.874 444.859)">
        <g id="Group_1656" data-name="Group 1656" transform="translate(65.211)">
          <path id="Path_4277" data-name="Path 4277" class="cls-25" d="M663.434,791.979l-19.3-99.259-9.25,2.221,24.125,97.037Z" transform="translate(-634.883 -692.721)"/>
          <path id="Path_4278" data-name="Path 4278" class="cls-25" d="M647.578,746l-12.7-51.057,9.25-2.221Z" transform="translate(-634.883 -692.721)"/>
        </g>
        <g id="Group_1657" data-name="Group 1657">
          <path id="Path_4279" data-name="Path 4279" class="cls-25" d="M483.591,791.979l24.126-97.037-9.253-2.221-19.3,99.259Z" transform="translate(-479.169 -692.721)"/>
          <path id="Path_4280" data-name="Path 4280" class="cls-25" d="M517.021,746l12.7-51.057-9.253-2.221Z" transform="translate(-501.169 -692.721)"/>
        </g>
      </g>
      <rect id="Rectangle_368" data-name="Rectangle 368" class="cls-7" width="168.458" height="5.881" transform="translate(173.485 443.092)"/>
      <rect id="Rectangle_369" data-name="Rectangle 369" class="cls-10" width="102.579" height="5.881" transform="translate(83.715 443.092)"/>
      <path id="Path_4281" data-name="Path 4281" class="cls-26" d="M262.544,663c-.178-8.231-.12-15.1-.12-15.1a13.12,13.12,0,0,0-.077-1.37h-7.991C256.348,649.683,262.544,663,262.544,663Z" transform="translate(-129.631 -221.017)"/>
      <path id="Path_4282" data-name="Path 4282" class="cls-7" d="M213.712,650.083c-20-2.138-29.117,1.856-29.117,1.856l2.474,15.745,26.549.2Q213.718,658.977,213.712,650.083Z" transform="translate(-89.085 -222.714)"/>
      <path id="Path_4283" data-name="Path 4283" class="cls-27" d="M209.807,784.933c-7.942-.087-13.462,0-13.462,0l1.684,8.849,11.778.076Z" transform="translate(-95.914 -301.434)"/>
      <rect id="Rectangle_370" data-name="Rectangle 370" class="cls-10" width="41.143" height="5.881" transform="translate(145.151 443.092)"/>
      <g id="Group_1660" data-name="Group 1660" transform="translate(123.798 285.166)">
        <g id="Group_1659" data-name="Group 1659">
          <path id="Path_4284" data-name="Path 4284" class="cls-6" d="M332.134,326.4l-.434-2.987c-.57-3.872-1.157-7.875-1.552-11.908l1.06-.1c.392,4.008.977,8,1.543,11.86l.437,2.987Z" transform="translate(-297.48 -311.398)"/>
          <path id="Path_4285" data-name="Path 4285" class="cls-6" d="M278.554,351.182l-2.517-1.64c-3.287-2.135-6.683-4.342-9.975-6.714l.622-.863c3.27,2.356,6.658,4.558,9.933,6.686l2.519,1.641Z" transform="translate(-260.232 -329.164)"/>
          <path id="Path_4286" data-name="Path 4286" class="cls-6" d="M252.338,404.209l-.2-1.045c3.951-.738,7.867-1.668,11.657-2.566l2.962-.7.244,1.036-2.961.7C260.243,402.533,256.312,403.466,252.338,404.209Z" transform="translate(-252.142 -362.835)"/>
          <path id="Path_4287" data-name="Path 4287" class="cls-6" d="M389.578,351.182l-.583-.89,2.521-1.641c3.273-2.129,6.66-4.331,9.931-6.686l.624.863c-3.294,2.372-6.69,4.579-9.975,6.714Z" transform="translate(-331.683 -329.164)"/>
          <path id="Path_4288" data-name="Path 4288" class="cls-6" d="M413.314,404.209c-3.975-.742-7.9-1.675-11.706-2.577l-2.96-.7.242-1.036,2.963.7c3.79.9,7.706,1.828,11.657,2.566Z" transform="translate(-337.293 -362.835)"/>
        </g>
        <path id="Path_4289" data-name="Path 4289" class="cls-28" d="M332.775,501.661c.017.231,1.308,3.169,1.327,3.4h6.411c-.024-.232.968-3.17.942-3.4C339.326,501.659,334.9,501.659,332.775,501.661Z" transform="translate(-299.007 -421.98)"/>
        <path id="Path_4290" data-name="Path 4290" class="cls-29" d="M305.735,395.461c.647,1.622,1.249,9.646,1.827,11.291H321.2c.632-1.652,1.288-9.682,1.994-11.306,1.552-2.24,8.7-10.553,11.116-18.34,3.262-9.774-5.872-23.575-20.027-23.594-14.111-.123-24.065,12.717-20.812,22.523C295.909,384.167,302.714,391.812,305.735,395.461Z" transform="translate(-275.803 -335.875)"/>
        <path id="Path_4291" data-name="Path 4291" class="cls-10" d="M332.237,423.194c-1.037-5.682-.532-17.63,1.534-26.232a2.3,2.3,0,0,1-.835-.062c-1.293-.345-2.239-1.815-2.913-3.49-.973,2.2-2.161,3.4-3.555,3.6a3.134,3.134,0,0,1-1.625-.221c1.225,8.222,2.548,20.16,2.212,26.352l-.845-.046c.319-5.866-.985-18.192-2.3-26.817a11.835,11.835,0,0,1-3.445-4.4c-.888-1.806-1.635-4.2-.819-4.994l.056-.047a2.026,2.026,0,0,1,1.974-.361c1.454.6,1.944,3.176,2.206,4.56l.012.059c.24,1.267.512,2.868.791,4.687a2.583,2.583,0,0,0,1.66.395c.952-.134,2.157-1.018,3.249-3.946a26.7,26.7,0,0,1-.726-2.841c-.544-2.729.2-4.854,1.213-5.544a1.059,1.059,0,0,1,1.209-.074c.632.409.822,1.521.535,3.131a33.49,33.49,0,0,1-1.341,5.334c.745,2.2,1.681,3.587,2.665,3.848a1.518,1.518,0,0,0,.845-.028,25.286,25.286,0,0,1,2.37-6.233l.158-.272c.526-.911,1.023-1.776,1.716-1.7.591.057.836.769.918,1,.67,1.952-1.977,5.548-2.723,6.4a5.859,5.859,0,0,1-1.706,1.417c-2.1,8.441-2.7,20.681-1.663,26.378Zm5.915-34.5a5.178,5.178,0,0,0-.894,1.272l-.162.278a22.523,22.523,0,0,0-2.039,5.186,6.945,6.945,0,0,0,.743-.741c1.152-1.322,2.992-4.315,2.56-5.572A1.239,1.239,0,0,0,338.152,388.7ZM320.225,387.5c-.216.29-.07,1.812,1,4a12.79,12.79,0,0,0,2.494,3.542c-.222-1.4-.443-2.684-.653-3.793l-.012-.06c-.2-1.051-.666-3.511-1.7-3.935A1.208,1.208,0,0,0,320.225,387.5Zm10.544-3.044a.422.422,0,0,0-.208.083c-.654.445-1.356,2.192-.858,4.678q.169.839.365,1.591a37.545,37.545,0,0,0,.928-4.061c.274-1.538.015-2.159-.161-2.274A.126.126,0,0,0,330.769,384.46Z" transform="translate(-291.175 -353.37)"/>
        <path id="Path_4292" data-name="Path 4292" class="cls-30" d="M322.414,476.287l1.645,1.8c-1.544-.145-1.622,2.319.325,2.437-1.986-.077-2.067,2.464-.127,2.491a1.463,1.463,0,0,0-.191,2.917c-.466.506-.829.9-1.223,1.329,2.51,1.176,16.386,1.1,16.676-.125-.342-.405-.719-.856-1.106-1.314a38.16,38.16,0,0,1-.2-5.278,1.232,1.232,0,0,0,.234-2.433l1.331-1.824Z" transform="translate(-292.985 -407.234)"/>
      </g>
      <g id="Group_1670" data-name="Group 1670" transform="translate(329.787 330.698)">
        <path id="Path_4293" data-name="Path 4293" class="cls-31" d="M899.3,886.785c.8.658,4.2,3.563,3.659,6.661-.164.931-.477.7-5.427,5.649a17.481,17.481,0,0,1-4.847,3.393c-.235.1-.392.158-.46.178-.685.2-1.593.191-4.364.087-3.741-.141-4.5-.2-5.16-.894-.593-.626-1.091-1.761-.691-2.4.631-1,2.869.228,5.575-.911a7.7,7.7,0,0,0,2.227-1.527,15.363,15.363,0,0,0,4.334-6.927A5.864,5.864,0,0,0,899.3,886.785Z" transform="translate(-824.136 -691.353)"/>
        <path id="Path_4294" data-name="Path 4294" class="cls-31" d="M795.548,903.6s-11.587,4.506-17.809,4.72c0,0-7.295-.644,11.587-9.226,0,0,3,2.789,6.437,1.5Z" transform="translate(-762.81 -698.509)"/>
        <path id="Path_4295" data-name="Path 4295" class="cls-24" d="M805.512,655.7c-1.768,10.363-3.25,21.4-4.3,33.048a422.04,422.04,0,0,0-.289,72.046l8.025.673c-.031-9.135.323-18.943,1.239-29.326a321.926,321.926,0,0,1,8.895-51.855l3.189-24.586Z" transform="translate(-776.279 -557.046)"/>
        <path id="Path_4296" data-name="Path 4296" class="cls-24" d="M828.87,666.267a211.813,211.813,0,0,0,35.1,99.692l6.5-6.156a153.083,153.083,0,0,1-19.391-94.7Z" transform="translate(-793.333 -562.506)"/>
        <g id="Group_1661" data-name="Group 1661" transform="translate(3.033 15.607)">
          <path id="Path_4297" data-name="Path 4297" class="cls-32" d="M751.257,471.14a13.436,13.436,0,0,0,1.594-2.737,10.469,10.469,0,0,0,1.006-3.691c.094-1.584-.327-2.1-.286-4.639a3.109,3.109,0,0,1,.592-1.98c.179-.222.623-.774,1.049-.7.647.118.488,1.552,1.392,4.461a11.773,11.773,0,0,1,.752,3.063,8.942,8.942,0,0,1-.049,1.748c-.15,1.272-.012,3.961,1.109,10.011-.249-.036-.489-.082-.72-.138C754.4,475.746,752.335,472.976,751.257,471.14Z" transform="translate(-751.257 -457.388)"/>
        </g>
        <path id="Path_4298" data-name="Path 4298" class="cls-32" d="M748.654,488.8a7.268,7.268,0,0,1-2.719-1.89c-.759-.857-.836-1.387-1.82-8.137-.1-.713-.289-1.979.428-2.623a1.667,1.667,0,0,1,.91-.375c2.009-.315,4.215-.662,4.711.268.434.814-.958,1.649-1.553,4.764a5.185,5.185,0,0,0-.165,1.272c.271,3.022,5.95,4.095,5.8,5.323C754.184,487.9,753.168,488.488,748.654,488.8Z" transform="translate(-744.014 -452.275)"/>
        <g id="Group_1662" data-name="Group 1662" transform="translate(0.076 34.798)">
          <path id="Path_4299" data-name="Path 4299" class="cls-33" d="M771.74,524.551c-1.74,1.549-13.785,12.235-16.814,13.188-.464.146-1.7.534-2.355-.053a1.683,1.683,0,0,1-.441-1.237c-.045-2.42,2.678-30.338,2.961-33.235-1.119.126-2.345.333-3.664.6a27.775,27.775,0,0,0-3.58.976c-1.108,6.8-1.894,12.642-2.45,17.206-1.892,15.539-1.717,21.2,1.713,23.553a7.548,7.548,0,0,0,1.927.857c2.733.966,7.491,1.849,17.539-1.662a73.182,73.182,0,0,0,17.009-8.609,13.735,13.735,0,0,0-3.215-7.036A13.994,13.994,0,0,0,771.74,524.551Z" transform="translate(-744.195 -503.214)"/>
        </g>
        <path id="Path_4300" data-name="Path 4300" class="cls-32" d="M846.763,534.172c.575-1.474-.131-2.519-.8-5.791a34.5,34.5,0,0,1-.673-5.648,29.316,29.316,0,0,1-7.862-.009q-.151,1.876-.338,3.794c-.137,1.4-.276,2.7-.413,3.879-.152,1.318-.3,2.525-.445,3.606a6.111,6.111,0,0,0,5.473,3.292A5.619,5.619,0,0,0,846.763,534.172Z" transform="translate(-797.614 -479.756)"/>
        <path id="Path_4301" data-name="Path 4301" class="cls-32" d="M817.412,549.657l-2.8.423-1.255.191c-1.432.222-4.495.7-6.3,1.9-2.545,1.695-3.077,5.17-3.21,6.607.165.065.4.165.673.3a9.11,9.11,0,0,1,1.322.826c4.809,3.684,3.6,11.3,3.518,11.8a51.257,51.257,0,0,1,.82,23.77,34.215,34.215,0,0,0,25.14.838,60.919,60.919,0,0,1,2.318-24.96c-1.068-4.8.135-9.343,3.207-11.566a7.914,7.914,0,0,1,3.623-1.4,7.82,7.82,0,0,0-.352-2.083,8.995,8.995,0,0,0-2.181-3.447c-1.427-1.339-4.394-1.755-10.27-2.532l-3.728-.493" transform="translate(-778.791 -495.41)"/>
        <path id="Path_4302" data-name="Path 4302" class="cls-34" d="M842.862,558.247a7.812,7.812,0,0,0-.352-2.083,8.993,8.993,0,0,0-2.181-3.447c-1.427-1.339-4.394-1.755-10.27-2.532l-3.728-.493a5.155,5.155,0,0,1-2.438,4.713,5.355,5.355,0,0,1-4.924.093,5.809,5.809,0,0,1-3.153-5.072c-.574.066-1.46.17-2.547.3-.433.052-1.111.134-1.94.237-3.294.408-4.941.612-5.173.675-3.394.92-5.173,8.327-5.07,14.347.064,3.731.794,3.575,1.916,11.71.154,1.115.669,4.9.994,9.793.229,3.45.408,7.984.284,13.343a71.883,71.883,0,0,0,30.773.529,162.388,162.388,0,0,1-.115-18.65c.216-4.135.226-1.153,1.093-10.495.592-6.384.76-9.63,3.207-11.566A7.07,7.07,0,0,1,842.862,558.247Z" transform="translate(-777.183 -495.276)"/>
        <path id="Path_4303" data-name="Path 4303" class="cls-32" d="M834.28,455.918c-.167-5.026-.251-7.539-.367-8.093-1.247-5.938-7.573-12.554-14.341-12.38-9.157.234-14.178,12.767-14.959,19.907a28.143,28.143,0,0,0,.657,9.144c.691,2.736,1.465,5.8,3.931,8.3,3.575,3.63,8.312,3.648,10.476,3.658,2.214.01,7.844.062,11.414-4.221a15.7,15.7,0,0,0,3.015-7.55C834.373,463.269,834.481,461.927,834.28,455.918Z" transform="translate(-779.159 -429.026)"/>
        <g id="Group_1663" data-name="Group 1663" transform="translate(25.114 31.226)">
          <path id="Path_4304" data-name="Path 4304" class="cls-35" d="M806.036,501.092a7.663,7.663,0,0,1,.751.217c.2.072.489.182.918.328.1.034.175.112.239.067.559-.4.286-1.524.79-2.125a1.449,1.449,0,0,1,1.031-.429c1.229-.075,2.13.076,3.531.1.9.013,2.31-.147,3.449-.146.544,0,1.565-.041,2.064.527a4.235,4.235,0,0,1,.795,1.426,1.954,1.954,0,0,0,.39.811c.177.183.55.146.649.138a7.983,7.983,0,0,0,1.568-.086c1.748-.464,2.97-.974,3.948-2.685.636-1.112.358-2.593.477-3.9.01-.1-.033-.327.129-.44a1.167,1.167,0,0,1,1.182-.092c.243,1.426.076,3.95.149,5.189.1,1.729.474,4.331.186,5.49a7.805,7.805,0,0,1-1.729,3.4c-2.495,2.784-6.383,3.021-10.868,3.227a37.108,37.108,0,0,1-5.65-.447,5.853,5.853,0,0,1-3.667-1.3,4.791,4.791,0,0,1-.97-1.369,7.511,7.511,0,0,1-.5-2.508c-.06-.6-.057-.8-.095-1.325-.063-.865-.15-1.392-.4-2.957-.39-2.427-.6-3.777-.236-5.37.007-.033.15-.655.3-.647C804.858,496.208,804.824,500.7,806.036,501.092Z" transform="translate(-803.982 -494.684)"/>
        </g>
        <path id="Path_4305" data-name="Path 4305" class="cls-36" d="M818.025,510.387a3.434,3.434,0,0,0,1.313,1.581c1.629,1.01,4.253.427,6.393-1.594Z" transform="translate(-787.03 -472.578)"/>
        <path id="Path_4306" data-name="Path 4306" class="cls-36" d="M820.752,501.849c-.447.008-.863-.007-1.243-.036a2.233,2.233,0,0,0,1.481.416,2.207,2.207,0,0,0,1.189-.484A13.161,13.161,0,0,1,820.752,501.849Z" transform="translate(-787.893 -467.562)"/>
        <path id="Path_4307" data-name="Path 4307" class="cls-35" d="M816.154,439.742c-2.164-1.581-4.172,1.995-10.129,1.688-5.435-.279-7.831-2.511-10.574-1.062a5.032,5.032,0,0,1-3.336.781,4.018,4.018,0,0,1-1.774-.851,14.847,14.847,0,0,1-1.151-5.948,19.054,19.054,0,0,1,1.477-6.472,16.167,16.167,0,0,1,1.641-3.755c2.577-3.669,8.094-3.915,9.614-3.983,4.521-.2,5.543,1.344,8.849,2.486a20.435,20.435,0,0,0,4.586.961c3.992.5,5.8.1,8.19.6a15.509,15.509,0,0,1,4.914,1.986,28.926,28.926,0,0,1-1.76,19.4,29.79,29.79,0,0,0-.585,3.122,64.932,64.932,0,0,1-.763,6.506c-.1.474-.2.858-.262,1.1q-.44-.012-.9-.037c-.786-.044-1.535-.116-2.245-.209q-.209-2.114-.416-4.227a8.351,8.351,0,0,0,.71-5.464c-.107-.432-.427-1.555-.958-1.6-.83-.067-1.618,2.56-1.671,2.74a9.892,9.892,0,0,0-.182,4.657l-1.384-.4a28.6,28.6,0,0,0,.114-3.414C818.06,444.566,817.968,441.067,816.154,439.742Z" transform="translate(-770.269 -420.122)"/>
        <path id="Path_4308" data-name="Path 4308" class="cls-8" d="M830.862,485.578c.071.536,1.191.969,2.081.941,1.116-.028,2.327-.794,2.244-1.362-.1-.683-2.014-1.334-3.415-.592C831.632,484.636,830.794,485.1,830.862,485.578Z" transform="translate(-794.489 -457.386)"/>
        <g id="Group_1666" data-name="Group 1666" transform="translate(36.368 26.849)">
          <g id="Group_1665" data-name="Group 1665" class="cls-37">
            <g id="Group_1664" data-name="Group 1664" transform="translate(0.485 0.132)">
              <ellipse id="Ellipse_222" data-name="Ellipse 222" class="cls-11" cx="0.794" cy="0.945" rx="0.794" ry="0.945"/>
            </g>
          </g>
        </g>
        <path id="Path_4310" data-name="Path 4310" class="cls-8" d="M811.741,486.387a1.219,1.219,0,0,0,.89,1.06,1.38,1.38,0,0,0,1.521-1.374c-.139-.611-1.362-.818-1.863-.675a.745.745,0,0,0-.211.1A1.089,1.089,0,0,0,811.741,486.387Z" transform="translate(-783.375 -458.036)"/>
        <g id="Group_1669" data-name="Group 1669" transform="translate(28.219 27.3)">
          <g id="Group_1668" data-name="Group 1668" class="cls-38">
            <g id="Group_1667" data-name="Group 1667" transform="translate(0.337 -0.074)">
              <ellipse id="Ellipse_223" data-name="Ellipse 223" class="cls-11" cx="0.624" cy="0.913" rx="0.624" ry="0.913"/>
            </g>
          </g>
        </g>
        <path id="Path_4312" data-name="Path 4312" class="cls-32" d="M865.106,480.176a4.952,4.952,0,0,0-.723-2.377c-.326-.509-.843-1.315-1.444-1.3-1.064.024-2.142,2.614-2.134,4.939.008,2.292,1.071,4.6,1.87,4.594a1.263,1.263,0,0,0,.58-.24,2.042,2.042,0,0,0,.742-1.04C864.814,482.556,865.222,481.459,865.106,480.176Z" transform="translate(-811.895 -452.888)"/>
        <path id="Path_4313" data-name="Path 4313" class="cls-32" d="M898.969,681.753c-.8,1.954-1.473,3.6-2.046,4.958a4.7,4.7,0,0,0-.411,1.717,3.722,3.722,0,0,0,.579,2.31,3.856,3.856,0,0,0,2.744,1.288c1.624.248,4.438.071,5.753-1.8a6.63,6.63,0,0,0,.892-2.273,9.263,9.263,0,0,0,.255-2.173c.017-1.549.135-3.874.353-7.145l-4.173-.944Z" transform="translate(-832.645 -569.826)"/>
        <path id="Path_4314" data-name="Path 4314" class="cls-32" d="M896.324,676.158a5.111,5.111,0,0,1-2.135,2.129,10.132,10.132,0,0,0-3.069,1.825,24.111,24.111,0,0,1-2.794,2.142c-.551.315.258,1.581,1.785.9s2.3-1.156,2.866-1.127,6.233.766,6.434-5.494Z" transform="translate(-827.79 -568.934)"/>
        <path id="Path_4315" data-name="Path 4315" class="cls-33" d="M883.843,575.439c.726,1.117,1.68,2.677,2.677,4.6A53.7,53.7,0,0,1,891.461,594a52.216,52.216,0,0,1,.832,14.661l7.774,1.28a65.679,65.679,0,0,0,.8-19.837,67.218,67.218,0,0,0-12.205-31.422,9.134,9.134,0,0,0-2.141,1.445C881.312,564.864,883.539,574.232,883.843,575.439Z" transform="translate(-824.859 -500.656)"/>
      </g>
      <g id="Group_1678" data-name="Group 1678" transform="translate(91.868 367.278)">
        <path id="Path_4316" data-name="Path 4316" class="cls-31" d="M342.955,922.69s11.44,2.629,17.283,1.981c0,0,6.728-1.6-12.084-7.039,0,0-2.426,3.016-5.809,2.281Z" transform="translate(-272.64 -745.861)"/>
        <path id="Path_4317" data-name="Path 4317" class="cls-39" d="M280.033,753.359c-3.921-2.587-14.971-4.2-16.958-4.481l-26.757-3.69c-9.336,4.284-13.454,6.209-14.1,6.563-.057.031-.3.154-.633.29a5.177,5.177,0,0,1-1.667.315,13.037,13.037,0,0,0-4.883,1.332,21.256,21.256,0,0,0,6.666,9.028c4.765,3.646,9.838,3.933,16.409,4.215,12.532.536,28.368-2.809,29.276-2.9.026,0,.505-.052,1.109-.124h0c.806-.1,1.163-.154,2.452-.288,1.143-.118,2.614-.24,4.977-.369,3.276-.18,4.525-.17,5.533-1.232,1.666-1.754,1.468-5.312-.081-7.394A5.334,5.334,0,0,0,280.033,753.359Z" transform="translate(-198.644 -645.635)"/>
        <g id="Group_1671" data-name="Group 1671" transform="translate(69.345 107.044)">
          <path id="Path_4318" data-name="Path 4318" class="cls-39" d="M342.537,769.654c-.729,13.173-1.111,26.935-1.047,41.24q.044,9.783.354,19.2a10.7,10.7,0,0,0,2.185.855,10.94,10.94,0,0,0,4.9.154c1.006-10.474,2.127-21.044,3.405-31.462,1.2-9.821,2.527-19.4,3.857-29.2.334-2.038-.1-4.584-1.717-5.876-2.271-1.814-4.929-2.09-7.171-.119-.133.116-.254.233-.368.352a6.41,6.41,0,0,0-.868,1.137A26.269,26.269,0,0,1,342.537,769.654Z" transform="translate(-341.483 -763.075)"/>
        </g>
        <path id="Path_4319" data-name="Path 4319" class="cls-31" d="M273.25,921.22c2.343-.005,4.894-.118,7.617-.4a76.548,76.548,0,0,0,10.7-1.869s6.15-3.161-13.418-3.94a4.926,4.926,0,0,1-1.249,1.766,5.243,5.243,0,0,1-3.589,1.262Z" transform="translate(-232.481 -744.34)"/>
        <g id="Group_1672" data-name="Group 1672" transform="translate(40.477 107.044)">
          <path id="Path_4320" data-name="Path 4320" class="cls-39" d="M273.606,769.654c-.729,13.173-1.111,26.935-1.047,41.24q.044,9.783.354,19.2a10.7,10.7,0,0,0,2.185.855,10.94,10.94,0,0,0,4.9.154c1.006-10.474,2.127-21.044,3.405-31.462,1.2-9.821,2.527-19.4,3.857-29.2.334-2.038-.1-4.584-1.717-5.876-2.271-1.814-4.929-2.09-7.171-.119-.133.116-.254.233-.368.352a6.413,6.413,0,0,0-.868,1.137A26.266,26.266,0,0,1,273.606,769.654Z" transform="translate(-272.552 -763.075)"/>
        </g>
        <g id="Group_1673" data-name="Group 1673" transform="translate(64.834 66.436)">
          <path id="Path_4321" data-name="Path 4321" class="cls-32" d="M347.5,669.279a2.655,2.655,0,0,1,1.082,1.194c.183.7.238,1.888-.673,2.041s-1.634-.877-2.775-1.095a7.893,7.893,0,0,0-3.342-.193,3.149,3.149,0,0,0-.844.443,8.654,8.654,0,0,0-1.369,1.168c-.877.794-4.015.728-5.323.178-.729.194-1.355.348-2.031.587a.691.691,0,0,0-.021-.1c-.5-1.656-.961-3.317-1.49-4.963a23.971,23.971,0,0,1,3.481-.26,12.329,12.329,0,0,0,4.9-2.166c1.981-.075,3.117.829,4.919,1.587A23.38,23.38,0,0,1,347.5,669.279Z" transform="translate(-330.712 -666.108)"/>
        </g>
        <path id="Path_4322" data-name="Path 4322" class="cls-40" d="M216.171,645.514c7,3.022,13.055,5.18,17.669,6.683,12.154,3.96,16.95,4.254,20.236,4.168a42.571,42.571,0,0,0,9.647-1.352s1.408.743,3.014,5.921a64.167,64.167,0,0,1-7.9,2.43,67.471,67.471,0,0,1-15.831,1.671c-12.926-.251-23.592-4.949-28.153-7.176a7.5,7.5,0,0,1-2.649-7.253A7.712,7.712,0,0,1,216.171,645.514Z" transform="translate(-196.915 -587.703)"/>
        <path id="Path_4323" data-name="Path 4323" class="cls-41" d="M222.528,648.018a41.631,41.631,0,0,1,4.146,4.858,36.282,36.282,0,0,1,4.23,7.287c1.508,3.769,1.005,6.533,0,15.286-.377,3.225-.879,8.208-1.424,14.49a28.548,28.548,0,0,1-3.112.863,31.11,31.11,0,0,1-15.818-.863,26.282,26.282,0,0,0,1.382-8.795c-.084-5.4-1.843-6.575-3.308-13.443-.126-.544-2.387-11.433.754-18.05a10,10,0,0,1,3.853-4.565,10.478,10.478,0,0,1,2.932-1.173,3.512,3.512,0,0,0,.335,1.591C217.293,647.264,219.68,648.227,222.528,648.018Z" transform="translate(-194.393 -586.773)"/>
        <path id="Path_4324" data-name="Path 4324" class="cls-40" d="M217.628,648.018c.461.419,1.173,1.047,2.052,1.885,7.538,7.077,8.459,9.423,8.795,10.553a19.143,19.143,0,0,1,.419,4.607c.126,4.439-.586,5.947-.838,10.051-.029.52-.043.925-.041,1.323.015,3.62-.107,5.47.46,7.472a12.932,12.932,0,0,0,1.145,2.756,23.879,23.879,0,0,1-5.743,4.05c-1.037.518-3.4,1.6-13.242,3.328-2.029.357-3.689.62-4.752.783-.434-2.584-1.095-6.489-1.918-11.247-.917-5.3-1.8-10.6-2.7-15.9-2.192-12.855-2.862-16.628-.427-19.789a10.261,10.261,0,0,1,5.025-3.35h.838a9.258,9.258,0,0,0,3.225-.209,11.776,11.776,0,0,0,1.3-.419A8.335,8.335,0,0,0,217.628,648.018Z" transform="translate(-189.494 -586.773)"/>
        <path id="Path_4325" data-name="Path 4325" class="cls-32" d="M238.821,557.977a25.113,25.113,0,0,1,3.057,9.088,14.052,14.052,0,0,0,1.34,5.36c.251.544.8,1.508.419,2.094-.251.377-.838.419-1.256.419-.544,2.722-.838,4.9-1.005,6.366,0,0-.628,5.57-2.3,6.91-.084.084-.168.126-.251.209a3.3,3.3,0,0,1-2.261.335c-1.173-.168-4.69-.293-9.632-.419a18.629,18.629,0,0,0-.5,3.057c-.042.67-.042,1.214-.042,1.591a23.847,23.847,0,0,0,.209,3.476,14.963,14.963,0,0,1-8.962-3.434,35.05,35.05,0,0,0,1.382-4.02,38.193,38.193,0,0,0,1.131-5.277s-8.711-4.984-4.355-11.224c3.35-4.1,5.4,0,5.4,0a21.327,21.327,0,0,1,8.711-17.3C229.859,555.172,235.722,558.4,238.821,557.977Z" transform="translate(-198.374 -535.219)"/>
        <path id="Path_4326" data-name="Path 4326" class="cls-8" d="M265.278,583.238c-.042.5.67,1.047,1.3,1.131.754.084,1.675-.461,1.675-1.005a1.593,1.593,0,0,0-2.22-.963C265.906,582.484,265.278,582.778,265.278,583.238Z" transform="translate(-227.846 -550.931)"/>
        <g id="Group_1677" data-name="Group 1677" transform="translate(37.43 31.336)">
          <g id="Group_1676" data-name="Group 1676">
            <g id="Group_1675" data-name="Group 1675" class="cls-42">
              <g id="Group_1674" data-name="Group 1674" transform="translate(1.131 0.458)">
                <ellipse id="Ellipse_224" data-name="Ellipse 224" class="cls-11" cx="0.838" cy="0.586" rx="0.838" ry="0.586" transform="translate(0 1.665) rotate(-83.662)"/>
              </g>
            </g>
          </g>
        </g>
        <path id="Path_4328" data-name="Path 4328" class="cls-43" d="M267.748,610.781c.042,1.173-.335,1.633-.544,1.8-1.005.921-3.6.251-6.324-1.968Z" transform="translate(-225.291 -567.418)"/>
        <path id="Path_4329" data-name="Path 4329" class="cls-44" d="M228.49,523.444a3.343,3.343,0,0,0,.461-3.811,3.129,3.129,0,0,0-1.633-1.3c.167-1.3,0-2.764-1.8-2.806.8-1.214-.419-2.136-1.466-2.136.67-1.843-2.136-3.141-4.313-2.513a4.414,4.414,0,0,0-3.35-.754c-.419-1.005-2.848-1.466-3.685-.838a3.226,3.226,0,0,0-4.4-1.215c-.084.042-.168.126-.251.168-.419-.67-1.968-1.3-2.429-.084-3.015-1.508-4.984-.251-5.7,1.131-.838-.628-3.6-.754-4.062.251-.419-.754-3.183-.084-3.015,1.382-2.136-.628-4.984.67-4.313,2.513-1.047,0-3.1.921-2.345,2.136-2.345-.293-2.764,1.968-2.6,3.267-2.848-.754-5.277,2.052-4.062,4.062-1.215.084-1.885,2.764-.963,3.643-2.932.67-1.55,5.737-.712,6.491-1.214-.544-3.35,2.22-.67,3.518-1.633,2.513.67,6.24,3.183,6.575-.251.461-.168,2.052,1.885,2.513-1.382,1.968,1.382,3.978,3.518,4.188a1.525,1.525,0,0,0,1.382,1.926c-1.633,1.843,1.214,3.057,2.848,3.183-.963.921,1.047,2.3,2.178,1.382.838.042,1.34-.125,1.591-.461.377.67,1.005,1.131,2.3.377,1.424.335,2.555-1.8,1.3-2.178,1.382-.879,3.392-3.225,1.089-4.146a1.478,1.478,0,0,0,.377-2.3c1.8-1.173,3.392-4.188,1.256-5.319,1.633-1.34,1.005-2.806.544-3.1a3.05,3.05,0,0,0,1.968-3.057,1.57,1.57,0,0,0,.879,0,1.46,1.46,0,0,0,.879-1.34h2.848a9.294,9.294,0,0,0,2.6-1.005,1.851,1.851,0,0,0,1.005.461c1.717.963,4.1,1.173,4.565-.754,1.717,1.256,2.973.251,3.141-.251,1.885,1.675,6.24.963,7.036-1.926,2.722,1.173,3.392-2.261,2.178-2.848a2.681,2.681,0,0,0,1.926-3.225A2,2,0,0,0,228.49,523.444Z" transform="translate(-175.899 -507.469)"/>
        <path id="Path_4330" data-name="Path 4330" class="cls-32" d="M204.271,661.166a11.979,11.979,0,0,1-.293-4.23,12.864,12.864,0,0,1,3.685-7.622c3.392,3.895,6.407,6.868,8.627,8.962,6.282,5.9,13.569,12.564,24.457,17.338a60.791,60.791,0,0,0,8.543,3.015c1.3-.251,2.638-.544,4.02-.754,1.005-.168,2.01-.335,2.973-.461,0,.293.042.628.042.921-.419.251-.963.628-.879.838s.628.126.8.126a4.278,4.278,0,0,0,2.178-.963c2.345-1.717,2.429-1.926,2.806-1.885,1.047.084,2.052,1.759,1.926,3.225a3.866,3.866,0,0,1-1.089,2.178,6.263,6.263,0,0,1-2.01,1.424,18.975,18.975,0,0,1-4.23,1.549l-5.863-1.173h0c-2.3-.126-4.565-.335-6.868-.67a61.642,61.642,0,0,1-26.928-10.47A59.977,59.977,0,0,1,204.271,661.166Z" transform="translate(-192.176 -589.911)"/>
        <path id="Path_4331" data-name="Path 4331" class="cls-40" d="M206.655,647.914c2.01,2.052,5.067,5.193,9,8.794,7.873,7.2,12.48,11.433,19.432,14.867a55.451,55.451,0,0,0,13.276,4.607s1.005,1.214.544,6.617a60.961,60.961,0,0,1-46.527-23.284,12.349,12.349,0,0,1,1.675-8.92A12.118,12.118,0,0,1,206.655,647.914Z" transform="translate(-191.168 -589.098)"/>
      </g>
      <g id="Group_1679" data-name="Group 1679" transform="translate(94.706 493.57)">
        <rect id="Rectangle_371" data-name="Rectangle 371" class="cls-10" width="1.156" height="50.659" transform="translate(24.462)"/>
        <rect id="Rectangle_372" data-name="Rectangle 372" class="cls-10" width="50.678" height="1.155" transform="translate(0 50.394) rotate(-61.815)"/>
        <rect id="Rectangle_373" data-name="Rectangle 373" class="cls-10" width="1.155" height="50.677" transform="translate(25.114 6.277) rotate(-28.215)"/>
      </g>
      <path id="Path_4332" data-name="Path 4332" class="cls-7" d="M207.888,649.636c-15.937-.878-23.293,2.32-23.293,2.32l2.474,15.745,20.819.158Z" transform="translate(-89.085 -222.732)"/>
      <path id="Path_4333" data-name="Path 4333" class="cls-7" d="M248.518,794.09l-50.489-.312-1.684-8.849s25.667-.352,40.307,1.152,11.611,4.173,11.611,4.173Z" transform="translate(-95.914 -301.433)"/>
      <path id="Path_4334" data-name="Path 4334" class="cls-10" d="M241.334,799.786,183.542,799l1.9,4.776,56.229-.1Z" transform="translate(-88.473 -309.634)"/>
      <path id="Path_4335" data-name="Path 4335" class="cls-45" d="M202.511,799.259,183.542,799l1.9,4.776,17.067-.029Z" transform="translate(-88.473 -309.634)"/>
      <path id="Path_4336" data-name="Path 4336" class="cls-10" d="M219.764,729.246a7.869,7.869,0,0,1-4.9-1.525c-4.8-3.647-4.876-12.816-4.94-20.906-.013-1.573-.025-3.08-.074-4.465-.085-2.377.013-4.94.124-7.908a201.788,201.788,0,0,0-.513-26.878l1.15-.1a202.922,202.922,0,0,1,.518,27.019c-.111,2.945-.208,5.488-.124,7.823.05,1.395.062,2.914.075,4.5.059,7.437.132,16.69,4.483,19.995,1.859,1.413,4.355,1.668,7.623.787l.3,1.115A14.288,14.288,0,0,1,219.764,729.246Z" transform="translate(-103.539 -233.184)"/>
    </g>
  </g>
</svg>
