<svg xmlns="http://www.w3.org/2000/svg" xmlns:xlink="http://www.w3.org/1999/xlink" width="700.265" height="429.793" viewBox="0 0 700.265 429.793">
  <defs>
    <linearGradient id="linear-gradient" y1="0.5" x2="1" y2="0.5" gradientUnits="objectBoundingBox">
      <stop offset="0" stop-color="#23bed0"/>
      <stop offset="0.552" stop-color="#23dbd0"/>
    </linearGradient>
    <clipPath id="clip-path">
      <path id="Path_4247" data-name="Path 4247" d="M411.722,589.817c-.1.638-1.472,1.177-2.6,1.129-1.373-.049-2.845-.982-2.747-1.718.148-.834,2.5-1.619,4.22-.687C410.741,588.689,411.771,589.229,411.722,589.817Z" transform="translate(-406.37 -588.12)" fill="none"/>
    </clipPath>
    <clipPath id="clip-path-2">
      <path id="Path_4249" data-name="Path 4249" d="M430.872,590.371a1.575,1.575,0,0,1-1.865,1.276,1.532,1.532,0,0,1-1.324-1.668c.2-.785,1.373-.932,1.864-.883a2.087,2.087,0,0,1,.54.1A1.275,1.275,0,0,1,430.872,590.371Z" transform="translate(-427.66 -589.087)" fill="none"/>
    </clipPath>
    <clipPath id="clip-path-3">
      <path id="Path_4309" data-name="Path 4309" d="M830.863,486.279c.114.807,1.794,1.447,3.145,1.4,1.681-.06,3.5-1.2,3.36-2.081-.155-1.029-3.049-1.985-5.148-.855C832.011,484.856,830.755,485.537,830.863,486.279Z" transform="translate(-830.857 -484.232)" fill="none"/>
    </clipPath>
    <clipPath id="clip-path-4">
      <path id="Path_4311" data-name="Path 4311" d="M811.4,486.887a1.916,1.916,0,0,0,2.248,1.542,1.859,1.859,0,0,0,1.6-2.009c-.233-.933-1.657-1.136-2.3-1.106a1.576,1.576,0,0,0-.64.137A1.625,1.625,0,0,0,811.4,486.887Z" transform="translate(-811.397 -485.311)" fill="none"/>
    </clipPath>
    <clipPath id="clip-path-5">
      <path id="Path_4327" data-name="Path 4327" d="M265.278,583.82c-.063.757,1.009,1.576,1.955,1.639,1.135.126,2.522-.694,2.522-1.513,0-.946-1.766-2.207-3.342-1.387C266.224,582.622,265.278,583.126,265.278,583.82Z" transform="translate(-265.276 -582.294)" fill="none"/>
    </clipPath>
  </defs>
  <g id="conferencia" transform="translate(-32.591 -266.265)">
    <path id="Path_4337" data-name="Path 4337" d="M326.728,268.51C146.28,268.51,0,275.681,0,284.525s146.28,16.021,326.728,16.021,326.727-7.171,326.727-16.021S507.175,268.51,326.728,268.51Z" transform="translate(67.108 395.512)" fill="#8b3360"/>
    <path id="Path_4222" data-name="Path 4222" d="M32.671,490.025c-1.151-11.432,10.372-15.906,13.373-8.948-.962-10.915,4.465-25.231,13.771-26.465,17.566-2.67,12.473,18.541,20.918,18.849,7.713-.236,1.963-18.354,19.507-9.276,4.2,2.027,6.329,9.658,9.3,19.086,6.01-10.747,9.7-3.748,10.8,6.755A193.023,193.023,0,0,1,32.671,490.025Z" transform="translate(0 -69.495)" fill="url(#linear-gradient)"/>
    <g id="Group_1618" data-name="Group 1618" transform="translate(294.64 314.787)">
      <rect id="Rectangle_358" data-name="Rectangle 358" width="285.879" height="213.462" transform="translate(0 0.122)" fill="#e6e6e6"/>
      <rect id="Rectangle_359" data-name="Rectangle 359" width="285.879" height="25.584" fill="#fdac19"/>
      <rect id="Rectangle_360" data-name="Rectangle 360" width="246.941" height="127.752" transform="translate(19.469 44.288)" fill="#0086ca"/>
      <g id="Group_1609" data-name="Group 1609" transform="translate(100.433 61.375)">
        <path id="Path_4223" data-name="Path 4223" d="M692.45,483.066a42.508,42.508,0,1,1-42.5-42.52A42.511,42.511,0,0,1,692.45,483.066Z" transform="translate(-607.435 -440.546)" fill="#fff"/>
        <path id="Path_4224" data-name="Path 4224" d="M693.381,495.277,655.872,473.6v43.345l37.509-21.669L655.872,473.6v43.345Z" transform="translate(-625.329 -452.757)" fill="#fe6a3c"/>
      </g>
      <g id="Group_1615" data-name="Group 1615" transform="translate(18.793 9.451)">
        <g id="Group_1614" data-name="Group 1614">
          <g id="Group_1613" data-name="Group 1613">
            <g id="Group_1610" data-name="Group 1610" transform="translate(13.036)">
              <path id="Path_4225" data-name="Path 4225" d="M498.639,361.541a3.342,3.342,0,1,0,3.342-3.34A3.351,3.351,0,0,0,498.639,361.541Z" transform="translate(-498.639 -358.202)" fill="#fff"/>
            </g>
            <g id="Group_1611" data-name="Group 1611">
              <path id="Path_4226" data-name="Path 4226" d="M477.966,361.541a3.343,3.343,0,1,0,3.343-3.34A3.352,3.352,0,0,0,477.966,361.541Z" transform="translate(-477.966 -358.202)" fill="#0086ca"/>
            </g>
            <g id="Group_1612" data-name="Group 1612" transform="translate(26.07)">
              <path id="Path_4227" data-name="Path 4227" d="M519.31,361.541a3.343,3.343,0,1,0,3.345-3.34A3.352,3.352,0,0,0,519.31,361.541Z" transform="translate(-519.31 -358.202)" fill="#fe6a3c"/>
            </g>
          </g>
        </g>
        <rect id="Rectangle_361" data-name="Rectangle 361" width="203.444" height="1.112" transform="translate(44.85 2.785)" fill="#fff"/>
      </g>
      <g id="Group_1617" data-name="Group 1617" transform="translate(20.51 181.681)">
        <path id="Path_4228" data-name="Path 4228" d="M496.535,640.49l-15.846-9.157v18.312l15.846-9.156-15.846-9.157v18.312Z" transform="translate(-480.69 -631.333)" fill="#fe6a3c"/>
        <rect id="Rectangle_362" data-name="Rectangle 362" width="180.097" height="1.113" transform="translate(64.761 8.599)" fill="#fff"/>
        <g id="Group_1616" data-name="Group 1616" transform="translate(30.842 1.93)">
          <rect id="Rectangle_363" data-name="Rectangle 363" width="3.359" height="14.452" fill="#fff"/>
          <rect id="Rectangle_364" data-name="Rectangle 364" width="3.359" height="14.452" transform="translate(6.671)" fill="#fff"/>
        </g>
        <path id="Path_4229" data-name="Path 4229" d="M640.346,642.594a5.558,5.558,0,1,1-5.556-5.558A5.558,5.558,0,0,1,640.346,642.594Z" transform="translate(-535.564 -633.44)" fill="#fdac19"/>
      </g>
    </g>
    <g id="Group_1634" data-name="Group 1634" transform="translate(201.587 438.222)">
      <path id="Path_4230" data-name="Path 4230" d="M360.393,633.849c-14.3-1.323-20.893,3.492-20.893,3.492l2.22,23.708,18.674.237Z" transform="translate(-314.967 -573.932)" fill="#0086ca"/>
      <g id="Group_1620" data-name="Group 1620" transform="translate(0 74.5)">
        <path id="Path_4231" data-name="Path 4231" d="M342.224,754.684c-26.065-.9-36.563-2.8-40.113-7.267-2.249-2.828-1.564-6.335-.7-10.775,1.231-6.313,4.993-14.89,9.35-24.821,7.654-17.445,17.179-39.157,14.424-54.412l1.641-.3c2.846,15.758-6.793,37.729-14.537,55.38-4.318,9.841-8.046,18.34-9.241,24.473-.815,4.174-1.4,7.192.367,9.416,3.116,3.918,14.012,5.78,38.864,6.636Z" transform="translate(-300.594 -657.11)" fill="#015288"/>
        <g id="Group_1619" data-name="Group 1619" transform="translate(4.434 90.983)">
          <rect id="Rectangle_365" data-name="Rectangle 365" width="1.739" height="76.28" transform="translate(36.833)" fill="#015288"/>
          <rect id="Rectangle_366" data-name="Rectangle 366" width="76.307" height="1.738" transform="matrix(0.472, -0.881, 0.881, 0.472, 0, 75.88)" fill="#015288"/>
          <rect id="Rectangle_367" data-name="Rectangle 367" width="1.739" height="76.305" transform="translate(37.814 9.453) rotate(-28.214)" fill="#015288"/>
        </g>
        <path id="Path_4232" data-name="Path 4232" d="M400.852,791.1l-74.422-.471L323.948,777.3s37.834-.528,59.413,1.736,17.115,6.284,17.115,6.284Z" transform="translate(-309.221 -701.493)" fill="#0086ca"/>
        <path id="Path_4233" data-name="Path 4233" d="M396.6,792.541l-85.184-1.178,2.8,7.192,82.884-.148Z" transform="translate(-304.592 -706.706)" fill="#015288"/>
      </g>
      <g id="Group_1633" data-name="Group 1633" transform="translate(37.072)">
        <path id="Path_4234" data-name="Path 4234" d="M395.1,540.455c2.846.932,6.77,2.159,9.91,5.4,6.525,6.672,4.22,16.288,4.514,34.392.2,12.265.933,22.126,1.472,28.063l-3.729-.2-1.324-11.824-.049,11.824c-2.011-.1-4.759-.2-8-.245-13.3-.245-19.918.638-36.109.589h-2.4c1.03-11.628,1.57-21.047,1.865-27.327.834-18.3-.687-29.093,6.721-36.207a20.074,20.074,0,0,1,5.985-3.925A33.149,33.149,0,0,1,395.1,540.455Z" transform="translate(-359.384 -538.964)" fill="#1d262d"/>
        <path id="Path_4235" data-name="Path 4235" d="M432.729,700.494c14.332,19.073,24.656,32.649,27.3,35.592a6.754,6.754,0,0,1,1.989,4.018c.113,1.519-.421,2.766-1.226,4.661-.966,2.215-1.729,2.82-2.016,3.015a3.878,3.878,0,0,1-2.616.906c-.347-.016-1.338-.052-1.585-.6-.277-.651.986-1.263,1.928-3.082a4.869,4.869,0,0,0,.639-3.923c-.406-1.025-1.351-2.1-2.138-1.9-.154.021-.431.168-.694.768l-3.165.9a7.875,7.875,0,0,1-.333-1.41,7.494,7.494,0,0,1,.092-2.08c.173-.916.429-1.217.149-2.119-.547-1.6-2.075-3.036-3.3-4.216l-.254-.247a189.126,189.126,0,0,1-24.35-26.051C423.184,704.787,427.591,704.719,432.729,700.494Z" transform="translate(-382.939 -598.637)" fill="#84614b"/>
        <path id="Path_4236" data-name="Path 4236" d="M425.016,669.153a10.1,10.1,0,0,0,.732,2.971,11.753,11.753,0,0,0,1.851,2.895,362.3,362.3,0,0,0,21.858,30.275,8.845,8.845,0,0,1-.845,1.837,9.357,9.357,0,0,1-5.729,3.914,112.384,112.384,0,0,1-13.823-14.085c-5.48-6.654-15.544-19.8-18.145-38.861a68.026,68.026,0,0,1-.083-17.64c1.491-.165,4.443-.254,6.621,1.629a6.5,6.5,0,0,1,1.314,1.576c2.406,3.923,3.046,9.693,4.361,16.657C424.411,667.113,424.762,666.709,425.016,669.153Z" transform="translate(-378.193 -576.429)" fill="#1d184c"/>
        <g id="Group_1621" data-name="Group 1621" transform="translate(59.807 228.706)">
          <path id="Path_4237" data-name="Path 4237" d="M454.229,905.025c6.228,8.442,9.959,16.713,21.673,12.844,3.48-2.936-6.655-1.789-10.453-13.514-3.5.107-6.962-.17-9.54-2.7Q455.069,903.342,454.229,905.025Z" transform="translate(-454.229 -901.658)" fill="#744b90"/>
        </g>
        <path id="Path_4238" data-name="Path 4238" d="M411.674,572.383a22.679,22.679,0,0,1-3.974,14.571,32.4,32.4,0,0,1-9.37,7.359c-6.28,3.385-17.809,1.423-25.021-7.212,0,0-10.6-3.14-6.721-11.088a3.784,3.784,0,0,1,1.52-1.521,4.364,4.364,0,0,1,3.238-.245c-.147-1.373-.834-10.6,5.937-17.27a20.434,20.434,0,0,1,9.518-5.2,21.632,21.632,0,0,1,16.092,3.336C411.527,561.2,411.674,571.4,411.674,572.383Z" transform="translate(-361.73 -543.565)" fill="#84614b"/>
        <path id="Path_4239" data-name="Path 4239" d="M405.172,634.132s-1.913-3.778,0-12.952a33.133,33.133,0,0,1-9.077-.491s.393,9.566-2.012,11.971c0,0,3.386,14.669,11.088,13.492C408.8,644.434,405.172,634.132,405.172,634.132Z" transform="translate(-372.203 -569.155)" fill="#84614b"/>
        <g id="Group_1622" data-name="Group 1622" transform="translate(16.422 120.159)">
          <path id="Path_4240" data-name="Path 4240" d="M390.42,731.637a20.261,20.261,0,0,1,11.979-1.881,19.3,19.3,0,0,1,5.88,1.957c3.481,1.117,38.1,12.3,42.984,17.341a10.959,10.959,0,0,1,1.677,2.3c1.911,3.7.9,7.82.11,10.1q-1,6.019-2,12.033Q445.37,807.87,439.939,842.3a10.519,10.519,0,0,1-4.178-.394,10.821,10.821,0,0,1-5.349-3.753q2.007-20.1,3.614-41.018,1.277-16.714,2.207-32.948a243.848,243.848,0,0,1-33.736-4.1c-10.253-1.989-15.326-3.683-16.71-7.672-1.513-4.358,2.1-9.378,3.981-11.669Q390.1,736.193,390.42,731.637Z" transform="translate(-385.427 -729.518)" fill="#5884d4"/>
        </g>
        <g id="Group_1623" data-name="Group 1623" transform="translate(9.904 221.49)">
          <path id="Path_4241" data-name="Path 4241" d="M375.09,892.495c1.864,10.324,1.564,19.393,13.784,21.088,4.418-1.1-5.183-4.541-3.419-16.74-3.185-1.446-6.173-3.223-7.372-6.628Z" transform="translate(-375.09 -890.215)" fill="#744b90"/>
        </g>
        <g id="Group_1624" data-name="Group 1624" transform="translate(3.635 113.999)">
          <path id="Path_4242" data-name="Path 4242" d="M373.41,719.75a39.723,39.723,0,0,0,23.174,13.242c20.865,12.493,35.411,22.486,35.736,23.532a12.115,12.115,0,0,1,.49,2.8h0c.084,4.16-2.642,7.415-4.357,9.113q-3.555,4.959-7.1,9.918-20.268,28.347-40.332,56.85a10.514,10.514,0,0,1-3.575-2.2,10.821,10.821,0,0,1-3.144-5.728q10.344-17.427,21.339-35.215,10.332-16.7,20.649-32.752c-10.185-1.455-18.527-2.054-24.451-2.329-10.44-.484-16.356-.1-21.3-4.551a16.776,16.776,0,0,1-5.165-9.043c-.874-4.78.919-8.835,3.978-15.75A75.467,75.467,0,0,1,373.41,719.75Z" transform="translate(-365.149 -719.75)" fill="#5884d4"/>
        </g>
        <path id="Path_4243" data-name="Path 4243" d="M385.654,639.667a20.98,20.98,0,0,1,3.925,2.944c2.012,1.962,3.042,3.827,5.4,4.415.981.245,1.325.1,1.472,0,1.079-.588,1.128-2.894.294-5.936a4.268,4.268,0,0,1,2.611.531,4,4,0,0,1,1.267,1.251,21.323,21.323,0,0,1,2.838,5.754c2.324,8.689,2.889,10.417,3.153,11.193a46.012,46.012,0,0,0,2.365,5.675,13.818,13.818,0,0,1-.967,6.609,16.471,16.471,0,0,1-1.257,2.4,32.1,32.1,0,0,0-2.895,4.367,10.361,10.361,0,0,0-.539,1.03,10.171,10.171,0,0,0-.491,4.415,21.877,21.877,0,0,0,.491,4.906c.6,2.379,1.345,2.9,2.584,5.833a32.306,32.306,0,0,1,1.665,5.12l-34.668-.65c2.8-6.083,4.514-10.3,5.495-13.1.148-.344.2-.589.295-.834l.1-.295c1.373-5.249-2.453-15.7-2.453-15.7-3.484-9.518-4.171-12.609-4.416-13.737-1.226-5.839-.981-8.635.491-10.793a11.073,11.073,0,0,1,4.416-3.434A18.325,18.325,0,0,1,385.654,639.667Z" transform="translate(-363.724 -576.163)" fill="#f4d54f"/>
        <path id="Path_4244" data-name="Path 4244" d="M420.523,606.851a5.182,5.182,0,0,1-2.158,1.815c-2.159.932-5,.147-7.163-2.061Z" transform="translate(-378.526 -563.953)" fill="#633631"/>
        <path id="Path_4245" data-name="Path 4245" d="M421.739,601.1a13.279,13.279,0,0,0,1.423-.049,2.618,2.618,0,0,1-1.717.491,2.8,2.8,0,0,1-1.373-.54C420.611,601.053,421.15,601.1,421.739,601.1Z" transform="translate(-381.803 -561.883)" fill="#633631"/>
        <path id="Path_4246" data-name="Path 4246" d="M411.722,589.853c-.1.637-1.472,1.177-2.551,1.177-1.373-.049-2.894-.981-2.8-1.668.148-.834,2.5-1.668,4.219-.736C410.741,588.676,411.771,589.264,411.722,589.853Z" transform="translate(-376.742 -557.159)" fill="#fff"/>
        <g id="Group_1628" data-name="Group 1628" transform="translate(29.628 30.996)">
          <g id="Group_1627" data-name="Group 1627">
            <g id="Group_1626" data-name="Group 1626" clip-path="url(#clip-path)">
              <g id="Group_1625" data-name="Group 1625" transform="translate(2.752 0.177)">
                <ellipse id="Ellipse_220" data-name="Ellipse 220" cx="0.981" cy="1.177" rx="0.981" ry="1.177" fill="#1d262d"/>
              </g>
            </g>
          </g>
        </g>
        <path id="Path_4248" data-name="Path 4248" d="M430.781,590.367a1.526,1.526,0,0,1-1.079,1.325c-.981.2-2.061-.932-1.865-1.717s1.669-1.031,2.306-.834c.1.049.2.049.245.148A1.4,1.4,0,0,1,430.781,590.367Z" transform="translate(-384.664 -557.477)" fill="#fff"/>
        <g id="Group_1632" data-name="Group 1632" transform="translate(43.053 31.606)">
          <g id="Group_1631" data-name="Group 1631">
            <g id="Group_1630" data-name="Group 1630" clip-path="url(#clip-path-2)">
              <g id="Group_1629" data-name="Group 1629" transform="translate(1.249 -0.09)">
                <ellipse id="Ellipse_221" data-name="Ellipse 221" cx="0.785" cy="1.128" rx="0.785" ry="1.128" fill="#1d262d"/>
              </g>
            </g>
          </g>
        </g>
        <path id="Path_4250" data-name="Path 4250" d="M405.406,565.732c-.147-1.619-.344-3.287-.491-4.907-.147,1.619-.344,3.287-.491,4.907H389.706c-.147-.834-.344-1.619-.491-2.453-.148.834-.344,1.619-.491,2.453h-4.906c.148,4.415.2,9.174,0,14.228-.2,4.857-.539,9.469-.981,13.737-1.52-.147-13.344-1.521-17.662-10.3-2.551-5.151-1.472-10.7,0-17.171,1.325-5.839,2.061-9.126,4.71-12.511,6.329-8.144,17.123-8.831,21.489-9.077,5.691-.343,10.99-.638,15.111,2.7,5.053,4.121,5.2,11.235,5.3,23.795a129.081,129.081,0,0,1-2.208,24.58c-.147-2.895-.2-5.249-.245-6.721-.049-6.721.344-9.959.442-17.859.048-2.6,0-4.71,0-5.887Z" transform="translate(-360.957 -540.986)" fill="#1d262d"/>
        <path id="Path_4251" data-name="Path 4251" d="M384.024,639.673a24.874,24.874,0,0,1,6.378,4.906,30.294,30.294,0,0,1,6.868,22.078c-.147,1.668-.491,3.434-.491,3.434-.245.981-.343,1.619-.539,2.4,0,0-.54,2.355-.933,4.956a26.808,26.808,0,0,0,0,6.868c.393,3.925.687,11.824.981,24.531a36.885,36.885,0,0,1-7.359,0c-6.967-.687-10.2-2.993-17.662-3.434a33.04,33.04,0,0,0-4.415,0,134.326,134.326,0,0,0,6.378-16.681c1.766-5.74,1.962-7.8,1.962-9.321.049-3.729-.785-5.1-3.435-13.737-3.189-10.352-3.729-12.952-2.943-16.191a12.242,12.242,0,0,1,3.435-6.378c3.483-3.189,8.585-3.385,10.3-3.434Z" transform="translate(-362.143 -576.168)" fill="#1d184c"/>
        <path id="Path_4252" data-name="Path 4252" d="M435.746,673.275c3.848-6.485,8.649-9.2,13.976-20.865,2.4-5.245,3.177-4.912,3.177-4.912a2.107,2.107,0,0,1,.256.565c.34,1.2-.53,2.293-1.077,4.6-.071.3-.084.4-.026.446.429.371,3.864-2.692,6.188-5,2.747-2.734,4.349-4.821,5.584-4.356a.737.737,0,0,1,.424.305c.832,1.485-5.844,6.674-5.306,7.4a.728.728,0,0,0,.125.107,2.088,2.088,0,0,0,1.05.352c.67.137.465.922,1.525,1.855a6.5,6.5,0,0,1,1.1.992,3.8,3.8,0,0,1,.419.623c1.134,3.534-13.827,11.12-17.352,15.356-.673.775-9.683,8.272-10.281,9C433.734,677.849,437.534,675.134,435.746,673.275Z" transform="translate(-387.332 -577.649)" fill="#84614b"/>
        <path id="Path_4253" data-name="Path 4253" d="M375.086,643.758c.54.049,1.129.1,1.668.2,5.544,1.177,8.733,6.427,10.156,8.782,1.864,3.14,1.913,4.514,3.434,8.34,2.061,5.1,6.378,15.945,11.775,16.191,1.128.049,2.158-.393,10.3-8.341,2.894-2.846,5.249-5.2,6.868-6.868.491.294.981.637,1.472.981a22.134,22.134,0,0,1,5.888,6.378,88.509,88.509,0,0,1-5.4,7.359c-7.016,8.585-10.94,13.393-16.681,14.228-8.193,1.177-15.4-6.428-17.171-8.341-3.679-3.876-1.766-4.219-9.322-16.828-1.962-3.336-3.875-6.328-5.1-10.99-.491-1.913-2.061-7.7.736-10.3A6.237,6.237,0,0,1,375.086,643.758Z" transform="translate(-364.079 -577.678)" fill="#1d184c"/>
      </g>
    </g>
    <g id="Group_1637" data-name="Group 1637" transform="translate(224.286 489.801)">
      <g id="Group_1636" data-name="Group 1636" transform="translate(47.259 0.302)">
        <g id="Group_1635" data-name="Group 1635">
          <path id="Path_4254" data-name="Path 4254" d="M433.85,621.249c-.207-.122-1.737,1.129-1.954,1.077l-20.358,37.282,3.476-.049a15.174,15.174,0,0,0,.974-1.58l18.388-34.2A1.663,1.663,0,0,0,433.85,621.249Z" transform="translate(-411.538 -621.241)" fill="#b3b3b3" fill-rule="evenodd"/>
        </g>
      </g>
      <path id="Path_4255" data-name="Path 4255" d="M408.2,622.112c-.209-.113-1.65-.9-1.829-1.351l-20.9,38.618c.033.165-.041.149-.071.059l-48.747.635c-.054.216-.064,1.855-.059,2.1a1.65,1.65,0,0,0,1.9,1.73l45.175-.58a1.733,1.733,0,0,0,1.69-.942c.011.085.026.138.052.156a1.72,1.72,0,0,0,2.512-.874l20.816-36.942A1.719,1.719,0,0,0,408.2,622.112Z" transform="translate(-336.592 -620.761)" fill="#fff" fill-rule="evenodd"/>
    </g>
    <path id="Path_4256" data-name="Path 4256" d="M136.48,579.946a97.147,97.147,0,0,1-12.905-3.588l.372-1.045a95.535,95.535,0,0,0,12.757,3.542Zm-25.169-8.984a89.253,89.253,0,0,1-11.322-7.172l.664-.892a87.966,87.966,0,0,0,11.179,7.081ZM89.862,555.01a97.65,97.65,0,0,1-8.771-10.123l.888-.669a96.612,96.612,0,0,0,8.67,10.008ZM73.73,533.687a117.028,117.028,0,0,1-5.96-12l1.022-.437a116.01,116.01,0,0,0,5.9,11.888ZM63.161,509.1c-1.3-4.2-2.413-8.573-3.316-12.98l1.089-.223c.9,4.371,2,8.7,3.29,12.876Zm-5.395-26.209c-.488-4.411-.783-8.906-.878-13.359L58,469.506c.093,4.422.387,8.883.871,13.259Zm.544-26.664-1.109-.075c.3-4.469.814-8.942,1.517-13.293l1.1.177C59.118,447.352,58.612,451.791,58.31,456.226Zm4.26-26.186-1.074-.284a121.751,121.751,0,0,1,4.127-12.746l1.037.4A120.634,120.634,0,0,0,62.57,430.039Zm9.636-24.674-.977-.53a88.58,88.58,0,0,1,7.246-11.285l.886.672A87.351,87.351,0,0,0,72.207,405.365Zm108.764-16.7a132.85,132.85,0,0,1-9.014-9.9l.859-.7a131.962,131.962,0,0,0,8.94,9.815Zm-7-3.995a132.627,132.627,0,0,0-11.654-6.361l.481-1a133.851,133.851,0,0,1,11.753,6.415Zm-85.715-.224-.748-.824A61.966,61.966,0,0,1,98.346,375.7l.552.966A60.718,60.718,0,0,0,88.256,384.449Zm61.778-11.127a81.272,81.272,0,0,0-12.851-3.154l.172-1.1a82.569,82.569,0,0,1,13.027,3.2Zm-39.019-1.788-.307-1.069a57.721,57.721,0,0,1,13.244-2.165l.052,1.11A56.6,56.6,0,0,0,111.015,371.534ZM164.12,367.9a82.511,82.511,0,0,1-6.187-11.9l1.026-.428a81.425,81.425,0,0,0,6.1,11.74Zm-10.1-24.744a57.192,57.192,0,0,1-1.054-10.828q0-1.294.061-2.573l1.11.053q-.06,1.252-.059,2.52a56.13,56.13,0,0,0,1.034,10.618Zm2.38-26.306-1.062-.327a57.04,57.04,0,0,1,5.455-12.274l.956.566A55.939,55.939,0,0,0,156.395,316.85Zm142.33-19.371a82.21,82.21,0,0,0-9.036-9.667l.748-.823a83.4,83.4,0,0,1,9.158,9.8Zm-129.093-3.247-.82-.752a75.346,75.346,0,0,1,9.932-9.027l.673.885A74.092,74.092,0,0,0,169.631,294.232Zm109.551-14.458a78.252,78.252,0,0,0-11.717-6.141l.432-1.025a79.355,79.355,0,0,1,11.884,6.229Zm-88.62-1.58-.525-.979a92.48,92.48,0,0,1,12.252-5.456l.378,1.046A91.6,91.6,0,0,0,190.563,278.194Zm64.323-8.67a86.091,86.091,0,0,0-13.079-2.064l.089-1.109a87.361,87.361,0,0,1,13.248,2.092Zm-39.463-.342-.228-1.088a95.543,95.543,0,0,1,13.289-1.829l.073,1.109A94.516,94.516,0,0,0,215.423,269.181Z" transform="translate(-8.977)" fill="#015288"/>
    <path id="Path_4257" data-name="Path 4257" d="M940.613,464.764c-1.677-10.242,15.1-14.252,19.469-8.017-1.4-9.782,6.5-22.609,20.05-23.714,25.581-2.392,18.167,16.614,30.461,16.889,11.231-.213,2.859-16.445,28.406-8.313,6.115,1.818,9.214,8.654,13.536,17.1,8.752-9.629,14.117-3.359,15.724,6.053A452.923,452.923,0,0,1,940.613,464.764Z" transform="translate(-335.403 -61.531)" fill="url(#linear-gradient)"/>
    <path id="Path_4258" data-name="Path 4258" d="M836.422,652.181l-.462,0,.008-1.111h.454a70.2,70.2,0,0,0,12.7-1.159l.2,1.095A71.537,71.537,0,0,1,836.422,652.181ZM822.6,650.858a80.485,80.485,0,0,1-12.918-3.639l.39-1.042a79.083,79.083,0,0,0,12.736,3.589Zm39.641-3.505-.4-1.038a74.63,74.63,0,0,0,11.865-5.84l.579.951A76.135,76.135,0,0,1,862.245,647.353Zm22.887-13.835-.726-.839a80.967,80.967,0,0,0,9.258-9.462l.858.71A82.085,82.085,0,0,1,885.132,633.518Zm17.089-20.583-.961-.56a76.627,76.627,0,0,0,5.668-11.957l1.044.386A77.865,77.865,0,0,1,902.22,612.935Zm9.235-25.1-1.1-.183a63.518,63.518,0,0,0,.891-10.5c0-.888-.019-1.78-.059-2.667l1.112-.049c.038.905.06,1.809.06,2.716A64.42,64.42,0,0,1,911.455,587.836ZM909.1,561.475a54.873,54.873,0,0,0-5.091-12.143l.967-.55a56.071,56.071,0,0,1,5.195,12.391Zm-12.887-22.769a67.587,67.587,0,0,0-9.88-8.756l.654-.9a69.005,69.005,0,0,1,10.045,8.9Zm-21.18-15.636a104.115,104.115,0,0,0-12.191-5.2l.373-1.048a105.713,105.713,0,0,1,12.323,5.257Zm-24.915-8.976q-1.052-.258-2.119-.5l-.672-.153.292-.624c1.584-3.4,3.12-6.822,4.559-10.159l1.02.441c-1.356,3.143-2.8,6.359-4.284,9.565q.74.173,1.466.351Zm8.147-23.357-1.035-.4c1.628-4.2,3.16-8.41,4.557-12.512l1.053.358C861.443,482.3,859.906,486.523,858.268,490.737Zm8.587-25.3-1.067-.308c1.249-4.329,2.377-8.663,3.352-12.879l1.084.25C869.243,456.732,868.11,461.083,866.855,465.433Zm5.994-26.047-1.1-.184c.749-4.448,1.341-8.883,1.76-13.182l1.107.109C874.2,430.453,873.6,434.913,872.849,439.386Zm2.555-26.615-1.112-.02q.026-1.362.025-2.708c0-3.566-.13-7.12-.385-10.564l1.109-.081c.255,3.469.387,7.052.387,10.645Q875.427,411.4,875.4,412.771Zm-3.126-26.455a112.3,112.3,0,0,0-3.1-12.888l1.065-.325a113.687,113.687,0,0,1,3.136,13.016Zm-7.786-25.282a94.353,94.353,0,0,0-6.316-11.637l.936-.6a95.818,95.818,0,0,1,6.392,11.774Zm-14.238-22.253a91.73,91.73,0,0,0-9.369-9.351l.727-.842a93.383,93.383,0,0,1,9.482,9.464ZM673.743,323.322l-.468-1.006q1.63-.761,3.265-1.493l.454,1.015Q675.368,322.565,673.743,323.322Zm156.54-1.832a103.857,103.857,0,0,0-11.571-6.465l.481-1a105.331,105.331,0,0,1,11.693,6.534Zm-141-4.752-.4-1.039c4.17-1.593,8.417-3.075,12.619-4.4l.335,1.06C697.659,313.677,693.433,315.152,689.281,316.737Zm117.146-6.719a126.069,126.069,0,0,0-12.771-3.612l.247-1.083a127.231,127.231,0,0,1,12.885,3.644Zm-91.793-1.287-.269-1.078c4.341-1.086,8.738-2.038,13.064-2.827l.2,1.093C723.326,306.706,718.954,307.651,714.635,308.731Zm65.944-4.637c-4.307-.555-8.763-.93-13.24-1.114l.046-1.11c4.509.185,9,.562,13.337,1.121Zm-39.791-.118-.124-1.1c4.466-.5,8.955-.843,13.339-1.011l.044,1.11C749.688,303.138,745.227,303.477,740.787,303.976Z" transform="translate(-236.685 -13.15)" fill="#015288"/>
    <g id="Group_1653" data-name="Group 1653" transform="translate(614.082 421.948)">
      <g id="Group_1650" data-name="Group 1650" transform="translate(7.465)">
        <path id="Path_4259" data-name="Path 4259" d="M1028.661,754.26c-2.366-4.883-1.439-12.2-.155-22.32.817-6.44,1.746-13.745,2.182-22.534l2.4.118c-.44,8.881-1.414,16.555-2.2,22.717-1.233,9.711-2.124,16.728-.068,20.97Z" transform="translate(-988.98 -585.655)" fill="#096666"/>
        <g id="Group_1639" data-name="Group 1639" transform="translate(31.095 30.583)">
          <g id="Group_1638" data-name="Group 1638">
            <path id="Path_4260" data-name="Path 4260" d="M1069.951,590.562c1.407,7.082,8.064,17.556,3.441,23.478-4.156,5.329-16.843,5.224-19.751,11.634-4.229,9.322,8.615,9.006,1.518,17.562-2.921,3.523-17.883,16.508-21.94,18.574-2.317,1.179-7.491,8.163-13.735,5.2-13.736-6.505,14.21-97.622,46.681-105.05C1081.054,558.561,1068.72,584.377,1069.951,590.562Z" transform="translate(-1015.902 -561.656)" fill="#eaba3c"/>
          </g>
        </g>
        <g id="Group_1640" data-name="Group 1640" transform="translate(33.075 39.672)">
          <path id="Path_4261" data-name="Path 4261" d="M1020.252,672.124l-1.211-.265c11.395-51.669,25.571-70.762,40.576-90.979,1.18-1.6,2.367-3.194,3.555-4.811l1,.732c-1.192,1.618-2.378,3.218-3.56,4.817C1045.683,601.723,1031.585,620.715,1020.252,672.124Z" transform="translate(-1019.041 -576.069)" fill="#096666"/>
        </g>
        <g id="Group_1641" data-name="Group 1641" transform="translate(53.347 65.567)">
          <path id="Path_4262" data-name="Path 4262" d="M1071.472,618.381c-7.989-.2-11.8,3.1-17.073,7.658-.773.665-1.571,1.359-2.417,2.066l-.792-.95c.839-.7,1.633-1.389,2.4-2.053,5.28-4.566,9.449-8.173,17.909-7.959Z" transform="translate(-1051.19 -617.135)" fill="#096666"/>
        </g>
        <g id="Group_1642" data-name="Group 1642" transform="translate(43.591 90.324)">
          <path id="Path_4263" data-name="Path 4263" d="M1036.525,665.541l-.807-.936c.935-.8,1.754-1.547,2.477-2.207,3.319-3.034,5.325-4.859,11.487-6l.226,1.216c-5.819,1.077-7.616,2.72-10.881,5.7C1038.3,663.976,1037.472,664.731,1036.525,665.541Z" transform="translate(-1035.718 -656.396)" fill="#096666"/>
        </g>
        <g id="Group_1643" data-name="Group 1643" transform="translate(61.537 44.931)">
          <path id="Path_4264" data-name="Path 4264" d="M1065.368,601.072l-1.19.563c1.49-3.032,2.036-7.559,2.49-10.861a53.37,53.37,0,0,1,1.142-6.364l1.194.32a52.632,52.632,0,0,0-1.111,6.212C1067.428,594.345,1066.944,597.859,1065.368,601.072Z" transform="translate(-1064.178 -584.409)" fill="#096666"/>
        </g>
        <path id="Path_4265" data-name="Path 4265" d="M1025.833,772.628a168.094,168.094,0,0,1-.438-25.983c.34-8.121.587-13.987-1.758-17.373l1.98-1.37c2.8,4.049,2.541,10.254,2.181,18.846a165.906,165.906,0,0,0,.431,25.63Z" transform="translate(-987.664 -592.488)" fill="#096666"/>
        <g id="Group_1645" data-name="Group 1645">
          <g id="Group_1644" data-name="Group 1644">
            <path id="Path_4266" data-name="Path 4266" d="M1018.661,546.7c4.948,6.57,8.926,14.126,7.11,22.495-1.632,7.527-13.242,25.772-13.052,33.789.272,11.666,13.464,9.033,10.417,21.331a37.72,37.72,0,0,1-6.914,13.718c-1.793,2.354-3.648,12.084-11.523,12.139-17.324.124-17.249-12.009-22.272-17.437-10.324-11.159-19.191-26.074-14.591-38.14,1.89-4.935,10.164-4.152,11.805-9.162,1.5-4.587-5.792-16.715-6.038-22.314-.506-11.632,10.752-7.774,10.371-13.839-.827-12.979,14.314-36.593,22.872-36.115C1024.219,514.129,1014.334,540.956,1018.661,546.7Z" transform="translate(-966.589 -513.156)" fill="#48a7bb"/>
          </g>
        </g>
        <g id="Group_1646" data-name="Group 1646" transform="translate(27.281 17.144)">
          <path id="Path_4267" data-name="Path 4267" d="M1020.085,660.208l-1.382-.352c-13.873-58.671-8.6-84.646-3.205-112.824.425-2.217.85-4.441,1.267-6.688l1.217.226c-.421,2.248-.846,4.474-1.269,6.7C1011.343,575.309,1006.271,601.794,1020.085,660.208Z" transform="translate(-1009.853 -540.344)" fill="#096666"/>
        </g>
        <g id="Group_1647" data-name="Group 1647" transform="translate(27.476 45.559)">
          <path id="Path_4268" data-name="Path 4268" d="M1011.288,606.2l-1.126-.51c.51-1.135.987-2.234,1.445-3.3,3.151-7.283,5.641-13.035,14.4-16.992l.511,1.128c-8.332,3.758-10.617,9.042-13.779,16.355C1012.281,603.954,1011.8,605.058,1011.288,606.2Z" transform="translate(-1010.162 -585.406)" fill="#096666"/>
        </g>
        <g id="Group_1648" data-name="Group 1648" transform="translate(28.818 78.924)">
          <path id="Path_4269" data-name="Path 4269" d="M1013.426,654.124l-1.135-.5c.564-1.281,1.036-2.457,1.449-3.493,1.9-4.743,3.053-7.6,8.795-11.816l.732,1c-5.462,4-6.495,6.588-8.381,11.277C1014.468,651.636,1014,652.821,1013.426,654.124Z" transform="translate(-1012.291 -638.318)" fill="#096666"/>
        </g>
        <g id="Group_1649" data-name="Group 1649" transform="translate(24.444 28.239)">
          <path id="Path_4270" data-name="Path 4270" d="M1010.921,576.5l-.916,1.434c.029-3.862-1.5-9.055-2.676-12.68a59.622,59.622,0,0,1-1.975-7.081l1.218-.234a58.054,58.054,0,0,0,1.932,6.94C1009.707,568.592,1010.95,572.436,1010.921,576.5Z" transform="translate(-1005.354 -557.939)" fill="#096666"/>
        </g>
      </g>
      <g id="Group_1652" data-name="Group 1652" transform="translate(0 144.964)">
        <g id="Group_1651" data-name="Group 1651" transform="translate(5.02 9.988)">
          <path id="Path_4271" data-name="Path 4271" d="M1029.422,863.689c2.578-55.288,15.6-92.733,16.536-104.791H962.866c-.052,0-.1-.011-.154-.011.929,12.064,7.851,37.228,16.53,104.8Z" transform="translate(-962.712 -758.887)" fill="#fdac19"/>
        </g>
        <path id="Path_4272" data-name="Path 4272" d="M1045.756,753.988H955.708s-2.153-8.435,0-8.66a439.552,439.552,0,0,1,90.048,0Z" transform="translate(-954.752 -743.047)" fill="#fe6a3c"/>
      </g>
    </g>
    <g id="Group_1654" data-name="Group 1654" transform="translate(123.381 535.177)">
      <path id="Path_4273" data-name="Path 4273" d="M185.434,842.176l36.329-146.11-13.932-3.345-31.26,149.455Z" transform="translate(-176.571 -692.721)" fill="#b3b3b3"/>
      <path id="Path_4274" data-name="Path 4274" d="M217.923,772.943l19.116-76.878-13.932-3.345Z" transform="translate(-191.848 -692.721)" fill="#b3b3b3"/>
    </g>
    <g id="Group_1655" data-name="Group 1655" transform="translate(223.776 535.177)">
      <path id="Path_4275" data-name="Path 4275" d="M380.978,842.176,349.713,692.721l-13.929,3.345,36.327,146.11Z" transform="translate(-335.783 -692.721)" fill="#b3b3b3"/>
      <path id="Path_4276" data-name="Path 4276" d="M354.9,772.943l-19.113-76.878,13.929-3.345Z" transform="translate(-335.783 -692.721)" fill="#b3b3b3"/>
    </g>
    <g id="Group_1658" data-name="Group 1658" transform="translate(314.191 535.177)">
      <g id="Group_1656" data-name="Group 1656" transform="translate(98.189)">
        <path id="Path_4277" data-name="Path 4277" d="M677.873,842.176,648.812,692.721l-13.929,3.345,36.326,146.11Z" transform="translate(-634.883 -692.721)" fill="#b3b3b3"/>
        <path id="Path_4278" data-name="Path 4278" d="M654,772.943l-19.116-76.878,13.929-3.345Z" transform="translate(-634.883 -692.721)" fill="#b3b3b3"/>
      </g>
      <g id="Group_1657" data-name="Group 1657">
        <path id="Path_4279" data-name="Path 4279" d="M485.828,842.176l36.327-146.11-13.932-3.345L479.169,842.176Z" transform="translate(-479.169 -692.721)" fill="#b3b3b3"/>
        <path id="Path_4280" data-name="Path 4280" d="M517.021,772.943l19.117-76.878-13.932-3.345Z" transform="translate(-493.153 -692.721)" fill="#b3b3b3"/>
      </g>
    </g>
    <rect id="Rectangle_368" data-name="Rectangle 368" width="253.65" height="8.854" transform="translate(245.85 532.517)" fill="#0086ca"/>
    <rect id="Rectangle_369" data-name="Rectangle 369" width="154.454" height="8.854" transform="translate(110.681 532.517)" fill="#015288"/>
    <path id="Path_4281" data-name="Path 4281" d="M266.684,671.326c-.269-12.393-.18-22.73-.18-22.73a19.758,19.758,0,0,0-.115-2.063H254.356C257.355,651.276,266.684,671.326,266.684,671.326Z" transform="translate(-81.926 -140.48)" fill="#02797d"/>
    <path id="Path_4282" data-name="Path 4282" d="M228.437,650.4c-30.12-3.22-43.842,2.794-43.842,2.794L188.32,676.9l39.975.3Q228.447,663.793,228.437,650.4Z" transform="translate(-56.154 -141.559)" fill="#0086ca"/>
    <path id="Path_4283" data-name="Path 4283" d="M216.615,784.954c-11.958-.131-20.27-.007-20.27-.007l2.535,13.325,17.735.115Z" transform="translate(-60.495 -191.595)" fill="#0086ca" opacity="0.5"/>
    <rect id="Rectangle_370" data-name="Rectangle 370" width="61.949" height="8.854" transform="translate(203.186 532.517)" fill="#015288"/>
    <g id="Group_1660" data-name="Group 1660" transform="translate(171.034 294.725)">
      <g id="Group_1659" data-name="Group 1659">
        <path id="Path_4284" data-name="Path 4284" d="M333.138,333.983l-.653-4.5c-.858-5.83-1.742-11.858-2.336-17.93l1.6-.158c.59,6.035,1.472,12.046,2.323,17.858l.658,4.5Z" transform="translate(-280.959 -311.398)" fill="#fdac19"/>
        <path id="Path_4285" data-name="Path 4285" d="M284.871,355.843l-3.789-2.469c-4.949-3.214-10.062-6.537-15.02-10.109l.936-1.3c4.924,3.547,10.026,6.862,14.957,10.068l3.793,2.47Z" transform="translate(-257.284 -322.69)" fill="#fdac19"/>
        <path id="Path_4286" data-name="Path 4286" d="M252.437,406.389l-.3-1.574c5.949-1.112,11.846-2.511,17.553-3.864l4.46-1.053.367,1.559-4.458,1.051C264.34,403.866,258.421,405.27,252.437,406.389Z" transform="translate(-252.142 -344.092)" fill="#fdac19"/>
        <path id="Path_4287" data-name="Path 4287" d="M389.873,355.843,389,354.5l3.8-2.47c4.928-3.205,10.029-6.521,14.953-10.068l.939,1.3c-4.96,3.572-10.073,6.9-15.02,10.109Z" transform="translate(-302.699 -322.69)" fill="#fdac19"/>
        <path id="Path_4288" data-name="Path 4288" d="M420.731,406.389c-5.986-1.118-11.9-2.522-17.627-3.88l-4.458-1.051.365-1.559,4.462,1.053c5.707,1.353,11.6,2.752,17.553,3.864Z" transform="translate(-306.265 -344.092)" fill="#fdac19"/>
      </g>
      <path id="Path_4289" data-name="Path 4289" d="M332.775,501.661c.026.348,1.969,4.772,2,5.121h9.653c-.037-.349,1.457-4.773,1.418-5.123C342.639,501.659,335.98,501.659,332.775,501.661Z" transform="translate(-281.93 -381.685)" fill="#015288" fill-rule="evenodd"/>
      <path id="Path_4290" data-name="Path 4290" d="M312.251,416.676c.975,2.442,1.88,14.525,2.751,17h20.534c.952-2.487,1.94-14.579,3-17.024,2.336-3.372,13.093-15.89,16.737-27.615,4.912-14.717-8.841-35.5-30.155-35.526-21.247-.185-36.235,19.149-31.336,33.913C297.455,399.671,307.7,411.181,312.251,416.676Z" transform="translate(-267.181 -326.956)" fill="#fdac19" fill-rule="evenodd"/>
      <path id="Path_4291" data-name="Path 4291" d="M338.78,443.211c-1.561-8.555-.8-26.546,2.31-39.5a3.455,3.455,0,0,1-1.257-.093c-1.947-.52-3.372-2.733-4.386-5.255-1.465,3.309-3.254,5.127-5.352,5.422a4.718,4.718,0,0,1-2.447-.332c1.845,12.379,3.836,30.356,3.331,39.679l-1.272-.069c.48-8.833-1.483-27.392-3.457-40.379a17.821,17.821,0,0,1-5.187-6.632c-1.337-2.719-2.462-6.322-1.233-7.52l.085-.07a3.051,3.051,0,0,1,2.973-.543c2.19.9,2.926,4.782,3.321,6.866l.018.089c.362,1.908.771,4.318,1.192,7.057a3.888,3.888,0,0,0,2.5.595c1.433-.2,3.248-1.533,4.892-5.941a40.221,40.221,0,0,1-1.093-4.278c-.82-4.109.3-7.309,1.827-8.348a1.6,1.6,0,0,1,1.82-.112c.951.615,1.237,2.291.805,4.715a50.432,50.432,0,0,1-2.02,8.031c1.121,3.316,2.532,5.4,4.013,5.794a2.286,2.286,0,0,0,1.272-.043A38.07,38.07,0,0,1,345,392.959l.238-.41c.792-1.372,1.54-2.674,2.583-2.567.89.086,1.259,1.158,1.382,1.51,1.01,2.94-2.977,8.353-4.1,9.64a8.823,8.823,0,0,1-2.568,2.133c-3.164,12.709-4.069,31.139-2.5,39.718Zm8.906-51.941a7.794,7.794,0,0,0-1.346,1.915l-.244.419a33.915,33.915,0,0,0-3.07,7.808,10.452,10.452,0,0,0,1.118-1.116c1.735-1.991,4.505-6.5,3.854-8.39A1.866,1.866,0,0,0,347.686,391.27Zm-26.994-1.8c-.325.436-.105,2.728,1.511,6.018a19.258,19.258,0,0,0,3.755,5.333c-.335-2.112-.667-4.041-.984-5.711l-.018-.09c-.3-1.582-1-5.286-2.555-5.925A1.819,1.819,0,0,0,320.692,389.472Zm15.877-4.584a.637.637,0,0,0-.313.124c-.985.67-2.041,3.3-1.291,7.044q.254,1.263.549,2.4a56.544,56.544,0,0,0,1.4-6.114c.413-2.316.022-3.251-.243-3.423A.19.19,0,0,0,336.569,384.889Z" transform="translate(-276.952 -338.076)" fill="#015288"/>
      <path id="Path_4292" data-name="Path 4292" d="M322.414,476.287,324.891,479c-2.326-.219-2.442,3.492.489,3.669-2.99-.116-3.112,3.71-.192,3.751-2.92-.158-3.039,4.15-.288,4.393-.7.762-1.249,1.359-1.842,2,3.779,1.771,24.672,1.655,25.109-.189-.515-.61-1.083-1.29-1.665-1.978,2.933-.258,2.154-4.145-.291-3.965a1.991,1.991,0,1,0-.016-3.982,1.855,1.855,0,0,0,.352-3.664l2-2.746Z" transform="translate(-278.102 -372.312)" fill="#0086ca" fill-rule="evenodd"/>
    </g>
    <g id="Group_1670" data-name="Group 1670" transform="translate(481.196 363.283)">
      <path id="Path_4293" data-name="Path 4293" d="M908.12,886.785c1.21.99,6.331,5.365,5.509,10.029-.247,1.4-.719,1.06-8.172,8.506a26.325,26.325,0,0,1-7.3,5.109c-.354.149-.59.237-.693.267-1.031.306-2.4.288-6.571.131-5.633-.212-6.782-.3-7.77-1.346-.892-.942-1.643-2.651-1.04-3.609.95-1.509,4.32.343,8.394-1.372a11.59,11.59,0,0,0,3.353-2.3,23.132,23.132,0,0,0,6.527-10.43S905.825,891.828,908.12,886.785Z" transform="translate(-794.94 -592.519)" fill="#19114c"/>
      <path id="Path_4294" data-name="Path 4294" d="M805.255,905.881s-17.446,6.784-26.815,7.107c0,0-10.984-.969,17.446-13.892,0,0,4.522,4.2,9.692,2.261Z" transform="translate(-755.961 -597.068)" fill="#19114c"/>
      <path id="Path_4295" data-name="Path 4295" d="M808.539,655.7c-2.661,15.6-4.894,32.215-6.471,49.761a635.486,635.486,0,0,0-.436,108.481l12.083,1.014c-.047-13.755.487-28.523,1.865-44.157a484.744,484.744,0,0,1,13.393-78.078l4.8-37.02Z" transform="translate(-764.522 -507.152)" fill="#48a7bb"/>
      <path id="Path_4296" data-name="Path 4296" d="M828.87,666.858a318.929,318.929,0,0,0,52.845,150.108L891.5,807.7a230.5,230.5,0,0,1-29.2-142.6Z" transform="translate(-775.362 -510.623)" fill="#48a7bb"/>
      <g id="Group_1661" data-name="Group 1661" transform="translate(4.567 23.499)">
        <path id="Path_4297" data-name="Path 4297" d="M751.257,478.094a20.222,20.222,0,0,0,2.4-4.121,15.759,15.759,0,0,0,1.514-5.558c.142-2.385-.492-3.168-.43-6.985a4.681,4.681,0,0,1,.892-2.981c.269-.334.939-1.166,1.58-1.05.975.177.734,2.336,2.1,6.717a17.728,17.728,0,0,1,1.132,4.611,13.481,13.481,0,0,1-.073,2.632c-.226,1.915-.018,5.965,1.67,15.073-.375-.054-.737-.124-1.085-.208C755.99,485.03,752.879,480.858,751.257,478.094Z" transform="translate(-751.257 -457.388)" fill="#f89a5b"/>
      </g>
      <path id="Path_4298" data-name="Path 4298" d="M751,495.556a10.944,10.944,0,0,1-4.094-2.846c-1.142-1.29-1.259-2.088-2.74-12.251-.156-1.074-.434-2.979.645-3.949a2.509,2.509,0,0,1,1.37-.564c3.025-.475,6.347-1,7.093.4.654,1.226-1.442,2.483-2.338,7.173a7.8,7.8,0,0,0-.248,1.916c.408,4.55,8.96,6.166,8.731,8.015C759.327,494.2,757.8,495.086,751,495.556Z" transform="translate(-744.014 -440.559)" fill="#f89a5b"/>
      <g id="Group_1662" data-name="Group 1662" transform="translate(0.114 52.396)">
        <path id="Path_4299" data-name="Path 4299" d="M785.671,535.342c-2.619,2.332-20.757,18.423-25.318,19.857-.7.22-2.556.8-3.546-.08a2.534,2.534,0,0,1-.663-1.862c-.067-3.643,4.032-45.68,4.458-50.042-1.685.19-3.531.5-5.516.911a41.833,41.833,0,0,0-5.391,1.47c-1.668,10.239-2.851,19.035-3.689,25.908-2.849,23.4-2.585,31.915,2.58,35.464a11.367,11.367,0,0,0,2.9,1.29c4.115,1.455,11.28,2.785,26.408-2.5a110.185,110.185,0,0,0,25.611-12.963,20.681,20.681,0,0,0-4.84-10.594A21.071,21.071,0,0,0,785.671,535.342Z" transform="translate(-744.195 -503.214)" fill="#ffd63f"/>
      </g>
      <path id="Path_4300" data-name="Path 4300" d="M852.087,539.962c.866-2.22-.2-3.794-1.2-8.72a51.924,51.924,0,0,1-1.013-8.5,44.148,44.148,0,0,1-11.838-.013q-.227,2.824-.509,5.713c-.206,2.106-.416,4.059-.622,5.841-.228,1.984-.456,3.8-.67,5.429a9.2,9.2,0,0,0,8.242,4.957C847.689,544.592,851.01,542.721,852.087,539.962Z" transform="translate(-778.083 -458.026)" fill="#f89a5b"/>
      <path id="Path_4301" data-name="Path 4301" d="M824.271,549.657c-1.566.235-2.983.45-4.219.637l-1.889.288c-2.156.334-6.768,1.05-9.48,2.856-3.833,2.551-4.633,7.785-4.834,9.948.249.1.6.248,1.014.455a13.717,13.717,0,0,1,1.991,1.244c7.24,5.547,5.428,17.009,5.3,17.767a77.174,77.174,0,0,1,1.234,35.79,51.516,51.516,0,0,0,37.854,1.262,91.728,91.728,0,0,1,3.49-37.582c-1.608-7.222.2-14.068,4.829-17.415a11.916,11.916,0,0,1,5.456-2.114,11.772,11.772,0,0,0-.53-3.136,13.543,13.543,0,0,0-3.283-5.19c-2.149-2.015-6.617-2.642-15.464-3.812l-5.613-.742" transform="translate(-766.119 -467.976)" fill="#f89a5b"/>
      <path id="Path_4302" data-name="Path 4302" d="M863.991,562.708a11.763,11.763,0,0,0-.53-3.136,13.542,13.542,0,0,0-3.283-5.19c-2.149-2.015-6.617-2.642-15.464-3.813l-5.613-.742a7.762,7.762,0,0,1-3.672,7.1,8.062,8.062,0,0,1-7.414.141,8.747,8.747,0,0,1-4.747-7.637c-.864.1-2.2.257-3.835.453-.652.078-1.672.2-2.921.356-4.96.615-7.44.922-7.789,1.017-5.11,1.386-7.789,12.538-7.634,21.6.1,5.618,1.2,5.383,2.885,17.632.232,1.679,1.007,7.384,1.5,14.746.345,5.194.615,12.021.428,20.09a108.235,108.235,0,0,0,46.336.8,244.467,244.467,0,0,1-.173-28.082c.325-6.226.34-1.736,1.645-15.8.892-9.613,1.144-14.5,4.829-17.415A10.643,10.643,0,0,1,863.991,562.708Z" transform="translate(-765.097 -467.891)" fill="#685b9e"/>
      <path id="Path_4303" data-name="Path 4303" d="M849.35,466.273c-.251-7.568-.378-11.351-.552-12.185-1.878-8.942-11.4-18.9-21.594-18.641-13.788.353-21.348,19.223-22.524,29.974a42.377,42.377,0,0,0,.99,13.769c1.041,4.12,2.206,8.73,5.919,12.5,5.383,5.465,12.515,5.492,15.774,5.508,3.334.016,11.811.093,17.186-6.355,3.092-3.71,3.92-8.093,4.54-11.369C849.49,477.342,849.652,475.321,849.35,466.273Z" transform="translate(-766.352 -425.782)" fill="#f89a5b"/>
      <g id="Group_1663" data-name="Group 1663" transform="translate(37.814 47.017)">
        <path id="Path_4304" data-name="Path 4304" d="M807.076,504.332a11.557,11.557,0,0,1,1.131.327c.3.108.737.274,1.382.494.152.052.264.168.359.1.841-.6.431-2.294,1.189-3.2a2.182,2.182,0,0,1,1.553-.646c1.85-.112,3.207.115,5.316.146,1.353.02,3.478-.222,5.193-.22.82,0,2.357-.062,3.108.793a6.379,6.379,0,0,1,1.2,2.148,2.94,2.94,0,0,0,.587,1.221,1.328,1.328,0,0,0,.977.208,12.01,12.01,0,0,0,2.361-.129c2.631-.7,4.472-1.466,5.945-4.043.957-1.675.539-3.9.719-5.867.014-.156-.05-.492.195-.663a1.758,1.758,0,0,1,1.78-.139c.366,2.146.114,5.948.224,7.813.153,2.6.714,6.521.28,8.266a11.752,11.752,0,0,1-2.6,5.126c-3.756,4.192-9.611,4.549-16.364,4.859a55.869,55.869,0,0,1-8.507-.673c-2.189-.258-4.046-.543-5.521-1.964a7.212,7.212,0,0,1-1.461-2.061,11.309,11.309,0,0,1-.748-3.776c-.09-.9-.086-1.207-.142-1.994-.095-1.3-.226-2.1-.606-4.453-.588-3.655-.9-5.687-.356-8.086.011-.05.226-.987.448-.975C805.3,496.979,805.251,503.749,807.076,504.332Z" transform="translate(-803.982 -494.684)" fill="#112129"/>
      </g>
      <path id="Path_4305" data-name="Path 4305" d="M818.025,510.394a5.172,5.172,0,0,0,1.977,2.38c2.452,1.521,6.4.643,9.626-2.4Z" transform="translate(-771.356 -453.463)" fill="#dc7044"/>
      <path id="Path_4306" data-name="Path 4306" d="M821.38,501.9c-.673.012-1.3-.011-1.872-.055a3.362,3.362,0,0,0,2.23.627,3.323,3.323,0,0,0,1.791-.729A19.845,19.845,0,0,1,821.38,501.9Z" transform="translate(-771.904 -450.276)" fill="#dc7044"/>
      <path id="Path_4307" data-name="Path 4307" d="M829.792,449.664c-3.258-2.381-6.283,3-15.252,2.542-8.184-.421-11.791-3.78-15.922-1.6a7.578,7.578,0,0,1-5.023,1.175,6.05,6.05,0,0,1-2.671-1.282,22.357,22.357,0,0,1-1.733-8.955,28.688,28.688,0,0,1,2.224-9.744c1.066-2.941,1.6-4.411,2.471-5.654,3.88-5.524,12.188-5.895,14.476-6,6.808-.3,8.346,2.023,13.323,3.742a30.769,30.769,0,0,0,6.906,1.447c6.011.747,8.73.147,12.332.9a23.351,23.351,0,0,1,7.4,2.991,43.556,43.556,0,0,1-2.65,29.208,44.885,44.885,0,0,0-.881,4.7c-.484,3.672-.3,5.827-1.15,9.8-.153.714-.3,1.292-.395,1.659q-.663-.018-1.351-.056c-1.183-.066-2.312-.175-3.381-.315q-.314-3.183-.627-6.364c1.786-4.07,1.4-6.9,1.069-8.228-.161-.65-.643-2.341-1.443-2.4-1.25-.1-2.436,3.854-2.516,4.126a14.9,14.9,0,0,0-.274,7.011l-2.084-.6a43.06,43.06,0,0,0,.171-5.141C832.662,456.928,832.523,451.66,829.792,449.664Z" transform="translate(-760.702 -420.122)" fill="#112129"/>
      <path id="Path_4308" data-name="Path 4308" d="M830.864,486.256c.108.807,1.794,1.459,3.133,1.417,1.68-.042,3.5-1.2,3.379-2.051-.149-1.028-3.032-2.009-5.142-.891C832.024,484.839,830.762,485.539,830.864,486.256Z" transform="translate(-776.096 -443.807)" fill="#fff"/>
      <g id="Group_1666" data-name="Group 1666" transform="translate(54.761 40.426)">
        <g id="Group_1665" data-name="Group 1665" clip-path="url(#clip-path-3)">
          <g id="Group_1664" data-name="Group 1664" transform="translate(0.73 0.199)">
            <ellipse id="Ellipse_222" data-name="Ellipse 222" cx="1.196" cy="1.423" rx="1.196" ry="1.423" fill="#1d262d"/>
          </g>
        </g>
      </g>
      <path id="Path_4310" data-name="Path 4310" d="M811.743,486.909a1.836,1.836,0,0,0,1.34,1.6,2.078,2.078,0,0,0,2.29-2.069c-.209-.921-2.051-1.231-2.8-1.017a1.125,1.125,0,0,0-.317.149A1.641,1.641,0,0,0,811.743,486.909Z" transform="translate(-769.033 -444.221)" fill="#fff"/>
      <g id="Group_1669" data-name="Group 1669" transform="translate(42.49 41.107)">
        <g id="Group_1668" data-name="Group 1668" clip-path="url(#clip-path-4)">
          <g id="Group_1667" data-name="Group 1667" transform="translate(0.508 -0.111)">
            <ellipse id="Ellipse_223" data-name="Ellipse 223" cx="0.939" cy="1.375" rx="0.939" ry="1.375" fill="#1d262d"/>
          </g>
        </g>
      </g>
      <path id="Path_4312" data-name="Path 4312" d="M867.281,482.036a7.457,7.457,0,0,0-1.088-3.58c-.491-.767-1.269-1.979-2.174-1.959-1.6.037-3.225,3.936-3.213,7.437.011,3.451,1.613,6.927,2.816,6.917a1.9,1.9,0,0,0,.873-.362,3.074,3.074,0,0,0,1.117-1.566C866.841,485.62,867.456,483.969,867.281,482.036Z" transform="translate(-787.16 -440.949)" fill="#f89a5b"/>
      <path id="Path_4313" data-name="Path 4313" d="M900.214,683.806c-1.211,2.942-2.218,5.415-3.08,7.466a7.083,7.083,0,0,0-.619,2.585,5.605,5.605,0,0,0,.871,3.478c1.071,1.472,2.862,1.746,4.131,1.94,2.446.374,6.683.107,8.662-2.708a9.981,9.981,0,0,0,1.344-3.423,13.946,13.946,0,0,0,.384-3.271c.026-2.332.2-5.833.531-10.759l-6.283-1.422Z" transform="translate(-800.349 -515.275)" fill="#f89a5b"/>
      <path id="Path_4314" data-name="Path 4314" d="M900.456,676.158a7.7,7.7,0,0,1-3.214,3.205,15.256,15.256,0,0,0-4.621,2.747,36.3,36.3,0,0,1-4.207,3.226c-.83.474.388,2.38,2.688,1.351s3.466-1.74,4.315-1.7,9.385,1.153,9.688-8.272Z" transform="translate(-797.263 -514.708)" fill="#f89a5b"/>
      <path id="Path_4315" data-name="Path 4315" d="M884.213,583.912c1.094,1.682,2.53,4.031,4.031,6.932a80.862,80.862,0,0,1,7.44,21.019,78.619,78.619,0,0,1,1.252,22.076l11.706,1.927a98.892,98.892,0,0,0,1.2-29.869,101.213,101.213,0,0,0-18.378-47.313,13.758,13.758,0,0,0-3.224,2.176C880.4,567.99,883.756,582.1,884.213,583.912Z" transform="translate(-795.4 -471.31)" fill="#ffd63f"/>
    </g>
    <g id="Group_1678" data-name="Group 1678" transform="translate(122.957 418.362)">
      <path id="Path_4316" data-name="Path 4316" d="M343.264,925.248s17.225,3.959,26.023,2.982c0,0,10.131-2.4-18.2-10.6,0,0-3.653,4.541-8.747,3.435Z" transform="translate(-237.388 -658.993)" fill="#19114c"/>
      <path id="Path_4317" data-name="Path 4317" d="M312.905,757.492c-5.9-3.9-22.542-6.322-25.535-6.747l-40.289-5.557c-14.057,6.451-20.258,9.349-21.234,9.882-.085.047-.449.232-.953.437a7.791,7.791,0,0,1-2.51.474,19.628,19.628,0,0,0-7.352,2.005,32.007,32.007,0,0,0,10.037,13.594c7.175,5.49,14.813,5.922,24.707,6.346,18.869.807,42.714-4.229,44.081-4.364.039,0,.761-.079,1.67-.187h.006c1.214-.145,1.751-.232,3.691-.433,1.721-.178,3.935-.361,7.494-.556,4.932-.27,6.813-.256,8.332-1.855,2.509-2.641,2.21-8-.122-11.133A8.029,8.029,0,0,0,312.905,757.492Z" transform="translate(-190.356 -595.289)" fill="#00a494"/>
      <g id="Group_1671" data-name="Group 1671" transform="translate(104.413 161.179)">
        <path id="Path_4318" data-name="Path 4318" d="M343.07,772.98c-1.1,19.835-1.674,40.557-1.576,62.1q.066,14.73.533,28.907a16.1,16.1,0,0,0,3.29,1.287,16.472,16.472,0,0,0,7.377.232c1.515-15.771,3.2-31.686,5.127-47.373,1.814-14.787,3.8-29.211,5.808-43.974.5-3.069-.149-6.9-2.585-8.847-3.42-2.731-7.422-3.147-10.8-.179-.2.175-.382.351-.554.53a9.643,9.643,0,0,0-1.307,1.712C348,768.006,346.775,769.443,343.07,772.98Z" transform="translate(-341.483 -763.076)" fill="#00a494"/>
      </g>
      <path id="Path_4319" data-name="Path 4319" d="M273.25,924.358c3.528-.008,7.368-.178,11.469-.6a115.277,115.277,0,0,0,16.106-2.814s9.26-4.76-20.2-5.933a7.419,7.419,0,0,1-1.881,2.66,7.9,7.9,0,0,1-5.4,1.9Z" transform="translate(-211.863 -658.027)" fill="#19114c"/>
      <g id="Group_1672" data-name="Group 1672" transform="translate(60.947 161.179)">
        <path id="Path_4320" data-name="Path 4320" d="M274.139,772.98c-1.1,19.835-1.674,40.557-1.576,62.1q.066,14.73.533,28.907a16.1,16.1,0,0,0,3.29,1.287,16.472,16.472,0,0,0,7.377.232c1.515-15.771,3.2-31.686,5.127-47.373,1.814-14.787,3.8-29.211,5.808-43.974.5-3.069-.149-6.9-2.585-8.847-3.42-2.731-7.422-3.147-10.8-.179-.2.175-.382.351-.554.53a9.653,9.653,0,0,0-1.307,1.712C279.067,768.006,277.844,769.443,274.139,772.98Z" transform="translate(-272.552 -763.076)" fill="#00a494"/>
      </g>
      <g id="Group_1673" data-name="Group 1673" transform="translate(97.621 100.034)">
        <path id="Path_4321" data-name="Path 4321" d="M355.988,670.883a4,4,0,0,1,1.629,1.8c.276,1.061.359,2.843-1.013,3.073s-2.46-1.32-4.178-1.648c-1.131-.216-3.583-.777-5.032-.291a4.747,4.747,0,0,0-1.271.667,13.034,13.034,0,0,0-2.062,1.758c-1.32,1.2-6.045,1.1-8.015.267-1.1.293-2.04.525-3.058.883a1.06,1.06,0,0,0-.032-.15c-.746-2.494-1.447-4.995-2.244-7.472a36.058,36.058,0,0,1,5.241-.391,18.566,18.566,0,0,0,7.378-3.262c2.983-.114,4.693,1.248,7.407,2.389A35.2,35.2,0,0,1,355.988,670.883Z" transform="translate(-330.712 -666.108)" fill="#f89a5b"/>
      </g>
      <path id="Path_4322" data-name="Path 4322" d="M218.251,645.514c10.538,4.55,19.658,7.8,26.6,10.062,18.3,5.963,25.521,6.4,30.47,6.275a64.1,64.1,0,0,0,14.526-2.035s2.12,1.119,4.538,8.916a96.622,96.622,0,0,1-11.895,3.659,101.588,101.588,0,0,1-23.838,2.516c-19.463-.378-35.523-7.451-42.391-10.8a11.3,11.3,0,0,1-3.988-10.922A11.611,11.611,0,0,1,218.251,645.514Z" transform="translate(-189.257 -558.467)" fill="#f7531b"/>
      <path id="Path_4323" data-name="Path 4323" d="M230.017,650.094a62.7,62.7,0,0,1,6.243,7.315,54.63,54.63,0,0,1,6.369,10.972c2.27,5.675,1.513,9.837,0,23.016-.567,4.855-1.324,12.359-2.144,21.818a42.969,42.969,0,0,1-4.685,1.3,46.841,46.841,0,0,1-23.817-1.3,39.573,39.573,0,0,0,2.081-13.242c-.126-8.134-2.775-9.9-4.981-20.241-.189-.82-3.594-17.215,1.135-27.178a15.057,15.057,0,0,1,5.8-6.873,15.786,15.786,0,0,1,4.414-1.766,5.287,5.287,0,0,0,.5,2.4C222.135,648.958,225.729,650.409,230.017,650.094Z" transform="translate(-187.654 -557.876)" fill="#e2995f"/>
      <path id="Path_4324" data-name="Path 4324" d="M226.9,650.094c.694.63,1.766,1.576,3.09,2.838,11.35,10.657,12.738,14.188,13.242,15.89s.5,3.405.631,6.936c.189,6.684-.883,8.954-1.261,15.134-.044.782-.064,1.392-.062,1.991.023,5.451-.161,8.236.692,11.251a19.474,19.474,0,0,0,1.723,4.15,35.958,35.958,0,0,1-8.647,6.1c-1.561.779-5.124,2.409-19.939,5.011-3.055.537-5.555.934-7.155,1.18-.653-3.891-1.648-9.771-2.889-16.935-1.38-7.975-2.708-15.959-4.068-23.938-3.3-19.357-4.31-25.037-.643-29.8a15.449,15.449,0,0,1,7.567-5.044h1.261a13.946,13.946,0,0,0,4.855-.315,17.745,17.745,0,0,0,1.955-.631A12.549,12.549,0,0,0,226.9,650.094Z" transform="translate(-184.54 -557.876)" fill="#f7531b"/>
      <path id="Path_4325" data-name="Path 4325" d="M251.086,559.375a37.813,37.813,0,0,1,4.6,13.684,21.159,21.159,0,0,0,2.018,8.071c.378.82,1.2,2.27.631,3.153-.378.567-1.261.631-1.892.631-.82,4.1-1.261,7.378-1.513,9.585,0,0-.946,8.387-3.468,10.4-.126.126-.252.189-.378.315a4.969,4.969,0,0,1-3.405.5c-1.766-.252-7.062-.441-14.5-.631a28.052,28.052,0,0,0-.757,4.6c-.063,1.009-.063,1.829-.063,2.4a35.906,35.906,0,0,0,.315,5.234,22.531,22.531,0,0,1-13.494-5.171,52.759,52.759,0,0,0,2.081-6.054,57.5,57.5,0,0,0,1.7-7.945s-13.116-7.5-6.558-16.9c5.045-6.18,8.134,0,8.134,0a32.113,32.113,0,0,1,13.116-26.043C237.592,555.151,246.42,560.006,251.086,559.375Z" transform="translate(-190.184 -525.107)" fill="#f89a5b"/>
      <path id="Path_4326" data-name="Path 4326" d="M265.278,583.74c-.063.757,1.009,1.576,1.955,1.7,1.135.126,2.522-.694,2.522-1.513,0-.946-1.766-2.207-3.342-1.45C266.224,582.6,265.278,583.046,265.278,583.74Z" transform="translate(-208.917 -535.094)" fill="#fff"/>
      <g id="Group_1677" data-name="Group 1677" transform="translate(56.359 47.183)">
        <g id="Group_1676" data-name="Group 1676">
          <g id="Group_1675" data-name="Group 1675" clip-path="url(#clip-path-5)">
            <g id="Group_1674" data-name="Group 1674" transform="translate(1.704 0.689)">
              <ellipse id="Ellipse_224" data-name="Ellipse 224" cx="1.261" cy="0.883" rx="1.261" ry="0.883" transform="translate(0 2.507) rotate(-83.662)" fill="#1d262d"/>
            </g>
          </g>
        </g>
      </g>
      <path id="Path_4328" data-name="Path 4328" d="M271.221,610.866c.063,1.766-.5,2.459-.82,2.711-1.513,1.387-5.423.378-9.522-2.964Z" transform="translate(-207.293 -545.574)" fill="#c46f48"/>
      <path id="Path_4329" data-name="Path 4329" d="M255.087,531.522a5.034,5.034,0,0,0,.694-5.738,4.711,4.711,0,0,0-2.459-1.955c.252-1.955,0-4.162-2.711-4.225,1.2-1.829-.631-3.216-2.207-3.216,1.009-2.775-3.216-4.729-6.495-3.783-1.324-1.261-4.162-1.387-5.045-1.135-.631-1.513-4.288-2.207-5.549-1.261a4.857,4.857,0,0,0-6.621-1.829c-.126.063-.252.189-.378.252-.631-1.009-2.964-1.955-3.657-.126-4.54-2.27-7.5-.378-8.576,1.7-1.261-.946-5.423-1.135-6.117.378-.631-1.135-4.792-.126-4.54,2.081-3.216-.946-7.5,1.009-6.495,3.783-1.576,0-4.666,1.387-3.531,3.216-3.531-.441-4.162,2.964-3.91,4.919-4.288-1.135-7.945,3.09-6.117,6.117-1.829.126-2.838,4.162-1.45,5.486-4.414,1.009-2.333,8.639-1.072,9.774-1.829-.82-5.045,3.342-1.009,5.3-2.459,3.783,1.009,9.4,4.792,9.9-.378.694-.252,3.09,2.838,3.784-2.081,2.964,2.081,5.99,5.3,6.306-.378.694.252,2.964,2.081,2.9-2.459,2.775,1.829,4.6,4.288,4.793-1.45,1.387,1.576,3.468,3.279,2.081,1.261.063,2.018-.189,2.4-.694.568,1.009,1.513,1.7,3.468.568,2.144.5,3.847-2.712,1.955-3.279,2.081-1.324,5.108-4.855,1.64-6.243,1.7-.694,1.2-3.09.567-3.468,2.711-1.766,5.108-6.306,1.892-8.008,2.459-2.018,1.513-4.225.82-4.666a4.592,4.592,0,0,0,2.964-4.6,2.365,2.365,0,0,0,1.324,0,2.2,2.2,0,0,0,1.324-2.018h4.288a14,14,0,0,0,3.91-1.513,2.787,2.787,0,0,0,1.513.694c2.585,1.45,6.18,1.766,6.873-1.135,2.585,1.892,4.477.378,4.729-.378,2.838,2.522,9.4,1.45,10.594-2.9,4.1,1.766,5.108-3.405,3.279-4.288a4.038,4.038,0,0,0,2.9-4.855A3.008,3.008,0,0,0,255.087,531.522Z" transform="translate(-175.899 -507.469)" fill="#3b2315"/>
      <path id="Path_4330" data-name="Path 4330" d="M204.456,667.159a18.037,18.037,0,0,1-.441-6.369,19.37,19.37,0,0,1,5.549-11.477c5.108,5.864,9.648,10.341,12.99,13.494,9.459,8.891,20.431,18.917,36.826,26.106a91.549,91.549,0,0,0,12.864,4.54c1.955-.378,3.973-.82,6.054-1.135,1.513-.252,3.027-.5,4.477-.694,0,.441.063.946.063,1.387-.631.378-1.45.946-1.324,1.261s.946.189,1.2.189a6.442,6.442,0,0,0,3.279-1.45c3.531-2.585,3.657-2.9,4.225-2.837,1.576.126,3.09,2.648,2.9,4.855a5.821,5.821,0,0,1-1.639,3.279,9.43,9.43,0,0,1-3.027,2.144,28.569,28.569,0,0,1-6.369,2.333l-8.828-1.766h0c-3.468-.189-6.873-.5-10.341-1.009a92.814,92.814,0,0,1-40.546-15.764A90.314,90.314,0,0,1,204.456,667.159Z" transform="translate(-186.244 -559.87)" fill="#f89a5b"/>
      <path id="Path_4331" data-name="Path 4331" d="M208.923,647.914c3.027,3.09,7.63,7.819,13.557,13.242,11.855,10.846,18.791,17.215,29.259,22.385a83.493,83.493,0,0,0,19.989,6.936s1.513,1.829.82,9.963a91.789,91.789,0,0,1-70.057-35.06c-.315-1.766-1.2-7.882,2.522-13.431A18.248,18.248,0,0,1,208.923,647.914Z" transform="translate(-185.604 -559.353)" fill="#f7531b"/>
    </g>
    <g id="Group_1679" data-name="Group 1679" transform="translate(127.229 608.522)">
      <rect id="Rectangle_371" data-name="Rectangle 371" width="1.74" height="76.279" transform="translate(36.833)" fill="#015288"/>
      <rect id="Rectangle_372" data-name="Rectangle 372" width="76.307" height="1.739" transform="translate(0 75.879) rotate(-61.815)" fill="#015288"/>
      <rect id="Rectangle_373" data-name="Rectangle 373" width="1.739" height="76.305" transform="translate(37.815 9.452) rotate(-28.215)" fill="#015288"/>
    </g>
    <path id="Path_4332" data-name="Path 4332" d="M219.668,649.714c-24-1.322-35.073,3.493-35.073,3.493l3.725,23.708,31.348.238Z" transform="translate(-56.154 -141.571)" fill="#0086ca"/>
    <path id="Path_4333" data-name="Path 4333" d="M274.9,798.741l-76.023-.47-2.535-13.325s38.648-.53,60.69,1.734,17.483,6.283,17.483,6.283Z" transform="translate(-60.495 -191.594)" fill="#0086ca"/>
    <path id="Path_4334" data-name="Path 4334" d="M270.56,800.182,183.543,799l2.862,7.192,84.666-.147Z" transform="translate(-55.766 -196.806)" fill="#015288"/>
    <path id="Path_4335" data-name="Path 4335" d="M212.1,799.389,183.543,799l2.862,7.192,25.7-.044Z" transform="translate(-55.766 -196.806)" fill="#015288" opacity="0.5"/>
    <path id="Path_4336" data-name="Path 4336" d="M224.973,760.489a11.848,11.848,0,0,1-7.372-2.3c-7.233-5.492-7.342-19.3-7.439-31.478-.019-2.369-.038-4.638-.112-6.723-.128-3.58.019-7.439.187-11.908a303.833,303.833,0,0,0-.773-40.471l1.732-.146a305.539,305.539,0,0,1,.779,40.683c-.168,4.434-.313,8.264-.186,11.778.075,2.1.093,4.388.112,6.773.089,11.2.2,25.13,6.75,30.107,2.8,2.127,6.558,2.512,11.478,1.185l.455,1.679A21.512,21.512,0,0,1,224.973,760.489Z" transform="translate(-65.342 -148.214)" fill="#015288"/>
  </g>
</svg>
