<svg xmlns="http://www.w3.org/2000/svg" xmlns:xlink="http://www.w3.org/1999/xlink" width="649" height="441.621" viewBox="0 0 649 441.621">
  <defs>
    <clipPath id="clip-path">
      <path id="Path_2962" data-name="Path 2962" d="M155.75,258.717c-.036.877,1.146,1.777,2.178,1.907,1.288.16,2.847-.8,2.847-1.755,0-1.117-2.021-2.523-3.786-1.6C156.831,257.361,155.778,257.912,155.75,258.717Z" transform="translate(-155.749 -256.969)" fill="none"/>
    </clipPath>
    <clipPath id="clip-path-2">
      <path id="Path_2984" data-name="Path 2984" d="M712.847,101.3c.135.979,2.135,1.755,3.744,1.7,2-.073,4.163-1.45,4-2.523-.185-1.247-3.63-2.407-6.128-1.037C714.213,99.573,712.719,100.4,712.847,101.3Z" transform="translate(-712.839 -98.817)" fill="none"/>
    </clipPath>
    <clipPath id="clip-path-3">
      <path id="Path_2986" data-name="Path 2986" d="M689.75,101.866a2.286,2.286,0,0,0,2.676,1.871,2.246,2.246,0,0,0,1.907-2.436c-.278-1.131-1.971-1.378-2.74-1.341a1.849,1.849,0,0,0-.762.167A1.975,1.975,0,0,0,689.75,101.866Z" transform="translate(-689.75 -99.955)" fill="none"/>
    </clipPath>
  </defs>
  <g id="contacto" transform="translate(0 27.835)">
    <g id="object" transform="translate(0 -28.485)">
      <ellipse id="Ellipse_150" data-name="Ellipse 150" cx="109.41" cy="11.762" rx="109.41" ry="11.762" transform="translate(0 418.749)" fill="#55162e" opacity="0.23"/>
      <path id="Path_2952" data-name="Path 2952" d="M118.618,341.137a21.082,21.082,0,0,1-5.978-4.155,22.975,22.975,0,0,1-6.32-13.154,207.031,207.031,0,0,0,21.066-2.175c14.5-2.175,31.052-4.982,48.872-14.669a100.378,100.378,0,0,0,13-8.426c2.263-5.076,3.786-6.454,4.775-6.7a6.157,6.157,0,0,0,2.342-1.066,3.587,3.587,0,0,0,.975-.943c.747-1.218.263-3.111-.562-4.351-1.26-1.893-3-1.769-3.046-2.8s1.58-2.175,3.1-2.27a4.413,4.413,0,0,1,2.847.906,10.773,10.773,0,0,1,4.014,5.8c.8,2.32,2.043,5.9.576,9.209l-7.758,6.722h0a113.331,113.331,0,0,1-8.113,8.593C182.792,317,168.551,330.3,146.09,337.04a96.933,96.933,0,0,1-27.472,4.1Z" transform="translate(-30.652 -56.423)" fill="#e2995f"/>
      <path id="Path_2953" data-name="Path 2953" d="M104.4,328.358a267.289,267.289,0,0,0,35.585-4.351c21.209-4.061,29.18-8.288,33.45-10.877a72.845,72.845,0,0,0,13.138-10.21s2.7-.073,9.366,6.367a108.556,108.556,0,0,1-9.693,10.369,114.628,114.628,0,0,1-22.063,15.953c-19.33,10.573-39.051,12.567-47.684,13.052a19.135,19.135,0,0,1-9.964-8.7A19.5,19.5,0,0,1,104.4,328.358Z" transform="translate(-30.054 -62.606)" fill="#d65425"/>
      <path id="Path_2954" data-name="Path 2954" d="M189.951,552.547s-1.566,7.556-.932,11.37,25.4,5.9,32.2,3.676,2.9-7.607-4.4-9.332-14.106-1.167-13.209-6.911C203.609,551.379,197.168,555.824,189.951,552.547Z" transform="translate(-54.45 -130.89)" fill="#1d184c"/>
      <path id="Path_2955" data-name="Path 2955" d="M75.995,528.525s-9.622-2.11-11.864.624-.512,11.682-2.47,16.127-2.221,10.935,6.235,13.284,8.434-4.561,4.22-6.526,3.715-13.778,3.715-13.778S72.792,533.4,75.995,528.525Z" transform="translate(-17.45 -124.403)" fill="#1d184c"/>
      <path id="Path_2956" data-name="Path 2956" d="M78.307,500.637a131.2,131.2,0,0,0,34.162,3.626c3.729-.1,7.295-.355,10.676-.725-.968-1.45-2.462-3.735-4.27-6.526C95.032,460.2,93.181,451.074,93.253,444.077a43.028,43.028,0,0,1,3.2-15.627c3.1,1.349,7.921,2.415,13.843,3.307,7.295,1.1,15.351,1.1,18.362-3.307a227.541,227.541,0,0,0,8.007,43.907c7.224,25.22,16.412,35.532,11.387,42.783-4.142,5.968-18,5.025-45.549,2.9-11.167-.863-20.454-1.994-27.045-2.9q.712-3.154,1.423-6.526Q77.709,504.5,78.307,500.637Z" transform="translate(-21.755 -97.109)" fill="#5ca192"/>
      <path id="Path_2957" data-name="Path 2957" d="M104.377,428.45c-.847,3.024-4.32,16.678,3.2,27.229,8.74,12.269,26.283,11.885,30.6,11.6,8.021-.529,12.1-3.437,32.027-6.526,2.135-.326,3.857-.573,4.982-.725-.356,1.385-.861,3.386-1.423,5.8-1.808,7.744-3.075,14.706-4.982,27.555-1.068,7.186-2.3,15.953-3.559,26.1l15.657,2.175c.178-2.495.555-6.9,1.423-12.327,2.8-17.4,10.113-41.826,12.811-50.76,1.018-3.372,2.847-9.383.712-15.953-.463-1.414-1.914-5.859-5.694-8.7-5.928-4.46-13.323-1.777-24.91,0a140.357,140.357,0,0,1-27.045,1.45h-5.694C130.9,435.375,124,433.838,104.377,428.45Z" transform="translate(-29.648 -97.109)" fill="#5ca192"/>
      <path id="Path_2958" data-name="Path 2958" d="M123.374,325.64a73.714,73.714,0,0,1,7.06,8.448,64.275,64.275,0,0,1,7.217,12.6c2.534,6.526,1.673,11.283,0,26.46-.612,5.591-1.516,14.213-2.448,25.061-1.7,1.45-3.267,2.821-4.911,3.227-4.32,1.081-12.369,1.081-27.294-3.227a47.161,47.161,0,0,0,2.32-15.228c-.142-9.383-3.124-11.392-5.644-23.291-.2-.921-4.042-19.789,1.317-31.268a17.674,17.674,0,0,1,6.526-7.926,15.608,15.608,0,0,1,4.982-2,6.3,6.3,0,0,0,.562,2.785C114.463,324.371,118.577,326.039,123.374,325.64Z" transform="translate(-28.298 -66.885)" fill="#e2995f"/>
      <path id="Path_2959" data-name="Path 2959" d="M121.2,325.645c.79.725,2.007,1.842,3.466,3.241,12.811,12.226,14.376,16.308,14.946,18.259s.6,3.894.712,7.977c.214,7.694-1.032,10.3-1.423,17.4-.214,3.858.1,4.061.712,15.228.349,6.388.569,12.219.712,17.4a62.783,62.783,0,0,1-9.473,1.581,68.648,68.648,0,0,1-21.557-1.45c-4.377-.95-8.021-1.777-10.626-2.371a46.08,46.08,0,0,0,2.512-18.063c-.057-.928-.185-2.422-.712-5.8-1-6.374-2.235-11.754-3.146-15.351-.52-2.052-.918-3.5-1.124-4.228-5.039-18.317-7.644-27.795-3.559-34.081,1.124-1.726,3.409-4.235,8.54-5.8h1.423a16.456,16.456,0,0,0,5.494-.355,15.973,15.973,0,0,0,2.206-.725,13.938,13.938,0,0,0,10.9,7.114Z" transform="translate(-26.129 -66.891)" fill="#d65425"/>
      <path id="Path_2960" data-name="Path 2960" d="M146.266,234.656a43.423,43.423,0,0,1,5.2,15.764,24.547,24.547,0,0,0,2.242,9.253c.455.935,1.381,2.647.712,3.626a2.573,2.573,0,0,1-2.135.725c-.925,4.7-1.423,8.462-1.729,11.044a48.927,48.927,0,0,1-1.251,8.9c-.946,3.04-1.432,2.84-2.532,3.263a16.612,16.612,0,0,1-3.587.554s-8.857-.329-17.234-.554a33.026,33.026,0,0,0-.861,5.272c-.093,1.175-.1,2.081-.107,2.727a45.2,45.2,0,0,0,.349,6.033,24.737,24.737,0,0,1-15.223-5.946,70.857,70.857,0,0,0,4.327-16.134s-14.818-8.629-7.409-19.455c5.694-7.106,9.152,0,9.152,0A37.039,37.039,0,0,1,131,229.79S141.028,235.4,146.266,234.656Z" transform="translate(-30.258 -42.505)" fill="#e2995f"/>
      <path id="Path_2961" data-name="Path 2961" d="M155.75,258.688c-.036.877,1.139,1.791,2.171,1.936,1.281.174,2.847-.776,2.847-1.726,0-1.117-2.007-2.545-3.779-1.646C156.846,257.34,155.785,257.883,155.75,258.688Z" transform="translate(-44.902 -49.976)" fill="#fff"/>
      <g id="Group_1103" data-name="Group 1103" transform="translate(110.847 206.993)" clip-path="url(#clip-path)">
        <path id="Path_3134" data-name="Path 3134" d="M1.466,0C2.276,0,2.931.435,2.93.98s-.658.987-1.468.989S0,1.53,0,.986.656,0,1.466,0Z" transform="translate(1.933 3.731) rotate(-83.66)" fill="#1d262d"/>
      </g>
      <path id="Path_2963" data-name="Path 2963" d="M163.106,285.577c.1,2-.541,2.806-.89,3.125-1.729,1.6-6.142.471-10.747-3.423Z" transform="translate(-43.669 -57.757)" fill="#c46f48"/>
      <path id="Path_2965" data-name="Path 2965" d="M439.065,71.18,168.49,162.395l163.193,40.332Z" transform="translate(-48.575 1.091)" fill="#6ea6ba"/>
      <path id="Path_2966" data-name="Path 2966" d="M158.57,172.052l57.648,177.535,290.1-93.666s-7.526-19.573-59.378-181.081L332.531,215.045Z" transform="translate(-45.716 0.085)" fill="#6ea6ba"/>
      <path id="Path_2964" data-name="Path 2964" d="M155.865,209.771a5.979,5.979,0,0,0,.811-6.635,5.182,5.182,0,0,0-2.811-2.219c.3-2.248,0-4.757-3.075-4.887,1.317-2.11-.712-3.7-2.484-3.7,1.167-3.169-3.658-5.417-7.323-4.351-1.459-1.45-4.683-1.588-5.694-1.32-.712-1.719-4.832-2.516-6.291-1.45a5.492,5.492,0,0,0-3.552-2.707,5.4,5.4,0,0,0-4.355.858c-.712-1.189-3.366-2.241-4.1-.131-5.124-2.639-8.491-.4-9.665,1.98-1.423-1.059-6.142-1.32-6.875.4-.712-1.32-5.423-.131-5.131,2.378-3.651-1.059-8.483,1.189-7.316,4.351-1.758,0-5.267,1.588-3.95,3.7-3.95-.529-4.683,3.437-4.391,5.678-4.832-1.32-8.932,3.568-6.882,7-2.05.131-3.224,4.757-1.608,6.338-4.982,1.189-2.64,9.913-1.174,11.232-2.05-.921-5.694,3.829-1.167,6.077C66.049,236.718,70,243.2,74.248,243.73c-.441.79-.3,3.568,3.217,4.351-2.342,3.437,2.341,6.874,6.007,7.251-.441.79.292,3.437,2.341,3.307-2.783,3.169,2.05,5.279,4.825,5.547-1.608,1.581,1.758,3.959,3.665,2.378a2.942,2.942,0,0,0,2.712-.812c.626,1.175,1.722,1.958,3.886.638,2.4.544,4.356-3.125,2.221-3.8,2.37-1.508,5.751-5.613,1.872-7.172,1.886-.819,1.381-3.517.633-4.025,3.1-2.023,5.772-7.251,2.135-9.238,2.79-2.313,1.7-4.858.954-5.366a5.283,5.283,0,0,0,3.366-5.279,2.266,2.266,0,0,0,1.516,0,2.568,2.568,0,0,0,1.516-2.32h4.832a14.429,14.429,0,0,0,4.441-1.748,3.663,3.663,0,0,0,1.737.812c2.89,1.7,6.946,2.059,7.772-1.327,2.9,2.175,5.046.45,5.345-.413,3.188,2.9,10.569,1.661,11.949-3.35,4.647,1.994,5.743-3.945,3.708-4.9a4.549,4.549,0,0,0,3.353-3.906,4.6,4.6,0,0,0-2.385-4.585Z" transform="translate(-19.219 -29.375)" fill="#38281c"/>
      <path id="Path_2967" data-name="Path 2967" d="M480.45,87.546a51.809,51.809,0,0,0,1.815,7.36,49.967,49.967,0,0,0,11.594,19.339L529.016,71.18Z" transform="translate(-138.513 1.091)" fill="#231f20" opacity="0.2"/>
      <path id="Path_2968" data-name="Path 2968" d="M552.652,127.608a48.574,48.574,0,0,0,11.01-5.33L548.254,74.84,510,121.7A48.114,48.114,0,0,0,552.652,127.608Z" transform="translate(-147.032 0.085)" fill="#231f20" opacity="0.2"/>
      <path id="Path_3135" data-name="Path 3135" d="M49.434-.462A48.333,48.333,0,0,1,98.407,48.51a50.565,50.565,0,0,1-49.9,49.9A48.333,48.333,0,0,1-.462,49.434,50.565,50.565,0,0,1,49.434-.462Z" transform="translate(330.558 70.565) rotate(-45)" fill="#deba49"/>
      <path id="Path_2969" data-name="Path 2969" d="M558.194,83.087,548.016,51.761l-6.747,2.277L538.33,45l16.633-5.605,13.1,40.361Z" transform="translate(-155.2 9.829)" fill="#fff"/>
      <path id="Path_2970" data-name="Path 2970" d="M701.906,37.751c-4.135,1.356-9.807,3.22-14.4,7.977-9.494,9.869-6.135,24.075-6.576,50.818-.292,18.128-1.366,32.7-2.135,41.478l5.43-.326,1.943-17.476.043,17.476c2.932-.131,6.918-.283,11.636-.37,19.294-.348,28.909.957,52.353.87h3.487c-1.487-17.193-2.256-31.13-2.676-40.39-1.231-27.055,1-42.964-9.729-53.544a28.994,28.994,0,0,0-8.711-5.8C727.684,36.714,715.613,33.255,701.906,37.751Z" transform="translate(-195.694 10.888)" fill="#1d262d"/>
      <ellipse id="Ellipse_153" data-name="Ellipse 153" cx="116.876" cy="14.619" rx="116.876" ry="14.619" transform="translate(415.249 392.629)" fill="#55162e" opacity="0.23"/>
      <path id="Path_2971" data-name="Path 2971" d="M654.441,209.225s-12.234,22.936-26.333,6.526-23.977-28.607-23.977-28.607-.8-8.7-6.22-10.877a8.391,8.391,0,0,0-5.43-.058c-1.21.384-2.584,1.588-5.288,3.988s-3.21,3.162-3.053,3.749c.221.8,1.423,1.233,2.285,1.291a4.342,4.342,0,0,0,2.512-.79c4.441-2.436,4.982-2.69,5.509-2.538,1,.276,1.423,1.566,2.028,3.488,1.11,3.531,2.057,6.7,2.847,9.427.477,1.45.947,2.9,1.423,4.351.712,1.385,1.423,2.828,2.135,4.351.164.363.327.725.484,1.095,0,0,18.917,29.4,28.617,32.7s23.187.348,35.841-24.72C667.807,212.568,660.185,213.1,654.441,209.225Z" transform="translate(-168.399 -27.662)" fill="#84614b"/>
      <path id="Path_2972" data-name="Path 2972" d="M686.267,167.6a16.444,16.444,0,0,0-2.4.326c-8.042,1.74-12.7,9.492-14.761,13.016-2.711,4.648-2.768,6.664-4.982,12.327-2.954,7.556-9.252,23.6-17.081,23.93-1.637.065-3.146-.551-14.946-12.327-4.206-4.2-7.629-7.723-9.964-10.152-.712.435-1.423.921-2.135,1.45a33.271,33.271,0,0,0-8.54,9.427,129.922,129.922,0,0,0,7.829,10.877c10.184,12.7,15.885,19.811,24.2,21.029,11.878,1.733,22.319-9.536,24.91-12.327,5.323-5.743,2.576-6.222,13.522-24.879,2.847-4.909,5.6-9.325,7.416-16.236.747-2.843,3.01-11.414-1.06-15.228a6.185,6.185,0,0,0-2.007-1.233Z" transform="translate(-176.283 -25.411)" fill="#1d184c"/>
      <path id="Path_2973" data-name="Path 2973" d="M796.346,524.589s19.38,7.679,29.785,8.042c0,0,12.2-1.095-19.38-15.721,0,0-5.025,4.757-10.761,2.56Z" transform="translate(-229.483 -121.424)" fill="#744b90"/>
      <path id="Path_2974" data-name="Path 2974" d="M725.918,524.589s-19.372,7.679-29.778,8.042c0,0-12.206-1.095,19.372-15.721,0,0,5.025,4.757,10.768,2.56Z" transform="translate(-200.027 -121.424)" fill="#744b90"/>
      <path id="Path_2975" data-name="Path 2975" d="M682.22,82.581a33.375,33.375,0,0,0,5.793,21.508c1.16,1.646,6.263,6.845,13.594,10.877,9.081,4.982,25.835,2.132,36.3-10.667,0,0,15.358-4.626,9.772-16.366a5.363,5.363,0,0,0-2.192-2.27,6.088,6.088,0,0,0-4.719-.37c.192-2.067,1.21-15.663-8.633-25.518a29.209,29.209,0,0,0-13.8-7.665c-2.007-.4-13.131-2.415-23.372,4.953C682.491,66.041,682.22,81.109,682.22,82.581Z" transform="translate(-196.655 6.484)" fill="#84614b"/>
      <path id="Path_2976" data-name="Path 2976" d="M715.917,160.469s2.8-5.562,0-19.144a48.144,48.144,0,0,0,13.131-.725s-.562,14.169,2.932,17.73c0,0-4.889,21.7-16.063,19.919C710.679,175.7,715.917,160.469,715.917,160.469Z" transform="translate(-205.727 -17.99)" fill="#84614b"/>
      <path id="Path_2977" data-name="Path 2977" d="M701.883,266.87a83.6,83.6,0,0,0-10.512,23.2c-3.9,14.082-3.117,26.1,0,46.372,6.213,40.122,11.245,45.5,16.234,81.02,0,0,.548,3.9,4.5,33.886h0a19.981,19.981,0,0,0,12.69,0s-4.541-52.166,0-98.619c0,0-16.248-44.291-10.825-83.021A51.587,51.587,0,0,1,701.883,266.87Z" transform="translate(-198.56 -52.697)" fill="#5884d4"/>
      <path id="Path_2978" data-name="Path 2978" d="M742.1,266.22a67.87,67.87,0,0,1,10.042,13.988c8.313,15.438,8.341,30.209,8.5,37.374.491,21.616,4.406,41.42,12.234,81.02a401.133,401.133,0,0,0,13.7,51.086,22.789,22.789,0,0,1-2.847,1.233,24.165,24.165,0,0,1-10.014,1.313s-25.828-67.924-39.443-99.7c0,0-18.276-48.91-10.825-83.021C723.482,269.512,734.656,270.962,742.1,266.22Z" transform="translate(-208.054 -52.518)" fill="#5884d4"/>
      <path id="Path_2979" data-name="Path 2979" d="M725.88,165a28.967,28.967,0,0,0-5.694,4.351c-2.918,2.9-4.413,5.627-7.829,6.526-1.423.37-1.936.116-2.135,0-1.53-.877-1.665-4.271-.427-8.738a11.127,11.127,0,0,0-5.978,1.487c-2.135,1.262-3.786,3.343-5.694,8.7-2.057,5.8-2.391,9.775-3.558,17.4-.427,2.806-1.124,7.07-2.135,12.327.235,4.88,1.594,7.715,2.847,9.427a52,52,0,0,1,4.22,6.417,14.155,14.155,0,0,1,.762,1.559c.769,1.972.762,3.684.712,6.526a45.369,45.369,0,0,1-.712,7.251,62.532,62.532,0,0,1-2.847,10.152c-.833,2.422-1.587,4.409-2.135,5.8l49.107-.725c-4.078-8.963-6.512-15.228-8-19.354-.185-.5-.306-.856-.42-1.24,0,0-.064-.218-.121-.435-2.014-7.766,3.558-23.2,3.558-23.2,5.074-14.06,6.057-18.629,6.405-20.3,1.786-8.658,1.423-12.777-.712-15.953-1.751-2.632-4.228-3.952-6.405-5.076A26.782,26.782,0,0,0,725.88,165Z" transform="translate(-199.627 -24.693)" fill="#f4d54f"/>
      <path id="Path_2980" data-name="Path 2980" d="M698.51,122.876a7.448,7.448,0,0,0,3.117,2.7c3.16,1.385,7.274.189,10.377-3.024Z" transform="translate(-201.38 -13.029)" fill="#633631"/>
      <path id="Path_2981" data-name="Path 2981" d="M636.513,503.46c0,1.653-12.44,2.988-27.756,2.988S581,505.114,581,503.46s12.44-2.98,27.756-2.98S636.513,501.814,636.513,503.46Z" transform="translate(-167.502 -116.908)" fill="#55162e" opacity="0.23"/>
      <path id="Path_2982" data-name="Path 2982" d="M701.9,115.41c-.712,0-1.423,0-2.078-.065a3.68,3.68,0,0,0,2.477.725,3.629,3.629,0,0,0,1.993-.819A21.171,21.171,0,0,1,701.9,115.41Z" transform="translate(-201.757 -11.022)" fill="#633631"/>
      <path id="Path_2983" data-name="Path 2983" d="M712.847,101.271c.128.979,2.135,1.769,3.729,1.719,2-.051,4.17-1.45,4.021-2.487-.178-1.247-3.608-2.436-6.121-1.08C714.228,99.553,712.726,100.4,712.847,101.271Z" transform="translate(-205.511 -6.506)" fill="#fff"/>
      <g id="Group_1104" data-name="Group 1104" transform="translate(507.328 92.312)" clip-path="url(#clip-path-2)">
        <ellipse id="Ellipse_154" data-name="Ellipse 154" cx="1.423" cy="1.726" rx="1.423" ry="1.726" transform="translate(0.869 0.241)" fill="#1d262d"/>
      </g>
      <path id="Path_2985" data-name="Path 2985" d="M690.117,101.886a2.216,2.216,0,0,0,1.594,1.936,2.493,2.493,0,0,0,2.726-2.509c-.249-1.117-2.441-1.494-3.338-1.233a1.319,1.319,0,0,0-.377.181A2.007,2.007,0,0,0,690.117,101.886Z" transform="translate(-198.958 -6.831)" fill="#fff"/>
      <g id="Group_1105" data-name="Group 1105" transform="translate(490.896 93.137)" clip-path="url(#clip-path-3)">
        <ellipse id="Ellipse_155" data-name="Ellipse 155" cx="1.117" cy="1.668" rx="1.117" ry="1.668" transform="translate(0.605 -0.134)" fill="#1d262d"/>
      </g>
      <path id="Path_2987" data-name="Path 2987" d="M590.357,472.189s20.7-22.98,26.532-36.764-3.715-16.221-8.491-8.919-13.522,23.785-15.914,4.053.79-24.06-2.135-26.489-6.633-.812-9.252,8.644-11.942,11.356-14.327,2.436-8.491-28.657-17.252-27.555.27,15.4,0,23.516-7.423,6.758-13-.544-24.675-29.818-33.165-23.016,3.452,15.721,0,24.372-2.918,22.748,13.266,17.316,15.1,9.971,15.9,12.675,4.776,11.9,14.853,7.3,15.658-2.436,11.942,1.349-10.348,7.839-6.9,10.007,16.682-4.88,22.283-1.088,7.693,12.7,7.693,12.7Z" transform="translate(-144.22 -85.52)" fill="#8c72cc"/>
      <path id="Path_2988" data-name="Path 2988" d="M515,415.28c3.6,2.734,7.245,5.4,11,7.889s7.53,4.953,11.465,7.085l1.48.8,1.5.725c1,.515,1.986.964,3.018,1.392,2.057.848,4.171,1.574,6.3,2.284,4.27,1.414,8.54,2.748,12.811,4.213a109.668,109.668,0,0,1,12.59,5.076,46.543,46.543,0,0,1,5.921,3.481,22.156,22.156,0,0,1,5.089,4.757,14.562,14.562,0,0,1,1.779,3.075,15,15,0,0,1,.541,1.719,17.638,17.638,0,0,1,.3,1.748c.278,2.277.52,4.554.712,6.838s.278,4.583.32,6.874a48.111,48.111,0,0,1-.285,6.867,86.782,86.782,0,0,0-.811-13.662c-.277-2.262-.576-4.525-.932-6.773-.071-.58-.213-1.095-.327-1.624a16.172,16.172,0,0,0-.534-1.53,13.085,13.085,0,0,0-1.722-2.756c-2.8-3.379-6.719-5.7-10.676-7.628a111.286,111.286,0,0,0-12.448-4.96c-4.227-1.45-8.54-2.814-12.81-4.293-2.135-.725-4.27-1.523-6.356-2.429-1.039-.45-2.092-.943-3.082-1.494l-1.5-.812-1.473-.856a145.507,145.507,0,0,1-21.871-16Z" transform="translate(-148.474 -93.489)" fill="#2d0a7e"/>
      <path id="Path_2989" data-name="Path 2989" d="M689.71,74.066c.235-2.415.477-4.837.712-7.251.235,2.415.477,4.837.712,7.251h21.351c.235-1.211.477-2.415.712-3.626.235,1.211.477,2.415.712,3.626h7.117c-.235,6.526-.263,13.589,0,21.029.256,7.186.762,13.966,1.423,20.3,2.178-.225,19.38-2.27,25.621-15.228,3.672-7.614,2.135-15.793,0-25.38-1.922-8.658-2.989-13.488-6.832-18.527-9.153-12.03-24.81-12.994-31.144-13.379-8.27-.508-15.928-.979-21.9,3.966-7.352,6.084-7.587,16.606-7.736,35.191a192.53,192.53,0,0,0,3.188,36.315c.235-4.293.306-7.744.327-9.92.1-9.92-.527-14.742-.669-26.395-.05-3.85,0-6.94,0-8.7Z" transform="translate(-196.174 8.951)" fill="#1d262d"/>
      <path id="Path_2990" data-name="Path 2990" d="M731.6,165a35.923,35.923,0,0,0-9.252,7.251,45.377,45.377,0,0,0-9.964,32.631c.228,2.473.712,5.076.712,5.076.363,1.45.519,2.407.783,3.56,0,0,.8,3.481,1.352,7.317a39.9,39.9,0,0,1,0,10.152c-.555,5.8-1.018,17.454-1.423,36.257a53.413,53.413,0,0,0,10.675,0c10.113-1.022,14.775-4.46,25.621-5.076a55.637,55.637,0,0,1,6.405,0,198.438,198.438,0,0,1-9.252-24.655c-2.534-8.455-2.847-11.493-2.847-13.778-.093-5.489,1.16-7.541,4.982-20.3,4.6-15.329,5.4-19.165,4.27-23.93a18.072,18.072,0,0,0-4.982-9.427c-5.032-4.7-12.448-4.982-14.946-5.076Z" transform="translate(-205.33 -24.697)" fill="#1d184c"/>
      <path id="Path_2991" data-name="Path 2991" d="M673.1,127.908c-23.308-26.047-39.905-44.748-43.414-49.4a10.174,10.174,0,0,0-5.231-4.017c-2.135-.595-4.085-.145-6.953.522-3.381.783-4.519,1.769-4.868,2.088a5.957,5.957,0,0,0-2.007,3.539c-.071.537-.263,1.98.42,2.436.861.566,2.085-1.095,4.9-1.98,1.1-.341,3.672-1.146,5.751.152,1.331.834,2.6,2.56,2.135,3.626a1.636,1.636,0,0,1-1.26.819l-2.135,4.351a9.744,9.744,0,0,0,1.95.848,10.6,10.6,0,0,0,2.961.464c1.374,0,1.829-.3,3.06.392,2.135,1.2,3.758,3.836,5.089,5.968l.27.442a281.546,281.546,0,0,0,30.6,42.507C664.4,140.635,665.671,134.246,673.1,127.908Z" transform="translate(-176.02 0.256)" fill="#84614b"/>
      <path id="Path_2992" data-name="Path 2992" d="M693.724,141.742a45.159,45.159,0,0,1-4.4-3.227q-1.815-1.719-3.63-3.473A532.282,532.282,0,0,1,648.424,95a11.383,11.383,0,0,0-2.847.725c-4.384,1.748-6.448,5.8-7.117,7.251a165.546,165.546,0,0,0,16.369,23.93c12.9,15.714,27.756,33.849,50.531,36.982,5.174.725,14.113,1.109,25.621-2.9a8.377,8.377,0,0,0-.712-2.9c-2.847-6.287-12.747-5.359-24.909-10.152a59.121,59.121,0,0,1-11.636-6.193Z" transform="translate(-184.067 -5.456)" fill="#1d184c"/>
      <path id="Path_2993" data-name="Path 2993" d="M95.072,344.51a21.718,21.718,0,0,1-.5-7.353,22.945,22.945,0,0,1,6.235-13.2c5.765,6.708,10.917,11.914,14.682,15.532,10.676,10.246,23.059,21.754,41.556,30.042a99.156,99.156,0,0,0,14.533,5.214c2.206-.464,4.477-.914,6.811-1.32q2.562-.457,5.032-.827c0,.529.05,1.059.078,1.588-.712.471-1.644,1.117-1.523,1.45s1.082.218,1.331.2a7.389,7.389,0,0,0,3.708-1.632c3.993-2.988,4.114-3.336,4.747-3.285,1.765.145,3.48,3.038,3.281,5.562a6.638,6.638,0,0,1-1.858,3.778,10.133,10.133,0,0,1-3.381,2.451,34.213,34.213,0,0,1-7.217,2.7l-9.964-2.045h0a109.16,109.16,0,0,1-11.643-1.175c-7.587-1.182-26.646-4.351-45.748-18.165A99.553,99.553,0,0,1,95.072,344.51Z" transform="translate(-27.232 -68.389)" fill="#e2995f"/>
      <path id="Path_2994" data-name="Path 2994" d="M100.315,322.63c3.381,3.575,8.6,8.955,15.273,15.228,13.344,12.494,21.223,19.767,33.009,25.757a92.078,92.078,0,0,0,22.589,7.977s1.729,2.117.89,11.435A103.1,103.1,0,0,1,93,342.716c-.363-2.009-1.381-9.079,2.847-15.416A18.646,18.646,0,0,1,100.315,322.63Z" transform="translate(-26.704 -68.023)" fill="#d65425"/>
      <path id="Path_2995" data-name="Path 2995" d="M309.4,541.7c0,1.341-10.113,2.429-22.589,2.429s-22.589-1.088-22.589-2.429,10.113-2.429,22.589-2.429S309.4,540.358,309.4,541.7Z" transform="translate(-76.174 -127.57)" fill="#55162e" opacity="0.23"/>
      <path id="Path_2996" data-name="Path 2996" d="M296.245,521.532s9.252-15.184.769-23.371c-6.22-4.568-13.323,3.43-17.244-1.139s14.006-19.579,8.22-27.214-17.366-8.18-24.091-1.711S268,510.843,276.41,521.532C276.41,521.532,287.505,522.83,296.245,521.532Z" transform="translate(-75.475 -106.779)" fill="#8c72cc"/>
      <path id="Path_2997" data-name="Path 2997" d="M291,522.538a67.411,67.411,0,0,1-9.117-12.813,47.15,47.15,0,0,1-5.38-14.945,28.611,28.611,0,0,1-.064-8.027,64.354,64.354,0,0,1,1.616-7.773,45.881,45.881,0,0,1,2.74-7.4,27.687,27.687,0,0,1,1.979-3.43,13.548,13.548,0,0,1,2.569-2.966,15.493,15.493,0,0,0-2.349,3.111,28.014,28.014,0,0,0-1.751,3.5,46.091,46.091,0,0,0-2.441,7.44,74.482,74.482,0,0,0-1.423,7.708,27.592,27.592,0,0,0,.149,7.73,48.347,48.347,0,0,0,5.06,14.7,73.492,73.492,0,0,0,3.921,6.78A74.608,74.608,0,0,0,291,522.538Z" transform="translate(-79.624 -107.205)" fill="#2d0a7e"/>
    </g>
  </g>
</svg>
