<svg xmlns="http://www.w3.org/2000/svg" xmlns:xlink="http://www.w3.org/1999/xlink" width="431.871" height="434.31" viewBox="0 0 431.871 434.31">
  <defs>
    <style>
      .cls-1 {
        fill: none;
      }

      .cls-2 {
        fill: #d3487b;
      }

      .cls-3 {
        fill: #b9416d;
      }

      .cls-4 {
        fill: #8c72cc;
      }

      .cls-5 {
        fill: #2d0a7e;
      }

      .cls-6 {
        fill: #3dc7c9;
      }

      .cls-7 {
        fill: #194866;
      }

      .cls-8 {
        fill: #7d48ae;
      }

      .cls-9 {
        fill: #0e2529;
      }

      .cls-10 {
        fill: #685b9e;
      }

      .cls-11 {
        fill: #fff;
      }

      .cls-12 {
        fill: #becae0;
      }

      .cls-13 {
        fill: #4881a5;
      }

      .cls-14 {
        fill: #6d1cc3;
      }

      .cls-15 {
        fill: #48a7bb;
      }

      .cls-16 {
        fill: #ffebff;
      }

      .cls-17 {
        fill: #ffb6ff;
      }

      .cls-18 {
        fill: #db97ff;
      }

      .cls-19 {
        fill: #eaba3c;
      }

      .cls-20 {
        fill: #d2477a;
      }

      .cls-21 {
        fill: #ffa9c2;
      }

      .cls-22 {
        fill: #ffc4c8;
      }

      .cls-23 {
        fill: #813d8e;
      }

      .cls-24 {
        fill: #613372;
      }

      .cls-25 {
        fill: #a100ff;
      }

      .cls-26 {
        fill: #fdb585;
      }

      .cls-27 {
        fill: #fa5c17;
      }

      .cls-28 {
        fill: #814a95;
      }

      .cls-29 {
        fill: #512945;
      }

      .cls-30 {
        fill: #454195;
      }

      .cls-31 {
        fill: #dc7044;
      }

      .cls-32 {
        clip-path: url(#clip-path);
      }

      .cls-33 {
        fill: #1d262d;
      }

      .cls-34 {
        clip-path: url(#clip-path-2);
      }

      .cls-35 {
        fill: #323232;
      }

      .cls-36 {
        fill: #b910bf;
      }

      .cls-37 {
        fill: #85c0e4;
      }

      .cls-38 {
        fill: #9ffbfb;
      }

      .cls-39 {
        fill: #61228e;
      }

      .cls-40 {
        fill: #19114c;
      }

      .cls-41 {
        fill: #00a494;
      }

      .cls-42 {
        fill: #f89a5b;
      }

      .cls-43 {
        fill: #f7531b;
      }

      .cls-44 {
        fill: #3b2315;
      }

      .cls-45 {
        clip-path: url(#clip-path-3);
      }

      .cls-46 {
        clip-path: url(#clip-path-4);
      }
    </style>
    <clipPath id="clip-path">
      <path id="Path_4005" data-name="Path 4005" class="cls-1" d="M831.43,498.457c.09.636,1.413,1.139,2.477,1.1,1.323-.047,2.755-.942,2.646-1.639-.122-.81-2.4-1.563-4.055-.673C832.334,497.336,831.345,497.873,831.43,498.457Z" transform="translate(-831.425 -496.845)"/>
    </clipPath>
    <clipPath id="clip-path-2">
      <path id="Path_4007" data-name="Path 4007" class="cls-1" d="M807.07,499.287a1.51,1.51,0,0,0,1.771,1.215,1.463,1.463,0,0,0,1.262-1.582c-.183-.734-1.3-.895-1.813-.871a1.239,1.239,0,0,0-.5.108A1.282,1.282,0,0,0,807.07,499.287Z" transform="translate(-807.07 -498.046)"/>
    </clipPath>
    <clipPath id="clip-path-3">
      <path id="Path_4034" data-name="Path 4034" class="cls-1" d="M265.847,599.645c.3.57,1.714.6,2.706.212,1.233-.487,2.284-1.81,1.949-2.431-.387-.724-2.789-.672-4.051.72C266.326,598.285,265.572,599.122,265.847,599.645Z" transform="translate(-265.787 -596.965)"/>
    </clipPath>
    <clipPath id="clip-path-4">
      <path id="Path_4036" data-name="Path 4036" class="cls-1" d="M242.971,609.26a1.512,1.512,0,0,0,2.077.554,1.465,1.465,0,0,0,.662-1.915c-.419-.632-1.53-.408-2-.216a1.239,1.239,0,0,0-.439.271A1.282,1.282,0,0,0,242.971,609.26Z" transform="translate(-242.903 -607.483)"/>
    </clipPath>
  </defs>
  <g id="cursos_" data-name="cursos " transform="translate(-791 -1781.69)">
    <ellipse id="Ellipse_141" data-name="Ellipse 141" class="cls-2" cx="215.935" cy="217.155" rx="215.935" ry="217.155" transform="translate(791 1781.69)"/>
    <g id="Group_1538" data-name="Group 1538" transform="translate(762.799 1649.229)">
      <path id="Path_4045" data-name="Path 4045" class="cls-3" d="M94.71,268.51C42.4,268.51,0,273.269,0,279.139s42.4,10.633,94.71,10.633,94.709-4.759,94.709-10.633S147.016,268.51,94.71,268.51Z" transform="translate(111.646 168.679)"/>
      <path id="Path_4046" data-name="Path 4046" class="cls-3" d="M47.59,268.51C21.307,268.51,0,272.5,0,277.425s21.307,8.918,47.59,8.918,47.59-3.992,47.59-8.918S73.874,268.51,47.59,268.51Z" transform="translate(338.765 221.393)"/>
      <g id="Group_1513" data-name="Group 1513" transform="translate(95.601 340.907)">
        <path id="Path_3961" data-name="Path 3961" class="cls-3" d="M831.441,811.355c0,1.1,8.413,1.983,18.771,1.983s18.771-.886,18.771-1.983-8.413-1.978-18.771-1.978S831.441,810.262,831.441,811.355Z" transform="translate(-638.252 -675.402)"/>
        <path id="Path_3962" data-name="Path 3962" class="cls-4" d="M842.306,743.278s-14-15.253-17.943-24.4,2.512-10.767,5.742-5.92,9.145,15.787,10.762,2.69-.534-15.97,1.444-17.582,4.486-.539,6.257,5.737,8.076,7.537,9.689,1.617S864,686.4,869.924,687.128s-.183,10.223,0,15.609,5.02,4.486,8.788-.361S895.4,682.585,901.142,687.1s-2.334,10.435,0,16.177,1.973,15.1-8.972,11.494-10.213,6.618-10.752,8.413-3.23,7.9-10.045,4.847-10.589-1.617-8.076.9,7,5.2,4.664,6.642-11.282-3.239-15.07-.722-5.2,8.432-5.2,8.432Z" transform="translate(-632.648 -606.248)"/>
        <path id="Path_3963" data-name="Path 3963" class="cls-5" d="M923.924,717.519c-2.436,1.815-4.9,3.581-7.441,5.237s-5.093,3.287-7.754,4.7l-1,.529-1.016.481c-.674.342-1.343.64-2.041.924-1.391.563-2.82,1.045-4.259,1.516-2.888.939-5.776,1.824-8.664,2.8a74.988,74.988,0,0,0-8.514,3.369,31.7,31.7,0,0,0-4,2.31,14.873,14.873,0,0,0-3.441,3.158,9.633,9.633,0,0,0-1.2,2.041,9.751,9.751,0,0,0-.366,1.141,11.354,11.354,0,0,0-.2,1.16c-.188,1.512-.351,3.023-.481,4.539s-.188,3.042-.217,4.563a31.326,31.326,0,0,0,.193,4.558,56.511,56.511,0,0,1,.549-9.068c.188-1.5.39-3,.63-4.5.048-.385.145-.727.221-1.078a10.652,10.652,0,0,1,.361-1.016,8.661,8.661,0,0,1,1.165-1.829,21.157,21.157,0,0,1,7.22-5.063,76.091,76.091,0,0,1,8.418-3.292c2.859-.963,5.776-1.867,8.664-2.85,1.444-.481,2.888-1.011,4.3-1.612.7-.3,1.415-.626,2.084-.991l1.016-.539,1-.568A98.317,98.317,0,0,0,923.924,717.519Z" transform="translate(-660.426 -623.552)"/>
        <g id="Group_1512" data-name="Group 1512">
          <g id="Group_1508" data-name="Group 1508" transform="translate(11.644)">
            <g id="Group_1507" data-name="Group 1507">
              <path id="Path_3964" data-name="Path 3964" class="cls-6" d="M227.414,556.4c-2.342-2.255-6.126-3.162-8.8-1.383-5.158,3.426-1.622,8.436-.654,11.195,4.1,11.682-9.228,10.949-12.5,19.929-1.732,4.763,8.271,17.963,7.9,19.077a5.316,5.316,0,0,1-3.722,3.175,6.729,6.729,0,0,0-4.162,6.083c0,8.563,7.834,13.088,13.212,14.414,4.867,1.2,15.417.575,19.4-3.934s4.671-10.155,3.328-16.075c-.651-2.867-3.554-7.754-3.157-10.929.676-5.378,4.55-9.939,5.571-13.4s.621-7.985-2.3-10.577C234.212,567.47,229.366,558.273,227.414,556.4Z" transform="translate(-205.259 -554.073)"/>
            </g>
            <path id="Path_3965" data-name="Path 3965" class="cls-7" d="M247.534,626.112c-.069-3.893-.154-7.786-.331-11.678-.179,3.892-.263,7.785-.332,11.678s-.064,7.786-.1,11.678c0,0-1.374,23.357.433,23.357s.432-23.357.432-23.357C247.6,633.9,247.6,630,247.534,626.112Z" transform="translate(-227.961 -587.487)"/>
            <path id="Path_3966" data-name="Path 3966" class="cls-7" d="M254.858,643.155c-.871,1.026-1.7,2.084-2.525,3.147a67.1,67.1,0,0,0-4.555,6.672,66.659,66.659,0,0,0,5.242-6.146c.811-1.074,1.612-2.153,2.373-3.262a37.08,37.08,0,0,1,2.355-3.261A15,15,0,0,0,254.858,643.155Z" transform="translate(-228.797 -601.808)"/>
            <path id="Path_3967" data-name="Path 3967" class="cls-7" d="M237.683,690.829a27.884,27.884,0,0,0-1.835-2.274,23.392,23.392,0,0,0-4.381-3.863c1.174,1.575,2.46,3,3.738,4.442.648.71,1.291,1.425,1.958,2.123l1,1.043a2.487,2.487,0,0,1,.74,1.183,2.3,2.3,0,0,0-.4-1.437C238.241,691.622,237.971,691.225,237.683,690.829Z" transform="translate(-219.767 -626.38)"/>
            <path id="Path_3968" data-name="Path 3968" class="cls-7" d="M232.847,621.3c.968,1.925,1.935,3.8,2.994,5.657a29.125,29.125,0,0,0,3.672,5.27c-.9-1.959-1.864-3.842-2.922-5.7A25.684,25.684,0,0,0,232.847,621.3Z" transform="translate(-220.531 -591.288)"/>
          </g>
          <g id="Group_1510" data-name="Group 1510" transform="translate(1.833 32.027)">
            <g id="Group_1509" data-name="Group 1509">
              <path id="Path_3969" data-name="Path 3969" class="cls-8" d="M202.206,653.706a3.03,3.03,0,0,1-.332-2.05,12.306,12.306,0,0,1,1.141-2.888,4.121,4.121,0,0,0,.044-3.7c-1.39-2.7-5.53-3.225-6.654-6.274-.53-1.438.206-2.521.813-3.951s1.52-3.275,1.234-5.053-1.1-3.6-3.227-3.929-4.09,1.2-5.58,2.846a19.747,19.747,0,0,0-2.913,3.464c-2.3,3.985-4.412,7.216-2.991,12.138,1.148,3.972,6.312,5.228,4.4,14.767-1.743,8.69,8.557,10.719,11.912,10.719,2.98,0,6.526-.542,7.817-3.675s.222-6.312-2.049-8.769C204.721,656.158,202.951,655.13,202.206,653.706Z" transform="translate(-183.281 -625.813)"/>
            </g>
            <path id="Path_3970" data-name="Path 3970" class="cls-9" d="M210.266,675.909c-.93-2.164-1.859-4.325-2.85-6.462s-1.979-4.274-3.062-6.372c.754,2.237,1.6,4.438,2.452,6.631s1.754,4.369,2.664,6.541c.929,2.163,1.858,4.325,2.849,6.462s1.979,4.274,3.063,6.371c-.754-2.237-1.6-4.436-2.45-6.631S211.176,678.079,210.266,675.909Z" transform="translate(-194.946 -646.44)"/>
            <path id="Path_3971" data-name="Path 3971" class="cls-9" d="M215.824,669.519a10.624,10.624,0,0,0-.7,2.429,32.791,32.791,0,0,0-.339,4.949,20.415,20.415,0,0,0,1.192-4.8c.133-.8.289-1.583.489-2.354a9.294,9.294,0,0,1,.878-2.253A4.9,4.9,0,0,0,215.824,669.519Z" transform="translate(-200.719 -648.885)"/>
            <path id="Path_3972" data-name="Path 3972" class="cls-9" d="M215.289,706.422a5.5,5.5,0,0,0-1.913-.279c-.621-.009-1.206.062-1.84.015a4.693,4.693,0,0,0,1.771.655,11.221,11.221,0,0,1,1.687.422,7.29,7.29,0,0,1,2.758,2.059,4.266,4.266,0,0,0-.837-1.723A3.8,3.8,0,0,0,215.289,706.422Z" transform="translate(-198.922 -670.281)"/>
            <path id="Path_3973" data-name="Path 3973" class="cls-9" d="M198.871,666.929a15.389,15.389,0,0,0-3.765-1.633,19.467,19.467,0,0,0,3.31,2.37q.852.515,1.674,1.059a8.866,8.866,0,0,1,1.55,1.253,3.922,3.922,0,0,0-1.119-1.774A9.414,9.414,0,0,0,198.871,666.929Z" transform="translate(-189.827 -647.67)"/>
          </g>
          <g id="Group_1511" data-name="Group 1511" transform="translate(1.833 32.063)">
            <path id="Path_3974" data-name="Path 3974" class="cls-10" d="M194.226,625.893c-1.741.181-3.328,1.475-4.581,2.856a19.747,19.747,0,0,0-2.913,3.464c-2.3,3.985-4.412,7.217-2.991,12.138,1.124,3.893,6.092,5.2,4.488,14.23,1.525-1.865,1.572-4.112,4.864-7.3,5.634-5.457-2.665-11.044-2.674-16.193C190.412,630.868,191.2,627.276,194.226,625.893Z" transform="translate(-183.281 -625.893)"/>
          </g>
          <path id="Rectangle_323" data-name="Rectangle 323" class="cls-11" d="M4.89,0h42.3a4.887,4.887,0,0,1,4.887,4.887v0a4.89,4.89,0,0,1-4.89,4.89H4.887A4.887,4.887,0,0,1,0,4.89v0A4.89,4.89,0,0,1,4.89,0Z" transform="translate(0 68.675)"/>
          <path id="Path_3975" data-name="Path 3975" class="cls-12" d="M192.01,751.322a3.312,3.312,0,0,0,3.239,2.617h29.01a3.313,3.313,0,0,0,3.241-2.617l4.636-21.518H187.374Z" transform="translate(-183.714 -651.353)"/>
        </g>
      </g>
      <g id="Group_1515" data-name="Group 1515" transform="translate(141.644 228.039)">
        <path id="Path_3976" data-name="Path 3976" class="cls-13" d="M425.97,313.682V505.5a12.03,12.03,0,0,1-2.632,7.585,12.545,12.545,0,0,1-3.018,2.812l-1.832.98c-.051.052-.077.078-.129.078l-5.883,3.173c-.051.026-.129.077-.181.1l1.135-2.3H309.382A12.431,12.431,0,0,1,296.921,505.5V313.682a12.31,12.31,0,0,1,1.574-6.037l-2.658-.851.155-.077.748-.387,6.656-3.56a12.355,12.355,0,0,1,5.986-1.522H413.509A12.448,12.448,0,0,1,425.97,313.682Z" transform="translate(-289.8 -301.247)"/>
        <path id="Path_3977" data-name="Path 3977" class="cls-14" d="M572.415,782.084a10.1,10.1,0,0,1-1.839.984Z" transform="translate(-441.888 -567.425)"/>
        <path id="Path_3978" data-name="Path 3978" class="cls-15" d="M411.363,322.146V513.939a12.428,12.428,0,0,1-6.3,10.81c-.077.052-.18.1-.258.155a12.322,12.322,0,0,1-5.908,1.5H294.775a12.469,12.469,0,0,1-12.461-12.461V322.146a12.418,12.418,0,0,1,6.037-10.681.424.424,0,0,1,.155-.077l.748-.387a.616.616,0,0,1,.284-.155,12.343,12.343,0,0,1,5.237-1.161H398.9A12.469,12.469,0,0,1,411.363,322.146Z" transform="translate(-282.314 -305.917)"/>
        <rect id="Rectangle_324" data-name="Rectangle 324" class="cls-16" width="116.951" height="184.216" rx="19.165" transform="translate(6.038 16.594)"/>
        <circle id="Ellipse_189" data-name="Ellipse 189" class="cls-17" cx="6.417" cy="6.417" r="6.417" transform="translate(55.438 211.103) rotate(-45)"/>
        <path id="Path_3979" data-name="Path 3979" class="cls-17" d="M422.73,322.881H404.282a1.515,1.515,0,0,1-1.515-1.515h0a1.515,1.515,0,0,1,1.515-1.515H422.73a1.515,1.515,0,0,1,1.515,1.515h0A1.515,1.515,0,0,1,422.73,322.881Z" transform="translate(-348.993 -311.546)"/>
        <rect id="Rectangle_325" data-name="Rectangle 325" class="cls-18" width="3.208" height="9.848" rx="1.604" transform="translate(131.31 37.137)"/>
        <g id="Group_1514" data-name="Group 1514" transform="translate(6.038 16.594)">
          <path id="Path_3980" data-name="Path 3980" class="cls-19" d="M412.789,398.731V389.7H382.957V338.417h-9.03V389.7H295.838v9.03h31.289v47.594H295.838v9.03h52.251v46.1H295.838v9.03H412.789v-9.03h-55.67v-46.1h55.67v-9.03H336.157V398.731Z" transform="translate(-295.838 -338.417)"/>
          <rect id="Rectangle_326" data-name="Rectangle 326" class="cls-20" width="15.791" height="39.989" rx="4" transform="translate(0.004 11.295)"/>
          <rect id="Rectangle_327" data-name="Rectangle 327" class="cls-21" width="7.348" height="3.805" rx="1.89" transform="translate(4.226 16.401)"/>
          <rect id="Rectangle_328" data-name="Rectangle 328" class="cls-20" width="15.791" height="39.989" rx="4" transform="translate(16.989 11.295)"/>
          <rect id="Rectangle_329" data-name="Rectangle 329" class="cls-21" width="7.348" height="3.805" rx="1.89" transform="translate(21.211 16.401)"/>
          <rect id="Rectangle_330" data-name="Rectangle 330" class="cls-20" width="15.791" height="39.989" rx="4" transform="translate(33.973 11.295)"/>
          <rect id="Rectangle_331" data-name="Rectangle 331" class="cls-21" width="7.348" height="3.805" rx="1.89" transform="translate(38.195 16.401)"/>
          <rect id="Rectangle_332" data-name="Rectangle 332" class="cls-15" width="15.791" height="39.989" rx="4" transform="translate(13.383 67.634)"/>
          <rect id="Rectangle_333" data-name="Rectangle 333" class="cls-21" width="7.348" height="3.805" rx="1.89" transform="translate(17.605 72.74)"/>
          <rect id="Rectangle_334" data-name="Rectangle 334" class="cls-22" width="15.791" height="39.989" rx="4" transform="translate(1.929 120.093)"/>
          <rect id="Rectangle_335" data-name="Rectangle 335" class="cls-21" width="7.348" height="3.805" rx="1.89" transform="translate(6.151 125.199)"/>
          <rect id="Rectangle_336" data-name="Rectangle 336" class="cls-23" width="15.791" height="39.989" rx="4" transform="translate(21.278 120.093)"/>
          <rect id="Rectangle_337" data-name="Rectangle 337" class="cls-21" width="7.348" height="3.805" rx="1.89" transform="translate(25.5 125.199)"/>
          <rect id="Rectangle_338" data-name="Rectangle 338" class="cls-20" width="15.791" height="39.989" rx="4" transform="matrix(0.948, -0.32, 0.32, 0.948, 46.975, 14.355)"/>
          <rect id="Rectangle_339" data-name="Rectangle 339" class="cls-21" width="7.347" height="3.805" rx="1.89" transform="translate(52.608 17.844) rotate(-18.642)"/>
        </g>
        <rect id="Rectangle_340" data-name="Rectangle 340" class="cls-18" width="3.208" height="18.404" rx="1.604" transform="translate(131.31 52.109)"/>
      </g>
      <g id="Group_1517" data-name="Group 1517" transform="translate(267.958 169)">
        <g id="Group_1516" data-name="Group 1516">
          <path id="Path_3981" data-name="Path 3981" class="cls-24" d="M632.6,180.642a26.52,26.52,0,0,0-40.366-4.209,24.432,24.432,0,0,0-4.017-.328,22.971,22.971,0,0,0,0,45.941h37.25a21.317,21.317,0,0,0,7.133-41.4Zm-7.133,33.206h-37.25a14.772,14.772,0,0,1,0-29.544,14.385,14.385,0,0,1,4.209.6l2.569.765,1.721-2.05a18.356,18.356,0,0,1,29.735,2.569l.847,1.448,1.613.41a13.131,13.131,0,0,1-3.444,25.8Z" transform="translate(-565.258 -169)"/>
        </g>
      </g>
      <path id="Path_3982" data-name="Path 3982" class="cls-19" d="M649.795,254.426a6.772,6.772,0,0,0-6.759,6.708v30a16.417,16.417,0,0,1-16.408,16.408H621.8a2.736,2.736,0,0,1-2.734-2.735V261.16a6.744,6.744,0,0,1,6.759-6.734Z" transform="translate(-327.087 -47.289)"/>
      <path id="Path_3983" data-name="Path 3983" class="cls-25" d="M686.274,261.134H672.755a6.76,6.76,0,0,1,13.519,0Z" transform="translate(-356.807 -47.289)"/>
      <path id="Path_3984" data-name="Path 3984" class="cls-23" d="M686.274,261.134H672.755a6.76,6.76,0,0,1,13.519,0Z" transform="translate(-356.807 -47.289)"/>
      <path id="Path_3985" data-name="Path 3985" class="cls-23" d="M637.71,283.272h-7.117a1.993,1.993,0,0,1-1.992-1.993h0a1.993,1.993,0,0,1,1.992-1.993h7.117a1.993,1.993,0,0,1,1.993,1.993h0A1.993,1.993,0,0,1,637.71,283.272Z" transform="translate(-332.364 -61.051)"/>
      <path id="Path_3986" data-name="Path 3986" class="cls-23" d="M641.411,299.15H630.592a1.992,1.992,0,0,1-1.992-1.993h0a1.992,1.992,0,0,1,1.992-1.992h10.818a1.993,1.993,0,0,1,1.993,1.992h0A1.993,1.993,0,0,1,641.411,299.15Z" transform="translate(-332.364 -69.841)"/>
      <path id="Path_3987" data-name="Path 3987" class="cls-23" d="M639.092,315.029h-8.5a1.993,1.993,0,0,1-1.992-1.993h0a1.993,1.993,0,0,1,1.992-1.993h8.5a1.993,1.993,0,0,1,1.993,1.993h0A1.993,1.993,0,0,1,639.092,315.029Z" transform="translate(-332.364 -78.631)"/>
      <path id="Path_3988" data-name="Path 3988" class="cls-23" d="M642.436,330.908H630.592a1.993,1.993,0,0,1-1.992-1.993h0a1.992,1.992,0,0,1,1.992-1.993h11.843a1.992,1.992,0,0,1,1.992,1.993h0A1.993,1.993,0,0,1,642.436,330.908Z" transform="translate(-332.364 -87.421)"/>
      <g id="Group_1526" data-name="Group 1526" transform="translate(356.596 288.219)">
        <path id="Path_3989" data-name="Path 3989" class="cls-26" d="M772.6,475.057a3.448,3.448,0,0,1-.487-1.152,3.8,3.8,0,0,1,.246-2.218c2.163-5.586,3.049-11.587,4.662-17.357.448-1.6.961-5.376,1.987-12.92,0,0,.564-4.149-.968-5.019-.313-.178-.575-.312-.575-.312a1.621,1.621,0,0,0-1.274.361c-.02.208-.05.533-.086.929-.139,1.523-.137,1.657-.223,2.507-.1,1-.124,1.039-.195,1.842-.029.324-.063.748-.125,1.3-.109.979-.167,1.47-.313,1.542-.494.245-1.269-1.251-2.4-1.108a1.263,1.263,0,0,0-.851.484c-.475.783.9,1.788,1.552,3.587.987,2.745-.276,5.822-1.118,7.873-.218.532-.4.909-.468,1.041-1.316,2.681-3.957,8.183-8.058,16.788-.3,1.832.132,3.675,1.318,4.554C766.993,479.1,770.63,478.371,772.6,475.057Z" transform="translate(-763.806 -436.051)"/>
        <path id="Path_3990" data-name="Path 3990" class="cls-27" d="M812.868,436.8c.121.013.267.029.471.053,2.358.287,13.4,1.938,19.55,11.124a23.752,23.752,0,0,1,3.9,12.256c.114,6.351-2.846,6.987-2.335,13.1.508,6.076,3.731,9.022,1.791,12.119-.949,1.515-2.648,2.292-3.2,4.822a9.126,9.126,0,0,0-.045,3.061,19.115,19.115,0,0,0,1.537,5.678c2.283,5.469,1.066,12.7-1.075,17.348a22.265,22.265,0,0,1-2.169,3.651c-8.644,11.224-45.846,6.443-49.066-5.09-1.305-4.676,3.659-8.013,2.121-17.466-.529-3.254-1.347-4.264-1.537-7.986-.307-6.011,1.663-6.524,1.729-12.031.086-7.276-3.32-9.183-1.738-14.535.859-2.9,1.923-2.546,3.561-6.321,2.837-6.539.12-8.712,2.262-12.636C792.483,436.886,805.6,436.035,812.868,436.8Z" transform="translate(-773.882 -436.339)"/>
        <path id="Path_3991" data-name="Path 3991" class="cls-28" d="M878.491,895.788q-2.92,1.938-6.155,3.886-2.472,1.483-4.859,2.8l-7.293.813c-1.377-1.037-1.582-1.671-1.487-2.067.224-.925,2.16-.82,4.443-2.024a10.7,10.7,0,0,0,3.159-2.566l4.779-3.954a7.889,7.889,0,0,0,2.261.8,6.079,6.079,0,0,0,4.656-.8Z" transform="translate(-816.324 -688.826)"/>
        <path id="Path_3992" data-name="Path 3992" class="cls-26" d="M766.383,525.335c4.937,5.24,8.283,7.683,10.516,8.927,0,0,4.8,2.676,8.707,5.338a14,14,0,0,0,3.168,1.552,5.582,5.582,0,0,0,2.509.435c.111-.009,2.5-.246,3.2-1.694.8-1.674-1.114-4.03-2.619-5.878a24.666,24.666,0,0,0-4.855-4.418c-.949-.7-1.714-1.242-2.473-1.749-1.612-1.076-2.919-1.85-3.531-2.2l-.311-.179c-1.11-.635-3.8-2.469-9.9-6.973a4.234,4.234,0,0,0-5.141.822A4.286,4.286,0,0,0,766.383,525.335Z" transform="translate(-764.318 -481.403)"/>
        <path id="Path_3993" data-name="Path 3993" class="cls-29" d="M778.18,535.258a7.969,7.969,0,0,1,.378-3.327,8.609,8.609,0,0,1,.788-1.662,13.308,13.308,0,0,1,2.363-2.687,11.882,11.882,0,0,0,2.272-3.429,10.4,10.4,0,0,0,1.329,1.408,12.7,12.7,0,0,0,2.549,1.676c.926.513,1.769,1.072,3.454,2.191a40.021,40.021,0,0,1,4.818,3.785,33.756,33.756,0,0,1,3.665,3.719,30.036,30.036,0,0,1,3.351,4.959l-7.135,6.733a47.637,47.637,0,0,0-17.833-13.367Z" transform="translate(-771.742 -484.822)"/>
        <path id="Path_3994" data-name="Path 3994" class="cls-30" d="M852.514,711.93c-1.44-6.806-2.546-12.522-3.325-16.708-4.533-24.318-4.912-33.381-4.267-41.69q.256-3.285.68-6.416a27.83,27.83,0,0,0,6.221-.986,27.412,27.412,0,0,0,5.1-1.982,37.269,37.269,0,0,1,5.172,6.892c4.892,8.422,4.961,16.458,4.859,24.789-.162,13.292-.732,25.216-1.468,35.637a7.151,7.151,0,0,1-3.27,4.606,6.987,6.987,0,0,1-6.138.683A6.225,6.225,0,0,1,852.514,711.93Z" transform="translate(-808.574 -551.248)"/>
        <path id="Path_3995" data-name="Path 3995" class="cls-30" d="M875.309,789.5q.9,11.195,2.174,22.934,1.334,12.194,2.96,23.734a12.955,12.955,0,0,1-2.256,1.137,11.876,11.876,0,0,1-5.437.818l-9.95-44.776" transform="translate(-818.606 -631.709)"/>
        <path id="Path_3996" data-name="Path 3996" class="cls-28" d="M790.2,894.06q-3.241,1.333-6.793,2.613-2.714.973-5.311,1.8l-7.312-.622c-1.149-1.285-1.226-1.947-1.056-2.316.4-.863,2.279-.384,4.751-1.12a10.708,10.708,0,0,0,3.6-1.9l5.457-2.948a7.9,7.9,0,0,0,2.062,1.223,6.081,6.081,0,0,0,4.722.124Z" transform="translate(-767.044 -687.103)"/>
        <path id="Path_3997" data-name="Path 3997" class="cls-30" d="M795.986,711c.629-6.928,1.257-12.716,1.745-16.945,2.834-24.574,5.142-33.347,8.208-41.1q1.212-3.064,2.54-5.93a27.807,27.807,0,0,0,6.236.891,27.37,27.37,0,0,0,5.458-.391,37.285,37.285,0,0,1,2.911,8.11c2.194,9.489-.109,17.188-2.661,25.12-4.072,12.654-8.13,23.88-11.9,33.622a7.155,7.155,0,0,1-4.482,3.438,6.989,6.989,0,0,1-6.067-1.156A6.226,6.226,0,0,1,795.986,711Z" transform="translate(-781.576 -552.84)"/>
        <path id="Path_3998" data-name="Path 3998" class="cls-30" d="M809.3,782.368q-.094,2.021-.241,4.091a165.193,165.193,0,0,1-2.427,18.769l-1.717,23.857a12.985,12.985,0,0,1-2.434.676,11.875,11.875,0,0,1-5.492-.256q-.522-22.928-1.043-45.857a7.773,7.773,0,0,1,2.464-5.07c2.876-2.481,7.987-2.465,9.987.18A5.351,5.351,0,0,1,809.3,782.368Z" transform="translate(-781.595 -624.65)"/>
        <path id="Path_3999" data-name="Path 3999" class="cls-26" d="M834.423,552.071c.491-.02,1.012-.073,1.744-.066,2.292.023,5.434.054,7.169,2.05a5.271,5.271,0,0,1,1.2,2.948,15.447,15.447,0,0,1,.842,4.151,15.677,15.677,0,0,1-.241,3.791c-.47,2.762-1.024,6.336-1.7,10.726a65.9,65.9,0,0,0-2.4,14.181c-.031.823-.2,6.039-.2,6.039v0a23.979,23.979,0,0,1-19.237.191q-.309-3.01-.731-6.138c-.716-5.283-1.618-10.283-2.641-14.987a42.491,42.491,0,0,1-1.1-13.142c.44-5.787,1.821-7.205,2.775-7.78a16.362,16.362,0,0,1,3.6-1.283l.048-.012a5.231,5.231,0,0,1,1.94-.131Q829.865,552.262,834.423,552.071Z" transform="translate(-793.255 -500.239)"/>
        <path id="Path_4000" data-name="Path 4000" class="cls-26" d="M830.625,538.893a33.172,33.172,0,0,0,.9-12.145,30.687,30.687,0,0,0,8.227-.085q.376,5.867.753,11.734Z" transform="translate(-800.795 -486.211)"/>
        <path id="Path_4001" data-name="Path 4001" class="cls-26" d="M799.09,467.142a21.373,21.373,0,0,0,3.833,13.967,19.565,19.565,0,0,0,8.994,7.064c7.638,2.683,16.113-.331,20.77-5.576a17.694,17.694,0,0,0,2.9-4.495,2.855,2.855,0,0,0,1.444-.241,3.238,3.238,0,0,0,1.364-1.363,12.448,12.448,0,0,0,2.005-4.252c.37-1.625.641-2.809-.055-3.586a2.8,2.8,0,0,0-2.271-.646,3.9,3.9,0,0,0-2.647,1.5,44.331,44.331,0,0,0-.422-7.581c-.629-4.428-1.012-7.136-2.887-9.6-2.782-3.66-7.092-4.58-9.131-4.978a20.6,20.6,0,0,0-15.464,3.217C799.269,456.4,799.09,466.186,799.09,467.142Z" transform="translate(-783.302 -442.11)"/>
        <path id="Path_4002" data-name="Path 4002" class="cls-31" d="M816.31,522.091a4.9,4.9,0,0,0,2.063,1.751c2.091.9,4.812.123,6.866-1.963Z" transform="translate(-792.87 -483.563)"/>
        <path id="Path_4003" data-name="Path 4003" class="cls-31" d="M819.067,514.283c-.471,0-.941,0-1.375-.042a2.47,2.47,0,0,0,1.639.471,2.429,2.429,0,0,0,1.318-.532A14.323,14.323,0,0,1,819.067,514.283Z" transform="translate(-793.636 -479.301)"/>
        <path id="Path_4004" data-name="Path 4004" class="cls-11" d="M831.43,498.44c.085.636,1.413,1.149,2.468,1.116,1.323-.033,2.759-.941,2.66-1.615-.117-.81-2.388-1.582-4.05-.7C832.344,497.324,831.35,497.875,831.43,498.44Z" transform="translate(-801.238 -469.707)"/>
        <g id="Group_1520" data-name="Group 1520" transform="translate(30.187 27.14)">
          <g id="Group_1519" data-name="Group 1519" class="cls-32">
            <g id="Group_1518" data-name="Group 1518" transform="translate(0.575 0.157)">
              <ellipse id="Ellipse_190" data-name="Ellipse 190" class="cls-33" cx="0.942" cy="1.121" rx="0.942" ry="1.121"/>
            </g>
          </g>
        </g>
        <path id="Path_4006" data-name="Path 4006" class="cls-11" d="M807.454,499.317a1.445,1.445,0,0,0,1.055,1.258,1.637,1.637,0,0,0,1.8-1.629c-.165-.725-1.615-.97-2.208-.8a.875.875,0,0,0-.25.118A1.288,1.288,0,0,0,807.454,499.317Z" transform="translate(-787.965 -470.396)"/>
        <g id="Group_1523" data-name="Group 1523" transform="translate(19.314 27.676)">
          <g id="Group_1522" data-name="Group 1522" class="cls-34">
            <g id="Group_1521" data-name="Group 1521" transform="translate(0.4 -0.087)">
              <ellipse id="Ellipse_191" data-name="Ellipse 191" class="cls-33" cx="0.739" cy="1.083" rx="0.739" ry="1.083"/>
            </g>
          </g>
        </g>
        <g id="Group_1524" data-name="Group 1524" transform="translate(29.533 30.745)">
          <circle id="Ellipse_192" data-name="Ellipse 192" class="cls-31" cx="0.475" cy="0.475" r="0.475" transform="translate(0 0.843)"/>
          <circle id="Ellipse_193" data-name="Ellipse 193" class="cls-31" cx="0.475" cy="0.475" r="0.475" transform="translate(1.495 2.349)"/>
          <circle id="Ellipse_194" data-name="Ellipse 194" class="cls-31" cx="0.346" cy="0.346" r="0.346" transform="translate(2.879 1.277)"/>
          <circle id="Ellipse_195" data-name="Ellipse 195" class="cls-31" cx="0.475" cy="0.475" r="0.475" transform="translate(4.324 1.99)"/>
          <circle id="Ellipse_196" data-name="Ellipse 196" class="cls-31" cx="0.475" cy="0.475" r="0.475" transform="translate(4.478)"/>
          <circle id="Ellipse_197" data-name="Ellipse 197" class="cls-31" cx="0.475" cy="0.475" r="0.475" transform="translate(6.238 0.751)"/>
        </g>
        <g id="Group_1525" data-name="Group 1525" transform="translate(19.63 31.068)">
          <circle id="Ellipse_198" data-name="Ellipse 198" class="cls-31" cx="0.475" cy="0.475" r="0.475" transform="translate(0 1.99)"/>
          <circle id="Ellipse_199" data-name="Ellipse 199" class="cls-31" cx="0.475" cy="0.475" r="0.475" transform="translate(0.154)"/>
          <circle id="Ellipse_200" data-name="Ellipse 200" class="cls-31" cx="0.475" cy="0.475" r="0.475" transform="translate(1.914 0.751)"/>
        </g>
        <path id="Path_4008" data-name="Path 4008" class="cls-35" d="M805.523,492.426a10.629,10.629,0,0,1,3.037,1.345c.291-.3.541-.322,1.3-.319s1.009.026,1.286.33a11.15,11.15,0,0,1,3.1-1.319,13.248,13.248,0,0,1,6.506.545l4.807.752.3.71-5.137-.146a3.631,3.631,0,0,0-.493,1.029,6.418,6.418,0,0,1-1.49,3.16,5.053,5.053,0,0,1-4.676,1.421,4.445,4.445,0,0,1-3.291-4.371.666.666,0,0,0,.417-.621c-.027-.445-.607-.376-1.364-.379s-1.333-.077-1.381.367a.634.634,0,0,0,.389.624,4.659,4.659,0,0,1-3.491,4.343,4.911,4.911,0,0,1-4.612-1.46,6.106,6.106,0,0,1-1.325-3.171c-.17-.837-.428-1.033-.428-1.033l.03-1.316A13.289,13.289,0,0,1,805.523,492.426Zm6.369,4.511a3.131,3.131,0,0,0,3.444,2.469,4.1,4.1,0,0,0,3.77-2.706,2.941,2.941,0,0,0-.757-3.293,5.362,5.362,0,0,0-4.92.033A3.14,3.14,0,0,0,811.893,496.938Zm-11.44-.315a3.913,3.913,0,0,0,3.646,2.737,3.275,3.275,0,0,0,3.556-2.44,3.038,3.038,0,0,0-1.377-3.509,5.364,5.364,0,0,0-4.917-.074A3.019,3.019,0,0,0,800.453,496.623Z" transform="translate(-783.278 -467.153)"/>
        <path id="Path_4009" data-name="Path 4009" class="cls-29" d="M840.1,579.5c-.312,1.975-.387,4-.878,5.934-.574,2.263-1.2,3.553-.542,5.011.48,1.073,1.235,1.308,1.2,2.246a4.182,4.182,0,0,1-1.62,2.506,7.368,7.368,0,0,1-1.17.894,16.824,16.824,0,0,1-6.13,1.824,29.01,29.01,0,0,1-7.253-.154,22.522,22.522,0,0,1-5.424-1.459,8.639,8.639,0,0,1-1.208-.667,3.956,3.956,0,0,1-1.386-1.223,2.3,2.3,0,0,1-.383-1.616c.142-.671.625-.8,1.018-1.408a4.008,4.008,0,0,0,.23-2.91c-.261-1.652-.741-1.829-1.324-3.853a25.255,25.255,0,0,1-.59-3.121c-.5-3.208-.224-3.257-.614-4.137-.822-1.855-2.08-1.738-2.909-3.427-.516-1.05-.515-2.088-.162-4.425.085-.563.164-1.2.311-2.06.29-1.7.612-3.008.8-3.754.484-1.955.884-3.645,1.6-5.835a8.455,8.455,0,0,1,1.547-3.3,7.8,7.8,0,0,1,2.362-1.757,8.742,8.742,0,0,1,2.186-.759c-.1.435-.242,1.024-.4,1.723-.585,2.61-.56,2.881-.432,3.118.528.977,2.639,1.07,4.158.626,1.742-.51,2.87-1.775,4.763-3.9.641-.718,1.13-1.338,1.445-1.752a26.364,26.364,0,0,1,4.308-.165,15.162,15.162,0,0,1,3.421.422,7.56,7.56,0,0,1,4.038,1.985,6.816,6.816,0,0,1,1.567,3.461,11.39,11.39,0,0,1,.029,4.012c-.394,3.349-.591,5.024-.838,6.421C841.114,572.029,841.544,570.4,840.1,579.5Z" transform="translate(-789.771 -500.062)"/>
        <path id="Path_4010" data-name="Path 4010" class="cls-27" d="M810.008,458.9c-1.522,1.073-2.178,1.092-5.29,2.9-3.292,1.908-4.938,2.862-5.9,3.994-3.8,4.473-.262,13.012-.21,13,.013,0-.217-.512-.574-1.407-4.49-11.249-5.09-20.228-.121-27.152,4.008-5.586,10.758-7.537,12.7-8.1a20.019,20.019,0,0,1,5.294-.9c1.195-.032,8.657-.295,13.477,4.693,2.266,2.345,2.992,4.859,3.891,8.122,4.07,14.778-1.638,27.749-2.567,29.781a44.96,44.96,0,0,1-3.927,6.9,2.208,2.208,0,0,0-.269.014c-1.721.2-2.555,2.406-4.226,5.866-1.889,3.909-2.157,3.851-3.791,7.551-.595,1.347-1.059,2.489-1.383,3.309a37.108,37.108,0,0,1,.662-4.332c.632-2.944,1.15-3.582,1.8-6.74a28.807,28.807,0,0,1,.719-3.665c.738-2.207,1.353-2.186,2.236-4.366.8-1.979.427-2.323,1.342-5.714a30.12,30.12,0,0,0,.622-3.125c.206-1.375.128-2-2.062-12.876-.934-4.638-1.424-7-2.572-9.083a20.006,20.006,0,0,0-4.4-5.416A16.784,16.784,0,0,1,810.008,458.9Z" transform="translate(-780.754 -438.912)"/>
      </g>
      <g id="Group_1527" data-name="Group 1527" transform="translate(254.763 265.879)">
        <rect id="Rectangle_341" data-name="Rectangle 341" class="cls-36" width="100.627" height="130.952" rx="18.69" transform="translate(11.792)"/>
        <rect id="Rectangle_342" data-name="Rectangle 342" class="cls-23" width="100.627" height="130.952" rx="8" transform="translate(11.792)"/>
        <path id="Path_4011" data-name="Path 4011" class="cls-37" d="M646.03,411.092V525.347a8.377,8.377,0,0,1-4.311,7.315l-.055.028-6.842,4.673,2.754-3.671H553.747a8.333,8.333,0,0,1-8.344-8.344V411.092a8.333,8.333,0,0,1,8.344-8.344h83.939A8.351,8.351,0,0,1,646.03,411.092Z" transform="translate(-541.072 -395.275)"/>
        <path id="Path_4012" data-name="Path 4012" class="cls-38" d="M624.894,543.035H543.766a8.131,8.131,0,0,1-8.065-8.2V422.591c0-4.527,4.66-8.033,8.065-8.2h81.129a8.132,8.132,0,0,1,8.064,8.2V534.839A8.131,8.131,0,0,1,624.894,543.035Z" transform="translate(-535.701 -401.722)"/>
        <path id="Path_4013" data-name="Path 4013" class="cls-39" d="M552.336,391.2,539.8,402.093l6.091,1.731,8.944-7.541Z" transform="translate(-537.971 -388.883)"/>
        <path id="Path_4014" data-name="Path 4014" class="cls-23" d="M616.446,557.214l-72.981-14.525a10.024,10.024,0,0,1-7.763-9.433V418.081a6.231,6.231,0,0,1,7.763-6.343l72.981,14.525a10.024,10.024,0,0,1,7.763,9.433V550.871A6.23,6.23,0,0,1,616.446,557.214Z" transform="translate(-535.701 -400.167)"/>
      </g>
      <g id="Group_1529" data-name="Group 1529" transform="translate(335.976 342.957)">
        <path id="Path_4015" data-name="Path 4015" class="cls-26" d="M801.906,581.386c6.992-1.717,10.766-3.426,12.948-4.756,0,0,4.691-2.857,8.933-4.95a13.981,13.981,0,0,0,2.911-1.994,5.584,5.584,0,0,0,1.614-1.969c.046-.1,1.018-2.3.1-3.617-1.062-1.523-4.056-1.015-6.405-.615a24.686,24.686,0,0,0-6.236,2.05c-1.077.481-1.925.88-2.74,1.291-1.731.873-3.048,1.63-3.657,1.988l-.309.183c-1.1.654-4.02,2.091-10.944,5.183a4.234,4.234,0,0,0-1.816,4.879A4.286,4.286,0,0,0,801.906,581.386Z" transform="translate(-761.058 -561.104)"/>
        <g id="Group_1528" data-name="Group 1528">
          <path id="Path_4016" data-name="Path 4016" class="cls-26" d="M753.474,578.99c-1.262-.3-2.671-.735-3.462-1-6.123-2.043-12.051-3.9-17.931-5.956-2.422-.848-4.313-1.651-6.679-2.444-.007,0,.059.019-.034-.01s-.084-.014-.333-.1a10.234,10.234,0,0,1-1.1-.4,13.327,13.327,0,0,1-4.422-3.327c-.385-.437-.925-1.165-1.242-1.6a5.224,5.224,0,0,1-.537-.851c-.462-1.342.523-2.583,1.071-3.458a1.988,1.988,0,0,1,1.016-.878,1.292,1.292,0,0,1,1.141.233c.667.434.62.829,1.129,1.386a10.693,10.693,0,0,0,1.3,1c.808.55,1.224.81,1.411.71.407-.217.129-1.44.1-1.563q0-.508.006-1.023t0-1.043c2.8,2.7,3.549,4.011,3.543,4.673a1.947,1.947,0,0,0,.08.6,2.676,2.676,0,0,0,1.284,1.444c2.97,1.774,21.5,5.761,22.4,5.961a4.393,4.393,0,0,0,2.735.061,6.377,6.377,0,0,0,1.251-.411c1.915,1.517,3.214,2.846,3.247,5.625,0,.308-.538,2.218-1.423,2.494a8.2,8.2,0,0,1-1.47.244A19.859,19.859,0,0,1,753.474,578.99Z" transform="translate(-717.617 -558.665)"/>
        </g>
        <path id="Path_4017" data-name="Path 4017" class="cls-29" d="M817.019,579.177c-.6-1.045-1.152-1.858-1.552-2.418a15.291,15.291,0,0,1-1.058-1.5,13.331,13.331,0,0,1-1.175-3.38,11.882,11.882,0,0,0-1.866-3.666,10.4,10.4,0,0,0,1.88-.463,12.74,12.74,0,0,0,2.714-1.393c.9-.554,1.8-1.012,3.608-1.928a40.036,40.036,0,0,1,5.667-2.33c.849-.283,1.431-.444,5.042-1.359,2.21-.56,4.081-1.029,5.486-1.379a9.063,9.063,0,0,1,2.111,4.954,9.324,9.324,0,0,1-1.8,6.2c-1.174,1.672-2.734,2.789-9.268,5.292C824.338,576.752,821.021,577.948,817.019,579.177Z" transform="translate(-769.515 -559.048)"/>
      </g>
      <path id="Path_4044" data-name="Path 4044" class="cls-3" d="M71.522,268.51C32.021,268.51,0,272.927,0,278.375s32.021,9.869,71.522,9.869,71.522-4.417,71.522-9.869S111.023,268.51,71.522,268.51Z" transform="translate(28.201 182.967)"/>
      <g id="Group_1537" data-name="Group 1537" transform="translate(28.201 328.916)">
        <path id="Path_4018" data-name="Path 4018" class="cls-40" d="M59,807.524s-11.275-3-16.108-6.286c0,0-5.171-4.528,13.889-.575,0,0,.731,3.777,4.046,4.7Z" transform="translate(-35.981 -677.691)"/>
        <path id="Path_4019" data-name="Path 4019" class="cls-40" d="M37.076,811.919s-7.045-9.3-8.837-14.862c0,0-1.294-6.75,11.306,8.088,0,0-1.746,3.429.3,6.2Z" transform="translate(-28.201 -675.742)"/>
        <path id="Path_4020" data-name="Path 4020" class="cls-41" d="M157.489,783.868c12.911-.409,21.967-1,27.985-1.473,1.987-.158,7.85-.639,16.3-1.269,3.962-.3,7.214-.529,9.325-.679a3.042,3.042,0,0,0,.507,2.59,3.292,3.292,0,0,0,2.286.6,12.962,12.962,0,0,1,4.854,1.323,21.125,21.125,0,0,1-6.625,8.974c-4.737,3.624-9.779,3.91-16.31,4.189-12.457.533-28.2-2.792-29.1-2.88-.026,0-.5-.052-1.1-.123h0c-.8-.1-1.155-.153-2.437-.286-1.136-.118-2.6-.238-4.947-.367-3.256-.179-4.5-.169-5.5-1.225a5.857,5.857,0,0,1,.08-7.35A7.176,7.176,0,0,1,157.489,783.868Z" transform="translate(-96.436 -667.396)"/>
        <path id="Path_4021" data-name="Path 4021" class="cls-41" d="M99.661,799.1q-11.437,1.43-23.545,3.391-14.4,2.348-27.686,5.142a11.667,11.667,0,0,1-1.047-2.009,10.649,10.649,0,0,1-.8-4.866q12.919-2.883,26.162-6.068,12.48-3,24.584-6.122a5.573,5.573,0,0,1,6.712,8.2C103.186,798.06,101.865,798.825,99.661,799.1Z" transform="translate(-38.358 -671.706)"/>
        <path id="Path_4022" data-name="Path 4022" class="cls-41" d="M149.913,730.255c4.38,3.327,6.57,4.99,7.7,5.616,7.561,4.181,7.972,6.259,17.623,11.949a121.989,121.989,0,0,0,16.31,8.025,11.475,11.475,0,0,0,5.992-4.338,11.309,11.309,0,0,0,1.972-5.531c-1.326-1.218-3.293-2.951-5.787-4.885a96.429,96.429,0,0,0-22.479-12.854l0,0q-7.461-3.228-14.882-6.556a6.463,6.463,0,0,0-5-1.129c-2.951.689-5.033,3.811-4.6,6.166C147,727.99,147.915,728.737,149.913,730.255Z" transform="translate(-93.8 -634.161)"/>
        <path id="Path_4023" data-name="Path 4023" class="cls-41" d="M103.814,722.409q-7.745,7.707-15.957,15.518-11.385,10.82-22.546,20.76a6.739,6.739,0,0,0,1.7,1.933,7.409,7.409,0,0,0,5.264,1.362c15.888-14.21,23.478-19.468,27.288-21.149a39.369,39.369,0,0,0,5.054-2.647,40.541,40.541,0,0,0,7.7-6.177,8.373,8.373,0,0,0,.481-4.492c-.092-.524-.915-4.79-4.412-5.775A6.222,6.222,0,0,0,103.814,722.409Z" transform="translate(-48.745 -634.791)"/>
        <path id="Path_4024" data-name="Path 4024" class="cls-42" d="M279.62,635.239q-.73-2.6-1.435-5.3-.685-2.622-1.3-5.177a27.5,27.5,0,0,1-7.32.932q.084,1.764.139,3.573c.042,1.391.067,2.625.08,3.66.016,1.246.02,2.388.016,3.41a4.958,4.958,0,1,0,9.821-1.1Z" transform="translate(-161.813 -581.216)"/>
        <path id="Path_4025" data-name="Path 4025" class="cls-42" d="M243.558,648.507c-1.519.228-2.813.425-3.807.577-5.459.835-6.881,1.084-8.054,2.333a7.8,7.8,0,0,0-1.4,2.263,8.265,8.265,0,0,0-.624,3.016,8.117,8.117,0,0,1,3.03,1.429c4.513,3.458,3.383,10.6,3.3,11.075a48.109,48.109,0,0,1,.77,22.309,32.112,32.112,0,0,0,23.6.787,57.177,57.177,0,0,1,2.175-23.425c-1-4.5.127-8.769,3.01-10.856a7.425,7.425,0,0,1,3.4-1.318,7.306,7.306,0,0,0-.33-1.955,8.442,8.442,0,0,0-2.046-3.235c-1.339-1.256-4.124-1.647-9.639-2.377l-3.5-.462" transform="translate(-139.73 -594.358)"/>
        <path id="Path_4026" data-name="Path 4026" class="cls-43" d="M271.955,656.539a7.307,7.307,0,0,0-.33-1.955,7.7,7.7,0,0,0-.475-1.1,9.865,9.865,0,0,0-1.571-2.132c-1.053-1.06-4-2.467-8.068-2.712l-.972-.411c-1.447,3.35-3.806,5.6-6.092,5.53a3.934,3.934,0,0,1-1.96-.627c-2.049-1.416-1.71-4.529-1.684-4.733-1.171-.042-2.819-.064-4.789.038-3.125.162-4.71.175-5.687.644-2.7,1.3-3.568,4.65-4.144,6.879-1.08,4.178-.393,7.709.361,11.371a42.262,42.262,0,0,0,2.507,8.022,38.2,38.2,0,0,1,.05,5.771,39.384,39.384,0,0,1-4.005,14.743l5.471,3.7a19.227,19.227,0,0,1,2.475,2.662c3.1,3.823,2.82,5.506,5.234,7.22a11.662,11.662,0,0,0,3.429,1.564,35.379,35.379,0,0,0,4.934.842c.37.053,1.015.142,5.114.642l2.83.343c1.612-7.157,2.625-13.134,3.267-17.43.892-5.977,1.45-11.458,2.567-22.421.5-4.9.944-9.739.978-10.108C271.622,660.381,271.81,658.23,271.955,656.539Z" transform="translate(-142.731 -594.202)"/>
        <path id="Path_4027" data-name="Path 4027" class="cls-42" d="M260.958,571.555c-1.613-4.084-2.42-6.126-2.684-6.546-2.831-4.5-10.336-7.967-16.25-5.711-8,3.053-8.771,14.937-7.376,21.057a27.061,27.061,0,0,0,3.246,7.321c2.17,3.736,3.375,5.81,5.75,6.844,2.828,1.233,5.591.24,10.436-1.5,4.921-1.768,7.889-2.835,9.283-5.747,1.167-2.438.67-5,0-8.447A40.647,40.647,0,0,0,260.958,571.555Z" transform="translate(-142.173 -544.582)"/>
        <path id="Path_4028" data-name="Path 4028" class="cls-42" d="M306.774,580.157a4.649,4.649,0,0,0-1.129-2.041c-.4-.4-1.032-1.041-1.58-.911-.971.231-1.453,2.819-.99,4.952.457,2.1,1.886,4.013,2.618,3.85a1.193,1.193,0,0,0,.485-.334,1.923,1.923,0,0,0,.477-1.1C306.972,582.4,307.132,581.312,306.774,580.157Z" transform="translate(-180.265 -554.878)"/>
        <path id="Path_4029" data-name="Path 4029" class="cls-42" d="M230.506,607.424a4.326,4.326,0,0,1-.1-2.167c.12-.515.31-1.328.809-1.492.883-.291,2.525,1.527,3.2,3.443.663,1.889.46,4.1-.2,4.327a1.108,1.108,0,0,1-.547-.029,1.787,1.787,0,0,1-.914-.64C231.441,609.3,230.785,608.514,230.506,607.424Z" transform="translate(-140.082 -569.573)"/>
        <g id="Group_1530" data-name="Group 1530" transform="translate(80.683)">
          <path id="Path_4030" data-name="Path 4030" class="cls-44" d="M226.111,529.724a4.373,4.373,0,0,1,4.274-.567,4.376,4.376,0,0,1,3.447-.6,7.7,7.7,0,0,1,3.172-.64c1.792-.837,3.064-1.139,4.614.279,1.037-.15,1.632-.021,2.044,1a2.4,2.4,0,0,1,2.592,1.373c2.859-.121,4.074.758,4.738,3.552,1.415.377,1.826,1.071,1.869,2.505,2.4.818,3.2,2.047,3.439,4.535,1.722-.3,2.3.365,2.305,2.062,2.267,2.24,2.269,4.011.976,6.831a4.654,4.654,0,0,1-.352,4.135c1.266,2.617.791,4.063-1.483,5.813-.392,1.334-1.285,1.828-2.5,2.364-.085,2.524-1.879,3.244-3.949,4.2.337,1.325-.589,1.755-1.755,1.988s-1.657-.134-2.273-1.1a3.208,3.208,0,0,1-.52-2.292,1.91,1.91,0,0,1-.6-1.866,2.121,2.121,0,0,1-1.325-2.38,1.436,1.436,0,0,1-.836-1.835,1.922,1.922,0,0,1-1.026-2.148c-.947-.352-1.239-.787-1.049-1.792-1.224,0-1.775-.39-1.908-1.63-.841.2-1.3.111-1.52-.784a3.628,3.628,0,0,1-3.666-.434,8.592,8.592,0,0,1-4.16.862,6.821,6.821,0,0,1-3.171,2.4c-1.2.378-1.558-.045-2.517-.543a4.963,4.963,0,0,1-2.293,1.921c-.324,1.274-.588,2.118-1.868,2.641.269.33.534.568.031.8.6.517.53.792-.129,1.2.609.507.286.885-.26,1.275a2.914,2.914,0,0,1,1.293,2.314,1.879,1.879,0,0,1,1.147,1.847,2.34,2.34,0,0,1,.751,2.739c.416.38.681.585.6,1.183a1.419,1.419,0,0,1,1.02,1.15,1.669,1.669,0,0,1-.166,2.33c-.767.712-1.147.152-1.163-.682-1.054-.453-1.757-.881-1.449-2.116-.858-.046-.9-.478-.871-1.247-1.275-.854-2.4-1.2-2.336-2.924-.44-.347-.4-.735-.337-1.251-2.265-.789-2.774-2.745-4.194-4.509-1.7-.388-3.017-.929-2.175-2.837-1.979-1.982-2.428-3.651-1.482-6.3a3.2,3.2,0,0,1-1.238-3.009c-1.244-1.625-1.32-2.7.349-4-.725-1.312-.813-2.188.275-3.3-.286-1.208.164-1.8,1.123-2.5,0-1.991.9-2.724,2.691-3.388a2.068,2.068,0,0,1,2.058-2.03,4.2,4.2,0,0,1,3.276-1.354,5.13,5.13,0,0,1,4.427-2.589A1.563,1.563,0,0,1,226.111,529.724Z" transform="translate(-208.931 -527.213)"/>
        </g>
        <path id="Path_4031" data-name="Path 4031" class="cls-31" d="M258.972,624.738a4.91,4.91,0,0,0,2.532.963c2.274.15,4.582-1.494,5.821-4.149Z" transform="translate(-155.949 -579.437)"/>
        <path id="Path_4032" data-name="Path 4032" class="cls-31" d="M258.9,618.925c-.444.158-.888.315-1.312.42a2.471,2.471,0,0,0,1.7-.1,2.428,2.428,0,0,0,1.066-.943A14.284,14.284,0,0,1,258.9,618.925Z" transform="translate(-155.183 -577.635)"/>
        <path id="Path_4033" data-name="Path 4033" class="cls-11" d="M265.839,599.636c.292.571,1.717.612,2.7.228,1.237-.474,2.289-1.812,1.971-2.414-.382-.725-2.782-.695-4.056.692C266.327,598.277,265.574,599.129,265.839,599.636Z" transform="translate(-159.719 -565.834)"/>
        <g id="Group_1533" data-name="Group 1533" transform="translate(106.065 31.139)">
          <g id="Group_1532" data-name="Group 1532" class="cls-45">
            <g id="Group_1531" data-name="Group 1531" transform="translate(0.111 0.487)">
              <ellipse id="Ellipse_201" data-name="Ellipse 201" class="cls-33" cx="0.943" cy="1.122" rx="0.943" ry="1.122" transform="translate(0 0.63) rotate(-19.515)"/>
            </g>
          </g>
        </g>
        <path id="Path_4035" data-name="Path 4035" class="cls-11" d="M243.28,609.247a1.447,1.447,0,0,0,1.416.833,1.638,1.638,0,0,0,1.157-2.14c-.4-.629-1.849-.375-2.352-.017a.872.872,0,0,0-.2.195A1.29,1.29,0,0,0,243.28,609.247Z" transform="translate(-147.197 -571.689)"/>
        <g id="Group_1536" data-name="Group 1536" transform="translate(95.849 35.835)">
          <g id="Group_1535" data-name="Group 1535" class="cls-46">
            <g id="Group_1534" data-name="Group 1534" transform="translate(0.001 -0.104)">
              <ellipse id="Ellipse_202" data-name="Ellipse 202" class="cls-33" cx="0.74" cy="1.084" rx="0.74" ry="1.084" transform="translate(0 0.494) rotate(-19.515)"/>
            </g>
          </g>
        </g>
        <path id="Path_4037" data-name="Path 4037" class="cls-42" d="M187.971,654.559q-.78,5.231-1.561,10.462a31.832,31.832,0,0,1-2.111,3.106l-.013.023c-.685.881-1.421,1.8-2.321,2.752-.841.883-1.764,1.826-2.819,2.784-.553.5-1.119,1.014-1.744,1.529-.525.45-1.087.908-1.654,1.35-.018,0-.013.023-.032.028-1.941,1.522-7.5,3.463-13.969,5.762l-.018,0c-2.706.981-5.558,2-8.386,3.111a19.352,19.352,0,0,0-3.129,4.951,4.39,4.39,0,0,0-.5.715,1.81,1.81,0,0,1-1.1.657,4.09,4.09,0,0,1-.756-2.219l0-.018a6.738,6.738,0,0,1,.063-2.96c.309-1.8,2.552-4.176,4.175-4.153l17.439-9.633.018,0,1.259-.7.273-.149.037-.01.4-.2.018,0,1.032-.6c.275-.364.532-.724.807-1.088a7.156,7.156,0,0,1,.469-.59.4.4,0,0,1,.139-.212l.013-.023a.984.984,0,0,0,.153-.235c1.663-2.209,3.286-4.35,4.842-6.375.289-.376.357-.476.419-.558C180.774,660.264,183.217,657.758,187.971,654.559Z" transform="translate(-94.37 -597.708)"/>
        <path id="Path_4038" data-name="Path 4038" class="cls-43" d="M189.378,670.468a10.238,10.238,0,0,0,1.175,2.87,10.536,10.536,0,0,0,3.973,3.781c1.316-.869,2.284-1.487,2.978-1.925a16.638,16.638,0,0,0,1.775-1.234c.216-.175.6-.5.993-.842.292-.255.533-.473.707-.632,4.574-5.062,6.482-7.083,7.22-7.791a9.151,9.151,0,0,0,1.023-1.113c.572-.743.674-1.125,1.224-1.855a14.282,14.282,0,0,1,1.1-1.2,14.339,14.339,0,0,0,2.284-3.757,28.548,28.548,0,0,0,1.458-4.931c.233-.956.4-1.75.516-2.284a23.9,23.9,0,0,0-3.914,1.073c-.166.061-.761.275-1.355.546a18.86,18.86,0,0,0-5.623,3.979,23.628,23.628,0,0,0-3.039,3.925,77.413,77.413,0,0,1-6.537,8.383,29.12,29.12,0,0,1-3.59,2.016C190.919,669.866,190.126,670.193,189.378,670.468Z" transform="translate(-117.424 -594.939)"/>
        <path id="Path_4039" data-name="Path 4039" class="cls-28" d="M213.086,671.386,208.8,668.7a3.347,3.347,0,0,1-1.011-1.613L203.625,653l-.9-.788.776-.434c0-.025.029-.047.051-.021.079-.068.151-.038.27.021l4.264,2.71a3.221,3.221,0,0,1,1.011,1.613l4.277,14.486C213.565,671.275,213.439,671.612,213.086,671.386Z" transform="translate(-124.811 -596.138)"/>
        <path id="Path_4040" data-name="Path 4040" class="cls-23" d="M212.074,672.456l-4.279-2.695a3.282,3.282,0,0,1-1-1.614l-4.276-14.5c-.2-.666-.065-1.023.293-.8l4.279,2.695a3.287,3.287,0,0,1,1,1.615l4.276,14.5C212.564,672.325,212.433,672.682,212.074,672.456Z" transform="translate(-124.646 -596.725)"/>
        <path id="Path_4041" data-name="Path 4041" class="cls-38" d="M210.049,660.238l-1.341-.845a1.516,1.516,0,0,1-.463-.745h0c-.091-.307-.03-.472.135-.367l1.341.845a1.514,1.514,0,0,1,.463.745h0C210.275,660.177,210.214,660.342,210.049,660.238Z" transform="translate(-127.845 -599.751)"/>
        <path id="Path_4042" data-name="Path 4042" class="cls-42" d="M259.764,681.238c-.207.361-.355.726-.542,1.088-.7,1.354-2.452,6.179-2.945,7.153-2.533,4.942-4.68,7.254-9.9,11.031-9.084,1.171-29.973-18.16-31.142-18.947l-2.938-1.005a12.362,12.362,0,0,1-.861-5.963c.986-.677,1.907-1.021,2.7-.463l1.756,1.647a2.693,2.693,0,0,1,.1-1.72.918.918,0,0,1,1.155-.048,19.006,19.006,0,0,0,.65,3.088l6.919,4.138,4.4,2.629,14.54,8.708c.042-.036,1.676-2.885,3.815-6.607,3.537-6.094,8.391-14.545,9.538-16.519l.113-.17.137-.227,0-.02.021-.018a7.276,7.276,0,0,1,.842.9,8.29,8.29,0,0,1,2.073,5.185.237.237,0,0,1,.007.159A31.3,31.3,0,0,1,259.764,681.238Z" transform="translate(-129.596 -605.709)"/>
        <path id="Path_4043" data-name="Path 4043" class="cls-43" d="M285.452,697.075a16.469,16.469,0,0,1-2.743-3.329,16.663,16.663,0,0,1-2.343-6.478l7.815-10.8c4.868-8.022,6.353-10.984,6.549-11.9a4.579,4.579,0,0,1,.6-1.521,4.642,4.642,0,0,1,1.144-1.238,12.437,12.437,0,0,1,1.251,1.99c1.019,2.025,1.753,4.89.847,10.447-.63,3.869-2.094,12.894-9.684,20.038A30.026,30.026,0,0,1,285.452,697.075Z" transform="translate(-167.792 -601.724)"/>
      </g>
    </g>
  </g>
</svg>
