<svg xmlns="http://www.w3.org/2000/svg" xmlns:xlink="http://www.w3.org/1999/xlink" width="461.462" height="434.31" viewBox="0 0 461.462 434.31">
  <defs>
    <style>
      .cls-1, .cls-20, .cls-22 {
        fill: none;
      }

      .cls-2 {
        fill: #d3487b;
      }

      .cls-3 {
        fill: #b9416d;
      }

      .cls-4 {
        fill: #eaba3c;
      }

      .cls-5 {
        fill: #f0f0f0;
      }

      .cls-6 {
        fill: url(#linear-gradient);
      }

      .cls-7 {
        fill: #fff;
      }

      .cls-8 {
        fill: #d5dbe0;
      }

      .cls-9 {
        fill: #f89a5b;
      }

      .cls-10 {
        fill: #19114c;
      }

      .cls-11 {
        fill: #48a7bb;
      }

      .cls-12 {
        fill: #ffd63f;
      }

      .cls-13 {
        fill: #685b9e;
      }

      .cls-14 {
        fill: #112129;
      }

      .cls-15 {
        fill: #dc7044;
      }

      .cls-16 {
        clip-path: url(#clip-path);
      }

      .cls-17 {
        fill: #1d262d;
      }

      .cls-18 {
        clip-path: url(#clip-path-2);
      }

      .cls-19 {
        fill: #ff9100;
      }

      .cls-20 {
        stroke: #ab520e;
      }

      .cls-20, .cls-22 {
        stroke-linecap: round;
        stroke-miterlimit: 10;
        stroke-width: 0.486px;
      }

      .cls-21 {
        fill: #813d8e;
      }

      .cls-22 {
        stroke: #ffd63f;
      }

      .cls-23 {
        fill: #00a494;
      }

      .cls-24 {
        fill: #f7531b;
      }

      .cls-25 {
        clip-path: url(#clip-path-3);
      }

      .cls-26 {
        clip-path: url(#clip-path-4);
      }

      .cls-27 {
        fill: #3b2315;
      }

      .cls-28 {
        fill: #fdb585;
      }

      .cls-29 {
        fill: #fa5c17;
      }

      .cls-30 {
        fill: #814a95;
      }

      .cls-31 {
        fill: #512945;
      }

      .cls-32 {
        fill: #454195;
      }

      .cls-33 {
        clip-path: url(#clip-path-5);
      }

      .cls-34 {
        clip-path: url(#clip-path-6);
      }

      .cls-35 {
        fill: #323232;
      }

      .cls-36 {
        fill: #84614b;
      }

      .cls-37 {
        fill: #1d184c;
      }

      .cls-38 {
        fill: #4d3782;
      }

      .cls-39 {
        fill: #744b90;
      }

      .cls-40 {
        fill: #5884d4;
      }

      .cls-41 {
        fill: #f4d54f;
      }

      .cls-42 {
        fill: #633631;
      }

      .cls-43 {
        clip-path: url(#clip-path-7);
      }

      .cls-44 {
        clip-path: url(#clip-path-8);
      }
    </style>
    <linearGradient id="linear-gradient" y1="0.5" x2="1" y2="0.5" gradientUnits="objectBoundingBox">
      <stop offset="0" stop-color="#a1d8f6"/>
      <stop offset="1" stop-color="#9e90f2"/>
    </linearGradient>
    <clipPath id="clip-path">
      <path id="Path_4080" data-name="Path 4080" class="cls-1" d="M487.2,364.122c.216.31,1.047.223,1.6-.08.684-.377,1.2-1.229.956-1.567-.28-.394-1.68-.183-2.313.725C487.374,363.291,487,363.837,487.2,364.122Z" transform="translate(-487.139 -362.286)"/>
    </clipPath>
    <clipPath id="clip-path-2">
      <path id="Path_4082" data-name="Path 4082" class="cls-1" d="M478.884,368.926a.89.89,0,0,0,1.255.168.862.862,0,0,0,.242-1.168c-.292-.338-.925-.123-1.186.024a.725.725,0,0,0-.236.191A.753.753,0,0,0,478.884,368.926Z" transform="translate(-478.807 -367.746)"/>
    </clipPath>
    <clipPath id="clip-path-3">
      <path id="Path_4115" data-name="Path 4115" class="cls-1" d="M401.464,545.532c.149.4,1.074.533,1.751.36.845-.216,1.64-1,1.474-1.428-.194-.5-1.768-.669-2.708.139C401.89,544.681,401.328,545.165,401.464,545.532Z" transform="translate(-401.443 -544.041)"/>
    </clipPath>
    <clipPath id="clip-path-4">
      <path id="Path_4117" data-name="Path 4117" class="cls-1" d="M417.878,539.893c.2.376,1.132.394,1.782.137.811-.321,1.5-1.2,1.284-1.6-.256-.476-1.838-.442-2.669.477C418.194,539,417.7,539.546,417.878,539.893Z" transform="translate(-417.838 -538.126)"/>
    </clipPath>
    <clipPath id="clip-path-5">
      <path id="Path_4182" data-name="Path 4182" class="cls-1" d="M719.846,506.068c.071.5,1.118.9,1.96.872,1.047-.038,2.18-.745,2.094-1.3-.1-.641-1.9-1.237-3.208-.533C720.562,505.182,719.78,505.607,719.846,506.068Z" transform="translate(-719.842 -504.793)"/>
    </clipPath>
    <clipPath id="clip-path-6">
      <path id="Path_4184" data-name="Path 4184" class="cls-1" d="M705.681,506.473a1.194,1.194,0,0,0,1.4.961,1.157,1.157,0,0,0,1-1.251c-.145-.581-1.032-.708-1.434-.69a.991.991,0,0,0-.4.086A1.015,1.015,0,0,0,705.681,506.473Z" transform="translate(-705.681 -505.491)"/>
    </clipPath>
    <clipPath id="clip-path-7">
      <path id="Path_4208" data-name="Path 4208" class="cls-1" d="M293.984,505.3c.065.461,1.023.825,1.793.8.959-.035,2-.682,1.917-1.187-.089-.586-1.739-1.132-2.936-.487C294.638,504.484,293.922,504.873,293.984,505.3Z" transform="translate(-293.98 -504.129)"/>
    </clipPath>
    <clipPath id="clip-path-8">
      <path id="Path_4210" data-name="Path 4210" class="cls-1" d="M281.021,505.667a1.093,1.093,0,0,0,1.282.88,1.061,1.061,0,0,0,.914-1.146c-.133-.532-.945-.648-1.313-.631a.891.891,0,0,0-.365.078A.927.927,0,0,0,281.021,505.667Z" transform="translate(-281.021 -504.768)"/>
    </clipPath>
  </defs>
  <g id="team" transform="translate(-110.409 -2458.69)">
    <ellipse id="Ellipse_142" data-name="Ellipse 142" class="cls-2" cx="215.935" cy="217.155" rx="215.935" ry="217.155" transform="translate(140 2458.69)"/>
    <g id="Group_1608" data-name="Group 1608" transform="translate(-25.51 2202.025)">
      <path id="Path_4221" data-name="Path 4221" class="cls-3" d="M216.078,268.51C96.741,268.51,0,273.462,0,279.569s96.741,11.063,216.078,11.063,216.077-4.952,216.077-11.063S335.414,268.51,216.078,268.51Z" transform="translate(163.118 302.342)"/>
      <g id="Group_1542" data-name="Group 1542" transform="translate(428.492 465.152)">
        <g id="Group_1541" data-name="Group 1541">
          <g id="Group_1540" data-name="Group 1540">
            <g id="Group_1539" data-name="Group 1539">
              <path id="Path_4047" data-name="Path 4047" class="cls-4" d="M699.307,604.738l7.907-1.855L703.3,586.2l-7.905,1.853a46.806,46.806,0,0,0-11.371-15.821l4.279-6.908-14.569-9.037-4.279,6.908a46.812,46.812,0,0,0-15-3.158c-1.345-.061-2.71-.061-4.077,0-.05,0-.112.01-.162.01l-1.844-7.916-16.688,3.912,1.853,7.917a46.787,46.787,0,0,0-15.832,11.37l-6.907-4.279L601.773,585.6l6.9,4.279a46.848,46.848,0,0,0-3.149,19.235l-7.905,1.855,3.912,16.689,7.907-1.855a46.676,46.676,0,0,0,11.369,15.834l-4.279,6.9,14.56,9.037,4.29-6.907a46.466,46.466,0,0,0,19.235,3.147l1.855,7.916,16.679-3.912-1.853-7.905a48.045,48.045,0,0,0,4.675-2.364,46.8,46.8,0,0,0,11.157-9.007l6.907,4.279,9.026-14.569-6.9-4.279A46.831,46.831,0,0,0,699.307,604.738Z" transform="translate(-597.617 -552.125)"/>
            </g>
          </g>
        </g>
      </g>
      <g id="Group_1545" data-name="Group 1545" transform="translate(333.896 477.564)">
        <g id="Group_1543" data-name="Group 1543" transform="translate(35.753 7.3)">
          <path id="Path_4048" data-name="Path 4048" class="cls-5" d="M585.11,682.18h-2.022l-19.542-98.007h2.021Z" transform="translate(-537.49 -584.173)"/>
          <path id="Path_4049" data-name="Path 4049" class="cls-5" d="M542.219,682.18H540.2l-19.542-98.007h2.021Z" transform="translate(-520.655 -584.173)"/>
          <rect id="Rectangle_343" data-name="Rectangle 343" class="cls-5" width="24.913" height="1.658" transform="translate(44.034 88.427) rotate(180)"/>
          <rect id="Rectangle_344" data-name="Rectangle 344" class="cls-5" width="24.913" height="1.659" transform="translate(40.901 72.558) rotate(180)"/>
          <rect id="Rectangle_345" data-name="Rectangle 345" class="cls-5" width="24.915" height="1.659" transform="translate(37.768 56.688) rotate(180)"/>
          <rect id="Rectangle_346" data-name="Rectangle 346" class="cls-5" width="24.913" height="1.658" transform="translate(34.633 40.818) rotate(180)"/>
          <rect id="Rectangle_347" data-name="Rectangle 347" class="cls-5" width="24.914" height="1.659" transform="translate(31.5 24.95) rotate(180)"/>
          <rect id="Rectangle_348" data-name="Rectangle 348" class="cls-5" width="24.913" height="1.658" transform="translate(28.366 9.08) rotate(180)"/>
        </g>
        <rect id="Rectangle_349" data-name="Rectangle 349" class="cls-6" width="22.257" height="7.3" transform="translate(54.905)"/>
        <rect id="Rectangle_350" data-name="Rectangle 350" class="cls-5" width="42.229" height="7.3" transform="translate(12.676)"/>
        <g id="Group_1544" data-name="Group 1544" transform="translate(0 7.3)">
          <path id="Path_4050" data-name="Path 4050" class="cls-7" d="M461.8,682.18h2.022l19.543-98.007h-2.022Z" transform="translate(-461.803 -584.173)"/>
          <path id="Path_4051" data-name="Path 4051" class="cls-7" d="M504.694,682.18h2.021l19.542-98.007h-2.021Z" transform="translate(-478.638 -584.173)"/>
          <rect id="Rectangle_351" data-name="Rectangle 351" class="cls-7" width="24.913" height="1.658" transform="translate(3.586 86.769)"/>
          <rect id="Rectangle_352" data-name="Rectangle 352" class="cls-7" width="24.914" height="1.659" transform="translate(6.719 70.899)"/>
          <rect id="Rectangle_353" data-name="Rectangle 353" class="cls-7" width="24.914" height="1.659" transform="translate(9.853 55.029)"/>
          <rect id="Rectangle_354" data-name="Rectangle 354" class="cls-7" width="24.913" height="1.658" transform="translate(12.987 39.161)"/>
          <rect id="Rectangle_355" data-name="Rectangle 355" class="cls-7" width="24.914" height="1.659" transform="translate(16.121 23.291)"/>
          <rect id="Rectangle_356" data-name="Rectangle 356" class="cls-7" width="24.913" height="1.658" transform="translate(19.254 7.422)"/>
        </g>
      </g>
      <g id="Group_1547" data-name="Group 1547" transform="translate(135.919 373.972)">
        <path id="Path_4052" data-name="Path 4052" class="cls-8" d="M181.238,442.346l3.846,8.646H193l1.074-8.646Z" transform="translate(-153.706 -417.615)"/>
        <g id="Group_1546" data-name="Group 1546" transform="translate(1.717 0.971)">
          <path id="Path_4053" data-name="Path 4053" class="cls-8" d="M138.746,403.235,144.675,414l7.5-2.456c.009-.1.012-3.949.012-3.949,0-2.447-1.98-3-4.427-3Z" transform="translate(-138.746 -403.235)"/>
          <path id="Path_4054" data-name="Path 4054" class="cls-8" d="M138.746,438.379l5.929-10.763,7.5,2.455c.009.1.012,3.949.012,3.949,0,2.446-1.98,3-4.427,3Z" transform="translate(-138.746 -412.804)"/>
        </g>
        <path id="Path_4055" data-name="Path 4055" class="cls-5" d="M135.919,415.871s61.373-.121,61.48,0C190.192,390.455,139.33,404.609,135.919,415.871Z" transform="translate(-135.919 -401.637)"/>
        <path id="Path_4056" data-name="Path 4056" class="cls-8" d="M135.919,425.067s61.373.121,61.48,0C190.192,450.483,139.33,436.327,135.919,425.067Z" transform="translate(-135.919 -410.833)"/>
        <path id="Path_4057" data-name="Path 4057" class="cls-8" d="M172.449,411.229c22.217,0,24.847,8.286,24.954,8.4H135.928C136.145,419.551,150.192,411.229,172.449,411.229Z" transform="translate(-135.923 -405.402)"/>
        <path id="Path_4058" data-name="Path 4058" class="cls-5" d="M172.449,433.477c22.217,0,24.847-8.285,24.954-8.4H135.928C136.145,425.156,150.192,433.477,172.449,433.477Z" transform="translate(-135.923 -410.835)"/>
        <path id="Path_4059" data-name="Path 4059" class="cls-8" d="M237.12,425.062l0,0,0,0Z" transform="translate(-175.64 -410.831)"/>
      </g>
      <g id="Group_1549" data-name="Group 1549" transform="translate(295.756 332.818)">
        <path id="Path_4062" data-name="Path 4062" class="cls-5" d="M404.979,354.517a7.777,7.777,0,0,1,5.957,2.925H399.023A7.777,7.777,0,0,1,404.979,354.517Z" transform="translate(-399.023 -341.988)"/>
        <path id="Path_4063" data-name="Path 4063" class="cls-5" d="M450.225,343.084c2.544,0,4.479,3.03,6.778,2.492,5.024-1.176,7.089-7.646,12.6-7.646,4.256,0,6.719,5.281,10.646,4.924,6.22-.567,9.023-8.96,15.721-8.96,6.192,0,9.235,7.184,14.954,7.818,3.37.374,5.835-3.672,9.5-3.672,6.906,0,7.513,2.745,13.872,4.728,1.824.569,3.22,4.126,5.283,4.126a7.4,7.4,0,0,1,5.957,2.454H439.857A11.982,11.982,0,0,1,450.225,343.084Z" transform="translate(-415.05 -333.894)"/>
      </g>
      <g id="Group_1559" data-name="Group 1559" transform="translate(315.222 331.152)">
        <g id="Group_1550" data-name="Group 1550" transform="translate(0 60.798)">
          <path id="Path_4064" data-name="Path 4064" class="cls-9" d="M436.748,435.286c-1.405.457-2.583.847-3.567,1.159a3.3,3.3,0,0,0-1.1.56,2.6,2.6,0,0,0-.967,1.355,2.7,2.7,0,0,0,.558,2.045c.6.977,1.974,2.394,3.565,2.246a4.638,4.638,0,0,0,1.615-.555,6.488,6.488,0,0,0,1.272-.849c.832-.693,2.123-1.685,3.963-3.053l-1.389-2.649Z" transform="translate(-431.065 -432.822)"/>
          <path id="Path_4065" data-name="Path 4065" class="cls-9" d="M441.5,432.738a3.57,3.57,0,0,1-2.1-.171,7.082,7.082,0,0,0-2.363-.806,16.925,16.925,0,0,1-2.408-.516c-.418-.151-.725.854.332,1.357a6.573,6.573,0,0,1,1.9,1.015c.241.315,2.418,3.664,5.841.933Z" transform="translate(-432.312 -431.23)"/>
        </g>
        <path id="Path_4066" data-name="Path 4066" class="cls-10" d="M549.629,553.381c.562.459,2.94,2.491,2.558,4.657-.115.651-.334.492-3.8,3.95A12.225,12.225,0,0,1,545,564.36c-.165.07-.275.11-.322.125a11.2,11.2,0,0,1-3.051.06c-2.616-.1-3.149-.14-3.609-.625-.414-.437-.763-1.231-.483-1.676.442-.7,2.006.159,3.9-.637a5.381,5.381,0,0,0,1.557-1.067,10.744,10.744,0,0,0,3.031-4.844A4.1,4.1,0,0,0,549.629,553.381Z" transform="translate(-472.816 -418.375)"/>
        <path id="Path_4067" data-name="Path 4067" class="cls-10" d="M497.71,566.574a45.439,45.439,0,0,1-13.338-.736q-.734-.406-.726-.8.026-1.34,8.709-2.511l2.888.21,2.525.183Q497.739,564.748,497.71,566.574Z" transform="translate(-451.703 -421.966)"/>
        <path id="Path_4068" data-name="Path 4068" class="cls-11" d="M500.231,442c-1.236,7.246-2.272,14.96-3,23.108a295.047,295.047,0,0,0-.2,50.376l5.611.471c-.022-6.387.226-13.245.866-20.505a225.086,225.086,0,0,1,6.22-36.258q1.114-8.6,2.229-17.191Z" transform="translate(-456.569 -374.658)"/>
        <path id="Path_4069" data-name="Path 4069" class="cls-11" d="M511.893,445.811a148.091,148.091,0,0,0,24.54,69.707l4.544-4.3a109.252,109.252,0,0,1-13.527-68.589Z" transform="translate(-462.789 -374.904)"/>
        <path id="Path_4070" data-name="Path 4070" class="cls-12" d="M472.366,394.841a58.811,58.811,0,0,1-7.359,9.489,59.979,59.979,0,0,1-19.619,13.588l2.513,5.028a77.107,77.107,0,0,0,13.279-5.867,78.05,78.05,0,0,0,20.6-16.749Z" transform="translate(-436.686 -356.149)"/>
        <path id="Path_4071" data-name="Path 4071" class="cls-9" d="M505.851,383.459c.12-1.1-.547-1.677-1.591-3.765A24.019,24.019,0,0,1,502.779,376a20.486,20.486,0,0,1-5.31,1.423q.24,1.294.462,2.623c.162.97.3,1.871.426,2.694.137.917.255,1.76.355,2.516a4.275,4.275,0,0,0,4.294,1.228A3.93,3.93,0,0,0,505.851,383.459Z" transform="translate(-457.128 -348.755)"/>
        <path id="Path_4072" data-name="Path 4072" class="cls-9" d="M495.069,388.256c-.674.294-1.283.561-1.815.8l-.813.357a8.727,8.727,0,0,0-3.166,2.651c-1.446,1.952-.669,5-.154,5.217,3.917,1.614,4.487,6.972,4.52,7.328a35.825,35.825,0,0,1,4.875,15.9,23.929,23.929,0,0,0,17.127-4,42.609,42.609,0,0,1-2.973-17.274c-1.593-3.044-1.607-6.333.063-8.392a5.531,5.531,0,0,1,2.191-1.606,5.452,5.452,0,0,0-.617-1.343,6.281,6.281,0,0,0-2.1-1.931c-1.207-.644-3.285-.386-7.394.157l-2.607.345" transform="translate(-453.586 -352.512)"/>
        <path id="Path_4073" data-name="Path 4073" class="cls-13" d="M514.609,389.227a5.442,5.442,0,0,0-.617-1.343,6.288,6.288,0,0,0-2.1-1.931c-1.207-.645-3.285-.386-7.394.157l-2.607.345a3.6,3.6,0,0,1-.79,3.626,3.745,3.745,0,0,1-3.307.959,4.064,4.064,0,0,1-3.051-2.852c-.375.149-.954.38-1.665.666-.969.39-1.1.439-1.267.512a14.83,14.83,0,0,0-2.233,1.224c-1.671,1.173-1.889,4.309-1.923,4.962-.2,3.788,1.518,5.646,4.835,13.441a34.958,34.958,0,0,1,2.43,6.834,24.62,24.62,0,0,1,.152,8.505c2.722.131,5.623.17,8.682.076a110.3,110.3,0,0,0,14.706-1.443c.1-5.776-.029-10.8-.228-14.884-.369-7.557-.954-11.61-2.531-16.073C515.287,390.831,514.89,389.874,514.609,389.227Z" transform="translate(-453.271 -352.512)"/>
        <path id="Path_4074" data-name="Path 4074" class="cls-9" d="M492.878,348.36c-1.691-3.082-2.538-4.624-2.785-4.933-2.654-3.31-8.689-5.44-12.857-3.194-5.638,3.038-4.813,12.442-3.045,17.143a19.66,19.66,0,0,0,3.3,5.5,11.745,11.745,0,0,0,5.073,3.937c3.376,1.135,6.337-.349,7.69-1.027,1.385-.693,4.913-2.439,5.788-6.237a10.983,10.983,0,0,0-.5-5.663C495.257,352.917,494.9,352.046,492.878,348.36Z" transform="translate(-447.474 -334.352)"/>
        <g id="Group_1551" data-name="Group 1551" transform="translate(28.789 18.694)">
          <path id="Path_4075" data-name="Path 4075" class="cls-14" d="M481.022,372.766c.082-.013.241-.065.537-.1.148-.018.363-.041.677-.085.074-.01.145.015.169-.034.222-.426-.3-1.041-.178-1.575a1.015,1.015,0,0,1,.508-.594c.743-.434,1.353-.625,2.233-1.055.565-.275,1.394-.821,2.106-1.18.34-.172.963-.52,1.454-.323a2.957,2.957,0,0,1,.946.638,1.371,1.371,0,0,0,.5.383c.168.058.389-.083.449-.118a5.6,5.6,0,0,0,.951-.549,3.818,3.818,0,0,0,1.615-2.921,6.781,6.781,0,0,0-.933-2.581c-.027-.068-.125-.194-.059-.316a.817.817,0,0,1,.709-.431c.6.813,1.295,2.44,1.731,3.19a18.949,18.949,0,0,1,1.85,3.366,5.46,5.46,0,0,1,0,2.67c-.677,2.525-3.028,3.9-5.761,5.445a25.954,25.954,0,0,1-3.666,1.505,4.091,4.091,0,0,1-2.7.344,3.348,3.348,0,0,1-1.038-.547,5.249,5.249,0,0,1-1.1-1.408c-.225-.352-.289-.482-.478-.8-.312-.52-.533-.821-1.185-1.718a9.409,9.409,0,0,1-1.843-3.275c-.006-.023-.113-.456-.019-.5C478.745,370.092,480.144,372.908,481.022,372.766Z" transform="translate(-478.454 -361.924)"/>
        </g>
        <path id="Path_4076" data-name="Path 4076" class="cls-15" d="M486.7,376.386a2.4,2.4,0,0,0,1.318.572c1.335.116,2.788-1.077,3.485-3.013Z" transform="translate(-452.903 -347.947)"/>
        <path id="Path_4077" data-name="Path 4077" class="cls-15" d="M486.278,373.044c-.276.146-.541.268-.787.37a1.56,1.56,0,0,0,1.055-.208,1.537,1.537,0,0,0,.589-.677A9.1,9.1,0,0,1,486.278,373.044Z" transform="translate(-452.427 -347.392)"/>
        <path id="Path_4078" data-name="Path 4078" class="cls-14" d="M479.712,343.54c-1.85-.3-1.973,2.562-5.787,4.252-3.479,1.542-5.678.906-6.932,2.677a3.512,3.512,0,0,1-1.834,1.54,2.8,2.8,0,0,1-1.376.029,10.386,10.386,0,0,1-2.6-3.347,13.333,13.333,0,0,1-1.122-4.5,11.321,11.321,0,0,1-.162-2.861c.449-3.1,3.813-5,4.74-5.521,2.758-1.553,3.883-.912,6.305-1.244a14.282,14.282,0,0,0,3.165-.849c2.647-.951,3.647-1.77,5.3-2.212a10.845,10.845,0,0,1,3.693-.312,20.225,20.225,0,0,1,5.028,12.657,20.9,20.9,0,0,0,.621,2.132,45.524,45.524,0,0,1,1.578,4.3c.086.327.147.6.184.77q-.278.132-.571.26c-.5.221-.994.412-1.467.579l-1.594-2.505a5.84,5.84,0,0,0-1.283-3.634c-.2-.235-.757-.835-1.1-.693-.538.221-.2,2.107-.177,2.237a6.915,6.915,0,0,0,1.358,2.963l-.99.188a20.16,20.16,0,0,0-1.007-2.166C482.425,345.948,481.262,343.794,479.712,343.54Z" transform="translate(-442.367 -331.152)"/>
        <path id="Path_4079" data-name="Path 4079" class="cls-7" d="M487.191,364.114c.214.312,1.049.228,1.6-.07.688-.369,1.2-1.23.97-1.558-.278-.395-1.677-.2-2.318.71C487.374,363.284,487,363.839,487.191,364.114Z" transform="translate(-453.073 -343.375)"/>
        <g id="Group_1554" data-name="Group 1554" transform="translate(34.065 18.914)">
          <g id="Group_1553" data-name="Group 1553" class="cls-16">
            <g id="Group_1552" data-name="Group 1552" transform="translate(-0.03 0.417)">
              <ellipse id="Ellipse_203" data-name="Ellipse 203" class="cls-17" cx="0.555" cy="0.661" rx="0.555" ry="0.661" transform="translate(0 0.502) rotate(-26.849)"/>
            </g>
          </g>
        </g>
        <path id="Path_4081" data-name="Path 4081" class="cls-7" d="M479.011,368.894a.853.853,0,0,0,.89.38.964.964,0,0,0,.515-1.337c-.28-.338-1.108-.08-1.375.166a.529.529,0,0,0-.1.129A.762.762,0,0,0,479.011,368.894Z" transform="translate(-449.838 -345.526)"/>
        <g id="Group_1557" data-name="Group 1557" transform="translate(29.004 22.231)">
          <g id="Group_1556" data-name="Group 1556" class="cls-18">
            <g id="Group_1555" data-name="Group 1555" transform="translate(-0.067 -0.018)">
              <ellipse id="Ellipse_204" data-name="Ellipse 204" class="cls-17" cx="0.436" cy="0.639" rx="0.436" ry="0.639" transform="translate(0 0.394) rotate(-26.849)"/>
            </g>
          </g>
        </g>
        <path id="Path_4083" data-name="Path 4083" class="cls-9" d="M502.154,354.531a3.464,3.464,0,0,0-1.2-1.255c-.365-.214-.941-.554-1.311-.355-.656.351-.511,2.307.228,3.755.728,1.428,2.121,2.531,2.617,2.275a.886.886,0,0,0,.286-.333,1.438,1.438,0,0,0,.134-.883A7.346,7.346,0,0,0,502.154,354.531Z" transform="translate(-457.816 -339.672)"/>
        <g id="Group_1558" data-name="Group 1558" transform="translate(28.424 61.611)">
          <path id="Path_4084" data-name="Path 4084" class="cls-9" d="M482.7,434.986c-1.275.748-2.341,1.38-3.236,1.9a3.288,3.288,0,0,0-.955.783,2.6,2.6,0,0,0-.654,1.531,2.7,2.7,0,0,0,.983,1.878c.8.825,2.441,1.916,3.964,1.431a4.654,4.654,0,0,0,1.458-.889,6.478,6.478,0,0,0,1.061-1.1c.664-.855,1.713-2.1,3.217-3.83l-1.924-2.29Z" transform="translate(-477.852 -433.285)"/>
          <path id="Path_4085" data-name="Path 4085" class="cls-9" d="M486.391,432.586a3.578,3.578,0,0,1-2.089.283,7.1,7.1,0,0,0-2.48-.282,16.811,16.811,0,0,1-2.462.012c-.44-.058-.526.99.614,1.255a6.584,6.584,0,0,1,2.072.585c.3.256,3.147,3.062,5.905-.338Z" transform="translate(-478.325 -432.569)"/>
        </g>
        <path id="Path_4086" data-name="Path 4086" class="cls-12" d="M510.488,385.486a45.818,45.818,0,0,1-4.076,10.723,47.509,47.509,0,0,1-16.256,17.472l3.531,4.374a77.148,77.148,0,0,0,11.716-8.574c4.451-3.953,6.859-6.446,8.718-9.128,2.442-3.523,4.376-6.4,3.511-9.54a7.538,7.538,0,0,0-4.495-4.96A6.689,6.689,0,0,0,510.488,385.486Z" transform="translate(-454.257 -352.473)"/>
      </g>
      <g id="Group_1560" data-name="Group 1560" transform="translate(177.389 533.272)">
        <path id="Path_4087" data-name="Path 4087" class="cls-4" d="M210.767,697.919a12.382,12.382,0,0,1,3.471-1.633,6.308,6.308,0,0,0,3.107-2.11,4.023,4.023,0,0,0,.9-3.086,6.228,6.228,0,0,1,.274-3.1,6.8,6.8,0,0,1,1.606-2.806,4.342,4.342,0,0,0,1.211-2.992,4.818,4.818,0,0,0-1-3.17,6.954,6.954,0,0,1-1.3-3.081,5.489,5.489,0,0,1,.27-3.121,4.415,4.415,0,0,0,.011-3.179,6.376,6.376,0,0,0-2.021-2.958,8.714,8.714,0,0,1-2.23-2.827,8.718,8.718,0,0,1-2.878,2.165,6.382,6.382,0,0,0-2.708,2.344,4.443,4.443,0,0,0-.8,3.078,5.481,5.481,0,0,1-.534,3.087,6.957,6.957,0,0,1-2.042,2.647,4.8,4.8,0,0,0-1.776,2.81,4.353,4.353,0,0,0,.406,3.2,6.8,6.8,0,0,1,.835,3.121,6.181,6.181,0,0,1-.525,3.067,4.046,4.046,0,0,0,.08,3.213,6.325,6.325,0,0,0,2.466,2.833,12.369,12.369,0,0,1,2.942,2.465Z" transform="translate(-204.182 -663.856)"/>
        <path id="Path_4088" data-name="Path 4088" class="cls-19" d="M211.257,696.475a6.793,6.793,0,0,1-.106-3.231,4.344,4.344,0,0,0-.541-3.183,4.826,4.826,0,0,0-2.516-2.172,7.079,7.079,0,0,1-2.364-1.551,4.53,4.53,0,0,0-1.409,2.473,4.353,4.353,0,0,0,.406,3.2,6.8,6.8,0,0,1,.835,3.121,6.182,6.182,0,0,1-.525,3.067,4.046,4.046,0,0,0,.08,3.213,6.324,6.324,0,0,0,2.466,2.833,12.367,12.367,0,0,1,2.942,2.465l.242.031c.3-.2.572-.365.834-.516.123-.15.246-.3.371-.447a6.307,6.307,0,0,0,1.536-3.427,4.024,4.024,0,0,0-.857-3.1A6.231,6.231,0,0,1,211.257,696.475Z" transform="translate(-204.182 -672.68)"/>
        <line id="Line_47" data-name="Line 47" class="cls-20" x1="4.542" y2="35.026" transform="translate(6.092 1.882)"/>
        <path id="Path_4089" data-name="Path 4089" class="cls-20" d="M209.359,707.043l3.866,3.59,4.654-2.486" transform="translate(-206.214 -680.806)"/>
        <path id="Path_4090" data-name="Path 4090" class="cls-20" d="M206.353,693.694l6.435,5.977,7.745-4.138" transform="translate(-205.034 -675.567)"/>
        <path id="Path_4091" data-name="Path 4091" class="cls-20" d="M210.539,685.007l4.776,4.436,5.749-3.071" transform="translate(-206.677 -672.158)"/>
        <path id="Path_4092" data-name="Path 4092" class="cls-20" d="M213.559,675.5l3.807,3.535,4.582-2.448" transform="translate(-207.863 -668.427)"/>
        <path id="Path_4093" data-name="Path 4093" class="cls-20" d="M217.653,669.44l2.013,1.87,2.424-1.295" transform="translate(-209.47 -666.048)"/>
      </g>
      <g id="Group_1561" data-name="Group 1561" transform="translate(165.744 536.021)">
        <path id="Path_4094" data-name="Path 4094" class="cls-21" d="M196.344,702.246a12.361,12.361,0,0,1,2.857-2.56,6.3,6.3,0,0,0,2.371-2.913,4.019,4.019,0,0,0-.026-3.213,6.219,6.219,0,0,1-.626-3.048,6.8,6.8,0,0,1,.733-3.148,4.341,4.341,0,0,0,.3-3.214,4.816,4.816,0,0,0-1.869-2.75,6.954,6.954,0,0,1-2.129-2.578,5.5,5.5,0,0,1-.637-3.068,4.418,4.418,0,0,0-.9-3.049,6.376,6.376,0,0,0-2.785-2.254,8.709,8.709,0,0,1-2.946-2.069,8.734,8.734,0,0,1-2.137,2.9,6.382,6.382,0,0,0-1.922,3.022,4.438,4.438,0,0,0,.114,3.178,5.478,5.478,0,0,1,.373,3.11,6.946,6.946,0,0,1-1.2,3.121,4.8,4.8,0,0,0-.895,3.2,4.348,4.348,0,0,0,1.308,2.951,6.8,6.8,0,0,1,1.695,2.751,6.174,6.174,0,0,1,.377,3.089,4.044,4.044,0,0,0,1,3.055,6.328,6.328,0,0,0,3.174,2.007,12.371,12.371,0,0,1,3.525,1.517Z" transform="translate(-185.013 -668.382)"/>
        <line id="Line_48" data-name="Line 48" class="cls-22" x2="5.694" y2="34.858" transform="translate(5.982 1.873)"/>
        <path id="Path_4095" data-name="Path 4095" class="cls-22" d="M194.545,712.511l4.734,2.331,3.745-3.717" transform="translate(-188.754 -685.158)"/>
        <path id="Path_4096" data-name="Path 4096" class="cls-22" d="M187.837,699.992l7.879,3.881,6.233-6.185" transform="translate(-186.121 -679.884)"/>
        <path id="Path_4097" data-name="Path 4097" class="cls-22" d="M189.356,690.852l5.847,2.88,4.627-4.591" transform="translate(-186.717 -676.53)"/>
        <path id="Path_4098" data-name="Path 4098" class="cls-22" d="M189.524,681.1l4.66,2.294,3.688-3.659" transform="translate(-186.783 -672.84)"/>
        <path id="Path_4099" data-name="Path 4099" class="cls-22" d="M191.707,674.538l2.465,1.215,1.95-1.935" transform="translate(-187.64 -670.516)"/>
      </g>
      <g id="Group_1565" data-name="Group 1565" transform="translate(537.589 496.043)">
        <g id="Group_1564" data-name="Group 1564" transform="translate(0 0)">
          <g id="Group_1563" data-name="Group 1563">
            <g id="Group_1562" data-name="Group 1562">
              <path id="Path_4100" data-name="Path 4100" class="cls-11" d="M850.622,609.435l4.16-.976-2.059-8.784-4.161.976a24.622,24.622,0,0,0-5.984-8.328l2.252-3.636-7.668-4.756-2.253,3.637a24.644,24.644,0,0,0-7.893-1.663c-.708-.033-1.427-.033-2.145,0-.026,0-.058.005-.086.005l-.971-4.166-8.784,2.059.977,4.167a24.6,24.6,0,0,0-8.334,5.984l-3.636-2.252-4.751,7.663,3.631,2.252a24.635,24.635,0,0,0-1.657,10.125l-4.161.976,2.058,8.784,4.162-.977a24.577,24.577,0,0,0,5.984,8.334l-2.252,3.631,7.663,4.756,2.259-3.636a24.485,24.485,0,0,0,10.124,1.657l.976,4.165,8.779-2.058-.977-4.162a25.236,25.236,0,0,0,2.462-1.244,24.64,24.64,0,0,0,5.872-4.741l3.635,2.252,4.752-7.668-3.631-2.253A24.67,24.67,0,0,0,850.622,609.435Zm-15.531,16.94a18.245,18.245,0,1,1-10.221-34,16.857,16.857,0,0,1,2.145-.005,18.25,18.25,0,0,1,8.075,34Z" transform="translate(-797.098 -581.743)"/>
            </g>
          </g>
        </g>
      </g>
      <g id="Group_1573" data-name="Group 1573" transform="translate(282.367 437.268)">
        <path id="Path_4101" data-name="Path 4101" class="cls-10" d="M409.683,734.565l-3,.344a10.345,10.345,0,0,1,0,1.411c-.109,1.378-7.2.864-7.2,3.512,0,1.439,4.264,1.485,5.563,1.485,5.791,0,6.881-1.93,6.881-2.473a5.135,5.135,0,0,0-1.519-3.409C409.87,734.775,409.683,734.565,409.683,734.565Z" transform="translate(-385.812 -595.605)"/>
        <path id="Path_4102" data-name="Path 4102" class="cls-10" d="M460.289,727.6l-3,.344a10.359,10.359,0,0,1,0,1.411c-.109,1.378-7.582,3.161-7.582,5.811,0,1.438,6.723.179,7.975-.167,4.111-1.131,4.852-2.577,4.852-3.12a5.133,5.133,0,0,0-1.52-3.409C460.476,727.81,460.289,727.6,460.289,727.6Z" transform="translate(-405.525 -592.871)"/>
        <path id="Path_4103" data-name="Path 4103" class="cls-23" d="M377.887,675.223c-2.3,3.744,2.559,10.19,13.809,27.58,2.658,4.109,4.8,7.48,6.167,9.641.635-.112,1.319-.21,2.047-.282.849-.085,1.648-.124,2.385-.133-1.758-5.046-8.593-24.374-14.4-33.563-1.951-3.087-4.1-5.519-6.5-5.389A4.667,4.667,0,0,0,377.887,675.223Z" transform="translate(-377.12 -571.469)"/>
        <g id="Group_1566" data-name="Group 1566" transform="translate(24.762 97.477)">
          <path id="Path_4104" data-name="Path 4104" class="cls-23" d="M420.078,670.305c-1.106.406-2.429-1.3-2.33.043.34,4.591,11.5,16.219,15.48,21,2.914,3.5,8.442,10.02,11.728,14.105a7.49,7.49,0,0,0,1.949-.514c.593-.237,1.311-.27,1.657-.826-3.406-9.413-13.233-25.982-17.927-32.1-4.1-5.344-4.53-5.426-7.464-5.715S421.841,669.66,420.078,670.305Z" transform="translate(-417.743 -666.28)"/>
        </g>
        <path id="Path_4105" data-name="Path 4105" class="cls-23" d="M429.717,633.207c-11.738,4.719-43.963,17.945-50.229,24.576-.829.878-3.057,3.235-2.378,4.81s3.985,1.61,5.806,1.623a25.274,25.274,0,0,0,9.264-1.671c13.411-5.729,34.164-5.816,41.816-16.4a8.024,8.024,0,0,0,1.866-5.471C435.508,636.43,430.879,633.823,429.717,633.207Z" transform="translate(-376.984 -555.822)"/>
        <path id="Path_4106" data-name="Path 4106" class="cls-9" d="M422.616,546.2c.38-3.742.905-7.658,1.614-11.724q.428-2.46.912-4.813l0-.018c.008-.035.029-.112.051-.211a7.437,7.437,0,0,0,.138-.8,8.254,8.254,0,0,0-.481-3.78,15.7,15.7,0,0,0-2.664-1.964c-.9-.526-1.43-.707-1.959-.567a2.694,2.694,0,0,0-.962.552c-.359.3-.655.491-.677.813a.808.808,0,0,0,.171.507c.239.362.542.42,1.121.727.62.329.93.493,1.1.828.19.382.187.957-.065,1.11-.385.234-1.027-.706-1.783-.476a.88.88,0,0,0-.527.434c-.171.434.4.872,1.492,2.279a5.451,5.451,0,0,1,.863,1.3,3.634,3.634,0,0,1,.112,2.01,71.107,71.107,0,0,1-2.353,9.659q-.384,1.563-.768,3.126a2.473,2.473,0,0,0,.14,1.826,2.675,2.675,0,0,0,3.742.786A2.383,2.383,0,0,0,422.616,546.2Z" transform="translate(-393.019 -512.283)"/>
        <path id="Path_4107" data-name="Path 4107" class="cls-9" d="M438.25,569.6a6.745,6.745,0,0,0-.889-1.6,7.783,7.783,0,0,0-2.775-2.178c-1.551-.678-4.09-.159-9.1.909l-3.182.678q-1.165-2.2-2.327-4.49-1.128-2.228-2.183-4.409a25.361,25.361,0,0,1-6.41,2.268q.84,3.145,1.609,6.472.357,1.549.681,3.069c-1.249.666-2.312,1.236-3.129,1.675-5.992,3.219-6.233,4.062-6.276,4.51-.187,1.975,3.669,3.841,4.595,4.271a7.894,7.894,0,0,1,3.471,2.625,8.655,8.655,0,0,1,1.16,7.218,44.346,44.346,0,0,1,7.549,19.137,29.593,29.593,0,0,0,20.734-6.595,52.682,52.682,0,0,1-5.336-21.015c-2.259-3.6-2.6-7.655-.734-10.356A6.843,6.843,0,0,1,438.25,569.6Z" transform="translate(-387.689 -526.507)"/>
        <path id="Path_4108" data-name="Path 4108" class="cls-24" d="M435.788,570.389c-1.508-.562-4.059-.165-9.1.909l-3.182.678a30.4,30.4,0,0,0-8.63,2.91c-1.541.793-1.33.771-3.129,1.675-2.583,1.3-2.985,1.251-3.545,1.96a5.522,5.522,0,0,0-.87,3.683,10.415,10.415,0,0,0,1.081,4.383c1.587,3.255,2.826,6.676,4.488,9.894,3.588,6.945,5.762,11.257,6.075,16.934a25.444,25.444,0,0,1-.171,4.648,64.326,64.326,0,0,0,28.27-4.741c-.956-5.6-1.815-10.167-2.432-13.347-1.538-7.914-1.711-7.918-2.126-11.087-.756-5.771-.374-7.235-1.595-10.783C439.781,574.792,438.63,571.446,435.788,570.389Z" transform="translate(-388.892 -531.067)"/>
        <path id="Path_4109" data-name="Path 4109" class="cls-9" d="M415.106,531.572c-1.35-3.411-2.025-5.117-2.246-5.467-2.346-3.723-8.462-6.3-13.58-4.762-7.527,2.261-9.158,12.3-8.546,17.746.232,2.062,1.3,3.987,3.231,7.868,1.389,2.8,2.43,4.33,4.124,4.788a4.715,4.715,0,0,0,2.311-.045c4.742-.954,7.113-1.431,8.97-2.192,4.52-1.854,6.784-2.78,7.752-4.807s.557-4.176,0-7.058A33.961,33.961,0,0,0,415.106,531.572Z" transform="translate(-382.335 -511.739)"/>
        <path id="Path_4110" data-name="Path 4110" class="cls-15" d="M411.413,556.131a5.289,5.289,0,0,0,3.881.333,5.345,5.345,0,0,0,3.188-2.858Z" transform="translate(-390.497 -524.58)"/>
        <path id="Path_4111" data-name="Path 4111" class="cls-9" d="M431.983,532.58a3.611,3.611,0,0,0-1.077-1.458c-.349-.27-.9-.7-1.31-.542-.725.276-.834,2.32-.261,3.917.565,1.574,1.86,2.9,2.408,2.7a.925.925,0,0,0,.34-.307,1.491,1.491,0,0,0,.256-.9A7.65,7.65,0,0,0,431.983,532.58Z" transform="translate(-397.388 -515.529)"/>
        <path id="Path_4112" data-name="Path 4112" class="cls-9" d="M390.581,547.957a3.622,3.622,0,0,1-.084-1.811c.1-.43.259-1.109.675-1.247.738-.243,2.111,1.274,2.674,2.875.554,1.578.386,3.424-.165,3.615a.919.919,0,0,1-.457-.024,1.5,1.5,0,0,1-.764-.534A7.658,7.658,0,0,1,390.581,547.957Z" transform="translate(-382.256 -521.152)"/>
        <path id="Path_4113" data-name="Path 4113" class="cls-15" d="M414.59,550.745c-.306.115-.6.206-.864.279a1.589,1.589,0,0,0,1.819-.7A9.492,9.492,0,0,1,414.59,550.745Z" transform="translate(-391.405 -523.292)"/>
        <g id="Group_1569" data-name="Group 1569" transform="translate(14.859 23.216)">
          <path id="Path_4114" data-name="Path 4114" class="cls-7" d="M401.464,545.532c.149.4,1.074.533,1.751.36.845-.216,1.64-1,1.474-1.428-.194-.5-1.768-.669-2.708.139C401.89,544.681,401.328,545.165,401.464,545.532Z" transform="translate(-401.443 -544.041)"/>
          <g id="Group_1568" data-name="Group 1568">
            <g id="Group_1567" data-name="Group 1567" class="cls-25">
              <circle id="Ellipse_205" data-name="Ellipse 205" class="cls-14" cx="0.809" cy="0.809" r="0.809" transform="translate(0.76 -0.037)"/>
            </g>
          </g>
        </g>
        <g id="Group_1572" data-name="Group 1572" transform="translate(24.815 19.622)">
          <path id="Path_4116" data-name="Path 4116" class="cls-7" d="M417.87,539.884c.194.378,1.129.4,1.782.151.813-.314,1.511-1.185,1.3-1.592-.252-.478-1.834-.456-2.672.457C418.193,538.99,417.692,539.536,417.87,539.884Z" transform="translate(-417.832 -538.13)"/>
          <g id="Group_1571" data-name="Group 1571" transform="translate(0.004)">
            <g id="Group_1570" data-name="Group 1570" class="cls-26">
              <circle id="Ellipse_206" data-name="Ellipse 206" class="cls-14" cx="0.809" cy="0.809" r="0.809" transform="translate(0.676 0.051)"/>
            </g>
          </g>
        </g>
        <path id="Path_4118" data-name="Path 4118" class="cls-27" d="M421.023,516.811a3.66,3.66,0,0,0-3.148-3.909,1.273,1.273,0,0,0-.436-.259,1.472,1.472,0,0,0-.8-.919,2.66,2.66,0,0,0-2.378-2.179,3.363,3.363,0,0,0-1.674-.134c-.03-.08-.064-.155-.1-.23-.138-.417-.636-.993-1.2-.807-.021,0-.044.008-.065.012.428-1.3-.785-1.711-1.813-1.7a1.471,1.471,0,0,0-.981-.7,1.03,1.03,0,0,0-1.1-.012,2.457,2.457,0,0,0-1,.447,2.578,2.578,0,0,0-2.221.191,1.886,1.886,0,0,0-2.45.212,1.932,1.932,0,0,0-3.079.256c-.431-.385-1.52-.476-1.479.465-2.2-.414-3.08.915-3.158,2.019-.671-.24-2.378.246-2.393,1.03-.45-.439-1.948.632-1.486,1.6a2.179,2.179,0,0,0-.333.037.843.843,0,0,0-.37.1c-1.066.367-1.88,1.432-1.414,2.336a2.117,2.117,0,0,0-.261.428c-.562.41-1.106,1.218-.484,1.768-1.439.279-1.195,1.872-.791,2.757-.015.03-.028.061-.042.092A2.2,2.2,0,0,0,385,523.395c-.6.264-.519,1.725,0,2.44a4.239,4.239,0,0,0-.114.843c-.4.865.111,2.167.7,3.085a1.344,1.344,0,0,0,.281,1.51,1.432,1.432,0,0,0,1.1,2.13,3.7,3.7,0,0,0,2.352,3.736c.3.68.888,1.286,1.351,1.159a2.224,2.224,0,0,0,2.8,2.27,3.41,3.41,0,0,0,.838.244c.358.856,1.107,1.739,2.191,1.16a.749.749,0,0,0,.257.73c.241.617,1.081.834,1.827.824a1.468,1.468,0,0,0,.982.7,1.03,1.03,0,0,0,1.1.012,2.459,2.459,0,0,0,1-.447c.254,1.046,2.093.931,2.164.307.506.6,2.137-.1,2.507-.711.757.808,2.277,1.285,3.724-.425.561.757,1.349,0,1.44-.572a1.932,1.932,0,0,0,2.551-1.744,1.885,1.885,0,0,0,2.035-1.381,2.579,2.579,0,0,0,1.844-1.252,2.276,2.276,0,0,0,.334-.037.845.845,0,0,0,.369-.1c1.066-.367,1.88-1.431,1.414-2.335a2.069,2.069,0,0,0,.285-.48,1,1,0,0,0-.061-1.531c.922-.379.866-1.2.564-1.972a3.538,3.538,0,0,0,.473-.529c2.126-.7,1.873-3.329.755-4.357a1.315,1.315,0,0,0,.7-1.612,4.106,4.106,0,0,0,.315-2.185,3.253,3.253,0,0,0-.642-2.474,1.345,1.345,0,0,0-.306-1.458A1.432,1.432,0,0,0,421.023,516.811Z" transform="translate(-379.899 -505.826)"/>
      </g>
      <g id="Group_1574" data-name="Group 1574" transform="translate(141.526 478.027)">
        <path id="Path_4119" data-name="Path 4119" class="cls-8" d="M163.011,578.524a1.5,1.5,0,0,0-1.352.419l-6.012,6-5.129-1.34-1.078,6.182,1.078.293-4.77,3.363,5.087,5.335,26.9,9.139L164.126,579.4A1.53,1.53,0,0,0,163.011,578.524Z" transform="translate(-145.383 -575.108)"/>
        <path id="Path_4120" data-name="Path 4120" class="cls-5" d="M163.89,573.823a1.53,1.53,0,0,0-1.115-.876,1.5,1.5,0,0,0-1.352.419l-15.831,15.824a1.529,1.529,0,0,0-.419,1.354,1.511,1.511,0,0,0,.877,1.115L177.5,605.729a.346.346,0,0,0,.457-.458Z" transform="translate(-145.148 -572.919)"/>
        <path id="Path_4121" data-name="Path 4121" class="cls-8" d="M158.729,583.538l-5.129,2.048v3.087l21,14.807a.176.176,0,0,0,.251-.245Z" transform="translate(-148.465 -577.087)"/>
      </g>
      <g id="Group_1575" data-name="Group 1575" transform="translate(142.188 458.09)">
        <path id="Path_4122" data-name="Path 4122" class="cls-5" d="M149.733,586.285s-.077-.125-.191-.316-.246-.443-.369-.706a9.553,9.553,0,0,1-.423-1.084.842.842,0,0,0-1.607.5l0,.012a11.4,11.4,0,0,0,.5,1.284c.143.312.3.618.435.843l.219.364,0,0a.847.847,0,1,0,1.447-.88Z" transform="translate(-146.578 -557.17)"/>
        <path id="Path_4123" data-name="Path 4123" class="cls-5" d="M147.529,572.6a.827.827,0,0,0-.974.648l0,.007s-.132.653-.208,1.316c-.039.332-.069.665-.084.916l-.021.414v0a.833.833,0,1,0,1.663.076v-.014s.007-.151.017-.379.037-.524.072-.824c.066-.6.184-1.193.184-1.193A.825.825,0,0,0,147.529,572.6Z" transform="translate(-146.239 -552.851)"/>
        <path id="Path_4124" data-name="Path 4124" class="cls-5" d="M151.16,562.326a.813.813,0,0,0-1.109.3l0,0s-.325.57-.615,1.16l-.388.817-.165.374v0a.818.818,0,1,0,1.5.654l0-.009.154-.354.357-.762c.269-.551.571-1.087.571-1.087A.809.809,0,0,0,151.16,562.326Z" transform="translate(-147.248 -548.783)"/>
        <path id="Path_4125" data-name="Path 4125" class="cls-5" d="M156.51,553.593s-.457.467-.891.957c-.213.248-.426.5-.586.682l-.258.314,0,0a.8.8,0,0,0,1.248,1.014l0-.006.244-.3.55-.645c.406-.463.836-.9.836-.9a.8.8,0,1,0-1.145-1.114Z" transform="translate(-149.517 -545.302)"/>
        <path id="Path_4126" data-name="Path 4126" class="cls-5" d="M165.1,546.541s-.56.339-1.1.706-1.063.756-1.063.756l-.007.006,0,0a.79.79,0,0,0,.954,1.259s.491-.374,1-.721,1.035-.671,1.035-.671a.784.784,0,1,0-.819-1.338Z" transform="translate(-152.665 -542.584)"/>
        <path id="Path_4127" data-name="Path 4127" class="cls-5" d="M175.252,541.928s-.627.187-1.244.405l-.843.315-.377.15-.011.006a.775.775,0,1,0,.6,1.431s.569-.236,1.152-.444,1.171-.387,1.171-.387a.77.77,0,1,0-.445-1.475Z" transform="translate(-156.468 -540.806)"/>
        <path id="Path_4128" data-name="Path 4128" class="cls-5" d="M186.338,540.1s-.652.021-1.3.076-1.3.137-1.3.137l-.009,0h0a.761.761,0,0,0,.207,1.508s.612-.084,1.229-.136,1.232-.077,1.232-.077a.756.756,0,1,0-.057-1.51Z" transform="translate(-160.695 -540.102)"/>
        <path id="Path_4129" data-name="Path 4129" class="cls-5" d="M197.625,540.8s-.637-.129-1.281-.23-1.288-.176-1.288-.176h-.01a.746.746,0,1,0-.161,1.483s.615.068,1.23.164,1.221.213,1.221.213a.741.741,0,1,0,.289-1.454Z" transform="translate(-165.07 -540.213)"/>
        <path id="Path_4130" data-name="Path 4130" class="cls-5" d="M208.479,543.766l-2.385-.874h0a.73.73,0,1,0-.493,1.374l2.392.857a.721.721,0,0,0,.491-1.356Z" transform="translate(-169.346 -541.18)"/>
        <path id="Path_4131" data-name="Path 4131" class="cls-5" d="M218.7,548.506l-2.225-1.228,0,0a.705.705,0,0,0-.672,1.24l2.234,1.21a.7.7,0,0,0,.667-1.22Z" transform="translate(-173.396 -542.885)"/>
        <path id="Path_4132" data-name="Path 4132" class="cls-5" d="M226.093,553.142l0,0a.681.681,0,0,0-.809,1.095l2.043,1.51a.671.671,0,0,0,.8-1.076Z" transform="translate(-177.154 -545.167)"/>
        <path id="Path_4133" data-name="Path 4133" class="cls-5" d="M234.809,560.267l0,0a.656.656,0,0,0-.914.94l1.822,1.771a.646.646,0,0,0,.9-.923Z" transform="translate(-180.564 -547.942)"/>
        <path id="Path_4134" data-name="Path 4134" class="cls-5" d="M242.492,568.491l0,0a.631.631,0,0,0-.993.777l1.565,2a.621.621,0,0,0,.982-.761Z" transform="translate(-183.574 -551.148)"/>
        <path id="Path_4135" data-name="Path 4135" class="cls-5" d="M248.978,577.687l0,0a.606.606,0,0,0-1.05.6l1.266,2.2a.6.6,0,0,0,1.036-.59Z" transform="translate(-186.119 -554.733)"/>
        <path id="Path_4136" data-name="Path 4136" class="cls-5" d="M254.067,587.726l0,0a.581.581,0,1,0-1.084.417l.914,2.371a.571.571,0,0,0,1.068-.407Z" transform="translate(-188.119 -558.647)"/>
        <path id="Path_4137" data-name="Path 4137" class="cls-5" d="M257.512,598.418v0a.556.556,0,0,0-1.086.238l0,.015s.134.612.269,1.224l.228,1.231,0,.01a.547.547,0,0,0,1.077-.187s-.1-.637-.226-1.269S257.512,598.418,257.512,598.418Z" transform="translate(-189.481 -562.818)"/>
        <path id="Path_4138" data-name="Path 4138" class="cls-5" d="M259.076,609.566v-.009a.531.531,0,0,0-1.061.058s.035.626.045,1.253,0,1.252,0,1.252a.522.522,0,0,0,1.044.021s.017-.643.009-1.289S259.076,609.566,259.076,609.566Z" transform="translate(-190.11 -567.166)"/>
        <path id="Path_4139" data-name="Path 4139" class="cls-5" d="M257.85,620.226a.507.507,0,0,0-.569.435s-.084.62-.193,1.237-.236,1.231-.236,1.231a.5.5,0,0,0,.971.208s.138-.629.252-1.264.207-1.271.207-1.271V620.8A.508.508,0,0,0,257.85,620.226Z" transform="translate(-189.65 -571.549)"/>
        <path id="Path_4140" data-name="Path 4140" class="cls-5" d="M255.068,631.121a.481.481,0,0,0-.609.3s-.2.6-.421,1.183-.46,1.168-.46,1.168a.472.472,0,0,0,.872.365s.252-.592.481-1.193.439-1.209.439-1.209l0-.007A.481.481,0,0,0,255.068,631.121Z" transform="translate(-188.355 -575.817)"/>
        <path id="Path_4141" data-name="Path 4141" class="cls-5" d="M250.393,641.386a.457.457,0,0,0-.625.162l-1.285,2.191a.447.447,0,0,0,.77.455l1.3-2.182,0,0A.455.455,0,0,0,250.393,641.386Z" transform="translate(-186.345 -579.831)"/>
        <path id="Path_4142" data-name="Path 4142" class="cls-5" d="M243.605,650.887l-1.556,2.01a.425.425,0,0,0,.669.523l1.569-2,0,0a.433.433,0,1,0-.685-.531Z" transform="translate(-183.809 -583.518)"/>
        <path id="Path_4143" data-name="Path 4143" class="cls-5" d="M235.935,659.144l0,0-.3.248c-.18.144-.425.331-.677.5a9.022,9.022,0,0,1-1.041.622.4.4,0,0,0,.356.722,9.99,9.99,0,0,0,1.144-.673c.273-.186.535-.383.727-.535l.315-.256,0,0a.41.41,0,0,0-.522-.634Z" transform="translate(-180.563 -586.789)"/>
        <path id="Path_4144" data-name="Path 4144" class="cls-5" d="M226.7,659.975c-.054-.044-.109-.09-.191-.167a4.317,4.317,0,0,1-.525-.6,6.416,6.416,0,0,1-.6-1.036.379.379,0,0,0-.694.306l.005.012a7.12,7.12,0,0,0,.665,1.166,4.988,4.988,0,0,0,.616.716c.091.086.187.169.24.212l.085.069,0,0a.388.388,0,0,0,.481-.609Z" transform="translate(-177.02 -586.354)"/>
        <path id="Path_4145" data-name="Path 4145" class="cls-5" d="M223.443,647.42a.357.357,0,1,0-.713.007s0,.647.041,1.3.109,1.292.109,1.292v.007a.365.365,0,0,0,.725-.089s-.077-.624-.114-1.254S223.443,647.42,223.443,647.42Z" transform="translate(-176.261 -582.085)"/>
        <path id="Path_4146" data-name="Path 4146" class="cls-5" d="M224.016,636.041a.335.335,0,0,0-.4.256s-.136.629-.244,1.261-.194,1.269-.194,1.269v.006a.342.342,0,1,0,.679.084s.077-.625.182-1.245.231-1.236.231-1.236A.335.335,0,0,0,224.016,636.041Z" transform="translate(-176.437 -577.755)"/>
        <path id="Path_4147" data-name="Path 4147" class="cls-5" d="M227.352,625.6a.311.311,0,0,0-.421.129s-.306.571-.567,1.162-.493,1.19-.493,1.19l0,0v0a.32.32,0,0,0,.6.222s.217-.589.472-1.161.542-1.126.542-1.126A.313.313,0,0,0,227.352,625.6Z" transform="translate(-177.485 -573.645)"/>
        <path id="Path_4148" data-name="Path 4148" class="cls-5" d="M234.076,617.854a6.635,6.635,0,0,0-1.191.591,7.653,7.653,0,0,0-.738.529l-.311.265v0a.3.3,0,1,0,.389.45l.007,0,.292-.253a7.263,7.263,0,0,1,.677-.493,6.049,6.049,0,0,1,1.079-.542.293.293,0,0,0,.171-.372A.29.29,0,0,0,234.076,617.854Z" transform="translate(-179.794 -570.612)"/>
        <path id="Path_4149" data-name="Path 4149" class="cls-5" d="M244.778,619.261a11.7,11.7,0,0,0-1.1-.689c-.286-.157-.581-.3-.807-.4l-.379-.154h0a.274.274,0,0,0-.2.51l.008,0,.358.142c.213.091.491.222.764.369a11.24,11.24,0,0,1,1.056.652.267.267,0,0,0,.308-.435Z" transform="translate(-183.869 -570.677)"/>
        <path id="Path_4150" data-name="Path 4150" class="cls-5" d="M252.277,625.727c-.406-.5-.84-.969-.84-.969l0,0a.252.252,0,0,0-.371.343s.428.463.83.948.782.984.782.984a.244.244,0,1,0,.391-.293S252.687,626.222,252.277,625.727Z" transform="translate(-187.356 -573.296)"/>
        <path id="Path_4151" data-name="Path 4151" class="cls-5" d="M257.845,633.949l0,0a.231.231,0,1,0-.409.215s.293.557.556,1.13.5,1.156.5,1.156a.223.223,0,1,0,.414-.167s-.234-.6-.5-1.178S257.845,633.949,257.845,633.949Z" transform="translate(-189.871 -576.886)"/>
        <path id="Path_4152" data-name="Path 4152" class="cls-5" d="M261.677,644.47v0a.21.21,0,1,0-.409.1s.145.614.259,1.235.2,1.244.2,1.244a.2.2,0,1,0,.4-.056s-.084-.634-.2-1.264S261.677,644.47,261.677,644.47Z" transform="translate(-191.384 -581)"/>
        <path id="Path_4153" data-name="Path 4153" class="cls-5" d="M262.666,655.4a.189.189,0,0,0-.188.191s0,.631-.017,1.262-.065,1.262-.065,1.262a.182.182,0,0,0,.363.027s.05-.637.073-1.275.026-1.276.026-1.276v0A.191.191,0,0,0,262.666,655.4Z" transform="translate(-191.83 -585.356)"/>
        <path id="Path_4154" data-name="Path 4154" class="cls-5" d="M261.342,666.521a.169.169,0,0,0-.2.136s-.116.622-.255,1.239-.3,1.229-.3,1.229v0a.161.161,0,1,0,.313.077s.153-.619.306-1.237.265-1.247.265-1.247v0A.169.169,0,0,0,261.342,666.521Z" transform="translate(-191.12 -589.72)"/>
        <path id="Path_4155" data-name="Path 4155" class="cls-5" d="M258.091,677.285a.148.148,0,0,0-.193.081l-.955,2.355a.141.141,0,0,0,.077.182.14.14,0,0,0,.183-.077l.97-2.349v0A.148.148,0,0,0,258.091,677.285Z" transform="translate(-189.686 -593.941)"/>
        <path id="Path_4156" data-name="Path 4156" class="cls-5" d="M253,687.466l-1.306,2.18a.119.119,0,1,0,.2.122l1.319-2.172h0a.127.127,0,0,0-.217-.131Z" transform="translate(-187.622 -597.918)"/>
        <path id="Path_4157" data-name="Path 4157" class="cls-5" d="M246.636,696.736l-1.62,1.957a.1.1,0,0,0,.012.137.1.1,0,0,0,.139-.012l1.632-1.947h0a.106.106,0,0,0-.163-.135Z" transform="translate(-184.999 -601.565)"/>
        <path id="Path_4158" data-name="Path 4158" class="cls-5" d="M238.951,704.959l-1.906,1.679a.076.076,0,0,0-.007.108.077.077,0,0,0,.109.008l1.916-1.667h0a.086.086,0,0,0,.007-.121A.085.085,0,0,0,238.951,704.959Z" transform="translate(-181.869 -604.799)"/>
        <path id="Path_4159" data-name="Path 4159" class="cls-5" d="M229.006,712.564c-.539.336-1.089.65-1.089.65a.056.056,0,0,0-.021.076.055.055,0,0,0,.077.021s.554-.312,1.1-.645l1.075-.68,0,0a.064.064,0,1,0-.073-.106Z" transform="translate(-178.285 -607.519)"/>
        <path id="Path_4160" data-name="Path 4160" class="cls-5" d="M219,717.685c-.59.232-1.189.44-1.189.44a.035.035,0,0,0-.022.046.035.035,0,0,0,.045.021s.6-.2,1.2-.435,1.18-.476,1.18-.476h0a.043.043,0,1,0-.035-.08S219.591,717.455,219,717.685Z" transform="translate(-174.32 -609.611)"/>
        <path id="Path_4161" data-name="Path 4161" class="cls-5" d="M208.261,720.874c-.625.114-1.253.2-1.253.2a.014.014,0,0,0-.013.016.015.015,0,0,0,.017.013s.629-.084,1.255-.2,1.248-.241,1.248-.241h0a.023.023,0,0,0-.01-.045S208.886,720.761,208.261,720.874Z" transform="translate(-170.085 -610.956)"/>
        <path id="Path_4162" data-name="Path 4162" class="cls-5" d="M199.208,721.931l.526,0v0Z" transform="translate(-167.029 -611.467)"/>
      </g>
      <g id="Group_1578" data-name="Group 1578" transform="translate(213.027 340.182)">
        <g id="Group_1577" data-name="Group 1577" transform="translate(0)">
          <g id="Group_1576" data-name="Group 1576">
            <path id="Path_4163" data-name="Path 4163" class="cls-13" d="M585.495,590.066c-2.751-.758-5.556-1.446-8.359-2.288l-8.5-2.546c-2.855-.891-5.712-1.882-8.61-2.833-2.906-.923-5.788-2.01-8.7-3.078-5.854-2.061-11.679-4.5-17.589-6.893l-8.811-3.871-2.214-.979-2.19-1.047q-2.191-1.05-4.392-2.1l-4.408-2.106c-1.461-.726-2.9-1.5-4.359-2.245-2.9-1.522-5.837-2.982-8.721-4.562l-8.618-4.828-2.157-1.208-2.119-1.279-4.234-2.559c-5.7-3.325-11.166-7.029-16.686-10.578-2.733-1.82-5.4-3.737-8.087-5.589q-2.01-1.4-4.013-2.8c-1.343-.917-2.62-1.931-3.93-2.888L441.027,518c-1.3-.942-2.541-1.965-3.794-2.958l-3.742-2.98-3.719-2.96c-1.235-.982-2.473-1.953-3.655-2.987q-3.588-3.047-7.119-6.05l-3.514-2.985-3.4-3.063q-3.373-3.054-6.682-6.047c-2.227-1.963-4.33-4.025-6.424-6.041l-6.2-5.968c-8.046-7.974-15.509-15.652-22.143-22.987q-2.511-2.726-4.914-5.336-2.329-2.679-4.547-5.234c-2.948-3.41-5.778-6.61-8.375-9.673l-7.141-8.7-3.171-3.864-1.48-1.8q-.7-.9-1.364-1.755l-11.111-14.334-19.872,15.832,12.25,14.189q.732.847,1.5,1.736l1.628,1.784q1.667,1.828,3.486,3.821l7.845,8.593c2.85,3.024,5.952,6.183,9.182,9.542l4.98,5.152,5.373,5.252c7.252,7.212,15.392,14.75,24.143,22.548l6.737,5.834c2.273,1.968,4.556,3.978,6.972,5.893L400,508.337l3.677,2.977,3.8,2.9,7.688,5.864c1.278,1,2.612,1.939,3.946,2.888l4.005,2.86q2.008,1.432,4.03,2.875c1.35.956,2.683,1.942,4.082,2.847q4.154,2.767,8.346,5.561c1.405.918,2.775,1.889,4.215,2.767l4.3,2.67c2.88,1.77,5.732,3.6,8.653,5.33,5.9,3.373,11.736,6.885,17.8,10.011l4.508,2.405,2.251,1.2,2.291,1.128q4.577,2.258,9.144,4.507c3.055,1.468,6.165,2.818,9.23,4.225,1.539.69,3.064,1.4,4.607,2.071q2.329.968,4.65,1.93l4.63,1.919,2.307.956,2.329.888,9.258,3.5c6.2,2.14,12.3,4.319,18.411,6.117,3.042.935,6.049,1.891,9.074,2.68,3.019.818,5.992,1.674,8.956,2.432l8.819,2.142c2.9.707,5.808,1.259,8.65,1.883,11.4,2.342,22.3,3.834,32.325,5.346,34.347,5.178,44.562,3.317,44.562,3.317S628.868,603.761,585.495,590.066Z" transform="translate(-280.827 -368.097)"/>
            <path id="Path_4164" data-name="Path 4164" class="cls-13" d="M338.571,386.021l-71.492-40-4.235,4.235,71.492,40Z" transform="translate(-262.844 -346.017)"/>
          </g>
        </g>
        <path id="Path_4165" data-name="Path 4165" class="cls-11" d="M642.674,587.546s-12.909-.893-20.984-1.813c-8.083-.852-17.159-2.129-26.988-3.861-9.836-1.683-20.389-4.034-31.424-6.916-2.751-.758-5.556-1.446-8.358-2.287l-8.5-2.546c-2.855-.892-5.712-1.883-8.61-2.833-2.906-.923-5.788-2.01-8.7-3.079-5.854-2.061-11.678-4.5-17.589-6.893l-8.812-3.871-2.213-.979-2.19-1.047q-2.191-1.05-4.392-2.1l-4.409-2.106c-1.46-.726-2.9-1.5-4.359-2.245-2.9-1.522-5.838-2.982-8.721-4.562l-8.618-4.828-2.157-1.207-2.119-1.279-4.235-2.559c-5.7-3.325-11.165-7.029-16.686-10.578-2.733-1.82-5.4-3.737-8.087-5.59q-2.009-1.4-4.013-2.8c-1.344-.916-2.621-1.93-3.931-2.888l-7.768-5.789c-1.3-.941-2.541-1.965-3.794-2.957l-3.742-2.981q-1.866-1.484-3.719-2.96c-1.236-.982-2.473-1.953-3.656-2.987q-3.588-3.046-7.119-6.049l-3.513-2.985-3.4-3.062-6.682-6.048c-2.228-1.963-4.331-4.025-6.424-6.041l-6.2-5.968c-8.046-7.973-15.51-15.652-22.144-22.987l-4.914-5.336-4.547-5.234c-2.948-3.41-5.777-6.61-8.375-9.674l-7.14-8.7-3.171-3.864-1.48-1.8q-.7-.9-1.364-1.755l-4.18-5.392,21.089-3.114-71.492-40,23.025,78.619,7.865-20.166q2.187,2.533,4.961,5.745.731.846,1.5,1.735l1.628,1.784,3.486,3.82,7.845,8.594c2.85,3.024,5.952,6.182,9.182,9.541l4.98,5.153,5.373,5.252c7.252,7.212,15.392,14.75,24.142,22.548q3.325,2.878,6.737,5.834c2.273,1.968,4.557,3.979,6.972,5.894l7.24,5.887,3.677,2.978q1.892,1.442,3.8,2.9l7.689,5.864c1.278,1,2.612,1.939,3.945,2.888s2.666,1.9,4.005,2.86,2.683,1.914,4.03,2.875,2.683,1.942,4.082,2.847L417.356,522c1.405.919,2.775,1.889,4.216,2.768l4.3,2.669c2.881,1.77,5.733,3.6,8.654,5.33,5.9,3.373,11.736,6.884,17.8,10.01l4.508,2.406,2.251,1.2,2.291,1.128q4.578,2.258,9.144,4.506c3.055,1.469,6.165,2.819,9.23,4.225,1.538.69,3.064,1.4,4.607,2.071q2.33.968,4.65,1.931l4.63,1.919,2.308.956,2.329.889,9.258,3.5c6.2,2.14,12.3,4.319,18.411,6.117,3.042.934,6.049,1.891,9.075,2.68,3.019.817,5.991,1.674,8.955,2.432q4.459,1.082,8.819,2.142c2.9.706,5.808,1.259,8.65,1.882,11.4,2.343,22.255,4.164,32.325,5.347,10.063,1.229,19.313,2.035,27.521,2.465,8.2.5,21.251.711,21.251.711Z" transform="translate(-262.844 -348.752)"/>
      </g>
      <g id="Group_1587" data-name="Group 1587" transform="translate(456.377 415.349)">
        <path id="Path_4166" data-name="Path 4166" class="cls-28" d="M678.689,520.544a2.7,2.7,0,0,1-.84-.523,3.008,3.008,0,0,1-.852-1.547c-1.146-4.6-3.307-8.885-4.892-13.352-.441-1.241-1.828-3.915-4.6-9.263,0,0-1.525-2.941-2.913-2.805-.284.028-.514.06-.514.06a1.284,1.284,0,0,0-.66.813c.083.145.21.367.368.64.6,1.049.667,1.134,1,1.724.389.691.394.728.714,1.281.129.222.3.513.512.9.375.683.562,1.027.5,1.14-.208.384-1.391-.231-2.06.379a1,1,0,0,0-.33.7c.049.723,1.4.744,2.638,1.614,1.889,1.326,2.474,3.892,2.864,5.6.1.444.153.772.171.886.37,2.334,1.169,7.1,2.437,14.532a3.735,3.735,0,0,0,2.928,2.345C676.905,525.714,678.926,523.585,678.689,520.544Z" transform="translate(-663.416 -478.893)"/>
        <path id="Path_4167" data-name="Path 4167" class="cls-29" d="M715.527,469.928c.1.01.211.022.372.042,1.866.227,10.6,1.534,15.469,8.8a18.8,18.8,0,0,1,3.086,9.7c.09,5.025-2.251,5.528-1.848,10.365.4,4.808,2.953,7.139,1.417,9.59-.751,1.2-2.1,1.814-2.53,3.816a7.207,7.207,0,0,0-.035,2.421,15.128,15.128,0,0,0,1.216,4.493c1.806,4.327.844,10.05-.851,13.727a17.645,17.645,0,0,1-1.716,2.889c-6.84,8.881-36.276,5.1-38.823-4.028-1.033-3.7,2.9-6.34,1.678-13.82-.419-2.575-1.066-3.374-1.216-6.319-.244-4.756,1.316-5.162,1.367-9.519.068-5.757-2.628-7.266-1.375-11.5.68-2.3,1.522-2.015,2.818-5,2.245-5.174.1-6.894,1.79-10C699.4,470,709.777,469.322,715.527,469.928Z" transform="translate(-674.285 -469.746)"/>
        <path id="Path_4168" data-name="Path 4168" class="cls-30" d="M751.366,737.413q-2.31,1.534-4.87,3.075-1.956,1.173-3.844,2.214l-5.771.643c-1.09-.821-1.251-1.322-1.176-1.635.177-.732,1.709-.649,3.515-1.6a8.472,8.472,0,0,0,2.5-2.03l3.781-3.129a6.231,6.231,0,0,0,1.789.631,4.809,4.809,0,0,0,3.684-.631Z" transform="translate(-691.783 -573.837)"/>
        <path id="Path_4169" data-name="Path 4169" class="cls-28" d="M683,544.3c5.581,1.14,8.859,1.2,10.87.984,0,0,4.322-.454,8.065-.515a11.059,11.059,0,0,0,2.757-.44,4.417,4.417,0,0,0,1.821-.862c.067-.056,1.507-1.3,1.3-2.553-.243-1.449-2.556-2.1-4.372-2.609a19.534,19.534,0,0,0-5.154-.646c-.933-.021-1.675-.023-2.4,0-1.533.038-2.731.134-3.288.183l-.283.026c-1.007.1-3.583.134-9.582,0a3.349,3.349,0,0,0-2.951,2.874A3.392,3.392,0,0,0,683,544.3Z" transform="translate(-669.835 -496.395)"/>
        <path id="Path_4170" data-name="Path 4170" class="cls-31" d="M693.63,545.9a6.317,6.317,0,0,1-1.271-2.324,6.824,6.824,0,0,1-.247-1.434,10.556,10.556,0,0,1,.3-2.815,9.4,9.4,0,0,0-.092-3.253,8.29,8.29,0,0,0,1.5.3,10.075,10.075,0,0,0,2.413-.077c.832-.091,1.632-.112,3.233-.157a31.7,31.7,0,0,1,4.842.253,26.7,26.7,0,0,1,4.065.736,23.754,23.754,0,0,1,4.427,1.682q-.775,3.8-1.548,7.607a37.7,37.7,0,0,0-17.627-.522Z" transform="translate(-674.672 -495.778)"/>
        <path id="Path_4171" data-name="Path 4171" class="cls-32" d="M733.749,644.075c-1.14-5.385-2.014-9.908-2.631-13.22-3.587-19.242-3.887-26.413-3.376-32.987q.2-2.6.538-5.076a22.025,22.025,0,0,0,4.923-.781,21.678,21.678,0,0,0,4.035-1.568,29.484,29.484,0,0,1,4.092,5.453c3.872,6.664,3.926,13.022,3.846,19.614-.129,10.518-.58,19.952-1.162,28.2a5.655,5.655,0,0,1-2.587,3.644,5.527,5.527,0,0,1-4.857.541A4.926,4.926,0,0,1,733.749,644.075Z" transform="translate(-688.588 -517.119)"/>
        <path id="Path_4172" data-name="Path 4172" class="cls-32" d="M747.983,674.956q.71,8.857,1.72,18.147,1.056,9.648,2.343,18.78a10.3,10.3,0,0,1-1.785.9,9.4,9.4,0,0,1-4.3.647L738.085,678" transform="translate(-692.723 -550.29)"/>
        <path id="Path_4173" data-name="Path 4173" class="cls-30" d="M700.179,736.7q-2.564,1.055-5.375,2.068-2.147.77-4.2,1.424l-5.786-.493c-.909-1.017-.97-1.541-.835-1.833.316-.683,1.8-.3,3.76-.886a8.472,8.472,0,0,0,2.847-1.5l4.318-2.333a6.27,6.27,0,0,0,1.632.968,4.813,4.813,0,0,0,3.736.1Z" transform="translate(-671.466 -573.127)"/>
        <path id="Path_4174" data-name="Path 4174" class="cls-32" d="M699.253,642.732c.5-5.482,1-10.062,1.381-13.408,2.243-19.444,4.069-26.385,6.495-32.517q.959-2.425,2.01-4.692a22.046,22.046,0,0,0,4.934.7,21.68,21.68,0,0,0,4.318-.309,29.508,29.508,0,0,1,2.3,6.417c1.736,7.508-.086,13.6-2.106,19.876-3.222,10.012-6.433,18.9-9.419,26.6a5.657,5.657,0,0,1-3.547,2.72,5.53,5.53,0,0,1-4.8-.915A4.925,4.925,0,0,1,699.253,642.732Z" transform="translate(-677.457 -517.775)"/>
        <path id="Path_4175" data-name="Path 4175" class="cls-32" d="M709.777,671.991q-.075,1.6-.191,3.237a130.814,130.814,0,0,1-1.92,14.85q-.68,9.439-1.359,18.877a10.3,10.3,0,0,1-1.926.535,9.392,9.392,0,0,1-4.346-.2q-.413-18.141-.826-36.284a6.15,6.15,0,0,1,1.95-4.011c2.275-1.963,6.319-1.95,7.9.143A4.235,4.235,0,0,1,709.777,671.991Z" transform="translate(-677.465 -547.38)"/>
        <path id="Path_4176" data-name="Path 4176" class="cls-28" d="M725.24,536.918c.389-.016.8-.058,1.38-.052,1.813.018,4.3.043,5.672,1.623a4.17,4.17,0,0,1,.952,2.333,12.215,12.215,0,0,1,.667,3.285,12.437,12.437,0,0,1-.19,3c-.372,2.186-.81,5.013-1.349,8.487a52.154,52.154,0,0,0-1.9,11.221c-.024.651-.16,4.779-.16,4.779v0a18.973,18.973,0,0,1-15.221.151q-.244-2.381-.578-4.857c-.567-4.18-1.281-8.137-2.09-11.858a33.617,33.617,0,0,1-.872-10.4c.348-4.578,1.44-5.7,2.195-6.156a12.957,12.957,0,0,1,2.845-1.016l.038-.009a4.133,4.133,0,0,1,1.535-.1Q721.634,537.069,725.24,536.918Z" transform="translate(-682.272 -496.09)"/>
        <path id="Path_4177" data-name="Path 4177" class="cls-28" d="M719.377,531.808a26.224,26.224,0,0,0,.71-9.61,24.278,24.278,0,0,0,6.51-.067l.6,9.284Z" transform="translate(-685.38 -490.307)"/>
        <path id="Path_4178" data-name="Path 4178" class="cls-28" d="M701.054,491.748a16.911,16.911,0,0,0,3.033,11.051,15.478,15.478,0,0,0,7.116,5.589,15.709,15.709,0,0,0,16.434-4.412,13.962,13.962,0,0,0,2.292-3.556,2.256,2.256,0,0,0,1.143-.19,2.563,2.563,0,0,0,1.079-1.079,9.849,9.849,0,0,0,1.587-3.364c.293-1.286.507-2.223-.044-2.837a2.214,2.214,0,0,0-1.8-.511,3.083,3.083,0,0,0-2.094,1.19,35.112,35.112,0,0,0-.333-6c-.5-3.5-.8-5.646-2.285-7.6-2.2-2.9-5.612-3.624-7.224-3.938a16.3,16.3,0,0,0-12.236,2.545C701.2,483.249,701.054,490.992,701.054,491.748Z" transform="translate(-678.169 -472.126)"/>
        <path id="Path_4179" data-name="Path 4179" class="cls-15" d="M711.054,519.517a3.888,3.888,0,0,0,1.632,1.386c1.655.711,3.808.1,5.433-1.554Z" transform="translate(-682.114 -489.215)"/>
        <path id="Path_4180" data-name="Path 4180" class="cls-15" d="M712.945,514.954c-.372,0-.745,0-1.088-.034a1.954,1.954,0,0,0,1.3.373,1.923,1.923,0,0,0,1.043-.421A11.374,11.374,0,0,1,712.945,514.954Z" transform="translate(-682.429 -487.458)"/>
        <path id="Path_4181" data-name="Path 4181" class="cls-7" d="M719.847,506.054c.067.5,1.118.909,1.953.883,1.047-.026,2.183-.745,2.1-1.278-.093-.641-1.889-1.252-3.2-.555C720.57,505.171,719.784,505.607,719.847,506.054Z" transform="translate(-685.563 -483.503)"/>
        <g id="Group_1581" data-name="Group 1581" transform="translate(34.279 21.291)">
          <g id="Group_1580" data-name="Group 1580" class="cls-33">
            <g id="Group_1579" data-name="Group 1579" transform="translate(0.455 0.124)">
              <ellipse id="Ellipse_207" data-name="Ellipse 207" class="cls-17" cx="0.745" cy="0.887" rx="0.745" ry="0.887"/>
            </g>
          </g>
        </g>
        <path id="Path_4183" data-name="Path 4183" class="cls-7" d="M705.905,506.487a1.145,1.145,0,0,0,.835,1,1.3,1.3,0,0,0,1.427-1.289c-.131-.574-1.278-.768-1.747-.634a.7.7,0,0,0-.2.093A1.023,1.023,0,0,0,705.905,506.487Z" transform="translate(-680.091 -483.787)"/>
        <g id="Group_1584" data-name="Group 1584" transform="translate(25.676 21.715)">
          <g id="Group_1583" data-name="Group 1583" class="cls-34">
            <g id="Group_1582" data-name="Group 1582" transform="translate(0.317 -0.069)">
              <ellipse id="Ellipse_208" data-name="Ellipse 208" class="cls-17" cx="0.585" cy="0.857" rx="0.585" ry="0.857"/>
            </g>
          </g>
        </g>
        <g id="Group_1585" data-name="Group 1585" transform="translate(33.762 24.143)">
          <circle id="Ellipse_209" data-name="Ellipse 209" class="cls-15" cx="0.376" cy="0.376" r="0.376" transform="translate(0 0.667)"/>
          <circle id="Ellipse_210" data-name="Ellipse 210" class="cls-15" cx="0.376" cy="0.376" r="0.376" transform="translate(1.183 1.858)"/>
          <circle id="Ellipse_211" data-name="Ellipse 211" class="cls-15" cx="0.274" cy="0.274" r="0.274" transform="translate(2.278 1.011)"/>
          <circle id="Ellipse_212" data-name="Ellipse 212" class="cls-15" cx="0.376" cy="0.376" r="0.376" transform="translate(3.421 1.575)"/>
          <circle id="Ellipse_213" data-name="Ellipse 213" class="cls-15" cx="0.376" cy="0.376" r="0.376" transform="translate(3.543)"/>
          <circle id="Ellipse_214" data-name="Ellipse 214" class="cls-15" cx="0.376" cy="0.376" r="0.376" transform="translate(4.936 0.594)"/>
        </g>
        <g id="Group_1586" data-name="Group 1586" transform="translate(25.926 24.399)">
          <circle id="Ellipse_215" data-name="Ellipse 215" class="cls-15" cx="0.376" cy="0.376" r="0.376" transform="translate(0 1.575)"/>
          <circle id="Ellipse_216" data-name="Ellipse 216" class="cls-15" cx="0.376" cy="0.376" r="0.376" transform="translate(0.122)"/>
          <circle id="Ellipse_217" data-name="Ellipse 217" class="cls-15" cx="0.376" cy="0.376" r="0.376" transform="translate(1.515 0.594)"/>
        </g>
        <path id="Path_4185" data-name="Path 4185" class="cls-35" d="M706.155,502.264a8.406,8.406,0,0,1,2.4,1.064c.23-.238.428-.255,1.027-.253s.8.021,1.017.261a8.84,8.84,0,0,1,2.457-1.044,10.487,10.487,0,0,1,5.147.431l3.8.6.237.562-4.065-.116a2.862,2.862,0,0,0-.39.815,5.087,5.087,0,0,1-1.179,2.5,4,4,0,0,1-3.7,1.125,3.517,3.517,0,0,1-2.6-3.459.526.526,0,0,0,.331-.491c-.022-.352-.481-.3-1.08-.3s-1.055-.061-1.093.291a.5.5,0,0,0,.308.494,3.687,3.687,0,0,1-2.762,3.437,3.885,3.885,0,0,1-3.649-1.155,4.83,4.83,0,0,1-1.048-2.51c-.135-.662-.338-.817-.338-.817l.024-1.042A10.521,10.521,0,0,1,706.155,502.264Zm5.04,3.569a2.477,2.477,0,0,0,2.725,1.954,3.247,3.247,0,0,0,2.983-2.141,2.329,2.329,0,0,0-.6-2.606,4.244,4.244,0,0,0-3.894.026A2.483,2.483,0,0,0,711.194,505.833Zm-9.052-.248a3.1,3.1,0,0,0,2.884,2.165,2.591,2.591,0,0,0,2.814-1.931,2.4,2.4,0,0,0-1.089-2.777,4.246,4.246,0,0,0-3.891-.058A2.39,2.39,0,0,0,702.143,505.585Z" transform="translate(-678.159 -482.45)"/>
        <path id="Path_4186" data-name="Path 4186" class="cls-31" d="M731.056,558.692c-.247,1.563-.306,3.161-.695,4.7-.454,1.79-.946,2.811-.43,3.965.38.849.977,1.035.948,1.778a3.308,3.308,0,0,1-1.282,1.983,5.8,5.8,0,0,1-.925.707,13.3,13.3,0,0,1-4.851,1.443,22.924,22.924,0,0,1-5.738-.122,17.817,17.817,0,0,1-4.292-1.154,6.829,6.829,0,0,1-.956-.528,3.122,3.122,0,0,1-1.1-.968,1.811,1.811,0,0,1-.3-1.278c.112-.531.494-.631.8-1.114a3.17,3.17,0,0,0,.183-2.3c-.207-1.308-.587-1.448-1.048-3.049a19.992,19.992,0,0,1-.466-2.47c-.394-2.538-.177-2.576-.485-3.273-.65-1.468-1.646-1.375-2.3-2.711-.408-.832-.408-1.652-.128-3.5.067-.446.129-.947.246-1.63.23-1.348.485-2.38.631-2.969.382-1.547.7-2.885,1.267-4.618a6.7,6.7,0,0,1,1.224-2.613,6.163,6.163,0,0,1,1.869-1.39,6.927,6.927,0,0,1,1.729-.6c-.082.344-.191.81-.315,1.363-.464,2.065-.443,2.28-.342,2.468.418.773,2.089.847,3.291.5,1.378-.4,2.271-1.4,3.768-3.082.507-.568.894-1.059,1.143-1.386a20.863,20.863,0,0,1,3.409-.131,12,12,0,0,1,2.707.334,5.983,5.983,0,0,1,3.195,1.57,5.4,5.4,0,0,1,1.241,2.739,9.027,9.027,0,0,1,.023,3.174c-.312,2.65-.468,3.975-.663,5.081C731.855,552.777,732.195,551.486,731.056,558.692Z" transform="translate(-680.836 -496.017)"/>
        <path id="Path_4187" data-name="Path 4187" class="cls-29" d="M710.66,486.439c-1.2.849-1.723.864-4.186,2.292-2.605,1.51-3.907,2.264-4.669,3.16-3.007,3.539-.207,10.3-.166,10.287.01,0-.172-.405-.455-1.113-3.553-8.9-4.028-16.005-.1-21.484,3.171-4.42,8.512-5.964,10.049-6.408a15.83,15.83,0,0,1,4.189-.714c.945-.026,6.85-.233,10.664,3.713,1.793,1.856,2.367,3.845,3.078,6.427,3.22,11.693-1.3,21.956-2.031,23.565a35.648,35.648,0,0,1-3.107,5.463,1.81,1.81,0,0,0-.213.011c-1.362.156-2.022,1.9-3.344,4.641-1.495,3.093-1.707,3.047-3,5.974-.47,1.066-.838,1.97-1.095,2.618a29.271,29.271,0,0,1,.524-3.427c.5-2.329.91-2.834,1.423-5.333a22.755,22.755,0,0,1,.569-2.9c.584-1.747,1.07-1.73,1.769-3.454.635-1.566.338-1.838,1.063-4.521a23.969,23.969,0,0,0,.492-2.473c.163-1.088.1-1.583-1.631-10.188-.739-3.67-1.127-5.539-2.035-7.187a15.823,15.823,0,0,0-3.483-4.285A13.279,13.279,0,0,1,710.66,486.439Z" transform="translate(-677.118 -470.807)"/>
      </g>
      <g id="Group_1588" data-name="Group 1588" transform="translate(221.725 399.454)">
        <path id="Path_4188" data-name="Path 4188" class="cls-36" d="M289.684,472.306c.243-5.051.311-8.837.185-11.788,0,0-.182-4.25,1.345-4.91.36-.156.708-.338,1.063-.506.605-.286,1.064-.5,1.246-.945.067-.165.046-.238.032-.27-.044-.1-.206-.245-1.228-.19a8.878,8.878,0,0,1-1.873.127,1.508,1.508,0,0,1-.886-.317c-.288-.277-.225-.629-.428-1.606-.069-.333-.139-.6-.186-.771l-3.592,1.027q.151,2.211.3,4.422c-1.043,3.763-2.812,12.549-1.695,16.8Z" transform="translate(-279.694 -446.545)"/>
        <path id="Path_4189" data-name="Path 4189" class="cls-36" d="M288.312,443.821a.8.8,0,0,1,.188.344c.19.589.513,1.129.691,1.722.572,1.9.939,1.97,1.044,2.971.141,1.329-.3,3.177-1.284,3.417a2.093,2.093,0,0,1-1.8-.831,2.562,2.562,0,0,1-.434-.792c-.529-1.623.007-6.582.044-6.923C287.156,443.61,287.929,443.431,288.312,443.821Z" transform="translate(-280.821 -443.583)"/>
        <path id="Path_4190" data-name="Path 4190" class="cls-37" d="M288.972,500.587a75.229,75.229,0,0,1-1.8-14.076,113.359,113.359,0,0,1,.515-17.238,5.547,5.547,0,0,0-1.228-.685,6.621,6.621,0,0,0-4.819.154,110.816,110.816,0,0,0-3.06,13.579,75.761,75.761,0,0,0-1.234,19.088,64.466,64.466,0,0,0,3.012,15.047l14.942,2.508a3.9,3.9,0,0,0,.685-1.228c1.079-3.187-3.519-5.362-5.437-11.647C290.1,504.635,289.625,503.322,288.972,500.587Z" transform="translate(-277.161 -453.242)"/>
      </g>
      <g id="Group_1593" data-name="Group 1593" transform="translate(427.927 400.618)">
        <g id="Group_1592" data-name="Group 1592" transform="translate(0 0)">
          <g id="Group_1590" data-name="Group 1590">
            <g id="Group_1589" data-name="Group 1589">
              <path id="Path_4191" data-name="Path 4191" class="cls-11" d="M637.492,445.553c-11.893.813-21.049,11.187-20.9,23.108a22.1,22.1,0,0,0,11.69,19.605,7.97,7.97,0,0,1,4.139,7.056v.054H646.7v-.054a8.5,8.5,0,0,1,4.031-7.269,23.357,23.357,0,0,0,11.3-19.7A22.927,22.927,0,0,0,637.492,445.553Z" transform="translate(-616.585 -445.499)"/>
            </g>
          </g>
          <path id="Path_4192" data-name="Path 4192" class="cls-38" d="M650.115,497.542a.848.848,0,0,0-.847.847v22.237a.847.847,0,1,0,1.694,0V498.389A.847.847,0,0,0,650.115,497.542Z" transform="translate(-629.413 -465.925)"/>
          <path id="Path_4193" data-name="Path 4193" class="cls-38" d="M658.654,497.542a.848.848,0,0,0-.847.847v22.237a.847.847,0,1,0,1.694,0V498.389A.847.847,0,0,0,658.654,497.542Z" transform="translate(-632.765 -465.925)"/>
          <g id="Group_1591" data-name="Group 1591" transform="translate(14.068 49.354)">
            <path id="Rectangle_357" data-name="Rectangle 357" class="cls-7" d="M3.071,0H14.732A3.071,3.071,0,0,1,17.8,3.071V6.9a3.073,3.073,0,0,1-3.073,3.073H3.072A3.072,3.072,0,0,1,0,6.9V3.071A3.071,3.071,0,0,1,3.071,0Z"/>
          </g>
        </g>
      </g>
      <g id="Group_1597" data-name="Group 1597" transform="translate(168.868 569.829)">
        <path id="Path_4195" data-name="Path 4195" class="cls-7" d="M190.156,724.032s3.05,3.268,3.05,5.467a9.705,9.705,0,0,1-.522,2.492,4.961,4.961,0,0,0,4.716,6.458h8.061a4.962,4.962,0,0,0,4.717-6.458,9.685,9.685,0,0,1-.522-2.492c0-2.2,3.05-5.467,3.05-5.467Z" transform="translate(-190.156 -724.032)"/>
      </g>
      <g id="Group_1605" data-name="Group 1605" transform="translate(216.848 400.332)">
        <path id="Path_4196" data-name="Path 4196" class="cls-17" d="M285.944,469.653a15.94,15.94,0,0,0-6.9,3.751c-4.548,4.64-2.939,11.32-3.15,23.9-.14,8.524-.654,15.375-1.022,19.5l2.6-.153.931-8.218.021,8.218c1.4-.061,3.314-.133,5.575-.174,9.243-.164,13.85.45,25.082.409h1.671c-.713-8.084-1.081-14.638-1.282-18.992-.59-12.722.481-20.2-4.661-25.177a13.91,13.91,0,0,0-4.174-2.728A23.29,23.29,0,0,0,285.944,469.653Z" transform="translate(-271.386 -454.285)"/>
        <path id="Path_4197" data-name="Path 4197" class="cls-37" d="M283.364,539.2a9.037,9.037,0,0,0-2.392,3.721c-1.078,2.655-.855,4.447-1.107,10.915-.067,1.729-.143,3.134-.194,4.014.174.682.248,1.132.375,1.674,0,0,.385,1.637.648,3.44a18.41,18.41,0,0,1,0,4.774c-.265,2.728-.487,8.207-.682,17.048a26.057,26.057,0,0,0,5.115,0c4.845-.48,7.079-2.1,12.275-2.387a27.211,27.211,0,0,1,3.069,0,92.215,92.215,0,0,1-4.433-11.593c-1.214-3.975-1.364-5.4-1.364-6.478-.044-2.581.556-3.546,2.387-9.547,2.2-7.209,2.588-9.012,2.046-11.252a9.726,9.726,0,0,0-2.387-4.433c-.377-.391-3.079-3.132-6.122-2.75a13.224,13.224,0,0,0-2.324.524A12.41,12.41,0,0,0,283.364,539.2Z" transform="translate(-273.27 -480.854)"/>
        <path id="Path_4198" data-name="Path 4198" class="cls-39" d="M284.748,737.966s-9.611,2.607-14.587,2.248c0,0-5.76-1.132,10.013-6.367,0,0,2.157,2.479,5,1.743Z" transform="translate(-269.135 -558.388)"/>
        <path id="Path_4199" data-name="Path 4199" class="cls-36" d="M276.787,492.192a15.474,15.474,0,0,0,2.776,10.113,22.611,22.611,0,0,0,6.512,5.115c4.351,2.343,12.377,1,17.39-5.016,0,0,7.358-2.176,4.681-7.7a2.544,2.544,0,0,0-1.05-1.067,2.965,2.965,0,0,0-2.26-.174c.092-.971.58-7.365-4.136-12a14.075,14.075,0,0,0-6.612-3.6,14.914,14.914,0,0,0-11.2,2.328C276.916,484.414,276.787,491.5,276.787,492.192Z" transform="translate(-272.12 -457.814)"/>
        <path id="Path_4200" data-name="Path 4200" class="cls-36" d="M295.731,532.612s1.34-2.615,0-9a23.488,23.488,0,0,0,6.291-.341s-.27,6.663,1.4,8.337c0,0-2.342,10.2-7.7,9.367C293.222,539.773,295.731,532.612,295.731,532.612Z" transform="translate(-279.136 -475.738)"/>
        <path id="Path_4201" data-name="Path 4201" class="cls-40" d="M287.042,593.282a38.957,38.957,0,0,0-6.165,10.316c-2.56,6.387-2.786,12.047-2.312,21.682.96,19.075,3.089,21.846,3.695,38.707,0,0,.066,1.852.453,16.072a9.741,9.741,0,0,0,6.045.644s.437-24.622,4.917-46.111a72.958,72.958,0,0,0,2.086-13.536,74,74,0,0,0-3.1-25.831A25.086,25.086,0,0,1,287.042,593.282Z" transform="translate(-272.758 -503.217)"/>
        <path id="Path_4202" data-name="Path 4202" class="cls-39" d="M311.273,737.966s9.612,2.607,14.587,2.248c0,0,5.76-1.132-10.013-6.367,0,0-2.156,2.479-5,1.743Z" transform="translate(-285.506 -558.388)"/>
        <path id="Path_4203" data-name="Path 4203" class="cls-40" d="M307.168,593.282a38.97,38.97,0,0,1,6.164,10.316c2.56,6.387,2.787,12.047,2.312,21.682-.959,19.075-3.089,21.846-3.694,38.707,0,0-.067,1.852-.454,16.072a9.74,9.74,0,0,1-6.045.644s-.437-24.622-4.917-46.111a50.121,50.121,0,0,1,1.018-39.367A25.1,25.1,0,0,0,307.168,593.282Z" transform="translate(-280.071 -503.217)"/>
        <path id="Path_4204" data-name="Path 4204" class="cls-41" d="M298.766,536.962a13.829,13.829,0,0,0-2.728,2.045c-1.4,1.364-2.114,2.646-3.751,3.069-.682.174-.928.054-1.023,0-.733-.413-.8-2.008-.2-4.109a4.944,4.944,0,0,0-1.779.563,5.084,5.084,0,0,0-1.072.792,8.868,8.868,0,0,0-1.973,3.169,70.934,70.934,0,0,0-2.474,8.451c-.293,1.445-.666,3.42-1.022,5.8a7.77,7.77,0,0,0,1.364,4.432,24.476,24.476,0,0,1,2.022,3.018,6.573,6.573,0,0,1,.365.733,7.341,7.341,0,0,1,.341,3.069,20.983,20.983,0,0,1-.341,3.409,29.065,29.065,0,0,1-1.364,4.774c-.4,1.139-.761,2.073-1.023,2.728l23.527-.341c-1.954-4.214-3.12-7.161-3.833-9.1-.088-.235-.146-.4-.2-.583,0,0-.03-.1-.058-.2-.965-3.652,1.7-10.911,1.7-10.911a70.36,70.36,0,0,0,3.069-9.548c.855-4.071.682-6.008-.341-7.5a7.454,7.454,0,0,0-3.069-2.387A13.024,13.024,0,0,0,298.766,536.962Z" transform="translate(-274.475 -481.11)"/>
        <path id="Path_4205" data-name="Path 4205" class="cls-42" d="M285.938,517.6a3.551,3.551,0,0,0,1.493,1.268,4.639,4.639,0,0,0,4.971-1.422Z" transform="translate(-275.73 -473.453)"/>
        <path id="Path_4206" data-name="Path 4206" class="cls-42" d="M287.669,513.427c-.341,0-.682,0-1-.031a1.788,1.788,0,0,0,1.186.341,1.751,1.751,0,0,0,.955-.385A10.338,10.338,0,0,1,287.669,513.427Z" transform="translate(-276.019 -471.845)"/>
        <path id="Path_4207" data-name="Path 4207" class="cls-7" d="M293.984,505.283c.061.46,1.023.832,1.787.808.958-.024,2-.682,1.926-1.169-.085-.587-1.728-1.146-2.932-.508C294.645,504.476,293.926,504.874,293.984,505.283Z" transform="translate(-278.887 -468.226)"/>
        <g id="Group_1600" data-name="Group 1600" transform="translate(15.093 35.904)">
          <g id="Group_1599" data-name="Group 1599" class="cls-43">
            <g id="Group_1598" data-name="Group 1598" transform="translate(0.416 0.113)">
              <ellipse id="Ellipse_218" data-name="Ellipse 218" class="cls-17" cx="0.682" cy="0.812" rx="0.682" ry="0.812"/>
            </g>
          </g>
        </g>
        <path id="Path_4209" data-name="Path 4209" class="cls-7" d="M281.227,505.68a1.046,1.046,0,0,0,.764.911,1.186,1.186,0,0,0,1.306-1.18c-.12-.525-1.17-.7-1.6-.58a.637.637,0,0,0-.18.085A.932.932,0,0,0,281.227,505.68Z" transform="translate(-273.879 -468.486)"/>
        <g id="Group_1603" data-name="Group 1603" transform="translate(7.221 36.293)">
          <g id="Group_1602" data-name="Group 1602" class="cls-44">
            <g id="Group_1601" data-name="Group 1601" transform="translate(0.29 -0.063)">
              <ellipse id="Ellipse_219" data-name="Ellipse 219" class="cls-17" cx="0.535" cy="0.784" rx="0.535" ry="0.784"/>
            </g>
          </g>
        </g>
        <path id="Path_4211" data-name="Path 4211" class="cls-37" d="M303.134,536.965a17.159,17.159,0,0,0-4.432,3.409,21.068,21.068,0,0,0-4.774,15.344c.109,1.163.341,2.387.341,2.387.174.682.249,1.132.375,1.674,0,0,.386,1.637.648,3.44a18.415,18.415,0,0,1,0,4.774c-.266,2.728-.488,8.207-.682,17.049a26.075,26.075,0,0,0,5.115,0c4.846-.481,7.079-2.1,12.275-2.387a27.172,27.172,0,0,1,3.069,0,92.217,92.217,0,0,1-4.432-11.593c-1.214-3.976-1.364-5.4-1.364-6.478-.044-2.581.556-3.546,2.387-9.547,2.2-7.208,2.588-9.012,2.045-11.252a8.44,8.44,0,0,0-2.387-4.433c-2.411-2.209-5.963-2.342-7.16-2.386Z" transform="translate(-278.833 -481.113)"/>
        <path id="Path_4212" data-name="Path 4212" class="cls-17" d="M280.227,487.371c.112-1.135.228-2.274.341-3.409.112,1.135.228,2.274.341,3.409h10.229c.112-.569.228-1.135.341-1.7.112.569.228,1.135.341,1.7h3.41q.005,4.944,0,9.888-.012,10.809-.073,21.618l4.256.289a57.743,57.743,0,0,1,.458-7.185,57.3,57.3,0,0,1,.216,7.145c1.866.03,3.881-.012,6.025-.162,1.767-.123,3.434-.306,4.993-.527-.488-8.586-1.35-19.5-2.918-30.725A17.357,17.357,0,0,0,304.913,479c-4.385-5.656-11.886-6.11-14.921-6.291-3.962-.239-7.631-.461-10.492,1.865-3.838,3.12-3.78,8.83-3.706,16.547a64.9,64.9,0,0,0,1.655,13.966c.008-.308.021-.863.029-1.555.058-5.008-.255-7.464-.32-12.411-.024-1.81,0-3.263,0-4.092Z" transform="translate(-271.741 -455.837)"/>
        <g id="Group_1604" data-name="Group 1604" transform="translate(15.971)">
          <path id="Path_4213" data-name="Path 4213" class="cls-36" d="M307.738,472.885a50.683,50.683,0,0,1,.1-11.789c.871-4.927,3.407-5.621,4.467-6.341s2.143-.754,1.993-1.246a1.791,1.791,0,0,0-2.208-.583,2.5,2.5,0,0,1-1.474.448c-.263-.015-.277-1.673-1.636-1.817a6.966,6.966,0,0,0-4.943,1.552c-1.174,1.194-.831,3.187-.431,4.076-1.016,3.77-2.725,12.569-1.579,16.815Z" transform="translate(-297.869 -447.582)"/>
          <path id="Path_4214" data-name="Path 4214" class="cls-36" d="M311.376,448.828c-.112,2.363.21,2.434-.114,2.831a7.651,7.651,0,0,1-3.255,1.833h0c-1.427.357-3.082.771-3.632.138-.151-.174-.154-.468-.2-1.026a11.141,11.141,0,0,1,.038-1.689,8.284,8.284,0,0,1,.189-2.487,4.088,4.088,0,0,1,.323-.721c.707-1.23,1.917-1.673,4.246-2.488a1.619,1.619,0,0,1,1.05-.151c.915.276,1.213,1.747,1.279,2.069A6.549,6.549,0,0,1,311.376,448.828Z" transform="translate(-298.85 -445.028)"/>
          <path id="Path_4215" data-name="Path 4215" class="cls-37" d="M307.263,501.278a75.214,75.214,0,0,1-1.9-14.063,113.35,113.35,0,0,1,.395-17.241,5.515,5.515,0,0,0-1.233-.676,6.619,6.619,0,0,0-4.818.186,110.847,110.847,0,0,0-2.966,13.6,75.76,75.76,0,0,0-1.1,19.1,64.435,64.435,0,0,0,3.116,15.025l14.958,2.405a3.866,3.866,0,0,0,.676-1.233c1.057-3.194-3.555-5.338-5.517-11.609C308.423,505.318,307.935,504.009,307.263,501.278Z" transform="translate(-295.425 -454.404)"/>
        </g>
      </g>
      <g id="Group_1607" data-name="Group 1607" transform="translate(451.777 453.177)">
        <path id="Path_4216" data-name="Path 4216" class="cls-28" d="M703.9,554.806c5.639-.8,8.745-1.852,10.568-2.728,0,0,3.918-1.881,7.423-3.2a11.1,11.1,0,0,0,2.448-1.341,4.411,4.411,0,0,0,1.425-1.423c.044-.076.982-1.731.363-2.84-.716-1.282-3.113-1.117-4.995-.987a19.516,19.516,0,0,0-5.072,1.125c-.885.294-1.585.542-2.258.8-1.431.551-2.528,1.044-3.036,1.277l-.258.12c-.917.428-3.329,1.331-9.023,3.222a3.35,3.35,0,0,0-1.813,3.7A3.392,3.392,0,0,0,703.9,554.806Z" transform="translate(-673.014 -536.014)"/>
        <g id="Group_1606" data-name="Group 1606" transform="translate(0 0)">
          <path id="Path_4217" data-name="Path 4217" class="cls-28" d="M682.8,550.45c-.97-.338-2.046-.789-2.648-1.059-4.661-2.089-9.182-4.014-13.65-6.1-1.84-.858-3.266-1.639-5.067-2.449,0,0,.045.019-.026-.01s-.065-.018-.255-.1a8.081,8.081,0,0,1-.832-.4,10.543,10.543,0,0,1-3.22-2.966c-.268-.375-.637-.99-.853-1.357a4.156,4.156,0,0,1-.356-.712c-.258-1.093.615-1.993,1.115-2.638a1.57,1.57,0,0,1,.869-.611,1.021,1.021,0,0,1,.88.272c.491.395.423.7.781,1.18a8.4,8.4,0,0,0,.947.888c.592.5.9.734,1.055.67.338-.139.214-1.124.2-1.223q.044-.4.085-.8t.082-.821c1.99,2.347,2.479,3.437,2.423,3.957a1.538,1.538,0,0,0,.016.481,2.118,2.118,0,0,0,.9,1.238c2.2,1.63,16.477,6.224,17.168,6.452a3.482,3.482,0,0,0,2.149.263,5.067,5.067,0,0,0,1.018-.225c1.388,1.344,2.307,2.493,2.115,4.683-.021.243-.6,1.7-1.316,1.852a6.45,6.45,0,0,1-1.176.077A15.681,15.681,0,0,1,682.8,550.45Z" transform="translate(-655.845 -532.015)"/>
        </g>
        <path id="Path_4218" data-name="Path 4218" class="cls-31" d="M713.013,554.479c-.392-.87-.761-1.553-1.032-2.025a12.056,12.056,0,0,1-.714-1.268,10.537,10.537,0,0,1-.66-2.754,9.407,9.407,0,0,0-1.181-3.033,8.253,8.253,0,0,0,1.516-.217,10.069,10.069,0,0,0,2.247-.884c.754-.365,1.5-.655,2.992-1.234a31.673,31.673,0,0,1,4.645-1.389c.69-.157,1.162-.237,4.076-.674,1.784-.268,3.294-.49,4.427-.656a7.175,7.175,0,0,1,1.273,4.067,7.377,7.377,0,0,1-1.9,4.742c-1.056,1.224-2.372,1.981-7.713,3.438C718.966,553.144,716.26,553.825,713.013,554.479Z" transform="translate(-676.875 -535.285)"/>
      </g>
      <path id="Path_4219" data-name="Path 4219" class="cls-9" d="M384.813,545.489c.094-4.856.358-9.951.841-15.258q.293-3.211.667-6.291l0-.024c.008-.046.026-.148.044-.276.075-.521.094-1.042.094-1.042.083-2.18.129-3.429.765-4.4.762-1.169,1.974-1.336,1.86-1.823-.067-.292-.541-.4-1.417-.6a11.727,11.727,0,0,0-2.911-.272,6.386,6.386,0,0,0-2.012.19,3.19,3.19,0,0,0-2.024,2.074,2.886,2.886,0,0,0,.277,1.951l-1.864-1.819a1.507,1.507,0,0,0-.6.756c-.1.322-.052.63.437,1.765.417.968.8,1.722.968,2.05.346.675.578,1.105.645,1.234a9.191,9.191,0,0,1,.79,4.2c0,1.7.019,4.559-2.01,12.677h0l-.66,4.1a3.2,3.2,0,0,0,.372,2.335,3.455,3.455,0,0,0,4.9.618A3.079,3.079,0,0,0,384.813,545.489Z" transform="translate(-95.207 -72.354)"/>
      <path id="Path_4220" data-name="Path 4220" class="cls-24" d="M385.131,559.254a9.069,9.069,0,0,0-2.942,1.016,9.3,9.3,0,0,0-3.561,3.561l3.338,4.188s2.343,3.362,4.833,6.29c.937,1.1.987,1.037,1.527,1.739a17.528,17.528,0,0,0,1.511,1.737c.015.013.145.128.314.286.151.142.294.276.444.439.171.185.283.332.33.392.377.485,1.09,1.231,1.782,1.955.619.647,1.091,1.121,1.14,1.171a51.625,51.625,0,0,1,5.131,5.853,34.506,34.506,0,0,1,2.216,3.448L404.021,584a16.6,16.6,0,0,0-.744-2.463,24.164,24.164,0,0,0-3.672-5.859c-1.891-2.482-2.837-3.722-3.3-4.277-.17-.2-.377-.451-.643-.762-3.323-3.889-6.065-5.955-9.707-10.371C385.781,560.063,385.489,559.707,385.131,559.254Z" transform="translate(-95.262 -89.529)"/>
    </g>
  </g>
</svg>
