<svg id="asesoria" xmlns="http://www.w3.org/2000/svg" width="84.006" height="83.428" viewBox="0 0 84.006 83.428">
  <g id="Group_761" data-name="Group 761" transform="translate(0 34.029)">
    <g id="Group_760" data-name="Group 760">
      <path id="Path_2251" data-name="Path 2251" d="M30.644,244.217l-3.9-.913a2.622,2.622,0,0,1-2.033-2.564V239.53a10.691,10.691,0,0,0,4.907-8.985v-7.712h0v-.015c0-.009,0-.015,0-.023a1.239,1.239,0,0,0-1.92-1.014,11.515,11.515,0,0,1-4.87,1.1,14.6,14.6,0,0,1-9.124-3.31l-3.046-3.284a10.968,10.968,0,0,1,1.907-2.142,10.759,10.759,0,0,1,6.753-2.5,10.027,10.027,0,0,1,6.474,3.1,15.732,15.732,0,0,1,3.98,7.356,1.241,1.241,0,1,0,2.4-.646,18.151,18.151,0,0,0-4.651-8.493,12.469,12.469,0,0,0-8.071-3.793,12.856,12.856,0,0,0-5.515,1.2,9.711,9.711,0,1,0-5.7,18.344v1.837a10.7,10.7,0,0,0,5.268,9.209v.987a2.622,2.622,0,0,1-2.033,2.563l-3.9.913a8.277,8.277,0,0,0-6.417,8.092v5.01a1.241,1.241,0,0,0,1.241,1.241H35.821a1.241,1.241,0,0,0,1.241-1.241v-5.01A8.278,8.278,0,0,0,30.644,244.217ZM8.231,226.19a7.229,7.229,0,1,1,2.982-14.147c-.086.07-.173.139-.258.212a13.916,13.916,0,0,0-2.912,3.512l0,0-.007.011-.009.014,0,0a12.35,12.35,0,0,0-1.788,7.873,1.24,1.24,0,0,0,1.531,1.069c.156-.038.31-.081.464-.125v1.574Zm.927-4.572a1.239,1.239,0,0,0-.386.174c-.039.017-.078.036-.117.052a9.786,9.786,0,0,1,.661-3.1,20.683,20.683,0,0,0,1.653,1.741,10.957,10.957,0,0,1-1.416.932C9.422,221.488,9.29,221.554,9.157,221.618Zm1.554,8.927v-6.933l.014-.007a13.709,13.709,0,0,0,2.2-1.507,16.923,16.923,0,0,0,9.9,3.264,16.814,16.814,0,0,0,4.31-.664v5.847a8.212,8.212,0,0,1-16.424,0ZM34.58,256.079H3.628V252.31a5.806,5.806,0,0,1,4.5-5.676l.349-.082a12.589,12.589,0,0,0,5.1,4.664,1.241,1.241,0,1,0,1.1-2.223,10.079,10.079,0,0,1-3.618-3.045l.97-.227a5.092,5.092,0,0,0,3.947-4.9,10.653,10.653,0,0,0,6.251-.109v.028a5.094,5.094,0,0,0,3.949,4.979l.973.228a9.932,9.932,0,0,1-8.046,4.077,1.241,1.241,0,1,0,0,2.481,12.406,12.406,0,0,0,10.626-5.955l.349.082a5.806,5.806,0,0,1,4.5,5.676Z" transform="translate(0 -209.162)" fill="#45a8bc"/>
    </g>
  </g>
  <g id="Group_763" data-name="Group 763" transform="translate(14.127 50.325)">
    <g id="Group_762" data-name="Group 762">
      <circle id="Ellipse_117" data-name="Ellipse 117" cx="1.048" cy="1.048" r="1.048" fill="#45a8bc"/>
    </g>
  </g>
  <g id="Group_765" data-name="Group 765" transform="translate(21.252 50.325)">
    <g id="Group_764" data-name="Group 764">
      <circle id="Ellipse_118" data-name="Ellipse 118" cx="1.048" cy="1.048" r="1.048" fill="#45a8bc"/>
    </g>
  </g>
  <g id="Group_768" data-name="Group 768" transform="translate(15.666 34.029)">
    <g id="Group_767" data-name="Group 767">
      <g id="Group_766" data-name="Group 766">
        <path id="Path_2252" data-name="Path 2252" d="M99.8,353.476a1.572,1.572,0,0,1-2.221,0,1.23,1.23,0,1,0-1.74,1.74,4.036,4.036,0,0,0,5.7,0,1.23,1.23,0,1,0-1.74-1.74Z" transform="translate(-95.481 -329.497)" fill="#45a8bc"/>
        <path id="Path_2253" data-name="Path 2253" d="M366.053,356.4a4.02,4.02,0,0,0,2.851-1.179,1.23,1.23,0,1,0-1.74-1.74,1.572,1.572,0,0,1-2.221,0,1.231,1.231,0,0,0-1.74,1.74A4.019,4.019,0,0,0,366.053,356.4Z" transform="translate(-318.975 -329.497)" fill="#45a8bc"/>
        <path id="Path_2254" data-name="Path 2254" d="M291.321,245.3a1.241,1.241,0,0,0-1.188,2.179,5.629,5.629,0,0,1,3.192,4.837v3.769h-5.082v-1.469a1.241,1.241,0,1,0-2.481,0v1.469H263.426v-1.469a1.241,1.241,0,1,0-2.481,0v1.469h-5.09v-3.769c0-2.7,2.27-5.03,5.521-5.666l4.662-.913a6.487,6.487,0,0,0,1.569-.519,11.684,11.684,0,0,0,13.968,0,6.479,6.479,0,0,0,1.569.519l3.163.619a1.26,1.26,0,0,0,.24.023,1.241,1.241,0,0,0,.237-2.458l-3.163-.619a2.9,2.9,0,0,1-2.572-2.554v-1.822a10.677,10.677,0,0,0,4.055-8.374v-7.728c0-.009,0-.015,0-.023a1.239,1.239,0,0,0-1.92-1.014,11.514,11.514,0,0,1-4.87,1.1,14.605,14.605,0,0,1-9.124-3.31l-3.046-3.284a10.969,10.969,0,0,1,1.908-2.142,10.758,10.758,0,0,1,6.753-2.5,10.028,10.028,0,0,1,6.474,3.1,15.734,15.734,0,0,1,3.98,7.356,1.241,1.241,0,1,0,2.4-.647A18.152,18.152,0,0,0,283,212.961a12.47,12.47,0,0,0-8.071-3.793,13.094,13.094,0,0,0-8.489,3.088,13.914,13.914,0,0,0-2.912,3.513v0l-.005.008-.01.017,0,0a12.348,12.348,0,0,0-1.787,7.872,1.24,1.24,0,0,0,1.531,1.069c.156-.038.31-.081.464-.125v5.929a10.684,10.684,0,0,0,4.416,8.649v1.547a2.9,2.9,0,0,1-2.572,2.554l-4.662.913c-4.431.868-7.526,4.2-7.526,8.1v5.01a1.241,1.241,0,0,0,1.241,1.241h39.953a1.241,1.241,0,0,0,1.241-1.241v-5.01A8.067,8.067,0,0,0,291.321,245.3Zm-16.731-.247a9.208,9.208,0,0,1-4.962-1.452,4.663,4.663,0,0,0,.987-2.853v-.2a10.678,10.678,0,0,0,7.952-.142v.344a4.662,4.662,0,0,0,.987,2.853A9.209,9.209,0,0,1,274.59,245.048Zm-9.947-23.429a1.237,1.237,0,0,0-.386.174c-.039.017-.078.036-.117.052a9.785,9.785,0,0,1,.661-3.1,20.7,20.7,0,0,0,1.653,1.741,10.987,10.987,0,0,1-1.417.932C264.908,221.489,264.776,221.555,264.643,221.619Zm1.554,8.927v-6.933l.014-.007a13.7,13.7,0,0,0,2.2-1.507,15.907,15.907,0,0,0,14.209,2.6v5.847a8.212,8.212,0,0,1-16.424,0Z" transform="translate(-227.467 -209.163)" fill="#45a8bc"/>
      </g>
    </g>
  </g>
  <g id="Group_770" data-name="Group 770" transform="translate(57.812 50.325)">
    <g id="Group_769" data-name="Group 769">
      <circle id="Ellipse_119" data-name="Ellipse 119" cx="1.048" cy="1.048" r="1.048" fill="#45a8bc"/>
    </g>
  </g>
  <g id="Group_772" data-name="Group 772" transform="translate(64.936 50.325)">
    <g id="Group_771" data-name="Group 771">
      <circle id="Ellipse_120" data-name="Ellipse 120" cx="1.048" cy="1.048" r="1.048" fill="#45a8bc"/>
    </g>
  </g>
  <g id="Group_774" data-name="Group 774" transform="translate(17.242)">
    <g id="Group_773" data-name="Group 773">
      <path id="Path_2255" data-name="Path 2255" d="M145.54,28.357A15.229,15.229,0,0,0,135.4,1.764h-.105a15.263,15.263,0,0,0-14.014,9.5h-6.647a1.241,1.241,0,0,0,0,2.481h5.883a15.316,15.316,0,0,0-.326,2.473h-6.032a1.241,1.241,0,0,0,0,2.481h6.108a15.09,15.09,0,0,0,.493,2.473h-6.126a1.241,1.241,0,0,0,0,2.481h7.079a15.333,15.333,0,0,0,2.89,4.054c.311.313.634.609.967.892a12.635,12.635,0,0,1-4.916,1.136,12.824,12.824,0,0,1-3.23-.325,1.242,1.242,0,0,0-1.147.321,11.028,11.028,0,0,1-4.564,2.54q-.255.077-.515.142a13.367,13.367,0,0,0,1.571-4.28,1.241,1.241,0,0,0-.439-1.206,12.748,12.748,0,0,1,7.988-22.684h.088a12.849,12.849,0,0,1,2.225.209,1.241,1.241,0,0,0,.447-2.441,15.344,15.344,0,0,0-2.656-.25h-.105a15.229,15.229,0,0,0-10.14,26.592,9.6,9.6,0,0,1-1.763,3.72,1.878,1.878,0,0,0,1.439,3.08,1.945,1.945,0,0,0,.236-.015,14.239,14.239,0,0,0,2.338-.491,13.677,13.677,0,0,0,5.087-2.685,15.4,15.4,0,0,0,3.2.253,15.129,15.129,0,0,0,7.14-2.006A15.081,15.081,0,0,0,135,32.219a15.363,15.363,0,0,0,3.2-.253,13.68,13.68,0,0,0,5.087,2.685,14.245,14.245,0,0,0,2.338.491,1.911,1.911,0,0,0,.236.015,1.878,1.878,0,0,0,1.439-3.08A9.6,9.6,0,0,1,145.54,28.357ZM144,32.274a11.026,11.026,0,0,1-4.564-2.54,1.241,1.241,0,0,0-1.147-.321,12.827,12.827,0,0,1-3.229.325,12.615,12.615,0,0,1-6.431-1.955,1.233,1.233,0,0,0-.191-.124,12.894,12.894,0,0,1-4.774-5.69c-.009-.023-.018-.045-.028-.067A12.744,12.744,0,0,1,135.311,4.246h.088a12.748,12.748,0,0,1,7.988,22.684,1.24,1.24,0,0,0-.439,1.206,13.369,13.369,0,0,0,1.571,4.28Q144.259,32.351,144,32.274Z" transform="translate(-105.086 -1.764)" fill="#45a8bc"/>
    </g>
  </g>
  <g id="Group_776" data-name="Group 776" transform="translate(39.567 9.286)">
    <g id="Group_775" data-name="Group 775">
      <path id="Path_2256" data-name="Path 2256" d="M256.432,58.363H242.391a1.241,1.241,0,1,0,0,2.481h14.041a1.241,1.241,0,0,0,0-2.481Z" transform="translate(-241.15 -58.363)" fill="#45a8bc"/>
    </g>
  </g>
  <g id="Group_778" data-name="Group 778" transform="translate(39.567 14.241)">
    <g id="Group_777" data-name="Group 777">
      <path id="Path_2257" data-name="Path 2257" d="M256.432,88.559H242.391a1.241,1.241,0,1,0,0,2.481h14.041a1.241,1.241,0,0,0,0-2.481Z" transform="translate(-241.15 -88.559)" fill="#45a8bc"/>
    </g>
  </g>
  <g id="Group_780" data-name="Group 780" transform="translate(39.567 19.195)">
    <g id="Group_779" data-name="Group 779">
      <path id="Path_2258" data-name="Path 2258" d="M249.639,118.754h-7.248a1.241,1.241,0,1,0,0,2.481h7.248a1.241,1.241,0,0,0,0-2.481Z" transform="translate(-241.15 -118.754)" fill="#45a8bc"/>
    </g>
  </g>
</svg>
