<svg xmlns="http://www.w3.org/2000/svg" width="16.621" height="17.809" viewBox="0 0 16.621 17.809">
  <g id="calendar" transform="translate(-2)">
    <path id="Path_2126" data-name="Path 2126" d="M18.325,1.187H16.247V.3a.3.3,0,0,0-.3-.3H13.873a.3.3,0,0,0-.3.3v.89H7.046V.3a.3.3,0,0,0-.3-.3H4.671a.3.3,0,0,0-.3.3v.89H2.3a.3.3,0,0,0-.3.3V17.513a.3.3,0,0,0,.3.3H18.325a.3.3,0,0,0,.3-.3V1.484A.3.3,0,0,0,18.325,1.187ZM14.17.594h1.484V2.375H14.17V.594Zm-9.2,0H6.452V2.375H4.968V.594ZM2.594,1.781H4.375v.89a.3.3,0,0,0,.3.3H6.749a.3.3,0,0,0,.3-.3v-.89h6.53v.89a.3.3,0,0,0,.3.3h2.078a.3.3,0,0,0,.3-.3v-.89h1.781V4.452H2.594Zm0,15.435V5.046H18.028v12.17Z" fill="#ecbb3c"/>
    <path id="Path_2127" data-name="Path 2127" d="M19.014,23H11v8.608H22.279V23H19.014Zm-2.078.594h2.078v2.078H16.936Zm2.078,4.749H16.936V26.265h2.078Zm-4.749-2.078h2.078v2.078H14.265Zm0-2.671h2.078v2.078H14.265Zm-2.671,0h2.078v2.078H11.594Zm0,2.671h2.078v2.078H11.594Zm2.078,4.749H11.594V28.936h2.078Zm2.671,0H14.265V28.936h2.078Zm2.671,0H16.936V28.936h2.078Zm2.671,0H19.608V28.936h2.078Zm0-2.671H19.608V26.265h2.078Zm0-4.749v2.078H19.608V23.594Z" transform="translate(-6.329 -16.173)" fill="#ecbb3c"/>
  </g>
</svg>
