<svg id="charlas" xmlns="http://www.w3.org/2000/svg" width="82.813" height="76.752" viewBox="0 0 82.813 76.752">
  <path id="Path_2263" data-name="Path 2263" d="M130.568,111.913h-3.232V101.174a4.834,4.834,0,1,0-2.693-.118v10.856h-6.4V105.2a10.588,10.588,0,0,0-10.57-10.621h-5.42V91.765a10.108,10.108,0,0,0,1.683-1.481,15.325,15.325,0,0,0,4.376-10.671v-5a8.027,8.027,0,0,0,2.2.32,7.155,7.155,0,0,0,1.347-.118,7.524,7.524,0,0,0,3-13.583,7.344,7.344,0,0,0-5.723-1.161,7.835,7.835,0,0,0-3.518,1.666,14.918,14.918,0,0,0-27.1,8.6V79.6a15.323,15.323,0,0,0,4.343,10.671,27.047,27.047,0,0,0,2.222,1.885v2.424H79.821A10.574,10.574,0,0,0,69.267,105.2v6.716H60.431A1.472,1.472,0,0,0,59,113.326v11.227a1.411,1.411,0,0,0,1.431,1.33h70.137a1.324,1.324,0,0,0,.943-.387,1.243,1.243,0,0,0,.37-.943V113.326A1.382,1.382,0,0,0,130.568,111.913Zm-4.359-17.589a2.154,2.154,0,1,1-2.154,2.154A2.148,2.148,0,0,1,126.208,94.324ZM115.554,105.2v6.716h-20.7v-10.6l6.531-4.04h6.3a7.931,7.931,0,0,1,7.877,7.928Zm-2.239-41.759a4.834,4.834,0,0,1,1.2,6.733,4.887,4.887,0,0,1-6.211,1.549v-1.38a14.693,14.693,0,0,0-1.33-6.228A5.037,5.037,0,0,1,113.315,63.438ZM93.421,58.119a12.226,12.226,0,0,1,12.2,12.22v.017a10.6,10.6,0,0,1-3.063-4.747,1.35,1.35,0,0,0-1.111-1.01,1.328,1.328,0,0,0-1.347.656c-2.39,4.141-6.43,6.463-11.967,6.918a26.523,26.523,0,0,1-6.918-.387V70.339A12.226,12.226,0,0,1,93.421,58.119Zm-12.2,21.494V74.563a30.321,30.321,0,0,0,4.932.421c.673,0,1.4-.017,2.121-.084,5.437-.438,9.745-2.542,12.674-6.144a13.121,13.121,0,0,0,4.662,4.932v5.925a12.457,12.457,0,0,1-3.568,8.786,11.879,11.879,0,0,1-17.236,0A12.619,12.619,0,0,1,81.218,79.613ZM93.4,94.778a14.145,14.145,0,0,0,6.16-1.38v1.784l-6.043,3.787-5.74-3.77V93.633A14.349,14.349,0,0,0,93.4,94.778ZM71.96,105.2a7.825,7.825,0,0,1,2.289-5.588,7.977,7.977,0,0,1,5.571-2.34h6.245l6.093,4.023v10.621H71.96Zm57.227,17.993H61.693v-8.584h8.433c.135.168.269.067.421.067s.286.1.421-.067H116.53c.135.168.269.067.421.067s.286.1.421-.067h8.1c.168.168.337.1.522.1s.37.067.522-.1h2.676Z" transform="translate(-49.069 -49.131)" fill="#45a8bc"/>
  <path id="Path_2264" data-name="Path 2264" d="M213.492,190.3a1.35,1.35,0,0,0-1.347,1.347.976.976,0,1,1-1.952,0,1.347,1.347,0,0,0-2.693,0,3.669,3.669,0,1,0,7.339,0A1.351,1.351,0,0,0,213.492,190.3Z" transform="translate(-172.574 -161.299)" fill="#45a8bc"/>
  <path id="Path_2265" data-name="Path 2265" d="M279.969,195.316a3.678,3.678,0,0,0,3.669-3.669,1.347,1.347,0,0,0-2.693,0,.976.976,0,1,1-1.952,0,1.347,1.347,0,0,0-2.693,0A3.689,3.689,0,0,0,279.969,195.316Z" transform="translate(-229.794 -161.299)" fill="#45a8bc"/>
  <path id="Path_2266" data-name="Path 2266" d="M19.373,43.921a1.406,1.406,0,0,0,.892.353,1.128,1.128,0,0,0,.522-.118,1.293,1.293,0,0,0,.757-1.212V37.356h5.268A1.281,1.281,0,0,0,27.738,37a1.232,1.232,0,0,0,.37-.909V19.33a1.243,1.243,0,0,0-.37-.943A1.258,1.258,0,0,0,26.813,18H1.313a1.324,1.324,0,0,0-.943.387A1.382,1.382,0,0,0,0,19.33V36.094a1.285,1.285,0,0,0,.387.926,1.281,1.281,0,0,0,.926.353H11.9ZM2.693,20.693H25.416v13.97h-5.15a1.469,1.469,0,0,0-1.414,1.414v3.9l-5.6-4.948a1.373,1.373,0,0,0-.858-.37H2.693Z" transform="translate(0 -18)" fill="#45a8bc"/>
  <g id="Group_789" data-name="Group 789" transform="translate(39.385 36.439)">
    <path id="Path_2267" data-name="Path 2267" d="M238.977,238.366a7.343,7.343,0,0,1-4.528-1.633,1.267,1.267,0,0,1,1.616-1.952,4.635,4.635,0,0,0,3.1,1.06,4.557,4.557,0,0,0,2.71-1.044,1.267,1.267,0,1,1,1.616,1.952,7.121,7.121,0,0,1-4.208,1.616Z" transform="translate(-233.993 -234.493)" fill="#45a8bc"/>
  </g>
</svg>
