<svg id="cursos" xmlns="http://www.w3.org/2000/svg" width="88.139" height="88.331" viewBox="0 0 88.139 88.331">
  <path id="Path_2245" data-name="Path 2245" d="M199.286,12.447H241.67A6.224,6.224,0,0,0,241.67,0H199.286a6.224,6.224,0,0,0,0,12.447ZM241.67,2.6a3.624,3.624,0,0,1,0,7.248H230.221L233.4,2.6Zm-11.1,0-3.184,7.248h-4.627L225.939,2.6Zm-7.467,0-3.184,7.248h-4.627L218.472,2.6Zm-7.466,0-3.184,7.248h-4.627L211.006,2.6Zm-7.466,0-3.184,7.248h-4.627L203.539,2.6Zm-8.88,0H200.7l-3.017,6.868a3.621,3.621,0,0,1,1.6-6.868Zm0,0" transform="translate(-159.756 0)" fill="#45a8bc"/>
  <path id="Path_2246" data-name="Path 2246" d="M241.67,81.547H236.8a1.335,1.335,0,0,0-1.353,1.26,1.3,1.3,0,0,0,1.3,1.34h4.831a3.683,3.683,0,0,1,3.711,3.485,3.628,3.628,0,0,1-3.621,3.764H223.916l3.329-7.249H231.5a1.335,1.335,0,0,0,1.353-1.26,1.3,1.3,0,0,0-1.3-1.34H199.4a6.3,6.3,0,0,0-6.337,5.992,6.232,6.232,0,0,0,6.215,6.455c13.119.013,42.693,0,42.272,0a6.3,6.3,0,0,0,6.339-6.074,6.231,6.231,0,0,0-6.222-6.374Zm-43.885,9.518a3.622,3.622,0,0,1,1.5-6.918h1.676Zm7.656.33h-4.946l3.329-7.249h4.946Zm7.808,0H208.3l3.329-7.249h4.946Zm7.807,0h-4.947l3.329-7.249h4.946Zm0,0" transform="translate(-159.755 -67.478)" fill="#45a8bc"/>
  <path id="Path_2247" data-name="Path 2247" d="M86.674,166.149a1.3,1.3,0,0,0-1.156,1.429,3.691,3.691,0,0,1,.02.387,3.628,3.628,0,0,1-3.624,3.624H76.7l3.184-7.249h2.026a3.6,3.6,0,0,1,1.439.3,1.3,1.3,0,0,0,1.035-2.385,6.178,6.178,0,0,0-2.474-.511H39.531a6.213,6.213,0,0,0-6.177,6.972A9.9,9.9,0,0,0,25.9,165.3H16.178a9.867,9.867,0,0,0-7,2.929,10.879,10.879,0,0,0-3.051,7.934v0c0,.359,0,1.94,0,7.866a5.5,5.5,0,0,0-1.075,8.678,12.32,12.32,0,0,1-4.366,5.636A1.644,1.644,0,0,0,.2,200.471a11.571,11.571,0,0,0,6.026,5,10.209,10.209,0,0,0-3.666,7.846v5.766a3.094,3.094,0,0,0,3.09,3.091H36.42a3.1,3.1,0,0,0,3.092-3.091v-5.766a10.207,10.207,0,0,0-3.666-7.846,11.574,11.574,0,0,0,6.027-5,1.647,1.647,0,0,0-.48-2.124,12.3,12.3,0,0,1-4.791-6.99,5.492,5.492,0,0,0-1.15-6.627,2.5,2.5,0,0,0,.5-1.508v-7.563a10.6,10.6,0,0,0-.408-2.915,6.193,6.193,0,0,0,3.985,1.448H81.915a6.231,6.231,0,0,0,6.224-6.224,6.352,6.352,0,0,0-.035-.662,1.3,1.3,0,0,0-1.43-1.156Zm-53.4,25.1v-4.929A2.905,2.905,0,0,1,33.273,191.25ZM16.178,167.9H25.9a7.621,7.621,0,0,1,7.456,7.757v7.437l-.082-.005a3.786,3.786,0,0,1-2.6-1.291c-.6-.693-.636-1.123-1.728-3.463a2.274,2.274,0,0,0-4.208.137,8.339,8.339,0,0,1-2.019,3.07,1.3,1.3,0,0,0,1.818,1.859,11.02,11.02,0,0,0,2.345-3.314c.706,1.377.9,2.661,2.435,4.017a9.19,9.19,0,0,0-4.607-.214,1.3,1.3,0,0,0,.528,2.546,5.738,5.738,0,0,1,3.394.216,1.3,1.3,0,0,0,1.815-1.754c.075.042.15.086.228.125v6.757c0,5.023-7.531,9.636-9.856,9.636-1.717,0-6.494-2.614-8.7-6.092v-9.084a12.181,12.181,0,0,0,7.459.09,1.3,1.3,0,1,0-.761-2.485,9.651,9.651,0,0,1-6.085-.142,2.4,2.4,0,0,0-3.214,2.238c0,10.535.036,9.824-.065,9.976a.394.394,0,0,1-.724-.217c0-6.264,0-12.632,0-19.628,0-5.2,3.754-8.174,7.456-8.174Zm8.993,34.687v1.057l-3.517,5.295a.783.783,0,0,1-1.232,0l-3.516-5.295v-.825a9.533,9.533,0,0,0,3.911,1.2,10.193,10.193,0,0,0,4.354-1.429ZM2.923,199.9a14.906,14.906,0,0,0,3.253-3.655A3,3,0,0,0,10.91,198.1a18.249,18.249,0,0,0,3.4,3.132v1.853a13.562,13.562,0,0,0-4.864.565A9.764,9.764,0,0,1,2.923,199.9Zm33.989,13.41v5.767a.491.491,0,0,1-.492.49H5.654a.491.491,0,0,1-.491-.49v-5.767a7.6,7.6,0,0,1,7.629-7.631h2.347a.111.111,0,0,1,.01.015l0,0v0l.036.055c.166.252-.833-1.255,3.07,4.623a3.388,3.388,0,0,0,5.565,0l3.116-4.694c2.522-.011,3.019.008,3.043.032a7.589,7.589,0,0,1,6.932,7.6Zm2.241-13.41a9.763,9.763,0,0,1-6.519,3.744,13.453,13.453,0,0,0-4.863-.565V200.9a14.038,14.038,0,0,0,5.139-6.735,5.472,5.472,0,0,0,1.646-.654,14.857,14.857,0,0,0,4.6,6.391Zm-1.239-28.7a3.621,3.621,0,0,1,1.617-6.863h1.282Zm2.659.385,3.062-7.249h4.359l-3.062,7.249Zm7.181,0,3.062-7.249h4.359l-3.062,7.249Zm7.181,0L58,164.341h4.359l-3.062,7.249Zm7.181,0,3.062-7.249h4.359l-3.062,7.249Zm7.181,0,3.062-7.249h4.689l-3.184,7.249Zm0,0" transform="translate(0 -133.838)" fill="#45a8bc"/>
  <path id="Path_2248" data-name="Path 2248" d="M104.14,337.734a1.3,1.3,0,0,0-1.3-1.3c-2.418,0-1.318,4.825,2.225,4.825s4.641-4.825,2.225-4.825a1.3,1.3,0,0,0-1.3,1.3.925.925,0,1,1-1.851,0Zm0,0" transform="translate(-84.028 -278.392)" fill="#45a8bc"/>
  <path id="Path_2249" data-name="Path 2249" d="M150.07,309.3a1.322,1.322,0,1,1-1.322-1.322A1.322,1.322,0,0,1,150.07,309.3Zm0,0" transform="translate(-121.992 -254.848)" fill="#45a8bc"/>
  <path id="Path_2250" data-name="Path 2250" d="M83.784,309.3a1.322,1.322,0,1,1-1.322-1.322A1.322,1.322,0,0,1,83.784,309.3Zm0,0" transform="translate(-67.142 -254.848)" fill="#45a8bc"/>
</svg>
