<svg xmlns="http://www.w3.org/2000/svg" width="101.285" height="172.83" viewBox="0 0 101.285 172.83">
  <g id="empresab" transform="translate(0)">
    <g id="Group_1040" data-name="Group 1040" transform="translate(0.003 30.782)">
      <g id="Group_1039" data-name="Group 1039">
        <path id="Path_2833" data-name="Path 2833" d="M265.577,272.725h20.964c5.1,0,11.821,0,15.3,2.1a13.715,13.715,0,0,1,6.8,12.063,13.345,13.345,0,0,1-8.578,12.949V300c7.126,1.456,11.009,6.8,11.009,13.925,0,8.5-6.073,16.593-17.566,16.593H265.577Zm7.685,24.851h15.389c8.739,0,12.3-3.157,12.3-9.23,0-8.014-5.664-9.145-12.3-9.145H273.262Zm0,26.469h19.272c6.636,0,10.849-4.047,10.849-10.36,0-7.529-6.073-9.634-12.552-9.634H273.262Z" transform="translate(-236.129 -250.985)"/>
        <path id="Path_2834" data-name="Path 2834" d="M332.114,302.667a43.963,43.963,0,1,1-43.969-43.957A43.963,43.963,0,0,1,332.114,302.667ZM288.145,252a50.638,50.638,0,1,0,50.647,50.638A50.638,50.638,0,0,0,288.145,252Z" transform="translate(-237.51 -252.004)"/>
      </g>
      <rect id="Rectangle_185" data-name="Rectangle 185" width="101.072" height="6.644" transform="translate(0 111.958)"/>
      <path id="Path_2835" data-name="Path 2835" d="M330.969,351.874c.125,0,.242-.006.354-.013a.849.849,0,0,0,.291-.067.49.49,0,0,0,.208-.175.58.58,0,0,0,.073-.328.474.474,0,0,0-.067-.279.413.413,0,0,0-.179-.161.706.706,0,0,0-.248-.084c-.093-.006-.182-.016-.279-.016H330.4v1.123Zm.242-1.568a1.464,1.464,0,0,1,.931.247.937.937,0,0,1,.308.761.889.889,0,0,1-.267.7,1.274,1.274,0,0,1-.669.263l1.01,1.551h-.584l-.964-1.518H330.4v1.518h-.555v-3.523Zm-2.485,2.774a2.3,2.3,0,0,0,.52.826,2.369,2.369,0,0,0,.792.546,2.431,2.431,0,0,0,.98.19,2.4,2.4,0,0,0,.981-.19,2.4,2.4,0,0,0,1.309-1.371,2.62,2.62,0,0,0,.194-1.017,2.594,2.594,0,0,0-.194-1.014,2.556,2.556,0,0,0-.518-.815A2.643,2.643,0,0,0,332,349.7a2.476,2.476,0,0,0-.981-.2,2.506,2.506,0,0,0-.98.2,2.429,2.429,0,0,0-.792.538,2.3,2.3,0,0,0-.52.815,2.611,2.611,0,0,0-.191,1.014,2.638,2.638,0,0,0,.191,1.017m-.5-2.214a3.184,3.184,0,0,1,.656-.948,3.071,3.071,0,0,1,.971-.632,2.973,2.973,0,0,1,1.167-.226,3.014,3.014,0,0,1,2.788,1.806,2.849,2.849,0,0,1,.243,1.2,2.814,2.814,0,0,1-.243,1.2,2.945,2.945,0,0,1-.656.961,2.9,2.9,0,0,1-.948.638,3.145,3.145,0,0,1-1.183.223,3.09,3.09,0,0,1-1.167-.223,2.95,2.95,0,0,1-.971-.638,3.063,3.063,0,0,1-.656-.961,2.811,2.811,0,0,1-.236-1.2,2.845,2.845,0,0,1,.236-1.2" transform="translate(-233.059 -247.229)"/>
    </g>
    <g id="Group_1041" data-name="Group 1041" transform="translate(0 0)">
      <path id="Path_2836" data-name="Path 2836" d="M250.745,222.665v3.272H241.4v3.793h8.578v3.024H241.4v4.339h9.544v3.272H237.508v-17.7Z" transform="translate(-237.508 -222.665)"/>
      <path id="Path_2837" data-name="Path 2837" d="M255.881,227.336v1.734h.047a5.034,5.034,0,0,1,1.676-1.536,4.537,4.537,0,0,1,2.244-.547,5.173,5.173,0,0,1,2.218.471,3.111,3.111,0,0,1,1.523,1.661,5.494,5.494,0,0,1,1.549-1.488,4.138,4.138,0,0,1,2.319-.644,6.771,6.771,0,0,1,1.883.25,3.8,3.8,0,0,1,1.489.792,3.631,3.631,0,0,1,.966,1.425,5.8,5.8,0,0,1,.347,2.119v8.577h-3.52v-7.262q0-.645-.049-1.215a2.6,2.6,0,0,0-.273-.991,1.654,1.654,0,0,0-.658-.669,2.366,2.366,0,0,0-1.177-.248,2.242,2.242,0,0,0-1.2.285,2.084,2.084,0,0,0-.72.743,3,3,0,0,0-.346,1.042,7.855,7.855,0,0,0-.086,1.177v7.139h-3.522v-7.188c0-.381-.008-.758-.023-1.128a3.18,3.18,0,0,0-.211-1.029,1.589,1.589,0,0,0-.619-.755,2.335,2.335,0,0,0-1.277-.285,2.6,2.6,0,0,0-.657.111,2.162,2.162,0,0,0-.793.422,2.47,2.47,0,0,0-.658.892,3.637,3.637,0,0,0-.272,1.526v7.436h-3.521V227.336Z" transform="translate(-236.767 -222.452)"/>
      <path id="Path_2838" data-name="Path 2838" d="M276.745,227.336v1.636h.048a3.889,3.889,0,0,1,1.638-1.513,5.014,5.014,0,0,1,2.18-.471,5.552,5.552,0,0,1,2.6.571,5.38,5.38,0,0,1,1.81,1.512,6.442,6.442,0,0,1,1.068,2.194,9.859,9.859,0,0,1,.345,2.616,8.919,8.919,0,0,1-.345,2.48,6.358,6.358,0,0,1-1.056,2.106,5.215,5.215,0,0,1-1.759,1.463,5.294,5.294,0,0,1-2.467.546,4.983,4.983,0,0,1-2.195-.484,4.175,4.175,0,0,1-1.649-1.425h-.048v6.073H273.4v-17.3Zm4.573,10.163a2.836,2.836,0,0,0,.942-.9,3.751,3.751,0,0,0,.508-1.3,7.73,7.73,0,0,0,.149-1.513,7.006,7.006,0,0,0-.163-1.511,3.992,3.992,0,0,0-.532-1.327,3,3,0,0,0-.954-.942,2.671,2.671,0,0,0-1.426-.359,2.716,2.716,0,0,0-1.45.359,2.883,2.883,0,0,0-.942.931,3.839,3.839,0,0,0-.508,1.314,7.769,7.769,0,0,0-.15,1.536,7.147,7.147,0,0,0,.162,1.513,3.894,3.894,0,0,0,.521,1.3,3,3,0,0,0,3.842.9" transform="translate(-235.742 -222.452)"/>
      <path id="Path_2839" data-name="Path 2839" d="M290.708,227.336v2.38h.049a4.248,4.248,0,0,1,.67-1.1,4.394,4.394,0,0,1,.966-.869,4.737,4.737,0,0,1,1.165-.557,4.176,4.176,0,0,1,1.288-.2,2.77,2.77,0,0,1,.769.124v3.273c-.166-.033-.364-.063-.6-.087a6.42,6.42,0,0,0-.667-.038,3.77,3.77,0,0,0-1.638.323,2.811,2.811,0,0,0-1.077.879,3.491,3.491,0,0,0-.582,1.3,7.036,7.036,0,0,0-.174,1.611v5.776h-3.52V227.336Z" transform="translate(-235.055 -222.452)"/>
      <path id="Path_2840" data-name="Path 2840" d="M299.925,237.078a3.6,3.6,0,0,0,4.115.235,2.21,2.21,0,0,0,.941-1.128h3.1a5.884,5.884,0,0,1-2.28,3.3,6.723,6.723,0,0,1-3.719.992,7.307,7.307,0,0,1-2.727-.484,5.661,5.661,0,0,1-2.057-1.376,6.173,6.173,0,0,1-1.3-2.132,7.787,7.787,0,0,1-.46-2.727,7.493,7.493,0,0,1,.47-2.679,6.206,6.206,0,0,1,3.41-3.569,6.65,6.65,0,0,1,2.665-.52,6.072,6.072,0,0,1,2.851.633,5.725,5.725,0,0,1,2,1.7,7.026,7.026,0,0,1,1.128,2.429,9.106,9.106,0,0,1,.248,2.852h-9.246a3.541,3.541,0,0,0,.867,2.479m3.979-6.743a2.478,2.478,0,0,0-1.921-.694,3.053,3.053,0,0,0-1.4.285,2.642,2.642,0,0,0-.891.706,2.585,2.585,0,0,0-.472.892,3.821,3.821,0,0,0-.16.844h5.725a4.066,4.066,0,0,0-.88-2.033" transform="translate(-234.653 -222.452)"/>
      <path id="Path_2841" data-name="Path 2841" d="M312.68,236.966a2.078,2.078,0,0,0,.609.67,2.58,2.58,0,0,0,.854.384,4.064,4.064,0,0,0,1,.125,3.711,3.711,0,0,0,.782-.088,2.7,2.7,0,0,0,.743-.272,1.688,1.688,0,0,0,.557-.5,1.29,1.29,0,0,0,.225-.781c0-.529-.353-.924-1.053-1.19a21.076,21.076,0,0,0-2.939-.792q-.77-.175-1.5-.409a5.138,5.138,0,0,1-1.3-.62,3.023,3.023,0,0,1-.917-.967,2.745,2.745,0,0,1-.346-1.426,3.867,3.867,0,0,1,.483-2.032,3.576,3.576,0,0,1,1.277-1.252,5.62,5.62,0,0,1,1.785-.645,11.113,11.113,0,0,1,2.032-.186,10.138,10.138,0,0,1,2.021.2,5.388,5.388,0,0,1,1.749.669,4.036,4.036,0,0,1,1.276,1.253,4.225,4.225,0,0,1,.607,1.97h-3.347a1.539,1.539,0,0,0-.768-1.374,3.5,3.5,0,0,0-1.637-.361,5.951,5.951,0,0,0-.644.038,2.147,2.147,0,0,0-.632.161,1.307,1.307,0,0,0-.485.359,1.064,1.064,0,0,0,.149,1.4,2.711,2.711,0,0,0,.9.485,11.5,11.5,0,0,0,1.278.335q.718.148,1.462.322a15.025,15.025,0,0,1,1.5.421,4.888,4.888,0,0,1,1.3.658,3.194,3.194,0,0,1,.917,1.016,2.993,2.993,0,0,1,.346,1.5,3.888,3.888,0,0,1-1.834,3.5,5.452,5.452,0,0,1-1.872.731,10.9,10.9,0,0,1-2.145.21,10.531,10.531,0,0,1-2.181-.222,5.76,5.76,0,0,1-1.9-.743,4.08,4.08,0,0,1-1.946-3.521h3.347a1.927,1.927,0,0,0,.235.979" transform="translate(-233.986 -222.452)"/>
      <path id="Path_2842" data-name="Path 2842" d="M322.873,229.22a4.2,4.2,0,0,1,1.389-1.314,6.067,6.067,0,0,1,1.9-.707,10.863,10.863,0,0,1,2.12-.211,14.319,14.319,0,0,1,1.958.137,5.951,5.951,0,0,1,1.809.532,3.576,3.576,0,0,1,1.339,1.1,3.075,3.075,0,0,1,.522,1.873V237.3a13.612,13.612,0,0,0,.1,1.662,2.964,2.964,0,0,0,.348,1.189h-3.569a4.58,4.58,0,0,1-.162-.605,5.323,5.323,0,0,1-.089-.633,4.567,4.567,0,0,1-1.982,1.214,7.942,7.942,0,0,1-2.331.347,6.317,6.317,0,0,1-1.709-.222,3.926,3.926,0,0,1-1.388-.695,3.218,3.218,0,0,1-.93-1.191,4.011,4.011,0,0,1-.335-1.71,3.758,3.758,0,0,1,.383-1.8,3.235,3.235,0,0,1,.993-1.128,4.487,4.487,0,0,1,1.389-.633,15.047,15.047,0,0,1,1.574-.334q.793-.124,1.561-.2a9.251,9.251,0,0,0,1.363-.224,2.368,2.368,0,0,0,.942-.433.954.954,0,0,0,.323-.831,1.866,1.866,0,0,0-.186-.9,1.366,1.366,0,0,0-.5-.52,1.939,1.939,0,0,0-.718-.248,5.8,5.8,0,0,0-.88-.063,2.664,2.664,0,0,0-1.636.447,1.993,1.993,0,0,0-.7,1.487h-3.52a4.1,4.1,0,0,1,.62-2.057m6.955,4.971a5.88,5.88,0,0,1-.721.185c-.256.05-.524.092-.8.125s-.562.073-.843.124a6.419,6.419,0,0,0-.78.2,2.362,2.362,0,0,0-.671.336,1.607,1.607,0,0,0-.458.532,1.727,1.727,0,0,0-.173.819,1.649,1.649,0,0,0,.173.792,1.329,1.329,0,0,0,.471.509,1.951,1.951,0,0,0,.695.26,4.441,4.441,0,0,0,.817.075,3.123,3.123,0,0,0,1.613-.347,2.31,2.31,0,0,0,.842-.831,2.667,2.667,0,0,0,.335-.979,6.813,6.813,0,0,0,.062-.793V233.88a1.6,1.6,0,0,1-.557.311" transform="translate(-233.358 -222.452)"/>
    </g>
    <g id="Group_1042" data-name="Group 1042" transform="translate(0.003 157.801)">
      <path id="Path_2843" data-name="Path 2843" d="M247.349,377.241a3.17,3.17,0,0,0-.7-.794,3.223,3.223,0,0,0-.955-.533,3.279,3.279,0,0,0-1.117-.192,3.7,3.7,0,0,0-1.811.412,3.407,3.407,0,0,0-1.207,1.107,4.835,4.835,0,0,0-.676,1.58,7.876,7.876,0,0,0-.211,1.831,7.3,7.3,0,0,0,.211,1.76,4.748,4.748,0,0,0,.676,1.54,3.448,3.448,0,0,0,1.207,1.1,3.7,3.7,0,0,0,1.811.412,2.916,2.916,0,0,0,2.263-.885,4.085,4.085,0,0,0,1-2.333h3.057a7.28,7.28,0,0,1-.623,2.435,5.829,5.829,0,0,1-1.328,1.85,5.631,5.631,0,0,1-1.932,1.168,7.083,7.083,0,0,1-2.434.4,7.357,7.357,0,0,1-2.968-.573,6.327,6.327,0,0,1-2.223-1.58,6.951,6.951,0,0,1-1.388-2.364,8.672,8.672,0,0,1-.484-2.927,8.969,8.969,0,0,1,.484-2.988,7.168,7.168,0,0,1,1.388-2.4,6.345,6.345,0,0,1,2.223-1.609,7.731,7.731,0,0,1,5.211-.242,6.185,6.185,0,0,1,1.892,1,5.415,5.415,0,0,1,1.378,1.621,5.781,5.781,0,0,1,.684,2.213h-3.057a2.607,2.607,0,0,0-.363-1" transform="translate(-237.51 -373.067)"/>
      <path id="Path_2844" data-name="Path 2844" d="M254.726,385.09a2.928,2.928,0,0,0,3.34.192,1.79,1.79,0,0,0,.765-.916h2.515a4.778,4.778,0,0,1-1.851,2.677,5.445,5.445,0,0,1-3.017.8,5.949,5.949,0,0,1-2.214-.391,4.6,4.6,0,0,1-1.67-1.118,4.983,4.983,0,0,1-1.055-1.73,6.324,6.324,0,0,1-.371-2.214,6.059,6.059,0,0,1,.382-2.172,5.028,5.028,0,0,1,2.766-2.9,5.377,5.377,0,0,1,2.163-.423,4.962,4.962,0,0,1,2.313.513,4.643,4.643,0,0,1,1.62,1.378,5.685,5.685,0,0,1,.916,1.972,7.413,7.413,0,0,1,.2,2.315h-7.506a2.885,2.885,0,0,0,.7,2.011m3.229-5.473a2.007,2.007,0,0,0-1.559-.563,2.475,2.475,0,0,0-1.137.232,2.19,2.19,0,0,0-.724.573,2.1,2.1,0,0,0-.382.725,3.17,3.17,0,0,0-.131.684h4.647a3.306,3.306,0,0,0-.713-1.65" transform="translate(-236.838 -372.878)"/>
      <path id="Path_2845" data-name="Path 2845" d="M264.6,377.182v1.933h.042a3.543,3.543,0,0,1,.542-.9,3.606,3.606,0,0,1,.785-.705,3.86,3.86,0,0,1,.945-.451,3.429,3.429,0,0,1,1.046-.16,2.223,2.223,0,0,1,.624.1v2.655c-.135-.026-.295-.049-.482-.07a5.173,5.173,0,0,0-.545-.029,3.055,3.055,0,0,0-1.327.261,2.281,2.281,0,0,0-.875.715,2.872,2.872,0,0,0-.474,1.056,5.766,5.766,0,0,0-.141,1.307v4.688h-2.857v-10.4Z" transform="translate(-236.311 -372.878)"/>
      <path id="Path_2846" data-name="Path 2846" d="M275.845,377.315v1.913h-2.093v5.152a.968.968,0,0,0,1.208,1.207c.161,0,.316-.006.463-.021a3.945,3.945,0,0,0,.423-.06v2.213a6.688,6.688,0,0,1-.8.081c-.3.013-.583.02-.866.02a8.427,8.427,0,0,1-1.258-.09,2.963,2.963,0,0,1-1.046-.351,1.874,1.874,0,0,1-.714-.746,2.642,2.642,0,0,1-.262-1.266v-6.137h-1.73v-1.913h1.73V374.2h2.857v3.118Z" transform="translate(-235.953 -373.011)"/>
      <path id="Path_2847" data-name="Path 2847" d="M276.913,373.391h2.857v2.355h-2.857Zm2.857,14.368h-2.857v-10.4h2.857Z" transform="translate(-235.571 -373.051)"/>
      <path id="Path_2848" data-name="Path 2848" d="M280.748,379.266v-1.912h1.71v-.8a3.112,3.112,0,0,1,.864-2.273,3.506,3.506,0,0,1,2.617-.887q.381,0,.765.03c.253.021.5.037.744.05V375.6a8.886,8.886,0,0,0-1.047-.06,1.086,1.086,0,0,0-.834.272,1.327,1.327,0,0,0-.252.915v.623h1.97v1.912h-1.97v8.491h-2.857v-8.491Z" transform="translate(-235.383 -373.051)"/>
      <path id="Path_2849" data-name="Path 2849" d="M288.246,373.391H291.1v2.355h-2.857Zm2.858,14.368h-2.857v-10.4H291.1Z" transform="translate(-235.014 -373.051)"/>
      <path id="Path_2850" data-name="Path 2850" d="M297.335,379.055a2.009,2.009,0,0,0-1.146.311,2.461,2.461,0,0,0-.755.806,3.474,3.474,0,0,0-.413,1.086,5.963,5.963,0,0,0-.122,1.178,5.711,5.711,0,0,0,.122,1.147,3.572,3.572,0,0,0,.392,1.056,2.242,2.242,0,0,0,.735.775,2.02,2.02,0,0,0,1.127.3,2.1,2.1,0,0,0,1.579-.573,2.721,2.721,0,0,0,.694-1.54h2.757a4.706,4.706,0,0,1-1.611,3.159,5.2,5.2,0,0,1-3.4,1.087,5.7,5.7,0,0,1-2.142-.392,4.751,4.751,0,0,1-1.66-1.1,5.02,5.02,0,0,1-1.068-1.681,5.843,5.843,0,0,1-.381-2.144,6.942,6.942,0,0,1,.351-2.242,5.051,5.051,0,0,1,1.036-1.792,4.775,4.775,0,0,1,1.671-1.176,5.662,5.662,0,0,1,2.253-.423,6.524,6.524,0,0,1,1.78.241,4.742,4.742,0,0,1,1.53.736,3.786,3.786,0,0,1,1.58,2.967h-2.8a1.917,1.917,0,0,0-2.113-1.79" transform="translate(-234.827 -372.878)"/>
      <path id="Path_2851" data-name="Path 2851" d="M303.378,378.712a3.4,3.4,0,0,1,1.127-1.066,4.853,4.853,0,0,1,1.537-.573,8.745,8.745,0,0,1,1.722-.172,11.369,11.369,0,0,1,1.589.112,4.8,4.8,0,0,1,1.468.431,2.9,2.9,0,0,1,1.087.895,2.51,2.51,0,0,1,.423,1.52v5.412a10.7,10.7,0,0,0,.081,1.348,2.432,2.432,0,0,0,.281.965h-2.9a3.732,3.732,0,0,1-.13-.492,3.921,3.921,0,0,1-.071-.514,3.7,3.7,0,0,1-1.609.986,6.427,6.427,0,0,1-1.892.282,5.109,5.109,0,0,1-1.388-.182,3.161,3.161,0,0,1-1.127-.563,2.624,2.624,0,0,1-.754-.965,3.269,3.269,0,0,1-.272-1.388,3.049,3.049,0,0,1,.312-1.46,2.626,2.626,0,0,1,.8-.915,3.586,3.586,0,0,1,1.126-.513,12.366,12.366,0,0,1,1.279-.273c.43-.066.851-.121,1.267-.159a7.843,7.843,0,0,0,1.107-.183,1.907,1.907,0,0,0,.764-.351.769.769,0,0,0,.262-.674,1.512,1.512,0,0,0-.151-.734,1.081,1.081,0,0,0-.4-.422,1.57,1.57,0,0,0-.584-.2,4.754,4.754,0,0,0-.712-.05,2.179,2.179,0,0,0-1.329.361,1.622,1.622,0,0,0-.563,1.208h-2.858a3.318,3.318,0,0,1,.5-1.669m5.643,4.034a4.631,4.631,0,0,1-.583.151c-.208.041-.426.073-.654.1s-.456.06-.684.1a5.234,5.234,0,0,0-.633.162,1.872,1.872,0,0,0-.546.273,1.319,1.319,0,0,0-.371.431,1.4,1.4,0,0,0-.14.664,1.351,1.351,0,0,0,.14.644,1.075,1.075,0,0,0,.383.412,1.618,1.618,0,0,0,.563.212,3.618,3.618,0,0,0,.664.06,2.513,2.513,0,0,0,1.307-.282,1.889,1.889,0,0,0,.685-.673,2.19,2.19,0,0,0,.271-.8,5.413,5.413,0,0,0,.05-.643V382.5a1.253,1.253,0,0,1-.453.251" transform="translate(-234.31 -372.878)"/>
      <path id="Path_2852" data-name="Path 2852" d="M320.62,386.429a2.957,2.957,0,0,1-1.319,1.219,4.4,4.4,0,0,1-1.841.37,4.452,4.452,0,0,1-2.051-.451,4.136,4.136,0,0,1-1.459-1.229,5.58,5.58,0,0,1-.865-1.781,7.484,7.484,0,0,1-.292-2.093,7.035,7.035,0,0,1,.292-2.021,5.267,5.267,0,0,1,.865-1.721,4.312,4.312,0,0,1,1.44-1.2,4.26,4.26,0,0,1,2.011-.452,4.078,4.078,0,0,1,1.761.392,3.061,3.061,0,0,1,1.318,1.156h.041v-5.232h2.857v14.367h-2.715v-1.328Zm-.121-5.14a3.021,3.021,0,0,0-.412-1.046,2.327,2.327,0,0,0-.754-.734,2.218,2.218,0,0,0-1.168-.281,2.325,2.325,0,0,0-1.188.281,2.217,2.217,0,0,0-.773.744,3.273,3.273,0,0,0-.424,1.058,5.789,5.789,0,0,0-.13,1.237,5.256,5.256,0,0,0,.141,1.206,3.342,3.342,0,0,0,.452,1.078,2.5,2.5,0,0,0,.786.763,2.117,2.117,0,0,0,1.136.294,2.257,2.257,0,0,0,1.177-.283,2.127,2.127,0,0,0,.755-.755,3.419,3.419,0,0,0,.4-1.074,6.418,6.418,0,0,0,.121-1.247,6.251,6.251,0,0,0-.121-1.238" transform="translate(-233.806 -373.051)"/>
      <path id="Path_2853" data-name="Path 2853" d="M324.925,378.712a3.411,3.411,0,0,1,1.127-1.066,4.867,4.867,0,0,1,1.538-.573,8.744,8.744,0,0,1,1.722-.172,11.367,11.367,0,0,1,1.589.112,4.782,4.782,0,0,1,1.468.431,2.885,2.885,0,0,1,1.088.895,2.5,2.5,0,0,1,.423,1.52v5.412a10.715,10.715,0,0,0,.081,1.348,2.378,2.378,0,0,0,.282.965h-2.9a3.73,3.73,0,0,1-.131-.492,4.307,4.307,0,0,1-.07-.514,3.71,3.71,0,0,1-1.61.986,6.42,6.42,0,0,1-1.891.282,5.109,5.109,0,0,1-1.388-.182,3.158,3.158,0,0,1-1.128-.563,2.625,2.625,0,0,1-.754-.965,3.27,3.27,0,0,1-.271-1.388,3.024,3.024,0,0,1,.312-1.46,2.615,2.615,0,0,1,.8-.915,3.554,3.554,0,0,1,1.128-.513,12.154,12.154,0,0,1,1.277-.273c.429-.066.851-.121,1.268-.159a7.819,7.819,0,0,0,1.107-.183,1.914,1.914,0,0,0,.764-.351.774.774,0,0,0,.261-.674,1.514,1.514,0,0,0-.15-.734,1.088,1.088,0,0,0-.4-.422,1.557,1.557,0,0,0-.584-.2,4.768,4.768,0,0,0-.713-.05,2.182,2.182,0,0,0-1.329.361,1.622,1.622,0,0,0-.562,1.208h-2.858a3.327,3.327,0,0,1,.5-1.669m5.645,4.034a4.82,4.82,0,0,1-.583.151c-.21.041-.427.073-.656.1s-.455.06-.683.1a5.2,5.2,0,0,0-.634.162,1.88,1.88,0,0,0-.545.273,1.319,1.319,0,0,0-.371.431,1.387,1.387,0,0,0-.141.664,1.338,1.338,0,0,0,.141.644,1.075,1.075,0,0,0,.383.412,1.611,1.611,0,0,0,.563.212,3.617,3.617,0,0,0,.664.06,2.511,2.511,0,0,0,1.306-.282A1.89,1.89,0,0,0,330.7,385a2.172,2.172,0,0,0,.272-.8,5.584,5.584,0,0,0,.049-.643V382.5a1.251,1.251,0,0,1-.451.251" transform="translate(-233.25 -372.878)"/>
    </g>
  </g>
</svg>
