<svg xmlns="http://www.w3.org/2000/svg" width="51.934" height="58.788" viewBox="0 0 51.934 58.788">
  <g id="estrellas" transform="translate(376.637 -604.814)">
    <path id="Path_2901" data-name="Path 2901" d="M-285.946,723.4h.821a3.666,3.666,0,0,1,3.683,3.681v.821a2.838,2.838,0,0,0,2.254,2.664,2.416,2.416,0,0,0,2.663-2.456v-.818a3.883,3.883,0,0,1,3.886-3.892h.617a2.838,2.838,0,0,0,2.662-2.253,2.418,2.418,0,0,0-2.454-2.659h-.825a3.884,3.884,0,0,1-3.886-3.89v-.615a2.84,2.84,0,0,0-2.254-2.665,2.421,2.421,0,0,0-2.663,2.459V714.8a3.669,3.669,0,0,1-3.683,3.687h-1.021a2.413,2.413,0,0,0-2.46,2.659,2.827,2.827,0,0,0,2.66,2.253" transform="translate(-55.364 -66.984)" fill="#ebbb3c"/>
    <path id="Path_2902" data-name="Path 2902" d="M-373.955,666.6h.821a3.665,3.665,0,0,1,3.683,3.685v1.02a2.834,2.834,0,0,0,2.253,2.663,2.416,2.416,0,0,0,2.658-2.454V670.7a3.892,3.892,0,0,1,3.892-3.9h.616a2.833,2.833,0,0,0,2.661-2.249,2.422,2.422,0,0,0-2.46-2.663h-.817A3.889,3.889,0,0,1-364.54,658v-.61a2.839,2.839,0,0,0-2.248-2.664,2.414,2.414,0,0,0-2.663,2.454v1.03a3.669,3.669,0,0,1-3.683,3.68h-1.027a2.409,2.409,0,0,0-2.451,2.663,2.647,2.647,0,0,0,2.658,2.049" transform="translate(0 -31.385)" fill="#ebbb3c"/>
    <path id="Path_2903" data-name="Path 2903" d="M-303.5,659.284h.616a2.713,2.713,0,0,1,2.66,2.662v.616a1.671,1.671,0,0,0,1.639,1.839,2.021,2.021,0,0,0,2.046-1.839v-.616a2.8,2.8,0,0,1,2.861-2.871h.408a1.671,1.671,0,0,0,1.849-1.634,2.023,2.023,0,0,0-1.849-2.049h-.607a2.8,2.8,0,0,1-2.868-2.868v-.2a1.674,1.674,0,0,0-1.639-1.844,2.024,2.024,0,0,0-2.046,1.844v.818a2.709,2.709,0,0,1-2.661,2.659h-.815a1.891,1.891,0,0,0-1.843,2.053,2.95,2.95,0,0,0,2.249,1.43" transform="translate(-44.596 -28.727)" fill="#ebbb3c"/>
    <path id="Path_2904" data-name="Path 2904" d="M-336.392,742.628a2.66,2.66,0,0,1-2.659-2.659,2.663,2.663,0,0,1,2.659-2.664,2.661,2.661,0,0,1,2.66,2.664,2.657,2.657,0,0,1-2.66,2.659" transform="translate(-23.644 -83.347)" fill="#ebbb3c"/>
    <path id="Path_2905" data-name="Path 2905" d="M-336.388,610.135a2.66,2.66,0,0,1-2.663-2.663,2.657,2.657,0,0,1,2.663-2.658,2.655,2.655,0,0,1,2.656,2.658,2.658,2.658,0,0,1-2.656,2.663" transform="translate(-23.644)" fill="#ebbb3c"/>
  </g>
</svg>
