<svg xmlns="http://www.w3.org/2000/svg" width="14.48" height="19.588" viewBox="0 0 14.48 19.588">
  <g id="location-point" transform="translate(-33.361)">
    <path id="Path_2128" data-name="Path 2128" d="M76.429,38.8A4.269,4.269,0,1,0,80.7,43.069,4.274,4.274,0,0,0,76.429,38.8Zm0,7.39a3.121,3.121,0,1,1,3.121-3.121A3.125,3.125,0,0,1,76.429,46.19Z" transform="translate(-35.828 -35.83)" fill="#ecbb3c"/>
    <path id="Path_2129" data-name="Path 2129" d="M40.6,0a7.248,7.248,0,0,0-7.24,7.24c0,2.3,1.931,5.732,3.082,7.572a32.847,32.847,0,0,0,2.291,3.243c1.156,1.414,1.57,1.533,1.867,1.533s.692-.118,1.845-1.534a33.821,33.821,0,0,0,2.292-3.242c1.159-1.844,3.1-5.28,3.1-7.573A7.248,7.248,0,0,0,40.6,0Zm3.341,13.918a23.115,23.115,0,0,1-3.348,4.455,21.807,21.807,0,0,1-3.349-4.447C35.507,11.092,34.51,8.655,34.51,7.24a6.091,6.091,0,1,1,12.183,0C46.693,8.647,45.691,11.081,43.943,13.918Z" fill="#ecbb3c"/>
  </g>
</svg>
