<svg xmlns="http://www.w3.org/2000/svg" width="168" height="92" viewBox="0 0 168 92">
  <g id="logo-footer" transform="translate(-139 -4206.028)">
    <g id="Ilustración_1" data-name="Ilustración 1" transform="translate(265.165 4332.193)">
      <g id="Group_2" data-name="Group 2" transform="translate(-126.165 -126.165)">
        <path id="Path_1" data-name="Path 1" d="M46,0A46,46,0,1,0,92,46,46,46,0,0,0,46,0Z" transform="translate(0)" fill="#fff"/>
        <g id="Group_1" data-name="Group 1" transform="translate(5.834 6.437)">
          <path id="Path_2" data-name="Path 2" d="M5.416,37.094a1.564,1.564,0,0,1-1.837-1.182,1.582,1.582,0,0,1,.1-1.028.249.249,0,0,1,.324-.119.255.255,0,0,1,.119.324,1.045,1.045,0,0,0-.077.715,1.105,1.105,0,0,0,.463.678,1.036,1.036,0,0,0,1.443-.326,1.128,1.128,0,0,0,.128-.813,1.062,1.062,0,0,0-.378-.617.261.261,0,0,1-.032-.344.25.25,0,0,1,.341-.032,1.573,1.573,0,0,1,.54.883,1.553,1.553,0,0,1-1.139,1.863Z" transform="translate(-2.75 12.571)" fill="#c33168"/>
          <path id="Path_3" data-name="Path 3" d="M3.455,32.006a1.554,1.554,0,0,1,2.136-.222,1.371,1.371,0,0,1,.557.959A1.434,1.434,0,0,1,5.8,33.823a1.581,1.581,0,0,1-2.138.227,1.419,1.419,0,0,1-.563-.983A1.349,1.349,0,0,1,3.455,32.006Zm1.081-.057a1.081,1.081,0,0,0-.71.364.914.914,0,0,0-.228.7.926.926,0,0,0,.372.656,1.07,1.07,0,0,0,.772.208,1.039,1.039,0,0,0,.7-.363.911.911,0,0,0-.136-1.357,1.113,1.113,0,0,0-.78-.208Z" transform="translate(-2.99 11.029)" fill="#c33168"/>
          <path id="Path_4" data-name="Path 4" d="M5.742,30.587a.232.232,0,0,1,.23.232.228.228,0,0,1-.235.228l-2.47-.032h0a.232.232,0,0,1-.144-.42l1.919-1.341-1.749-.025a.232.232,0,1,1,0-.463l2.47.034a.233.233,0,0,1,.227.238.225.225,0,0,1-.085.168l-.029.023-1.9,1.334Z" transform="translate(-3.027 9.565)" fill="#c33168"/>
          <path id="Path_5" data-name="Path 5" d="M5.33,28.314a.222.222,0,0,1,0-.309,1.378,1.378,0,0,0,.424-.772.911.911,0,0,0-.086-.543.391.391,0,0,0-.284-.221.25.25,0,0,0-.139.023.428.428,0,0,0-.14.108,1.613,1.613,0,0,0-.27.551v.011a2.249,2.249,0,0,1-.235.519.9.9,0,0,1-.377.357.633.633,0,0,1-.355.051.772.772,0,0,1-.571-.414,1.212,1.212,0,0,1-.133-.756,1.679,1.679,0,0,1,.451-.878.224.224,0,0,1,.309-.02.213.213,0,0,1,.026.309,1.27,1.27,0,0,0-.353.65.83.83,0,0,0,.083.486.33.33,0,0,0,.245.193.239.239,0,0,0,.125-.019.378.378,0,0,0,.125-.1,1.524,1.524,0,0,0,.245-.5v-.011a2.47,2.47,0,0,1,.25-.557,1.039,1.039,0,0,1,.4-.38.707.707,0,0,1,.372-.054.84.84,0,0,1,.605.443,1.354,1.354,0,0,1,.142.812,1.84,1.84,0,0,1-.556,1.028A.228.228,0,0,1,5.33,28.314Z" transform="translate(-2.96 8.044)" fill="#c33168"/>
          <path id="Path_6" data-name="Path 6" d="M6.7,24.9a1.235,1.235,0,0,1-1.483.906l-1.47-.357A.234.234,0,1,1,3.861,25l1.47.35a.753.753,0,0,0,.912-.554.763.763,0,0,0-.554-.915l-1.468-.353a.238.238,0,0,1,.108-.463l1.466.358A1.221,1.221,0,0,1,6.7,24.9Z" transform="translate(-2.731 6.462)" fill="#c33168"/>
          <path id="Path_7" data-name="Path 7" d="M6.888,22.938l-2.374-.813a.233.233,0,0,1-.154-.3.241.241,0,0,1,.3-.154l2.147.735.374-1.09a.244.244,0,0,1,.309-.145.235.235,0,0,1,.142.295l-.443,1.306h0a.235.235,0,0,1-.3.164Z" transform="translate(-2.309 5.431)" fill="#c33168"/>
          <path id="Path_8" data-name="Path 8" d="M6.219,18.933l-.276.617,2.067.926a.23.23,0,0,1,.12.309.238.238,0,0,1-.309.114l-2.068-.926-.275.617a.241.241,0,0,1-.309.116.233.233,0,0,1-.12-.309l.742-1.658a.228.228,0,0,1,.309-.116.242.242,0,0,1,.119.309Z" transform="translate(-1.939 4.04)" fill="#c33168"/>
          <path id="Path_9" data-name="Path 9" d="M7.47,16.338a1.584,1.584,0,0,1,1.144.17,1.558,1.558,0,0,1,.713.915A1.389,1.389,0,0,1,9.2,18.529a1.446,1.446,0,0,1-.917.673,1.582,1.582,0,0,1-1.852-1.081,1.408,1.408,0,0,1,.13-1.131A1.389,1.389,0,0,1,7.47,16.338Zm.9.59a1.116,1.116,0,0,0-.789-.125.917.917,0,0,0-.6.429.926.926,0,0,0-.085.741,1.1,1.1,0,0,0,1.278.752.912.912,0,0,0,.685-1.175,1.09,1.09,0,0,0-.492-.622Z" transform="translate(-1.209 2.787)" fill="#c33168"/>
          <path id="Path_10" data-name="Path 10" d="M11.057,15.189a.233.233,0,0,1,.154.295.651.651,0,0,1-.043.083h0a.327.327,0,0,1-.137.107.375.375,0,0,1-.2.017,1.125,1.125,0,0,1-.463-.227.349.349,0,0,0-.174-.071.384.384,0,0,0-.174.028.746.746,0,0,0-.222.13l-.3.4.738.554a.235.235,0,0,1-.281.377l-2.007-1.5a.23.23,0,0,1-.045-.326h0l.451-.6a.906.906,0,0,1,1.27-.188.888.888,0,0,1,.361.681.651.651,0,0,1,.213-.025.789.789,0,0,1,.451.154,1.187,1.187,0,0,0,.215.137A.205.205,0,0,1,11.057,15.189Zm-1.723-.55a.438.438,0,0,0-.617.09l-.309.418.7.523.309-.417a.437.437,0,0,0-.086-.616Z" transform="translate(-0.403 1.584)" fill="#c33168"/>
          <path id="Path_11" data-name="Path 11" d="M11.879,13.5l-.693.758.262.526a.242.242,0,0,1-.037.262.21.21,0,0,1-.068.052.241.241,0,0,1-.32-.107l-1.2-2.38a.238.238,0,0,1,.039-.267.244.244,0,0,1,.25-.066l2.479,1a.238.238,0,0,1,.131.309c-.011.022-.029.043-.046.069a.228.228,0,0,1-.255.057Zm-.463-.19-.9-.361.441.868Z" transform="translate(0.653 0.596)" fill="#c33168"/>
          <path id="Path_12" data-name="Path 12" d="M14.093,12.371,12.549,10.4a.228.228,0,0,1,.04-.329h0l1.081-.849A.235.235,0,0,1,14,9.261a.23.23,0,0,1-.034.333l-.9.712.479.617.772-.617a.236.236,0,0,1,.329.043.232.232,0,0,1-.039.327l-.772.617.486.617.9-.713a.247.247,0,0,1,.333.042.244.244,0,0,1-.039.329l-1.081.857h-.009a.236.236,0,0,1-.33-.054Z" transform="translate(2.121 -1.085)" fill="#c33168"/>
          <path id="Path_13" data-name="Path 13" d="M16.243,10.81a.236.236,0,0,1-.068.318.232.232,0,0,1-.324-.076L14.537,8.964h0a.247.247,0,0,1-.025-.218.236.236,0,0,1,.3-.128l2.172.877-.926-1.477a.232.232,0,0,1,.391-.247l1.318,2.085a.247.247,0,0,1-.076.324.239.239,0,0,1-.2.022.041.041,0,0,1-.031-.009L15.31,9.316Z" transform="translate(3.209 -1.9)" fill="#c33168"/>
          <path id="Path_14" data-name="Path 14" d="M19.472,8.915,18.507,6.6a.232.232,0,0,1,.13-.309h0l1.27-.525a.239.239,0,0,1,.309.12.252.252,0,0,1-.13.309l-1.059.437.295.719.912-.38a.237.237,0,1,1,.182.437l-.915.378.392.942a.238.238,0,0,1-.438.181Z" transform="translate(5.378 -2.948)" fill="#c33168"/>
          <path id="Path_15" data-name="Path 15" d="M21.562,8.057l-.735-2.4a.232.232,0,0,1,.154-.289h.009l1.315-.4a.228.228,0,0,1,.289.154.233.233,0,0,1-.154.293l-1.1.34.227.744.946-.29a.235.235,0,1,1,.133.449l-.942.29.23.747,1.1-.34a.241.241,0,0,1,.293.162.238.238,0,0,1-.154.29l-1.315.4h-.012A.232.232,0,0,1,21.562,8.057Z" transform="translate(6.644 -3.379)" fill="#c33168"/>
          <path id="Path_16" data-name="Path 16" d="M23.7,7.308l-.506-2.453a.235.235,0,0,1,.182-.278.241.241,0,0,1,.279.184l.463,2.217,1.127-.227a.236.236,0,1,1,.094.463l-1.348.281h0a.233.233,0,0,1-.292-.187Z" transform="translate(7.932 -3.586)" fill="#c33168"/>
          <path id="Path_17" data-name="Path 17" d="M25.535,4.438a.232.232,0,0,1,.2-.262.238.238,0,0,1,.265.2l.309,2.484a.245.245,0,0,1-.207.267.235.235,0,0,1-.261-.2Z" transform="translate(9.207 -3.804)" fill="#c33168"/>
          <path id="Path_18" data-name="Path 18" d="M27.1,5.519a1.564,1.564,0,0,1,1.505-1.584,1.585,1.585,0,0,1,.993.295.245.245,0,0,1-.282.4,1.04,1.04,0,0,0-.692-.211,1.148,1.148,0,0,0-.753.332,1.059,1.059,0,0,0-.284.747,1.006,1.006,0,0,0,.338.729,1.1,1.1,0,0,0,.772.281,1.07,1.07,0,0,0,.675-.258.245.245,0,0,1,.309.377,1.6,1.6,0,0,1-.971.366A1.556,1.556,0,0,1,27.1,5.519Z" transform="translate(10.059 -3.934)" fill="#c33168"/>
          <path id="Path_19" data-name="Path 19" d="M30.164,4.237a.227.227,0,0,1,.244-.219.239.239,0,0,1,.228.244L30.5,6.769a.241.241,0,0,1-.25.222.233.233,0,0,1-.222-.245Z" transform="translate(11.651 -3.889)" fill="#c33168"/>
          <path id="Path_20" data-name="Path 20" d="M31.515,6.837l.357-2.478a.227.227,0,0,1,.262-.2l.5.074a1.485,1.485,0,1,1-.424,2.933l-.5-.071A.232.232,0,0,1,31.515,6.837Zm.5-.165.264.034A1.014,1.014,0,0,0,32.563,4.7L32.3,4.663Z" transform="translate(12.458 -3.813)" fill="#c33168"/>
          <path id="Path_21" data-name="Path 21" d="M35.593,7.059l-1-.245-.337.488a.23.23,0,0,1-.247.091.361.361,0,0,1-.076-.031.236.236,0,0,1-.062-.329l1.507-2.209a.23.23,0,0,1,.252-.091.236.236,0,0,1,.187.2l.309,2.652a.245.245,0,0,1-.213.264.173.173,0,0,1-.077,0,.238.238,0,0,1-.176-.2Zm-.059-.492L35.419,5.6l-.551.807Z" transform="translate(13.718 -3.504)" fill="#c33168"/>
          <path id="Path_22" data-name="Path 22" d="M36.294,7.835l.81-2.369a.228.228,0,0,1,.295-.147l.475.154a1.488,1.488,0,1,1-.963,2.816l-.474-.165a.23.23,0,0,1-.144-.289Zm.523-.073.245.085a1.015,1.015,0,0,0,.661-1.919l-.25-.085Z" transform="translate(15.051 -3.189)" fill="#c33168"/>
          <path id="Path_23" data-name="Path 23" d="M43.218,8.363a1.564,1.564,0,0,1-.171,1.144,1.544,1.544,0,0,1-.9.719,1.389,1.389,0,0,1-1.778-1.031,1.588,1.588,0,0,1,1.081-1.86,1.436,1.436,0,0,1,1.127.125,1.389,1.389,0,0,1,.647.9Zm-.587.9a1.09,1.09,0,0,0,.12-.787.88.88,0,0,0-.432-.594.914.914,0,0,0-.741-.088,1.1,1.1,0,0,0-.617.5,1.065,1.065,0,0,0-.116.783.912.912,0,0,0,.441.617.948.948,0,0,0,.736.074,1.081,1.081,0,0,0,.605-.5Z" transform="translate(17.25 -2.119)" fill="#c33168"/>
          <path id="Path_24" data-name="Path 24" d="M44.355,11.953a.23.23,0,0,1-.3.154.357.357,0,0,1-.085-.04h0a.442.442,0,0,1-.1-.139.463.463,0,0,1-.022-.2,1.273,1.273,0,0,1,.233-.463.361.361,0,0,0,.068-.176.523.523,0,0,0-.028-.179.8.8,0,0,0-.134-.222l-.4-.309-.55.742a.236.236,0,0,1-.329.048.23.23,0,0,1-.049-.327L44.14,8.827a.233.233,0,0,1,.326-.048h0l.607.448a.906.906,0,0,1,.188,1.273.886.886,0,0,1-.678.363.608.608,0,0,1,.022.216.762.762,0,0,1-.154.452,1.121,1.121,0,0,0-.134.213A.219.219,0,0,1,44.355,11.953Zm.539-1.727a.44.44,0,0,0-.09-.617L44.383,9.3l-.52.7.421.309a.438.438,0,0,0,.61-.086Z" transform="translate(18.489 -1.325)" fill="#c33168"/>
          <path id="Path_25" data-name="Path 25" d="M45.2,11.083a1.544,1.544,0,0,1,2.189-.062,1.615,1.615,0,0,1,.483.9.249.249,0,0,1-.2.284A.255.255,0,0,1,47.395,12a1.067,1.067,0,0,0-.335-.617,1.039,1.039,0,0,0-.772-.295,1.006,1.006,0,0,0-1,1.081,1.07,1.07,0,0,0,.35.749,1.235,1.235,0,0,0,.539.273l.4-.429-.446-.414A.238.238,0,1,1,46.452,12l.617.571h0a.244.244,0,0,1,.023.343l-.636.687a.253.253,0,0,1-.063.043l-.015.009h0a.185.185,0,0,1-.13.025,1.554,1.554,0,0,1-.926-.414,1.534,1.534,0,0,1-.12-2.181Z" transform="translate(19.683 -0.312)" fill="#c33168"/>
          <path id="Path_26" data-name="Path 26" d="M48.044,14.849l-.675-.772-.556.2a.239.239,0,0,1-.259-.073.191.191,0,0,1-.042-.071.241.241,0,0,1,.142-.309l2.507-.926a.235.235,0,0,1,.256.071.227.227,0,0,1,.037.269l-1.278,2.351a.252.252,0,0,1-.326.09.154.154,0,0,1-.06-.048.224.224,0,0,1-.028-.262Zm.238-.435.463-.858-.926.333Z" transform="translate(20.605 0.933)" fill="#c33168"/>
          <path id="Path_27" data-name="Path 27" d="M48.475,16.39a.241.241,0,0,1-.323-.056.235.235,0,0,1,.06-.327l2.031-1.4h0a.238.238,0,0,1,.215-.034.233.233,0,0,1,.142.293l-.784,2.209,1.442-.994a.228.228,0,0,1,.309.056.235.235,0,0,1-.057.326l-2.027,1.4a.239.239,0,0,1-.326-.059.222.222,0,0,1-.026-.194.043.043,0,0,1,0-.031l.772-2.19Z" transform="translate(21.482 1.844)" fill="#c33168"/>
          <path id="Path_28" data-name="Path 28" d="M51.875,16.982a.225.225,0,0,1,.309.086.239.239,0,0,1-.086.326l-2.175,1.235a.23.23,0,0,1-.32-.093.227.227,0,0,1,.09-.318Z" transform="translate(22.275 3.143)" fill="#c33168"/>
          <path id="Path_29" data-name="Path 29" d="M53.465,20.438l-2.589-.522.579,1.235a.244.244,0,0,1-.116.318.239.239,0,0,1-.309-.12l-.772-1.656c0-.012-.009-.025-.012-.043v-.012a.054.054,0,0,0,0-.029v-.056h0v-.019a.083.083,0,0,0,.009-.025.034.034,0,0,1,0-.023.017.017,0,0,1,.014-.015c.014,0,.009-.015.015-.019l.012-.022s.012,0,.019-.019,0,0,.012-.011a.163.163,0,0,0,.026-.02h.015a.059.059,0,0,1,.031-.009l.02-.011h.02a.025.025,0,0,0,.022,0,.039.039,0,0,0,.025,0h.026l2.589.512-.576-1.246a.236.236,0,0,1,.117-.309.239.239,0,0,1,.309.113l.772,1.662h0l.017.028v.017a.037.037,0,0,0,0,.026v.09a.023.023,0,0,1-.009.019c0,.011-.012.019-.012.025a.026.026,0,0,1,0,.022l-.017.022-.009.015-.022.014a.023.023,0,0,1-.014.019.073.073,0,0,1-.025.012h-.011a.06.06,0,0,0-.031.017h-.048c-.012,0,0,0-.026.009h-.037Z" transform="translate(22.643 3.875)" fill="#c33168"/>
          <path id="Path_30" data-name="Path 30" d="M52.374,22.728l-.337-.979-.591-.012a.238.238,0,0,1,.017-.475l2.669.068a.244.244,0,0,1,.215.167.232.232,0,0,1-.066.261l-2.056,1.707a.245.245,0,0,1-.335-.034.309.309,0,0,1-.04-.073.236.236,0,0,1,.073-.253Zm.386-.32.749-.617-.977-.028Z" transform="translate(23.171 5.486)" fill="#c33168"/>
          <path id="Path_31" data-name="Path 31" d="M53.285,23.337a1.558,1.558,0,0,1,1.843,1.172,1.622,1.622,0,0,1-.1,1.033.253.253,0,0,1-.323.116.244.244,0,0,1-.12-.318,1.062,1.062,0,0,0,.071-.719,1.108,1.108,0,0,0-.463-.678,1.06,1.06,0,0,0-.793-.134,1.037,1.037,0,0,0-.65.472,1.139,1.139,0,0,0-.122.812,1.056,1.056,0,0,0,.383.617.244.244,0,1,1-.309.378,1.646,1.646,0,0,1-.545-.883A1.554,1.554,0,0,1,53.285,23.337Z" transform="translate(23.658 6.595)" fill="#c33168"/>
          <path id="Path_32" data-name="Path 32" d="M55.179,26.125a.238.238,0,0,1,.069.463l-2.478.347a.232.232,0,0,1-.269-.2.228.228,0,0,1,.2-.261Z" transform="translate(23.867 8.13)" fill="#c33168"/>
          <path id="Path_33" data-name="Path 33" d="M55.354,30.134a1.59,1.59,0,0,1-1.054.477,1.556,1.556,0,0,1-1.1-.384,1.375,1.375,0,0,1-.5-.988,1.445,1.445,0,0,1,.411-1.065,1.5,1.5,0,0,1,1.054-.463,1.544,1.544,0,0,1,1.091.37,1.42,1.42,0,0,1,.5,1.019A1.377,1.377,0,0,1,55.354,30.134Zm-1.081-.009A1.093,1.093,0,0,0,55,29.8a.9.9,0,0,0,.269-.682.912.912,0,0,0-.333-.678,1.065,1.065,0,0,0-.753-.253,1.053,1.053,0,0,0-.727.324.926.926,0,0,0-.269.7.908.908,0,0,0,.332.656,1.093,1.093,0,0,0,.758.256Z" transform="translate(23.976 8.99)" fill="#c33168"/>
          <path id="Path_34" data-name="Path 34" d="M52.973,31.222a.232.232,0,0,1,.034-.463l2.462.178h0a.228.228,0,0,1,.117.424L53.593,32.6l1.743.13a.235.235,0,0,1,.216.244.239.239,0,0,1-.25.218l-2.457-.181a.227.227,0,0,1-.216-.249.211.211,0,0,1,.1-.165.057.057,0,0,1,.031-.022l1.979-1.216Z" transform="translate(23.937 10.649)" fill="#c33168"/>
          <path id="Path_35" data-name="Path 35" d="M52.983,35.168l.188-1.013-.5-.309a.238.238,0,0,1-.107-.244.2.2,0,0,1,.026-.079.244.244,0,0,1,.326-.08L55.2,34.821a.242.242,0,0,1-.082.441l-2.624.474a.239.239,0,0,1-.276-.194.2.2,0,0,1,0-.085.224.224,0,0,1,.188-.182Zm.492-.083.96-.174L53.6,34.4Z" transform="translate(23.714 12.091)" fill="#c33168"/>
          <path id="Path_36" data-name="Path 36" d="M52.326,35.92l2.413.69a.225.225,0,0,1,.154.286.236.236,0,0,1-.289.165l-2.183-.617-.309,1.107a.236.236,0,0,1-.454-.131l.377-1.32V36.09h0a.235.235,0,0,1,.29-.17Z" transform="translate(23.405 13.45)" fill="#c33168"/>
        </g>
        <path id="Path_37" data-name="Path 37" d="M36.164,18.279,50.158,17.5v6.249l-8.637.028.042,8.376,6.84.732-.159,5.548-6,.1.048,11,6.574.049-.1,5.5-12.951-.1Z" transform="translate(20.631 9.88)" fill="#c33168"/>
        <path id="Path_38" data-name="Path 38" d="M16.707,17.907l4.578.151,7.331,18.15L36.581,17.2l4.291.13,2.258,37.3-6.6.1V35.489L29.374,51.665H27.911l-6.4-14.774.063,19.41-7.068-.225Z" transform="translate(9.048 9.713)" fill="#c33168"/>
        <path id="Path_39" data-name="Path 39" d="M76.765,43.934a2.625,2.625,0,0,1-.645-.088,38.1,38.1,0,0,1-66.879,0,2.267,2.267,0,0,1-.627.088,2.513,2.513,0,1,1,1.622-.6,36.976,36.976,0,0,0,64.9,0,2.515,2.515,0,1,1,1.635.6Z" transform="translate(4.474 21.516)" fill="#c33168"/>
      </g>
    </g>
    <g id="Group_794" data-name="Group 794" transform="translate(-215.063 3987.286)">
      <g id="Group_750" data-name="Group 750" transform="translate(473.244 237.503)">
        <g id="Group_749" data-name="Group 749" transform="translate(0 0)">
          <path id="Path_2224" data-name="Path 2224" d="M501.312,272.725h10.1c2.459,0,5.7,0,7.376,1.014a6.611,6.611,0,0,1,3.277,5.814,6.432,6.432,0,0,1-4.135,6.242v.078a6.383,6.383,0,0,1,5.307,6.712c0,4.1-2.927,8-8.467,8H501.312Zm3.7,11.979h7.418c4.212,0,5.931-1.522,5.931-4.449,0-3.863-2.73-4.408-5.931-4.408h-7.418Zm0,12.758h9.289c3.2,0,5.229-1.951,5.229-4.994,0-3.629-2.927-4.644-6.05-4.644h-8.468Z" transform="translate(-487.118 -262.246)" fill="#fff"/>
          <path id="Path_2225" data-name="Path 2225" d="M518.846,276.424a21.191,21.191,0,1,1-21.194-21.188A21.191,21.191,0,0,1,518.846,276.424ZM497.652,252a24.408,24.408,0,1,0,24.412,24.408A24.408,24.408,0,0,0,497.652,252Z" transform="translate(-473.245 -252.004)" fill="#fff"/>
        </g>
        <rect id="Rectangle_176" data-name="Rectangle 176" width="48.718" height="3.202" transform="translate(0 53.966)" fill="#fff"/>
        <path id="Path_2226" data-name="Path 2226" d="M565.161,350.417c.06,0,.117,0,.17-.006a.408.408,0,0,0,.14-.032.239.239,0,0,0,.1-.084.279.279,0,0,0,.035-.158.229.229,0,0,0-.032-.135.2.2,0,0,0-.086-.077.34.34,0,0,0-.119-.04c-.045,0-.088-.008-.135-.008h-.349v.541Zm.117-.756a.706.706,0,0,1,.449.119.452.452,0,0,1,.149.367.428.428,0,0,1-.129.338.614.614,0,0,1-.323.127l.487.747h-.282l-.465-.732h-.279v.732h-.268v-1.7ZM564.08,351a1.1,1.1,0,0,0,.251.4,1.139,1.139,0,0,0,.382.263,1.171,1.171,0,0,0,.472.092,1.159,1.159,0,0,0,.473-.092,1.155,1.155,0,0,0,.631-.661,1.326,1.326,0,0,0,0-.979,1.233,1.233,0,0,0-.25-.393,1.276,1.276,0,0,0-.381-.259,1.2,1.2,0,0,0-.473-.1,1.209,1.209,0,0,0-.472.1,1.169,1.169,0,0,0-.382.259,1.106,1.106,0,0,0-.251.393,1.346,1.346,0,0,0,0,.979m-.241-1.067a1.536,1.536,0,0,1,.316-.457,1.482,1.482,0,0,1,.468-.3,1.434,1.434,0,0,1,.562-.109,1.453,1.453,0,0,1,1.344.87,1.373,1.373,0,0,1,.117.577,1.356,1.356,0,0,1-.117.577,1.419,1.419,0,0,1-.316.463,1.4,1.4,0,0,1-.457.307,1.516,1.516,0,0,1-.57.108,1.49,1.49,0,0,1-.562-.108,1.423,1.423,0,0,1-.468-.307,1.478,1.478,0,0,1-.316-.463,1.355,1.355,0,0,1-.114-.577,1.372,1.372,0,0,1,.114-.577" transform="translate(-517.967 -299.977)" fill="#fff"/>
      </g>
      <g id="Group_751" data-name="Group 751" transform="translate(473.242 222.665)">
        <path id="Path_2227" data-name="Path 2227" d="M479.623,222.665v1.577h-4.5v1.828h4.135v1.457h-4.135v2.091h4.6V231.2h-6.477v-8.532Z" transform="translate(-473.242 -222.665)" fill="#fff"/>
        <path id="Path_2228" data-name="Path 2228" d="M489.895,227.156v.836h.023a2.425,2.425,0,0,1,.808-.74,2.186,2.186,0,0,1,1.081-.263,2.5,2.5,0,0,1,1.07.227,1.5,1.5,0,0,1,.734.8,2.649,2.649,0,0,1,.746-.717,2,2,0,0,1,1.118-.311,3.264,3.264,0,0,1,.908.12,1.832,1.832,0,0,1,.718.382,1.744,1.744,0,0,1,.465.687,2.785,2.785,0,0,1,.167,1.022v4.134h-1.7v-3.5q0-.311-.024-.586a1.254,1.254,0,0,0-.131-.478.8.8,0,0,0-.317-.323,1.14,1.14,0,0,0-.567-.119,1.081,1.081,0,0,0-.58.138,1,1,0,0,0-.347.358,1.445,1.445,0,0,0-.167.5,3.786,3.786,0,0,0-.041.567v3.441h-1.7v-3.465c0-.184,0-.365-.011-.544a1.533,1.533,0,0,0-.1-.5.764.764,0,0,0-.3-.364,1.123,1.123,0,0,0-.616-.138,1.256,1.256,0,0,0-.316.054,1.042,1.042,0,0,0-.382.2,1.19,1.19,0,0,0-.317.43,1.753,1.753,0,0,0-.131.735v3.584h-1.7v-6.177Z" transform="translate(-480.681 -224.802)" fill="#fff"/>
        <path id="Path_2229" data-name="Path 2229" d="M510.746,227.156v.788h.023a1.874,1.874,0,0,1,.789-.729,2.417,2.417,0,0,1,1.051-.227,2.676,2.676,0,0,1,1.255.275,2.593,2.593,0,0,1,.872.729,3.1,3.1,0,0,1,.515,1.057,4.753,4.753,0,0,1,.166,1.261,4.3,4.3,0,0,1-.166,1.2,3.064,3.064,0,0,1-.509,1.015,2.513,2.513,0,0,1-.848.705,2.553,2.553,0,0,1-1.189.263,2.4,2.4,0,0,1-1.058-.233,2.009,2.009,0,0,1-.8-.687h-.023V235.5h-1.7v-8.34Zm2.2,4.9a1.368,1.368,0,0,0,.454-.436,1.811,1.811,0,0,0,.245-.627,3.726,3.726,0,0,0,.072-.729,3.38,3.38,0,0,0-.078-.728,1.923,1.923,0,0,0-.257-.64,1.443,1.443,0,0,0-.46-.454,1.288,1.288,0,0,0-.687-.173,1.309,1.309,0,0,0-.7.173,1.39,1.39,0,0,0-.454.449,1.841,1.841,0,0,0-.245.633,3.744,3.744,0,0,0-.072.74,3.443,3.443,0,0,0,.078.729,1.874,1.874,0,0,0,.251.627,1.33,1.33,0,0,0,.46.436,1.526,1.526,0,0,0,1.392,0" transform="translate(-490.982 -224.802)" fill="#fff"/>
        <path id="Path_2230" data-name="Path 2230" d="M524.709,227.156V228.3h.024a2.037,2.037,0,0,1,.323-.532,2.12,2.12,0,0,1,.466-.419,2.286,2.286,0,0,1,.561-.269,2.013,2.013,0,0,1,.621-.1,1.335,1.335,0,0,1,.371.06v1.578c-.08-.016-.176-.03-.287-.042a3.094,3.094,0,0,0-.322-.018,1.817,1.817,0,0,0-.789.156,1.356,1.356,0,0,0-.519.424,1.683,1.683,0,0,0-.281.628,3.391,3.391,0,0,0-.084.776v2.784h-1.7v-6.177Z" transform="translate(-497.884 -224.802)" fill="#fff"/>
        <path id="Path_2231" data-name="Path 2231" d="M533.386,231.852a1.738,1.738,0,0,0,1.983.113,1.065,1.065,0,0,0,.454-.544h1.494a2.834,2.834,0,0,1-1.1,1.59,3.238,3.238,0,0,1-1.792.478,3.52,3.52,0,0,1-1.314-.233,2.728,2.728,0,0,1-.992-.663,2.961,2.961,0,0,1-.627-1.028,3.753,3.753,0,0,1-.222-1.314,3.612,3.612,0,0,1,.227-1.291,2.991,2.991,0,0,1,1.644-1.721,3.205,3.205,0,0,1,1.285-.251,2.927,2.927,0,0,1,1.374.3,2.753,2.753,0,0,1,.962.818,3.366,3.366,0,0,1,.544,1.171,4.374,4.374,0,0,1,.12,1.375h-4.457a1.707,1.707,0,0,0,.418,1.2m1.918-3.25a1.2,1.2,0,0,0-.926-.334,1.471,1.471,0,0,0-.676.138,1.274,1.274,0,0,0-.429.34,1.238,1.238,0,0,0-.227.43,1.846,1.846,0,0,0-.077.407h2.76a1.96,1.96,0,0,0-.424-.98" transform="translate(-501.924 -224.802)" fill="#fff"/>
        <path id="Path_2232" data-name="Path 2232" d="M546.56,231.8a1,1,0,0,0,.293.323,1.244,1.244,0,0,0,.412.185,1.96,1.96,0,0,0,.484.06,1.79,1.79,0,0,0,.377-.042,1.3,1.3,0,0,0,.358-.131.813.813,0,0,0,.269-.24.621.621,0,0,0,.108-.376c0-.255-.17-.446-.508-.574a10.16,10.16,0,0,0-1.416-.382q-.371-.084-.723-.2a2.476,2.476,0,0,1-.628-.3,1.459,1.459,0,0,1-.442-.466,1.323,1.323,0,0,1-.167-.687,1.864,1.864,0,0,1,.233-.98,1.724,1.724,0,0,1,.615-.6,2.709,2.709,0,0,1,.86-.311,5.356,5.356,0,0,1,.98-.09,4.886,4.886,0,0,1,.974.1,2.6,2.6,0,0,1,.843.323,1.946,1.946,0,0,1,.615.6,2.037,2.037,0,0,1,.293.95h-1.613a.741.741,0,0,0-.371-.663,1.682,1.682,0,0,0-.789-.174,2.877,2.877,0,0,0-.31.018,1.035,1.035,0,0,0-.3.077.63.63,0,0,0-.234.173.513.513,0,0,0,.072.675,1.3,1.3,0,0,0,.436.234,5.545,5.545,0,0,0,.616.161q.346.071.7.155a7.235,7.235,0,0,1,.724.2,2.364,2.364,0,0,1,.627.317,1.541,1.541,0,0,1,.442.49,1.442,1.442,0,0,1,.167.723,1.874,1.874,0,0,1-.884,1.685,2.628,2.628,0,0,1-.9.352,5.251,5.251,0,0,1-1.034.1,5.076,5.076,0,0,1-1.051-.107,2.776,2.776,0,0,1-.914-.358,1.966,1.966,0,0,1-.938-1.7h1.613a.929.929,0,0,0,.113.472" transform="translate(-508.628 -224.802)" fill="#fff"/>
        <path id="Path_2233" data-name="Path 2233" d="M558.082,228.064a2.024,2.024,0,0,1,.67-.633,2.924,2.924,0,0,1,.914-.341,5.236,5.236,0,0,1,1.022-.1,6.9,6.9,0,0,1,.944.066,2.868,2.868,0,0,1,.872.256,1.724,1.724,0,0,1,.645.532,1.482,1.482,0,0,1,.252.9v3.213a6.541,6.541,0,0,0,.047.8,1.428,1.428,0,0,0,.168.573h-1.72a2.209,2.209,0,0,1-.078-.292,2.556,2.556,0,0,1-.043-.3,2.2,2.2,0,0,1-.955.585,3.833,3.833,0,0,1-1.124.167,3.044,3.044,0,0,1-.824-.107,1.892,1.892,0,0,1-.669-.335,1.55,1.55,0,0,1-.448-.574,1.932,1.932,0,0,1-.161-.824,1.812,1.812,0,0,1,.185-.866,1.559,1.559,0,0,1,.479-.544,2.163,2.163,0,0,1,.669-.3,7.294,7.294,0,0,1,.759-.161q.382-.06.753-.1a4.46,4.46,0,0,0,.657-.108,1.141,1.141,0,0,0,.454-.209.46.46,0,0,0,.156-.4.9.9,0,0,0-.089-.436.658.658,0,0,0-.24-.251.934.934,0,0,0-.346-.119,2.793,2.793,0,0,0-.424-.03,1.285,1.285,0,0,0-.789.215.961.961,0,0,0-.335.717h-1.7a1.968,1.968,0,0,1,.3-.992m3.352,2.4a2.8,2.8,0,0,1-.347.089c-.123.024-.252.045-.388.06s-.271.035-.407.06a3.131,3.131,0,0,0-.376.1,1.142,1.142,0,0,0-.323.162.774.774,0,0,0-.221.256.833.833,0,0,0-.083.395.8.8,0,0,0,.083.382.641.641,0,0,0,.227.245.941.941,0,0,0,.335.125,2.141,2.141,0,0,0,.394.036,1.505,1.505,0,0,0,.777-.167,1.114,1.114,0,0,0,.406-.4,1.283,1.283,0,0,0,.161-.472,3.258,3.258,0,0,0,.03-.382v-.633a.767.767,0,0,1-.269.15" transform="translate(-514.934 -224.802)" fill="#fff"/>
      </g>
      <g id="Group_752" data-name="Group 752" transform="translate(473.244 298.727)">
        <path id="Path_2234" data-name="Path 2234" d="M477.988,375.079a1.527,1.527,0,0,0-.339-.383,1.551,1.551,0,0,0-.46-.257,1.58,1.58,0,0,0-.539-.093,1.783,1.783,0,0,0-.873.2,1.642,1.642,0,0,0-.582.534,2.33,2.33,0,0,0-.326.762,3.8,3.8,0,0,0-.1.883,3.52,3.52,0,0,0,.1.848,2.289,2.289,0,0,0,.326.742,1.661,1.661,0,0,0,.582.528,1.783,1.783,0,0,0,.873.2,1.406,1.406,0,0,0,1.091-.427,1.969,1.969,0,0,0,.48-1.125h1.474a3.509,3.509,0,0,1-.3,1.174,2.81,2.81,0,0,1-.64.892,2.714,2.714,0,0,1-.931.563,3.415,3.415,0,0,1-1.173.194,3.547,3.547,0,0,1-1.431-.276,3.05,3.05,0,0,1-1.072-.762,3.352,3.352,0,0,1-.669-1.139,4.18,4.18,0,0,1-.233-1.411,4.323,4.323,0,0,1,.233-1.44,3.457,3.457,0,0,1,.669-1.159,3.058,3.058,0,0,1,1.072-.776,3.726,3.726,0,0,1,2.512-.117,2.983,2.983,0,0,1,.912.48,2.612,2.612,0,0,1,.664.781,2.787,2.787,0,0,1,.33,1.067h-1.474a1.256,1.256,0,0,0-.175-.48" transform="translate(-473.245 -373.067)" fill="#fff"/>
        <path id="Path_2235" data-name="Path 2235" d="M488.617,380.848a1.412,1.412,0,0,0,1.61.093.863.863,0,0,0,.369-.442h1.212a2.3,2.3,0,0,1-.892,1.29,2.624,2.624,0,0,1-1.454.388,2.867,2.867,0,0,1-1.067-.189,2.216,2.216,0,0,1-.805-.539,2.4,2.4,0,0,1-.509-.834,3.048,3.048,0,0,1-.179-1.067,2.921,2.921,0,0,1,.184-1.047,2.426,2.426,0,0,1,1.334-1.4,2.592,2.592,0,0,1,1.043-.2,2.391,2.391,0,0,1,1.115.247,2.237,2.237,0,0,1,.781.664,2.749,2.749,0,0,1,.441.951,3.574,3.574,0,0,1,.1,1.116h-3.618a1.39,1.39,0,0,0,.339.969m1.557-2.638a.968.968,0,0,0-.752-.272,1.191,1.191,0,0,0-.548.112,1.055,1.055,0,0,0-.349.276,1.019,1.019,0,0,0-.185.349,1.558,1.558,0,0,0-.063.33h2.24a1.594,1.594,0,0,0-.344-.8" transform="translate(-479.995 -374.962)" fill="#fff"/>
        <path id="Path_2236" data-name="Path 2236" d="M498.929,377.037v.931h.02a1.708,1.708,0,0,1,.261-.432,1.736,1.736,0,0,1,.378-.34,1.858,1.858,0,0,1,.456-.217,1.652,1.652,0,0,1,.5-.077,1.07,1.07,0,0,1,.3.049v1.28c-.065-.013-.142-.024-.232-.034a2.5,2.5,0,0,0-.262-.014,1.47,1.47,0,0,0-.64.126,1.1,1.1,0,0,0-.422.344,1.385,1.385,0,0,0-.229.509,2.781,2.781,0,0,0-.068.63v2.26H497.62v-5.014Z" transform="translate(-485.293 -374.963)" fill="#fff"/>
        <path id="Path_2237" data-name="Path 2237" d="M508.12,375.7v.922h-1.009v2.483a.466.466,0,0,0,.582.582c.077,0,.152,0,.223-.01a1.9,1.9,0,0,0,.2-.029v1.067a3.242,3.242,0,0,1-.388.039c-.143.006-.281.01-.417.01a4.069,4.069,0,0,1-.606-.043,1.427,1.427,0,0,1-.5-.169.9.9,0,0,1-.344-.36,1.273,1.273,0,0,1-.126-.61v-2.958H504.9V375.7h.834v-1.5h1.377v1.5Z" transform="translate(-488.891 -373.625)" fill="#fff"/>
        <path id="Path_2238" data-name="Path 2238" d="M512.648,373.391h1.377v1.135h-1.377Zm1.377,6.925h-1.377V375.3h1.377Z" transform="translate(-492.721 -373.227)" fill="#fff"/>
        <path id="Path_2239" data-name="Path 2239" d="M516.483,376.223V375.3h.824v-.388a1.5,1.5,0,0,1,.417-1.1,1.69,1.69,0,0,1,1.261-.427q.184,0,.368.015c.122.01.242.018.359.024v1.028a4.281,4.281,0,0,0-.5-.029.524.524,0,0,0-.4.131.64.64,0,0,0-.121.441v.3h.95v.921h-.95v4.093h-1.377v-4.093Z" transform="translate(-494.616 -373.227)" fill="#fff"/>
        <path id="Path_2240" data-name="Path 2240" d="M523.981,373.391h1.377v1.135h-1.377Zm1.378,6.925h-1.377V375.3h1.377Z" transform="translate(-498.322 -373.227)" fill="#fff"/>
        <path id="Path_2241" data-name="Path 2241" d="M530.329,377.939a.967.967,0,0,0-.552.15,1.186,1.186,0,0,0-.364.388,1.672,1.672,0,0,0-.2.523,2.875,2.875,0,0,0-.059.568,2.753,2.753,0,0,0,.059.553,1.718,1.718,0,0,0,.189.509,1.081,1.081,0,0,0,.355.374.973.973,0,0,0,.543.145,1.01,1.01,0,0,0,.761-.276,1.312,1.312,0,0,0,.334-.742h1.329a2.269,2.269,0,0,1-.776,1.523,2.506,2.506,0,0,1-1.639.524,2.749,2.749,0,0,1-1.033-.189,2.293,2.293,0,0,1-.8-.528,2.42,2.42,0,0,1-.515-.81,2.817,2.817,0,0,1-.184-1.033,3.347,3.347,0,0,1,.169-1.081,2.433,2.433,0,0,1,.5-.864,2.3,2.3,0,0,1,.806-.567,2.73,2.73,0,0,1,1.086-.2,3.144,3.144,0,0,1,.858.116,2.288,2.288,0,0,1,.737.355,1.825,1.825,0,0,1,.762,1.43h-1.348a.923.923,0,0,0-1.018-.863" transform="translate(-500.199 -374.962)" fill="#fff"/>
        <path id="Path_2242" data-name="Path 2242" d="M538.685,377.774a1.634,1.634,0,0,1,.543-.514,2.34,2.34,0,0,1,.741-.276,4.215,4.215,0,0,1,.83-.083,5.482,5.482,0,0,1,.766.054,2.313,2.313,0,0,1,.708.208,1.4,1.4,0,0,1,.524.431,1.21,1.21,0,0,1,.2.733v2.609a5.176,5.176,0,0,0,.039.65,1.173,1.173,0,0,0,.136.465h-1.4a1.807,1.807,0,0,1-.063-.237,1.907,1.907,0,0,1-.034-.248,1.787,1.787,0,0,1-.776.475,3.1,3.1,0,0,1-.912.136,2.464,2.464,0,0,1-.669-.087,1.524,1.524,0,0,1-.543-.272,1.258,1.258,0,0,1-.364-.465,1.575,1.575,0,0,1-.131-.669,1.468,1.468,0,0,1,.15-.7,1.266,1.266,0,0,1,.388-.441,1.727,1.727,0,0,1,.543-.247,5.952,5.952,0,0,1,.616-.132c.207-.032.41-.058.611-.077a3.773,3.773,0,0,0,.534-.088.919.919,0,0,0,.368-.169.372.372,0,0,0,.126-.325.73.73,0,0,0-.073-.354.522.522,0,0,0-.194-.2.757.757,0,0,0-.282-.1,2.3,2.3,0,0,0-.343-.024,1.05,1.05,0,0,0-.641.174.782.782,0,0,0-.272.582h-1.378a1.6,1.6,0,0,1,.243-.8m2.72,1.945a2.232,2.232,0,0,1-.281.073c-.1.02-.205.035-.315.049s-.22.029-.33.048a2.528,2.528,0,0,0-.3.078.9.9,0,0,0-.263.132.637.637,0,0,0-.179.208.676.676,0,0,0-.067.32.651.651,0,0,0,.067.31.518.518,0,0,0,.185.2.779.779,0,0,0,.272.1,1.742,1.742,0,0,0,.32.029,1.212,1.212,0,0,0,.63-.136.911.911,0,0,0,.33-.324,1.055,1.055,0,0,0,.13-.384,2.606,2.606,0,0,0,.024-.31V379.6a.6.6,0,0,1-.218.121" transform="translate(-505.393 -374.962)" fill="#fff"/>
        <path id="Path_2243" data-name="Path 2243" d="M552.3,379.676a1.425,1.425,0,0,1-.636.588,2.121,2.121,0,0,1-.888.179,2.146,2.146,0,0,1-.989-.217,1.992,1.992,0,0,1-.7-.592,2.7,2.7,0,0,1-.417-.858,3.627,3.627,0,0,1-.14-1.009,3.41,3.41,0,0,1,.14-.974,2.551,2.551,0,0,1,.417-.829,2.025,2.025,0,0,1,1.663-.795,1.966,1.966,0,0,1,.849.189,1.476,1.476,0,0,1,.635.557h.02v-2.522h1.377v6.925H552.32v-.64Zm-.058-2.478a1.448,1.448,0,0,0-.2-.5,1.116,1.116,0,0,0-.363-.354,1.069,1.069,0,0,0-.563-.136,1.121,1.121,0,0,0-.573.136,1.069,1.069,0,0,0-.373.359,1.579,1.579,0,0,0-.2.51,2.793,2.793,0,0,0-.063.6,2.536,2.536,0,0,0,.068.582,1.612,1.612,0,0,0,.218.519,1.2,1.2,0,0,0,.379.368,1.021,1.021,0,0,0,.548.142,1.088,1.088,0,0,0,.567-.136,1.024,1.024,0,0,0,.364-.364,1.645,1.645,0,0,0,.194-.518,3.1,3.1,0,0,0,.058-.6,3.015,3.015,0,0,0-.058-.6" transform="translate(-510.455 -373.227)" fill="#fff"/>
        <path id="Path_2244" data-name="Path 2244" d="M560.233,377.774a1.643,1.643,0,0,1,.543-.514,2.344,2.344,0,0,1,.741-.276,4.214,4.214,0,0,1,.829-.083,5.478,5.478,0,0,1,.766.054,2.3,2.3,0,0,1,.708.208,1.4,1.4,0,0,1,.524.431,1.207,1.207,0,0,1,.2.733v2.609a5.165,5.165,0,0,0,.039.65,1.139,1.139,0,0,0,.136.465h-1.4a1.819,1.819,0,0,1-.063-.237,2.1,2.1,0,0,1-.034-.248,1.788,1.788,0,0,1-.776.475,3.1,3.1,0,0,1-.911.136,2.464,2.464,0,0,1-.669-.087,1.522,1.522,0,0,1-.544-.272,1.259,1.259,0,0,1-.364-.465,1.575,1.575,0,0,1-.13-.669,1.457,1.457,0,0,1,.15-.7,1.26,1.26,0,0,1,.388-.441,1.715,1.715,0,0,1,.543-.247,5.883,5.883,0,0,1,.616-.132c.207-.032.41-.058.611-.077a3.768,3.768,0,0,0,.534-.088.923.923,0,0,0,.368-.169.373.373,0,0,0,.126-.325.729.729,0,0,0-.072-.354.523.523,0,0,0-.194-.2.749.749,0,0,0-.281-.1,2.3,2.3,0,0,0-.344-.024,1.051,1.051,0,0,0-.641.174.781.781,0,0,0-.271.582H559.99a1.6,1.6,0,0,1,.243-.8m2.721,1.945a2.32,2.32,0,0,1-.281.073c-.1.02-.206.035-.316.049s-.219.029-.329.048a2.509,2.509,0,0,0-.306.078.906.906,0,0,0-.262.132.636.636,0,0,0-.179.208.669.669,0,0,0-.068.32.645.645,0,0,0,.068.31.518.518,0,0,0,.185.2.775.775,0,0,0,.272.1,1.744,1.744,0,0,0,.32.029,1.21,1.21,0,0,0,.63-.136.911.911,0,0,0,.33-.324,1.048,1.048,0,0,0,.131-.384,2.7,2.7,0,0,0,.024-.31V379.6a.6.6,0,0,1-.218.121" transform="translate(-516.044 -374.962)" fill="#fff"/>
      </g>
    </g>
  </g>
</svg>
