<svg xmlns="http://www.w3.org/2000/svg" width="92.228" height="92.227" viewBox="0 0 92.228 92.227">
  <g id="logo-menu" transform="translate(155.238 155.238)">
    <g id="Group_6" data-name="Group 6" transform="translate(-155.238 -155.238)">
      <path id="Path_79" data-name="Path 79" d="M46.115,0A46.114,46.114,0,1,0,92.231,46.116,46.113,46.113,0,0,0,46.115,0Z" transform="translate(-0.004 0)" fill="#d3487b"/>
      <g id="Group_5" data-name="Group 5" transform="translate(6.174 6.088)">
        <path id="Path_80" data-name="Path 80" d="M7.054,42.212a1.562,1.562,0,0,1-1.843-1.184A1.581,1.581,0,0,1,5.316,40a.245.245,0,0,1,.323-.117.252.252,0,0,1,.121.321,1.067,1.067,0,0,0-.079.721,1.111,1.111,0,0,0,.466.673A1.038,1.038,0,0,0,7.6,41.265a1.131,1.131,0,0,0,.135-.816,1.077,1.077,0,0,0-.378-.616.244.244,0,1,1,.31-.377,1.6,1.6,0,0,1,.539.888,1.554,1.554,0,0,1-1.148,1.868Z" transform="translate(-4.386 7.578)" fill="#fff"/>
        <path id="Path_81" data-name="Path 81" d="M5.021,36.694a1.564,1.564,0,0,1,2.144-.222,1.379,1.379,0,0,1,.558.963,1.429,1.429,0,0,1-.345,1.077,1.565,1.565,0,0,1-1.029.539,1.6,1.6,0,0,1-1.115-.308,1.426,1.426,0,0,1-.56-.991,1.366,1.366,0,0,1,.347-1.057ZM6.1,36.639a1.055,1.055,0,0,0-.71.368.889.889,0,0,0-.232.7.92.92,0,0,0,.37.657,1.077,1.077,0,0,0,.77.21,1.063,1.063,0,0,0,.707-.365.916.916,0,0,0-.135-1.36,1.1,1.1,0,0,0-.77-.206Z" transform="translate(-4.56 6.45)" fill="#fff"/>
        <path id="Path_82" data-name="Path 82" d="M7.309,34.878a.232.232,0,0,1,.229.234.229.229,0,0,1-.237.228l-2.473-.031h0a.232.232,0,0,1-.143-.42l1.923-1.347-1.751-.024a.233.233,0,0,1,0-.466l2.478.034a.237.237,0,0,1,.229.24.23.23,0,0,1-.086.171.135.135,0,0,0-.024.022L5.542,34.855Z" transform="translate(-4.588 5.376)" fill="#fff"/>
        <path id="Path_83" data-name="Path 83" d="M6.911,32.189a.217.217,0,0,1,0-.311,1.4,1.4,0,0,0,.426-.772.913.913,0,0,0-.086-.539.4.4,0,0,0-.275-.229.319.319,0,0,0-.135.023.476.476,0,0,0-.143.11,1.713,1.713,0,0,0-.269.555v.011a2.194,2.194,0,0,1-.237.521.9.9,0,0,1-.373.354.634.634,0,0,1-.361.054.773.773,0,0,1-.571-.416,1.239,1.239,0,0,1-.135-.76A1.671,1.671,0,0,1,5.2,29.91a.228.228,0,0,1,.308-.019.215.215,0,0,1,.027.307,1.259,1.259,0,0,0-.358.648.826.826,0,0,0,.085.49.345.345,0,0,0,.228.2.21.21,0,0,0,.124-.02.392.392,0,0,0,.127-.1,1.568,1.568,0,0,0,.245-.505V30.9a2.505,2.505,0,0,1,.251-.562,1.046,1.046,0,0,1,.4-.378.7.7,0,0,1,.37-.055.835.835,0,0,1,.61.446,1.363,1.363,0,0,1,.141.808,1.842,1.842,0,0,1-.558,1.029.228.228,0,0,1-.3,0Z" transform="translate(-4.535 4.262)" fill="#fff"/>
        <path id="Path_84" data-name="Path 84" d="M8.346,28.345a1.231,1.231,0,0,1-1.482.908l-1.473-.36a.226.226,0,0,1-.171-.28.234.234,0,0,1,.281-.176l1.473.354a.758.758,0,1,0,.358-1.472l-1.478-.357a.236.236,0,1,1,.11-.459l1.471.36a1.226,1.226,0,0,1,.909,1.483Z" transform="translate(-4.371 3.102)" fill="#fff"/>
        <path id="Path_85" data-name="Path 85" d="M8.646,26.092l-2.379-.808a.234.234,0,0,1-.148-.3.238.238,0,0,1,.3-.152l2.155.739.373-1.091a.245.245,0,0,1,.308-.145.236.236,0,0,1,.135.3l-.442,1.309h0a.234.234,0,0,1-.3.151Z" transform="translate(-4.061 2.348)" fill="#fff"/>
        <path id="Path_86" data-name="Path 86" d="M8.083,21.7l-.276.617,2.07.929a.23.23,0,0,1,.125.314.238.238,0,0,1-.312.117L7.617,22.75l-.276.616a.241.241,0,0,1-.312.117.233.233,0,0,1-.123-.307l.749-1.661a.226.226,0,0,1,.308-.117A.238.238,0,0,1,8.083,21.7Z" transform="translate(-3.79 1.326)" fill="#fff"/>
        <path id="Path_87" data-name="Path 87" d="M9.53,18.767a1.58,1.58,0,0,1,1.145.172,1.552,1.552,0,0,1,.718.916,1.4,1.4,0,0,1-.124,1.107,1.444,1.444,0,0,1-.919.673,1.591,1.591,0,0,1-1.86-1.09,1.417,1.417,0,0,1,.135-1.134,1.39,1.39,0,0,1,.905-.645Zm.9.59a1.106,1.106,0,0,0-.789-.127.917.917,0,0,0-.684,1.174,1.1,1.1,0,0,0,1.278.753.913.913,0,0,0,.69-1.177,1.1,1.1,0,0,0-.494-.617Z" transform="translate(-3.256 0.408)" fill="#fff"/>
        <path id="Path_88" data-name="Path 88" d="M13.347,17.281a.238.238,0,0,1,.155.3c-.008.013-.024.046-.047.082h0a.307.307,0,0,1-.135.109.424.424,0,0,1-.2.02,1.158,1.158,0,0,1-.467-.229.339.339,0,0,0-.176-.069.4.4,0,0,0-.176.027.785.785,0,0,0-.221.135l-.3.4.742.554a.238.238,0,0,1-.284.381l-2.02-1.5a.229.229,0,0,1-.044-.327h0l.455-.606a.908.908,0,0,1,1.275-.183.9.9,0,0,1,.362.684.594.594,0,0,1,.215-.024.808.808,0,0,1,.45.159,1.1,1.1,0,0,0,.213.135.209.209,0,0,1,.207-.044Zm-1.728-.539a.435.435,0,0,0-.616.085l-.312.42.7.525.31-.42a.431.431,0,0,0-.085-.61Z" transform="translate(-2.669 -0.473)" fill="#fff"/>
        <path id="Path_89" data-name="Path 89" d="M14.452,15.331l-.695.76.269.525a.244.244,0,0,1-.039.269.233.233,0,0,1-.066.055.241.241,0,0,1-.321-.108l-1.212-2.388a.234.234,0,0,1,.042-.269.23.23,0,0,1,.26-.067l2.486,1a.242.242,0,0,1,.135.31.618.618,0,0,1-.044.07.232.232,0,0,1-.257.059Zm-.463-.193-.9-.362.442.871Z" transform="translate(-1.891 -1.2)" fill="#fff"/>
        <path id="Path_90" data-name="Path 90" d="M17.069,13.747,15.52,11.774a.23.23,0,0,1,.036-.331h0l1.077-.855a.237.237,0,0,1,.326.039.23.23,0,0,1-.034.333l-.9.717.478.611.778-.617a.237.237,0,1,1,.295.372l-.781.613.486.618.905-.717a.238.238,0,0,1,.295.373l-1.087.857h0A.234.234,0,0,1,17.069,13.747Z" transform="translate(-0.815 -2.432)" fill="#fff"/>
        <path id="Path_91" data-name="Path 91" d="M19.511,11.961a.23.23,0,0,1-.389.246l-1.312-2.1h0a.256.256,0,0,1-.027-.215.24.24,0,0,1,.3-.135l2.179.884-.932-1.482a.228.228,0,0,1,.077-.317.232.232,0,0,1,.318.07l1.316,2.093a.241.241,0,0,1-.074.323.218.218,0,0,1-.2.022.1.1,0,0,1-.031-.009l-2.155-.877Z" transform="translate(-0.015 -3.032)" fill="#fff"/>
        <path id="Path_92" data-name="Path 92" d="M23.336,9.78l-.96-2.323a.232.232,0,0,1,.135-.306h0l1.275-.527a.238.238,0,0,1,.307.121.251.251,0,0,1-.135.315L22.9,7.5l.3.719.916-.38a.237.237,0,0,1,.182.436l-.916.381.389.943a.236.236,0,0,1-.436.18Z" transform="translate(1.576 -3.796)" fill="#fff"/>
        <path id="Path_93" data-name="Path 93" d="M25.774,8.8,25.04,6.4a.23.23,0,0,1,.152-.29H25.2l1.32-.4a.234.234,0,0,1,.292.155.24.24,0,0,1-.152.295l-1.1.341.229.746.943-.292a.236.236,0,1,1,.135.451l-.943.291.228.748L27.253,8.1a.246.246,0,0,1,.295.164.238.238,0,0,1-.158.29l-1.321.4h-.012a.234.234,0,0,1-.283-.155Z" transform="translate(2.502 -4.114)" fill="#fff"/>
        <path id="Path_94" data-name="Path 94" d="M28.264,8l-.513-2.461a.238.238,0,1,1,.466-.094l.461,2.224,1.129-.229a.235.235,0,1,1,.1.459l-1.347.28h-.008A.232.232,0,0,1,28.264,8Z" transform="translate(3.445 -4.266)" fill="#fff"/>
        <path id="Path_95" data-name="Path 95" d="M30.45,5.061a.233.233,0,0,1,.2-.269.242.242,0,0,1,.269.2l.31,2.492a.236.236,0,1,1-.466.066Z" transform="translate(4.382 -4.427)" fill="#fff"/>
        <path id="Path_96" data-name="Path 96" d="M32.25,6.109a1.58,1.58,0,0,1,2.5-1.292.246.246,0,0,1-.281.4,1.04,1.04,0,0,0-.692-.21,1.133,1.133,0,0,0-.757.333,1.061,1.061,0,0,0-.284.75,1.017,1.017,0,0,0,.339.73,1.123,1.123,0,0,0,.776.283,1.092,1.092,0,0,0,.673-.26.26.26,0,0,1,.342.034.255.255,0,0,1-.031.343,1.583,1.583,0,0,1-.968.366A1.561,1.561,0,0,1,32.25,6.109Z" transform="translate(5.007 -4.52)" fill="#fff"/>
        <path id="Path_97" data-name="Path 97" d="M35.748,4.837a.23.23,0,0,1,.245-.221.236.236,0,0,1,.226.245l-.135,2.508a.24.24,0,0,1-.251.224.229.229,0,0,1-.221-.248Z" transform="translate(6.173 -4.487)" fill="#fff"/>
        <path id="Path_98" data-name="Path 98" d="M37.319,7.461l.361-2.484a.225.225,0,0,1,.26-.2l.5.073a1.49,1.49,0,1,1-.426,2.95l-.5-.071a.234.234,0,0,1-.2-.268Zm.5-.166.269.032a1.016,1.016,0,0,0,.281-2.011L38.1,5.28Z" transform="translate(6.764 -4.432)" fill="#fff"/>
        <path id="Path_99" data-name="Path 99" d="M41.746,7.768l-1-.246-.339.486a.237.237,0,0,1-.248.094.5.5,0,0,1-.074-.032.241.241,0,0,1-.066-.33l1.514-2.216a.248.248,0,0,1,.439.109l.315,2.66a.246.246,0,0,1-.213.269A.158.158,0,0,1,42,8.555a.232.232,0,0,1-.176-.2Zm-.058-.493L41.573,6.3l-.552.808Z" transform="translate(7.688 -4.205)" fill="#fff"/>
        <path id="Path_100" data-name="Path 100" d="M42.81,8.631l.808-2.379a.23.23,0,0,1,.3-.144l.477.162A1.494,1.494,0,1,1,43.427,9.1l-.473-.168a.234.234,0,0,1-.144-.3Zm.527-.074.245.085a1.018,1.018,0,1,0,.663-1.926l-.253-.075Z" transform="translate(8.665 -3.974)" fill="#fff"/>
        <path id="Path_101" data-name="Path 101" d="M50.345,9.446a1.58,1.58,0,0,1-1.077,1.871,1.425,1.425,0,0,1-1.1-.117,1.441,1.441,0,0,1-.673-.919,1.588,1.588,0,0,1,1.077-1.864,1.424,1.424,0,0,1,1.131.127,1.391,1.391,0,0,1,.646.9Zm-.586.906a1.117,1.117,0,0,0,.121-.791.886.886,0,0,0-.434-.594.916.916,0,0,0-.745-.086,1.1,1.1,0,0,0-.626.5,1.064,1.064,0,0,0-.116.785.924.924,0,0,0,.442.614.943.943,0,0,0,.739.071,1.069,1.069,0,0,0,.611-.5Z" transform="translate(10.28 -3.19)" fill="#fff"/>
        <path id="Path_102" data-name="Path 102" d="M51.818,13.26a.233.233,0,0,1-.3.148.415.415,0,0,1-.084-.039h0a.357.357,0,0,1-.105-.135.47.47,0,0,1-.024-.2,1.286,1.286,0,0,1,.237-.462.377.377,0,0,0,.066-.178.439.439,0,0,0-.027-.178.851.851,0,0,0-.135-.221l-.4-.3-.55.745a.238.238,0,0,1-.331.047.233.233,0,0,1-.05-.327l1.494-2.02a.232.232,0,0,1,.326-.05h0l.607.45a.905.905,0,0,1,.19,1.275.881.881,0,0,1-.682.364.593.593,0,0,1,.024.215.76.76,0,0,1-.158.453,1.329,1.329,0,0,0-.135.213.229.229,0,0,1,.036.2Zm.539-1.729a.443.443,0,0,0-.089-.618l-.42-.312-.524.7.424.312a.439.439,0,0,0,.61-.086Z" transform="translate(11.187 -2.605)" fill="#fff"/>
        <path id="Path_103" data-name="Path 103" d="M52.988,12.661a1.552,1.552,0,0,1,2.2-.059,1.628,1.628,0,0,1,.486.905.249.249,0,0,1-.2.284.252.252,0,0,1-.276-.206,1.11,1.11,0,0,0-.337-.625,1.056,1.056,0,0,0-.776-.295,1.009,1.009,0,0,0-1,1.077,1.065,1.065,0,0,0,.353.749,1.212,1.212,0,0,0,.539.277l.395-.428-.45-.418a.24.24,0,1,1,.329-.349l.613.571h.008a.238.238,0,0,1,.022.341l-.64.691a.193.193,0,0,1-.061.043l-.019.011h0a.2.2,0,0,1-.135.024,1.569,1.569,0,0,1-.943-.413,1.546,1.546,0,0,1-.1-2.181Z" transform="translate(12.061 -1.865)" fill="#fff"/>
        <path id="Path_104" data-name="Path 104" d="M56.084,16.772l-.673-.78-.556.2a.246.246,0,0,1-.26-.07.237.237,0,0,1,.1-.376l2.513-.927a.238.238,0,0,1,.257.071.232.232,0,0,1,.036.269l-1.281,2.352a.244.244,0,0,1-.323.09.135.135,0,0,1-.063-.046.232.232,0,0,1-.028-.269Zm.237-.434.471-.861-.921.333Z" transform="translate(12.738 -0.951)" fill="#fff"/>
        <path id="Path_105" data-name="Path 105" d="M56.754,18.565a.24.24,0,0,1-.321-.058.232.232,0,0,1,.058-.326l2.039-1.4h0a.244.244,0,0,1,.215-.031.236.236,0,0,1,.135.295l-.777,2.2,1.444-1a.229.229,0,0,1,.318.058.233.233,0,0,1-.055.323l-2.039,1.406a.241.241,0,0,1-.326-.059.218.218,0,0,1-.023-.193.039.039,0,0,1,.008-.031l.778-2.2Z" transform="translate(13.38 -0.283)" fill="#fff"/>
        <path id="Path_106" data-name="Path 106" d="M60.377,19.508a.226.226,0,0,1,.315.085.242.242,0,0,1-.084.327l-2.185,1.24a.233.233,0,0,1-.319-.092.228.228,0,0,1,.089-.319Z" transform="translate(13.964 0.667)" fill="#fff"/>
        <path id="Path_107" data-name="Path 107" d="M62.076,23.171l-2.6-.52.582,1.239a.241.241,0,0,1-.116.319.234.234,0,0,1-.312-.12l-.776-1.659a.27.27,0,0,0-.016-.044v-.012a.049.049,0,0,0-.011-.034.025.025,0,0,1,.008-.016c.008-.008,0-.013,0-.024v-.016h0a.016.016,0,0,1,.011-.019.082.082,0,0,1,.008-.024.066.066,0,0,1,0-.023l.013-.018c.011-.012.011-.015.019-.019a.039.039,0,0,1,.011-.022c0-.008.013-.008.022-.018s0-.009.011-.011a.2.2,0,0,0,.027-.022h.016a.042.042,0,0,1,.03-.013l.019-.008h.022a.032.032,0,0,0,.024-.008.03.03,0,0,0,.022.008h.024l2.6.516-.579-1.25a.236.236,0,0,1,.428-.2l.773,1.663v.008l.016.024v.019a.055.055,0,0,0,.008.026v.069h0v.018c0,.008-.008.018-.008.022s-.013.016-.013.024a.023.023,0,0,1-.008.02c0,.009-.011.013-.013.022l-.011.015-.023.015c0,.012,0,.015-.013.018a.039.039,0,0,1-.024.013l-.011.008a.124.124,0,0,0-.031.013.03.03,0,0,0-.022,0h-.023c-.009,0-.011,0-.027.009h-.016a.028.028,0,0,1-.022,0Z" transform="translate(14.227 1.203)" fill="#fff"/>
        <path id="Path_108" data-name="Path 108" d="M61.118,25.9l-.337-.979-.593-.015a.246.246,0,0,1-.213-.159.249.249,0,0,1-.016-.089.244.244,0,0,1,.248-.228l2.675.067a.246.246,0,0,1,.215.167.233.233,0,0,1-.069.261l-2.058,1.713a.245.245,0,0,1-.337-.038.184.184,0,0,1-.039-.071.233.233,0,0,1,.071-.252Zm.387-.321.753-.624-.978-.027Z" transform="translate(14.618 2.386)" fill="#fff"/>
        <path id="Path_109" data-name="Path 109" d="M62.163,26.809a1.561,1.561,0,0,1,1.849,1.177,1.6,1.6,0,0,1-.1,1.032.252.252,0,0,1-.321.116.24.24,0,0,1-.121-.317,1.068,1.068,0,0,0,.069-.721,1.133,1.133,0,0,0-.471-.682,1.077,1.077,0,0,0-.795-.135,1.045,1.045,0,0,0-.649.474,1.118,1.118,0,0,0-.124.815,1.048,1.048,0,0,0,.384.614.269.269,0,0,1,.031.345.256.256,0,0,1-.342.035,1.616,1.616,0,0,1-.539-.882A1.557,1.557,0,0,1,62.163,26.809Z" transform="translate(14.976 3.199)" fill="#fff"/>
        <path id="Path_110" data-name="Path 110" d="M64.123,30.02a.236.236,0,0,1,.269.2.24.24,0,0,1-.2.269l-2.486.347a.234.234,0,0,1-.269-.2.232.232,0,0,1,.2-.269Z" transform="translate(15.13 4.324)" fill="#fff"/>
        <path id="Path_111" data-name="Path 111" d="M64.321,34.271a1.56,1.56,0,0,1-2.155.093,1.389,1.389,0,0,1-.5-.993,1.44,1.44,0,0,1,.4-1.064,1.506,1.506,0,0,1,1.057-.469,1.548,1.548,0,0,1,1.092.372,1.4,1.4,0,0,1,.5,1.024A1.374,1.374,0,0,1,64.321,34.271Zm-1.077-.008a1.11,1.11,0,0,0,.734-.323.908.908,0,0,0,.269-.686.923.923,0,0,0-.334-.673,1.094,1.094,0,0,0-1.482.069.928.928,0,0,0-.269.7.9.9,0,0,0,.334.656,1.092,1.092,0,0,0,.746.253Z" transform="translate(15.21 4.955)" fill="#fff"/>
        <path id="Path_112" data-name="Path 112" d="M61.927,35.806a.24.24,0,0,1-.221-.245.232.232,0,0,1,.253-.217l2.47.182h0a.232.232,0,0,1,.191.1.234.234,0,0,1-.074.318l-2,1.238,1.751.128a.231.231,0,0,1-.036.461L61.8,37.595a.232.232,0,0,1-.215-.249.217.217,0,0,1,.1-.167.074.074,0,0,1,.027-.022l1.987-1.222Z" transform="translate(15.181 6.171)" fill="#fff"/>
        <path id="Path_113" data-name="Path 113" d="M61.878,40.153l.19-1.016-.508-.308a.241.241,0,0,1-.108-.244.3.3,0,0,1,.027-.078.241.241,0,0,1,.326-.082L64.1,39.8a.246.246,0,0,1,.108.251.237.237,0,0,1-.19.193l-2.638.474a.24.24,0,0,1-.269-.2.212.212,0,0,1,0-.081.228.228,0,0,1,.19-.185Zm.492-.084.963-.175-.836-.509Z" transform="translate(15.017 7.229)" fill="#fff"/>
        <path id="Path_114" data-name="Path 114" d="M61.137,41.273l2.418.692a.23.23,0,0,1,.158.288.237.237,0,0,1-.29.164l-2.186-.626-.318,1.11a.242.242,0,0,1-.295.16.238.238,0,0,1-.16-.291l.378-1.323v-.012h0a.233.233,0,0,1,.295-.163Z" transform="translate(14.79 8.224)" fill="#fff"/>
      </g>
      <path id="Path_115" data-name="Path 115" d="M41.258,20.885,55,20.111v6.266l-8.375.027.186,8.4,6.928.734L53.618,41.1l-5.995.1.055,11.033,6.593.048-.1,5.518-13.126-.1Z" transform="translate(14.233 6.976)" fill="#fff"/>
      <path id="Path_116" data-name="Path 116" d="M18.879,20.47l4.59.151,7.35,18.2L38.8,19.759l4.3.131,1.821,37.4-7.059.1V38.1L31.576,55.484H30.11L23.7,40.086l.061,19.173-7.084-.374Z" transform="translate(5.778 6.854)" fill="#fff"/>
      <path id="Path_117" data-name="Path 117" d="M77.861,49.748a2.6,2.6,0,0,1-.648-.089,38.2,38.2,0,0,1-67.053,0,2.248,2.248,0,0,1-.626.089,2.524,2.524,0,1,1,1.624-.6,37.074,37.074,0,0,0,65.072,0,2.522,2.522,0,1,1,1.631.6Z" transform="translate(2.421 15.505)" fill="#fff"/>
    </g>
  </g>
</svg>
