<svg xmlns="http://www.w3.org/2000/svg" width="351.663" height="351.663" viewBox="0 0 351.663 351.663">
  <g id="logo" transform="translate(155.238 155.238)">
    <g id="Group_6" data-name="Group 6" transform="translate(-155.238 -155.238)">
      <path id="Path_79" data-name="Path 79" d="M175.825,0a175.55,175.55,0,1,0,.012,0Z" transform="translate(-0.004 0)" fill="#d3487b"/>
      <g id="Group_5" data-name="Group 5" transform="translate(23.54 23.214)">
        <path id="Path_80" data-name="Path 80" d="M12.357,50.12a5.957,5.957,0,0,1-7.025-4.514,6.029,6.029,0,0,1,.4-3.939.935.935,0,0,1,1.233-.447.96.96,0,0,1,.462,1.222,4.067,4.067,0,0,0-.3,2.748A4.237,4.237,0,0,0,8.9,47.757a3.96,3.96,0,0,0,5.526-1.248A4.314,4.314,0,0,0,14.94,43.4,4.108,4.108,0,0,0,13.5,41.05a.93.93,0,1,1,1.181-1.438A6.086,6.086,0,0,1,16.732,43a5.926,5.926,0,0,1-4.375,7.123Z" transform="translate(-2.187 139.731)" fill="#fff"/>
        <path id="Path_81" data-name="Path 81" d="M6.019,38.236a5.962,5.962,0,0,1,8.176-.847,5.259,5.259,0,0,1,2.126,3.672,5.449,5.449,0,0,1-1.315,4.108,5.968,5.968,0,0,1-3.924,2.054A6.085,6.085,0,0,1,6.83,46.047a5.439,5.439,0,0,1-2.136-3.78,5.207,5.207,0,0,1,1.325-4.031Zm4.108-.211a4.021,4.021,0,0,0-2.706,1.4,3.389,3.389,0,0,0-.883,2.655A3.508,3.508,0,0,0,7.95,44.588a4.108,4.108,0,0,0,2.938.8A4.052,4.052,0,0,0,13.584,44a3.492,3.492,0,0,0-.514-5.187,4.186,4.186,0,0,0-2.938-.786Z" transform="translate(-4.261 126.271)" fill="#fff"/>
        <path id="Path_82" data-name="Path 82" d="M14.963,40.016a.883.883,0,0,1,.873.894.873.873,0,0,1-.9.868L5.5,41.659h0a.883.883,0,0,1-.544-1.6l7.334-5.136-6.676-.092a.888.888,0,1,1,0-1.777l9.449.128a.9.9,0,0,1,.873.914.878.878,0,0,1-.329.652.513.513,0,0,0-.092.082l-7.293,5.1Z" transform="translate(-4.588 113.475)" fill="#fff"/>
        <path id="Path_83" data-name="Path 83" d="M13.019,38.8a.827.827,0,0,1,0-1.186,5.326,5.326,0,0,0,1.623-2.943,3.482,3.482,0,0,0-.329-2.054,1.541,1.541,0,0,0-1.048-.873,1.217,1.217,0,0,0-.514.087,1.813,1.813,0,0,0-.544.421,6.533,6.533,0,0,0-1.027,2.116v.041a8.366,8.366,0,0,1-.9,1.987,3.415,3.415,0,0,1-1.423,1.351,2.419,2.419,0,0,1-1.376.205A2.948,2.948,0,0,1,5.3,36.363a4.725,4.725,0,0,1-.514-2.9,6.373,6.373,0,0,1,1.726-3.359.868.868,0,0,1,1.176-.072.822.822,0,0,1,.1,1.171,4.8,4.8,0,0,0-1.366,2.47,3.148,3.148,0,0,0,.324,1.869,1.315,1.315,0,0,0,.868.765.8.8,0,0,0,.472-.077,1.5,1.5,0,0,0,.483-.365,5.978,5.978,0,0,0,.935-1.926V33.9a9.552,9.552,0,0,1,.955-2.142A3.99,3.99,0,0,1,12,30.313a2.655,2.655,0,0,1,1.412-.211,3.184,3.184,0,0,1,2.326,1.7,5.2,5.2,0,0,1,.539,3.081,7.025,7.025,0,0,1-2.126,3.924.868.868,0,0,1-1.135-.01Z" transform="translate(-3.959 100.191)" fill="#fff"/>
        <path id="Path_84" data-name="Path 84" d="M17.162,33.547a4.694,4.694,0,0,1-5.649,3.461L5.894,35.637a.863.863,0,0,1-.652-1.068A.894.894,0,0,1,6.315,33.9l5.618,1.351A2.889,2.889,0,1,0,13.3,29.633L7.666,28.272a.9.9,0,1,1,.421-1.751L13.7,27.892a4.673,4.673,0,0,1,3.467,5.654Z" transform="translate(-2.005 86.363)" fill="#fff"/>
        <path id="Path_85" data-name="Path 85" d="M15.79,31.069,6.72,27.988a.894.894,0,0,1-.565-1.14.909.909,0,0,1,1.13-.58L15.5,29.087l1.423-4.16a.935.935,0,0,1,1.176-.555.9.9,0,0,1,.514,1.13L16.93,30.494h0a.894.894,0,0,1-1.14.575Z" transform="translate(1.693 77.372)" fill="#fff"/>
        <path id="Path_86" data-name="Path 86" d="M11.449,22.628,10.4,24.98l7.893,3.544a.878.878,0,0,1,.478,1.2.909.909,0,0,1-1.191.447l-7.9-3.549L8.619,28.965a.919.919,0,0,1-1.191.447.888.888,0,0,1-.467-1.171l2.855-6.332a.863.863,0,0,1,1.176-.447A.909.909,0,0,1,11.449,22.628Z" transform="translate(4.92 65.184)" fill="#fff"/>
        <path id="Path_87" data-name="Path 87" d="M12.629,18.88a6.024,6.024,0,0,1,4.365.657,5.916,5.916,0,0,1,2.737,3.492,5.351,5.351,0,0,1-.472,4.221,5.505,5.505,0,0,1-3.5,2.568,6.065,6.065,0,0,1-7.092-4.155,5.4,5.4,0,0,1,.514-4.324,5.3,5.3,0,0,1,3.451-2.46Zm3.431,2.249a4.216,4.216,0,0,0-3.009-.483,3.5,3.5,0,0,0-2.609,4.478A4.191,4.191,0,0,0,15.315,28a3.482,3.482,0,0,0,2.629-4.488,4.175,4.175,0,0,0-1.885-2.352Z" transform="translate(11.294 54.234)" fill="#fff"/>
        <path id="Path_88" data-name="Path 88" d="M22.428,20.354a.909.909,0,0,1,.591,1.135c-.031.051-.092.175-.18.313h0a1.171,1.171,0,0,1-.514.416,1.618,1.618,0,0,1-.765.077,4.417,4.417,0,0,1-1.782-.873,1.294,1.294,0,0,0-.673-.262,1.541,1.541,0,0,0-.673.1,2.994,2.994,0,0,0-.842.514l-1.156,1.541,2.83,2.111a.909.909,0,0,1-1.084,1.453l-7.7-5.736a.873.873,0,0,1-.169-1.248h0l1.736-2.311a3.461,3.461,0,0,1,4.863-.7A3.415,3.415,0,0,1,18.289,19.5a2.265,2.265,0,0,1,.822-.092,3.081,3.081,0,0,1,1.715.606,4.175,4.175,0,0,0,.811.514.8.8,0,0,1,.791-.169ZM15.839,18.3a1.659,1.659,0,0,0-2.347.324l-1.191,1.6,2.681,2,1.181-1.6a1.643,1.643,0,0,0-.324-2.326Z" transform="translate(18.288 43.737)" fill="#fff"/>
        <path id="Path_89" data-name="Path 89" d="M20.327,18.815l-2.65,2.9,1.027,2a.93.93,0,0,1-.149,1.027.889.889,0,0,1-.252.211.919.919,0,0,1-1.222-.411l-4.622-9.105a.894.894,0,0,1,.159-1.027.878.878,0,0,1,.991-.257l9.48,3.816a.924.924,0,0,1,.514,1.181,2.357,2.357,0,0,1-.169.267.883.883,0,0,1-.981.226ZM18.56,18.08,15.119,16.7,16.8,20.022Z" transform="translate(27.569 35.067)" fill="#fff"/>
        <path id="Path_90" data-name="Path 90" d="M21.578,22.77l-5.906-7.524a.878.878,0,0,1,.139-1.263h0l4.108-3.261a.9.9,0,0,1,1.243.149.878.878,0,0,1-.128,1.268l-3.441,2.732L19.416,17.2l2.968-2.352a.9.9,0,1,1,1.125,1.417L20.53,18.6l1.854,2.357,3.451-2.732a.909.909,0,0,1,1.125,1.423l-4.144,3.266h.015A.894.894,0,0,1,21.578,22.77Z" transform="translate(40.399 20.373)" fill="#fff"/>
        <path id="Path_91" data-name="Path 91" d="M24.407,20.821a.878.878,0,1,1-1.484.94l-5-7.991h0a.976.976,0,0,1-.1-.822.914.914,0,0,1,1.156-.514L27.283,15.8l-3.554-5.649a.868.868,0,0,1,.293-1.207.883.883,0,0,1,1.212.267L30.252,17.2a.919.919,0,0,1-.282,1.233.832.832,0,0,1-.745.082.39.39,0,0,1-.118-.036l-8.217-3.343Z" transform="translate(49.931 13.227)" fill="#fff"/>
        <path id="Path_92" data-name="Path 92" d="M26.086,18.707,22.425,9.849a.883.883,0,0,1,.514-1.166h0L27.8,6.675a.909.909,0,0,1,1.171.462.955.955,0,0,1-.514,1.2l-4.052,1.674,1.135,2.742,3.492-1.448a.9.9,0,0,1,.693,1.664l-3.492,1.453,1.484,3.595a.9.9,0,0,1-1.664.688Z" transform="translate(68.903 4.109)" fill="#fff"/>
        <path id="Path_93" data-name="Path 93" d="M27.869,17.543l-2.8-9.167a.878.878,0,0,1,.58-1.1h.031l5.033-1.541a.894.894,0,0,1,1.114.591.914.914,0,0,1-.58,1.125l-4.211,1.3.873,2.845L31.5,10.477a.9.9,0,1,1,.514,1.72l-3.595,1.109.868,2.85,4.216-1.294a.94.94,0,0,1,1.125.627.909.909,0,0,1-.6,1.1l-5.038,1.541h-.046a.894.894,0,0,1-1.078-.591Z" transform="translate(79.949 0.327)" fill="#fff"/>
        <path id="Path_94" data-name="Path 94" d="M29.721,15.722,27.765,6.339a.906.906,0,1,1,1.777-.359L31.3,14.458l4.3-.873a.895.895,0,0,1,.37,1.751L30.836,16.4H30.8a.883.883,0,0,1-1.084-.683Z" transform="translate(91.187 -1.492)" fill="#fff"/>
        <path id="Path_95" data-name="Path 95" d="M30.459,5.824a.888.888,0,0,1,.77-1.027.924.924,0,0,1,1.027.77l1.181,9.5a.9.9,0,1,1-1.777.252Z" transform="translate(102.354 -3.406)" fill="#fff"/>
        <path id="Path_96" data-name="Path 96" d="M32.25,10.579a6.024,6.024,0,0,1,9.542-4.925.939.939,0,1,1-1.073,1.541,3.965,3.965,0,0,0-2.64-.8,4.319,4.319,0,0,0-2.886,1.268,4.047,4.047,0,0,0-1.084,2.861A3.877,3.877,0,0,0,35.4,13.306a4.283,4.283,0,0,0,2.958,1.078,4.165,4.165,0,0,0,2.568-.991.991.991,0,0,1,1.3.128.971.971,0,0,1-.118,1.31,6.034,6.034,0,0,1-3.692,1.4,5.952,5.952,0,0,1-6.173-5.649Z" transform="translate(109.811 -4.52)" fill="#fff"/>
        <path id="Path_97" data-name="Path 97" d="M36.129,5.46a.878.878,0,0,1,.935-.842.9.9,0,0,1,.863.935l-.514,9.562a.914.914,0,0,1-.955.853.873.873,0,0,1-.842-.945Z" transform="translate(123.717 -4.125)" fill="#fff"/>
        <path id="Path_98" data-name="Path 98" d="M37.327,15.016,38.7,5.546a.858.858,0,0,1,.991-.76l1.9.277A5.682,5.682,0,1,1,39.972,16.31l-1.9-.272a.894.894,0,0,1-.75-1.022Zm1.916-.632,1.027.123A3.872,3.872,0,0,0,41.343,6.84L40.316,6.7Z" transform="translate(130.762 -3.467)" fill="#fff"/>
        <path id="Path_99" data-name="Path 99" d="M46.72,14.348l-3.821-.94-1.294,1.854a.9.9,0,0,1-.945.359,1.914,1.914,0,0,1-.282-.123.919.919,0,0,1-.252-1.258L45.9,5.792a.945.945,0,0,1,1.674.416l1.2,10.143a.94.94,0,0,1-.811,1.027.6.6,0,0,1-.293-.031A.883.883,0,0,1,47,16.6Zm-.221-1.88-.442-3.713-2.106,3.081Z" transform="translate(141.772 -0.76)" fill="#fff"/>
        <path id="Path_100" data-name="Path 100" d="M42.848,15.767,45.929,6.7a.878.878,0,0,1,1.135-.55l1.818.616A5.7,5.7,0,1,1,45.2,17.549l-1.8-.642a.894.894,0,0,1-.55-1.14Zm2.008-.282.935.324a3.883,3.883,0,1,0,2.527-7.344l-.965-.288Z" transform="translate(153.43 1.991)" fill="#fff"/>
        <path id="Path_101" data-name="Path 101" d="M58.487,12.52a6.024,6.024,0,0,1-4.108,7.133,5.433,5.433,0,0,1-4.211-.447A5.5,5.5,0,0,1,47.6,15.7,6.055,6.055,0,0,1,51.708,8.6a5.428,5.428,0,0,1,4.314.483,5.305,5.305,0,0,1,2.465,3.441Zm-2.234,3.456a4.257,4.257,0,0,0,.462-3.015A3.379,3.379,0,0,0,55.061,10.7a3.492,3.492,0,0,0-2.84-.329,4.186,4.186,0,0,0-2.388,1.905,4.057,4.057,0,0,0-.442,2.994,3.523,3.523,0,0,0,1.684,2.342,3.6,3.6,0,0,0,2.819.272,4.078,4.078,0,0,0,2.332-1.905Z" transform="translate(172.677 11.334)" fill="#fff"/>
        <path id="Path_102" data-name="Path 102" d="M56.74,22.315a.888.888,0,0,1-1.135.565,1.582,1.582,0,0,1-.318-.149h0a1.361,1.361,0,0,1-.4-.514,1.792,1.792,0,0,1-.092-.77,4.9,4.9,0,0,1,.9-1.762,1.438,1.438,0,0,0,.252-.678,1.675,1.675,0,0,0-.1-.678,3.245,3.245,0,0,0-.514-.842l-1.541-1.15-2.1,2.84a.909.909,0,0,1-1.263.18.888.888,0,0,1-.19-1.248l5.7-7.7a.883.883,0,0,1,1.243-.19h0L59.5,11.931a3.451,3.451,0,0,1,.724,4.863,3.359,3.359,0,0,1-2.6,1.387,2.261,2.261,0,0,1,.092.822,2.9,2.9,0,0,1-.6,1.726,5.067,5.067,0,0,0-.514.811.873.873,0,0,1,.139.775Zm2.054-6.594a1.69,1.69,0,0,0-.339-2.357l-1.6-1.191-2,2.681,1.618,1.191a1.674,1.674,0,0,0,2.326-.329Z" transform="translate(183.498 18.311)" fill="#fff"/>
        <path id="Path_103" data-name="Path 103" d="M54.115,14.029a5.916,5.916,0,0,1,8.376-.226,6.209,6.209,0,0,1,1.854,3.451.95.95,0,0,1-.77,1.084.96.96,0,0,1-1.053-.786,4.232,4.232,0,0,0-1.284-2.383,4.026,4.026,0,0,0-2.958-1.125,3.847,3.847,0,0,0-3.811,4.108,4.062,4.062,0,0,0,1.346,2.855,4.622,4.622,0,0,0,2.054,1.058l1.5-1.633-1.715-1.592a.914.914,0,1,1,1.253-1.33l2.337,2.177h.031a.909.909,0,0,1,.082,1.3l-2.439,2.635a.735.735,0,0,1-.231.164l-.072.041h0a.745.745,0,0,1-.514.092,5.983,5.983,0,0,1-3.595-1.577,5.9,5.9,0,0,1-.4-8.314Z" transform="translate(193.919 27.137)" fill="#fff"/>
        <path id="Path_104" data-name="Path 104" d="M60.433,22.293,57.865,19.32l-2.121.77a.94.94,0,0,1-.991-.267.9.9,0,0,1,.375-1.433l9.583-3.533a.909.909,0,0,1,.981.272.883.883,0,0,1,.139,1.027l-4.884,8.967a.93.93,0,0,1-1.233.344.513.513,0,0,1-.241-.175.883.883,0,0,1-.108-1.027Zm.9-1.654,1.8-3.282-3.513,1.268Z" transform="translate(201.985 38.033)" fill="#fff"/>
        <path id="Path_105" data-name="Path 105" d="M57.777,23.715a.914.914,0,0,1-1.222-.221.883.883,0,0,1,.221-1.243L64.551,16.9h0a.93.93,0,0,1,.822-.118.9.9,0,0,1,.514,1.125l-2.963,8.407,5.505-3.8a.873.873,0,0,1,1.212.221.888.888,0,0,1-.211,1.233l-7.775,5.362a.919.919,0,0,1-1.243-.226.832.832,0,0,1-.087-.734.149.149,0,0,1,.031-.118l2.968-8.376Z" transform="translate(209.644 45.994)" fill="#fff"/>
        <path id="Path_106" data-name="Path 106" d="M66.86,19.6a.863.863,0,0,1,1.2.324.924.924,0,0,1-.318,1.248l-8.33,4.73a.888.888,0,0,1-1.217-.349.868.868,0,0,1,.339-1.217Z" transform="translate(216.598 57.33)" fill="#fff"/>
        <path id="Path_107" data-name="Path 107" d="M71.207,29.224l-9.9-1.982,2.219,4.725a.919.919,0,0,1-.442,1.217.894.894,0,0,1-1.191-.457L58.933,26.4a1.029,1.029,0,0,0-.062-.169v-.046a.185.185,0,0,0-.041-.128.1.1,0,0,1,.031-.062c.031-.031,0-.051,0-.092V25.84h0a.062.062,0,0,1,.041-.072.313.313,0,0,1,.031-.092.251.251,0,0,1,0-.087l.051-.067c.041-.046.041-.056.072-.072a.149.149,0,0,1,.041-.082c0-.031.051-.031.082-.067s0-.036.041-.041a.769.769,0,0,0,.1-.082h.062a.159.159,0,0,1,.113-.051l.072-.031h.082a.123.123,0,0,0,.092-.031.113.113,0,0,0,.082.031h.092l9.912,1.967L67.622,22.3a.9.9,0,0,1,1.633-.755L72.2,27.884v.031l.062.092v.072a.211.211,0,0,0,.031.1v.262h0v.067c0,.031-.031.067-.031.082s-.051.062-.051.092a.087.087,0,0,1-.031.077c0,.036-.041.051-.051.082l-.041.056L72,28.952c0,.046,0,.056-.051.067a.149.149,0,0,1-.092.051l-.041.031a.472.472,0,0,0-.118.051.113.113,0,0,0-.082,0H71.53c-.036,0-.041,0-.1.036h-.062a.108.108,0,0,1-.082,0Z" transform="translate(219.735 63.713)" fill="#fff"/>
        <path id="Path_108" data-name="Path 108" d="M64.377,30.033,63.093,26.3l-2.26-.056a.94.94,0,0,1-.811-.606.95.95,0,0,1-.062-.339.93.93,0,0,1,.945-.868l10.2.257a.94.94,0,0,1,.822.637.889.889,0,0,1-.262,1l-7.847,6.532a.935.935,0,0,1-1.284-.144.7.7,0,0,1-.149-.272.889.889,0,0,1,.272-.96Zm1.474-1.222,2.871-2.378-3.728-.1Z" transform="translate(224.408 77.818)" fill="#fff"/>
        <path id="Path_109" data-name="Path 109" d="M65.46,26.908A5.952,5.952,0,0,1,72.511,31.4a6.091,6.091,0,0,1-.38,3.934.96.96,0,0,1-1.222.442.914.914,0,0,1-.462-1.207,4.072,4.072,0,0,0,.262-2.748,4.319,4.319,0,0,0-1.8-2.6,4.108,4.108,0,0,0-3.03-.514,3.985,3.985,0,0,0-2.475,1.808,4.262,4.262,0,0,0-.473,3.107A4,4,0,0,0,64.4,35.962a1.027,1.027,0,0,1,.118,1.315.976.976,0,0,1-1.3.134,6.163,6.163,0,0,1-2.054-3.364,5.937,5.937,0,0,1,4.3-7.138Z" transform="translate(228.671 87.512)" fill="#fff"/>
        <path id="Path_110" data-name="Path 110" d="M71.687,30.027a.9.9,0,0,1,1.027.775.914.914,0,0,1-.76,1.027l-9.48,1.325a.894.894,0,0,1-1.027-.77.883.883,0,0,1,.76-1.027Z" transform="translate(230.501 100.924)" fill="#fff"/>
        <path id="Path_111" data-name="Path 111" d="M71.792,41.12a5.947,5.947,0,0,1-8.217.354,5.3,5.3,0,0,1-1.905-3.785,5.49,5.49,0,0,1,1.541-4.057,5.742,5.742,0,0,1,4.031-1.787,5.9,5.9,0,0,1,4.165,1.417,5.346,5.346,0,0,1,1.916,3.9A5.238,5.238,0,0,1,71.792,41.12Zm-4.108-.031a4.232,4.232,0,0,0,2.8-1.233,3.461,3.461,0,0,0,1.027-2.614,3.518,3.518,0,0,0-1.274-2.568,4.17,4.17,0,0,0-5.649.262,3.538,3.538,0,0,0-1.027,2.686,3.436,3.436,0,0,0,1.274,2.5,4.165,4.165,0,0,0,2.845.966Z" transform="translate(231.459 108.448)" fill="#fff"/>
        <path id="Path_112" data-name="Path 112" d="M62.895,37.109a.914.914,0,0,1-.842-.935.883.883,0,0,1,.965-.827l9.419.693h0a.883.883,0,0,1,.729.4.894.894,0,0,1-.282,1.212l-7.616,4.72,6.676.488a.881.881,0,1,1-.139,1.756l-9.4-.683a.883.883,0,0,1-.822-.95.827.827,0,0,1,.37-.637.283.283,0,0,1,.1-.082L69.633,37.6Z" transform="translate(231.118 122.951)" fill="#fff"/>
        <path id="Path_113" data-name="Path 113" d="M64.037,45.106l.724-3.872-1.936-1.176a.919.919,0,0,1-.411-.93,1.137,1.137,0,0,1,.1-.3.919.919,0,0,1,1.243-.313l8.766,5.259a.94.94,0,0,1,.411.955.9.9,0,0,1-.724.734L62.152,47.273a.914.914,0,0,1-1.027-.75.806.806,0,0,1,0-.308.868.868,0,0,1,.724-.7Zm1.874-.318,3.672-.668-3.189-1.941Z" transform="translate(229.164 135.563)" fill="#fff"/>
        <path id="Path_114" data-name="Path 114" d="M63.055,41.3l9.218,2.64a.878.878,0,0,1,.6,1.1.9.9,0,0,1-1.1.627L63.435,43.28l-1.212,4.232a.924.924,0,0,1-1.125.611.909.909,0,0,1-.611-1.109L61.93,41.97v-.046h0a.888.888,0,0,1,1.125-.621Z" transform="translate(226.454 147.428)" fill="#fff"/>
      </g>
      <path id="Path_115" data-name="Path 115" d="M41.845,23.064l52.414-2.953V44l-31.933.1.709,32.02,26.417,2.8-.478,21.22-22.858.38.211,42.071,25.139.185L91.1,163.82l-50.051-.375Z" transform="translate(169.74 83.17)" fill="#fff"/>
      <path id="Path_116" data-name="Path 116" d="M25.081,22.471l17.5.575L70.608,92.438l30.444-72.679,16.408.5L124.4,162.846l-26.915.385V89.69L73.494,155.98H67.906L43.456,97.265l.231,73.1-27.013-1.428Z" transform="translate(68.936 81.715)" fill="#fff"/>
      <path id="Path_117" data-name="Path 117" d="M277.2,63.949a9.9,9.9,0,0,1-2.47-.339A145.64,145.64,0,0,1,146.9,139.475,145.639,145.639,0,0,1,19.06,63.61a8.572,8.572,0,0,1-2.388.339,9.624,9.624,0,1,1,6.193-2.3,141.362,141.362,0,0,0,124.06,73.6,141.362,141.362,0,0,0,124.06-73.6,9.616,9.616,0,1,1,6.219,2.3Z" transform="translate(28.911 184.859)" fill="#fff"/>
    </g>
  </g>
</svg>
