<svg xmlns="http://www.w3.org/2000/svg" width="305.536" height="166.698" viewBox="0 0 305.536 166.698">
  <g id="me-eb" transform="translate(-509 -865.028)">
    <g id="Ilustración_1" data-name="Ilustración 1" transform="translate(635.165 991.193)">
      <g id="Group_2" data-name="Group 2" transform="translate(-126.165 -126.165)">
        <path id="Path_1" data-name="Path 1" d="M83,0a83,83,0,1,0,83,83A83,83,0,0,0,83,0Z" transform="translate(0)" fill="#fff"/>
        <g id="Group_1" data-name="Group 1" transform="translate(10.526 11.615)">
          <path id="Path_2" data-name="Path 2" d="M6.927,39.345a2.821,2.821,0,0,1-3.314-2.133A2.855,2.855,0,0,1,3.8,35.356a.448.448,0,0,1,.585-.214.46.46,0,0,1,.214.585,1.886,1.886,0,0,0-.139,1.29A1.994,1.994,0,0,0,5.3,38.239a1.869,1.869,0,0,0,2.6-.588,2.036,2.036,0,0,0,.231-1.468,1.916,1.916,0,0,0-.682-1.114.471.471,0,0,1-.058-.621.451.451,0,0,1,.616-.058,2.838,2.838,0,0,1,.975,1.593,2.8,2.8,0,0,1-2.056,3.362Z" transform="translate(-2.117 50.267)" fill="#c33168"/>
          <path id="Path_3" data-name="Path 3" d="M3.744,32.447a2.8,2.8,0,0,1,3.855-.4A2.473,2.473,0,0,1,8.6,33.775a2.587,2.587,0,0,1-.621,1.95,2.852,2.852,0,0,1-3.858.409A2.56,2.56,0,0,1,3.109,34.36,2.434,2.434,0,0,1,3.744,32.447Zm1.95-.1A1.95,1.95,0,0,0,4.412,33,1.649,1.649,0,0,0,4,34.26a1.671,1.671,0,0,0,.671,1.184,1.93,1.93,0,0,0,1.393.376,1.874,1.874,0,0,0,1.267-.655,1.643,1.643,0,0,0-.245-2.448,2.008,2.008,0,0,0-1.407-.376Z" transform="translate(-2.906 45.203)" fill="#c33168"/>
          <path id="Path_4" data-name="Path 4" d="M7.926,32.053a.418.418,0,0,1,.415.418.412.412,0,0,1-.423.412l-4.456-.058h0a.418.418,0,0,1-.259-.758l3.462-2.42L3.509,29.6a.418.418,0,1,1,0-.836l4.456.061a.421.421,0,0,1,.409.429.407.407,0,0,1-.153.3.594.594,0,0,1-.053.042L4.737,32.008Z" transform="translate(-3.027 40.397)" fill="#c33168"/>
          <path id="Path_5" data-name="Path 5" d="M7.083,30.2a.4.4,0,0,1,0-.557,2.487,2.487,0,0,0,.766-1.393,1.643,1.643,0,0,0-.156-.98.7.7,0,0,0-.512-.4.451.451,0,0,0-.251.042.772.772,0,0,0-.253.195,2.911,2.911,0,0,0-.487.994v.019a4.058,4.058,0,0,1-.423.936,1.632,1.632,0,0,1-.68.643,1.142,1.142,0,0,1-.641.092,1.393,1.393,0,0,1-1.031-.746,2.186,2.186,0,0,1-.24-1.365A3.03,3.03,0,0,1,3.989,26.1a.4.4,0,0,1,.557-.036.384.384,0,0,1,.047.557,2.292,2.292,0,0,0-.638,1.173,1.5,1.5,0,0,0,.15.877.6.6,0,0,0,.443.348.432.432,0,0,0,.226-.033A.682.682,0,0,0,5,28.809a2.749,2.749,0,0,0,.443-.911v-.019a4.456,4.456,0,0,1,.451-1.005,1.875,1.875,0,0,1,.73-.685,1.276,1.276,0,0,1,.671-.1,1.515,1.515,0,0,1,1.092.8,2.443,2.443,0,0,1,.256,1.465,3.32,3.32,0,0,1-1,1.855A.412.412,0,0,1,7.083,30.2Z" transform="translate(-2.805 35.402)" fill="#c33168"/>
          <path id="Path_6" data-name="Path 6" d="M9.221,26.389a2.228,2.228,0,0,1-2.677,1.635l-2.652-.643a.422.422,0,1,1,.2-.819l2.652.632a1.359,1.359,0,0,0,1.646-1,1.376,1.376,0,0,0-1-1.652L4.742,23.9a.429.429,0,0,1,.195-.836l2.646.646a2.2,2.2,0,0,1,1.638,2.674Z" transform="translate(-2.055 30.207)" fill="#c33168"/>
          <path id="Path_7" data-name="Path 7" d="M8.931,24.368,4.647,22.9a.421.421,0,0,1-.279-.535.434.434,0,0,1,.538-.279L8.78,23.413l.674-1.966a.44.44,0,0,1,.557-.262.423.423,0,0,1,.256.532l-.8,2.356h0a.423.423,0,0,1-.538.3Z" transform="translate(-0.67 26.819)" fill="#c33168"/>
          <path id="Path_8" data-name="Path 8" d="M7.177,19.2l-.5,1.114,3.729,1.671a.415.415,0,0,1,.217.557.429.429,0,0,1-.557.206L6.335,21.076l-.5,1.114a.434.434,0,0,1-.557.209.421.421,0,0,1-.217-.557L6.4,18.851a.412.412,0,0,1,.557-.209.437.437,0,0,1,.214.557Z" transform="translate(0.547 22.251)" fill="#c33168"/>
          <path id="Path_9" data-name="Path 9" d="M8.353,16.371a2.858,2.858,0,0,1,2.064.306A2.81,2.81,0,0,1,11.7,18.329a2.507,2.507,0,0,1-.22,1.994,2.61,2.61,0,0,1-1.654,1.214,2.855,2.855,0,0,1-3.342-1.95,2.54,2.54,0,0,1,.234-2.042A2.507,2.507,0,0,1,8.353,16.371Zm1.618,1.064a2.014,2.014,0,0,0-1.423-.226,1.654,1.654,0,0,0-1.078.774,1.671,1.671,0,0,0-.153,1.337,1.98,1.98,0,0,0,2.306,1.356,1.646,1.646,0,0,0,1.237-2.12,1.966,1.966,0,0,0-.888-1.122Z" transform="translate(2.944 18.138)" fill="#c33168"/>
          <path id="Path_10" data-name="Path 10" d="M13.634,16.079a.421.421,0,0,1,.279.532,1.175,1.175,0,0,1-.078.15h0a.59.59,0,0,1-.248.192.677.677,0,0,1-.362.031,2.03,2.03,0,0,1-.836-.409.63.63,0,0,0-.315-.128.694.694,0,0,0-.315.05,1.345,1.345,0,0,0-.4.234l-.54.724,1.331,1a.424.424,0,0,1-.507.68l-3.621-2.71a.415.415,0,0,1-.081-.588h0l.813-1.089a1.635,1.635,0,0,1,2.292-.34,1.6,1.6,0,0,1,.652,1.228,1.175,1.175,0,0,1,.384-.045,1.423,1.423,0,0,1,.813.279,2.142,2.142,0,0,0,.387.248A.37.37,0,0,1,13.634,16.079Zm-3.108-.992a.791.791,0,0,0-1.114.162L8.854,16l1.267.944.557-.752a.788.788,0,0,0-.156-1.111Z" transform="translate(5.59 14.186)" fill="#c33168"/>
          <path id="Path_11" data-name="Path 11" d="M13.554,14.49,12.3,15.857l.473.95a.437.437,0,0,1-.067.473.379.379,0,0,1-.123.095.434.434,0,0,1-.577-.192l-2.17-4.295a.429.429,0,0,1,.07-.482.44.44,0,0,1,.451-.12l4.473,1.8a.429.429,0,0,1,.237.557c-.019.039-.053.078-.084.125a.412.412,0,0,1-.46.1Zm-.836-.343L11.087,13.5l.8,1.565Z" transform="translate(9.059 10.942)" fill="#c33168"/>
          <path id="Path_12" data-name="Path 12" d="M15.377,14.942l-2.785-3.551a.412.412,0,0,1,.072-.593h0l1.95-1.532a.423.423,0,0,1,.588.064.415.415,0,0,1-.061.6l-1.624,1.284.863,1.114,1.393-1.114a.426.426,0,0,1,.593.078.418.418,0,0,1-.07.59L14.9,13l.877,1.114,1.627-1.287a.446.446,0,0,1,.6.075.44.44,0,0,1-.07.593l-1.95,1.546h-.017a.426.426,0,0,1-.6-.1Z" transform="translate(13.879 5.424)" fill="#c33168"/>
          <path id="Path_13" data-name="Path 13" d="M17.646,13.331a.426.426,0,0,1-.123.574.418.418,0,0,1-.585-.136L14.569,10h0a.446.446,0,0,1-.045-.393.426.426,0,0,1,.54-.231l3.919,1.582L17.312,8.293a.418.418,0,0,1,.7-.446L20.4,11.61a.446.446,0,0,1-.136.585.432.432,0,0,1-.357.039.073.073,0,0,1-.056-.017l-3.883-1.582Z" transform="translate(17.45 2.745)" fill="#c33168"/>
          <path id="Path_14" data-name="Path 14" d="M20.263,11.463,18.522,7.285a.418.418,0,0,1,.234-.557h0l2.292-.947A.432.432,0,0,1,21.606,6a.454.454,0,0,1-.234.557l-1.911.788.532,1.3,1.646-.685a.427.427,0,1,1,.329.788l-1.652.682.707,1.7a.429.429,0,0,1-.791.326Z" transform="translate(24.573 -0.695)" fill="#c33168"/>
          <path id="Path_15" data-name="Path 15" d="M22.161,10.552,20.836,6.224a.418.418,0,0,1,.279-.521h.017l2.373-.73a.412.412,0,0,1,.521.279.421.421,0,0,1-.279.529l-1.986.613.409,1.342,1.707-.524a.423.423,0,1,1,.24.811l-1.7.524.415,1.348,1.989-.613a.434.434,0,0,1,.529.292.429.429,0,0,1-.279.524l-2.373.727h-.022A.418.418,0,0,1,22.161,10.552Z" transform="translate(28.733 -2.113)" fill="#c33168"/>
          <path id="Path_16" data-name="Path 16" d="M24.108,9.508l-.914-4.426a.423.423,0,0,1,.329-.5.435.435,0,0,1,.5.331l.836,4L26.9,8.5a.426.426,0,0,1,.17.836l-2.432.507h0a.421.421,0,0,1-.526-.337Z" transform="translate(32.961 -2.793)" fill="#c33168"/>
          <path id="Path_17" data-name="Path 17" d="M25.537,4.651a.418.418,0,0,1,.368-.473.429.429,0,0,1,.479.365l.557,4.481a.443.443,0,0,1-.373.482.423.423,0,0,1-.471-.365Z" transform="translate(37.15 -3.506)" fill="#c33168"/>
          <path id="Path_18" data-name="Path 18" d="M27.1,6.794a2.821,2.821,0,0,1,2.716-2.858,2.86,2.86,0,0,1,1.791.532.442.442,0,0,1-.51.721,1.877,1.877,0,0,0-1.248-.382,2.072,2.072,0,0,0-1.359.6,1.911,1.911,0,0,0-.512,1.348,1.816,1.816,0,0,0,.61,1.315,1.989,1.989,0,0,0,1.393.507A1.93,1.93,0,0,0,31.2,8.112a.443.443,0,0,1,.557.68A2.888,2.888,0,0,1,30,9.452,2.808,2.808,0,0,1,27.1,6.794Z" transform="translate(39.949 -3.934)" fill="#c33168"/>
          <path id="Path_19" data-name="Path 19" d="M30.275,4.414a.409.409,0,0,1,.44-.4.432.432,0,0,1,.412.44L30.88,8.982a.435.435,0,0,1-.451.4.421.421,0,0,1-.4-.443Z" transform="translate(45.174 -3.785)" fill="#c33168"/>
          <path id="Path_20" data-name="Path 20" d="M31.516,8.992l.643-4.47a.409.409,0,0,1,.473-.359l.9.134a2.679,2.679,0,1,1-.766,5.292L31.87,9.46A.418.418,0,0,1,31.516,8.992Zm.9-.3.476.061a1.83,1.83,0,0,0,.512-3.621L32.94,5.07Z" transform="translate(47.826 -3.536)" fill="#c33168"/>
          <path id="Path_21" data-name="Path 21" d="M37.012,8.937,35.2,8.494l-.607.88a.415.415,0,0,1-.446.164.651.651,0,0,1-.136-.056A.426.426,0,0,1,33.9,8.89L36.622,4.9a.415.415,0,0,1,.454-.164.426.426,0,0,1,.337.359l.557,4.785a.443.443,0,0,1-.384.476.312.312,0,0,1-.139,0A.429.429,0,0,1,37.129,10Zm-.106-.888L36.7,6.3,35.7,7.754Z" transform="translate(51.962 -2.523)" fill="#c33168"/>
          <path id="Path_22" data-name="Path 22" d="M36.3,9.869l1.462-4.275a.412.412,0,0,1,.532-.265l.858.279a2.685,2.685,0,1,1-1.738,5.081l-.855-.3a.415.415,0,0,1-.259-.521Zm.944-.131.443.153A1.831,1.831,0,0,0,38.882,6.43l-.451-.153Z" transform="translate(56.342 -1.486)" fill="#c33168"/>
          <path id="Path_23" data-name="Path 23" d="M45.544,9.24a2.821,2.821,0,0,1-.309,2.064A2.785,2.785,0,0,1,43.6,12.6a2.507,2.507,0,0,1-3.209-1.861,2.866,2.866,0,0,1,1.95-3.356,2.59,2.59,0,0,1,2.033.226A2.507,2.507,0,0,1,45.545,9.24Zm-1.058,1.627a1.966,1.966,0,0,0,.217-1.42,1.588,1.588,0,0,0-.78-1.072,1.649,1.649,0,0,0-1.337-.159,1.98,1.98,0,0,0-1.114.9,1.922,1.922,0,0,0-.209,1.412,1.646,1.646,0,0,0,.8,1.114,1.71,1.71,0,0,0,1.329.134,1.95,1.95,0,0,0,1.092-.908Z" transform="translate(63.561 2.026)" fill="#c33168"/>
          <path id="Path_24" data-name="Path 24" d="M45.761,14.543a.415.415,0,0,1-.535.279.644.644,0,0,1-.153-.072h0a.8.8,0,0,1-.189-.251.836.836,0,0,1-.039-.359,2.3,2.3,0,0,1,.421-.836.652.652,0,0,0,.123-.318.945.945,0,0,0-.05-.323,1.44,1.44,0,0,0-.242-.4l-.73-.557-.992,1.34a.426.426,0,0,1-.593.086.415.415,0,0,1-.089-.59L45.374,8.9a.421.421,0,0,1,.588-.086h0l1.095.808a1.635,1.635,0,0,1,.34,2.3,1.6,1.6,0,0,1-1.223.655,1.1,1.1,0,0,1,.039.39,1.376,1.376,0,0,1-.279.816,2.022,2.022,0,0,0-.242.384A.4.4,0,0,1,45.761,14.543Zm.972-3.117a.794.794,0,0,0-.162-1.114l-.76-.557-.939,1.27.76.557a.791.791,0,0,0,1.1-.156Z" transform="translate(67.631 4.634)" fill="#c33168"/>
          <path id="Path_25" data-name="Path 25" d="M45.521,11.475a2.785,2.785,0,0,1,3.949-.111,2.913,2.913,0,0,1,.872,1.629.448.448,0,0,1-.362.512.46.46,0,0,1-.5-.373,1.925,1.925,0,0,0-.6-1.114,1.874,1.874,0,0,0-1.393-.532,1.816,1.816,0,0,0-1.8,1.95,1.93,1.93,0,0,0,.632,1.351,2.228,2.228,0,0,0,.972.493L48,14.505l-.8-.746a.43.43,0,1,1,.585-.629l1.114,1.031h0a.44.44,0,0,1,.042.618l-1.147,1.239a.457.457,0,0,1-.114.078l-.028.017h0a.334.334,0,0,1-.234.045,2.8,2.8,0,0,1-1.671-.746,2.769,2.769,0,0,1-.217-3.936Z" transform="translate(71.553 7.96)" fill="#c33168"/>
          <path id="Path_26" data-name="Path 26" d="M49.288,16.426l-1.217-1.393-1,.365a.432.432,0,0,1-.468-.131.345.345,0,0,1-.075-.128.435.435,0,0,1,.256-.557L51.3,12.911a.423.423,0,0,1,.462.128.409.409,0,0,1,.067.485l-2.306,4.242a.454.454,0,0,1-.588.162.278.278,0,0,1-.109-.086.4.4,0,0,1-.05-.473Zm.429-.785.836-1.549-1.671.6Z" transform="translate(74.579 12.05)" fill="#c33168"/>
          <path id="Path_27" data-name="Path 27" d="M48.768,17.86a.434.434,0,0,1-.582-.1.423.423,0,0,1,.109-.59l3.665-2.523h0a.429.429,0,0,1,.387-.061.421.421,0,0,1,.256.529L51.189,19.1l2.6-1.794a.412.412,0,0,1,.557.1.423.423,0,0,1-.1.588l-3.657,2.521A.432.432,0,0,1,50,20.409a.4.4,0,0,1-.047-.351.078.078,0,0,1,0-.056l1.393-3.952Z" transform="translate(77.458 15.042)" fill="#c33168"/>
          <path id="Path_28" data-name="Path 28" d="M53.728,17.006a.407.407,0,0,1,.557.156.432.432,0,0,1-.156.588L50.2,19.978a.415.415,0,0,1-.577-.167.409.409,0,0,1,.162-.574Z" transform="translate(80.063 19.308)" fill="#c33168"/>
          <path id="Path_29" data-name="Path 29" d="M56.054,22.159l-4.671-.941,1.044,2.228a.44.44,0,0,1-.209.574.432.432,0,0,1-.557-.217l-1.393-2.989c0-.022-.017-.045-.022-.078v-.022a.1.1,0,0,0,0-.053v-.1h0v-.033a.149.149,0,0,0,.017-.045.061.061,0,0,1,0-.042.03.03,0,0,1,.025-.028c.025-.006.017-.028.028-.033l.022-.039s.022,0,.033-.033,0,0,.022-.02a.294.294,0,0,0,.047-.036h.028a.106.106,0,0,1,.056-.017l.036-.02H50.6a.045.045,0,0,0,.039,0,.07.07,0,0,0,.045,0h.047l4.671.925-1.039-2.248a.426.426,0,0,1,.212-.557.432.432,0,0,1,.557.2l1.393,3h0l.031.05v.031a.067.067,0,0,0,0,.047v.162a.042.042,0,0,1-.017.033c0,.019-.022.033-.022.045a.047.047,0,0,1,0,.039l-.031.039-.017.028-.039.025a.042.042,0,0,1-.025.033.131.131,0,0,1-.045.022h-.02a.109.109,0,0,0-.056.031H56.2c-.022,0,0,0-.047.017h-.067Z" transform="translate(81.272 21.711)" fill="#c33168"/>
          <path id="Path_30" data-name="Path 30" d="M53.3,23.908,52.7,22.142l-1.067-.022a.429.429,0,0,1,.031-.858l4.816.123a.44.44,0,0,1,.387.3.418.418,0,0,1-.12.471l-3.71,3.08a.443.443,0,0,1-.6-.061.557.557,0,0,1-.072-.131.426.426,0,0,1,.131-.457Zm.7-.577,1.351-1.114-1.763-.05Z" transform="translate(83.007 27)" fill="#c33168"/>
          <path id="Path_31" data-name="Path 31" d="M54.226,23.365a2.81,2.81,0,0,1,3.326,2.114,2.927,2.927,0,0,1-.178,1.863.457.457,0,0,1-.582.209.44.44,0,0,1-.217-.574,1.916,1.916,0,0,0,.128-1.3,2,2,0,0,0-.836-1.223,1.913,1.913,0,0,0-1.432-.242,1.872,1.872,0,0,0-1.173.852,2.056,2.056,0,0,0-.22,1.465,1.905,1.905,0,0,0,.691,1.114.44.44,0,1,1-.557.682,2.969,2.969,0,0,1-.983-1.593A2.8,2.8,0,0,1,54.226,23.365Z" transform="translate(84.607 30.643)" fill="#c33168"/>
          <path id="Path_32" data-name="Path 32" d="M57.334,26.125a.429.429,0,0,1,.125.836l-4.47.627a.418.418,0,0,1-.485-.365.412.412,0,0,1,.359-.471Z" transform="translate(85.293 35.682)" fill="#c33168"/>
          <path id="Path_33" data-name="Path 33" d="M57.489,32.086a2.869,2.869,0,0,1-1.9.861,2.807,2.807,0,0,1-1.977-.694A2.482,2.482,0,0,1,52.7,30.47a2.607,2.607,0,0,1,.741-1.922,2.7,2.7,0,0,1,1.9-.836,2.785,2.785,0,0,1,1.969.668,2.562,2.562,0,0,1,.9,1.838A2.484,2.484,0,0,1,57.489,32.086Zm-1.95-.017a1.972,1.972,0,0,0,1.315-.582,1.624,1.624,0,0,0,.485-1.231,1.646,1.646,0,0,0-.6-1.223,1.922,1.922,0,0,0-1.359-.457,1.9,1.9,0,0,0-1.312.585,1.671,1.671,0,0,0-.485,1.264,1.638,1.638,0,0,0,.6,1.184,1.972,1.972,0,0,0,1.368.462Z" transform="translate(85.649 38.509)" fill="#c33168"/>
          <path id="Path_34" data-name="Path 34" d="M53.25,31.6a.419.419,0,0,1,.061-.836l4.442.32h0a.412.412,0,0,1,.212.766l-3.6,2.228,3.145.234a.423.423,0,0,1,.39.44.432.432,0,0,1-.451.393l-4.434-.326a.409.409,0,0,1-.39-.448.382.382,0,0,1,.173-.3.1.1,0,0,1,.056-.039l3.571-2.195Z" transform="translate(85.521 43.954)" fill="#c33168"/>
          <path id="Path_35" data-name="Path 35" d="M53.6,36.581l.34-1.827L53.03,34.2a.429.429,0,0,1-.192-.44.368.368,0,0,1,.047-.142.44.44,0,0,1,.588-.145l4.133,2.484a.437.437,0,0,1-.148.8l-4.735.855a.432.432,0,0,1-.5-.351.359.359,0,0,1,0-.153.4.4,0,0,1,.34-.329Zm.888-.15,1.732-.315L54.71,35.2Z" transform="translate(84.788 48.692)" fill="#c33168"/>
          <path id="Path_36" data-name="Path 36" d="M52.87,35.927l4.353,1.245a.407.407,0,0,1,.279.515.426.426,0,0,1-.521.3l-3.938-1.114-.557,2a.426.426,0,0,1-.819-.237l.68-2.381v-.017h0a.423.423,0,0,1,.524-.306Z" transform="translate(83.776 53.153)" fill="#c33168"/>
        </g>
        <path id="Path_37" data-name="Path 37" d="M36.444,18.9,61.7,17.5V28.779l-15.583.05.075,15.113,12.341,1.32-.287,10.01-10.829.181L47.5,75.309l11.862.089-.178,9.929-23.368-.178Z" transform="translate(66.033 31.907)" fill="#c33168"/>
        <path id="Path_38" data-name="Path 38" d="M18.475,18.478l8.261.273L39.963,51.5,54.335,17.2l7.743.234,4.075,67.3-11.91.178V50.2L41.331,79.388H38.69L27.148,52.731l.114,35.022-12.754-.407Z" transform="translate(27.997 31.359)" fill="#c33168"/>
        <path id="Path_39" data-name="Path 39" d="M133.609,47.977a4.736,4.736,0,0,1-1.164-.159,68.742,68.742,0,0,1-120.673,0,4.091,4.091,0,0,1-1.131.159A4.534,4.534,0,1,1,13.568,46.9a66.717,66.717,0,0,0,117.094,0,4.537,4.537,0,1,1,2.95,1.086Z" transform="translate(12.976 70.117)" fill="#c33168"/>
      </g>
    </g>
    <g id="Group_753" data-name="Group 753" transform="translate(244.758 644.335)">
      <g id="Group_750" data-name="Group 750">
        <g id="Group_749" data-name="Group 749">
          <path id="Path_2224" data-name="Path 2224" d="M501.312,272.725h19.981c4.863,0,11.267,0,14.584,2.006a13.072,13.072,0,0,1,6.479,11.5,12.719,12.719,0,0,1-8.176,12.342v.155c6.792,1.388,10.493,6.481,10.493,13.272,0,8.1-5.788,15.815-16.742,15.815H501.312Zm7.325,23.686H523.3c8.329,0,11.727-3.009,11.727-8.8,0-7.638-5.4-8.716-11.727-8.716H508.637Zm0,25.228h18.368c6.325,0,10.34-3.857,10.34-9.874,0-7.176-5.788-9.182-11.963-9.182H508.637Z" fill="#fff"/>
          <path id="Path_2225" data-name="Path 2225" d="M563.413,300.291a41.9,41.9,0,1,1-41.907-41.9A41.9,41.9,0,0,1,563.413,300.291ZM521.506,252a48.264,48.264,0,1,0,48.272,48.264A48.263,48.263,0,0,0,521.506,252Z" fill="#fff"/>
        </g>
        <rect id="Rectangle_176" data-name="Rectangle 176" width="96.333" height="6.332" transform="translate(473.245 358.713)" fill="#fff"/>
        <path id="Path_2226" data-name="Path 2226" d="M566.564,351.742c.119,0,.231-.006.337-.012a.809.809,0,0,0,.277-.064.474.474,0,0,0,.2-.167.553.553,0,0,0,.07-.313.452.452,0,0,0-.064-.266.394.394,0,0,0-.171-.153.671.671,0,0,0-.236-.08c-.089-.006-.174-.015-.266-.015h-.691v1.07Zm.231-1.494a1.4,1.4,0,0,1,.887.235.893.893,0,0,1,.294.725.847.847,0,0,1-.255.669,1.215,1.215,0,0,1-.638.251l.963,1.478h-.557l-.919-1.447h-.552v1.447h-.529v-3.358Zm-2.368,2.644a2.188,2.188,0,0,0,.5.787,2.257,2.257,0,0,0,.755.52,2.316,2.316,0,0,0,.934.181,2.291,2.291,0,0,0,.935-.181,2.45,2.45,0,0,0,.754-.52,2.425,2.425,0,0,0,.494-.787,2.5,2.5,0,0,0,.185-.969,2.471,2.471,0,0,0-.185-.966,2.433,2.433,0,0,0-.494-.777,2.519,2.519,0,0,0-.754-.513,2.362,2.362,0,0,0-.935-.189,2.39,2.39,0,0,0-.934.189,2.315,2.315,0,0,0-.755.513,2.191,2.191,0,0,0-.5.777,2.488,2.488,0,0,0-.182.966,2.514,2.514,0,0,0,.182.969m-.477-2.11a3.033,3.033,0,0,1,.625-.9,2.928,2.928,0,0,1,.925-.6,2.835,2.835,0,0,1,1.112-.215,2.872,2.872,0,0,1,2.657,1.721,2.715,2.715,0,0,1,.232,1.141,2.682,2.682,0,0,1-.232,1.14,2.807,2.807,0,0,1-.625.916,2.765,2.765,0,0,1-.9.608,3,3,0,0,1-1.128.213,2.946,2.946,0,0,1-1.112-.213,2.813,2.813,0,0,1-.925-.608,2.919,2.919,0,0,1-.625-.916,2.678,2.678,0,0,1-.225-1.14,2.711,2.711,0,0,1,.225-1.141" fill="#fff"/>
      </g>
      <g id="Group_751" data-name="Group 751">
        <path id="Path_2227" data-name="Path 2227" d="M485.859,222.665v3.119h-8.907V229.4h8.176v2.882h-8.176v4.135h9.1v3.119H473.242v-16.87Z" fill="#fff"/>
        <path id="Path_2228" data-name="Path 2228" d="M491.46,227.32v1.653h.045a4.8,4.8,0,0,1,1.6-1.464,4.323,4.323,0,0,1,2.138-.521,4.932,4.932,0,0,1,2.115.449,2.965,2.965,0,0,1,1.452,1.583,5.238,5.238,0,0,1,1.476-1.418,3.944,3.944,0,0,1,2.21-.614,6.456,6.456,0,0,1,1.795.238,3.622,3.622,0,0,1,1.419.755,3.448,3.448,0,0,1,.92,1.358,5.508,5.508,0,0,1,.331,2.02v8.175H503.6v-6.922q0-.615-.047-1.158a2.482,2.482,0,0,0-.26-.945,1.577,1.577,0,0,0-.627-.638,2.255,2.255,0,0,0-1.122-.236,2.137,2.137,0,0,0-1.146.272,1.987,1.987,0,0,0-.686.708,2.859,2.859,0,0,0-.33.993,7.486,7.486,0,0,0-.082,1.122v6.8h-3.357v-6.851c0-.363-.008-.722-.022-1.075a3.031,3.031,0,0,0-.2-.981,1.511,1.511,0,0,0-.591-.72,2.221,2.221,0,0,0-1.217-.272,2.482,2.482,0,0,0-.625.106,2.061,2.061,0,0,0-.756.4,2.355,2.355,0,0,0-.627.85,3.467,3.467,0,0,0-.259,1.454v7.087h-3.356V227.32Z" fill="#fff"/>
        <path id="Path_2229" data-name="Path 2229" d="M512.323,227.32v1.559h.046a3.707,3.707,0,0,1,1.561-1.442,4.78,4.78,0,0,1,2.078-.449,5.292,5.292,0,0,1,2.481.544,5.127,5.127,0,0,1,1.725,1.441,6.139,6.139,0,0,1,1.018,2.091,9.4,9.4,0,0,1,.329,2.493,8.5,8.5,0,0,1-.329,2.364,6.061,6.061,0,0,1-1.006,2.007,4.97,4.97,0,0,1-1.677,1.394,5.047,5.047,0,0,1-2.352.52,4.748,4.748,0,0,1-2.091-.461,3.972,3.972,0,0,1-1.572-1.358h-.046v5.788h-3.355V227.32Zm4.359,9.686a2.7,2.7,0,0,0,.9-.862,3.577,3.577,0,0,0,.484-1.24,7.368,7.368,0,0,0,.142-1.442,6.678,6.678,0,0,0-.155-1.44,3.8,3.8,0,0,0-.507-1.265,2.855,2.855,0,0,0-.909-.9,2.546,2.546,0,0,0-1.359-.342,2.589,2.589,0,0,0-1.382.342,2.749,2.749,0,0,0-.9.887,3.64,3.64,0,0,0-.484,1.252,7.4,7.4,0,0,0-.143,1.464,6.811,6.811,0,0,0,.154,1.442,3.71,3.71,0,0,0,.5,1.24,2.859,2.859,0,0,0,3.662.862" fill="#fff"/>
        <path id="Path_2230" data-name="Path 2230" d="M526.285,227.32v2.268h.048a4.021,4.021,0,0,1,.639-1.051,4.19,4.19,0,0,1,.921-.828,4.516,4.516,0,0,1,1.11-.531,3.981,3.981,0,0,1,1.228-.19,2.64,2.64,0,0,1,.733.118v3.12c-.158-.031-.347-.06-.568-.083a6.13,6.13,0,0,0-.636-.036,3.593,3.593,0,0,0-1.561.308,2.68,2.68,0,0,0-1.027.838,3.329,3.329,0,0,0-.555,1.241,6.706,6.706,0,0,0-.166,1.535v5.5H523.1V227.32Z" fill="#fff"/>
        <path id="Path_2231" data-name="Path 2231" d="M535.454,236.6a3.436,3.436,0,0,0,3.922.224,2.106,2.106,0,0,0,.9-1.075h2.954a5.6,5.6,0,0,1-2.174,3.143,6.4,6.4,0,0,1-3.544.945,6.96,6.96,0,0,1-2.6-.461,5.4,5.4,0,0,1-1.961-1.311,5.855,5.855,0,0,1-1.24-2.032,7.422,7.422,0,0,1-.438-2.6,7.141,7.141,0,0,1,.448-2.553,5.915,5.915,0,0,1,3.25-3.4,6.338,6.338,0,0,1,2.54-.5,5.788,5.788,0,0,1,2.717.6,5.444,5.444,0,0,1,1.9,1.618,6.659,6.659,0,0,1,1.075,2.315,8.649,8.649,0,0,1,.237,2.718h-8.812a3.375,3.375,0,0,0,.826,2.363m3.792-6.427a2.363,2.363,0,0,0-1.831-.661,2.91,2.91,0,0,0-1.336.272,2.517,2.517,0,0,0-.849.673,2.447,2.447,0,0,0-.45.85,3.643,3.643,0,0,0-.152.8h5.457a3.875,3.875,0,0,0-.839-1.938" fill="#fff"/>
        <path id="Path_2232" data-name="Path 2232" d="M548.247,236.5a1.969,1.969,0,0,0,.58.639,2.457,2.457,0,0,0,.814.366,3.873,3.873,0,0,0,.957.119,3.537,3.537,0,0,0,.745-.084,2.572,2.572,0,0,0,.708-.259,1.608,1.608,0,0,0,.531-.474,1.229,1.229,0,0,0,.214-.744c0-.5-.336-.881-1-1.134a20.085,20.085,0,0,0-2.8-.755q-.734-.166-1.429-.39a4.9,4.9,0,0,1-1.241-.591,2.881,2.881,0,0,1-.874-.922,2.616,2.616,0,0,1-.331-1.359,3.685,3.685,0,0,1,.461-1.937,3.408,3.408,0,0,1,1.217-1.193,5.356,5.356,0,0,1,1.7-.615,10.59,10.59,0,0,1,1.937-.177,9.662,9.662,0,0,1,1.926.189,5.137,5.137,0,0,1,1.667.638,3.848,3.848,0,0,1,1.216,1.194,4.028,4.028,0,0,1,.579,1.878h-3.19a1.465,1.465,0,0,0-.733-1.31,3.325,3.325,0,0,0-1.559-.344,5.674,5.674,0,0,0-.614.036,2.046,2.046,0,0,0-.6.153,1.247,1.247,0,0,0-.462.342,1.015,1.015,0,0,0,.142,1.335,2.573,2.573,0,0,0,.862.462,10.962,10.962,0,0,0,1.218.319q.684.141,1.393.307a14.319,14.319,0,0,1,1.431.4,4.674,4.674,0,0,1,1.24.627,3.045,3.045,0,0,1,.874.968,2.853,2.853,0,0,1,.33,1.429,3.706,3.706,0,0,1-1.748,3.332,5.2,5.2,0,0,1-1.784.7,10.387,10.387,0,0,1-2.044.2,10.038,10.038,0,0,1-2.079-.212,5.49,5.49,0,0,1-1.807-.708,3.888,3.888,0,0,1-1.855-3.356h3.19a1.836,1.836,0,0,0,.224.933" fill="#fff"/>
        <path id="Path_2233" data-name="Path 2233" d="M558.56,229.115a4,4,0,0,1,1.324-1.252,5.782,5.782,0,0,1,1.807-.674,10.353,10.353,0,0,1,2.021-.2,13.651,13.651,0,0,1,1.866.131,5.672,5.672,0,0,1,1.724.507,3.409,3.409,0,0,1,1.276,1.052,2.931,2.931,0,0,1,.5,1.785v6.354a12.962,12.962,0,0,0,.093,1.584,2.824,2.824,0,0,0,.332,1.133h-3.4a4.369,4.369,0,0,1-.154-.577,5.061,5.061,0,0,1-.085-.6,4.353,4.353,0,0,1-1.889,1.157,7.576,7.576,0,0,1-2.222.331,6.021,6.021,0,0,1-1.629-.212,3.742,3.742,0,0,1-1.323-.662,3.067,3.067,0,0,1-.886-1.135,3.822,3.822,0,0,1-.319-1.63,3.582,3.582,0,0,1,.365-1.713,3.083,3.083,0,0,1,.946-1.075,4.28,4.28,0,0,1,1.323-.6,14.412,14.412,0,0,1,1.5-.318q.756-.119,1.488-.189a8.82,8.82,0,0,0,1.3-.213,2.257,2.257,0,0,0,.9-.413.909.909,0,0,0,.308-.792,1.78,1.78,0,0,0-.177-.862,1.3,1.3,0,0,0-.474-.5,1.848,1.848,0,0,0-.684-.236,5.529,5.529,0,0,0-.839-.06,2.539,2.539,0,0,0-1.559.426,1.9,1.9,0,0,0-.663,1.417h-3.355a3.893,3.893,0,0,1,.591-1.961m6.628,4.738a5.533,5.533,0,0,1-.686.176c-.244.048-.5.088-.767.119s-.536.07-.8.118a6.186,6.186,0,0,0-.744.188,2.258,2.258,0,0,0-.638.32,1.531,1.531,0,0,0-.437.507,1.647,1.647,0,0,0-.165.781,1.573,1.573,0,0,0,.165.755,1.267,1.267,0,0,0,.449.485,1.861,1.861,0,0,0,.662.248,4.235,4.235,0,0,0,.779.071,2.976,2.976,0,0,0,1.537-.331,2.2,2.2,0,0,0,.8-.792,2.54,2.54,0,0,0,.319-.933,6.489,6.489,0,0,0,.059-.756v-1.252a1.517,1.517,0,0,1-.532.3" fill="#fff"/>
      </g>
      <g id="Group_752" data-name="Group 752">
        <path id="Path_2234" data-name="Path 2234" d="M482.623,377.045a3.018,3.018,0,0,0-.671-.757,3.069,3.069,0,0,0-.91-.508,3.125,3.125,0,0,0-1.065-.183,3.526,3.526,0,0,0-1.726.393,3.248,3.248,0,0,0-1.15,1.055,4.609,4.609,0,0,0-.644,1.506,7.507,7.507,0,0,0-.2,1.745,6.961,6.961,0,0,0,.2,1.677,4.526,4.526,0,0,0,.644,1.468,3.286,3.286,0,0,0,1.15,1.045,3.525,3.525,0,0,0,1.726.393,2.78,2.78,0,0,0,2.157-.844,3.893,3.893,0,0,0,.95-2.224H486a6.938,6.938,0,0,1-.594,2.321,5.556,5.556,0,0,1-1.266,1.763,5.368,5.368,0,0,1-1.841,1.113,6.753,6.753,0,0,1-2.32.383,7.012,7.012,0,0,1-2.829-.546,6.03,6.03,0,0,1-2.119-1.506,6.625,6.625,0,0,1-1.323-2.253,8.265,8.265,0,0,1-.461-2.79,8.548,8.548,0,0,1,.461-2.848,6.833,6.833,0,0,1,1.323-2.292,6.047,6.047,0,0,1,2.119-1.534,7.369,7.369,0,0,1,4.967-.231,5.9,5.9,0,0,1,1.8.949,5.163,5.163,0,0,1,1.313,1.545,5.511,5.511,0,0,1,.652,2.109h-2.914a2.486,2.486,0,0,0-.346-.949" fill="#fff"/>
        <path id="Path_2235" data-name="Path 2235" d="M490.294,384.706a2.791,2.791,0,0,0,3.183.183,1.706,1.706,0,0,0,.729-.873h2.4a4.554,4.554,0,0,1-1.764,2.551,5.189,5.189,0,0,1-2.876.767,5.67,5.67,0,0,1-2.11-.373,4.384,4.384,0,0,1-1.592-1.066,4.751,4.751,0,0,1-1.006-1.649,6.028,6.028,0,0,1-.354-2.11,5.775,5.775,0,0,1,.363-2.07A4.8,4.8,0,0,1,489.9,377.3a5.126,5.126,0,0,1,2.062-.4,4.729,4.729,0,0,1,2.2.489,4.425,4.425,0,0,1,1.544,1.313,5.437,5.437,0,0,1,.873,1.88,7.066,7.066,0,0,1,.192,2.206h-7.154a2.749,2.749,0,0,0,.671,1.917m3.078-5.216a1.914,1.914,0,0,0-1.487-.537,2.357,2.357,0,0,0-1.083.221,2.087,2.087,0,0,0-.69.546,2.016,2.016,0,0,0-.365.691,3.078,3.078,0,0,0-.124.652h4.429a3.152,3.152,0,0,0-.68-1.573" fill="#fff"/>
        <path id="Path_2236" data-name="Path 2236" d="M500.208,377.169v1.842h.04a3.377,3.377,0,0,1,.517-.854,3.437,3.437,0,0,1,.748-.672,3.677,3.677,0,0,1,.9-.43,3.266,3.266,0,0,1,1-.153,2.117,2.117,0,0,1,.6.1v2.53c-.129-.025-.281-.047-.459-.067a4.955,4.955,0,0,0-.519-.028,2.907,2.907,0,0,0-1.265.249,2.174,2.174,0,0,0-.834.681,2.739,2.739,0,0,0-.452,1.007,5.5,5.5,0,0,0-.134,1.246v4.468H497.62v-9.915Z" fill="#fff"/>
        <path id="Path_2237" data-name="Path 2237" d="M511.267,377.169v1.823h-1.995v4.91a.922.922,0,0,0,1.151,1.15c.153,0,.3-.006.441-.02a3.759,3.759,0,0,0,.4-.057v2.109a6.4,6.4,0,0,1-.767.077c-.282.012-.556.019-.825.019a8.033,8.033,0,0,1-1.2-.086,2.822,2.822,0,0,1-1-.335,1.779,1.779,0,0,1-.68-.711,2.518,2.518,0,0,1-.25-1.207v-5.849H504.9v-1.823h1.649V374.2h2.723v2.972Z" fill="#fff"/>
        <path id="Path_2238" data-name="Path 2238" d="M512.648,373.391h2.723v2.245h-2.723Zm2.723,13.694h-2.723V377.17h2.723Z" fill="#fff"/>
        <path id="Path_2239" data-name="Path 2239" d="M516.483,378.991v-1.822h1.63V376.4a2.966,2.966,0,0,1,.824-2.166,3.342,3.342,0,0,1,2.494-.845q.363,0,.728.029c.242.02.479.035.71.048V375.5a8.468,8.468,0,0,0-1-.057,1.035,1.035,0,0,0-.795.259,1.265,1.265,0,0,0-.24.872v.594h1.878v1.822h-1.878v8.093h-2.723v-8.093Z" fill="#fff"/>
        <path id="Path_2240" data-name="Path 2240" d="M523.981,373.391H526.7v2.245h-2.723Zm2.724,13.694h-2.723V377.17h2.723Z" fill="#fff"/>
        <path id="Path_2241" data-name="Path 2241" d="M532.822,378.954a1.912,1.912,0,0,0-1.092.3,2.345,2.345,0,0,0-.72.768,3.31,3.31,0,0,0-.394,1.035,5.684,5.684,0,0,0-.116,1.123,5.444,5.444,0,0,0,.116,1.093,3.4,3.4,0,0,0,.374,1.006,2.137,2.137,0,0,0,.7.739,1.925,1.925,0,0,0,1.074.287,2,2,0,0,0,1.505-.546,2.593,2.593,0,0,0,.661-1.468h2.628a4.486,4.486,0,0,1-1.535,3.011,4.954,4.954,0,0,1-3.241,1.036,5.437,5.437,0,0,1-2.043-.374,4.534,4.534,0,0,1-1.581-1.045,4.785,4.785,0,0,1-1.018-1.6,5.569,5.569,0,0,1-.363-2.043,6.617,6.617,0,0,1,.335-2.137,4.814,4.814,0,0,1,.987-1.708,4.552,4.552,0,0,1,1.593-1.121,5.4,5.4,0,0,1,2.147-.4,6.218,6.218,0,0,1,1.7.23,4.521,4.521,0,0,1,1.458.7,3.608,3.608,0,0,1,1.506,2.828h-2.666a1.825,1.825,0,0,0-2.013-1.706" fill="#fff"/>
        <path id="Path_2242" data-name="Path 2242" d="M539.074,378.627a3.231,3.231,0,0,1,1.074-1.016,4.625,4.625,0,0,1,1.465-.546,8.333,8.333,0,0,1,1.641-.164,10.836,10.836,0,0,1,1.515.107,4.573,4.573,0,0,1,1.4.411,2.762,2.762,0,0,1,1.036.853,2.393,2.393,0,0,1,.4,1.449v5.158a10.213,10.213,0,0,0,.077,1.285,2.319,2.319,0,0,0,.268.92h-2.761a3.556,3.556,0,0,1-.124-.469,3.729,3.729,0,0,1-.068-.49,3.534,3.534,0,0,1-1.534.94,6.125,6.125,0,0,1-1.8.269,4.871,4.871,0,0,1-1.323-.173,3.014,3.014,0,0,1-1.074-.537,2.49,2.49,0,0,1-.719-.92,3.116,3.116,0,0,1-.259-1.323,2.905,2.905,0,0,1,.3-1.391,2.5,2.5,0,0,1,.767-.872,3.416,3.416,0,0,1,1.073-.489,11.752,11.752,0,0,1,1.219-.26c.41-.063.811-.115,1.208-.152a7.461,7.461,0,0,0,1.055-.174,1.817,1.817,0,0,0,.728-.335.735.735,0,0,0,.25-.642,1.442,1.442,0,0,0-.144-.7,1.03,1.03,0,0,0-.383-.4,1.5,1.5,0,0,0-.557-.193,4.533,4.533,0,0,0-.679-.048,2.077,2.077,0,0,0-1.267.344,1.546,1.546,0,0,0-.537,1.151h-2.724a3.161,3.161,0,0,1,.481-1.591m5.378,3.845a4.414,4.414,0,0,1-.556.144c-.2.039-.406.07-.623.1s-.435.057-.652.1a4.982,4.982,0,0,0-.6.154,1.784,1.784,0,0,0-.52.26,1.257,1.257,0,0,0-.354.411,1.335,1.335,0,0,0-.133.633,1.288,1.288,0,0,0,.133.614,1.025,1.025,0,0,0,.365.393,1.543,1.543,0,0,0,.537.2,3.45,3.45,0,0,0,.633.057,2.4,2.4,0,0,0,1.246-.269,1.8,1.8,0,0,0,.653-.641,2.087,2.087,0,0,0,.258-.759,5.156,5.156,0,0,0,.048-.613v-1.016a1.193,1.193,0,0,1-.432.239" fill="#fff"/>
        <path id="Path_2243" data-name="Path 2243" d="M555.988,385.818a2.818,2.818,0,0,1-1.257,1.162,4.193,4.193,0,0,1-1.755.353,4.243,4.243,0,0,1-1.955-.43,3.94,3.94,0,0,1-1.391-1.171,5.342,5.342,0,0,1-.825-1.7,7.168,7.168,0,0,1-.277-1.995,6.739,6.739,0,0,1,.277-1.926,5.042,5.042,0,0,1,.825-1.64A4.1,4.1,0,0,1,551,377.333a4.059,4.059,0,0,1,1.917-.431,3.887,3.887,0,0,1,1.678.374,2.918,2.918,0,0,1,1.256,1.1h.039v-4.987h2.723v13.693h-2.588v-1.266Zm-.115-4.9a2.859,2.859,0,0,0-.394-1,2.2,2.2,0,0,0-.718-.7,2.114,2.114,0,0,0-1.113-.268,2.216,2.216,0,0,0-1.132.268,2.114,2.114,0,0,0-.737.709,3.121,3.121,0,0,0-.4,1.008,5.521,5.521,0,0,0-.124,1.179,5.007,5.007,0,0,0,.134,1.15,3.185,3.185,0,0,0,.431,1.027,2.383,2.383,0,0,0,.749.727,2.018,2.018,0,0,0,1.083.28,2.151,2.151,0,0,0,1.122-.27,2.028,2.028,0,0,0,.72-.72,3.256,3.256,0,0,0,.383-1.024,6.116,6.116,0,0,0,.115-1.189,5.957,5.957,0,0,0-.115-1.18" fill="#fff"/>
        <path id="Path_2244" data-name="Path 2244" d="M560.621,378.627a3.25,3.25,0,0,1,1.074-1.016,4.631,4.631,0,0,1,1.466-.546,8.33,8.33,0,0,1,1.64-.164,10.836,10.836,0,0,1,1.515.107,4.557,4.557,0,0,1,1.4.411,2.765,2.765,0,0,1,1.037.853,2.386,2.386,0,0,1,.4,1.449v5.158a10.213,10.213,0,0,0,.077,1.285,2.254,2.254,0,0,0,.269.92h-2.762a3.56,3.56,0,0,1-.125-.469,4.09,4.09,0,0,1-.067-.49,3.536,3.536,0,0,1-1.535.94,6.119,6.119,0,0,1-1.8.269,4.871,4.871,0,0,1-1.323-.173,3.01,3.01,0,0,1-1.075-.537,2.49,2.49,0,0,1-.719-.92,3.116,3.116,0,0,1-.258-1.323,2.881,2.881,0,0,1,.3-1.391,2.493,2.493,0,0,1,.767-.872,3.392,3.392,0,0,1,1.074-.489,11.626,11.626,0,0,1,1.218-.26c.409-.063.811-.115,1.208-.152a7.459,7.459,0,0,0,1.055-.174,1.825,1.825,0,0,0,.728-.335.738.738,0,0,0,.249-.642,1.444,1.444,0,0,0-.143-.7,1.033,1.033,0,0,0-.384-.4,1.479,1.479,0,0,0-.556-.193,4.547,4.547,0,0,0-.68-.048,2.079,2.079,0,0,0-1.267.344,1.545,1.545,0,0,0-.536,1.151h-2.724a3.161,3.161,0,0,1,.48-1.591m5.38,3.845a4.6,4.6,0,0,1-.556.144c-.2.039-.407.07-.625.1s-.434.057-.651.1a4.949,4.949,0,0,0-.6.154,1.79,1.79,0,0,0-.519.26,1.256,1.256,0,0,0-.354.411,1.322,1.322,0,0,0-.134.633,1.275,1.275,0,0,0,.134.614,1.025,1.025,0,0,0,.365.393,1.535,1.535,0,0,0,.537.2,3.45,3.45,0,0,0,.633.057,2.393,2.393,0,0,0,1.245-.269,1.8,1.8,0,0,0,.653-.641,2.07,2.07,0,0,0,.259-.759,5.337,5.337,0,0,0,.047-.613v-1.016a1.193,1.193,0,0,1-.43.239" fill="#fff"/>
      </g>
    </g>
  </g>
</svg>
