<svg id="team" xmlns="http://www.w3.org/2000/svg" width="65.93" height="76.96" viewBox="0 0 65.93 76.96">
  <g id="Group_782" data-name="Group 782" transform="translate(0 60.275)">
    <g id="Group_781" data-name="Group 781" transform="translate(0)">
      <path id="Path_2259" data-name="Path 2259" d="M29.457,401.44a1.4,1.4,0,0,0-2.035,0,1.549,1.549,0,0,0,0,2.125,1.4,1.4,0,0,0,2.035,0,1.549,1.549,0,0,0,0-2.125Z" transform="translate(-27 -401)" fill="#45a8bc"/>
    </g>
  </g>
  <g id="Group_784" data-name="Group 784" transform="translate(0)">
    <g id="Group_783" data-name="Group 783" transform="translate(0)">
      <path id="Path_2260" data-name="Path 2260" d="M87.262,17.434l0,0-9.6-6.769a8.389,8.389,0,0,0-6.13-1.455,7.447,7.447,0,0,0,.143-1.451,7.194,7.194,0,0,0-1.986-5.006l-.651-.68a6.579,6.579,0,0,0-9.588,0,7.193,7.193,0,0,0-1.986,5.006,7.193,7.193,0,0,0,1.986,5.005l.651.68a6.692,6.692,0,0,0,2.879,1.787L53.3,22.171A4.173,4.173,0,0,0,51.97,24a3.839,3.839,0,0,0-2.142.158l-9.383,3.5a7.309,7.309,0,0,0,.532-2.75V23.94a6.786,6.786,0,1,0-13.559,0V24.9a7.13,7.13,0,0,0,3.628,6.265A6.943,6.943,0,0,0,27,37.536V55.465a1.441,1.441,0,1,0,2.879,0V52.714h5.678a1.391,1.391,0,0,0,.808-.26l6.509-4.614a3.719,3.719,0,0,1,2.16-.693,3.938,3.938,0,0,1,3.846,4.016v9.315L44.85,62.163V54.638a1.516,1.516,0,0,0-.729-1.308,1.387,1.387,0,0,0-1.449.018L35.378,57.9a3.2,3.2,0,0,0-1.468,2.7V73.953H29.879v-6.31a1.441,1.441,0,1,0-2.879,0v7.813a1.472,1.472,0,0,0,1.44,1.5h6.91a1.472,1.472,0,0,0,1.44-1.5V60.608a.147.147,0,0,1,.067-.124l5.115-3.2V75.457a1.472,1.472,0,0,0,1.44,1.5h48.08a1.472,1.472,0,0,0,1.44-1.5V28.367A13.167,13.167,0,0,0,87.262,17.434Zm-25.123-6.8-.651-.68a4.2,4.2,0,0,1,0-5.76A3.784,3.784,0,0,1,67,4.2l.651.68a4.206,4.206,0,0,1,0,5.76A3.789,3.789,0,0,1,62.139,10.639Zm-7.11,13.934L69.311,13.337a5.608,5.608,0,0,1,6.742-.182l7.98,5.629L76.99,24.7l-5.523-3.9a1.387,1.387,0,0,0-1.351-.146L56.15,26.63a1.124,1.124,0,0,1-1.412-.49l0-.007A1.225,1.225,0,0,1,55.029,24.572ZM30.3,24.9V23.94a3.9,3.9,0,1,1,7.8,0V24.9a3.9,3.9,0,1,1-7.8,0Zm8.219,14.531V47.3l-3.4,2.411H29.879V37.536a3.913,3.913,0,0,1,2.486-3.683l18.43-6.867a1.121,1.121,0,0,1,1.366.515,1.228,1.228,0,0,1-.335,1.59l-12.685,9.1A1.523,1.523,0,0,0,38.516,39.432Zm6.519,4.71A6.494,6.494,0,0,0,41.4,45.26V40.223l12.061-8.654a4.15,4.15,0,0,0,1.464-1.936,3.89,3.89,0,0,0,.814.088,3.823,3.823,0,0,0,1.507-.309l13.252-5.666,5.72,4.035a5.539,5.539,0,0,1,2.034,4.3V43.891H75.416a1.4,1.4,0,0,0-.88.314L60.227,55.751,51.76,59.282V51.163A6.886,6.886,0,0,0,45.035,44.142ZM90.051,73.953H44.85V65.4l16.631-6.937a1.424,1.424,0,0,0,.346-.206L75.907,46.9H90.051Zm0-30.062H87.172V32.036a1.441,1.441,0,1,0-2.879,0V43.891H81.126V32.082a8.705,8.705,0,0,0-1.889-5.412l7.263-6.1a10.187,10.187,0,0,1,3.552,7.8Z" transform="translate(-27)" fill="#45a8bc"/>
    </g>
  </g>
  <g id="Group_786" data-name="Group 786" transform="translate(52.783 52.96)">
    <g id="Group_785" data-name="Group 785">
      <path id="Path_2261" data-name="Path 2261" d="M398.465,352.333h-3.359a1.5,1.5,0,0,0,0,3.006h1.919v5.812a1.441,1.441,0,1,0,2.879,0v-7.315A1.472,1.472,0,0,0,398.465,352.333Z" transform="translate(-393.667 -352.333)" fill="#45a8bc"/>
    </g>
  </g>
  <g id="Group_788" data-name="Group 788" transform="translate(56.142 66.14)">
    <g id="Group_787" data-name="Group 787">
      <path id="Path_2262" data-name="Path 2262" d="M419.457,440.461a1.4,1.4,0,0,0-2.035,0,1.549,1.549,0,0,0,0,2.125,1.4,1.4,0,0,0,2.035,0,1.55,1.55,0,0,0,0-2.125Z" transform="translate(-417 -440.02)" fill="#45a8bc"/>
    </g>
  </g>
</svg>
