<svg xmlns="http://www.w3.org/2000/svg" width="28" height="28" viewBox="0 0 28 28">
  <g id="tel" transform="translate(-213 -3115)">
    <circle id="Ellipse_14" data-name="Ellipse 14" cx="14" cy="14" r="14" transform="translate(213 3115)" fill="#ecbb3c"/>
    <g id="phone-call" transform="translate(219.998 3122)">
      <g id="Group_166" data-name="Group 166" transform="translate(0.002 0.286)">
        <g id="Group_165" data-name="Group 165">
          <path id="Path_789" data-name="Path 789" d="M13.473,21.116l-2.744-2.744a.841.841,0,0,0-1.188,0l-.713.713a.84.84,0,0,0-.213.827l-.269.269h0c-.191.191-1.382-.1-2.821-1.542S3.792,16.012,3.983,15.82h0l.269-.269a.841.841,0,0,0,.827-.213l.713-.713a.841.841,0,0,0,0-1.188L3.05,10.693a.84.84,0,0,0-1.188,0l-.714.714a.84.84,0,0,0-.213.827s-.228.23-.24.245c-.759.844-.9,2.172-.4,3.76a11.969,11.969,0,0,0,2.991,4.638,11.97,11.97,0,0,0,4.638,2.991,5.8,5.8,0,0,0,1.74.3,2.893,2.893,0,0,0,2.115-.784l.15-.15a.843.843,0,0,0,.233.033.835.835,0,0,0,.594-.246l.714-.714A.841.841,0,0,0,13.473,21.116ZM2.456,11.287,5.2,14.031l-.713.714h0l-.01-.01L3.114,13.372,1.742,12Zm8.733,11.5h0c-.6.6-1.672.7-3.007.281a11.123,11.123,0,0,1-4.3-2.784,11.123,11.123,0,0,1-2.784-4.3c-.423-1.335-.323-2.4.281-3.008h0l.076-.076,2.129,2.129-.2.2h0c-.809.81.163,2.63,1.542,4.008A5.55,5.55,0,0,0,8.16,21.071a1.06,1.06,0,0,0,.78-.295h0l.2-.2,2.129,2.129Zm.977-.363L9.422,19.68l.714-.713,2.744,2.744Z" transform="translate(-0.002 -10.447)" fill="#fff"/>
        </g>
      </g>
      <g id="Group_168" data-name="Group 168" transform="translate(7.225 2.13)">
        <g id="Group_167" data-name="Group 167">
          <path id="Path_790" data-name="Path 790" d="M267.529,79.13a4.2,4.2,0,0,0-2.991-1.239.42.42,0,0,0,0,.84,3.389,3.389,0,0,1,3.389,3.389.42.42,0,1,0,.84,0A4.2,4.2,0,0,0,267.529,79.13Z" transform="translate(-264.118 -77.891)" fill="#fff"/>
        </g>
      </g>
      <g id="Group_170" data-name="Group 170" transform="translate(7.225)">
        <g id="Group_169" data-name="Group 169">
          <path id="Path_791" data-name="Path 791" d="M269.029,1.863A6.318,6.318,0,0,0,264.532,0a.42.42,0,1,0,0,.84,5.52,5.52,0,0,1,5.52,5.52.42.42,0,0,0,.84,0A6.318,6.318,0,0,0,269.029,1.863Z" transform="translate(-264.112 0)" fill="#fff"/>
        </g>
      </g>
      <g id="Group_172" data-name="Group 172" transform="translate(7.226 4.261)">
        <g id="Group_171" data-name="Group 171">
          <path id="Path_792" data-name="Path 792" d="M266.025,156.4a2.057,2.057,0,0,0-1.484-.615h0a.42.42,0,0,0,0,.84h0a1.218,1.218,0,0,1,.89.369,1.234,1.234,0,0,1,.369.89.42.42,0,0,0,.42.42h0a.42.42,0,0,0,.42-.42A2.058,2.058,0,0,0,266.025,156.4Z" transform="translate(-264.121 -155.783)" fill="#fff"/>
        </g>
      </g>
    </g>
  </g>
</svg>
