<svg xmlns="http://www.w3.org/2000/svg" width="18.633" height="20.63" viewBox="0 0 18.633 20.63">
  <g id="timer" transform="translate(-12.051 -6.25)">
    <g id="Group_735" data-name="Group 735" transform="translate(12.3 6.5)">
      <path id="Path_2130" data-name="Path 2130" d="M12.3,17.564a9.066,9.066,0,1,0,15.493-6.392l.712-.712.33.33a.713.713,0,0,0,1.007,0,.713.713,0,0,0,0-1.007l-1.65-1.65A.712.712,0,0,0,27.185,9.14l.33.33-.782.782A8.972,8.972,0,0,0,22.1,8.532V7.924h1.581a.712.712,0,1,0,0-1.424h-4.69a.712.712,0,0,0,0,1.424h1.685v.608A9.071,9.071,0,0,0,12.3,17.564Zm9.066-7.642a7.66,7.66,0,1,1-7.66,7.66A7.672,7.672,0,0,1,21.366,9.922Z" transform="translate(-12.3 -6.5)" fill="#ecbb3c" stroke="#fff" stroke-width="0.5"/>
      <path id="Path_2131" data-name="Path 2131" d="M61.112,46h3.039a.712.712,0,1,0,0-1.424H61.824V40.912a.712.712,0,1,0-1.424,0v4.394a.7.7,0,0,0,.712.695Z" transform="translate(-52.046 -34.347)" fill="#ecbb3c" stroke="#fff" stroke-width="0.5"/>
    </g>
  </g>
</svg>
