<svg xmlns="http://www.w3.org/2000/svg" xmlns:xlink="http://www.w3.org/1999/xlink" width="1366.097" height="681.326" viewBox="0 0 1366.097 681.326">
  <defs>
    <linearGradient id="linear-gradient" x1="0.5" x2="0.5" y2="1" gradientUnits="objectBoundingBox">
      <stop offset="0" stop-color="#d3487b"/>
      <stop offset="0.657" stop-color="#9b2e67"/>
      <stop offset="1" stop-color="#982d66"/>
    </linearGradient>
  </defs>
  <g id="bg-ondas" transform="translate(0.026 -583.742)">
    <path id="Subtraction_10" data-name="Subtraction 10" d="M-1334.007,1205.068l-.019-507.673A376.448,376.448,0,0,0-1133.5,755a376.747,376.747,0,0,0,123.538-20.678,375.975,375.975,0,0,0,106.393-57.4c24.761-16.095,48.17-30.4,71.566-43.738,33.642-19.178,66.99-36.153,99.117-50.454,87.925-39.14,167.792-58.985,237.382-58.985a1285.337,1285.337,0,0,1,148.313,8.209c25.484,2.977,50.364,6.807,73.949,11.383,24.936,4.838,49.067,10.635,71.722,17.231a643.37,643.37,0,0,1,67.927,23.827c11,4.6,21.783,9.515,32.051,14.621,10.514,5.227,20.78,10.8,30.515,16.549,9.96,5.888,19.644,12.136,28.782,18.572,9.344,6.581,18.379,13.541,26.855,20.688,8.66,7.3,16.98,15.006,24.731,22.9,7.914,8.058,15.454,16.537,22.411,25.2.479,3.424.278,496.981.275,501.965Z" transform="translate(1334 60)" fill="url(#linear-gradient)"/>
  </g>
</svg>
