<svg xmlns="http://www.w3.org/2000/svg" xmlns:xlink="http://www.w3.org/1999/xlink" width="1366.088" height="530.888" viewBox="0 0 1366.088 530.888">
  <defs>
    <linearGradient id="linear-gradient" x1="0.5" x2="0.5" y2="1" gradientUnits="objectBoundingBox">
      <stop offset="0" stop-color="#d3487b"/>
      <stop offset="0.657" stop-color="#9b2e67"/>
      <stop offset="1" stop-color="#982d66"/>
    </linearGradient>
  </defs>
  <g id="bg-ondas2" transform="translate(-0.014 -3596.115)">
    <path id="Subtraction_3" data-name="Subtraction 3" d="M-12271.9,1570.6h0l-1366.034-.185c0-.15,0-.947,0-2.335-.034-55.318-.182-331.428.255-334.561,7.037-8.764,14.323-17.293,21.655-25.35,7.354-8.08,14.972-15.927,22.644-23.321s15.662-14.591,23.707-21.349,16.4-13.293,24.843-19.432,17.207-12.048,26.057-17.573,18.041-10.828,27.34-15.77c9.272-4.929,18.929-9.648,28.7-14.024,9.741-4.363,19.88-8.513,30.134-12.335,10.215-3.808,20.86-7.408,31.642-10.7,10.718-3.274,21.9-6.345,33.225-9.125,11.25-2.762,22.986-5.321,34.881-7.605,11.8-2.267,24.121-4.334,36.612-6.142,24.594-3.561,51.077-6.293,78.713-8.122,26.969-1.784,56.081-2.776,86.528-2.948.937-.005,1.891-.008,2.837-.008a522.772,522.772,0,0,1,64.021,4,571.7,571.7,0,0,1,61.043,11.025c19,4.494,38.367,10.073,57.561,16.581,17.724,6.01,35.748,12.964,53.571,20.67,16.269,7.033,32.78,14.87,49.075,23.291,14.623,7.557,29.452,15.781,44.075,24.445,23.769,14.083,47.032,29.288,71.119,46.482a376.452,376.452,0,0,0,255.271,99.393,376.448,376.448,0,0,0,200.527-57.606V1570.6Z" transform="translate(13638 2556.404)" fill="url(#linear-gradient)"/>
  </g>
</svg>
