<svg id="planta2" xmlns="http://www.w3.org/2000/svg" width="54.384" height="107.233" viewBox="0 0 54.384 107.233">
  <defs>
    <style>
      .cls-1 {
        fill: #824a97;
      }

      .cls-2 {
        fill: #194866;
      }

      .cls-3 {
        fill: #45a8bc;
      }

      .cls-4 {
        fill: #0e2529;
      }

      .cls-5 {
        fill: #fff;
      }

      .cls-6 {
        fill: #becae0;
      }
    </style>
  </defs>
  <g id="Group_47" data-name="Group 47" transform="translate(12.158)">
    <path id="Path_297" data-name="Path 297" class="cls-1" d="M251.027,218.474c-2.445-2.357-6.4-3.3-9.193-1.446-5.385,3.581-1.694,8.819-.682,11.7,4.284,12.212-9.635,11.445-13.046,20.831-1.808,4.98,8.635,18.777,8.25,19.942a5.552,5.552,0,0,1-3.886,3.319,7.034,7.034,0,0,0-4.345,6.359c0,8.952,8.179,13.682,13.8,15.068,5.082,1.25,16.1.6,20.253-4.113s4.877-10.615,3.475-16.8c-.681-3-3.711-8.1-3.3-11.425.706-5.627,4.751-10.39,5.816-14s.648-8.347-2.4-11.056C258.124,230.041,253.064,220.436,251.027,218.474Z" transform="translate(-227.895 -216.047)"/>
    <path id="Path_298" data-name="Path 298" class="cls-2" d="M241.459,246.274c-.072-4.064-.156-8.139-.347-12.208-.186,4.064-.275,8.137-.347,12.208s-.067,8.139-.1,12.208c0,0-1.435,24.416.451,24.416s.451-24.416.451-24.416C241.526,254.413,241.534,250.344,241.459,246.274Z" transform="translate(-221.023 -205.901)"/>
    <path id="Path_299" data-name="Path 299" class="cls-2" d="M247.982,244.776c-.91,1.072-1.778,2.179-2.637,3.283a70.15,70.15,0,0,0-4.756,6.975,69.647,69.647,0,0,0,5.474-6.424c.846-1.122,1.683-2.251,2.478-3.411A38.771,38.771,0,0,1,251,241.789,15.656,15.656,0,0,0,247.982,244.776Z" transform="translate(-220.771 -201.552)"/>
    <path id="Path_300" data-name="Path 300" class="cls-2" d="M242.209,261.457a29.278,29.278,0,0,0-1.916-2.377,24.449,24.449,0,0,0-4.575-4.037c1.226,1.648,2.568,3.136,3.9,4.644.678.742,1.347,1.49,2.045,2.22L242.714,263a2.6,2.6,0,0,1,.781,1.236,2.4,2.4,0,0,0-.42-1.5C242.793,262.285,242.511,261.87,242.209,261.457Z" transform="translate(-223.504 -194.089)"/>
    <path id="Path_301" data-name="Path 301" class="cls-2" d="M236.131,236.116c1.01,2.012,2.02,3.973,3.123,5.913a30.462,30.462,0,0,0,3.834,5.508c-.937-2.048-1.947-4.016-3.051-5.959a26.836,26.836,0,0,0-3.906-5.463Z" transform="translate(-223.273 -204.746)"/>
  </g>
  <g id="Group_48" data-name="Group 48" transform="translate(1.915 33.466)">
    <path id="Path_302" data-name="Path 302" class="cls-3" d="M241.093,266.624a3.172,3.172,0,0,1-.347-2.143,12.878,12.878,0,0,1,1.191-3.02,4.313,4.313,0,0,0,.045-3.87c-1.452-2.814-5.777-3.37-6.948-6.565-.553-1.5.215-2.635.849-4.131a10.112,10.112,0,0,0,1.288-5.282,4.3,4.3,0,0,0-3.369-4.108c-2.226-.35-4.27,1.26-5.825,2.97a20.647,20.647,0,0,0-3.041,3.62c-2.4,4.166-4.606,7.544-3.123,12.688,1.2,4.152,6.592,5.471,4.593,15.437-1.82,9.085,8.935,11.2,12.437,11.2,3.112,0,6.813-.566,8.162-3.842a8.513,8.513,0,0,0-2.139-9.166C243.718,269.188,241.871,268.112,241.093,266.624Z" transform="translate(-221.334 -237.457)"/>
    <path id="Path_303" data-name="Path 303" class="cls-4" d="M233.8,262c-.971-2.262-1.941-4.522-2.976-6.754s-2.066-4.467-3.2-6.662c.781,2.345,1.666,4.639,2.56,6.932s1.831,4.567,2.781,6.837,1.939,4.522,2.974,6.754,2.066,4.467,3.2,6.66c-.781-2.345-1.666-4.638-2.559-6.932S234.748,264.272,233.8,262Z" transform="translate(-217.804 -231.189)"/>
    <path id="Path_304" data-name="Path 304" class="cls-4" d="M231.827,252.027a11.129,11.129,0,0,0-.735,2.538,34.24,34.24,0,0,0-.354,5.174,21.391,21.391,0,0,0,1.249-5.016c.139-.833.3-1.655.51-2.46a9.711,9.711,0,0,1,.916-2.356A5.126,5.126,0,0,0,231.827,252.027Z" transform="translate(-216.057 -230.447)"/>
    <path id="Path_305" data-name="Path 305" class="cls-4" d="M233.688,261.739a5.739,5.739,0,0,0-2-.291c-.648-.009-1.26.064-1.922.016a4.894,4.894,0,0,0,1.85.685,11.7,11.7,0,0,1,1.761.441,7.613,7.613,0,0,1,2.88,2.152,4.464,4.464,0,0,0-.874-1.8,3.974,3.974,0,0,0-1.7-1.2Z" transform="translate(-216.6 -223.949)"/>
    <path id="Path_306" data-name="Path 306" class="cls-4" d="M228.794,250.958a16.076,16.076,0,0,0-3.931-1.707,20.325,20.325,0,0,0,3.457,2.478q.89.538,1.747,1.107a9.236,9.236,0,0,1,1.617,1.31,4.1,4.1,0,0,0-1.168-1.854A9.858,9.858,0,0,0,228.794,250.958Z" transform="translate(-219.354 -230.816)"/>
  </g>
  <path id="Path_307" data-name="Path 307" class="cls-3" d="M232.761,237.487a8.186,8.186,0,0,0-4.784,2.986,20.648,20.648,0,0,0-3.041,3.62c-2.4,4.166-4.606,7.543-3.123,12.688,1.174,4.064,6.361,5.435,4.684,14.876,1.591-1.949,1.642-4.3,5.079-7.631,5.883-5.7-2.782-11.545-2.792-16.927C228.775,242.689,229.6,238.933,232.761,237.487Z" transform="translate(-219.42 -203.974)"/>
  <path id="Path_308" data-name="Path 308" class="cls-5" d="M223.1,261.972h48.4a2.993,2.993,0,0,1,2.991,2.995v4.228a3,3,0,0,1-2.993,3H223.1a2.993,2.993,0,0,1-2.991-2.995v-4.228A3,3,0,0,1,223.1,261.972Z" transform="translate(-220.108 -190.187)"/>
  <path id="Path_309" data-name="Path 309" class="cls-6" d="M227.4,291a3.459,3.459,0,0,0,3.382,2.735h30.289A3.461,3.461,0,0,0,264.45,291l4.84-22.494H222.555Z" transform="translate(-218.735 -186.506)"/>
</svg>
